; NON-PLATED HOLES START AT T1
; THROUGH (PLATED) HOLES START AT T100
M48
INCH
T100C0.039370
T101C0.018251
T102C0.098425
T103C0.125984
T104C0.038000
T105C0.015748
%
T100
X011250Y008716
X011250Y006716
X003250Y009716
X003250Y007716
X003250Y008716
X003250Y010716
X011250Y011716
X003250Y011716
X011250Y010716
X011250Y013716
X011250Y012716
X011250Y005716
X011250Y007716
X003250Y006716
X011250Y009716
T101
X024250Y007216
X024250Y011216
X024250Y009216
X023250Y009216
X023250Y006216
X023250Y007216
X023250Y014216
X014250Y012216
X023250Y008216
X014250Y010216
X013250Y007216
X014250Y011216
X014250Y006216
X013250Y008216
X023250Y011216
X023250Y005216
X014250Y014216
X014250Y008216
X023250Y010216
X024250Y005216
X014250Y005216
X013250Y013216
X024250Y006216
X014250Y013216
X013250Y006216
X013250Y005216
X013250Y011216
X024250Y008216
X024250Y012216
X014250Y009216
X013250Y010216
X024250Y014216
X013250Y009216
X013250Y012216
X023250Y013216
X024250Y010216
X024250Y013216
X013250Y014216
X023250Y012216
X014250Y007216
T102
X011250Y016716
X003250Y003716
X003250Y016716
X011250Y003716
T103
X026250Y016359
X026250Y001501
X001251Y016353
X001251Y001506
T104
X026250Y007216
X021750Y002716
X026250Y006216
X015250Y002716
X022750Y002716
X026250Y009716
X007750Y001716
X023750Y002716
X006750Y001716
X018250Y002716
X005750Y001716
X026250Y011216
X026250Y008716
X026250Y012216
X017250Y002716
X016250Y002716
T105
X019250Y009216
X017250Y009716
T00
M30
