G04 MADE WITH FRITZING*
G04 WWW.FRITZING.ORG*
G04 DOUBLE SIDED*
G04 HOLES PLATED*
G04 CONTOUR ON CENTER OF CONTOUR VECTOR*
%ASAXBY*%
%FSLAX23Y23*%
%MOIN*%
%OFA0B0*%
%SFA1.0B1.0*%
%ADD10C,0.075000*%
%ADD11C,0.057621*%
%ADD12C,0.138425*%
%ADD13C,0.070000*%
%ADD14C,0.078000*%
%ADD15C,0.204725*%
%ADD16C,0.039370*%
%ADD17C,0.024000*%
%LNCOPPER1*%
G90*
G70*
G54D10*
X793Y1269D03*
X475Y1673D03*
G54D11*
X1325Y1422D03*
X1325Y1322D03*
X1325Y1222D03*
X1325Y1122D03*
X1325Y1022D03*
X1325Y922D03*
X1325Y822D03*
X1325Y722D03*
X1325Y522D03*
X1325Y622D03*
X1425Y1422D03*
X1425Y1322D03*
X1425Y1222D03*
X1425Y1122D03*
X1425Y1022D03*
X1425Y922D03*
X1425Y822D03*
X1425Y722D03*
X1425Y622D03*
X1425Y522D03*
X2325Y1422D03*
X2325Y1322D03*
X2325Y1222D03*
X2325Y1122D03*
X2325Y1022D03*
X2325Y922D03*
X2325Y822D03*
X2325Y722D03*
X2325Y622D03*
X2325Y522D03*
X2425Y1422D03*
X2425Y1322D03*
X2425Y1222D03*
X2425Y1122D03*
X2425Y1022D03*
X2425Y922D03*
X2425Y822D03*
X2425Y722D03*
X2425Y622D03*
X2425Y522D03*
G54D12*
X1125Y372D03*
X325Y372D03*
G54D13*
X325Y672D03*
X325Y772D03*
X325Y872D03*
G54D12*
X1125Y1672D03*
G54D13*
X325Y972D03*
G54D12*
X325Y1672D03*
G54D13*
X325Y1072D03*
X325Y1172D03*
X1125Y572D03*
X1125Y672D03*
X1125Y772D03*
X1125Y872D03*
X1125Y972D03*
X1125Y1072D03*
X1125Y1172D03*
X1125Y1272D03*
X1125Y1372D03*
G54D14*
X2625Y1222D03*
X2625Y1122D03*
X2625Y972D03*
X2625Y872D03*
X2625Y722D03*
X2625Y622D03*
X575Y172D03*
X675Y172D03*
X775Y172D03*
G54D15*
X125Y151D03*
X125Y1635D03*
X2625Y150D03*
X2625Y1636D03*
G54D16*
X1925Y922D03*
X1725Y972D03*
G54D14*
X1525Y272D03*
X1625Y272D03*
X1725Y272D03*
X1825Y272D03*
X2175Y272D03*
X2275Y272D03*
X2375Y272D03*
G54D17*
X575Y1172D02*
X575Y202D01*
D02*
X775Y1372D02*
X575Y1172D01*
D02*
X1094Y1372D02*
X775Y1372D01*
D02*
X675Y1121D02*
X675Y202D01*
D02*
X826Y1272D02*
X675Y1121D01*
D02*
X1094Y1272D02*
X826Y1272D01*
D02*
X775Y1072D02*
X775Y202D01*
D02*
X875Y1172D02*
X775Y1072D01*
D02*
X1094Y1172D02*
X875Y1172D01*
D02*
X1225Y472D02*
X1307Y513D01*
D02*
X1025Y472D02*
X1225Y472D01*
D02*
X976Y521D02*
X1025Y472D01*
D02*
X976Y721D02*
X976Y521D01*
D02*
X1025Y772D02*
X976Y721D01*
D02*
X1094Y772D02*
X1025Y772D01*
D02*
X1225Y1072D02*
X1156Y1072D01*
D02*
X1307Y1031D02*
X1225Y1072D01*
D02*
X1176Y972D02*
X1156Y972D01*
D02*
X1276Y721D02*
X1176Y972D01*
D02*
X1305Y721D02*
X1276Y721D01*
D02*
X1176Y872D02*
X1156Y872D01*
D02*
X1274Y623D02*
X1176Y872D01*
D02*
X1305Y622D02*
X1274Y623D01*
D02*
X1525Y1172D02*
X1525Y621D01*
D02*
X1525Y621D02*
X1476Y572D01*
D02*
X1476Y1221D02*
X1525Y1172D01*
D02*
X1476Y572D02*
X1156Y572D01*
D02*
X1445Y1221D02*
X1476Y1221D01*
D02*
X1776Y921D02*
X1906Y922D01*
D02*
X1738Y958D02*
X1776Y921D01*
D02*
X2525Y772D02*
X2525Y621D01*
D02*
X2525Y621D02*
X2595Y621D01*
D02*
X2443Y813D02*
X2525Y772D01*
D02*
X2576Y1121D02*
X2595Y1121D01*
D02*
X2474Y921D02*
X2576Y1121D01*
D02*
X2445Y921D02*
X2474Y921D01*
D02*
X2225Y622D02*
X2271Y301D01*
D02*
X2311Y707D02*
X2225Y622D01*
D02*
X2145Y272D02*
X1855Y272D01*
G36*
X206Y1732D02*
X206Y1712D01*
X208Y1712D01*
X208Y1710D01*
X210Y1710D01*
X210Y1708D01*
X212Y1708D01*
X212Y1706D01*
X214Y1706D01*
X214Y1702D01*
X216Y1702D01*
X216Y1700D01*
X218Y1700D01*
X218Y1698D01*
X220Y1698D01*
X220Y1694D01*
X222Y1694D01*
X222Y1690D01*
X224Y1690D01*
X224Y1686D01*
X226Y1686D01*
X226Y1682D01*
X246Y1682D01*
X246Y1684D01*
X248Y1684D01*
X248Y1694D01*
X250Y1694D01*
X250Y1700D01*
X252Y1700D01*
X252Y1704D01*
X254Y1704D01*
X254Y1708D01*
X256Y1708D01*
X256Y1712D01*
X258Y1712D01*
X258Y1732D01*
X206Y1732D01*
G37*
D02*
G36*
X782Y1350D02*
X782Y1348D01*
X780Y1348D01*
X780Y1346D01*
X778Y1346D01*
X778Y1344D01*
X776Y1344D01*
X776Y1342D01*
X774Y1342D01*
X774Y1340D01*
X772Y1340D01*
X772Y1338D01*
X770Y1338D01*
X770Y1336D01*
X768Y1336D01*
X768Y1334D01*
X766Y1334D01*
X766Y1332D01*
X764Y1332D01*
X764Y1330D01*
X762Y1330D01*
X762Y1328D01*
X760Y1328D01*
X760Y1326D01*
X758Y1326D01*
X758Y1324D01*
X756Y1324D01*
X756Y1322D01*
X754Y1322D01*
X754Y1320D01*
X752Y1320D01*
X752Y1318D01*
X750Y1318D01*
X750Y1316D01*
X748Y1316D01*
X748Y1314D01*
X746Y1314D01*
X746Y1312D01*
X744Y1312D01*
X744Y1310D01*
X742Y1310D01*
X742Y1308D01*
X740Y1308D01*
X740Y1306D01*
X738Y1306D01*
X738Y1304D01*
X736Y1304D01*
X736Y1302D01*
X734Y1302D01*
X734Y1300D01*
X732Y1300D01*
X732Y1298D01*
X730Y1298D01*
X730Y1296D01*
X728Y1296D01*
X728Y1294D01*
X726Y1294D01*
X726Y1292D01*
X724Y1292D01*
X724Y1290D01*
X722Y1290D01*
X722Y1288D01*
X720Y1288D01*
X720Y1286D01*
X718Y1286D01*
X718Y1284D01*
X716Y1284D01*
X716Y1282D01*
X714Y1282D01*
X714Y1280D01*
X712Y1280D01*
X712Y1278D01*
X710Y1278D01*
X710Y1276D01*
X708Y1276D01*
X708Y1274D01*
X706Y1274D01*
X706Y1272D01*
X704Y1272D01*
X704Y1270D01*
X702Y1270D01*
X702Y1268D01*
X700Y1268D01*
X700Y1266D01*
X698Y1266D01*
X698Y1264D01*
X696Y1264D01*
X696Y1262D01*
X694Y1262D01*
X694Y1260D01*
X692Y1260D01*
X692Y1258D01*
X690Y1258D01*
X690Y1256D01*
X688Y1256D01*
X688Y1254D01*
X686Y1254D01*
X686Y1252D01*
X684Y1252D01*
X684Y1250D01*
X682Y1250D01*
X682Y1248D01*
X680Y1248D01*
X680Y1246D01*
X678Y1246D01*
X678Y1244D01*
X676Y1244D01*
X676Y1242D01*
X674Y1242D01*
X674Y1240D01*
X672Y1240D01*
X672Y1238D01*
X670Y1238D01*
X670Y1236D01*
X668Y1236D01*
X668Y1234D01*
X666Y1234D01*
X666Y1232D01*
X664Y1232D01*
X664Y1230D01*
X662Y1230D01*
X662Y1228D01*
X660Y1228D01*
X660Y1226D01*
X658Y1226D01*
X658Y1224D01*
X656Y1224D01*
X656Y1222D01*
X654Y1222D01*
X654Y1220D01*
X652Y1220D01*
X652Y1218D01*
X650Y1218D01*
X650Y1216D01*
X648Y1216D01*
X648Y1214D01*
X646Y1214D01*
X646Y1212D01*
X644Y1212D01*
X644Y1210D01*
X642Y1210D01*
X642Y1208D01*
X640Y1208D01*
X640Y1206D01*
X638Y1206D01*
X638Y1204D01*
X636Y1204D01*
X636Y1202D01*
X634Y1202D01*
X634Y1200D01*
X632Y1200D01*
X632Y1198D01*
X630Y1198D01*
X630Y1196D01*
X628Y1196D01*
X628Y1194D01*
X626Y1194D01*
X626Y1192D01*
X624Y1192D01*
X624Y1190D01*
X622Y1190D01*
X622Y1188D01*
X620Y1188D01*
X620Y1186D01*
X618Y1186D01*
X618Y1184D01*
X616Y1184D01*
X616Y1182D01*
X614Y1182D01*
X614Y1180D01*
X612Y1180D01*
X612Y1178D01*
X610Y1178D01*
X610Y1176D01*
X608Y1176D01*
X608Y1174D01*
X606Y1174D01*
X606Y1172D01*
X604Y1172D01*
X604Y1170D01*
X602Y1170D01*
X602Y1168D01*
X600Y1168D01*
X600Y1166D01*
X598Y1166D01*
X598Y220D01*
X688Y220D01*
X688Y218D01*
X694Y218D01*
X694Y216D01*
X698Y216D01*
X698Y214D01*
X702Y214D01*
X702Y212D01*
X704Y212D01*
X704Y210D01*
X706Y210D01*
X706Y208D01*
X710Y208D01*
X710Y204D01*
X712Y204D01*
X712Y202D01*
X714Y202D01*
X714Y200D01*
X736Y200D01*
X736Y202D01*
X738Y202D01*
X738Y204D01*
X740Y204D01*
X740Y208D01*
X744Y208D01*
X744Y210D01*
X746Y210D01*
X746Y212D01*
X748Y212D01*
X748Y214D01*
X752Y214D01*
X752Y1074D01*
X754Y1074D01*
X754Y1082D01*
X756Y1082D01*
X756Y1086D01*
X758Y1086D01*
X758Y1088D01*
X760Y1088D01*
X760Y1090D01*
X762Y1090D01*
X762Y1092D01*
X764Y1092D01*
X764Y1094D01*
X766Y1094D01*
X766Y1096D01*
X768Y1096D01*
X768Y1098D01*
X770Y1098D01*
X770Y1100D01*
X772Y1100D01*
X772Y1102D01*
X774Y1102D01*
X774Y1104D01*
X776Y1104D01*
X776Y1106D01*
X778Y1106D01*
X778Y1108D01*
X780Y1108D01*
X780Y1110D01*
X782Y1110D01*
X782Y1112D01*
X784Y1112D01*
X784Y1114D01*
X786Y1114D01*
X786Y1116D01*
X788Y1116D01*
X788Y1118D01*
X790Y1118D01*
X790Y1120D01*
X792Y1120D01*
X792Y1122D01*
X794Y1122D01*
X794Y1124D01*
X796Y1124D01*
X796Y1126D01*
X798Y1126D01*
X798Y1128D01*
X800Y1128D01*
X800Y1130D01*
X802Y1130D01*
X802Y1132D01*
X804Y1132D01*
X804Y1134D01*
X806Y1134D01*
X806Y1136D01*
X808Y1136D01*
X808Y1138D01*
X810Y1138D01*
X810Y1140D01*
X812Y1140D01*
X812Y1142D01*
X814Y1142D01*
X814Y1144D01*
X816Y1144D01*
X816Y1146D01*
X818Y1146D01*
X818Y1148D01*
X820Y1148D01*
X820Y1150D01*
X822Y1150D01*
X822Y1152D01*
X824Y1152D01*
X824Y1154D01*
X826Y1154D01*
X826Y1156D01*
X828Y1156D01*
X828Y1158D01*
X830Y1158D01*
X830Y1160D01*
X832Y1160D01*
X832Y1162D01*
X834Y1162D01*
X834Y1164D01*
X836Y1164D01*
X836Y1166D01*
X838Y1166D01*
X838Y1168D01*
X840Y1168D01*
X840Y1170D01*
X842Y1170D01*
X842Y1172D01*
X844Y1172D01*
X844Y1174D01*
X846Y1174D01*
X846Y1176D01*
X848Y1176D01*
X848Y1178D01*
X850Y1178D01*
X850Y1180D01*
X852Y1180D01*
X852Y1182D01*
X854Y1182D01*
X854Y1184D01*
X856Y1184D01*
X856Y1186D01*
X858Y1186D01*
X858Y1188D01*
X860Y1188D01*
X860Y1190D01*
X864Y1190D01*
X864Y1192D01*
X868Y1192D01*
X868Y1194D01*
X1086Y1194D01*
X1086Y1196D01*
X1088Y1196D01*
X1088Y1198D01*
X1090Y1198D01*
X1090Y1202D01*
X1092Y1202D01*
X1092Y1204D01*
X1094Y1204D01*
X1094Y1206D01*
X1098Y1206D01*
X1098Y1208D01*
X1100Y1208D01*
X1100Y1210D01*
X1104Y1210D01*
X1104Y1212D01*
X1106Y1212D01*
X1106Y1232D01*
X1104Y1232D01*
X1104Y1234D01*
X1100Y1234D01*
X1100Y1236D01*
X1098Y1236D01*
X1098Y1238D01*
X1094Y1238D01*
X1094Y1240D01*
X1092Y1240D01*
X1092Y1242D01*
X1090Y1242D01*
X1090Y1246D01*
X1088Y1246D01*
X1088Y1248D01*
X1086Y1248D01*
X1086Y1252D01*
X1084Y1252D01*
X1084Y1256D01*
X1082Y1256D01*
X1082Y1264D01*
X1080Y1264D01*
X1080Y1280D01*
X1082Y1280D01*
X1082Y1288D01*
X1084Y1288D01*
X1084Y1292D01*
X1086Y1292D01*
X1086Y1296D01*
X1088Y1296D01*
X1088Y1298D01*
X1090Y1298D01*
X1090Y1302D01*
X1092Y1302D01*
X1092Y1304D01*
X1094Y1304D01*
X1094Y1306D01*
X1098Y1306D01*
X1098Y1308D01*
X1100Y1308D01*
X1100Y1310D01*
X1104Y1310D01*
X1104Y1312D01*
X1106Y1312D01*
X1106Y1332D01*
X1104Y1332D01*
X1104Y1334D01*
X1100Y1334D01*
X1100Y1336D01*
X1098Y1336D01*
X1098Y1338D01*
X1094Y1338D01*
X1094Y1340D01*
X1092Y1340D01*
X1092Y1342D01*
X1090Y1342D01*
X1090Y1346D01*
X1088Y1346D01*
X1088Y1348D01*
X1086Y1348D01*
X1086Y1350D01*
X782Y1350D01*
G37*
D02*
G36*
X598Y220D02*
X598Y214D01*
X602Y214D01*
X602Y212D01*
X604Y212D01*
X604Y210D01*
X606Y210D01*
X606Y208D01*
X610Y208D01*
X610Y204D01*
X612Y204D01*
X612Y202D01*
X614Y202D01*
X614Y200D01*
X636Y200D01*
X636Y202D01*
X638Y202D01*
X638Y204D01*
X640Y204D01*
X640Y208D01*
X644Y208D01*
X644Y210D01*
X646Y210D01*
X646Y212D01*
X648Y212D01*
X648Y214D01*
X652Y214D01*
X652Y216D01*
X656Y216D01*
X656Y218D01*
X662Y218D01*
X662Y220D01*
X598Y220D01*
G37*
D02*
G36*
X392Y1732D02*
X392Y1712D01*
X394Y1712D01*
X394Y1708D01*
X396Y1708D01*
X396Y1704D01*
X398Y1704D01*
X398Y1700D01*
X400Y1700D01*
X400Y1694D01*
X402Y1694D01*
X402Y1684D01*
X404Y1684D01*
X404Y1660D01*
X402Y1660D01*
X402Y1650D01*
X400Y1650D01*
X400Y1644D01*
X398Y1644D01*
X398Y1640D01*
X396Y1640D01*
X396Y1636D01*
X394Y1636D01*
X394Y1632D01*
X392Y1632D01*
X392Y1628D01*
X390Y1628D01*
X390Y1626D01*
X388Y1626D01*
X388Y1622D01*
X386Y1622D01*
X386Y1620D01*
X384Y1620D01*
X384Y1618D01*
X382Y1618D01*
X382Y1616D01*
X380Y1616D01*
X380Y1614D01*
X378Y1614D01*
X378Y1612D01*
X376Y1612D01*
X376Y1610D01*
X372Y1610D01*
X372Y1608D01*
X370Y1608D01*
X370Y1606D01*
X366Y1606D01*
X366Y1604D01*
X364Y1604D01*
X364Y1602D01*
X360Y1602D01*
X360Y1600D01*
X356Y1600D01*
X356Y1598D01*
X350Y1598D01*
X350Y1596D01*
X342Y1596D01*
X342Y1594D01*
X328Y1594D01*
X328Y1592D01*
X1122Y1592D01*
X1122Y1594D01*
X1108Y1594D01*
X1108Y1596D01*
X1100Y1596D01*
X1100Y1598D01*
X1094Y1598D01*
X1094Y1600D01*
X1090Y1600D01*
X1090Y1602D01*
X1086Y1602D01*
X1086Y1604D01*
X1084Y1604D01*
X1084Y1606D01*
X1080Y1606D01*
X1080Y1608D01*
X1078Y1608D01*
X1078Y1610D01*
X1074Y1610D01*
X1074Y1612D01*
X1072Y1612D01*
X1072Y1614D01*
X1070Y1614D01*
X1070Y1616D01*
X1068Y1616D01*
X1068Y1618D01*
X1066Y1618D01*
X1066Y1620D01*
X1064Y1620D01*
X1064Y1622D01*
X1062Y1622D01*
X1062Y1626D01*
X1060Y1626D01*
X1060Y1628D01*
X1058Y1628D01*
X1058Y1632D01*
X1056Y1632D01*
X1056Y1636D01*
X1054Y1636D01*
X1054Y1640D01*
X1052Y1640D01*
X1052Y1644D01*
X1050Y1644D01*
X1050Y1650D01*
X1048Y1650D01*
X1048Y1660D01*
X1046Y1660D01*
X1046Y1684D01*
X1048Y1684D01*
X1048Y1694D01*
X1050Y1694D01*
X1050Y1700D01*
X1052Y1700D01*
X1052Y1704D01*
X1054Y1704D01*
X1054Y1708D01*
X1056Y1708D01*
X1056Y1712D01*
X1058Y1712D01*
X1058Y1732D01*
X392Y1732D01*
G37*
D02*
G36*
X1192Y1732D02*
X1192Y1712D01*
X1194Y1712D01*
X1194Y1708D01*
X1196Y1708D01*
X1196Y1704D01*
X1198Y1704D01*
X1198Y1700D01*
X1200Y1700D01*
X1200Y1694D01*
X1202Y1694D01*
X1202Y1684D01*
X1204Y1684D01*
X1204Y1660D01*
X1202Y1660D01*
X1202Y1650D01*
X1200Y1650D01*
X1200Y1644D01*
X1198Y1644D01*
X1198Y1640D01*
X1196Y1640D01*
X1196Y1636D01*
X1194Y1636D01*
X1194Y1632D01*
X1192Y1632D01*
X1192Y1628D01*
X1190Y1628D01*
X1190Y1626D01*
X1188Y1626D01*
X1188Y1622D01*
X1186Y1622D01*
X1186Y1620D01*
X1184Y1620D01*
X1184Y1618D01*
X1182Y1618D01*
X1182Y1616D01*
X1180Y1616D01*
X1180Y1614D01*
X1178Y1614D01*
X1178Y1612D01*
X1176Y1612D01*
X1176Y1610D01*
X1172Y1610D01*
X1172Y1608D01*
X1170Y1608D01*
X1170Y1606D01*
X1166Y1606D01*
X1166Y1604D01*
X1164Y1604D01*
X1164Y1602D01*
X1160Y1602D01*
X1160Y1600D01*
X1156Y1600D01*
X1156Y1598D01*
X1150Y1598D01*
X1150Y1596D01*
X1142Y1596D01*
X1142Y1594D01*
X1128Y1594D01*
X1128Y1592D01*
X2522Y1592D01*
X2522Y1594D01*
X2520Y1594D01*
X2520Y1600D01*
X2518Y1600D01*
X2518Y1606D01*
X2516Y1606D01*
X2516Y1614D01*
X2514Y1614D01*
X2514Y1630D01*
X2512Y1630D01*
X2512Y1642D01*
X2514Y1642D01*
X2514Y1658D01*
X2516Y1658D01*
X2516Y1666D01*
X2518Y1666D01*
X2518Y1672D01*
X2520Y1672D01*
X2520Y1678D01*
X2522Y1678D01*
X2522Y1684D01*
X2524Y1684D01*
X2524Y1688D01*
X2526Y1688D01*
X2526Y1690D01*
X2528Y1690D01*
X2528Y1694D01*
X2530Y1694D01*
X2530Y1698D01*
X2532Y1698D01*
X2532Y1700D01*
X2534Y1700D01*
X2534Y1704D01*
X2536Y1704D01*
X2536Y1706D01*
X2538Y1706D01*
X2538Y1708D01*
X2540Y1708D01*
X2540Y1710D01*
X2542Y1710D01*
X2542Y1712D01*
X2544Y1712D01*
X2544Y1732D01*
X1192Y1732D01*
G37*
D02*
G36*
X238Y1632D02*
X238Y1626D01*
X236Y1626D01*
X236Y1612D01*
X234Y1612D01*
X234Y1604D01*
X232Y1604D01*
X232Y1598D01*
X230Y1598D01*
X230Y1592D01*
X322Y1592D01*
X322Y1594D01*
X308Y1594D01*
X308Y1596D01*
X300Y1596D01*
X300Y1598D01*
X294Y1598D01*
X294Y1600D01*
X290Y1600D01*
X290Y1602D01*
X286Y1602D01*
X286Y1604D01*
X284Y1604D01*
X284Y1606D01*
X280Y1606D01*
X280Y1608D01*
X278Y1608D01*
X278Y1610D01*
X274Y1610D01*
X274Y1612D01*
X272Y1612D01*
X272Y1614D01*
X270Y1614D01*
X270Y1616D01*
X268Y1616D01*
X268Y1618D01*
X266Y1618D01*
X266Y1620D01*
X264Y1620D01*
X264Y1622D01*
X262Y1622D01*
X262Y1626D01*
X260Y1626D01*
X260Y1628D01*
X258Y1628D01*
X258Y1632D01*
X238Y1632D01*
G37*
D02*
G36*
X228Y1592D02*
X228Y1590D01*
X2522Y1590D01*
X2522Y1592D01*
X228Y1592D01*
G37*
D02*
G36*
X228Y1592D02*
X228Y1590D01*
X2522Y1590D01*
X2522Y1592D01*
X228Y1592D01*
G37*
D02*
G36*
X228Y1592D02*
X228Y1590D01*
X2522Y1590D01*
X2522Y1592D01*
X228Y1592D01*
G37*
D02*
G36*
X228Y1590D02*
X228Y1588D01*
X226Y1588D01*
X226Y1584D01*
X224Y1584D01*
X224Y1580D01*
X222Y1580D01*
X222Y1578D01*
X220Y1578D01*
X220Y1574D01*
X218Y1574D01*
X218Y1572D01*
X216Y1572D01*
X216Y1568D01*
X214Y1568D01*
X214Y1566D01*
X212Y1566D01*
X212Y1564D01*
X210Y1564D01*
X210Y1562D01*
X208Y1562D01*
X208Y1558D01*
X206Y1558D01*
X206Y1556D01*
X204Y1556D01*
X204Y1554D01*
X200Y1554D01*
X200Y1552D01*
X198Y1552D01*
X198Y1550D01*
X196Y1550D01*
X196Y1548D01*
X194Y1548D01*
X194Y1546D01*
X192Y1546D01*
X192Y1544D01*
X188Y1544D01*
X188Y1542D01*
X186Y1542D01*
X186Y1540D01*
X182Y1540D01*
X182Y1538D01*
X178Y1538D01*
X178Y1536D01*
X174Y1536D01*
X174Y1534D01*
X170Y1534D01*
X170Y1532D01*
X166Y1532D01*
X166Y1530D01*
X160Y1530D01*
X160Y1528D01*
X152Y1528D01*
X152Y1526D01*
X142Y1526D01*
X142Y1524D01*
X2612Y1524D01*
X2612Y1526D01*
X2600Y1526D01*
X2600Y1528D01*
X2592Y1528D01*
X2592Y1530D01*
X2586Y1530D01*
X2586Y1532D01*
X2580Y1532D01*
X2580Y1534D01*
X2576Y1534D01*
X2576Y1536D01*
X2572Y1536D01*
X2572Y1538D01*
X2570Y1538D01*
X2570Y1540D01*
X2566Y1540D01*
X2566Y1542D01*
X2562Y1542D01*
X2562Y1544D01*
X2560Y1544D01*
X2560Y1546D01*
X2558Y1546D01*
X2558Y1548D01*
X2554Y1548D01*
X2554Y1550D01*
X2552Y1550D01*
X2552Y1552D01*
X2550Y1552D01*
X2550Y1554D01*
X2548Y1554D01*
X2548Y1556D01*
X2546Y1556D01*
X2546Y1558D01*
X2544Y1558D01*
X2544Y1560D01*
X2542Y1560D01*
X2542Y1562D01*
X2540Y1562D01*
X2540Y1564D01*
X2538Y1564D01*
X2538Y1566D01*
X2536Y1566D01*
X2536Y1570D01*
X2534Y1570D01*
X2534Y1572D01*
X2532Y1572D01*
X2532Y1576D01*
X2530Y1576D01*
X2530Y1578D01*
X2528Y1578D01*
X2528Y1582D01*
X2526Y1582D01*
X2526Y1586D01*
X2524Y1586D01*
X2524Y1590D01*
X228Y1590D01*
G37*
D02*
G36*
X2692Y1548D02*
X2692Y1546D01*
X2690Y1546D01*
X2690Y1544D01*
X2688Y1544D01*
X2688Y1542D01*
X2684Y1542D01*
X2684Y1540D01*
X2680Y1540D01*
X2680Y1538D01*
X2678Y1538D01*
X2678Y1536D01*
X2674Y1536D01*
X2674Y1534D01*
X2670Y1534D01*
X2670Y1532D01*
X2664Y1532D01*
X2664Y1530D01*
X2658Y1530D01*
X2658Y1528D01*
X2650Y1528D01*
X2650Y1526D01*
X2640Y1526D01*
X2640Y1524D01*
X2714Y1524D01*
X2714Y1548D01*
X2692Y1548D01*
G37*
D02*
G36*
X40Y1546D02*
X40Y1524D01*
X108Y1524D01*
X108Y1526D01*
X98Y1526D01*
X98Y1528D01*
X90Y1528D01*
X90Y1530D01*
X84Y1530D01*
X84Y1532D01*
X80Y1532D01*
X80Y1534D01*
X76Y1534D01*
X76Y1536D01*
X72Y1536D01*
X72Y1538D01*
X68Y1538D01*
X68Y1540D01*
X66Y1540D01*
X66Y1542D01*
X62Y1542D01*
X62Y1544D01*
X60Y1544D01*
X60Y1546D01*
X40Y1546D01*
G37*
D02*
G36*
X40Y1524D02*
X40Y1522D01*
X2714Y1522D01*
X2714Y1524D01*
X40Y1524D01*
G37*
D02*
G36*
X40Y1524D02*
X40Y1522D01*
X2714Y1522D01*
X2714Y1524D01*
X40Y1524D01*
G37*
D02*
G36*
X40Y1524D02*
X40Y1522D01*
X2714Y1522D01*
X2714Y1524D01*
X40Y1524D01*
G37*
D02*
G36*
X40Y1522D02*
X40Y1460D01*
X2436Y1460D01*
X2436Y1458D01*
X2442Y1458D01*
X2442Y1456D01*
X2446Y1456D01*
X2446Y1454D01*
X2448Y1454D01*
X2448Y1452D01*
X2450Y1452D01*
X2450Y1450D01*
X2452Y1450D01*
X2452Y1448D01*
X2454Y1448D01*
X2454Y1446D01*
X2456Y1446D01*
X2456Y1444D01*
X2458Y1444D01*
X2458Y1440D01*
X2460Y1440D01*
X2460Y1436D01*
X2462Y1436D01*
X2462Y1430D01*
X2464Y1430D01*
X2464Y1414D01*
X2462Y1414D01*
X2462Y1408D01*
X2460Y1408D01*
X2460Y1404D01*
X2458Y1404D01*
X2458Y1400D01*
X2456Y1400D01*
X2456Y1398D01*
X2454Y1398D01*
X2454Y1396D01*
X2452Y1396D01*
X2452Y1394D01*
X2450Y1394D01*
X2450Y1392D01*
X2448Y1392D01*
X2448Y1390D01*
X2446Y1390D01*
X2446Y1388D01*
X2442Y1388D01*
X2442Y1386D01*
X2436Y1386D01*
X2436Y1384D01*
X2714Y1384D01*
X2714Y1522D01*
X40Y1522D01*
G37*
D02*
G36*
X40Y1460D02*
X40Y1416D01*
X1138Y1416D01*
X1138Y1414D01*
X1144Y1414D01*
X1144Y1412D01*
X1146Y1412D01*
X1146Y1410D01*
X1150Y1410D01*
X1150Y1408D01*
X1152Y1408D01*
X1152Y1406D01*
X1156Y1406D01*
X1156Y1404D01*
X1158Y1404D01*
X1158Y1402D01*
X1160Y1402D01*
X1160Y1398D01*
X1162Y1398D01*
X1162Y1396D01*
X1164Y1396D01*
X1164Y1392D01*
X1166Y1392D01*
X1166Y1388D01*
X1168Y1388D01*
X1168Y1384D01*
X1314Y1384D01*
X1314Y1386D01*
X1308Y1386D01*
X1308Y1388D01*
X1304Y1388D01*
X1304Y1390D01*
X1302Y1390D01*
X1302Y1392D01*
X1300Y1392D01*
X1300Y1394D01*
X1298Y1394D01*
X1298Y1396D01*
X1296Y1396D01*
X1296Y1398D01*
X1294Y1398D01*
X1294Y1400D01*
X1292Y1400D01*
X1292Y1404D01*
X1290Y1404D01*
X1290Y1408D01*
X1288Y1408D01*
X1288Y1416D01*
X1286Y1416D01*
X1286Y1428D01*
X1288Y1428D01*
X1288Y1436D01*
X1290Y1436D01*
X1290Y1440D01*
X1292Y1440D01*
X1292Y1444D01*
X1294Y1444D01*
X1294Y1446D01*
X1296Y1446D01*
X1296Y1448D01*
X1298Y1448D01*
X1298Y1450D01*
X1300Y1450D01*
X1300Y1452D01*
X1302Y1452D01*
X1302Y1454D01*
X1304Y1454D01*
X1304Y1456D01*
X1308Y1456D01*
X1308Y1458D01*
X1314Y1458D01*
X1314Y1460D01*
X40Y1460D01*
G37*
D02*
G36*
X1336Y1460D02*
X1336Y1458D01*
X1342Y1458D01*
X1342Y1456D01*
X1346Y1456D01*
X1346Y1454D01*
X1348Y1454D01*
X1348Y1452D01*
X1350Y1452D01*
X1350Y1450D01*
X1352Y1450D01*
X1352Y1448D01*
X1354Y1448D01*
X1354Y1446D01*
X1356Y1446D01*
X1356Y1444D01*
X1358Y1444D01*
X1358Y1440D01*
X1360Y1440D01*
X1360Y1436D01*
X1362Y1436D01*
X1362Y1430D01*
X1364Y1430D01*
X1364Y1414D01*
X1362Y1414D01*
X1362Y1408D01*
X1360Y1408D01*
X1360Y1404D01*
X1358Y1404D01*
X1358Y1400D01*
X1356Y1400D01*
X1356Y1398D01*
X1354Y1398D01*
X1354Y1396D01*
X1352Y1396D01*
X1352Y1394D01*
X1350Y1394D01*
X1350Y1392D01*
X1348Y1392D01*
X1348Y1390D01*
X1346Y1390D01*
X1346Y1388D01*
X1342Y1388D01*
X1342Y1386D01*
X1336Y1386D01*
X1336Y1384D01*
X1414Y1384D01*
X1414Y1386D01*
X1408Y1386D01*
X1408Y1388D01*
X1404Y1388D01*
X1404Y1390D01*
X1402Y1390D01*
X1402Y1392D01*
X1400Y1392D01*
X1400Y1394D01*
X1398Y1394D01*
X1398Y1396D01*
X1396Y1396D01*
X1396Y1398D01*
X1394Y1398D01*
X1394Y1400D01*
X1392Y1400D01*
X1392Y1404D01*
X1390Y1404D01*
X1390Y1408D01*
X1388Y1408D01*
X1388Y1416D01*
X1386Y1416D01*
X1386Y1428D01*
X1388Y1428D01*
X1388Y1436D01*
X1390Y1436D01*
X1390Y1440D01*
X1392Y1440D01*
X1392Y1444D01*
X1394Y1444D01*
X1394Y1446D01*
X1396Y1446D01*
X1396Y1448D01*
X1398Y1448D01*
X1398Y1450D01*
X1400Y1450D01*
X1400Y1452D01*
X1402Y1452D01*
X1402Y1454D01*
X1404Y1454D01*
X1404Y1456D01*
X1408Y1456D01*
X1408Y1458D01*
X1414Y1458D01*
X1414Y1460D01*
X1336Y1460D01*
G37*
D02*
G36*
X1436Y1460D02*
X1436Y1458D01*
X1442Y1458D01*
X1442Y1456D01*
X1446Y1456D01*
X1446Y1454D01*
X1448Y1454D01*
X1448Y1452D01*
X1450Y1452D01*
X1450Y1450D01*
X1452Y1450D01*
X1452Y1448D01*
X1454Y1448D01*
X1454Y1446D01*
X1456Y1446D01*
X1456Y1444D01*
X1458Y1444D01*
X1458Y1440D01*
X1460Y1440D01*
X1460Y1436D01*
X1462Y1436D01*
X1462Y1430D01*
X1464Y1430D01*
X1464Y1414D01*
X1462Y1414D01*
X1462Y1408D01*
X1460Y1408D01*
X1460Y1404D01*
X1458Y1404D01*
X1458Y1400D01*
X1456Y1400D01*
X1456Y1398D01*
X1454Y1398D01*
X1454Y1396D01*
X1452Y1396D01*
X1452Y1394D01*
X1450Y1394D01*
X1450Y1392D01*
X1448Y1392D01*
X1448Y1390D01*
X1446Y1390D01*
X1446Y1388D01*
X1442Y1388D01*
X1442Y1386D01*
X1436Y1386D01*
X1436Y1384D01*
X2314Y1384D01*
X2314Y1386D01*
X2308Y1386D01*
X2308Y1388D01*
X2304Y1388D01*
X2304Y1390D01*
X2302Y1390D01*
X2302Y1392D01*
X2300Y1392D01*
X2300Y1394D01*
X2298Y1394D01*
X2298Y1396D01*
X2296Y1396D01*
X2296Y1398D01*
X2294Y1398D01*
X2294Y1400D01*
X2292Y1400D01*
X2292Y1404D01*
X2290Y1404D01*
X2290Y1408D01*
X2288Y1408D01*
X2288Y1416D01*
X2286Y1416D01*
X2286Y1428D01*
X2288Y1428D01*
X2288Y1436D01*
X2290Y1436D01*
X2290Y1440D01*
X2292Y1440D01*
X2292Y1444D01*
X2294Y1444D01*
X2294Y1446D01*
X2296Y1446D01*
X2296Y1448D01*
X2298Y1448D01*
X2298Y1450D01*
X2300Y1450D01*
X2300Y1452D01*
X2302Y1452D01*
X2302Y1454D01*
X2304Y1454D01*
X2304Y1456D01*
X2308Y1456D01*
X2308Y1458D01*
X2314Y1458D01*
X2314Y1460D01*
X1436Y1460D01*
G37*
D02*
G36*
X2336Y1460D02*
X2336Y1458D01*
X2342Y1458D01*
X2342Y1456D01*
X2346Y1456D01*
X2346Y1454D01*
X2348Y1454D01*
X2348Y1452D01*
X2350Y1452D01*
X2350Y1450D01*
X2352Y1450D01*
X2352Y1448D01*
X2354Y1448D01*
X2354Y1446D01*
X2356Y1446D01*
X2356Y1444D01*
X2358Y1444D01*
X2358Y1440D01*
X2360Y1440D01*
X2360Y1436D01*
X2362Y1436D01*
X2362Y1430D01*
X2364Y1430D01*
X2364Y1414D01*
X2362Y1414D01*
X2362Y1408D01*
X2360Y1408D01*
X2360Y1404D01*
X2358Y1404D01*
X2358Y1400D01*
X2356Y1400D01*
X2356Y1398D01*
X2354Y1398D01*
X2354Y1396D01*
X2352Y1396D01*
X2352Y1394D01*
X2350Y1394D01*
X2350Y1392D01*
X2348Y1392D01*
X2348Y1390D01*
X2346Y1390D01*
X2346Y1388D01*
X2342Y1388D01*
X2342Y1386D01*
X2336Y1386D01*
X2336Y1384D01*
X2414Y1384D01*
X2414Y1386D01*
X2408Y1386D01*
X2408Y1388D01*
X2404Y1388D01*
X2404Y1390D01*
X2402Y1390D01*
X2402Y1392D01*
X2400Y1392D01*
X2400Y1394D01*
X2398Y1394D01*
X2398Y1396D01*
X2396Y1396D01*
X2396Y1398D01*
X2394Y1398D01*
X2394Y1400D01*
X2392Y1400D01*
X2392Y1404D01*
X2390Y1404D01*
X2390Y1408D01*
X2388Y1408D01*
X2388Y1416D01*
X2386Y1416D01*
X2386Y1428D01*
X2388Y1428D01*
X2388Y1436D01*
X2390Y1436D01*
X2390Y1440D01*
X2392Y1440D01*
X2392Y1444D01*
X2394Y1444D01*
X2394Y1446D01*
X2396Y1446D01*
X2396Y1448D01*
X2398Y1448D01*
X2398Y1450D01*
X2400Y1450D01*
X2400Y1452D01*
X2402Y1452D01*
X2402Y1454D01*
X2404Y1454D01*
X2404Y1456D01*
X2408Y1456D01*
X2408Y1458D01*
X2414Y1458D01*
X2414Y1460D01*
X2336Y1460D01*
G37*
D02*
G36*
X40Y1416D02*
X40Y1216D01*
X338Y1216D01*
X338Y1214D01*
X344Y1214D01*
X344Y1212D01*
X346Y1212D01*
X346Y1210D01*
X350Y1210D01*
X350Y1208D01*
X352Y1208D01*
X352Y1206D01*
X356Y1206D01*
X356Y1204D01*
X358Y1204D01*
X358Y1202D01*
X360Y1202D01*
X360Y1198D01*
X362Y1198D01*
X362Y1196D01*
X364Y1196D01*
X364Y1192D01*
X366Y1192D01*
X366Y1188D01*
X368Y1188D01*
X368Y1180D01*
X370Y1180D01*
X370Y1164D01*
X368Y1164D01*
X368Y1156D01*
X366Y1156D01*
X366Y1152D01*
X364Y1152D01*
X364Y1148D01*
X362Y1148D01*
X362Y1146D01*
X360Y1146D01*
X360Y1142D01*
X358Y1142D01*
X358Y1140D01*
X356Y1140D01*
X356Y1138D01*
X352Y1138D01*
X352Y1136D01*
X350Y1136D01*
X350Y1134D01*
X346Y1134D01*
X346Y1132D01*
X344Y1132D01*
X344Y1112D01*
X346Y1112D01*
X346Y1110D01*
X350Y1110D01*
X350Y1108D01*
X352Y1108D01*
X352Y1106D01*
X356Y1106D01*
X356Y1104D01*
X358Y1104D01*
X358Y1102D01*
X360Y1102D01*
X360Y1098D01*
X362Y1098D01*
X362Y1096D01*
X364Y1096D01*
X364Y1092D01*
X366Y1092D01*
X366Y1088D01*
X368Y1088D01*
X368Y1080D01*
X370Y1080D01*
X370Y1064D01*
X368Y1064D01*
X368Y1056D01*
X366Y1056D01*
X366Y1052D01*
X364Y1052D01*
X364Y1048D01*
X362Y1048D01*
X362Y1046D01*
X360Y1046D01*
X360Y1042D01*
X358Y1042D01*
X358Y1040D01*
X356Y1040D01*
X356Y1038D01*
X352Y1038D01*
X352Y1036D01*
X350Y1036D01*
X350Y1034D01*
X346Y1034D01*
X346Y1032D01*
X344Y1032D01*
X344Y1012D01*
X346Y1012D01*
X346Y1010D01*
X350Y1010D01*
X350Y1008D01*
X352Y1008D01*
X352Y1006D01*
X356Y1006D01*
X356Y1004D01*
X358Y1004D01*
X358Y1002D01*
X360Y1002D01*
X360Y998D01*
X362Y998D01*
X362Y996D01*
X364Y996D01*
X364Y992D01*
X366Y992D01*
X366Y988D01*
X368Y988D01*
X368Y980D01*
X370Y980D01*
X370Y964D01*
X368Y964D01*
X368Y956D01*
X366Y956D01*
X366Y952D01*
X364Y952D01*
X364Y948D01*
X362Y948D01*
X362Y946D01*
X360Y946D01*
X360Y942D01*
X358Y942D01*
X358Y940D01*
X356Y940D01*
X356Y938D01*
X352Y938D01*
X352Y936D01*
X350Y936D01*
X350Y934D01*
X346Y934D01*
X346Y932D01*
X344Y932D01*
X344Y912D01*
X346Y912D01*
X346Y910D01*
X350Y910D01*
X350Y908D01*
X352Y908D01*
X352Y906D01*
X356Y906D01*
X356Y904D01*
X358Y904D01*
X358Y902D01*
X360Y902D01*
X360Y898D01*
X362Y898D01*
X362Y896D01*
X364Y896D01*
X364Y892D01*
X366Y892D01*
X366Y888D01*
X368Y888D01*
X368Y880D01*
X370Y880D01*
X370Y864D01*
X368Y864D01*
X368Y856D01*
X366Y856D01*
X366Y852D01*
X364Y852D01*
X364Y848D01*
X362Y848D01*
X362Y846D01*
X360Y846D01*
X360Y842D01*
X358Y842D01*
X358Y840D01*
X356Y840D01*
X356Y838D01*
X352Y838D01*
X352Y836D01*
X350Y836D01*
X350Y834D01*
X346Y834D01*
X346Y832D01*
X344Y832D01*
X344Y812D01*
X346Y812D01*
X346Y810D01*
X350Y810D01*
X350Y808D01*
X352Y808D01*
X352Y806D01*
X356Y806D01*
X356Y804D01*
X358Y804D01*
X358Y802D01*
X360Y802D01*
X360Y798D01*
X362Y798D01*
X362Y796D01*
X364Y796D01*
X364Y792D01*
X366Y792D01*
X366Y788D01*
X368Y788D01*
X368Y780D01*
X370Y780D01*
X370Y764D01*
X368Y764D01*
X368Y756D01*
X366Y756D01*
X366Y752D01*
X364Y752D01*
X364Y748D01*
X362Y748D01*
X362Y746D01*
X360Y746D01*
X360Y742D01*
X358Y742D01*
X358Y740D01*
X356Y740D01*
X356Y738D01*
X352Y738D01*
X352Y736D01*
X350Y736D01*
X350Y734D01*
X346Y734D01*
X346Y732D01*
X344Y732D01*
X344Y712D01*
X346Y712D01*
X346Y710D01*
X350Y710D01*
X350Y708D01*
X352Y708D01*
X352Y706D01*
X356Y706D01*
X356Y704D01*
X358Y704D01*
X358Y702D01*
X360Y702D01*
X360Y698D01*
X362Y698D01*
X362Y696D01*
X364Y696D01*
X364Y692D01*
X366Y692D01*
X366Y688D01*
X368Y688D01*
X368Y680D01*
X370Y680D01*
X370Y664D01*
X368Y664D01*
X368Y656D01*
X366Y656D01*
X366Y652D01*
X364Y652D01*
X364Y648D01*
X362Y648D01*
X362Y646D01*
X360Y646D01*
X360Y642D01*
X358Y642D01*
X358Y640D01*
X356Y640D01*
X356Y638D01*
X352Y638D01*
X352Y636D01*
X350Y636D01*
X350Y634D01*
X346Y634D01*
X346Y632D01*
X344Y632D01*
X344Y630D01*
X338Y630D01*
X338Y628D01*
X554Y628D01*
X554Y1182D01*
X556Y1182D01*
X556Y1184D01*
X558Y1184D01*
X558Y1188D01*
X560Y1188D01*
X560Y1190D01*
X562Y1190D01*
X562Y1192D01*
X564Y1192D01*
X564Y1194D01*
X566Y1194D01*
X566Y1196D01*
X568Y1196D01*
X568Y1198D01*
X570Y1198D01*
X570Y1200D01*
X572Y1200D01*
X572Y1202D01*
X574Y1202D01*
X574Y1204D01*
X576Y1204D01*
X576Y1206D01*
X578Y1206D01*
X578Y1208D01*
X580Y1208D01*
X580Y1210D01*
X582Y1210D01*
X582Y1212D01*
X584Y1212D01*
X584Y1214D01*
X586Y1214D01*
X586Y1216D01*
X588Y1216D01*
X588Y1218D01*
X590Y1218D01*
X590Y1220D01*
X592Y1220D01*
X592Y1222D01*
X594Y1222D01*
X594Y1224D01*
X596Y1224D01*
X596Y1226D01*
X598Y1226D01*
X598Y1228D01*
X600Y1228D01*
X600Y1230D01*
X602Y1230D01*
X602Y1232D01*
X604Y1232D01*
X604Y1234D01*
X606Y1234D01*
X606Y1236D01*
X608Y1236D01*
X608Y1238D01*
X610Y1238D01*
X610Y1240D01*
X612Y1240D01*
X612Y1242D01*
X614Y1242D01*
X614Y1244D01*
X616Y1244D01*
X616Y1246D01*
X618Y1246D01*
X618Y1248D01*
X620Y1248D01*
X620Y1250D01*
X622Y1250D01*
X622Y1252D01*
X624Y1252D01*
X624Y1254D01*
X626Y1254D01*
X626Y1256D01*
X628Y1256D01*
X628Y1258D01*
X630Y1258D01*
X630Y1260D01*
X632Y1260D01*
X632Y1262D01*
X634Y1262D01*
X634Y1264D01*
X636Y1264D01*
X636Y1266D01*
X638Y1266D01*
X638Y1268D01*
X640Y1268D01*
X640Y1270D01*
X642Y1270D01*
X642Y1272D01*
X644Y1272D01*
X644Y1274D01*
X646Y1274D01*
X646Y1276D01*
X648Y1276D01*
X648Y1278D01*
X650Y1278D01*
X650Y1280D01*
X652Y1280D01*
X652Y1282D01*
X654Y1282D01*
X654Y1284D01*
X656Y1284D01*
X656Y1286D01*
X658Y1286D01*
X658Y1288D01*
X660Y1288D01*
X660Y1290D01*
X662Y1290D01*
X662Y1292D01*
X664Y1292D01*
X664Y1294D01*
X666Y1294D01*
X666Y1296D01*
X668Y1296D01*
X668Y1298D01*
X670Y1298D01*
X670Y1300D01*
X672Y1300D01*
X672Y1302D01*
X674Y1302D01*
X674Y1304D01*
X676Y1304D01*
X676Y1306D01*
X678Y1306D01*
X678Y1308D01*
X680Y1308D01*
X680Y1310D01*
X682Y1310D01*
X682Y1312D01*
X684Y1312D01*
X684Y1314D01*
X686Y1314D01*
X686Y1316D01*
X688Y1316D01*
X688Y1318D01*
X690Y1318D01*
X690Y1320D01*
X692Y1320D01*
X692Y1322D01*
X694Y1322D01*
X694Y1324D01*
X696Y1324D01*
X696Y1326D01*
X698Y1326D01*
X698Y1328D01*
X700Y1328D01*
X700Y1330D01*
X702Y1330D01*
X702Y1332D01*
X704Y1332D01*
X704Y1334D01*
X706Y1334D01*
X706Y1336D01*
X708Y1336D01*
X708Y1338D01*
X710Y1338D01*
X710Y1340D01*
X712Y1340D01*
X712Y1342D01*
X714Y1342D01*
X714Y1344D01*
X716Y1344D01*
X716Y1346D01*
X718Y1346D01*
X718Y1348D01*
X720Y1348D01*
X720Y1350D01*
X722Y1350D01*
X722Y1352D01*
X724Y1352D01*
X724Y1354D01*
X726Y1354D01*
X726Y1356D01*
X728Y1356D01*
X728Y1358D01*
X730Y1358D01*
X730Y1360D01*
X732Y1360D01*
X732Y1362D01*
X734Y1362D01*
X734Y1364D01*
X736Y1364D01*
X736Y1366D01*
X738Y1366D01*
X738Y1368D01*
X740Y1368D01*
X740Y1370D01*
X742Y1370D01*
X742Y1372D01*
X744Y1372D01*
X744Y1374D01*
X746Y1374D01*
X746Y1376D01*
X748Y1376D01*
X748Y1378D01*
X750Y1378D01*
X750Y1380D01*
X752Y1380D01*
X752Y1382D01*
X754Y1382D01*
X754Y1384D01*
X756Y1384D01*
X756Y1386D01*
X758Y1386D01*
X758Y1388D01*
X760Y1388D01*
X760Y1390D01*
X764Y1390D01*
X764Y1392D01*
X768Y1392D01*
X768Y1394D01*
X1086Y1394D01*
X1086Y1396D01*
X1088Y1396D01*
X1088Y1398D01*
X1090Y1398D01*
X1090Y1402D01*
X1092Y1402D01*
X1092Y1404D01*
X1094Y1404D01*
X1094Y1406D01*
X1098Y1406D01*
X1098Y1408D01*
X1100Y1408D01*
X1100Y1410D01*
X1104Y1410D01*
X1104Y1412D01*
X1106Y1412D01*
X1106Y1414D01*
X1112Y1414D01*
X1112Y1416D01*
X40Y1416D01*
G37*
D02*
G36*
X1168Y1384D02*
X1168Y1382D01*
X2714Y1382D01*
X2714Y1384D01*
X1168Y1384D01*
G37*
D02*
G36*
X1168Y1384D02*
X1168Y1382D01*
X2714Y1382D01*
X2714Y1384D01*
X1168Y1384D01*
G37*
D02*
G36*
X1168Y1384D02*
X1168Y1382D01*
X2714Y1382D01*
X2714Y1384D01*
X1168Y1384D01*
G37*
D02*
G36*
X1168Y1384D02*
X1168Y1382D01*
X2714Y1382D01*
X2714Y1384D01*
X1168Y1384D01*
G37*
D02*
G36*
X1168Y1384D02*
X1168Y1382D01*
X2714Y1382D01*
X2714Y1384D01*
X1168Y1384D01*
G37*
D02*
G36*
X1168Y1382D02*
X1168Y1380D01*
X1170Y1380D01*
X1170Y1364D01*
X1168Y1364D01*
X1168Y1360D01*
X2436Y1360D01*
X2436Y1358D01*
X2442Y1358D01*
X2442Y1356D01*
X2446Y1356D01*
X2446Y1354D01*
X2448Y1354D01*
X2448Y1352D01*
X2450Y1352D01*
X2450Y1350D01*
X2452Y1350D01*
X2452Y1348D01*
X2454Y1348D01*
X2454Y1346D01*
X2456Y1346D01*
X2456Y1344D01*
X2458Y1344D01*
X2458Y1340D01*
X2460Y1340D01*
X2460Y1336D01*
X2462Y1336D01*
X2462Y1330D01*
X2464Y1330D01*
X2464Y1314D01*
X2462Y1314D01*
X2462Y1308D01*
X2460Y1308D01*
X2460Y1304D01*
X2458Y1304D01*
X2458Y1300D01*
X2456Y1300D01*
X2456Y1298D01*
X2454Y1298D01*
X2454Y1296D01*
X2452Y1296D01*
X2452Y1294D01*
X2450Y1294D01*
X2450Y1292D01*
X2448Y1292D01*
X2448Y1290D01*
X2446Y1290D01*
X2446Y1288D01*
X2442Y1288D01*
X2442Y1286D01*
X2436Y1286D01*
X2436Y1284D01*
X2714Y1284D01*
X2714Y1382D01*
X1168Y1382D01*
G37*
D02*
G36*
X1168Y1360D02*
X1168Y1356D01*
X1166Y1356D01*
X1166Y1352D01*
X1164Y1352D01*
X1164Y1348D01*
X1162Y1348D01*
X1162Y1346D01*
X1160Y1346D01*
X1160Y1342D01*
X1158Y1342D01*
X1158Y1340D01*
X1156Y1340D01*
X1156Y1338D01*
X1152Y1338D01*
X1152Y1336D01*
X1150Y1336D01*
X1150Y1334D01*
X1146Y1334D01*
X1146Y1332D01*
X1144Y1332D01*
X1144Y1312D01*
X1146Y1312D01*
X1146Y1310D01*
X1150Y1310D01*
X1150Y1308D01*
X1152Y1308D01*
X1152Y1306D01*
X1156Y1306D01*
X1156Y1304D01*
X1158Y1304D01*
X1158Y1302D01*
X1160Y1302D01*
X1160Y1298D01*
X1162Y1298D01*
X1162Y1296D01*
X1164Y1296D01*
X1164Y1292D01*
X1166Y1292D01*
X1166Y1288D01*
X1168Y1288D01*
X1168Y1284D01*
X1314Y1284D01*
X1314Y1286D01*
X1308Y1286D01*
X1308Y1288D01*
X1304Y1288D01*
X1304Y1290D01*
X1302Y1290D01*
X1302Y1292D01*
X1300Y1292D01*
X1300Y1294D01*
X1298Y1294D01*
X1298Y1296D01*
X1296Y1296D01*
X1296Y1298D01*
X1294Y1298D01*
X1294Y1300D01*
X1292Y1300D01*
X1292Y1304D01*
X1290Y1304D01*
X1290Y1308D01*
X1288Y1308D01*
X1288Y1316D01*
X1286Y1316D01*
X1286Y1328D01*
X1288Y1328D01*
X1288Y1336D01*
X1290Y1336D01*
X1290Y1340D01*
X1292Y1340D01*
X1292Y1344D01*
X1294Y1344D01*
X1294Y1346D01*
X1296Y1346D01*
X1296Y1348D01*
X1298Y1348D01*
X1298Y1350D01*
X1300Y1350D01*
X1300Y1352D01*
X1302Y1352D01*
X1302Y1354D01*
X1304Y1354D01*
X1304Y1356D01*
X1308Y1356D01*
X1308Y1358D01*
X1314Y1358D01*
X1314Y1360D01*
X1168Y1360D01*
G37*
D02*
G36*
X1336Y1360D02*
X1336Y1358D01*
X1342Y1358D01*
X1342Y1356D01*
X1346Y1356D01*
X1346Y1354D01*
X1348Y1354D01*
X1348Y1352D01*
X1350Y1352D01*
X1350Y1350D01*
X1352Y1350D01*
X1352Y1348D01*
X1354Y1348D01*
X1354Y1346D01*
X1356Y1346D01*
X1356Y1344D01*
X1358Y1344D01*
X1358Y1340D01*
X1360Y1340D01*
X1360Y1336D01*
X1362Y1336D01*
X1362Y1330D01*
X1364Y1330D01*
X1364Y1314D01*
X1362Y1314D01*
X1362Y1308D01*
X1360Y1308D01*
X1360Y1304D01*
X1358Y1304D01*
X1358Y1300D01*
X1356Y1300D01*
X1356Y1298D01*
X1354Y1298D01*
X1354Y1296D01*
X1352Y1296D01*
X1352Y1294D01*
X1350Y1294D01*
X1350Y1292D01*
X1348Y1292D01*
X1348Y1290D01*
X1346Y1290D01*
X1346Y1288D01*
X1342Y1288D01*
X1342Y1286D01*
X1336Y1286D01*
X1336Y1284D01*
X1414Y1284D01*
X1414Y1286D01*
X1408Y1286D01*
X1408Y1288D01*
X1404Y1288D01*
X1404Y1290D01*
X1402Y1290D01*
X1402Y1292D01*
X1400Y1292D01*
X1400Y1294D01*
X1398Y1294D01*
X1398Y1296D01*
X1396Y1296D01*
X1396Y1298D01*
X1394Y1298D01*
X1394Y1300D01*
X1392Y1300D01*
X1392Y1304D01*
X1390Y1304D01*
X1390Y1308D01*
X1388Y1308D01*
X1388Y1316D01*
X1386Y1316D01*
X1386Y1328D01*
X1388Y1328D01*
X1388Y1336D01*
X1390Y1336D01*
X1390Y1340D01*
X1392Y1340D01*
X1392Y1344D01*
X1394Y1344D01*
X1394Y1346D01*
X1396Y1346D01*
X1396Y1348D01*
X1398Y1348D01*
X1398Y1350D01*
X1400Y1350D01*
X1400Y1352D01*
X1402Y1352D01*
X1402Y1354D01*
X1404Y1354D01*
X1404Y1356D01*
X1408Y1356D01*
X1408Y1358D01*
X1414Y1358D01*
X1414Y1360D01*
X1336Y1360D01*
G37*
D02*
G36*
X1436Y1360D02*
X1436Y1358D01*
X1442Y1358D01*
X1442Y1356D01*
X1446Y1356D01*
X1446Y1354D01*
X1448Y1354D01*
X1448Y1352D01*
X1450Y1352D01*
X1450Y1350D01*
X1452Y1350D01*
X1452Y1348D01*
X1454Y1348D01*
X1454Y1346D01*
X1456Y1346D01*
X1456Y1344D01*
X1458Y1344D01*
X1458Y1340D01*
X1460Y1340D01*
X1460Y1336D01*
X1462Y1336D01*
X1462Y1330D01*
X1464Y1330D01*
X1464Y1314D01*
X1462Y1314D01*
X1462Y1308D01*
X1460Y1308D01*
X1460Y1304D01*
X1458Y1304D01*
X1458Y1300D01*
X1456Y1300D01*
X1456Y1298D01*
X1454Y1298D01*
X1454Y1296D01*
X1452Y1296D01*
X1452Y1294D01*
X1450Y1294D01*
X1450Y1292D01*
X1448Y1292D01*
X1448Y1290D01*
X1446Y1290D01*
X1446Y1288D01*
X1442Y1288D01*
X1442Y1286D01*
X1436Y1286D01*
X1436Y1284D01*
X2314Y1284D01*
X2314Y1286D01*
X2308Y1286D01*
X2308Y1288D01*
X2304Y1288D01*
X2304Y1290D01*
X2302Y1290D01*
X2302Y1292D01*
X2300Y1292D01*
X2300Y1294D01*
X2298Y1294D01*
X2298Y1296D01*
X2296Y1296D01*
X2296Y1298D01*
X2294Y1298D01*
X2294Y1300D01*
X2292Y1300D01*
X2292Y1304D01*
X2290Y1304D01*
X2290Y1308D01*
X2288Y1308D01*
X2288Y1316D01*
X2286Y1316D01*
X2286Y1328D01*
X2288Y1328D01*
X2288Y1336D01*
X2290Y1336D01*
X2290Y1340D01*
X2292Y1340D01*
X2292Y1344D01*
X2294Y1344D01*
X2294Y1346D01*
X2296Y1346D01*
X2296Y1348D01*
X2298Y1348D01*
X2298Y1350D01*
X2300Y1350D01*
X2300Y1352D01*
X2302Y1352D01*
X2302Y1354D01*
X2304Y1354D01*
X2304Y1356D01*
X2308Y1356D01*
X2308Y1358D01*
X2314Y1358D01*
X2314Y1360D01*
X1436Y1360D01*
G37*
D02*
G36*
X2336Y1360D02*
X2336Y1358D01*
X2342Y1358D01*
X2342Y1356D01*
X2346Y1356D01*
X2346Y1354D01*
X2348Y1354D01*
X2348Y1352D01*
X2350Y1352D01*
X2350Y1350D01*
X2352Y1350D01*
X2352Y1348D01*
X2354Y1348D01*
X2354Y1346D01*
X2356Y1346D01*
X2356Y1344D01*
X2358Y1344D01*
X2358Y1340D01*
X2360Y1340D01*
X2360Y1336D01*
X2362Y1336D01*
X2362Y1330D01*
X2364Y1330D01*
X2364Y1314D01*
X2362Y1314D01*
X2362Y1308D01*
X2360Y1308D01*
X2360Y1304D01*
X2358Y1304D01*
X2358Y1300D01*
X2356Y1300D01*
X2356Y1298D01*
X2354Y1298D01*
X2354Y1296D01*
X2352Y1296D01*
X2352Y1294D01*
X2350Y1294D01*
X2350Y1292D01*
X2348Y1292D01*
X2348Y1290D01*
X2346Y1290D01*
X2346Y1288D01*
X2342Y1288D01*
X2342Y1286D01*
X2336Y1286D01*
X2336Y1284D01*
X2414Y1284D01*
X2414Y1286D01*
X2408Y1286D01*
X2408Y1288D01*
X2404Y1288D01*
X2404Y1290D01*
X2402Y1290D01*
X2402Y1292D01*
X2400Y1292D01*
X2400Y1294D01*
X2398Y1294D01*
X2398Y1296D01*
X2396Y1296D01*
X2396Y1298D01*
X2394Y1298D01*
X2394Y1300D01*
X2392Y1300D01*
X2392Y1304D01*
X2390Y1304D01*
X2390Y1308D01*
X2388Y1308D01*
X2388Y1316D01*
X2386Y1316D01*
X2386Y1328D01*
X2388Y1328D01*
X2388Y1336D01*
X2390Y1336D01*
X2390Y1340D01*
X2392Y1340D01*
X2392Y1344D01*
X2394Y1344D01*
X2394Y1346D01*
X2396Y1346D01*
X2396Y1348D01*
X2398Y1348D01*
X2398Y1350D01*
X2400Y1350D01*
X2400Y1352D01*
X2402Y1352D01*
X2402Y1354D01*
X2404Y1354D01*
X2404Y1356D01*
X2408Y1356D01*
X2408Y1358D01*
X2414Y1358D01*
X2414Y1360D01*
X2336Y1360D01*
G37*
D02*
G36*
X1168Y1284D02*
X1168Y1282D01*
X2714Y1282D01*
X2714Y1284D01*
X1168Y1284D01*
G37*
D02*
G36*
X1168Y1284D02*
X1168Y1282D01*
X2714Y1282D01*
X2714Y1284D01*
X1168Y1284D01*
G37*
D02*
G36*
X1168Y1284D02*
X1168Y1282D01*
X2714Y1282D01*
X2714Y1284D01*
X1168Y1284D01*
G37*
D02*
G36*
X1168Y1284D02*
X1168Y1282D01*
X2714Y1282D01*
X2714Y1284D01*
X1168Y1284D01*
G37*
D02*
G36*
X1168Y1284D02*
X1168Y1282D01*
X2714Y1282D01*
X2714Y1284D01*
X1168Y1284D01*
G37*
D02*
G36*
X1168Y1282D02*
X1168Y1280D01*
X1170Y1280D01*
X1170Y1270D01*
X2638Y1270D01*
X2638Y1268D01*
X2644Y1268D01*
X2644Y1266D01*
X2648Y1266D01*
X2648Y1264D01*
X2652Y1264D01*
X2652Y1262D01*
X2654Y1262D01*
X2654Y1260D01*
X2656Y1260D01*
X2656Y1258D01*
X2660Y1258D01*
X2660Y1256D01*
X2662Y1256D01*
X2662Y1252D01*
X2664Y1252D01*
X2664Y1250D01*
X2666Y1250D01*
X2666Y1246D01*
X2668Y1246D01*
X2668Y1244D01*
X2670Y1244D01*
X2670Y1238D01*
X2672Y1238D01*
X2672Y1232D01*
X2674Y1232D01*
X2674Y1212D01*
X2672Y1212D01*
X2672Y1206D01*
X2670Y1206D01*
X2670Y1200D01*
X2668Y1200D01*
X2668Y1198D01*
X2666Y1198D01*
X2666Y1194D01*
X2664Y1194D01*
X2664Y1192D01*
X2662Y1192D01*
X2662Y1188D01*
X2660Y1188D01*
X2660Y1186D01*
X2656Y1186D01*
X2656Y1184D01*
X2654Y1184D01*
X2654Y1182D01*
X2652Y1182D01*
X2652Y1162D01*
X2654Y1162D01*
X2654Y1160D01*
X2656Y1160D01*
X2656Y1158D01*
X2660Y1158D01*
X2660Y1156D01*
X2662Y1156D01*
X2662Y1152D01*
X2664Y1152D01*
X2664Y1150D01*
X2666Y1150D01*
X2666Y1146D01*
X2668Y1146D01*
X2668Y1144D01*
X2670Y1144D01*
X2670Y1138D01*
X2672Y1138D01*
X2672Y1132D01*
X2674Y1132D01*
X2674Y1112D01*
X2672Y1112D01*
X2672Y1106D01*
X2670Y1106D01*
X2670Y1100D01*
X2668Y1100D01*
X2668Y1098D01*
X2666Y1098D01*
X2666Y1094D01*
X2664Y1094D01*
X2664Y1092D01*
X2662Y1092D01*
X2662Y1088D01*
X2660Y1088D01*
X2660Y1086D01*
X2656Y1086D01*
X2656Y1084D01*
X2654Y1084D01*
X2654Y1082D01*
X2652Y1082D01*
X2652Y1080D01*
X2648Y1080D01*
X2648Y1078D01*
X2644Y1078D01*
X2644Y1076D01*
X2638Y1076D01*
X2638Y1074D01*
X2714Y1074D01*
X2714Y1282D01*
X1168Y1282D01*
G37*
D02*
G36*
X1170Y1270D02*
X1170Y1264D01*
X1168Y1264D01*
X1168Y1260D01*
X2436Y1260D01*
X2436Y1258D01*
X2442Y1258D01*
X2442Y1256D01*
X2446Y1256D01*
X2446Y1254D01*
X2448Y1254D01*
X2448Y1252D01*
X2450Y1252D01*
X2450Y1250D01*
X2452Y1250D01*
X2452Y1248D01*
X2454Y1248D01*
X2454Y1246D01*
X2456Y1246D01*
X2456Y1244D01*
X2458Y1244D01*
X2458Y1240D01*
X2460Y1240D01*
X2460Y1236D01*
X2462Y1236D01*
X2462Y1230D01*
X2464Y1230D01*
X2464Y1214D01*
X2462Y1214D01*
X2462Y1208D01*
X2460Y1208D01*
X2460Y1204D01*
X2458Y1204D01*
X2458Y1200D01*
X2456Y1200D01*
X2456Y1198D01*
X2454Y1198D01*
X2454Y1196D01*
X2452Y1196D01*
X2452Y1194D01*
X2450Y1194D01*
X2450Y1192D01*
X2448Y1192D01*
X2448Y1190D01*
X2446Y1190D01*
X2446Y1188D01*
X2442Y1188D01*
X2442Y1186D01*
X2436Y1186D01*
X2436Y1184D01*
X2594Y1184D01*
X2594Y1186D01*
X2590Y1186D01*
X2590Y1188D01*
X2588Y1188D01*
X2588Y1192D01*
X2586Y1192D01*
X2586Y1194D01*
X2584Y1194D01*
X2584Y1198D01*
X2582Y1198D01*
X2582Y1200D01*
X2580Y1200D01*
X2580Y1206D01*
X2578Y1206D01*
X2578Y1212D01*
X2576Y1212D01*
X2576Y1232D01*
X2578Y1232D01*
X2578Y1238D01*
X2580Y1238D01*
X2580Y1244D01*
X2582Y1244D01*
X2582Y1246D01*
X2584Y1246D01*
X2584Y1250D01*
X2586Y1250D01*
X2586Y1252D01*
X2588Y1252D01*
X2588Y1256D01*
X2590Y1256D01*
X2590Y1258D01*
X2594Y1258D01*
X2594Y1260D01*
X2596Y1260D01*
X2596Y1262D01*
X2598Y1262D01*
X2598Y1264D01*
X2602Y1264D01*
X2602Y1266D01*
X2606Y1266D01*
X2606Y1268D01*
X2612Y1268D01*
X2612Y1270D01*
X1170Y1270D01*
G37*
D02*
G36*
X1168Y1260D02*
X1168Y1256D01*
X1166Y1256D01*
X1166Y1252D01*
X1164Y1252D01*
X1164Y1248D01*
X1162Y1248D01*
X1162Y1246D01*
X1160Y1246D01*
X1160Y1242D01*
X1158Y1242D01*
X1158Y1240D01*
X1156Y1240D01*
X1156Y1238D01*
X1152Y1238D01*
X1152Y1236D01*
X1150Y1236D01*
X1150Y1234D01*
X1146Y1234D01*
X1146Y1232D01*
X1144Y1232D01*
X1144Y1212D01*
X1146Y1212D01*
X1146Y1210D01*
X1150Y1210D01*
X1150Y1208D01*
X1152Y1208D01*
X1152Y1206D01*
X1156Y1206D01*
X1156Y1204D01*
X1158Y1204D01*
X1158Y1202D01*
X1160Y1202D01*
X1160Y1198D01*
X1162Y1198D01*
X1162Y1196D01*
X1164Y1196D01*
X1164Y1192D01*
X1166Y1192D01*
X1166Y1188D01*
X1168Y1188D01*
X1168Y1184D01*
X1314Y1184D01*
X1314Y1186D01*
X1308Y1186D01*
X1308Y1188D01*
X1304Y1188D01*
X1304Y1190D01*
X1302Y1190D01*
X1302Y1192D01*
X1300Y1192D01*
X1300Y1194D01*
X1298Y1194D01*
X1298Y1196D01*
X1296Y1196D01*
X1296Y1198D01*
X1294Y1198D01*
X1294Y1200D01*
X1292Y1200D01*
X1292Y1204D01*
X1290Y1204D01*
X1290Y1208D01*
X1288Y1208D01*
X1288Y1216D01*
X1286Y1216D01*
X1286Y1228D01*
X1288Y1228D01*
X1288Y1236D01*
X1290Y1236D01*
X1290Y1240D01*
X1292Y1240D01*
X1292Y1244D01*
X1294Y1244D01*
X1294Y1246D01*
X1296Y1246D01*
X1296Y1248D01*
X1298Y1248D01*
X1298Y1250D01*
X1300Y1250D01*
X1300Y1252D01*
X1302Y1252D01*
X1302Y1254D01*
X1304Y1254D01*
X1304Y1256D01*
X1308Y1256D01*
X1308Y1258D01*
X1314Y1258D01*
X1314Y1260D01*
X1168Y1260D01*
G37*
D02*
G36*
X1336Y1260D02*
X1336Y1258D01*
X1342Y1258D01*
X1342Y1256D01*
X1346Y1256D01*
X1346Y1254D01*
X1348Y1254D01*
X1348Y1252D01*
X1350Y1252D01*
X1350Y1250D01*
X1352Y1250D01*
X1352Y1248D01*
X1354Y1248D01*
X1354Y1246D01*
X1356Y1246D01*
X1356Y1244D01*
X1358Y1244D01*
X1358Y1240D01*
X1360Y1240D01*
X1360Y1236D01*
X1362Y1236D01*
X1362Y1230D01*
X1364Y1230D01*
X1364Y1214D01*
X1362Y1214D01*
X1362Y1208D01*
X1360Y1208D01*
X1360Y1204D01*
X1358Y1204D01*
X1358Y1200D01*
X1356Y1200D01*
X1356Y1198D01*
X1354Y1198D01*
X1354Y1196D01*
X1352Y1196D01*
X1352Y1194D01*
X1350Y1194D01*
X1350Y1192D01*
X1348Y1192D01*
X1348Y1190D01*
X1346Y1190D01*
X1346Y1188D01*
X1342Y1188D01*
X1342Y1186D01*
X1336Y1186D01*
X1336Y1184D01*
X1414Y1184D01*
X1414Y1186D01*
X1408Y1186D01*
X1408Y1188D01*
X1404Y1188D01*
X1404Y1190D01*
X1402Y1190D01*
X1402Y1192D01*
X1400Y1192D01*
X1400Y1194D01*
X1398Y1194D01*
X1398Y1196D01*
X1396Y1196D01*
X1396Y1198D01*
X1394Y1198D01*
X1394Y1200D01*
X1392Y1200D01*
X1392Y1204D01*
X1390Y1204D01*
X1390Y1208D01*
X1388Y1208D01*
X1388Y1216D01*
X1386Y1216D01*
X1386Y1228D01*
X1388Y1228D01*
X1388Y1236D01*
X1390Y1236D01*
X1390Y1240D01*
X1392Y1240D01*
X1392Y1244D01*
X1394Y1244D01*
X1394Y1246D01*
X1396Y1246D01*
X1396Y1248D01*
X1398Y1248D01*
X1398Y1250D01*
X1400Y1250D01*
X1400Y1252D01*
X1402Y1252D01*
X1402Y1254D01*
X1404Y1254D01*
X1404Y1256D01*
X1408Y1256D01*
X1408Y1258D01*
X1414Y1258D01*
X1414Y1260D01*
X1336Y1260D01*
G37*
D02*
G36*
X1436Y1260D02*
X1436Y1258D01*
X1442Y1258D01*
X1442Y1256D01*
X1446Y1256D01*
X1446Y1254D01*
X1448Y1254D01*
X1448Y1252D01*
X1450Y1252D01*
X1450Y1250D01*
X1452Y1250D01*
X1452Y1248D01*
X1454Y1248D01*
X1454Y1246D01*
X1456Y1246D01*
X1456Y1244D01*
X1472Y1244D01*
X1472Y1242D01*
X1484Y1242D01*
X1484Y1240D01*
X1488Y1240D01*
X1488Y1238D01*
X1490Y1238D01*
X1490Y1236D01*
X1494Y1236D01*
X1494Y1234D01*
X1496Y1234D01*
X1496Y1232D01*
X1498Y1232D01*
X1498Y1230D01*
X1500Y1230D01*
X1500Y1228D01*
X1502Y1228D01*
X1502Y1226D01*
X1504Y1226D01*
X1504Y1224D01*
X1506Y1224D01*
X1506Y1222D01*
X1508Y1222D01*
X1508Y1220D01*
X1510Y1220D01*
X1510Y1218D01*
X1512Y1218D01*
X1512Y1216D01*
X1514Y1216D01*
X1514Y1214D01*
X1516Y1214D01*
X1516Y1212D01*
X1518Y1212D01*
X1518Y1210D01*
X1520Y1210D01*
X1520Y1208D01*
X1522Y1208D01*
X1522Y1206D01*
X1524Y1206D01*
X1524Y1204D01*
X1526Y1204D01*
X1526Y1202D01*
X1528Y1202D01*
X1528Y1200D01*
X1530Y1200D01*
X1530Y1198D01*
X1532Y1198D01*
X1532Y1196D01*
X1534Y1196D01*
X1534Y1194D01*
X1536Y1194D01*
X1536Y1192D01*
X1538Y1192D01*
X1538Y1190D01*
X1540Y1190D01*
X1540Y1188D01*
X1542Y1188D01*
X1542Y1184D01*
X2314Y1184D01*
X2314Y1186D01*
X2308Y1186D01*
X2308Y1188D01*
X2304Y1188D01*
X2304Y1190D01*
X2302Y1190D01*
X2302Y1192D01*
X2300Y1192D01*
X2300Y1194D01*
X2298Y1194D01*
X2298Y1196D01*
X2296Y1196D01*
X2296Y1198D01*
X2294Y1198D01*
X2294Y1200D01*
X2292Y1200D01*
X2292Y1204D01*
X2290Y1204D01*
X2290Y1208D01*
X2288Y1208D01*
X2288Y1216D01*
X2286Y1216D01*
X2286Y1228D01*
X2288Y1228D01*
X2288Y1236D01*
X2290Y1236D01*
X2290Y1240D01*
X2292Y1240D01*
X2292Y1244D01*
X2294Y1244D01*
X2294Y1246D01*
X2296Y1246D01*
X2296Y1248D01*
X2298Y1248D01*
X2298Y1250D01*
X2300Y1250D01*
X2300Y1252D01*
X2302Y1252D01*
X2302Y1254D01*
X2304Y1254D01*
X2304Y1256D01*
X2308Y1256D01*
X2308Y1258D01*
X2314Y1258D01*
X2314Y1260D01*
X1436Y1260D01*
G37*
D02*
G36*
X2336Y1260D02*
X2336Y1258D01*
X2342Y1258D01*
X2342Y1256D01*
X2346Y1256D01*
X2346Y1254D01*
X2348Y1254D01*
X2348Y1252D01*
X2350Y1252D01*
X2350Y1250D01*
X2352Y1250D01*
X2352Y1248D01*
X2354Y1248D01*
X2354Y1246D01*
X2356Y1246D01*
X2356Y1244D01*
X2358Y1244D01*
X2358Y1240D01*
X2360Y1240D01*
X2360Y1236D01*
X2362Y1236D01*
X2362Y1230D01*
X2364Y1230D01*
X2364Y1214D01*
X2362Y1214D01*
X2362Y1208D01*
X2360Y1208D01*
X2360Y1204D01*
X2358Y1204D01*
X2358Y1200D01*
X2356Y1200D01*
X2356Y1198D01*
X2354Y1198D01*
X2354Y1196D01*
X2352Y1196D01*
X2352Y1194D01*
X2350Y1194D01*
X2350Y1192D01*
X2348Y1192D01*
X2348Y1190D01*
X2346Y1190D01*
X2346Y1188D01*
X2342Y1188D01*
X2342Y1186D01*
X2336Y1186D01*
X2336Y1184D01*
X2414Y1184D01*
X2414Y1186D01*
X2408Y1186D01*
X2408Y1188D01*
X2404Y1188D01*
X2404Y1190D01*
X2402Y1190D01*
X2402Y1192D01*
X2400Y1192D01*
X2400Y1194D01*
X2398Y1194D01*
X2398Y1196D01*
X2396Y1196D01*
X2396Y1198D01*
X2394Y1198D01*
X2394Y1200D01*
X2392Y1200D01*
X2392Y1204D01*
X2390Y1204D01*
X2390Y1208D01*
X2388Y1208D01*
X2388Y1216D01*
X2386Y1216D01*
X2386Y1228D01*
X2388Y1228D01*
X2388Y1236D01*
X2390Y1236D01*
X2390Y1240D01*
X2392Y1240D01*
X2392Y1244D01*
X2394Y1244D01*
X2394Y1246D01*
X2396Y1246D01*
X2396Y1248D01*
X2398Y1248D01*
X2398Y1250D01*
X2400Y1250D01*
X2400Y1252D01*
X2402Y1252D01*
X2402Y1254D01*
X2404Y1254D01*
X2404Y1256D01*
X2408Y1256D01*
X2408Y1258D01*
X2414Y1258D01*
X2414Y1260D01*
X2336Y1260D01*
G37*
D02*
G36*
X40Y1216D02*
X40Y628D01*
X312Y628D01*
X312Y630D01*
X306Y630D01*
X306Y632D01*
X304Y632D01*
X304Y634D01*
X300Y634D01*
X300Y636D01*
X298Y636D01*
X298Y638D01*
X294Y638D01*
X294Y640D01*
X292Y640D01*
X292Y642D01*
X290Y642D01*
X290Y646D01*
X288Y646D01*
X288Y648D01*
X286Y648D01*
X286Y652D01*
X284Y652D01*
X284Y656D01*
X282Y656D01*
X282Y664D01*
X280Y664D01*
X280Y680D01*
X282Y680D01*
X282Y688D01*
X284Y688D01*
X284Y692D01*
X286Y692D01*
X286Y696D01*
X288Y696D01*
X288Y698D01*
X290Y698D01*
X290Y702D01*
X292Y702D01*
X292Y704D01*
X294Y704D01*
X294Y706D01*
X298Y706D01*
X298Y708D01*
X300Y708D01*
X300Y710D01*
X304Y710D01*
X304Y712D01*
X306Y712D01*
X306Y732D01*
X304Y732D01*
X304Y734D01*
X300Y734D01*
X300Y736D01*
X298Y736D01*
X298Y738D01*
X294Y738D01*
X294Y740D01*
X292Y740D01*
X292Y742D01*
X290Y742D01*
X290Y746D01*
X288Y746D01*
X288Y748D01*
X286Y748D01*
X286Y752D01*
X284Y752D01*
X284Y756D01*
X282Y756D01*
X282Y764D01*
X280Y764D01*
X280Y780D01*
X282Y780D01*
X282Y788D01*
X284Y788D01*
X284Y792D01*
X286Y792D01*
X286Y796D01*
X288Y796D01*
X288Y798D01*
X290Y798D01*
X290Y802D01*
X292Y802D01*
X292Y804D01*
X294Y804D01*
X294Y806D01*
X298Y806D01*
X298Y808D01*
X300Y808D01*
X300Y810D01*
X304Y810D01*
X304Y812D01*
X306Y812D01*
X306Y832D01*
X304Y832D01*
X304Y834D01*
X300Y834D01*
X300Y836D01*
X298Y836D01*
X298Y838D01*
X294Y838D01*
X294Y840D01*
X292Y840D01*
X292Y842D01*
X290Y842D01*
X290Y846D01*
X288Y846D01*
X288Y848D01*
X286Y848D01*
X286Y852D01*
X284Y852D01*
X284Y856D01*
X282Y856D01*
X282Y864D01*
X280Y864D01*
X280Y880D01*
X282Y880D01*
X282Y888D01*
X284Y888D01*
X284Y892D01*
X286Y892D01*
X286Y896D01*
X288Y896D01*
X288Y898D01*
X290Y898D01*
X290Y902D01*
X292Y902D01*
X292Y904D01*
X294Y904D01*
X294Y906D01*
X298Y906D01*
X298Y908D01*
X300Y908D01*
X300Y910D01*
X304Y910D01*
X304Y912D01*
X306Y912D01*
X306Y932D01*
X304Y932D01*
X304Y934D01*
X300Y934D01*
X300Y936D01*
X298Y936D01*
X298Y938D01*
X294Y938D01*
X294Y940D01*
X292Y940D01*
X292Y942D01*
X290Y942D01*
X290Y946D01*
X288Y946D01*
X288Y948D01*
X286Y948D01*
X286Y952D01*
X284Y952D01*
X284Y956D01*
X282Y956D01*
X282Y964D01*
X280Y964D01*
X280Y980D01*
X282Y980D01*
X282Y988D01*
X284Y988D01*
X284Y992D01*
X286Y992D01*
X286Y996D01*
X288Y996D01*
X288Y998D01*
X290Y998D01*
X290Y1002D01*
X292Y1002D01*
X292Y1004D01*
X294Y1004D01*
X294Y1006D01*
X298Y1006D01*
X298Y1008D01*
X300Y1008D01*
X300Y1010D01*
X304Y1010D01*
X304Y1012D01*
X306Y1012D01*
X306Y1032D01*
X304Y1032D01*
X304Y1034D01*
X300Y1034D01*
X300Y1036D01*
X298Y1036D01*
X298Y1038D01*
X294Y1038D01*
X294Y1040D01*
X292Y1040D01*
X292Y1042D01*
X290Y1042D01*
X290Y1046D01*
X288Y1046D01*
X288Y1048D01*
X286Y1048D01*
X286Y1052D01*
X284Y1052D01*
X284Y1056D01*
X282Y1056D01*
X282Y1064D01*
X280Y1064D01*
X280Y1080D01*
X282Y1080D01*
X282Y1088D01*
X284Y1088D01*
X284Y1092D01*
X286Y1092D01*
X286Y1096D01*
X288Y1096D01*
X288Y1098D01*
X290Y1098D01*
X290Y1102D01*
X292Y1102D01*
X292Y1104D01*
X294Y1104D01*
X294Y1106D01*
X298Y1106D01*
X298Y1108D01*
X300Y1108D01*
X300Y1110D01*
X304Y1110D01*
X304Y1112D01*
X306Y1112D01*
X306Y1132D01*
X304Y1132D01*
X304Y1134D01*
X300Y1134D01*
X300Y1136D01*
X298Y1136D01*
X298Y1138D01*
X294Y1138D01*
X294Y1140D01*
X292Y1140D01*
X292Y1142D01*
X290Y1142D01*
X290Y1146D01*
X288Y1146D01*
X288Y1148D01*
X286Y1148D01*
X286Y1152D01*
X284Y1152D01*
X284Y1156D01*
X282Y1156D01*
X282Y1164D01*
X280Y1164D01*
X280Y1180D01*
X282Y1180D01*
X282Y1188D01*
X284Y1188D01*
X284Y1192D01*
X286Y1192D01*
X286Y1196D01*
X288Y1196D01*
X288Y1198D01*
X290Y1198D01*
X290Y1202D01*
X292Y1202D01*
X292Y1204D01*
X294Y1204D01*
X294Y1206D01*
X298Y1206D01*
X298Y1208D01*
X300Y1208D01*
X300Y1210D01*
X304Y1210D01*
X304Y1212D01*
X306Y1212D01*
X306Y1214D01*
X312Y1214D01*
X312Y1216D01*
X40Y1216D01*
G37*
D02*
G36*
X1450Y1194D02*
X1450Y1192D01*
X1448Y1192D01*
X1448Y1190D01*
X1446Y1190D01*
X1446Y1188D01*
X1442Y1188D01*
X1442Y1186D01*
X1436Y1186D01*
X1436Y1184D01*
X1480Y1184D01*
X1480Y1186D01*
X1478Y1186D01*
X1478Y1188D01*
X1476Y1188D01*
X1476Y1190D01*
X1474Y1190D01*
X1474Y1192D01*
X1472Y1192D01*
X1472Y1194D01*
X1450Y1194D01*
G37*
D02*
G36*
X1168Y1184D02*
X1168Y1182D01*
X1482Y1182D01*
X1482Y1184D01*
X1168Y1184D01*
G37*
D02*
G36*
X1168Y1184D02*
X1168Y1182D01*
X1482Y1182D01*
X1482Y1184D01*
X1168Y1184D01*
G37*
D02*
G36*
X1168Y1184D02*
X1168Y1182D01*
X1482Y1182D01*
X1482Y1184D01*
X1168Y1184D01*
G37*
D02*
G36*
X1544Y1184D02*
X1544Y1182D01*
X2596Y1182D01*
X2596Y1184D01*
X1544Y1184D01*
G37*
D02*
G36*
X1544Y1184D02*
X1544Y1182D01*
X2596Y1182D01*
X2596Y1184D01*
X1544Y1184D01*
G37*
D02*
G36*
X1544Y1184D02*
X1544Y1182D01*
X2596Y1182D01*
X2596Y1184D01*
X1544Y1184D01*
G37*
D02*
G36*
X1168Y1182D02*
X1168Y1180D01*
X1170Y1180D01*
X1170Y1164D01*
X1168Y1164D01*
X1168Y1160D01*
X1436Y1160D01*
X1436Y1158D01*
X1442Y1158D01*
X1442Y1156D01*
X1446Y1156D01*
X1446Y1154D01*
X1448Y1154D01*
X1448Y1152D01*
X1450Y1152D01*
X1450Y1150D01*
X1452Y1150D01*
X1452Y1148D01*
X1454Y1148D01*
X1454Y1146D01*
X1456Y1146D01*
X1456Y1144D01*
X1458Y1144D01*
X1458Y1140D01*
X1460Y1140D01*
X1460Y1136D01*
X1462Y1136D01*
X1462Y1130D01*
X1464Y1130D01*
X1464Y1114D01*
X1462Y1114D01*
X1462Y1108D01*
X1460Y1108D01*
X1460Y1104D01*
X1458Y1104D01*
X1458Y1100D01*
X1456Y1100D01*
X1456Y1098D01*
X1454Y1098D01*
X1454Y1096D01*
X1452Y1096D01*
X1452Y1094D01*
X1450Y1094D01*
X1450Y1092D01*
X1448Y1092D01*
X1448Y1090D01*
X1446Y1090D01*
X1446Y1088D01*
X1442Y1088D01*
X1442Y1086D01*
X1436Y1086D01*
X1436Y1084D01*
X1502Y1084D01*
X1502Y1164D01*
X1500Y1164D01*
X1500Y1166D01*
X1498Y1166D01*
X1498Y1168D01*
X1496Y1168D01*
X1496Y1170D01*
X1494Y1170D01*
X1494Y1172D01*
X1492Y1172D01*
X1492Y1174D01*
X1490Y1174D01*
X1490Y1176D01*
X1488Y1176D01*
X1488Y1178D01*
X1486Y1178D01*
X1486Y1180D01*
X1484Y1180D01*
X1484Y1182D01*
X1168Y1182D01*
G37*
D02*
G36*
X1546Y1182D02*
X1546Y1172D01*
X1548Y1172D01*
X1548Y1160D01*
X2436Y1160D01*
X2436Y1158D01*
X2442Y1158D01*
X2442Y1156D01*
X2446Y1156D01*
X2446Y1154D01*
X2448Y1154D01*
X2448Y1152D01*
X2450Y1152D01*
X2450Y1150D01*
X2452Y1150D01*
X2452Y1148D01*
X2454Y1148D01*
X2454Y1146D01*
X2456Y1146D01*
X2456Y1144D01*
X2458Y1144D01*
X2458Y1140D01*
X2460Y1140D01*
X2460Y1136D01*
X2462Y1136D01*
X2462Y1130D01*
X2464Y1130D01*
X2464Y1114D01*
X2462Y1114D01*
X2462Y1108D01*
X2460Y1108D01*
X2460Y1104D01*
X2458Y1104D01*
X2458Y1100D01*
X2456Y1100D01*
X2456Y1098D01*
X2454Y1098D01*
X2454Y1096D01*
X2452Y1096D01*
X2452Y1094D01*
X2450Y1094D01*
X2450Y1092D01*
X2448Y1092D01*
X2448Y1090D01*
X2446Y1090D01*
X2446Y1088D01*
X2442Y1088D01*
X2442Y1086D01*
X2436Y1086D01*
X2436Y1084D01*
X2532Y1084D01*
X2532Y1086D01*
X2534Y1086D01*
X2534Y1090D01*
X2536Y1090D01*
X2536Y1094D01*
X2538Y1094D01*
X2538Y1098D01*
X2540Y1098D01*
X2540Y1102D01*
X2542Y1102D01*
X2542Y1106D01*
X2544Y1106D01*
X2544Y1110D01*
X2546Y1110D01*
X2546Y1114D01*
X2548Y1114D01*
X2548Y1118D01*
X2550Y1118D01*
X2550Y1122D01*
X2552Y1122D01*
X2552Y1126D01*
X2554Y1126D01*
X2554Y1130D01*
X2556Y1130D01*
X2556Y1132D01*
X2558Y1132D01*
X2558Y1136D01*
X2560Y1136D01*
X2560Y1138D01*
X2562Y1138D01*
X2562Y1140D01*
X2566Y1140D01*
X2566Y1142D01*
X2572Y1142D01*
X2572Y1144D01*
X2582Y1144D01*
X2582Y1146D01*
X2584Y1146D01*
X2584Y1150D01*
X2586Y1150D01*
X2586Y1152D01*
X2588Y1152D01*
X2588Y1156D01*
X2590Y1156D01*
X2590Y1158D01*
X2594Y1158D01*
X2594Y1160D01*
X2596Y1160D01*
X2596Y1162D01*
X2598Y1162D01*
X2598Y1182D01*
X1546Y1182D01*
G37*
D02*
G36*
X1168Y1160D02*
X1168Y1156D01*
X1166Y1156D01*
X1166Y1152D01*
X1164Y1152D01*
X1164Y1148D01*
X1162Y1148D01*
X1162Y1146D01*
X1160Y1146D01*
X1160Y1142D01*
X1158Y1142D01*
X1158Y1140D01*
X1156Y1140D01*
X1156Y1138D01*
X1152Y1138D01*
X1152Y1136D01*
X1150Y1136D01*
X1150Y1134D01*
X1146Y1134D01*
X1146Y1132D01*
X1144Y1132D01*
X1144Y1112D01*
X1146Y1112D01*
X1146Y1110D01*
X1150Y1110D01*
X1150Y1108D01*
X1152Y1108D01*
X1152Y1106D01*
X1156Y1106D01*
X1156Y1104D01*
X1158Y1104D01*
X1158Y1102D01*
X1160Y1102D01*
X1160Y1098D01*
X1162Y1098D01*
X1162Y1096D01*
X1164Y1096D01*
X1164Y1094D01*
X1232Y1094D01*
X1232Y1092D01*
X1236Y1092D01*
X1236Y1090D01*
X1240Y1090D01*
X1240Y1088D01*
X1244Y1088D01*
X1244Y1086D01*
X1248Y1086D01*
X1248Y1084D01*
X1314Y1084D01*
X1314Y1086D01*
X1308Y1086D01*
X1308Y1088D01*
X1304Y1088D01*
X1304Y1090D01*
X1302Y1090D01*
X1302Y1092D01*
X1300Y1092D01*
X1300Y1094D01*
X1298Y1094D01*
X1298Y1096D01*
X1296Y1096D01*
X1296Y1098D01*
X1294Y1098D01*
X1294Y1100D01*
X1292Y1100D01*
X1292Y1104D01*
X1290Y1104D01*
X1290Y1108D01*
X1288Y1108D01*
X1288Y1116D01*
X1286Y1116D01*
X1286Y1128D01*
X1288Y1128D01*
X1288Y1136D01*
X1290Y1136D01*
X1290Y1140D01*
X1292Y1140D01*
X1292Y1144D01*
X1294Y1144D01*
X1294Y1146D01*
X1296Y1146D01*
X1296Y1148D01*
X1298Y1148D01*
X1298Y1150D01*
X1300Y1150D01*
X1300Y1152D01*
X1302Y1152D01*
X1302Y1154D01*
X1304Y1154D01*
X1304Y1156D01*
X1308Y1156D01*
X1308Y1158D01*
X1314Y1158D01*
X1314Y1160D01*
X1168Y1160D01*
G37*
D02*
G36*
X1336Y1160D02*
X1336Y1158D01*
X1342Y1158D01*
X1342Y1156D01*
X1346Y1156D01*
X1346Y1154D01*
X1348Y1154D01*
X1348Y1152D01*
X1350Y1152D01*
X1350Y1150D01*
X1352Y1150D01*
X1352Y1148D01*
X1354Y1148D01*
X1354Y1146D01*
X1356Y1146D01*
X1356Y1144D01*
X1358Y1144D01*
X1358Y1140D01*
X1360Y1140D01*
X1360Y1136D01*
X1362Y1136D01*
X1362Y1130D01*
X1364Y1130D01*
X1364Y1114D01*
X1362Y1114D01*
X1362Y1108D01*
X1360Y1108D01*
X1360Y1104D01*
X1358Y1104D01*
X1358Y1100D01*
X1356Y1100D01*
X1356Y1098D01*
X1354Y1098D01*
X1354Y1096D01*
X1352Y1096D01*
X1352Y1094D01*
X1350Y1094D01*
X1350Y1092D01*
X1348Y1092D01*
X1348Y1090D01*
X1346Y1090D01*
X1346Y1088D01*
X1342Y1088D01*
X1342Y1086D01*
X1336Y1086D01*
X1336Y1084D01*
X1414Y1084D01*
X1414Y1086D01*
X1408Y1086D01*
X1408Y1088D01*
X1404Y1088D01*
X1404Y1090D01*
X1402Y1090D01*
X1402Y1092D01*
X1400Y1092D01*
X1400Y1094D01*
X1398Y1094D01*
X1398Y1096D01*
X1396Y1096D01*
X1396Y1098D01*
X1394Y1098D01*
X1394Y1100D01*
X1392Y1100D01*
X1392Y1104D01*
X1390Y1104D01*
X1390Y1108D01*
X1388Y1108D01*
X1388Y1116D01*
X1386Y1116D01*
X1386Y1128D01*
X1388Y1128D01*
X1388Y1136D01*
X1390Y1136D01*
X1390Y1140D01*
X1392Y1140D01*
X1392Y1144D01*
X1394Y1144D01*
X1394Y1146D01*
X1396Y1146D01*
X1396Y1148D01*
X1398Y1148D01*
X1398Y1150D01*
X1400Y1150D01*
X1400Y1152D01*
X1402Y1152D01*
X1402Y1154D01*
X1404Y1154D01*
X1404Y1156D01*
X1408Y1156D01*
X1408Y1158D01*
X1414Y1158D01*
X1414Y1160D01*
X1336Y1160D01*
G37*
D02*
G36*
X1548Y1160D02*
X1548Y1084D01*
X2314Y1084D01*
X2314Y1086D01*
X2308Y1086D01*
X2308Y1088D01*
X2304Y1088D01*
X2304Y1090D01*
X2302Y1090D01*
X2302Y1092D01*
X2300Y1092D01*
X2300Y1094D01*
X2298Y1094D01*
X2298Y1096D01*
X2296Y1096D01*
X2296Y1098D01*
X2294Y1098D01*
X2294Y1100D01*
X2292Y1100D01*
X2292Y1104D01*
X2290Y1104D01*
X2290Y1108D01*
X2288Y1108D01*
X2288Y1116D01*
X2286Y1116D01*
X2286Y1128D01*
X2288Y1128D01*
X2288Y1136D01*
X2290Y1136D01*
X2290Y1140D01*
X2292Y1140D01*
X2292Y1144D01*
X2294Y1144D01*
X2294Y1146D01*
X2296Y1146D01*
X2296Y1148D01*
X2298Y1148D01*
X2298Y1150D01*
X2300Y1150D01*
X2300Y1152D01*
X2302Y1152D01*
X2302Y1154D01*
X2304Y1154D01*
X2304Y1156D01*
X2308Y1156D01*
X2308Y1158D01*
X2314Y1158D01*
X2314Y1160D01*
X1548Y1160D01*
G37*
D02*
G36*
X2336Y1160D02*
X2336Y1158D01*
X2342Y1158D01*
X2342Y1156D01*
X2346Y1156D01*
X2346Y1154D01*
X2348Y1154D01*
X2348Y1152D01*
X2350Y1152D01*
X2350Y1150D01*
X2352Y1150D01*
X2352Y1148D01*
X2354Y1148D01*
X2354Y1146D01*
X2356Y1146D01*
X2356Y1144D01*
X2358Y1144D01*
X2358Y1140D01*
X2360Y1140D01*
X2360Y1136D01*
X2362Y1136D01*
X2362Y1130D01*
X2364Y1130D01*
X2364Y1114D01*
X2362Y1114D01*
X2362Y1108D01*
X2360Y1108D01*
X2360Y1104D01*
X2358Y1104D01*
X2358Y1100D01*
X2356Y1100D01*
X2356Y1098D01*
X2354Y1098D01*
X2354Y1096D01*
X2352Y1096D01*
X2352Y1094D01*
X2350Y1094D01*
X2350Y1092D01*
X2348Y1092D01*
X2348Y1090D01*
X2346Y1090D01*
X2346Y1088D01*
X2342Y1088D01*
X2342Y1086D01*
X2336Y1086D01*
X2336Y1084D01*
X2414Y1084D01*
X2414Y1086D01*
X2408Y1086D01*
X2408Y1088D01*
X2404Y1088D01*
X2404Y1090D01*
X2402Y1090D01*
X2402Y1092D01*
X2400Y1092D01*
X2400Y1094D01*
X2398Y1094D01*
X2398Y1096D01*
X2396Y1096D01*
X2396Y1098D01*
X2394Y1098D01*
X2394Y1100D01*
X2392Y1100D01*
X2392Y1104D01*
X2390Y1104D01*
X2390Y1108D01*
X2388Y1108D01*
X2388Y1116D01*
X2386Y1116D01*
X2386Y1128D01*
X2388Y1128D01*
X2388Y1136D01*
X2390Y1136D01*
X2390Y1140D01*
X2392Y1140D01*
X2392Y1144D01*
X2394Y1144D01*
X2394Y1146D01*
X2396Y1146D01*
X2396Y1148D01*
X2398Y1148D01*
X2398Y1150D01*
X2400Y1150D01*
X2400Y1152D01*
X2402Y1152D01*
X2402Y1154D01*
X2404Y1154D01*
X2404Y1156D01*
X2408Y1156D01*
X2408Y1158D01*
X2414Y1158D01*
X2414Y1160D01*
X2336Y1160D01*
G37*
D02*
G36*
X882Y1150D02*
X882Y1148D01*
X880Y1148D01*
X880Y1146D01*
X878Y1146D01*
X878Y1144D01*
X876Y1144D01*
X876Y1142D01*
X874Y1142D01*
X874Y1140D01*
X872Y1140D01*
X872Y1138D01*
X870Y1138D01*
X870Y1136D01*
X868Y1136D01*
X868Y1134D01*
X866Y1134D01*
X866Y1132D01*
X864Y1132D01*
X864Y1130D01*
X862Y1130D01*
X862Y1128D01*
X860Y1128D01*
X860Y1126D01*
X858Y1126D01*
X858Y1124D01*
X856Y1124D01*
X856Y1122D01*
X854Y1122D01*
X854Y1120D01*
X852Y1120D01*
X852Y1118D01*
X850Y1118D01*
X850Y1116D01*
X848Y1116D01*
X848Y1114D01*
X846Y1114D01*
X846Y1112D01*
X844Y1112D01*
X844Y1110D01*
X842Y1110D01*
X842Y1108D01*
X840Y1108D01*
X840Y1106D01*
X838Y1106D01*
X838Y1104D01*
X836Y1104D01*
X836Y1102D01*
X834Y1102D01*
X834Y1100D01*
X832Y1100D01*
X832Y1098D01*
X830Y1098D01*
X830Y1096D01*
X828Y1096D01*
X828Y1094D01*
X826Y1094D01*
X826Y1092D01*
X824Y1092D01*
X824Y1090D01*
X822Y1090D01*
X822Y1088D01*
X820Y1088D01*
X820Y1086D01*
X818Y1086D01*
X818Y1084D01*
X816Y1084D01*
X816Y1082D01*
X814Y1082D01*
X814Y1080D01*
X812Y1080D01*
X812Y1078D01*
X810Y1078D01*
X810Y1076D01*
X808Y1076D01*
X808Y1074D01*
X806Y1074D01*
X806Y1072D01*
X804Y1072D01*
X804Y1070D01*
X802Y1070D01*
X802Y1068D01*
X800Y1068D01*
X800Y1066D01*
X798Y1066D01*
X798Y1064D01*
X796Y1064D01*
X796Y528D01*
X1112Y528D01*
X1112Y530D01*
X1106Y530D01*
X1106Y532D01*
X1104Y532D01*
X1104Y534D01*
X1100Y534D01*
X1100Y536D01*
X1098Y536D01*
X1098Y538D01*
X1094Y538D01*
X1094Y540D01*
X1092Y540D01*
X1092Y542D01*
X1090Y542D01*
X1090Y546D01*
X1088Y546D01*
X1088Y548D01*
X1086Y548D01*
X1086Y552D01*
X1084Y552D01*
X1084Y556D01*
X1082Y556D01*
X1082Y564D01*
X1080Y564D01*
X1080Y580D01*
X1082Y580D01*
X1082Y588D01*
X1084Y588D01*
X1084Y592D01*
X1086Y592D01*
X1086Y596D01*
X1088Y596D01*
X1088Y598D01*
X1090Y598D01*
X1090Y602D01*
X1092Y602D01*
X1092Y604D01*
X1094Y604D01*
X1094Y606D01*
X1098Y606D01*
X1098Y608D01*
X1100Y608D01*
X1100Y610D01*
X1104Y610D01*
X1104Y612D01*
X1106Y612D01*
X1106Y632D01*
X1104Y632D01*
X1104Y634D01*
X1100Y634D01*
X1100Y636D01*
X1098Y636D01*
X1098Y638D01*
X1094Y638D01*
X1094Y640D01*
X1092Y640D01*
X1092Y642D01*
X1090Y642D01*
X1090Y646D01*
X1088Y646D01*
X1088Y648D01*
X1086Y648D01*
X1086Y652D01*
X1084Y652D01*
X1084Y656D01*
X1082Y656D01*
X1082Y664D01*
X1080Y664D01*
X1080Y680D01*
X1082Y680D01*
X1082Y688D01*
X1084Y688D01*
X1084Y692D01*
X1086Y692D01*
X1086Y696D01*
X1088Y696D01*
X1088Y698D01*
X1090Y698D01*
X1090Y702D01*
X1092Y702D01*
X1092Y704D01*
X1094Y704D01*
X1094Y706D01*
X1098Y706D01*
X1098Y708D01*
X1100Y708D01*
X1100Y710D01*
X1104Y710D01*
X1104Y712D01*
X1106Y712D01*
X1106Y732D01*
X1104Y732D01*
X1104Y734D01*
X1100Y734D01*
X1100Y736D01*
X1098Y736D01*
X1098Y738D01*
X1094Y738D01*
X1094Y740D01*
X1092Y740D01*
X1092Y742D01*
X1090Y742D01*
X1090Y746D01*
X1088Y746D01*
X1088Y748D01*
X1086Y748D01*
X1086Y752D01*
X1084Y752D01*
X1084Y756D01*
X1082Y756D01*
X1082Y764D01*
X1080Y764D01*
X1080Y780D01*
X1082Y780D01*
X1082Y788D01*
X1084Y788D01*
X1084Y792D01*
X1086Y792D01*
X1086Y796D01*
X1088Y796D01*
X1088Y798D01*
X1090Y798D01*
X1090Y802D01*
X1092Y802D01*
X1092Y804D01*
X1094Y804D01*
X1094Y806D01*
X1098Y806D01*
X1098Y808D01*
X1100Y808D01*
X1100Y810D01*
X1104Y810D01*
X1104Y812D01*
X1106Y812D01*
X1106Y832D01*
X1104Y832D01*
X1104Y834D01*
X1100Y834D01*
X1100Y836D01*
X1098Y836D01*
X1098Y838D01*
X1094Y838D01*
X1094Y840D01*
X1092Y840D01*
X1092Y842D01*
X1090Y842D01*
X1090Y846D01*
X1088Y846D01*
X1088Y848D01*
X1086Y848D01*
X1086Y852D01*
X1084Y852D01*
X1084Y856D01*
X1082Y856D01*
X1082Y864D01*
X1080Y864D01*
X1080Y880D01*
X1082Y880D01*
X1082Y888D01*
X1084Y888D01*
X1084Y892D01*
X1086Y892D01*
X1086Y896D01*
X1088Y896D01*
X1088Y898D01*
X1090Y898D01*
X1090Y902D01*
X1092Y902D01*
X1092Y904D01*
X1094Y904D01*
X1094Y906D01*
X1098Y906D01*
X1098Y908D01*
X1100Y908D01*
X1100Y910D01*
X1104Y910D01*
X1104Y912D01*
X1106Y912D01*
X1106Y932D01*
X1104Y932D01*
X1104Y934D01*
X1100Y934D01*
X1100Y936D01*
X1098Y936D01*
X1098Y938D01*
X1094Y938D01*
X1094Y940D01*
X1092Y940D01*
X1092Y942D01*
X1090Y942D01*
X1090Y946D01*
X1088Y946D01*
X1088Y948D01*
X1086Y948D01*
X1086Y952D01*
X1084Y952D01*
X1084Y956D01*
X1082Y956D01*
X1082Y964D01*
X1080Y964D01*
X1080Y980D01*
X1082Y980D01*
X1082Y988D01*
X1084Y988D01*
X1084Y992D01*
X1086Y992D01*
X1086Y996D01*
X1088Y996D01*
X1088Y998D01*
X1090Y998D01*
X1090Y1002D01*
X1092Y1002D01*
X1092Y1004D01*
X1094Y1004D01*
X1094Y1006D01*
X1098Y1006D01*
X1098Y1008D01*
X1100Y1008D01*
X1100Y1010D01*
X1104Y1010D01*
X1104Y1012D01*
X1106Y1012D01*
X1106Y1032D01*
X1104Y1032D01*
X1104Y1034D01*
X1100Y1034D01*
X1100Y1036D01*
X1098Y1036D01*
X1098Y1038D01*
X1094Y1038D01*
X1094Y1040D01*
X1092Y1040D01*
X1092Y1042D01*
X1090Y1042D01*
X1090Y1046D01*
X1088Y1046D01*
X1088Y1048D01*
X1086Y1048D01*
X1086Y1052D01*
X1084Y1052D01*
X1084Y1056D01*
X1082Y1056D01*
X1082Y1064D01*
X1080Y1064D01*
X1080Y1080D01*
X1082Y1080D01*
X1082Y1088D01*
X1084Y1088D01*
X1084Y1092D01*
X1086Y1092D01*
X1086Y1096D01*
X1088Y1096D01*
X1088Y1098D01*
X1090Y1098D01*
X1090Y1102D01*
X1092Y1102D01*
X1092Y1104D01*
X1094Y1104D01*
X1094Y1106D01*
X1098Y1106D01*
X1098Y1108D01*
X1100Y1108D01*
X1100Y1110D01*
X1104Y1110D01*
X1104Y1112D01*
X1106Y1112D01*
X1106Y1132D01*
X1104Y1132D01*
X1104Y1134D01*
X1100Y1134D01*
X1100Y1136D01*
X1098Y1136D01*
X1098Y1138D01*
X1094Y1138D01*
X1094Y1140D01*
X1092Y1140D01*
X1092Y1142D01*
X1090Y1142D01*
X1090Y1146D01*
X1088Y1146D01*
X1088Y1148D01*
X1086Y1148D01*
X1086Y1150D01*
X882Y1150D01*
G37*
D02*
G36*
X1252Y1084D02*
X1252Y1082D01*
X1502Y1082D01*
X1502Y1084D01*
X1252Y1084D01*
G37*
D02*
G36*
X1252Y1084D02*
X1252Y1082D01*
X1502Y1082D01*
X1502Y1084D01*
X1252Y1084D01*
G37*
D02*
G36*
X1252Y1084D02*
X1252Y1082D01*
X1502Y1082D01*
X1502Y1084D01*
X1252Y1084D01*
G37*
D02*
G36*
X1548Y1084D02*
X1548Y1082D01*
X2532Y1082D01*
X2532Y1084D01*
X1548Y1084D01*
G37*
D02*
G36*
X1548Y1084D02*
X1548Y1082D01*
X2532Y1082D01*
X2532Y1084D01*
X1548Y1084D01*
G37*
D02*
G36*
X1548Y1084D02*
X1548Y1082D01*
X2532Y1082D01*
X2532Y1084D01*
X1548Y1084D01*
G37*
D02*
G36*
X1256Y1082D02*
X1256Y1080D01*
X1260Y1080D01*
X1260Y1078D01*
X1264Y1078D01*
X1264Y1076D01*
X1268Y1076D01*
X1268Y1074D01*
X1272Y1074D01*
X1272Y1072D01*
X1276Y1072D01*
X1276Y1070D01*
X1280Y1070D01*
X1280Y1068D01*
X1284Y1068D01*
X1284Y1066D01*
X1288Y1066D01*
X1288Y1064D01*
X1292Y1064D01*
X1292Y1062D01*
X1296Y1062D01*
X1296Y1060D01*
X1436Y1060D01*
X1436Y1058D01*
X1442Y1058D01*
X1442Y1056D01*
X1446Y1056D01*
X1446Y1054D01*
X1448Y1054D01*
X1448Y1052D01*
X1450Y1052D01*
X1450Y1050D01*
X1452Y1050D01*
X1452Y1048D01*
X1454Y1048D01*
X1454Y1046D01*
X1456Y1046D01*
X1456Y1044D01*
X1458Y1044D01*
X1458Y1040D01*
X1460Y1040D01*
X1460Y1036D01*
X1462Y1036D01*
X1462Y1030D01*
X1464Y1030D01*
X1464Y1014D01*
X1462Y1014D01*
X1462Y1008D01*
X1460Y1008D01*
X1460Y1004D01*
X1458Y1004D01*
X1458Y1000D01*
X1456Y1000D01*
X1456Y998D01*
X1454Y998D01*
X1454Y996D01*
X1452Y996D01*
X1452Y994D01*
X1450Y994D01*
X1450Y992D01*
X1448Y992D01*
X1448Y990D01*
X1446Y990D01*
X1446Y988D01*
X1442Y988D01*
X1442Y986D01*
X1436Y986D01*
X1436Y984D01*
X1502Y984D01*
X1502Y1082D01*
X1256Y1082D01*
G37*
D02*
G36*
X1548Y1082D02*
X1548Y1060D01*
X2436Y1060D01*
X2436Y1058D01*
X2442Y1058D01*
X2442Y1056D01*
X2446Y1056D01*
X2446Y1054D01*
X2448Y1054D01*
X2448Y1052D01*
X2450Y1052D01*
X2450Y1050D01*
X2452Y1050D01*
X2452Y1048D01*
X2454Y1048D01*
X2454Y1046D01*
X2456Y1046D01*
X2456Y1044D01*
X2458Y1044D01*
X2458Y1040D01*
X2460Y1040D01*
X2460Y1036D01*
X2462Y1036D01*
X2462Y1030D01*
X2464Y1030D01*
X2464Y1014D01*
X2462Y1014D01*
X2462Y1008D01*
X2460Y1008D01*
X2460Y1004D01*
X2458Y1004D01*
X2458Y1000D01*
X2456Y1000D01*
X2456Y998D01*
X2454Y998D01*
X2454Y996D01*
X2452Y996D01*
X2452Y994D01*
X2450Y994D01*
X2450Y992D01*
X2448Y992D01*
X2448Y990D01*
X2446Y990D01*
X2446Y988D01*
X2442Y988D01*
X2442Y986D01*
X2436Y986D01*
X2436Y984D01*
X2482Y984D01*
X2482Y988D01*
X2484Y988D01*
X2484Y992D01*
X2486Y992D01*
X2486Y996D01*
X2488Y996D01*
X2488Y998D01*
X2490Y998D01*
X2490Y1002D01*
X2492Y1002D01*
X2492Y1006D01*
X2494Y1006D01*
X2494Y1010D01*
X2496Y1010D01*
X2496Y1014D01*
X2498Y1014D01*
X2498Y1018D01*
X2500Y1018D01*
X2500Y1022D01*
X2502Y1022D01*
X2502Y1026D01*
X2504Y1026D01*
X2504Y1030D01*
X2506Y1030D01*
X2506Y1034D01*
X2508Y1034D01*
X2508Y1038D01*
X2510Y1038D01*
X2510Y1042D01*
X2512Y1042D01*
X2512Y1046D01*
X2514Y1046D01*
X2514Y1050D01*
X2516Y1050D01*
X2516Y1054D01*
X2518Y1054D01*
X2518Y1058D01*
X2520Y1058D01*
X2520Y1062D01*
X2522Y1062D01*
X2522Y1066D01*
X2524Y1066D01*
X2524Y1070D01*
X2526Y1070D01*
X2526Y1074D01*
X2528Y1074D01*
X2528Y1078D01*
X2530Y1078D01*
X2530Y1082D01*
X1548Y1082D01*
G37*
D02*
G36*
X2578Y1080D02*
X2578Y1076D01*
X2576Y1076D01*
X2576Y1074D01*
X2612Y1074D01*
X2612Y1076D01*
X2606Y1076D01*
X2606Y1078D01*
X2602Y1078D01*
X2602Y1080D01*
X2578Y1080D01*
G37*
D02*
G36*
X2576Y1074D02*
X2576Y1072D01*
X2714Y1072D01*
X2714Y1074D01*
X2576Y1074D01*
G37*
D02*
G36*
X2576Y1074D02*
X2576Y1072D01*
X2714Y1072D01*
X2714Y1074D01*
X2576Y1074D01*
G37*
D02*
G36*
X2574Y1072D02*
X2574Y1068D01*
X2572Y1068D01*
X2572Y1064D01*
X2570Y1064D01*
X2570Y1060D01*
X2568Y1060D01*
X2568Y1056D01*
X2566Y1056D01*
X2566Y1052D01*
X2564Y1052D01*
X2564Y1048D01*
X2562Y1048D01*
X2562Y1044D01*
X2560Y1044D01*
X2560Y1040D01*
X2558Y1040D01*
X2558Y1036D01*
X2556Y1036D01*
X2556Y1032D01*
X2554Y1032D01*
X2554Y1028D01*
X2552Y1028D01*
X2552Y1024D01*
X2550Y1024D01*
X2550Y1020D01*
X2638Y1020D01*
X2638Y1018D01*
X2644Y1018D01*
X2644Y1016D01*
X2648Y1016D01*
X2648Y1014D01*
X2652Y1014D01*
X2652Y1012D01*
X2654Y1012D01*
X2654Y1010D01*
X2656Y1010D01*
X2656Y1008D01*
X2660Y1008D01*
X2660Y1006D01*
X2662Y1006D01*
X2662Y1002D01*
X2664Y1002D01*
X2664Y1000D01*
X2666Y1000D01*
X2666Y996D01*
X2668Y996D01*
X2668Y994D01*
X2670Y994D01*
X2670Y988D01*
X2672Y988D01*
X2672Y982D01*
X2674Y982D01*
X2674Y962D01*
X2672Y962D01*
X2672Y956D01*
X2670Y956D01*
X2670Y950D01*
X2668Y950D01*
X2668Y948D01*
X2666Y948D01*
X2666Y944D01*
X2664Y944D01*
X2664Y942D01*
X2662Y942D01*
X2662Y938D01*
X2660Y938D01*
X2660Y936D01*
X2656Y936D01*
X2656Y934D01*
X2654Y934D01*
X2654Y932D01*
X2652Y932D01*
X2652Y912D01*
X2654Y912D01*
X2654Y910D01*
X2656Y910D01*
X2656Y908D01*
X2660Y908D01*
X2660Y906D01*
X2662Y906D01*
X2662Y902D01*
X2664Y902D01*
X2664Y900D01*
X2666Y900D01*
X2666Y896D01*
X2668Y896D01*
X2668Y894D01*
X2670Y894D01*
X2670Y888D01*
X2672Y888D01*
X2672Y882D01*
X2674Y882D01*
X2674Y862D01*
X2672Y862D01*
X2672Y856D01*
X2670Y856D01*
X2670Y850D01*
X2668Y850D01*
X2668Y848D01*
X2666Y848D01*
X2666Y844D01*
X2664Y844D01*
X2664Y842D01*
X2662Y842D01*
X2662Y838D01*
X2660Y838D01*
X2660Y836D01*
X2656Y836D01*
X2656Y834D01*
X2654Y834D01*
X2654Y832D01*
X2652Y832D01*
X2652Y830D01*
X2648Y830D01*
X2648Y828D01*
X2644Y828D01*
X2644Y826D01*
X2638Y826D01*
X2638Y824D01*
X2714Y824D01*
X2714Y1072D01*
X2574Y1072D01*
G37*
D02*
G36*
X1336Y1060D02*
X1336Y1058D01*
X1342Y1058D01*
X1342Y1056D01*
X1346Y1056D01*
X1346Y1054D01*
X1348Y1054D01*
X1348Y1052D01*
X1350Y1052D01*
X1350Y1050D01*
X1352Y1050D01*
X1352Y1048D01*
X1354Y1048D01*
X1354Y1046D01*
X1356Y1046D01*
X1356Y1044D01*
X1358Y1044D01*
X1358Y1040D01*
X1360Y1040D01*
X1360Y1036D01*
X1362Y1036D01*
X1362Y1030D01*
X1364Y1030D01*
X1364Y1014D01*
X1362Y1014D01*
X1362Y1008D01*
X1360Y1008D01*
X1360Y1004D01*
X1358Y1004D01*
X1358Y1000D01*
X1356Y1000D01*
X1356Y998D01*
X1354Y998D01*
X1354Y996D01*
X1352Y996D01*
X1352Y994D01*
X1350Y994D01*
X1350Y992D01*
X1348Y992D01*
X1348Y990D01*
X1346Y990D01*
X1346Y988D01*
X1342Y988D01*
X1342Y986D01*
X1336Y986D01*
X1336Y984D01*
X1414Y984D01*
X1414Y986D01*
X1408Y986D01*
X1408Y988D01*
X1404Y988D01*
X1404Y990D01*
X1402Y990D01*
X1402Y992D01*
X1400Y992D01*
X1400Y994D01*
X1398Y994D01*
X1398Y996D01*
X1396Y996D01*
X1396Y998D01*
X1394Y998D01*
X1394Y1000D01*
X1392Y1000D01*
X1392Y1004D01*
X1390Y1004D01*
X1390Y1008D01*
X1388Y1008D01*
X1388Y1016D01*
X1386Y1016D01*
X1386Y1028D01*
X1388Y1028D01*
X1388Y1036D01*
X1390Y1036D01*
X1390Y1040D01*
X1392Y1040D01*
X1392Y1044D01*
X1394Y1044D01*
X1394Y1046D01*
X1396Y1046D01*
X1396Y1048D01*
X1398Y1048D01*
X1398Y1050D01*
X1400Y1050D01*
X1400Y1052D01*
X1402Y1052D01*
X1402Y1054D01*
X1404Y1054D01*
X1404Y1056D01*
X1408Y1056D01*
X1408Y1058D01*
X1414Y1058D01*
X1414Y1060D01*
X1336Y1060D01*
G37*
D02*
G36*
X1548Y1060D02*
X1548Y1002D01*
X1730Y1002D01*
X1730Y1000D01*
X1738Y1000D01*
X1738Y998D01*
X1740Y998D01*
X1740Y996D01*
X1744Y996D01*
X1744Y994D01*
X1746Y994D01*
X1746Y992D01*
X1748Y992D01*
X1748Y990D01*
X1750Y990D01*
X1750Y986D01*
X1752Y986D01*
X1752Y984D01*
X2314Y984D01*
X2314Y986D01*
X2308Y986D01*
X2308Y988D01*
X2304Y988D01*
X2304Y990D01*
X2302Y990D01*
X2302Y992D01*
X2300Y992D01*
X2300Y994D01*
X2298Y994D01*
X2298Y996D01*
X2296Y996D01*
X2296Y998D01*
X2294Y998D01*
X2294Y1000D01*
X2292Y1000D01*
X2292Y1004D01*
X2290Y1004D01*
X2290Y1008D01*
X2288Y1008D01*
X2288Y1016D01*
X2286Y1016D01*
X2286Y1028D01*
X2288Y1028D01*
X2288Y1036D01*
X2290Y1036D01*
X2290Y1040D01*
X2292Y1040D01*
X2292Y1044D01*
X2294Y1044D01*
X2294Y1046D01*
X2296Y1046D01*
X2296Y1048D01*
X2298Y1048D01*
X2298Y1050D01*
X2300Y1050D01*
X2300Y1052D01*
X2302Y1052D01*
X2302Y1054D01*
X2304Y1054D01*
X2304Y1056D01*
X2308Y1056D01*
X2308Y1058D01*
X2314Y1058D01*
X2314Y1060D01*
X1548Y1060D01*
G37*
D02*
G36*
X2336Y1060D02*
X2336Y1058D01*
X2342Y1058D01*
X2342Y1056D01*
X2346Y1056D01*
X2346Y1054D01*
X2348Y1054D01*
X2348Y1052D01*
X2350Y1052D01*
X2350Y1050D01*
X2352Y1050D01*
X2352Y1048D01*
X2354Y1048D01*
X2354Y1046D01*
X2356Y1046D01*
X2356Y1044D01*
X2358Y1044D01*
X2358Y1040D01*
X2360Y1040D01*
X2360Y1036D01*
X2362Y1036D01*
X2362Y1030D01*
X2364Y1030D01*
X2364Y1014D01*
X2362Y1014D01*
X2362Y1008D01*
X2360Y1008D01*
X2360Y1004D01*
X2358Y1004D01*
X2358Y1000D01*
X2356Y1000D01*
X2356Y998D01*
X2354Y998D01*
X2354Y996D01*
X2352Y996D01*
X2352Y994D01*
X2350Y994D01*
X2350Y992D01*
X2348Y992D01*
X2348Y990D01*
X2346Y990D01*
X2346Y988D01*
X2342Y988D01*
X2342Y986D01*
X2336Y986D01*
X2336Y984D01*
X2414Y984D01*
X2414Y986D01*
X2408Y986D01*
X2408Y988D01*
X2404Y988D01*
X2404Y990D01*
X2402Y990D01*
X2402Y992D01*
X2400Y992D01*
X2400Y994D01*
X2398Y994D01*
X2398Y996D01*
X2396Y996D01*
X2396Y998D01*
X2394Y998D01*
X2394Y1000D01*
X2392Y1000D01*
X2392Y1004D01*
X2390Y1004D01*
X2390Y1008D01*
X2388Y1008D01*
X2388Y1016D01*
X2386Y1016D01*
X2386Y1028D01*
X2388Y1028D01*
X2388Y1036D01*
X2390Y1036D01*
X2390Y1040D01*
X2392Y1040D01*
X2392Y1044D01*
X2394Y1044D01*
X2394Y1046D01*
X2396Y1046D01*
X2396Y1048D01*
X2398Y1048D01*
X2398Y1050D01*
X2400Y1050D01*
X2400Y1052D01*
X2402Y1052D01*
X2402Y1054D01*
X2404Y1054D01*
X2404Y1056D01*
X2408Y1056D01*
X2408Y1058D01*
X2414Y1058D01*
X2414Y1060D01*
X2336Y1060D01*
G37*
D02*
G36*
X1164Y1050D02*
X1164Y1048D01*
X1162Y1048D01*
X1162Y1046D01*
X1160Y1046D01*
X1160Y1042D01*
X1158Y1042D01*
X1158Y1040D01*
X1156Y1040D01*
X1156Y1038D01*
X1152Y1038D01*
X1152Y1036D01*
X1150Y1036D01*
X1150Y1034D01*
X1146Y1034D01*
X1146Y1032D01*
X1144Y1032D01*
X1144Y1012D01*
X1146Y1012D01*
X1146Y1010D01*
X1150Y1010D01*
X1150Y1008D01*
X1152Y1008D01*
X1152Y1006D01*
X1156Y1006D01*
X1156Y1004D01*
X1158Y1004D01*
X1158Y1002D01*
X1160Y1002D01*
X1160Y998D01*
X1162Y998D01*
X1162Y996D01*
X1164Y996D01*
X1164Y994D01*
X1182Y994D01*
X1182Y992D01*
X1188Y992D01*
X1188Y990D01*
X1190Y990D01*
X1190Y988D01*
X1192Y988D01*
X1192Y986D01*
X1194Y986D01*
X1194Y984D01*
X1314Y984D01*
X1314Y986D01*
X1308Y986D01*
X1308Y988D01*
X1304Y988D01*
X1304Y990D01*
X1302Y990D01*
X1302Y992D01*
X1300Y992D01*
X1300Y994D01*
X1298Y994D01*
X1298Y996D01*
X1296Y996D01*
X1296Y998D01*
X1294Y998D01*
X1294Y1000D01*
X1292Y1000D01*
X1292Y1004D01*
X1290Y1004D01*
X1290Y1008D01*
X1288Y1008D01*
X1288Y1016D01*
X1286Y1016D01*
X1286Y1018D01*
X1282Y1018D01*
X1282Y1020D01*
X1278Y1020D01*
X1278Y1022D01*
X1274Y1022D01*
X1274Y1024D01*
X1270Y1024D01*
X1270Y1026D01*
X1266Y1026D01*
X1266Y1028D01*
X1262Y1028D01*
X1262Y1030D01*
X1258Y1030D01*
X1258Y1032D01*
X1254Y1032D01*
X1254Y1034D01*
X1250Y1034D01*
X1250Y1036D01*
X1246Y1036D01*
X1246Y1038D01*
X1242Y1038D01*
X1242Y1040D01*
X1238Y1040D01*
X1238Y1042D01*
X1234Y1042D01*
X1234Y1044D01*
X1230Y1044D01*
X1230Y1046D01*
X1226Y1046D01*
X1226Y1048D01*
X1222Y1048D01*
X1222Y1050D01*
X1164Y1050D01*
G37*
D02*
G36*
X2548Y1020D02*
X2548Y1016D01*
X2546Y1016D01*
X2546Y1012D01*
X2544Y1012D01*
X2544Y1008D01*
X2542Y1008D01*
X2542Y1004D01*
X2540Y1004D01*
X2540Y1000D01*
X2538Y1000D01*
X2538Y996D01*
X2536Y996D01*
X2536Y992D01*
X2534Y992D01*
X2534Y988D01*
X2532Y988D01*
X2532Y984D01*
X2530Y984D01*
X2530Y980D01*
X2528Y980D01*
X2528Y976D01*
X2526Y976D01*
X2526Y972D01*
X2524Y972D01*
X2524Y968D01*
X2522Y968D01*
X2522Y964D01*
X2520Y964D01*
X2520Y960D01*
X2518Y960D01*
X2518Y956D01*
X2516Y956D01*
X2516Y952D01*
X2514Y952D01*
X2514Y948D01*
X2512Y948D01*
X2512Y946D01*
X2510Y946D01*
X2510Y942D01*
X2508Y942D01*
X2508Y938D01*
X2506Y938D01*
X2506Y934D01*
X2504Y934D01*
X2504Y930D01*
X2502Y930D01*
X2502Y926D01*
X2500Y926D01*
X2500Y922D01*
X2498Y922D01*
X2498Y918D01*
X2496Y918D01*
X2496Y914D01*
X2494Y914D01*
X2494Y910D01*
X2492Y910D01*
X2492Y908D01*
X2490Y908D01*
X2490Y906D01*
X2488Y906D01*
X2488Y904D01*
X2486Y904D01*
X2486Y902D01*
X2482Y902D01*
X2482Y900D01*
X2456Y900D01*
X2456Y898D01*
X2454Y898D01*
X2454Y896D01*
X2452Y896D01*
X2452Y894D01*
X2450Y894D01*
X2450Y892D01*
X2448Y892D01*
X2448Y890D01*
X2446Y890D01*
X2446Y888D01*
X2442Y888D01*
X2442Y886D01*
X2436Y886D01*
X2436Y884D01*
X2578Y884D01*
X2578Y888D01*
X2580Y888D01*
X2580Y894D01*
X2582Y894D01*
X2582Y896D01*
X2584Y896D01*
X2584Y900D01*
X2586Y900D01*
X2586Y902D01*
X2588Y902D01*
X2588Y906D01*
X2590Y906D01*
X2590Y908D01*
X2594Y908D01*
X2594Y910D01*
X2596Y910D01*
X2596Y912D01*
X2598Y912D01*
X2598Y932D01*
X2596Y932D01*
X2596Y934D01*
X2594Y934D01*
X2594Y936D01*
X2590Y936D01*
X2590Y938D01*
X2588Y938D01*
X2588Y942D01*
X2586Y942D01*
X2586Y944D01*
X2584Y944D01*
X2584Y948D01*
X2582Y948D01*
X2582Y950D01*
X2580Y950D01*
X2580Y956D01*
X2578Y956D01*
X2578Y962D01*
X2576Y962D01*
X2576Y982D01*
X2578Y982D01*
X2578Y988D01*
X2580Y988D01*
X2580Y994D01*
X2582Y994D01*
X2582Y996D01*
X2584Y996D01*
X2584Y1000D01*
X2586Y1000D01*
X2586Y1002D01*
X2588Y1002D01*
X2588Y1006D01*
X2590Y1006D01*
X2590Y1008D01*
X2594Y1008D01*
X2594Y1010D01*
X2596Y1010D01*
X2596Y1012D01*
X2598Y1012D01*
X2598Y1014D01*
X2602Y1014D01*
X2602Y1016D01*
X2606Y1016D01*
X2606Y1018D01*
X2612Y1018D01*
X2612Y1020D01*
X2548Y1020D01*
G37*
D02*
G36*
X1548Y1002D02*
X1548Y892D01*
X1920Y892D01*
X1920Y894D01*
X1912Y894D01*
X1912Y896D01*
X1910Y896D01*
X1910Y898D01*
X1906Y898D01*
X1906Y900D01*
X1768Y900D01*
X1768Y902D01*
X1764Y902D01*
X1764Y904D01*
X1762Y904D01*
X1762Y906D01*
X1758Y906D01*
X1758Y908D01*
X1756Y908D01*
X1756Y910D01*
X1754Y910D01*
X1754Y912D01*
X1752Y912D01*
X1752Y914D01*
X1750Y914D01*
X1750Y916D01*
X1748Y916D01*
X1748Y918D01*
X1746Y918D01*
X1746Y920D01*
X1744Y920D01*
X1744Y922D01*
X1742Y922D01*
X1742Y924D01*
X1740Y924D01*
X1740Y926D01*
X1738Y926D01*
X1738Y928D01*
X1736Y928D01*
X1736Y930D01*
X1734Y930D01*
X1734Y932D01*
X1732Y932D01*
X1732Y934D01*
X1730Y934D01*
X1730Y936D01*
X1728Y936D01*
X1728Y938D01*
X1726Y938D01*
X1726Y940D01*
X1724Y940D01*
X1724Y942D01*
X1720Y942D01*
X1720Y944D01*
X1712Y944D01*
X1712Y946D01*
X1710Y946D01*
X1710Y948D01*
X1706Y948D01*
X1706Y950D01*
X1704Y950D01*
X1704Y952D01*
X1702Y952D01*
X1702Y954D01*
X1700Y954D01*
X1700Y958D01*
X1698Y958D01*
X1698Y962D01*
X1696Y962D01*
X1696Y982D01*
X1698Y982D01*
X1698Y986D01*
X1700Y986D01*
X1700Y990D01*
X1702Y990D01*
X1702Y992D01*
X1704Y992D01*
X1704Y994D01*
X1706Y994D01*
X1706Y996D01*
X1710Y996D01*
X1710Y998D01*
X1712Y998D01*
X1712Y1000D01*
X1720Y1000D01*
X1720Y1002D01*
X1548Y1002D01*
G37*
D02*
G36*
X1196Y984D02*
X1196Y982D01*
X1502Y982D01*
X1502Y984D01*
X1196Y984D01*
G37*
D02*
G36*
X1196Y984D02*
X1196Y982D01*
X1502Y982D01*
X1502Y984D01*
X1196Y984D01*
G37*
D02*
G36*
X1196Y984D02*
X1196Y982D01*
X1502Y982D01*
X1502Y984D01*
X1196Y984D01*
G37*
D02*
G36*
X1752Y984D02*
X1752Y982D01*
X2480Y982D01*
X2480Y984D01*
X1752Y984D01*
G37*
D02*
G36*
X1752Y984D02*
X1752Y982D01*
X2480Y982D01*
X2480Y984D01*
X1752Y984D01*
G37*
D02*
G36*
X1752Y984D02*
X1752Y982D01*
X2480Y982D01*
X2480Y984D01*
X1752Y984D01*
G37*
D02*
G36*
X1196Y982D02*
X1196Y980D01*
X1198Y980D01*
X1198Y974D01*
X1200Y974D01*
X1200Y968D01*
X1202Y968D01*
X1202Y964D01*
X1204Y964D01*
X1204Y960D01*
X1436Y960D01*
X1436Y958D01*
X1442Y958D01*
X1442Y956D01*
X1446Y956D01*
X1446Y954D01*
X1448Y954D01*
X1448Y952D01*
X1450Y952D01*
X1450Y950D01*
X1452Y950D01*
X1452Y948D01*
X1454Y948D01*
X1454Y946D01*
X1456Y946D01*
X1456Y944D01*
X1458Y944D01*
X1458Y940D01*
X1460Y940D01*
X1460Y936D01*
X1462Y936D01*
X1462Y930D01*
X1464Y930D01*
X1464Y914D01*
X1462Y914D01*
X1462Y908D01*
X1460Y908D01*
X1460Y904D01*
X1458Y904D01*
X1458Y900D01*
X1456Y900D01*
X1456Y898D01*
X1454Y898D01*
X1454Y896D01*
X1452Y896D01*
X1452Y894D01*
X1450Y894D01*
X1450Y892D01*
X1448Y892D01*
X1448Y890D01*
X1446Y890D01*
X1446Y888D01*
X1442Y888D01*
X1442Y886D01*
X1436Y886D01*
X1436Y884D01*
X1502Y884D01*
X1502Y982D01*
X1196Y982D01*
G37*
D02*
G36*
X1754Y982D02*
X1754Y974D01*
X1756Y974D01*
X1756Y972D01*
X1758Y972D01*
X1758Y970D01*
X1760Y970D01*
X1760Y968D01*
X1762Y968D01*
X1762Y966D01*
X1764Y966D01*
X1764Y964D01*
X1766Y964D01*
X1766Y962D01*
X1768Y962D01*
X1768Y960D01*
X2436Y960D01*
X2436Y958D01*
X2442Y958D01*
X2442Y956D01*
X2446Y956D01*
X2446Y954D01*
X2466Y954D01*
X2466Y956D01*
X2468Y956D01*
X2468Y960D01*
X2470Y960D01*
X2470Y964D01*
X2472Y964D01*
X2472Y968D01*
X2474Y968D01*
X2474Y972D01*
X2476Y972D01*
X2476Y976D01*
X2478Y976D01*
X2478Y980D01*
X2480Y980D01*
X2480Y982D01*
X1754Y982D01*
G37*
D02*
G36*
X1204Y960D02*
X1204Y958D01*
X1206Y958D01*
X1206Y954D01*
X1208Y954D01*
X1208Y948D01*
X1210Y948D01*
X1210Y944D01*
X1212Y944D01*
X1212Y938D01*
X1214Y938D01*
X1214Y934D01*
X1216Y934D01*
X1216Y928D01*
X1218Y928D01*
X1218Y924D01*
X1220Y924D01*
X1220Y918D01*
X1222Y918D01*
X1222Y914D01*
X1224Y914D01*
X1224Y908D01*
X1226Y908D01*
X1226Y904D01*
X1228Y904D01*
X1228Y898D01*
X1230Y898D01*
X1230Y894D01*
X1232Y894D01*
X1232Y888D01*
X1234Y888D01*
X1234Y884D01*
X1314Y884D01*
X1314Y886D01*
X1308Y886D01*
X1308Y888D01*
X1304Y888D01*
X1304Y890D01*
X1302Y890D01*
X1302Y892D01*
X1300Y892D01*
X1300Y894D01*
X1298Y894D01*
X1298Y896D01*
X1296Y896D01*
X1296Y898D01*
X1294Y898D01*
X1294Y900D01*
X1292Y900D01*
X1292Y904D01*
X1290Y904D01*
X1290Y908D01*
X1288Y908D01*
X1288Y916D01*
X1286Y916D01*
X1286Y928D01*
X1288Y928D01*
X1288Y936D01*
X1290Y936D01*
X1290Y940D01*
X1292Y940D01*
X1292Y944D01*
X1294Y944D01*
X1294Y946D01*
X1296Y946D01*
X1296Y948D01*
X1298Y948D01*
X1298Y950D01*
X1300Y950D01*
X1300Y952D01*
X1302Y952D01*
X1302Y954D01*
X1304Y954D01*
X1304Y956D01*
X1308Y956D01*
X1308Y958D01*
X1314Y958D01*
X1314Y960D01*
X1204Y960D01*
G37*
D02*
G36*
X1336Y960D02*
X1336Y958D01*
X1342Y958D01*
X1342Y956D01*
X1346Y956D01*
X1346Y954D01*
X1348Y954D01*
X1348Y952D01*
X1350Y952D01*
X1350Y950D01*
X1352Y950D01*
X1352Y948D01*
X1354Y948D01*
X1354Y946D01*
X1356Y946D01*
X1356Y944D01*
X1358Y944D01*
X1358Y940D01*
X1360Y940D01*
X1360Y936D01*
X1362Y936D01*
X1362Y930D01*
X1364Y930D01*
X1364Y914D01*
X1362Y914D01*
X1362Y908D01*
X1360Y908D01*
X1360Y904D01*
X1358Y904D01*
X1358Y900D01*
X1356Y900D01*
X1356Y898D01*
X1354Y898D01*
X1354Y896D01*
X1352Y896D01*
X1352Y894D01*
X1350Y894D01*
X1350Y892D01*
X1348Y892D01*
X1348Y890D01*
X1346Y890D01*
X1346Y888D01*
X1342Y888D01*
X1342Y886D01*
X1336Y886D01*
X1336Y884D01*
X1414Y884D01*
X1414Y886D01*
X1408Y886D01*
X1408Y888D01*
X1404Y888D01*
X1404Y890D01*
X1402Y890D01*
X1402Y892D01*
X1400Y892D01*
X1400Y894D01*
X1398Y894D01*
X1398Y896D01*
X1396Y896D01*
X1396Y898D01*
X1394Y898D01*
X1394Y900D01*
X1392Y900D01*
X1392Y904D01*
X1390Y904D01*
X1390Y908D01*
X1388Y908D01*
X1388Y916D01*
X1386Y916D01*
X1386Y928D01*
X1388Y928D01*
X1388Y936D01*
X1390Y936D01*
X1390Y940D01*
X1392Y940D01*
X1392Y944D01*
X1394Y944D01*
X1394Y946D01*
X1396Y946D01*
X1396Y948D01*
X1398Y948D01*
X1398Y950D01*
X1400Y950D01*
X1400Y952D01*
X1402Y952D01*
X1402Y954D01*
X1404Y954D01*
X1404Y956D01*
X1408Y956D01*
X1408Y958D01*
X1414Y958D01*
X1414Y960D01*
X1336Y960D01*
G37*
D02*
G36*
X1770Y960D02*
X1770Y958D01*
X1772Y958D01*
X1772Y956D01*
X1774Y956D01*
X1774Y954D01*
X1776Y954D01*
X1776Y952D01*
X1930Y952D01*
X1930Y950D01*
X1938Y950D01*
X1938Y948D01*
X1940Y948D01*
X1940Y946D01*
X1944Y946D01*
X1944Y944D01*
X1946Y944D01*
X1946Y942D01*
X1948Y942D01*
X1948Y940D01*
X1950Y940D01*
X1950Y936D01*
X1952Y936D01*
X1952Y932D01*
X1954Y932D01*
X1954Y912D01*
X1952Y912D01*
X1952Y908D01*
X1950Y908D01*
X1950Y904D01*
X1948Y904D01*
X1948Y902D01*
X1946Y902D01*
X1946Y900D01*
X1944Y900D01*
X1944Y898D01*
X1940Y898D01*
X1940Y896D01*
X1938Y896D01*
X1938Y894D01*
X1930Y894D01*
X1930Y892D01*
X2300Y892D01*
X2300Y894D01*
X2298Y894D01*
X2298Y896D01*
X2296Y896D01*
X2296Y898D01*
X2294Y898D01*
X2294Y900D01*
X2292Y900D01*
X2292Y904D01*
X2290Y904D01*
X2290Y908D01*
X2288Y908D01*
X2288Y916D01*
X2286Y916D01*
X2286Y928D01*
X2288Y928D01*
X2288Y936D01*
X2290Y936D01*
X2290Y940D01*
X2292Y940D01*
X2292Y944D01*
X2294Y944D01*
X2294Y946D01*
X2296Y946D01*
X2296Y948D01*
X2298Y948D01*
X2298Y950D01*
X2300Y950D01*
X2300Y952D01*
X2302Y952D01*
X2302Y954D01*
X2304Y954D01*
X2304Y956D01*
X2308Y956D01*
X2308Y958D01*
X2314Y958D01*
X2314Y960D01*
X1770Y960D01*
G37*
D02*
G36*
X2336Y960D02*
X2336Y958D01*
X2342Y958D01*
X2342Y956D01*
X2346Y956D01*
X2346Y954D01*
X2348Y954D01*
X2348Y952D01*
X2350Y952D01*
X2350Y950D01*
X2352Y950D01*
X2352Y948D01*
X2354Y948D01*
X2354Y946D01*
X2356Y946D01*
X2356Y944D01*
X2358Y944D01*
X2358Y940D01*
X2360Y940D01*
X2360Y936D01*
X2362Y936D01*
X2362Y930D01*
X2364Y930D01*
X2364Y914D01*
X2362Y914D01*
X2362Y908D01*
X2360Y908D01*
X2360Y904D01*
X2358Y904D01*
X2358Y900D01*
X2356Y900D01*
X2356Y898D01*
X2354Y898D01*
X2354Y896D01*
X2352Y896D01*
X2352Y894D01*
X2350Y894D01*
X2350Y892D01*
X2348Y892D01*
X2348Y890D01*
X2346Y890D01*
X2346Y888D01*
X2342Y888D01*
X2342Y886D01*
X2336Y886D01*
X2336Y884D01*
X2414Y884D01*
X2414Y886D01*
X2408Y886D01*
X2408Y888D01*
X2404Y888D01*
X2404Y890D01*
X2402Y890D01*
X2402Y892D01*
X2400Y892D01*
X2400Y894D01*
X2398Y894D01*
X2398Y896D01*
X2396Y896D01*
X2396Y898D01*
X2394Y898D01*
X2394Y900D01*
X2392Y900D01*
X2392Y904D01*
X2390Y904D01*
X2390Y908D01*
X2388Y908D01*
X2388Y916D01*
X2386Y916D01*
X2386Y928D01*
X2388Y928D01*
X2388Y936D01*
X2390Y936D01*
X2390Y940D01*
X2392Y940D01*
X2392Y944D01*
X2394Y944D01*
X2394Y946D01*
X2396Y946D01*
X2396Y948D01*
X2398Y948D01*
X2398Y950D01*
X2400Y950D01*
X2400Y952D01*
X2402Y952D01*
X2402Y954D01*
X2404Y954D01*
X2404Y956D01*
X2408Y956D01*
X2408Y958D01*
X2414Y958D01*
X2414Y960D01*
X2336Y960D01*
G37*
D02*
G36*
X1778Y952D02*
X1778Y950D01*
X1780Y950D01*
X1780Y948D01*
X1782Y948D01*
X1782Y946D01*
X1784Y946D01*
X1784Y944D01*
X1906Y944D01*
X1906Y946D01*
X1910Y946D01*
X1910Y948D01*
X1912Y948D01*
X1912Y950D01*
X1920Y950D01*
X1920Y952D01*
X1778Y952D01*
G37*
D02*
G36*
X1548Y892D02*
X1548Y890D01*
X2302Y890D01*
X2302Y892D01*
X1548Y892D01*
G37*
D02*
G36*
X1548Y892D02*
X1548Y890D01*
X2302Y890D01*
X2302Y892D01*
X1548Y892D01*
G37*
D02*
G36*
X1548Y890D02*
X1548Y884D01*
X2314Y884D01*
X2314Y886D01*
X2308Y886D01*
X2308Y888D01*
X2304Y888D01*
X2304Y890D01*
X1548Y890D01*
G37*
D02*
G36*
X1236Y884D02*
X1236Y882D01*
X1502Y882D01*
X1502Y884D01*
X1236Y884D01*
G37*
D02*
G36*
X1236Y884D02*
X1236Y882D01*
X1502Y882D01*
X1502Y884D01*
X1236Y884D01*
G37*
D02*
G36*
X1236Y884D02*
X1236Y882D01*
X1502Y882D01*
X1502Y884D01*
X1236Y884D01*
G37*
D02*
G36*
X1548Y884D02*
X1548Y882D01*
X2578Y882D01*
X2578Y884D01*
X1548Y884D01*
G37*
D02*
G36*
X1548Y884D02*
X1548Y882D01*
X2578Y882D01*
X2578Y884D01*
X1548Y884D01*
G37*
D02*
G36*
X1548Y884D02*
X1548Y882D01*
X2578Y882D01*
X2578Y884D01*
X1548Y884D01*
G37*
D02*
G36*
X1236Y882D02*
X1236Y878D01*
X1238Y878D01*
X1238Y874D01*
X1240Y874D01*
X1240Y868D01*
X1242Y868D01*
X1242Y864D01*
X1244Y864D01*
X1244Y860D01*
X1436Y860D01*
X1436Y858D01*
X1442Y858D01*
X1442Y856D01*
X1446Y856D01*
X1446Y854D01*
X1448Y854D01*
X1448Y852D01*
X1450Y852D01*
X1450Y850D01*
X1452Y850D01*
X1452Y848D01*
X1454Y848D01*
X1454Y846D01*
X1456Y846D01*
X1456Y844D01*
X1458Y844D01*
X1458Y840D01*
X1460Y840D01*
X1460Y836D01*
X1462Y836D01*
X1462Y830D01*
X1464Y830D01*
X1464Y814D01*
X1462Y814D01*
X1462Y808D01*
X1460Y808D01*
X1460Y804D01*
X1458Y804D01*
X1458Y800D01*
X1456Y800D01*
X1456Y798D01*
X1454Y798D01*
X1454Y796D01*
X1452Y796D01*
X1452Y794D01*
X1450Y794D01*
X1450Y792D01*
X1448Y792D01*
X1448Y790D01*
X1446Y790D01*
X1446Y788D01*
X1442Y788D01*
X1442Y786D01*
X1436Y786D01*
X1436Y784D01*
X1502Y784D01*
X1502Y882D01*
X1236Y882D01*
G37*
D02*
G36*
X1548Y882D02*
X1548Y860D01*
X2436Y860D01*
X2436Y858D01*
X2442Y858D01*
X2442Y856D01*
X2446Y856D01*
X2446Y854D01*
X2448Y854D01*
X2448Y852D01*
X2450Y852D01*
X2450Y850D01*
X2452Y850D01*
X2452Y848D01*
X2454Y848D01*
X2454Y846D01*
X2456Y846D01*
X2456Y844D01*
X2458Y844D01*
X2458Y840D01*
X2460Y840D01*
X2460Y836D01*
X2462Y836D01*
X2462Y830D01*
X2464Y830D01*
X2464Y826D01*
X2468Y826D01*
X2468Y824D01*
X2612Y824D01*
X2612Y826D01*
X2606Y826D01*
X2606Y828D01*
X2602Y828D01*
X2602Y830D01*
X2598Y830D01*
X2598Y832D01*
X2596Y832D01*
X2596Y834D01*
X2594Y834D01*
X2594Y836D01*
X2590Y836D01*
X2590Y838D01*
X2588Y838D01*
X2588Y842D01*
X2586Y842D01*
X2586Y844D01*
X2584Y844D01*
X2584Y848D01*
X2582Y848D01*
X2582Y850D01*
X2580Y850D01*
X2580Y856D01*
X2578Y856D01*
X2578Y862D01*
X2576Y862D01*
X2576Y882D01*
X1548Y882D01*
G37*
D02*
G36*
X1244Y860D02*
X1244Y858D01*
X1246Y858D01*
X1246Y854D01*
X1248Y854D01*
X1248Y848D01*
X1250Y848D01*
X1250Y844D01*
X1252Y844D01*
X1252Y838D01*
X1254Y838D01*
X1254Y834D01*
X1256Y834D01*
X1256Y828D01*
X1258Y828D01*
X1258Y824D01*
X1260Y824D01*
X1260Y818D01*
X1262Y818D01*
X1262Y814D01*
X1264Y814D01*
X1264Y808D01*
X1266Y808D01*
X1266Y804D01*
X1268Y804D01*
X1268Y798D01*
X1270Y798D01*
X1270Y794D01*
X1272Y794D01*
X1272Y788D01*
X1274Y788D01*
X1274Y784D01*
X1314Y784D01*
X1314Y786D01*
X1308Y786D01*
X1308Y788D01*
X1304Y788D01*
X1304Y790D01*
X1302Y790D01*
X1302Y792D01*
X1300Y792D01*
X1300Y794D01*
X1298Y794D01*
X1298Y796D01*
X1296Y796D01*
X1296Y798D01*
X1294Y798D01*
X1294Y800D01*
X1292Y800D01*
X1292Y804D01*
X1290Y804D01*
X1290Y808D01*
X1288Y808D01*
X1288Y816D01*
X1286Y816D01*
X1286Y828D01*
X1288Y828D01*
X1288Y836D01*
X1290Y836D01*
X1290Y840D01*
X1292Y840D01*
X1292Y844D01*
X1294Y844D01*
X1294Y846D01*
X1296Y846D01*
X1296Y848D01*
X1298Y848D01*
X1298Y850D01*
X1300Y850D01*
X1300Y852D01*
X1302Y852D01*
X1302Y854D01*
X1304Y854D01*
X1304Y856D01*
X1308Y856D01*
X1308Y858D01*
X1314Y858D01*
X1314Y860D01*
X1244Y860D01*
G37*
D02*
G36*
X1336Y860D02*
X1336Y858D01*
X1342Y858D01*
X1342Y856D01*
X1346Y856D01*
X1346Y854D01*
X1348Y854D01*
X1348Y852D01*
X1350Y852D01*
X1350Y850D01*
X1352Y850D01*
X1352Y848D01*
X1354Y848D01*
X1354Y846D01*
X1356Y846D01*
X1356Y844D01*
X1358Y844D01*
X1358Y840D01*
X1360Y840D01*
X1360Y836D01*
X1362Y836D01*
X1362Y830D01*
X1364Y830D01*
X1364Y814D01*
X1362Y814D01*
X1362Y808D01*
X1360Y808D01*
X1360Y804D01*
X1358Y804D01*
X1358Y800D01*
X1356Y800D01*
X1356Y798D01*
X1354Y798D01*
X1354Y796D01*
X1352Y796D01*
X1352Y794D01*
X1350Y794D01*
X1350Y792D01*
X1348Y792D01*
X1348Y790D01*
X1346Y790D01*
X1346Y788D01*
X1342Y788D01*
X1342Y786D01*
X1336Y786D01*
X1336Y784D01*
X1414Y784D01*
X1414Y786D01*
X1408Y786D01*
X1408Y788D01*
X1404Y788D01*
X1404Y790D01*
X1402Y790D01*
X1402Y792D01*
X1400Y792D01*
X1400Y794D01*
X1398Y794D01*
X1398Y796D01*
X1396Y796D01*
X1396Y798D01*
X1394Y798D01*
X1394Y800D01*
X1392Y800D01*
X1392Y804D01*
X1390Y804D01*
X1390Y808D01*
X1388Y808D01*
X1388Y816D01*
X1386Y816D01*
X1386Y828D01*
X1388Y828D01*
X1388Y836D01*
X1390Y836D01*
X1390Y840D01*
X1392Y840D01*
X1392Y844D01*
X1394Y844D01*
X1394Y846D01*
X1396Y846D01*
X1396Y848D01*
X1398Y848D01*
X1398Y850D01*
X1400Y850D01*
X1400Y852D01*
X1402Y852D01*
X1402Y854D01*
X1404Y854D01*
X1404Y856D01*
X1408Y856D01*
X1408Y858D01*
X1414Y858D01*
X1414Y860D01*
X1336Y860D01*
G37*
D02*
G36*
X1548Y860D02*
X1548Y784D01*
X2314Y784D01*
X2314Y786D01*
X2308Y786D01*
X2308Y788D01*
X2304Y788D01*
X2304Y790D01*
X2302Y790D01*
X2302Y792D01*
X2300Y792D01*
X2300Y794D01*
X2298Y794D01*
X2298Y796D01*
X2296Y796D01*
X2296Y798D01*
X2294Y798D01*
X2294Y800D01*
X2292Y800D01*
X2292Y804D01*
X2290Y804D01*
X2290Y808D01*
X2288Y808D01*
X2288Y816D01*
X2286Y816D01*
X2286Y828D01*
X2288Y828D01*
X2288Y836D01*
X2290Y836D01*
X2290Y840D01*
X2292Y840D01*
X2292Y844D01*
X2294Y844D01*
X2294Y846D01*
X2296Y846D01*
X2296Y848D01*
X2298Y848D01*
X2298Y850D01*
X2300Y850D01*
X2300Y852D01*
X2302Y852D01*
X2302Y854D01*
X2304Y854D01*
X2304Y856D01*
X2308Y856D01*
X2308Y858D01*
X2314Y858D01*
X2314Y860D01*
X1548Y860D01*
G37*
D02*
G36*
X2336Y860D02*
X2336Y858D01*
X2342Y858D01*
X2342Y856D01*
X2346Y856D01*
X2346Y854D01*
X2348Y854D01*
X2348Y852D01*
X2350Y852D01*
X2350Y850D01*
X2352Y850D01*
X2352Y848D01*
X2354Y848D01*
X2354Y846D01*
X2356Y846D01*
X2356Y844D01*
X2358Y844D01*
X2358Y840D01*
X2360Y840D01*
X2360Y836D01*
X2362Y836D01*
X2362Y830D01*
X2364Y830D01*
X2364Y814D01*
X2362Y814D01*
X2362Y808D01*
X2360Y808D01*
X2360Y804D01*
X2358Y804D01*
X2358Y800D01*
X2356Y800D01*
X2356Y798D01*
X2354Y798D01*
X2354Y796D01*
X2352Y796D01*
X2352Y794D01*
X2350Y794D01*
X2350Y792D01*
X2348Y792D01*
X2348Y790D01*
X2346Y790D01*
X2346Y788D01*
X2342Y788D01*
X2342Y786D01*
X2336Y786D01*
X2336Y784D01*
X2414Y784D01*
X2414Y786D01*
X2408Y786D01*
X2408Y788D01*
X2404Y788D01*
X2404Y790D01*
X2402Y790D01*
X2402Y792D01*
X2400Y792D01*
X2400Y794D01*
X2398Y794D01*
X2398Y796D01*
X2396Y796D01*
X2396Y798D01*
X2394Y798D01*
X2394Y800D01*
X2392Y800D01*
X2392Y804D01*
X2390Y804D01*
X2390Y808D01*
X2388Y808D01*
X2388Y816D01*
X2386Y816D01*
X2386Y828D01*
X2388Y828D01*
X2388Y836D01*
X2390Y836D01*
X2390Y840D01*
X2392Y840D01*
X2392Y844D01*
X2394Y844D01*
X2394Y846D01*
X2396Y846D01*
X2396Y848D01*
X2398Y848D01*
X2398Y850D01*
X2400Y850D01*
X2400Y852D01*
X2402Y852D01*
X2402Y854D01*
X2404Y854D01*
X2404Y856D01*
X2408Y856D01*
X2408Y858D01*
X2414Y858D01*
X2414Y860D01*
X2336Y860D01*
G37*
D02*
G36*
X2472Y824D02*
X2472Y822D01*
X2714Y822D01*
X2714Y824D01*
X2472Y824D01*
G37*
D02*
G36*
X2472Y824D02*
X2472Y822D01*
X2714Y822D01*
X2714Y824D01*
X2472Y824D01*
G37*
D02*
G36*
X2476Y822D02*
X2476Y820D01*
X2480Y820D01*
X2480Y818D01*
X2484Y818D01*
X2484Y816D01*
X2488Y816D01*
X2488Y814D01*
X2492Y814D01*
X2492Y812D01*
X2496Y812D01*
X2496Y810D01*
X2500Y810D01*
X2500Y808D01*
X2504Y808D01*
X2504Y806D01*
X2508Y806D01*
X2508Y804D01*
X2512Y804D01*
X2512Y802D01*
X2516Y802D01*
X2516Y800D01*
X2520Y800D01*
X2520Y798D01*
X2524Y798D01*
X2524Y796D01*
X2528Y796D01*
X2528Y794D01*
X2532Y794D01*
X2532Y792D01*
X2536Y792D01*
X2536Y790D01*
X2538Y790D01*
X2538Y788D01*
X2542Y788D01*
X2542Y784D01*
X2544Y784D01*
X2544Y782D01*
X2546Y782D01*
X2546Y772D01*
X2548Y772D01*
X2548Y770D01*
X2638Y770D01*
X2638Y768D01*
X2644Y768D01*
X2644Y766D01*
X2648Y766D01*
X2648Y764D01*
X2652Y764D01*
X2652Y762D01*
X2654Y762D01*
X2654Y760D01*
X2656Y760D01*
X2656Y758D01*
X2660Y758D01*
X2660Y754D01*
X2662Y754D01*
X2662Y752D01*
X2664Y752D01*
X2664Y750D01*
X2666Y750D01*
X2666Y746D01*
X2668Y746D01*
X2668Y744D01*
X2670Y744D01*
X2670Y738D01*
X2672Y738D01*
X2672Y732D01*
X2674Y732D01*
X2674Y712D01*
X2672Y712D01*
X2672Y706D01*
X2670Y706D01*
X2670Y700D01*
X2668Y700D01*
X2668Y698D01*
X2666Y698D01*
X2666Y694D01*
X2664Y694D01*
X2664Y692D01*
X2662Y692D01*
X2662Y688D01*
X2660Y688D01*
X2660Y686D01*
X2656Y686D01*
X2656Y684D01*
X2654Y684D01*
X2654Y682D01*
X2652Y682D01*
X2652Y662D01*
X2654Y662D01*
X2654Y660D01*
X2656Y660D01*
X2656Y658D01*
X2660Y658D01*
X2660Y654D01*
X2662Y654D01*
X2662Y652D01*
X2664Y652D01*
X2664Y650D01*
X2666Y650D01*
X2666Y646D01*
X2668Y646D01*
X2668Y644D01*
X2670Y644D01*
X2670Y638D01*
X2672Y638D01*
X2672Y632D01*
X2674Y632D01*
X2674Y612D01*
X2672Y612D01*
X2672Y606D01*
X2670Y606D01*
X2670Y600D01*
X2668Y600D01*
X2668Y598D01*
X2666Y598D01*
X2666Y594D01*
X2664Y594D01*
X2664Y592D01*
X2662Y592D01*
X2662Y588D01*
X2660Y588D01*
X2660Y586D01*
X2656Y586D01*
X2656Y584D01*
X2654Y584D01*
X2654Y582D01*
X2652Y582D01*
X2652Y580D01*
X2648Y580D01*
X2648Y578D01*
X2644Y578D01*
X2644Y576D01*
X2638Y576D01*
X2638Y574D01*
X2714Y574D01*
X2714Y822D01*
X2476Y822D01*
G37*
D02*
G36*
X1276Y784D02*
X1276Y782D01*
X1502Y782D01*
X1502Y784D01*
X1276Y784D01*
G37*
D02*
G36*
X1276Y784D02*
X1276Y782D01*
X1502Y782D01*
X1502Y784D01*
X1276Y784D01*
G37*
D02*
G36*
X1276Y784D02*
X1276Y782D01*
X1502Y782D01*
X1502Y784D01*
X1276Y784D01*
G37*
D02*
G36*
X1548Y784D02*
X1548Y782D01*
X2454Y782D01*
X2454Y784D01*
X1548Y784D01*
G37*
D02*
G36*
X1548Y784D02*
X1548Y782D01*
X2454Y782D01*
X2454Y784D01*
X1548Y784D01*
G37*
D02*
G36*
X1276Y782D02*
X1276Y778D01*
X1278Y778D01*
X1278Y774D01*
X1280Y774D01*
X1280Y768D01*
X1282Y768D01*
X1282Y764D01*
X1284Y764D01*
X1284Y760D01*
X1436Y760D01*
X1436Y758D01*
X1442Y758D01*
X1442Y756D01*
X1446Y756D01*
X1446Y754D01*
X1448Y754D01*
X1448Y752D01*
X1450Y752D01*
X1450Y750D01*
X1452Y750D01*
X1452Y748D01*
X1454Y748D01*
X1454Y746D01*
X1456Y746D01*
X1456Y744D01*
X1458Y744D01*
X1458Y740D01*
X1460Y740D01*
X1460Y736D01*
X1462Y736D01*
X1462Y730D01*
X1464Y730D01*
X1464Y714D01*
X1462Y714D01*
X1462Y708D01*
X1460Y708D01*
X1460Y704D01*
X1458Y704D01*
X1458Y700D01*
X1456Y700D01*
X1456Y698D01*
X1454Y698D01*
X1454Y696D01*
X1452Y696D01*
X1452Y694D01*
X1450Y694D01*
X1450Y692D01*
X1448Y692D01*
X1448Y690D01*
X1446Y690D01*
X1446Y688D01*
X1442Y688D01*
X1442Y686D01*
X1436Y686D01*
X1436Y684D01*
X1502Y684D01*
X1502Y782D01*
X1276Y782D01*
G37*
D02*
G36*
X1548Y782D02*
X1548Y760D01*
X2436Y760D01*
X2436Y758D01*
X2442Y758D01*
X2442Y756D01*
X2446Y756D01*
X2446Y754D01*
X2448Y754D01*
X2448Y752D01*
X2450Y752D01*
X2450Y750D01*
X2452Y750D01*
X2452Y748D01*
X2454Y748D01*
X2454Y746D01*
X2456Y746D01*
X2456Y744D01*
X2458Y744D01*
X2458Y740D01*
X2460Y740D01*
X2460Y736D01*
X2462Y736D01*
X2462Y730D01*
X2464Y730D01*
X2464Y714D01*
X2462Y714D01*
X2462Y708D01*
X2460Y708D01*
X2460Y704D01*
X2458Y704D01*
X2458Y700D01*
X2456Y700D01*
X2456Y698D01*
X2454Y698D01*
X2454Y696D01*
X2452Y696D01*
X2452Y694D01*
X2450Y694D01*
X2450Y692D01*
X2448Y692D01*
X2448Y690D01*
X2446Y690D01*
X2446Y688D01*
X2442Y688D01*
X2442Y686D01*
X2436Y686D01*
X2436Y684D01*
X2502Y684D01*
X2502Y760D01*
X2498Y760D01*
X2498Y762D01*
X2494Y762D01*
X2494Y764D01*
X2490Y764D01*
X2490Y766D01*
X2486Y766D01*
X2486Y768D01*
X2482Y768D01*
X2482Y770D01*
X2478Y770D01*
X2478Y772D01*
X2474Y772D01*
X2474Y774D01*
X2470Y774D01*
X2470Y776D01*
X2466Y776D01*
X2466Y778D01*
X2462Y778D01*
X2462Y780D01*
X2458Y780D01*
X2458Y782D01*
X1548Y782D01*
G37*
D02*
G36*
X2548Y770D02*
X2548Y644D01*
X2582Y644D01*
X2582Y646D01*
X2584Y646D01*
X2584Y650D01*
X2586Y650D01*
X2586Y652D01*
X2588Y652D01*
X2588Y654D01*
X2590Y654D01*
X2590Y658D01*
X2594Y658D01*
X2594Y660D01*
X2596Y660D01*
X2596Y662D01*
X2598Y662D01*
X2598Y682D01*
X2596Y682D01*
X2596Y684D01*
X2594Y684D01*
X2594Y686D01*
X2590Y686D01*
X2590Y688D01*
X2588Y688D01*
X2588Y692D01*
X2586Y692D01*
X2586Y694D01*
X2584Y694D01*
X2584Y698D01*
X2582Y698D01*
X2582Y700D01*
X2580Y700D01*
X2580Y706D01*
X2578Y706D01*
X2578Y712D01*
X2576Y712D01*
X2576Y732D01*
X2578Y732D01*
X2578Y738D01*
X2580Y738D01*
X2580Y744D01*
X2582Y744D01*
X2582Y746D01*
X2584Y746D01*
X2584Y750D01*
X2586Y750D01*
X2586Y752D01*
X2588Y752D01*
X2588Y754D01*
X2590Y754D01*
X2590Y758D01*
X2594Y758D01*
X2594Y760D01*
X2596Y760D01*
X2596Y762D01*
X2598Y762D01*
X2598Y764D01*
X2602Y764D01*
X2602Y766D01*
X2606Y766D01*
X2606Y768D01*
X2612Y768D01*
X2612Y770D01*
X2548Y770D01*
G37*
D02*
G36*
X1284Y760D02*
X1284Y758D01*
X1286Y758D01*
X1286Y756D01*
X1308Y756D01*
X1308Y758D01*
X1314Y758D01*
X1314Y760D01*
X1284Y760D01*
G37*
D02*
G36*
X1336Y760D02*
X1336Y758D01*
X1342Y758D01*
X1342Y756D01*
X1346Y756D01*
X1346Y754D01*
X1348Y754D01*
X1348Y752D01*
X1350Y752D01*
X1350Y750D01*
X1352Y750D01*
X1352Y748D01*
X1354Y748D01*
X1354Y746D01*
X1356Y746D01*
X1356Y744D01*
X1358Y744D01*
X1358Y740D01*
X1360Y740D01*
X1360Y736D01*
X1362Y736D01*
X1362Y730D01*
X1364Y730D01*
X1364Y714D01*
X1362Y714D01*
X1362Y708D01*
X1360Y708D01*
X1360Y704D01*
X1358Y704D01*
X1358Y700D01*
X1356Y700D01*
X1356Y698D01*
X1354Y698D01*
X1354Y696D01*
X1352Y696D01*
X1352Y694D01*
X1350Y694D01*
X1350Y692D01*
X1348Y692D01*
X1348Y690D01*
X1346Y690D01*
X1346Y688D01*
X1342Y688D01*
X1342Y686D01*
X1336Y686D01*
X1336Y684D01*
X1414Y684D01*
X1414Y686D01*
X1408Y686D01*
X1408Y688D01*
X1404Y688D01*
X1404Y690D01*
X1402Y690D01*
X1402Y692D01*
X1400Y692D01*
X1400Y694D01*
X1398Y694D01*
X1398Y696D01*
X1396Y696D01*
X1396Y698D01*
X1394Y698D01*
X1394Y700D01*
X1392Y700D01*
X1392Y704D01*
X1390Y704D01*
X1390Y708D01*
X1388Y708D01*
X1388Y716D01*
X1386Y716D01*
X1386Y728D01*
X1388Y728D01*
X1388Y736D01*
X1390Y736D01*
X1390Y740D01*
X1392Y740D01*
X1392Y744D01*
X1394Y744D01*
X1394Y746D01*
X1396Y746D01*
X1396Y748D01*
X1398Y748D01*
X1398Y750D01*
X1400Y750D01*
X1400Y752D01*
X1402Y752D01*
X1402Y754D01*
X1404Y754D01*
X1404Y756D01*
X1408Y756D01*
X1408Y758D01*
X1414Y758D01*
X1414Y760D01*
X1336Y760D01*
G37*
D02*
G36*
X1548Y760D02*
X1548Y622D01*
X1546Y622D01*
X1546Y612D01*
X1544Y612D01*
X1544Y608D01*
X1542Y608D01*
X1542Y606D01*
X1540Y606D01*
X1540Y604D01*
X1538Y604D01*
X1538Y602D01*
X1536Y602D01*
X1536Y600D01*
X1534Y600D01*
X1534Y598D01*
X1532Y598D01*
X1532Y596D01*
X1530Y596D01*
X1530Y594D01*
X1528Y594D01*
X1528Y592D01*
X1526Y592D01*
X1526Y590D01*
X1524Y590D01*
X1524Y588D01*
X1522Y588D01*
X1522Y586D01*
X1520Y586D01*
X1520Y584D01*
X1518Y584D01*
X1518Y582D01*
X1516Y582D01*
X1516Y580D01*
X1514Y580D01*
X1514Y578D01*
X1512Y578D01*
X1512Y576D01*
X1510Y576D01*
X1510Y574D01*
X1508Y574D01*
X1508Y572D01*
X1506Y572D01*
X1506Y570D01*
X1504Y570D01*
X1504Y568D01*
X1502Y568D01*
X1502Y566D01*
X1500Y566D01*
X1500Y564D01*
X1498Y564D01*
X1498Y562D01*
X1496Y562D01*
X1496Y560D01*
X1494Y560D01*
X1494Y558D01*
X1492Y558D01*
X1492Y556D01*
X1490Y556D01*
X1490Y554D01*
X1488Y554D01*
X1488Y552D01*
X1482Y552D01*
X1482Y550D01*
X1462Y550D01*
X1462Y530D01*
X1464Y530D01*
X1464Y514D01*
X1462Y514D01*
X1462Y508D01*
X1460Y508D01*
X1460Y504D01*
X1458Y504D01*
X1458Y500D01*
X1456Y500D01*
X1456Y498D01*
X1454Y498D01*
X1454Y496D01*
X1452Y496D01*
X1452Y494D01*
X1450Y494D01*
X1450Y492D01*
X1448Y492D01*
X1448Y490D01*
X1446Y490D01*
X1446Y488D01*
X1442Y488D01*
X1442Y486D01*
X1436Y486D01*
X1436Y484D01*
X2222Y484D01*
X2222Y494D01*
X2220Y494D01*
X2220Y508D01*
X2218Y508D01*
X2218Y522D01*
X2216Y522D01*
X2216Y536D01*
X2214Y536D01*
X2214Y550D01*
X2212Y550D01*
X2212Y564D01*
X2210Y564D01*
X2210Y578D01*
X2208Y578D01*
X2208Y592D01*
X2206Y592D01*
X2206Y606D01*
X2204Y606D01*
X2204Y632D01*
X2206Y632D01*
X2206Y634D01*
X2208Y634D01*
X2208Y638D01*
X2210Y638D01*
X2210Y640D01*
X2212Y640D01*
X2212Y642D01*
X2214Y642D01*
X2214Y644D01*
X2216Y644D01*
X2216Y646D01*
X2218Y646D01*
X2218Y648D01*
X2220Y648D01*
X2220Y650D01*
X2222Y650D01*
X2222Y652D01*
X2224Y652D01*
X2224Y654D01*
X2226Y654D01*
X2226Y656D01*
X2228Y656D01*
X2228Y658D01*
X2230Y658D01*
X2230Y660D01*
X2232Y660D01*
X2232Y662D01*
X2234Y662D01*
X2234Y664D01*
X2236Y664D01*
X2236Y666D01*
X2238Y666D01*
X2238Y668D01*
X2240Y668D01*
X2240Y670D01*
X2242Y670D01*
X2242Y672D01*
X2244Y672D01*
X2244Y674D01*
X2246Y674D01*
X2246Y676D01*
X2248Y676D01*
X2248Y678D01*
X2250Y678D01*
X2250Y680D01*
X2252Y680D01*
X2252Y682D01*
X2254Y682D01*
X2254Y684D01*
X2256Y684D01*
X2256Y686D01*
X2258Y686D01*
X2258Y688D01*
X2260Y688D01*
X2260Y690D01*
X2262Y690D01*
X2262Y692D01*
X2264Y692D01*
X2264Y694D01*
X2266Y694D01*
X2266Y696D01*
X2268Y696D01*
X2268Y698D01*
X2270Y698D01*
X2270Y700D01*
X2272Y700D01*
X2272Y702D01*
X2274Y702D01*
X2274Y704D01*
X2276Y704D01*
X2276Y706D01*
X2278Y706D01*
X2278Y708D01*
X2280Y708D01*
X2280Y710D01*
X2282Y710D01*
X2282Y712D01*
X2284Y712D01*
X2284Y714D01*
X2286Y714D01*
X2286Y728D01*
X2288Y728D01*
X2288Y736D01*
X2290Y736D01*
X2290Y740D01*
X2292Y740D01*
X2292Y744D01*
X2294Y744D01*
X2294Y746D01*
X2296Y746D01*
X2296Y748D01*
X2298Y748D01*
X2298Y750D01*
X2300Y750D01*
X2300Y752D01*
X2302Y752D01*
X2302Y754D01*
X2304Y754D01*
X2304Y756D01*
X2308Y756D01*
X2308Y758D01*
X2314Y758D01*
X2314Y760D01*
X1548Y760D01*
G37*
D02*
G36*
X2336Y760D02*
X2336Y758D01*
X2342Y758D01*
X2342Y756D01*
X2346Y756D01*
X2346Y754D01*
X2348Y754D01*
X2348Y752D01*
X2350Y752D01*
X2350Y750D01*
X2352Y750D01*
X2352Y748D01*
X2354Y748D01*
X2354Y746D01*
X2356Y746D01*
X2356Y744D01*
X2358Y744D01*
X2358Y740D01*
X2360Y740D01*
X2360Y736D01*
X2362Y736D01*
X2362Y730D01*
X2364Y730D01*
X2364Y714D01*
X2362Y714D01*
X2362Y708D01*
X2360Y708D01*
X2360Y704D01*
X2358Y704D01*
X2358Y700D01*
X2356Y700D01*
X2356Y698D01*
X2354Y698D01*
X2354Y696D01*
X2352Y696D01*
X2352Y694D01*
X2350Y694D01*
X2350Y692D01*
X2348Y692D01*
X2348Y690D01*
X2346Y690D01*
X2346Y688D01*
X2342Y688D01*
X2342Y686D01*
X2336Y686D01*
X2336Y684D01*
X2414Y684D01*
X2414Y686D01*
X2408Y686D01*
X2408Y688D01*
X2404Y688D01*
X2404Y690D01*
X2402Y690D01*
X2402Y692D01*
X2400Y692D01*
X2400Y694D01*
X2398Y694D01*
X2398Y696D01*
X2396Y696D01*
X2396Y698D01*
X2394Y698D01*
X2394Y700D01*
X2392Y700D01*
X2392Y704D01*
X2390Y704D01*
X2390Y708D01*
X2388Y708D01*
X2388Y716D01*
X2386Y716D01*
X2386Y728D01*
X2388Y728D01*
X2388Y736D01*
X2390Y736D01*
X2390Y740D01*
X2392Y740D01*
X2392Y744D01*
X2394Y744D01*
X2394Y746D01*
X2396Y746D01*
X2396Y748D01*
X2398Y748D01*
X2398Y750D01*
X2400Y750D01*
X2400Y752D01*
X2402Y752D01*
X2402Y754D01*
X2404Y754D01*
X2404Y756D01*
X2408Y756D01*
X2408Y758D01*
X2414Y758D01*
X2414Y760D01*
X2336Y760D01*
G37*
D02*
G36*
X1276Y698D02*
X1276Y684D01*
X1314Y684D01*
X1314Y686D01*
X1308Y686D01*
X1308Y688D01*
X1304Y688D01*
X1304Y690D01*
X1302Y690D01*
X1302Y692D01*
X1300Y692D01*
X1300Y694D01*
X1298Y694D01*
X1298Y696D01*
X1296Y696D01*
X1296Y698D01*
X1276Y698D01*
G37*
D02*
G36*
X1276Y684D02*
X1276Y682D01*
X1502Y682D01*
X1502Y684D01*
X1276Y684D01*
G37*
D02*
G36*
X1276Y684D02*
X1276Y682D01*
X1502Y682D01*
X1502Y684D01*
X1276Y684D01*
G37*
D02*
G36*
X1276Y684D02*
X1276Y682D01*
X1502Y682D01*
X1502Y684D01*
X1276Y684D01*
G37*
D02*
G36*
X2318Y684D02*
X2318Y682D01*
X2502Y682D01*
X2502Y684D01*
X2318Y684D01*
G37*
D02*
G36*
X2318Y684D02*
X2318Y682D01*
X2502Y682D01*
X2502Y684D01*
X2318Y684D01*
G37*
D02*
G36*
X1276Y682D02*
X1276Y676D01*
X1278Y676D01*
X1278Y670D01*
X1280Y670D01*
X1280Y666D01*
X1282Y666D01*
X1282Y660D01*
X1436Y660D01*
X1436Y658D01*
X1442Y658D01*
X1442Y656D01*
X1446Y656D01*
X1446Y654D01*
X1448Y654D01*
X1448Y652D01*
X1450Y652D01*
X1450Y650D01*
X1452Y650D01*
X1452Y648D01*
X1454Y648D01*
X1454Y646D01*
X1456Y646D01*
X1456Y644D01*
X1458Y644D01*
X1458Y640D01*
X1460Y640D01*
X1460Y636D01*
X1462Y636D01*
X1462Y630D01*
X1464Y630D01*
X1464Y614D01*
X1462Y614D01*
X1462Y608D01*
X1482Y608D01*
X1482Y610D01*
X1484Y610D01*
X1484Y612D01*
X1486Y612D01*
X1486Y614D01*
X1488Y614D01*
X1488Y616D01*
X1490Y616D01*
X1490Y618D01*
X1492Y618D01*
X1492Y620D01*
X1494Y620D01*
X1494Y622D01*
X1496Y622D01*
X1496Y624D01*
X1498Y624D01*
X1498Y626D01*
X1500Y626D01*
X1500Y628D01*
X1502Y628D01*
X1502Y682D01*
X1276Y682D01*
G37*
D02*
G36*
X2316Y682D02*
X2316Y680D01*
X2314Y680D01*
X2314Y678D01*
X2312Y678D01*
X2312Y660D01*
X2436Y660D01*
X2436Y658D01*
X2442Y658D01*
X2442Y656D01*
X2446Y656D01*
X2446Y654D01*
X2448Y654D01*
X2448Y652D01*
X2450Y652D01*
X2450Y650D01*
X2452Y650D01*
X2452Y648D01*
X2454Y648D01*
X2454Y646D01*
X2456Y646D01*
X2456Y644D01*
X2458Y644D01*
X2458Y640D01*
X2460Y640D01*
X2460Y636D01*
X2462Y636D01*
X2462Y630D01*
X2464Y630D01*
X2464Y614D01*
X2462Y614D01*
X2462Y608D01*
X2460Y608D01*
X2460Y604D01*
X2458Y604D01*
X2458Y600D01*
X2456Y600D01*
X2456Y598D01*
X2454Y598D01*
X2454Y596D01*
X2452Y596D01*
X2452Y594D01*
X2450Y594D01*
X2450Y592D01*
X2448Y592D01*
X2448Y590D01*
X2446Y590D01*
X2446Y588D01*
X2442Y588D01*
X2442Y586D01*
X2436Y586D01*
X2436Y584D01*
X2594Y584D01*
X2594Y586D01*
X2590Y586D01*
X2590Y588D01*
X2588Y588D01*
X2588Y592D01*
X2586Y592D01*
X2586Y594D01*
X2584Y594D01*
X2584Y598D01*
X2582Y598D01*
X2582Y600D01*
X2516Y600D01*
X2516Y602D01*
X2514Y602D01*
X2514Y604D01*
X2510Y604D01*
X2510Y606D01*
X2508Y606D01*
X2508Y608D01*
X2506Y608D01*
X2506Y612D01*
X2504Y612D01*
X2504Y622D01*
X2502Y622D01*
X2502Y682D01*
X2316Y682D01*
G37*
D02*
G36*
X1284Y660D02*
X1284Y656D01*
X1308Y656D01*
X1308Y658D01*
X1314Y658D01*
X1314Y660D01*
X1284Y660D01*
G37*
D02*
G36*
X1336Y660D02*
X1336Y658D01*
X1342Y658D01*
X1342Y656D01*
X1346Y656D01*
X1346Y654D01*
X1348Y654D01*
X1348Y652D01*
X1350Y652D01*
X1350Y650D01*
X1352Y650D01*
X1352Y648D01*
X1354Y648D01*
X1354Y646D01*
X1356Y646D01*
X1356Y644D01*
X1358Y644D01*
X1358Y640D01*
X1360Y640D01*
X1360Y636D01*
X1362Y636D01*
X1362Y630D01*
X1364Y630D01*
X1364Y614D01*
X1362Y614D01*
X1362Y594D01*
X1388Y594D01*
X1388Y616D01*
X1386Y616D01*
X1386Y628D01*
X1388Y628D01*
X1388Y636D01*
X1390Y636D01*
X1390Y640D01*
X1392Y640D01*
X1392Y644D01*
X1394Y644D01*
X1394Y646D01*
X1396Y646D01*
X1396Y648D01*
X1398Y648D01*
X1398Y650D01*
X1400Y650D01*
X1400Y652D01*
X1402Y652D01*
X1402Y654D01*
X1404Y654D01*
X1404Y656D01*
X1408Y656D01*
X1408Y658D01*
X1414Y658D01*
X1414Y660D01*
X1336Y660D01*
G37*
D02*
G36*
X2336Y660D02*
X2336Y658D01*
X2342Y658D01*
X2342Y656D01*
X2346Y656D01*
X2346Y654D01*
X2348Y654D01*
X2348Y652D01*
X2350Y652D01*
X2350Y650D01*
X2352Y650D01*
X2352Y648D01*
X2354Y648D01*
X2354Y646D01*
X2356Y646D01*
X2356Y644D01*
X2358Y644D01*
X2358Y640D01*
X2360Y640D01*
X2360Y636D01*
X2362Y636D01*
X2362Y630D01*
X2364Y630D01*
X2364Y614D01*
X2362Y614D01*
X2362Y608D01*
X2360Y608D01*
X2360Y604D01*
X2358Y604D01*
X2358Y600D01*
X2356Y600D01*
X2356Y598D01*
X2354Y598D01*
X2354Y596D01*
X2352Y596D01*
X2352Y594D01*
X2350Y594D01*
X2350Y592D01*
X2348Y592D01*
X2348Y590D01*
X2346Y590D01*
X2346Y588D01*
X2342Y588D01*
X2342Y586D01*
X2336Y586D01*
X2336Y584D01*
X2414Y584D01*
X2414Y586D01*
X2408Y586D01*
X2408Y588D01*
X2404Y588D01*
X2404Y590D01*
X2402Y590D01*
X2402Y592D01*
X2400Y592D01*
X2400Y594D01*
X2398Y594D01*
X2398Y596D01*
X2396Y596D01*
X2396Y598D01*
X2394Y598D01*
X2394Y600D01*
X2392Y600D01*
X2392Y604D01*
X2390Y604D01*
X2390Y608D01*
X2388Y608D01*
X2388Y616D01*
X2386Y616D01*
X2386Y628D01*
X2388Y628D01*
X2388Y636D01*
X2390Y636D01*
X2390Y640D01*
X2392Y640D01*
X2392Y644D01*
X2394Y644D01*
X2394Y646D01*
X2396Y646D01*
X2396Y648D01*
X2398Y648D01*
X2398Y650D01*
X2400Y650D01*
X2400Y652D01*
X2402Y652D01*
X2402Y654D01*
X2404Y654D01*
X2404Y656D01*
X2408Y656D01*
X2408Y658D01*
X2414Y658D01*
X2414Y660D01*
X2336Y660D01*
G37*
D02*
G36*
X2268Y634D02*
X2268Y632D01*
X2266Y632D01*
X2266Y630D01*
X2264Y630D01*
X2264Y628D01*
X2262Y628D01*
X2262Y626D01*
X2260Y626D01*
X2260Y624D01*
X2258Y624D01*
X2258Y622D01*
X2256Y622D01*
X2256Y620D01*
X2254Y620D01*
X2254Y618D01*
X2252Y618D01*
X2252Y616D01*
X2250Y616D01*
X2250Y596D01*
X2252Y596D01*
X2252Y584D01*
X2314Y584D01*
X2314Y586D01*
X2308Y586D01*
X2308Y588D01*
X2304Y588D01*
X2304Y590D01*
X2302Y590D01*
X2302Y592D01*
X2300Y592D01*
X2300Y594D01*
X2298Y594D01*
X2298Y596D01*
X2296Y596D01*
X2296Y598D01*
X2294Y598D01*
X2294Y600D01*
X2292Y600D01*
X2292Y604D01*
X2290Y604D01*
X2290Y608D01*
X2288Y608D01*
X2288Y616D01*
X2286Y616D01*
X2286Y628D01*
X2288Y628D01*
X2288Y634D01*
X2268Y634D01*
G37*
D02*
G36*
X40Y628D02*
X40Y626D01*
X554Y626D01*
X554Y628D01*
X40Y628D01*
G37*
D02*
G36*
X40Y628D02*
X40Y626D01*
X554Y626D01*
X554Y628D01*
X40Y628D01*
G37*
D02*
G36*
X40Y626D02*
X40Y452D01*
X328Y452D01*
X328Y450D01*
X342Y450D01*
X342Y448D01*
X350Y448D01*
X350Y446D01*
X356Y446D01*
X356Y444D01*
X360Y444D01*
X360Y442D01*
X364Y442D01*
X364Y440D01*
X366Y440D01*
X366Y438D01*
X370Y438D01*
X370Y436D01*
X372Y436D01*
X372Y434D01*
X376Y434D01*
X376Y432D01*
X378Y432D01*
X378Y430D01*
X380Y430D01*
X380Y428D01*
X382Y428D01*
X382Y426D01*
X384Y426D01*
X384Y424D01*
X386Y424D01*
X386Y422D01*
X388Y422D01*
X388Y418D01*
X390Y418D01*
X390Y416D01*
X392Y416D01*
X392Y412D01*
X394Y412D01*
X394Y408D01*
X396Y408D01*
X396Y404D01*
X398Y404D01*
X398Y400D01*
X400Y400D01*
X400Y394D01*
X402Y394D01*
X402Y384D01*
X404Y384D01*
X404Y360D01*
X402Y360D01*
X402Y350D01*
X400Y350D01*
X400Y344D01*
X398Y344D01*
X398Y340D01*
X396Y340D01*
X396Y336D01*
X394Y336D01*
X394Y332D01*
X392Y332D01*
X392Y328D01*
X390Y328D01*
X390Y326D01*
X388Y326D01*
X388Y322D01*
X386Y322D01*
X386Y320D01*
X384Y320D01*
X384Y318D01*
X382Y318D01*
X382Y316D01*
X380Y316D01*
X380Y314D01*
X378Y314D01*
X378Y312D01*
X376Y312D01*
X376Y310D01*
X372Y310D01*
X372Y308D01*
X370Y308D01*
X370Y306D01*
X366Y306D01*
X366Y304D01*
X364Y304D01*
X364Y302D01*
X360Y302D01*
X360Y300D01*
X356Y300D01*
X356Y298D01*
X350Y298D01*
X350Y296D01*
X342Y296D01*
X342Y294D01*
X328Y294D01*
X328Y292D01*
X552Y292D01*
X552Y324D01*
X554Y324D01*
X554Y626D01*
X40Y626D01*
G37*
D02*
G36*
X2252Y584D02*
X2252Y582D01*
X2596Y582D01*
X2596Y584D01*
X2252Y584D01*
G37*
D02*
G36*
X2252Y584D02*
X2252Y582D01*
X2596Y582D01*
X2596Y584D01*
X2252Y584D01*
G37*
D02*
G36*
X2252Y584D02*
X2252Y582D01*
X2596Y582D01*
X2596Y584D01*
X2252Y584D01*
G37*
D02*
G36*
X2254Y582D02*
X2254Y574D01*
X2612Y574D01*
X2612Y576D01*
X2606Y576D01*
X2606Y578D01*
X2602Y578D01*
X2602Y580D01*
X2598Y580D01*
X2598Y582D01*
X2254Y582D01*
G37*
D02*
G36*
X2254Y574D02*
X2254Y572D01*
X2714Y572D01*
X2714Y574D01*
X2254Y574D01*
G37*
D02*
G36*
X2254Y574D02*
X2254Y572D01*
X2714Y572D01*
X2714Y574D01*
X2254Y574D01*
G37*
D02*
G36*
X2254Y572D02*
X2254Y568D01*
X2256Y568D01*
X2256Y560D01*
X2436Y560D01*
X2436Y558D01*
X2442Y558D01*
X2442Y556D01*
X2446Y556D01*
X2446Y554D01*
X2448Y554D01*
X2448Y552D01*
X2450Y552D01*
X2450Y550D01*
X2452Y550D01*
X2452Y548D01*
X2454Y548D01*
X2454Y546D01*
X2456Y546D01*
X2456Y544D01*
X2458Y544D01*
X2458Y540D01*
X2460Y540D01*
X2460Y536D01*
X2462Y536D01*
X2462Y530D01*
X2464Y530D01*
X2464Y514D01*
X2462Y514D01*
X2462Y508D01*
X2460Y508D01*
X2460Y504D01*
X2458Y504D01*
X2458Y500D01*
X2456Y500D01*
X2456Y498D01*
X2454Y498D01*
X2454Y496D01*
X2452Y496D01*
X2452Y494D01*
X2450Y494D01*
X2450Y492D01*
X2448Y492D01*
X2448Y490D01*
X2446Y490D01*
X2446Y488D01*
X2442Y488D01*
X2442Y486D01*
X2436Y486D01*
X2436Y484D01*
X2714Y484D01*
X2714Y572D01*
X2254Y572D01*
G37*
D02*
G36*
X2256Y560D02*
X2256Y554D01*
X2258Y554D01*
X2258Y540D01*
X2260Y540D01*
X2260Y526D01*
X2262Y526D01*
X2262Y512D01*
X2264Y512D01*
X2264Y498D01*
X2266Y498D01*
X2266Y484D01*
X2314Y484D01*
X2314Y486D01*
X2308Y486D01*
X2308Y488D01*
X2304Y488D01*
X2304Y490D01*
X2302Y490D01*
X2302Y492D01*
X2300Y492D01*
X2300Y494D01*
X2298Y494D01*
X2298Y496D01*
X2296Y496D01*
X2296Y498D01*
X2294Y498D01*
X2294Y500D01*
X2292Y500D01*
X2292Y504D01*
X2290Y504D01*
X2290Y508D01*
X2288Y508D01*
X2288Y516D01*
X2286Y516D01*
X2286Y528D01*
X2288Y528D01*
X2288Y536D01*
X2290Y536D01*
X2290Y540D01*
X2292Y540D01*
X2292Y544D01*
X2294Y544D01*
X2294Y546D01*
X2296Y546D01*
X2296Y548D01*
X2298Y548D01*
X2298Y550D01*
X2300Y550D01*
X2300Y552D01*
X2302Y552D01*
X2302Y554D01*
X2304Y554D01*
X2304Y556D01*
X2308Y556D01*
X2308Y558D01*
X2314Y558D01*
X2314Y560D01*
X2256Y560D01*
G37*
D02*
G36*
X2336Y560D02*
X2336Y558D01*
X2342Y558D01*
X2342Y556D01*
X2346Y556D01*
X2346Y554D01*
X2348Y554D01*
X2348Y552D01*
X2350Y552D01*
X2350Y550D01*
X2352Y550D01*
X2352Y548D01*
X2354Y548D01*
X2354Y546D01*
X2356Y546D01*
X2356Y544D01*
X2358Y544D01*
X2358Y540D01*
X2360Y540D01*
X2360Y536D01*
X2362Y536D01*
X2362Y530D01*
X2364Y530D01*
X2364Y514D01*
X2362Y514D01*
X2362Y508D01*
X2360Y508D01*
X2360Y504D01*
X2358Y504D01*
X2358Y500D01*
X2356Y500D01*
X2356Y498D01*
X2354Y498D01*
X2354Y496D01*
X2352Y496D01*
X2352Y494D01*
X2350Y494D01*
X2350Y492D01*
X2348Y492D01*
X2348Y490D01*
X2346Y490D01*
X2346Y488D01*
X2342Y488D01*
X2342Y486D01*
X2336Y486D01*
X2336Y484D01*
X2414Y484D01*
X2414Y486D01*
X2408Y486D01*
X2408Y488D01*
X2404Y488D01*
X2404Y490D01*
X2402Y490D01*
X2402Y492D01*
X2400Y492D01*
X2400Y494D01*
X2398Y494D01*
X2398Y496D01*
X2396Y496D01*
X2396Y498D01*
X2394Y498D01*
X2394Y500D01*
X2392Y500D01*
X2392Y504D01*
X2390Y504D01*
X2390Y508D01*
X2388Y508D01*
X2388Y516D01*
X2386Y516D01*
X2386Y528D01*
X2388Y528D01*
X2388Y536D01*
X2390Y536D01*
X2390Y540D01*
X2392Y540D01*
X2392Y544D01*
X2394Y544D01*
X2394Y546D01*
X2396Y546D01*
X2396Y548D01*
X2398Y548D01*
X2398Y550D01*
X2400Y550D01*
X2400Y552D01*
X2402Y552D01*
X2402Y554D01*
X2404Y554D01*
X2404Y556D01*
X2408Y556D01*
X2408Y558D01*
X2414Y558D01*
X2414Y560D01*
X2336Y560D01*
G37*
D02*
G36*
X1164Y550D02*
X1164Y548D01*
X1162Y548D01*
X1162Y546D01*
X1160Y546D01*
X1160Y542D01*
X1158Y542D01*
X1158Y540D01*
X1156Y540D01*
X1156Y538D01*
X1152Y538D01*
X1152Y536D01*
X1150Y536D01*
X1150Y534D01*
X1146Y534D01*
X1146Y532D01*
X1144Y532D01*
X1144Y530D01*
X1138Y530D01*
X1138Y528D01*
X1288Y528D01*
X1288Y550D01*
X1164Y550D01*
G37*
D02*
G36*
X1362Y550D02*
X1362Y530D01*
X1364Y530D01*
X1364Y514D01*
X1362Y514D01*
X1362Y508D01*
X1360Y508D01*
X1360Y504D01*
X1358Y504D01*
X1358Y500D01*
X1356Y500D01*
X1356Y498D01*
X1354Y498D01*
X1354Y496D01*
X1352Y496D01*
X1352Y494D01*
X1350Y494D01*
X1350Y492D01*
X1348Y492D01*
X1348Y490D01*
X1346Y490D01*
X1346Y488D01*
X1342Y488D01*
X1342Y486D01*
X1336Y486D01*
X1336Y484D01*
X1414Y484D01*
X1414Y486D01*
X1408Y486D01*
X1408Y488D01*
X1404Y488D01*
X1404Y490D01*
X1402Y490D01*
X1402Y492D01*
X1400Y492D01*
X1400Y494D01*
X1398Y494D01*
X1398Y496D01*
X1396Y496D01*
X1396Y498D01*
X1394Y498D01*
X1394Y500D01*
X1392Y500D01*
X1392Y504D01*
X1390Y504D01*
X1390Y508D01*
X1388Y508D01*
X1388Y516D01*
X1386Y516D01*
X1386Y528D01*
X1388Y528D01*
X1388Y550D01*
X1362Y550D01*
G37*
D02*
G36*
X796Y528D02*
X796Y526D01*
X1286Y526D01*
X1286Y528D01*
X796Y528D01*
G37*
D02*
G36*
X796Y528D02*
X796Y526D01*
X1286Y526D01*
X1286Y528D01*
X796Y528D01*
G37*
D02*
G36*
X796Y526D02*
X796Y484D01*
X1314Y484D01*
X1314Y486D01*
X1308Y486D01*
X1308Y488D01*
X1304Y488D01*
X1304Y490D01*
X1302Y490D01*
X1302Y492D01*
X1300Y492D01*
X1300Y494D01*
X1298Y494D01*
X1298Y496D01*
X1296Y496D01*
X1296Y498D01*
X1294Y498D01*
X1294Y500D01*
X1292Y500D01*
X1292Y504D01*
X1290Y504D01*
X1290Y508D01*
X1288Y508D01*
X1288Y516D01*
X1286Y516D01*
X1286Y526D01*
X796Y526D01*
G37*
D02*
G36*
X796Y484D02*
X796Y482D01*
X2222Y482D01*
X2222Y484D01*
X796Y484D01*
G37*
D02*
G36*
X796Y484D02*
X796Y482D01*
X2222Y482D01*
X2222Y484D01*
X796Y484D01*
G37*
D02*
G36*
X796Y484D02*
X796Y482D01*
X2222Y482D01*
X2222Y484D01*
X796Y484D01*
G37*
D02*
G36*
X2268Y484D02*
X2268Y482D01*
X2714Y482D01*
X2714Y484D01*
X2268Y484D01*
G37*
D02*
G36*
X2268Y484D02*
X2268Y482D01*
X2714Y482D01*
X2714Y484D01*
X2268Y484D01*
G37*
D02*
G36*
X2268Y484D02*
X2268Y482D01*
X2714Y482D01*
X2714Y484D01*
X2268Y484D01*
G37*
D02*
G36*
X796Y482D02*
X796Y452D01*
X1128Y452D01*
X1128Y450D01*
X1142Y450D01*
X1142Y448D01*
X1150Y448D01*
X1150Y446D01*
X1156Y446D01*
X1156Y444D01*
X1160Y444D01*
X1160Y442D01*
X1164Y442D01*
X1164Y440D01*
X1166Y440D01*
X1166Y438D01*
X1170Y438D01*
X1170Y436D01*
X1172Y436D01*
X1172Y434D01*
X1176Y434D01*
X1176Y432D01*
X1178Y432D01*
X1178Y430D01*
X1180Y430D01*
X1180Y428D01*
X1182Y428D01*
X1182Y426D01*
X1184Y426D01*
X1184Y424D01*
X1186Y424D01*
X1186Y422D01*
X1188Y422D01*
X1188Y418D01*
X1190Y418D01*
X1190Y416D01*
X1192Y416D01*
X1192Y412D01*
X1194Y412D01*
X1194Y408D01*
X1196Y408D01*
X1196Y404D01*
X1198Y404D01*
X1198Y400D01*
X1200Y400D01*
X1200Y394D01*
X1202Y394D01*
X1202Y384D01*
X1204Y384D01*
X1204Y360D01*
X1202Y360D01*
X1202Y350D01*
X1200Y350D01*
X1200Y344D01*
X1198Y344D01*
X1198Y340D01*
X1196Y340D01*
X1196Y336D01*
X1194Y336D01*
X1194Y332D01*
X1192Y332D01*
X1192Y328D01*
X1190Y328D01*
X1190Y326D01*
X1188Y326D01*
X1188Y322D01*
X1186Y322D01*
X1186Y320D01*
X2188Y320D01*
X2188Y318D01*
X2194Y318D01*
X2194Y316D01*
X2198Y316D01*
X2198Y314D01*
X2202Y314D01*
X2202Y312D01*
X2204Y312D01*
X2204Y310D01*
X2206Y310D01*
X2206Y308D01*
X2210Y308D01*
X2210Y304D01*
X2212Y304D01*
X2212Y302D01*
X2214Y302D01*
X2214Y300D01*
X2236Y300D01*
X2236Y302D01*
X2238Y302D01*
X2238Y304D01*
X2240Y304D01*
X2240Y308D01*
X2244Y308D01*
X2244Y340D01*
X2242Y340D01*
X2242Y354D01*
X2240Y354D01*
X2240Y368D01*
X2238Y368D01*
X2238Y382D01*
X2236Y382D01*
X2236Y396D01*
X2234Y396D01*
X2234Y410D01*
X2232Y410D01*
X2232Y424D01*
X2230Y424D01*
X2230Y438D01*
X2228Y438D01*
X2228Y452D01*
X2226Y452D01*
X2226Y466D01*
X2224Y466D01*
X2224Y480D01*
X2222Y480D01*
X2222Y482D01*
X796Y482D01*
G37*
D02*
G36*
X2268Y482D02*
X2268Y470D01*
X2270Y470D01*
X2270Y456D01*
X2272Y456D01*
X2272Y442D01*
X2274Y442D01*
X2274Y428D01*
X2276Y428D01*
X2276Y414D01*
X2278Y414D01*
X2278Y400D01*
X2280Y400D01*
X2280Y386D01*
X2282Y386D01*
X2282Y372D01*
X2284Y372D01*
X2284Y358D01*
X2286Y358D01*
X2286Y344D01*
X2288Y344D01*
X2288Y330D01*
X2290Y330D01*
X2290Y320D01*
X2388Y320D01*
X2388Y318D01*
X2394Y318D01*
X2394Y316D01*
X2398Y316D01*
X2398Y314D01*
X2402Y314D01*
X2402Y312D01*
X2404Y312D01*
X2404Y310D01*
X2406Y310D01*
X2406Y308D01*
X2410Y308D01*
X2410Y304D01*
X2412Y304D01*
X2412Y302D01*
X2414Y302D01*
X2414Y300D01*
X2416Y300D01*
X2416Y296D01*
X2418Y296D01*
X2418Y294D01*
X2420Y294D01*
X2420Y288D01*
X2422Y288D01*
X2422Y282D01*
X2424Y282D01*
X2424Y262D01*
X2644Y262D01*
X2644Y260D01*
X2654Y260D01*
X2654Y258D01*
X2660Y258D01*
X2660Y256D01*
X2666Y256D01*
X2666Y254D01*
X2670Y254D01*
X2670Y252D01*
X2676Y252D01*
X2676Y250D01*
X2678Y250D01*
X2678Y248D01*
X2682Y248D01*
X2682Y246D01*
X2686Y246D01*
X2686Y244D01*
X2688Y244D01*
X2688Y242D01*
X2692Y242D01*
X2692Y240D01*
X2694Y240D01*
X2694Y238D01*
X2714Y238D01*
X2714Y482D01*
X2268Y482D01*
G37*
D02*
G36*
X40Y452D02*
X40Y292D01*
X322Y292D01*
X322Y294D01*
X308Y294D01*
X308Y296D01*
X300Y296D01*
X300Y298D01*
X294Y298D01*
X294Y300D01*
X290Y300D01*
X290Y302D01*
X286Y302D01*
X286Y304D01*
X284Y304D01*
X284Y306D01*
X280Y306D01*
X280Y308D01*
X278Y308D01*
X278Y310D01*
X274Y310D01*
X274Y312D01*
X272Y312D01*
X272Y314D01*
X270Y314D01*
X270Y316D01*
X268Y316D01*
X268Y318D01*
X266Y318D01*
X266Y320D01*
X264Y320D01*
X264Y322D01*
X262Y322D01*
X262Y326D01*
X260Y326D01*
X260Y328D01*
X258Y328D01*
X258Y332D01*
X256Y332D01*
X256Y336D01*
X254Y336D01*
X254Y340D01*
X252Y340D01*
X252Y344D01*
X250Y344D01*
X250Y350D01*
X248Y350D01*
X248Y360D01*
X246Y360D01*
X246Y384D01*
X248Y384D01*
X248Y394D01*
X250Y394D01*
X250Y400D01*
X252Y400D01*
X252Y404D01*
X254Y404D01*
X254Y408D01*
X256Y408D01*
X256Y412D01*
X258Y412D01*
X258Y416D01*
X260Y416D01*
X260Y418D01*
X262Y418D01*
X262Y422D01*
X264Y422D01*
X264Y424D01*
X266Y424D01*
X266Y426D01*
X268Y426D01*
X268Y428D01*
X270Y428D01*
X270Y430D01*
X272Y430D01*
X272Y432D01*
X274Y432D01*
X274Y434D01*
X278Y434D01*
X278Y436D01*
X280Y436D01*
X280Y438D01*
X284Y438D01*
X284Y440D01*
X286Y440D01*
X286Y442D01*
X290Y442D01*
X290Y444D01*
X294Y444D01*
X294Y446D01*
X300Y446D01*
X300Y448D01*
X308Y448D01*
X308Y450D01*
X322Y450D01*
X322Y452D01*
X40Y452D01*
G37*
D02*
G36*
X796Y452D02*
X796Y292D01*
X1122Y292D01*
X1122Y294D01*
X1108Y294D01*
X1108Y296D01*
X1100Y296D01*
X1100Y298D01*
X1094Y298D01*
X1094Y300D01*
X1090Y300D01*
X1090Y302D01*
X1086Y302D01*
X1086Y304D01*
X1084Y304D01*
X1084Y306D01*
X1080Y306D01*
X1080Y308D01*
X1078Y308D01*
X1078Y310D01*
X1074Y310D01*
X1074Y312D01*
X1072Y312D01*
X1072Y314D01*
X1070Y314D01*
X1070Y316D01*
X1068Y316D01*
X1068Y318D01*
X1066Y318D01*
X1066Y320D01*
X1064Y320D01*
X1064Y322D01*
X1062Y322D01*
X1062Y326D01*
X1060Y326D01*
X1060Y328D01*
X1058Y328D01*
X1058Y332D01*
X1056Y332D01*
X1056Y336D01*
X1054Y336D01*
X1054Y340D01*
X1052Y340D01*
X1052Y344D01*
X1050Y344D01*
X1050Y350D01*
X1048Y350D01*
X1048Y360D01*
X1046Y360D01*
X1046Y384D01*
X1048Y384D01*
X1048Y394D01*
X1050Y394D01*
X1050Y400D01*
X1052Y400D01*
X1052Y404D01*
X1054Y404D01*
X1054Y408D01*
X1056Y408D01*
X1056Y412D01*
X1058Y412D01*
X1058Y416D01*
X1060Y416D01*
X1060Y418D01*
X1062Y418D01*
X1062Y422D01*
X1064Y422D01*
X1064Y424D01*
X1066Y424D01*
X1066Y426D01*
X1068Y426D01*
X1068Y428D01*
X1070Y428D01*
X1070Y430D01*
X1072Y430D01*
X1072Y432D01*
X1074Y432D01*
X1074Y434D01*
X1078Y434D01*
X1078Y436D01*
X1080Y436D01*
X1080Y438D01*
X1084Y438D01*
X1084Y440D01*
X1086Y440D01*
X1086Y442D01*
X1090Y442D01*
X1090Y444D01*
X1094Y444D01*
X1094Y446D01*
X1100Y446D01*
X1100Y448D01*
X1108Y448D01*
X1108Y450D01*
X1122Y450D01*
X1122Y452D01*
X796Y452D01*
G37*
D02*
G36*
X1184Y320D02*
X1184Y318D01*
X1182Y318D01*
X1182Y316D01*
X1180Y316D01*
X1180Y314D01*
X1178Y314D01*
X1178Y312D01*
X1176Y312D01*
X1176Y310D01*
X1172Y310D01*
X1172Y308D01*
X1170Y308D01*
X1170Y306D01*
X1166Y306D01*
X1166Y304D01*
X1164Y304D01*
X1164Y302D01*
X1160Y302D01*
X1160Y300D01*
X1156Y300D01*
X1156Y298D01*
X1150Y298D01*
X1150Y296D01*
X1142Y296D01*
X1142Y294D01*
X1128Y294D01*
X1128Y292D01*
X1480Y292D01*
X1480Y294D01*
X1482Y294D01*
X1482Y296D01*
X1484Y296D01*
X1484Y300D01*
X1486Y300D01*
X1486Y302D01*
X1488Y302D01*
X1488Y304D01*
X1490Y304D01*
X1490Y308D01*
X1494Y308D01*
X1494Y310D01*
X1496Y310D01*
X1496Y312D01*
X1498Y312D01*
X1498Y314D01*
X1502Y314D01*
X1502Y316D01*
X1506Y316D01*
X1506Y318D01*
X1512Y318D01*
X1512Y320D01*
X1184Y320D01*
G37*
D02*
G36*
X1538Y320D02*
X1538Y318D01*
X1544Y318D01*
X1544Y316D01*
X1548Y316D01*
X1548Y314D01*
X1552Y314D01*
X1552Y312D01*
X1554Y312D01*
X1554Y310D01*
X1556Y310D01*
X1556Y308D01*
X1560Y308D01*
X1560Y304D01*
X1562Y304D01*
X1562Y302D01*
X1564Y302D01*
X1564Y300D01*
X1586Y300D01*
X1586Y302D01*
X1588Y302D01*
X1588Y304D01*
X1590Y304D01*
X1590Y308D01*
X1594Y308D01*
X1594Y310D01*
X1596Y310D01*
X1596Y312D01*
X1598Y312D01*
X1598Y314D01*
X1602Y314D01*
X1602Y316D01*
X1606Y316D01*
X1606Y318D01*
X1612Y318D01*
X1612Y320D01*
X1538Y320D01*
G37*
D02*
G36*
X1638Y320D02*
X1638Y318D01*
X1644Y318D01*
X1644Y316D01*
X1648Y316D01*
X1648Y314D01*
X1652Y314D01*
X1652Y312D01*
X1654Y312D01*
X1654Y310D01*
X1656Y310D01*
X1656Y308D01*
X1660Y308D01*
X1660Y304D01*
X1662Y304D01*
X1662Y302D01*
X1664Y302D01*
X1664Y300D01*
X1686Y300D01*
X1686Y302D01*
X1688Y302D01*
X1688Y304D01*
X1690Y304D01*
X1690Y308D01*
X1694Y308D01*
X1694Y310D01*
X1696Y310D01*
X1696Y312D01*
X1698Y312D01*
X1698Y314D01*
X1702Y314D01*
X1702Y316D01*
X1706Y316D01*
X1706Y318D01*
X1712Y318D01*
X1712Y320D01*
X1638Y320D01*
G37*
D02*
G36*
X1738Y320D02*
X1738Y318D01*
X1744Y318D01*
X1744Y316D01*
X1748Y316D01*
X1748Y314D01*
X1752Y314D01*
X1752Y312D01*
X1754Y312D01*
X1754Y310D01*
X1756Y310D01*
X1756Y308D01*
X1760Y308D01*
X1760Y304D01*
X1762Y304D01*
X1762Y302D01*
X1764Y302D01*
X1764Y300D01*
X1786Y300D01*
X1786Y302D01*
X1788Y302D01*
X1788Y304D01*
X1790Y304D01*
X1790Y308D01*
X1794Y308D01*
X1794Y310D01*
X1796Y310D01*
X1796Y312D01*
X1798Y312D01*
X1798Y314D01*
X1802Y314D01*
X1802Y316D01*
X1806Y316D01*
X1806Y318D01*
X1812Y318D01*
X1812Y320D01*
X1738Y320D01*
G37*
D02*
G36*
X1838Y320D02*
X1838Y318D01*
X1844Y318D01*
X1844Y316D01*
X1848Y316D01*
X1848Y314D01*
X1852Y314D01*
X1852Y312D01*
X1854Y312D01*
X1854Y310D01*
X1856Y310D01*
X1856Y308D01*
X1860Y308D01*
X1860Y304D01*
X1862Y304D01*
X1862Y302D01*
X1864Y302D01*
X1864Y300D01*
X1866Y300D01*
X1866Y296D01*
X1868Y296D01*
X1868Y294D01*
X2132Y294D01*
X2132Y296D01*
X2134Y296D01*
X2134Y300D01*
X2136Y300D01*
X2136Y302D01*
X2138Y302D01*
X2138Y304D01*
X2140Y304D01*
X2140Y308D01*
X2144Y308D01*
X2144Y310D01*
X2146Y310D01*
X2146Y312D01*
X2148Y312D01*
X2148Y314D01*
X2152Y314D01*
X2152Y316D01*
X2156Y316D01*
X2156Y318D01*
X2162Y318D01*
X2162Y320D01*
X1838Y320D01*
G37*
D02*
G36*
X2290Y320D02*
X2290Y318D01*
X2294Y318D01*
X2294Y316D01*
X2298Y316D01*
X2298Y314D01*
X2302Y314D01*
X2302Y312D01*
X2304Y312D01*
X2304Y310D01*
X2306Y310D01*
X2306Y308D01*
X2310Y308D01*
X2310Y304D01*
X2312Y304D01*
X2312Y302D01*
X2314Y302D01*
X2314Y300D01*
X2336Y300D01*
X2336Y302D01*
X2338Y302D01*
X2338Y304D01*
X2340Y304D01*
X2340Y308D01*
X2344Y308D01*
X2344Y310D01*
X2346Y310D01*
X2346Y312D01*
X2348Y312D01*
X2348Y314D01*
X2352Y314D01*
X2352Y316D01*
X2356Y316D01*
X2356Y318D01*
X2362Y318D01*
X2362Y320D01*
X2290Y320D01*
G37*
D02*
G36*
X40Y292D02*
X40Y290D01*
X552Y290D01*
X552Y292D01*
X40Y292D01*
G37*
D02*
G36*
X40Y292D02*
X40Y290D01*
X552Y290D01*
X552Y292D01*
X40Y292D01*
G37*
D02*
G36*
X796Y292D02*
X796Y290D01*
X1480Y290D01*
X1480Y292D01*
X796Y292D01*
G37*
D02*
G36*
X796Y292D02*
X796Y290D01*
X1480Y290D01*
X1480Y292D01*
X796Y292D01*
G37*
D02*
G36*
X40Y290D02*
X40Y264D01*
X132Y264D01*
X132Y262D01*
X148Y262D01*
X148Y260D01*
X156Y260D01*
X156Y258D01*
X162Y258D01*
X162Y256D01*
X168Y256D01*
X168Y254D01*
X172Y254D01*
X172Y252D01*
X176Y252D01*
X176Y250D01*
X180Y250D01*
X180Y248D01*
X184Y248D01*
X184Y246D01*
X186Y246D01*
X186Y244D01*
X190Y244D01*
X190Y242D01*
X192Y242D01*
X192Y240D01*
X194Y240D01*
X194Y238D01*
X198Y238D01*
X198Y236D01*
X200Y236D01*
X200Y234D01*
X202Y234D01*
X202Y232D01*
X204Y232D01*
X204Y230D01*
X206Y230D01*
X206Y228D01*
X208Y228D01*
X208Y226D01*
X210Y226D01*
X210Y224D01*
X212Y224D01*
X212Y220D01*
X214Y220D01*
X214Y218D01*
X216Y218D01*
X216Y216D01*
X218Y216D01*
X218Y212D01*
X220Y212D01*
X220Y210D01*
X222Y210D01*
X222Y206D01*
X224Y206D01*
X224Y202D01*
X226Y202D01*
X226Y198D01*
X228Y198D01*
X228Y194D01*
X230Y194D01*
X230Y188D01*
X232Y188D01*
X232Y182D01*
X234Y182D01*
X234Y174D01*
X236Y174D01*
X236Y160D01*
X238Y160D01*
X238Y142D01*
X236Y142D01*
X236Y128D01*
X234Y128D01*
X234Y124D01*
X562Y124D01*
X562Y126D01*
X556Y126D01*
X556Y128D01*
X552Y128D01*
X552Y130D01*
X548Y130D01*
X548Y132D01*
X546Y132D01*
X546Y134D01*
X544Y134D01*
X544Y136D01*
X540Y136D01*
X540Y140D01*
X538Y140D01*
X538Y142D01*
X536Y142D01*
X536Y144D01*
X534Y144D01*
X534Y148D01*
X532Y148D01*
X532Y150D01*
X530Y150D01*
X530Y156D01*
X528Y156D01*
X528Y162D01*
X526Y162D01*
X526Y182D01*
X528Y182D01*
X528Y188D01*
X530Y188D01*
X530Y194D01*
X532Y194D01*
X532Y196D01*
X534Y196D01*
X534Y200D01*
X536Y200D01*
X536Y202D01*
X538Y202D01*
X538Y204D01*
X540Y204D01*
X540Y208D01*
X544Y208D01*
X544Y210D01*
X546Y210D01*
X546Y212D01*
X548Y212D01*
X548Y214D01*
X552Y214D01*
X552Y290D01*
X40Y290D01*
G37*
D02*
G36*
X796Y290D02*
X796Y224D01*
X1512Y224D01*
X1512Y226D01*
X1506Y226D01*
X1506Y228D01*
X1502Y228D01*
X1502Y230D01*
X1498Y230D01*
X1498Y232D01*
X1496Y232D01*
X1496Y234D01*
X1494Y234D01*
X1494Y236D01*
X1490Y236D01*
X1490Y238D01*
X1488Y238D01*
X1488Y242D01*
X1486Y242D01*
X1486Y244D01*
X1484Y244D01*
X1484Y248D01*
X1482Y248D01*
X1482Y250D01*
X1480Y250D01*
X1480Y256D01*
X1478Y256D01*
X1478Y262D01*
X1476Y262D01*
X1476Y282D01*
X1478Y282D01*
X1478Y288D01*
X1480Y288D01*
X1480Y290D01*
X796Y290D01*
G37*
D02*
G36*
X40Y264D02*
X40Y242D01*
X60Y242D01*
X60Y244D01*
X64Y244D01*
X64Y246D01*
X68Y246D01*
X68Y248D01*
X70Y248D01*
X70Y250D01*
X74Y250D01*
X74Y252D01*
X78Y252D01*
X78Y254D01*
X82Y254D01*
X82Y256D01*
X88Y256D01*
X88Y258D01*
X94Y258D01*
X94Y260D01*
X102Y260D01*
X102Y262D01*
X118Y262D01*
X118Y264D01*
X40Y264D01*
G37*
D02*
G36*
X2422Y262D02*
X2422Y256D01*
X2420Y256D01*
X2420Y250D01*
X2418Y250D01*
X2418Y248D01*
X2416Y248D01*
X2416Y244D01*
X2414Y244D01*
X2414Y242D01*
X2412Y242D01*
X2412Y238D01*
X2410Y238D01*
X2410Y236D01*
X2406Y236D01*
X2406Y234D01*
X2404Y234D01*
X2404Y232D01*
X2402Y232D01*
X2402Y230D01*
X2398Y230D01*
X2398Y228D01*
X2394Y228D01*
X2394Y226D01*
X2388Y226D01*
X2388Y224D01*
X2542Y224D01*
X2542Y228D01*
X2544Y228D01*
X2544Y230D01*
X2546Y230D01*
X2546Y232D01*
X2548Y232D01*
X2548Y234D01*
X2552Y234D01*
X2552Y236D01*
X2554Y236D01*
X2554Y238D01*
X2556Y238D01*
X2556Y240D01*
X2558Y240D01*
X2558Y242D01*
X2562Y242D01*
X2562Y244D01*
X2564Y244D01*
X2564Y246D01*
X2568Y246D01*
X2568Y248D01*
X2572Y248D01*
X2572Y250D01*
X2576Y250D01*
X2576Y252D01*
X2580Y252D01*
X2580Y254D01*
X2584Y254D01*
X2584Y256D01*
X2590Y256D01*
X2590Y258D01*
X2596Y258D01*
X2596Y260D01*
X2606Y260D01*
X2606Y262D01*
X2422Y262D01*
G37*
D02*
G36*
X1868Y250D02*
X1868Y248D01*
X1866Y248D01*
X1866Y244D01*
X1864Y244D01*
X1864Y242D01*
X1862Y242D01*
X1862Y238D01*
X1860Y238D01*
X1860Y236D01*
X1856Y236D01*
X1856Y234D01*
X1854Y234D01*
X1854Y232D01*
X1852Y232D01*
X1852Y230D01*
X1848Y230D01*
X1848Y228D01*
X1844Y228D01*
X1844Y226D01*
X1838Y226D01*
X1838Y224D01*
X2162Y224D01*
X2162Y226D01*
X2156Y226D01*
X2156Y228D01*
X2152Y228D01*
X2152Y230D01*
X2148Y230D01*
X2148Y232D01*
X2146Y232D01*
X2146Y234D01*
X2144Y234D01*
X2144Y236D01*
X2140Y236D01*
X2140Y238D01*
X2138Y238D01*
X2138Y242D01*
X2136Y242D01*
X2136Y244D01*
X2134Y244D01*
X2134Y248D01*
X2132Y248D01*
X2132Y250D01*
X1868Y250D01*
G37*
D02*
G36*
X1564Y244D02*
X1564Y242D01*
X1562Y242D01*
X1562Y238D01*
X1560Y238D01*
X1560Y236D01*
X1556Y236D01*
X1556Y234D01*
X1554Y234D01*
X1554Y232D01*
X1552Y232D01*
X1552Y230D01*
X1548Y230D01*
X1548Y228D01*
X1544Y228D01*
X1544Y226D01*
X1538Y226D01*
X1538Y224D01*
X1612Y224D01*
X1612Y226D01*
X1606Y226D01*
X1606Y228D01*
X1602Y228D01*
X1602Y230D01*
X1598Y230D01*
X1598Y232D01*
X1596Y232D01*
X1596Y234D01*
X1594Y234D01*
X1594Y236D01*
X1590Y236D01*
X1590Y238D01*
X1588Y238D01*
X1588Y242D01*
X1586Y242D01*
X1586Y244D01*
X1564Y244D01*
G37*
D02*
G36*
X1664Y244D02*
X1664Y242D01*
X1662Y242D01*
X1662Y238D01*
X1660Y238D01*
X1660Y236D01*
X1656Y236D01*
X1656Y234D01*
X1654Y234D01*
X1654Y232D01*
X1652Y232D01*
X1652Y230D01*
X1648Y230D01*
X1648Y228D01*
X1644Y228D01*
X1644Y226D01*
X1638Y226D01*
X1638Y224D01*
X1712Y224D01*
X1712Y226D01*
X1706Y226D01*
X1706Y228D01*
X1702Y228D01*
X1702Y230D01*
X1698Y230D01*
X1698Y232D01*
X1696Y232D01*
X1696Y234D01*
X1694Y234D01*
X1694Y236D01*
X1690Y236D01*
X1690Y238D01*
X1688Y238D01*
X1688Y242D01*
X1686Y242D01*
X1686Y244D01*
X1664Y244D01*
G37*
D02*
G36*
X1764Y244D02*
X1764Y242D01*
X1762Y242D01*
X1762Y238D01*
X1760Y238D01*
X1760Y236D01*
X1756Y236D01*
X1756Y234D01*
X1754Y234D01*
X1754Y232D01*
X1752Y232D01*
X1752Y230D01*
X1748Y230D01*
X1748Y228D01*
X1744Y228D01*
X1744Y226D01*
X1738Y226D01*
X1738Y224D01*
X1812Y224D01*
X1812Y226D01*
X1806Y226D01*
X1806Y228D01*
X1802Y228D01*
X1802Y230D01*
X1798Y230D01*
X1798Y232D01*
X1796Y232D01*
X1796Y234D01*
X1794Y234D01*
X1794Y236D01*
X1790Y236D01*
X1790Y238D01*
X1788Y238D01*
X1788Y242D01*
X1786Y242D01*
X1786Y244D01*
X1764Y244D01*
G37*
D02*
G36*
X2214Y244D02*
X2214Y242D01*
X2212Y242D01*
X2212Y238D01*
X2210Y238D01*
X2210Y236D01*
X2206Y236D01*
X2206Y234D01*
X2204Y234D01*
X2204Y232D01*
X2202Y232D01*
X2202Y230D01*
X2198Y230D01*
X2198Y228D01*
X2194Y228D01*
X2194Y226D01*
X2188Y226D01*
X2188Y224D01*
X2262Y224D01*
X2262Y226D01*
X2256Y226D01*
X2256Y228D01*
X2252Y228D01*
X2252Y230D01*
X2248Y230D01*
X2248Y232D01*
X2246Y232D01*
X2246Y234D01*
X2244Y234D01*
X2244Y236D01*
X2240Y236D01*
X2240Y238D01*
X2238Y238D01*
X2238Y242D01*
X2236Y242D01*
X2236Y244D01*
X2214Y244D01*
G37*
D02*
G36*
X2314Y244D02*
X2314Y242D01*
X2312Y242D01*
X2312Y238D01*
X2310Y238D01*
X2310Y236D01*
X2306Y236D01*
X2306Y234D01*
X2304Y234D01*
X2304Y232D01*
X2302Y232D01*
X2302Y230D01*
X2298Y230D01*
X2298Y228D01*
X2294Y228D01*
X2294Y226D01*
X2288Y226D01*
X2288Y224D01*
X2362Y224D01*
X2362Y226D01*
X2356Y226D01*
X2356Y228D01*
X2352Y228D01*
X2352Y230D01*
X2348Y230D01*
X2348Y232D01*
X2346Y232D01*
X2346Y234D01*
X2344Y234D01*
X2344Y236D01*
X2340Y236D01*
X2340Y238D01*
X2338Y238D01*
X2338Y242D01*
X2336Y242D01*
X2336Y244D01*
X2314Y244D01*
G37*
D02*
G36*
X796Y224D02*
X796Y222D01*
X2540Y222D01*
X2540Y224D01*
X796Y224D01*
G37*
D02*
G36*
X796Y224D02*
X796Y222D01*
X2540Y222D01*
X2540Y224D01*
X796Y224D01*
G37*
D02*
G36*
X796Y224D02*
X796Y222D01*
X2540Y222D01*
X2540Y224D01*
X796Y224D01*
G37*
D02*
G36*
X796Y224D02*
X796Y222D01*
X2540Y222D01*
X2540Y224D01*
X796Y224D01*
G37*
D02*
G36*
X796Y224D02*
X796Y222D01*
X2540Y222D01*
X2540Y224D01*
X796Y224D01*
G37*
D02*
G36*
X796Y224D02*
X796Y222D01*
X2540Y222D01*
X2540Y224D01*
X796Y224D01*
G37*
D02*
G36*
X796Y224D02*
X796Y222D01*
X2540Y222D01*
X2540Y224D01*
X796Y224D01*
G37*
D02*
G36*
X796Y224D02*
X796Y222D01*
X2540Y222D01*
X2540Y224D01*
X796Y224D01*
G37*
D02*
G36*
X796Y222D02*
X796Y216D01*
X798Y216D01*
X798Y214D01*
X802Y214D01*
X802Y212D01*
X804Y212D01*
X804Y210D01*
X806Y210D01*
X806Y208D01*
X810Y208D01*
X810Y204D01*
X812Y204D01*
X812Y202D01*
X814Y202D01*
X814Y200D01*
X816Y200D01*
X816Y196D01*
X818Y196D01*
X818Y194D01*
X820Y194D01*
X820Y188D01*
X822Y188D01*
X822Y182D01*
X824Y182D01*
X824Y162D01*
X822Y162D01*
X822Y156D01*
X820Y156D01*
X820Y150D01*
X818Y150D01*
X818Y148D01*
X816Y148D01*
X816Y144D01*
X814Y144D01*
X814Y142D01*
X812Y142D01*
X812Y138D01*
X810Y138D01*
X810Y136D01*
X806Y136D01*
X806Y134D01*
X804Y134D01*
X804Y132D01*
X802Y132D01*
X802Y130D01*
X798Y130D01*
X798Y128D01*
X794Y128D01*
X794Y126D01*
X788Y126D01*
X788Y124D01*
X2516Y124D01*
X2516Y128D01*
X2514Y128D01*
X2514Y146D01*
X2512Y146D01*
X2512Y156D01*
X2514Y156D01*
X2514Y172D01*
X2516Y172D01*
X2516Y180D01*
X2518Y180D01*
X2518Y188D01*
X2520Y188D01*
X2520Y192D01*
X2522Y192D01*
X2522Y198D01*
X2524Y198D01*
X2524Y202D01*
X2526Y202D01*
X2526Y206D01*
X2528Y206D01*
X2528Y208D01*
X2530Y208D01*
X2530Y212D01*
X2532Y212D01*
X2532Y214D01*
X2534Y214D01*
X2534Y218D01*
X2536Y218D01*
X2536Y220D01*
X2538Y220D01*
X2538Y222D01*
X796Y222D01*
G37*
D02*
G36*
X614Y144D02*
X614Y142D01*
X612Y142D01*
X612Y138D01*
X610Y138D01*
X610Y136D01*
X606Y136D01*
X606Y134D01*
X604Y134D01*
X604Y132D01*
X602Y132D01*
X602Y130D01*
X598Y130D01*
X598Y128D01*
X594Y128D01*
X594Y126D01*
X588Y126D01*
X588Y124D01*
X662Y124D01*
X662Y126D01*
X656Y126D01*
X656Y128D01*
X652Y128D01*
X652Y130D01*
X648Y130D01*
X648Y132D01*
X646Y132D01*
X646Y134D01*
X644Y134D01*
X644Y136D01*
X640Y136D01*
X640Y140D01*
X638Y140D01*
X638Y142D01*
X636Y142D01*
X636Y144D01*
X614Y144D01*
G37*
D02*
G36*
X714Y144D02*
X714Y142D01*
X712Y142D01*
X712Y138D01*
X710Y138D01*
X710Y136D01*
X706Y136D01*
X706Y134D01*
X704Y134D01*
X704Y132D01*
X702Y132D01*
X702Y130D01*
X698Y130D01*
X698Y128D01*
X694Y128D01*
X694Y126D01*
X688Y126D01*
X688Y124D01*
X762Y124D01*
X762Y126D01*
X756Y126D01*
X756Y128D01*
X752Y128D01*
X752Y130D01*
X748Y130D01*
X748Y132D01*
X746Y132D01*
X746Y134D01*
X744Y134D01*
X744Y136D01*
X740Y136D01*
X740Y140D01*
X738Y140D01*
X738Y142D01*
X736Y142D01*
X736Y144D01*
X714Y144D01*
G37*
D02*
G36*
X234Y124D02*
X234Y122D01*
X2516Y122D01*
X2516Y124D01*
X234Y124D01*
G37*
D02*
G36*
X234Y124D02*
X234Y122D01*
X2516Y122D01*
X2516Y124D01*
X234Y124D01*
G37*
D02*
G36*
X234Y124D02*
X234Y122D01*
X2516Y122D01*
X2516Y124D01*
X234Y124D01*
G37*
D02*
G36*
X234Y124D02*
X234Y122D01*
X2516Y122D01*
X2516Y124D01*
X234Y124D01*
G37*
D02*
G36*
X234Y122D02*
X234Y120D01*
X232Y120D01*
X232Y114D01*
X230Y114D01*
X230Y108D01*
X228Y108D01*
X228Y104D01*
X226Y104D01*
X226Y100D01*
X224Y100D01*
X224Y96D01*
X222Y96D01*
X222Y92D01*
X220Y92D01*
X220Y90D01*
X218Y90D01*
X218Y86D01*
X216Y86D01*
X216Y84D01*
X214Y84D01*
X214Y82D01*
X212Y82D01*
X212Y78D01*
X210Y78D01*
X210Y76D01*
X208Y76D01*
X208Y74D01*
X206Y74D01*
X206Y72D01*
X204Y72D01*
X204Y70D01*
X202Y70D01*
X202Y68D01*
X200Y68D01*
X200Y66D01*
X198Y66D01*
X198Y64D01*
X194Y64D01*
X194Y62D01*
X192Y62D01*
X192Y42D01*
X2558Y42D01*
X2558Y62D01*
X2554Y62D01*
X2554Y64D01*
X2552Y64D01*
X2552Y66D01*
X2550Y66D01*
X2550Y68D01*
X2548Y68D01*
X2548Y70D01*
X2546Y70D01*
X2546Y72D01*
X2544Y72D01*
X2544Y74D01*
X2542Y74D01*
X2542Y76D01*
X2540Y76D01*
X2540Y78D01*
X2538Y78D01*
X2538Y82D01*
X2536Y82D01*
X2536Y84D01*
X2534Y84D01*
X2534Y86D01*
X2532Y86D01*
X2532Y90D01*
X2530Y90D01*
X2530Y92D01*
X2528Y92D01*
X2528Y96D01*
X2526Y96D01*
X2526Y100D01*
X2524Y100D01*
X2524Y104D01*
X2522Y104D01*
X2522Y108D01*
X2520Y108D01*
X2520Y114D01*
X2518Y114D01*
X2518Y120D01*
X2516Y120D01*
X2516Y122D01*
X234Y122D01*
G37*
D02*
G36*
X1168Y784D02*
X1168Y780D01*
X1170Y780D01*
X1170Y764D01*
X1168Y764D01*
X1168Y756D01*
X1166Y756D01*
X1166Y752D01*
X1164Y752D01*
X1164Y748D01*
X1162Y748D01*
X1162Y746D01*
X1160Y746D01*
X1160Y742D01*
X1158Y742D01*
X1158Y740D01*
X1156Y740D01*
X1156Y738D01*
X1152Y738D01*
X1152Y736D01*
X1150Y736D01*
X1150Y734D01*
X1146Y734D01*
X1146Y732D01*
X1144Y732D01*
X1144Y712D01*
X1146Y712D01*
X1146Y710D01*
X1150Y710D01*
X1150Y708D01*
X1152Y708D01*
X1152Y706D01*
X1156Y706D01*
X1156Y704D01*
X1158Y704D01*
X1158Y702D01*
X1160Y702D01*
X1160Y698D01*
X1162Y698D01*
X1162Y696D01*
X1164Y696D01*
X1164Y692D01*
X1166Y692D01*
X1166Y688D01*
X1168Y688D01*
X1168Y680D01*
X1170Y680D01*
X1170Y664D01*
X1168Y664D01*
X1168Y656D01*
X1166Y656D01*
X1166Y652D01*
X1164Y652D01*
X1164Y648D01*
X1162Y648D01*
X1162Y646D01*
X1160Y646D01*
X1160Y642D01*
X1158Y642D01*
X1158Y640D01*
X1156Y640D01*
X1156Y638D01*
X1152Y638D01*
X1152Y636D01*
X1150Y636D01*
X1150Y634D01*
X1146Y634D01*
X1146Y632D01*
X1144Y632D01*
X1144Y612D01*
X1146Y612D01*
X1146Y610D01*
X1150Y610D01*
X1150Y608D01*
X1152Y608D01*
X1152Y606D01*
X1156Y606D01*
X1156Y604D01*
X1158Y604D01*
X1158Y602D01*
X1160Y602D01*
X1160Y598D01*
X1162Y598D01*
X1162Y596D01*
X1164Y596D01*
X1164Y594D01*
X1254Y594D01*
X1254Y616D01*
X1252Y616D01*
X1252Y622D01*
X1250Y622D01*
X1250Y626D01*
X1248Y626D01*
X1248Y632D01*
X1246Y632D01*
X1246Y636D01*
X1244Y636D01*
X1244Y642D01*
X1242Y642D01*
X1242Y646D01*
X1240Y646D01*
X1240Y652D01*
X1238Y652D01*
X1238Y656D01*
X1236Y656D01*
X1236Y662D01*
X1234Y662D01*
X1234Y666D01*
X1232Y666D01*
X1232Y672D01*
X1230Y672D01*
X1230Y678D01*
X1228Y678D01*
X1228Y682D01*
X1226Y682D01*
X1226Y688D01*
X1224Y688D01*
X1224Y692D01*
X1222Y692D01*
X1222Y698D01*
X1220Y698D01*
X1220Y702D01*
X1218Y702D01*
X1218Y708D01*
X1216Y708D01*
X1216Y712D01*
X1214Y712D01*
X1214Y718D01*
X1212Y718D01*
X1212Y724D01*
X1210Y724D01*
X1210Y728D01*
X1208Y728D01*
X1208Y734D01*
X1206Y734D01*
X1206Y738D01*
X1204Y738D01*
X1204Y744D01*
X1202Y744D01*
X1202Y748D01*
X1200Y748D01*
X1200Y754D01*
X1198Y754D01*
X1198Y758D01*
X1196Y758D01*
X1196Y764D01*
X1194Y764D01*
X1194Y768D01*
X1192Y768D01*
X1192Y774D01*
X1190Y774D01*
X1190Y780D01*
X1188Y780D01*
X1188Y784D01*
X1168Y784D01*
G37*
D02*
G36*
X1306Y516D02*
X1341Y516D01*
X1341Y484D01*
X1306Y484D01*
X1306Y516D01*
G37*
D02*
G36*
X2404Y516D02*
X2439Y516D01*
X2439Y484D01*
X2404Y484D01*
X2404Y516D01*
G37*
D02*
G36*
X2430Y542D02*
X2464Y542D01*
X2464Y507D01*
X2430Y507D01*
X2430Y542D01*
G37*
D02*
G36*
X1142Y1295D02*
X1170Y1295D01*
X1170Y1254D01*
X1142Y1254D01*
X1142Y1295D01*
G37*
D02*
G36*
X1699Y324D02*
X1744Y324D01*
X1744Y294D01*
X1699Y294D01*
X1699Y324D01*
G37*
D02*
G36*
X1699Y256D02*
X1744Y256D01*
X1744Y224D01*
X1699Y224D01*
X1699Y256D01*
G37*
D02*
G36*
X2349Y324D02*
X2394Y324D01*
X2394Y294D01*
X2349Y294D01*
X2349Y324D01*
G37*
D02*
G36*
X2349Y256D02*
X2394Y256D01*
X2394Y224D01*
X2349Y224D01*
X2349Y256D01*
G37*
D02*
G36*
X2390Y297D02*
X2424Y297D01*
X2424Y252D01*
X2390Y252D01*
X2390Y297D01*
G37*
D02*
G36*
X2640Y747D02*
X2674Y747D01*
X2674Y702D01*
X2640Y702D01*
X2640Y747D01*
G37*
D02*
G36*
X2640Y997D02*
X2674Y997D01*
X2674Y952D01*
X2640Y952D01*
X2640Y997D01*
G37*
D02*
G36*
X2599Y1274D02*
X2644Y1274D01*
X2644Y1244D01*
X2599Y1244D01*
X2599Y1274D01*
G37*
D02*
G36*
X2572Y1247D02*
X2602Y1247D01*
X2602Y1202D01*
X2572Y1202D01*
X2572Y1247D01*
G37*
D02*
G36*
X2640Y1247D02*
X2674Y1247D01*
X2674Y1202D01*
X2640Y1202D01*
X2640Y1247D01*
G37*
D02*
G36*
X651Y156D02*
X696Y156D01*
X696Y124D01*
X651Y124D01*
X651Y156D01*
G37*
D02*
G04 End of Copper1*
M02*