G04 MADE WITH FRITZING*
G04 WWW.FRITZING.ORG*
G04 DOUBLE SIDED*
G04 HOLES PLATED*
G04 CONTOUR ON CENTER OF CONTOUR VECTOR*
%ASAXBY*%
%FSLAX23Y23*%
%MOIN*%
%OFA0B0*%
%SFA1.0B1.0*%
%ADD10C,0.067621*%
%ADD11C,0.148425*%
%ADD12C,0.080000*%
%ADD13C,0.088000*%
%ADD14C,0.214725*%
%ADD15C,0.049370*%
%ADD16R,0.069055X0.063150*%
%ADD17R,0.065118X0.049370*%
%ADD18R,0.049370X0.061181*%
%ADD19R,0.039528X0.069055*%
%LNMASK0*%
G90*
G70*
G54D10*
X1325Y1422D03*
X1325Y1322D03*
X1325Y1222D03*
X1325Y1122D03*
X1325Y1022D03*
X1325Y922D03*
X1325Y822D03*
X1325Y722D03*
X1325Y522D03*
X1325Y622D03*
X1425Y1422D03*
X1425Y1322D03*
X1425Y1222D03*
X1425Y1122D03*
X1425Y1022D03*
X1425Y922D03*
X1425Y822D03*
X1425Y722D03*
X1425Y622D03*
X1425Y522D03*
X2325Y1422D03*
X2325Y1322D03*
X2325Y1222D03*
X2325Y1122D03*
X2325Y1022D03*
X2325Y922D03*
X2325Y822D03*
X2325Y722D03*
X2325Y622D03*
X2325Y522D03*
X2425Y1422D03*
X2425Y1322D03*
X2425Y1222D03*
X2425Y1122D03*
X2425Y1022D03*
X2425Y922D03*
X2425Y822D03*
X2425Y722D03*
X2425Y622D03*
X2425Y522D03*
G54D11*
X1125Y372D03*
X325Y372D03*
G54D12*
X325Y672D03*
X325Y772D03*
X325Y872D03*
G54D11*
X1125Y1672D03*
G54D12*
X325Y972D03*
G54D11*
X325Y1672D03*
G54D12*
X325Y1072D03*
X325Y1172D03*
X1125Y572D03*
X1125Y672D03*
X1125Y772D03*
X1125Y872D03*
X1125Y972D03*
X1125Y1072D03*
X1125Y1172D03*
X1125Y1272D03*
X1125Y1372D03*
G54D13*
X2625Y1222D03*
X2625Y1122D03*
X2625Y972D03*
X2625Y872D03*
X2625Y722D03*
X2625Y622D03*
X575Y172D03*
X675Y172D03*
X775Y172D03*
G54D14*
X125Y151D03*
X125Y1635D03*
X2625Y150D03*
X2625Y1636D03*
G54D15*
X1925Y922D03*
X1725Y972D03*
G54D13*
X1525Y272D03*
X1625Y272D03*
X1725Y272D03*
X1825Y272D03*
X2175Y272D03*
X2275Y272D03*
X2375Y272D03*
G54D16*
X1612Y1675D03*
X2149Y1714D03*
G54D17*
X1606Y1556D03*
G54D18*
X1629Y1074D03*
G54D19*
X1682Y1072D03*
X1725Y1072D03*
X1768Y1072D03*
X1812Y1072D03*
X1855Y1072D03*
X1898Y1072D03*
X1942Y1072D03*
X1985Y1072D03*
G04 End of Mask0*
M02*