G04 MADE WITH FRITZING*
G04 WWW.FRITZING.ORG*
G04 DOUBLE SIDED*
G04 HOLES PLATED*
G04 CONTOUR ON CENTER OF CONTOUR VECTOR*
%ASAXBY*%
%FSLAX23Y23*%
%MOIN*%
%OFA0B0*%
%SFA1.0B1.0*%
%ADD10R,2.755910X1.771650X2.739910X1.755650*%
%ADD11C,0.008000*%
%ADD12R,0.001000X0.001000*%
%LNSILK0*%
G90*
G70*
G54D11*
X4Y1768D02*
X2752Y1768D01*
X2752Y4D01*
X4Y4D01*
X4Y1768D01*
D02*
X1594Y1517D02*
X1594Y1064D01*
D02*
X2016Y1064D02*
X2167Y1064D01*
D02*
X2167Y1064D02*
X2167Y1666D01*
D02*
X2095Y1733D02*
X2016Y1733D01*
D02*
X2016Y1733D02*
X2016Y1668D01*
D02*
X1701Y1668D02*
X1701Y1694D01*
D02*
X1701Y1694D02*
X1662Y1694D01*
D02*
X1594Y1591D02*
X1594Y1631D01*
G54D12*
X1486Y1772D02*
X1519Y1772D01*
X1537Y1772D02*
X1567Y1772D01*
X1486Y1771D02*
X1519Y1771D01*
X1538Y1771D02*
X1566Y1771D01*
X1487Y1770D02*
X1519Y1770D01*
X1539Y1770D02*
X1565Y1770D01*
X1488Y1769D02*
X1518Y1769D01*
X1541Y1769D02*
X1564Y1769D01*
X1490Y1768D02*
X1517Y1768D01*
X1543Y1768D02*
X1562Y1768D01*
X1703Y1672D02*
X1703Y1672D01*
X1702Y1671D02*
X1704Y1671D01*
X2011Y1671D02*
X2013Y1671D01*
X1702Y1670D02*
X1706Y1670D01*
X2010Y1670D02*
X2014Y1670D01*
X1701Y1669D02*
X1707Y1669D01*
X2008Y1669D02*
X2015Y1669D01*
X1700Y1668D02*
X1709Y1668D01*
X2007Y1668D02*
X2015Y1668D01*
X1699Y1667D02*
X1710Y1667D01*
X2005Y1667D02*
X2016Y1667D01*
X1699Y1666D02*
X1712Y1666D01*
X2004Y1666D02*
X2017Y1666D01*
X1700Y1665D02*
X1713Y1665D01*
X2002Y1665D02*
X2016Y1665D01*
X1701Y1664D02*
X1715Y1664D01*
X2001Y1664D02*
X2014Y1664D01*
X1703Y1663D02*
X1717Y1663D01*
X1999Y1663D02*
X2013Y1663D01*
X1704Y1662D02*
X1718Y1662D01*
X1997Y1662D02*
X2011Y1662D01*
X1706Y1661D02*
X1720Y1661D01*
X1996Y1661D02*
X2010Y1661D01*
X1707Y1660D02*
X1722Y1660D01*
X1994Y1660D02*
X2008Y1660D01*
X1709Y1659D02*
X1723Y1659D01*
X1992Y1659D02*
X2007Y1659D01*
X1710Y1658D02*
X1725Y1658D01*
X1990Y1658D02*
X2005Y1658D01*
X1712Y1657D02*
X1727Y1657D01*
X1989Y1657D02*
X2003Y1657D01*
X1714Y1656D02*
X1729Y1656D01*
X1987Y1656D02*
X2002Y1656D01*
X1715Y1655D02*
X1731Y1655D01*
X1985Y1655D02*
X2000Y1655D01*
X1717Y1654D02*
X1733Y1654D01*
X1983Y1654D02*
X1999Y1654D01*
X1719Y1653D02*
X1735Y1653D01*
X1981Y1653D02*
X1997Y1653D01*
X1721Y1652D02*
X1737Y1652D01*
X1979Y1652D02*
X1995Y1652D01*
X1722Y1651D02*
X1738Y1651D01*
X1977Y1651D02*
X1993Y1651D01*
X1724Y1650D02*
X1741Y1650D01*
X1975Y1650D02*
X1991Y1650D01*
X1726Y1649D02*
X1743Y1649D01*
X1973Y1649D02*
X1990Y1649D01*
X1728Y1648D02*
X1745Y1648D01*
X1971Y1648D02*
X1988Y1648D01*
X1730Y1647D02*
X1747Y1647D01*
X1968Y1647D02*
X1986Y1647D01*
X1732Y1646D02*
X1749Y1646D01*
X1966Y1646D02*
X1984Y1646D01*
X1734Y1645D02*
X1752Y1645D01*
X1964Y1645D02*
X1982Y1645D01*
X1736Y1644D02*
X1754Y1644D01*
X1961Y1644D02*
X1980Y1644D01*
X1738Y1643D02*
X1757Y1643D01*
X1959Y1643D02*
X1978Y1643D01*
X1740Y1642D02*
X1759Y1642D01*
X1956Y1642D02*
X1975Y1642D01*
X1742Y1641D02*
X1762Y1641D01*
X1954Y1641D02*
X1973Y1641D01*
X1744Y1640D02*
X1765Y1640D01*
X1951Y1640D02*
X1971Y1640D01*
X1747Y1639D02*
X1767Y1639D01*
X1948Y1639D02*
X1969Y1639D01*
X1749Y1638D02*
X1770Y1638D01*
X1945Y1638D02*
X1966Y1638D01*
X1752Y1637D02*
X1773Y1637D01*
X1942Y1637D02*
X1964Y1637D01*
X1754Y1636D02*
X1776Y1636D01*
X1939Y1636D02*
X1962Y1636D01*
X1756Y1635D02*
X1780Y1635D01*
X1936Y1635D02*
X1959Y1635D01*
X1759Y1634D02*
X1783Y1634D01*
X1932Y1634D02*
X1956Y1634D01*
X1762Y1633D02*
X1787Y1633D01*
X1929Y1633D02*
X1954Y1633D01*
X1765Y1632D02*
X1791Y1632D01*
X1925Y1632D02*
X1951Y1632D01*
X1768Y1631D02*
X1795Y1631D01*
X1921Y1631D02*
X1948Y1631D01*
X1771Y1630D02*
X1799Y1630D01*
X1917Y1630D02*
X1945Y1630D01*
X1774Y1629D02*
X1804Y1629D01*
X1912Y1629D02*
X1942Y1629D01*
X1777Y1628D02*
X1809Y1628D01*
X1907Y1628D02*
X1939Y1628D01*
X1780Y1627D02*
X1815Y1627D01*
X1901Y1627D02*
X1935Y1627D01*
X1784Y1626D02*
X1822Y1626D01*
X1894Y1626D02*
X1932Y1626D01*
X1788Y1625D02*
X1830Y1625D01*
X1885Y1625D02*
X1928Y1625D01*
X1792Y1624D02*
X1844Y1624D01*
X1872Y1624D02*
X1924Y1624D01*
X1796Y1623D02*
X1920Y1623D01*
X1800Y1622D02*
X1915Y1622D01*
X1805Y1621D02*
X1910Y1621D01*
X1811Y1620D02*
X1904Y1620D01*
X1817Y1619D02*
X1898Y1619D01*
X1825Y1618D02*
X1891Y1618D01*
X1835Y1617D02*
X1881Y1617D01*
X1857Y1616D02*
X1858Y1616D01*
D02*
G04 End of Silk0*
M02*