%TF.GenerationSoftware,KiCad,Pcbnew,5.1.9-73d0e3b20d~88~ubuntu18.04.1*%
%TF.CreationDate,2021-01-11T01:03:34+01:00*%
%TF.ProjectId,mp3alarm,6d703361-6c61-4726-9d2e-6b696361645f,v0.2*%
%TF.SameCoordinates,Original*%
%TF.FileFunction,Soldermask,Bot*%
%TF.FilePolarity,Negative*%
%FSLAX46Y46*%
G04 Gerber Fmt 4.6, Leading zero omitted, Abs format (unit mm)*
G04 Created by KiCad (PCBNEW 5.1.9-73d0e3b20d~88~ubuntu18.04.1) date 2021-01-11 01:03:34*
%MOMM*%
%LPD*%
G01*
G04 APERTURE LIST*
%ADD10R,3.150000X1.000000*%
%ADD11R,2.540000X1.270000*%
%ADD12C,3.200000*%
%ADD13C,1.400000*%
%ADD14R,1.700000X1.700000*%
%ADD15O,1.700000X1.700000*%
%ADD16C,1.524000*%
G04 APERTURE END LIST*
D10*
%TO.C,JTAG*%
X63007000Y-101346000D03*
X68057000Y-101346000D03*
X63007000Y-98806000D03*
X68057000Y-98806000D03*
X63007000Y-96266000D03*
X68057000Y-96266000D03*
X63007000Y-93726000D03*
X68057000Y-93726000D03*
X63007000Y-91186000D03*
X68057000Y-91186000D03*
%TD*%
D11*
%TO.C,U3*%
X72390000Y-78970000D03*
X72390000Y-81170000D03*
X72390000Y-83370000D03*
X72390000Y-85570000D03*
X72390000Y-87770000D03*
X61390000Y-78970000D03*
X61390000Y-81170000D03*
X61390000Y-83370000D03*
X61390000Y-85570000D03*
X61390000Y-87770000D03*
%TD*%
D12*
%TO.C,REF\u002A\u002A*%
X46990000Y-104140000D03*
%TD*%
%TO.C,REF\u002A\u002A*%
X107950000Y-104140000D03*
%TD*%
%TO.C,REF\u002A\u002A*%
X107950000Y-64770000D03*
%TD*%
%TO.C,REF\u002A\u002A*%
X46990000Y-64770000D03*
%TD*%
D13*
%TO.C,U2*%
X80010000Y-100330000D03*
X77470000Y-100330000D03*
X80010000Y-97790000D03*
X77470000Y-97790000D03*
X80010000Y-95250000D03*
X77470000Y-95250000D03*
X80010000Y-92710000D03*
X77470000Y-92710000D03*
X80010000Y-90170000D03*
X77470000Y-90170000D03*
X80010000Y-87630000D03*
X77470000Y-87630000D03*
X80010000Y-85090000D03*
X77470000Y-85090000D03*
X80010000Y-82550000D03*
X77470000Y-82550000D03*
X80010000Y-80010000D03*
X77470000Y-80010000D03*
X80010000Y-77470000D03*
X77470000Y-77470000D03*
X54610000Y-100330000D03*
X52070000Y-100330000D03*
X54610000Y-97790000D03*
X52070000Y-97790000D03*
X54610000Y-95250000D03*
X52070000Y-95250000D03*
X54610000Y-92710000D03*
X52070000Y-92710000D03*
X54610000Y-90170000D03*
X52070000Y-90170000D03*
X54610000Y-87630000D03*
X52070000Y-87630000D03*
X54610000Y-85090000D03*
X52070000Y-85090000D03*
X54610000Y-82550000D03*
X52070000Y-82550000D03*
X54610000Y-80010000D03*
X52070000Y-80010000D03*
X52070000Y-77470000D03*
X54610000Y-77470000D03*
%TD*%
D14*
%TO.C,J2*%
X46990000Y-97790000D03*
D15*
X46990000Y-95250000D03*
%TD*%
%TO.C,J3*%
X46990000Y-87630000D03*
D14*
X46990000Y-90170000D03*
%TD*%
%TO.C,J4*%
X46990000Y-82550000D03*
D15*
X46990000Y-80010000D03*
%TD*%
%TO.C,J5*%
X66040000Y-64770000D03*
X68580000Y-64770000D03*
X71120000Y-64770000D03*
D14*
X73660000Y-64770000D03*
%TD*%
%TO.C,J6*%
X86360000Y-64770000D03*
D15*
X83820000Y-64770000D03*
X81280000Y-64770000D03*
X78740000Y-64770000D03*
%TD*%
D16*
%TO.C,U1*%
X86106000Y-76454000D03*
X86106000Y-78994000D03*
X86106000Y-81534000D03*
X86106000Y-84074000D03*
X86106000Y-86614000D03*
X86106000Y-89154000D03*
X86106000Y-91694000D03*
X86106000Y-94234000D03*
X86106000Y-96774000D03*
X106426000Y-78994000D03*
X106426000Y-81534000D03*
X106426000Y-84074000D03*
X106426000Y-86614000D03*
X106426000Y-89154000D03*
X106426000Y-91694000D03*
%TD*%
D14*
%TO.C,J1*%
X92710000Y-64770000D03*
D15*
X95250000Y-64770000D03*
X97790000Y-64770000D03*
%TD*%
D14*
%TO.C,J9*%
X60960000Y-64770000D03*
%TD*%
%TO.C,J8*%
X46990000Y-71628000D03*
D15*
X46990000Y-74168000D03*
%TD*%
M02*
