M48
; DRILL file {KiCad 7.0.2-6a45011f42~172~ubuntu22.04.1} date Sun 07 May 2023 23:46:37 CEST
; FORMAT={-:-/ absolute / inch / decimal}
; #@! TF.CreationDate,2023-05-07T23:46:37+02:00
; #@! TF.GenerationSoftware,Kicad,Pcbnew,7.0.2-6a45011f42~172~ubuntu22.04.1
; #@! TF.FileFunction,Plated,1,2,PTH
FMAT,2
INCH
; #@! TA.AperFunction,Plated,PTH,ViaDrill
T1C0.0157
; #@! TA.AperFunction,Plated,PTH,ComponentDrill
T2C0.0197
; #@! TA.AperFunction,Plated,PTH,ComponentDrill
T3C0.0300
; #@! TA.AperFunction,Plated,PTH,ComponentDrill
T4C0.0315
; #@! TA.AperFunction,Plated,PTH,ComponentDrill
T5C0.0394
; #@! TA.AperFunction,Plated,PTH,ComponentDrill
T6C0.1181
; #@! TA.AperFunction,Plated,PTH,ComponentDrill
T7C0.1260
%
G90
G05
T1
X1.95Y-3.33
X1.95Y-3.63
X1.95Y-3.93
X2.06Y-2.71
X2.2023Y-4.0478
X2.24Y-2.53
X2.24Y-2.92
X2.24Y-3.38
X2.41Y-3.49
X2.41Y-3.63
X2.44Y-2.69
X2.5Y-2.88
X2.52Y-4.09
X2.53Y-3.31
X2.56Y-4.2107
X2.62Y-3.22
X2.63Y-4.18
X2.64Y-3.11
X2.6601Y-4.0799
X2.7Y-4.1
X2.87Y-2.9343
X3.24Y-3.38
X3.25Y-3.5193
X3.29Y-3.46
X3.31Y-3.28
X3.33Y-3.92
X3.44Y-3.17
X3.54Y-3.4
X3.58Y-3.33
X3.59Y-4.02
X3.64Y-2.77
X3.65Y-3.98
X4.08Y-3.68
T2
X2.2926Y-2.9327
X2.3674Y-2.9327
T3
X3.39Y-3.01
X3.39Y-3.11
X3.39Y-3.21
X3.39Y-3.31
X3.39Y-3.41
X3.39Y-3.51
X3.39Y-3.61
X3.39Y-3.71
X3.39Y-3.81
X4.19Y-3.11
X4.19Y-3.21
X4.19Y-3.31
X4.19Y-3.41
X4.19Y-3.51
X4.19Y-3.61
T4
X2.05Y-3.05
X2.05Y-3.15
X2.05Y-3.25
X2.05Y-3.35
X2.05Y-3.45
X2.05Y-3.55
X2.05Y-3.65
X2.05Y-3.75
X2.05Y-3.85
X2.05Y-3.95
X2.15Y-3.05
X2.15Y-3.15
X2.15Y-3.25
X2.15Y-3.35
X2.15Y-3.45
X2.15Y-3.55
X2.15Y-3.65
X2.15Y-3.75
X2.15Y-3.85
X2.15Y-3.95
X3.05Y-3.05
X3.05Y-3.15
X3.05Y-3.25
X3.05Y-3.35
X3.05Y-3.45
X3.05Y-3.55
X3.05Y-3.65
X3.05Y-3.75
X3.05Y-3.85
X3.05Y-3.95
X3.15Y-3.05
X3.15Y-3.15
X3.15Y-3.25
X3.15Y-3.35
X3.15Y-3.45
X3.15Y-3.55
X3.15Y-3.65
X3.15Y-3.75
X3.15Y-3.85
X3.15Y-3.95
T5
X1.83Y-2.82
X1.83Y-2.92
X1.83Y-3.15
X1.83Y-3.25
X1.83Y-3.45
X1.83Y-3.55
X1.83Y-3.75
X1.83Y-3.85
X2.4Y-2.27
X3.0622Y-2.55
X3.1622Y-2.55
X3.2622Y-2.55
X3.3622Y-2.55
X3.5275Y-2.55
X3.6275Y-2.55
X3.7275Y-2.55
X3.8275Y-2.55
X4.0Y-2.55
X4.1Y-2.55
X4.2Y-2.55
T6
X2.568Y-2.278
X2.568Y-2.602
X2.73Y-2.44
X2.892Y-2.278
X2.892Y-2.602
T7
X1.8898Y-2.2835
X1.8898Y-4.0945
X4.2126Y-2.2835
X4.2126Y-4.0945
T0
M30
