%TF.GenerationSoftware,KiCad,Pcbnew,6.0.10-86aedd382b~118~ubuntu22.04.1*%
%TF.CreationDate,2023-01-08T15:51:37+01:00*%
%TF.ProjectId,mp3alarm,6d703361-6c61-4726-9d2e-6b696361645f,v0.2*%
%TF.SameCoordinates,Original*%
%TF.FileFunction,Legend,Bot*%
%TF.FilePolarity,Positive*%
%FSLAX46Y46*%
G04 Gerber Fmt 4.6, Leading zero omitted, Abs format (unit mm)*
G04 Created by KiCad (PCBNEW 6.0.10-86aedd382b~118~ubuntu22.04.1) date 2023-01-08 15:51:37*
%MOMM*%
%LPD*%
G01*
G04 APERTURE LIST*
%ADD10C,0.150000*%
%ADD11C,0.228600*%
%ADD12C,0.127000*%
%ADD13C,0.120000*%
G04 APERTURE END LIST*
D10*
X92225714Y-104084380D02*
X92225714Y-103084380D01*
X91654285Y-104084380D01*
X91654285Y-103084380D01*
X90606666Y-103989142D02*
X90654285Y-104036761D01*
X90797142Y-104084380D01*
X90892380Y-104084380D01*
X91035238Y-104036761D01*
X91130476Y-103941523D01*
X91178095Y-103846285D01*
X91225714Y-103655809D01*
X91225714Y-103512952D01*
X91178095Y-103322476D01*
X91130476Y-103227238D01*
X91035238Y-103132000D01*
X90892380Y-103084380D01*
X90797142Y-103084380D01*
X90654285Y-103132000D01*
X90606666Y-103179619D01*
X105917904Y-95512000D02*
X106013142Y-95464380D01*
X106156000Y-95464380D01*
X106298857Y-95512000D01*
X106394095Y-95607238D01*
X106441714Y-95702476D01*
X106489333Y-95892952D01*
X106489333Y-96035809D01*
X106441714Y-96226285D01*
X106394095Y-96321523D01*
X106298857Y-96416761D01*
X106156000Y-96464380D01*
X106060761Y-96464380D01*
X105917904Y-96416761D01*
X105870285Y-96369142D01*
X105870285Y-96035809D01*
X106060761Y-96035809D01*
X105441714Y-96464380D02*
X105441714Y-95464380D01*
X104870285Y-96464380D01*
X104870285Y-95464380D01*
X104394095Y-96464380D02*
X104394095Y-95464380D01*
X104156000Y-95464380D01*
X104013142Y-95512000D01*
X103917904Y-95607238D01*
X103870285Y-95702476D01*
X103822666Y-95892952D01*
X103822666Y-96035809D01*
X103870285Y-96226285D01*
X103917904Y-96321523D01*
X104013142Y-96416761D01*
X104156000Y-96464380D01*
X104394095Y-96464380D01*
D11*
X64370857Y-69136380D02*
X64370857Y-69813714D01*
X65435238Y-70104000D02*
X65435238Y-69136380D01*
X63403238Y-69136380D01*
X63403238Y-70104000D01*
X65338476Y-70878095D02*
X65435238Y-71168380D01*
X65435238Y-71652190D01*
X65338476Y-71845714D01*
X65241714Y-71942476D01*
X65048190Y-72039238D01*
X64854666Y-72039238D01*
X64661142Y-71942476D01*
X64564380Y-71845714D01*
X64467619Y-71652190D01*
X64370857Y-71265142D01*
X64274095Y-71071619D01*
X64177333Y-70974857D01*
X63983809Y-70878095D01*
X63790285Y-70878095D01*
X63596761Y-70974857D01*
X63500000Y-71071619D01*
X63403238Y-71265142D01*
X63403238Y-71748952D01*
X63500000Y-72039238D01*
X65435238Y-72910095D02*
X63403238Y-72910095D01*
X63403238Y-73684190D01*
X63500000Y-73877714D01*
X63596761Y-73974476D01*
X63790285Y-74071238D01*
X64080571Y-74071238D01*
X64274095Y-73974476D01*
X64370857Y-73877714D01*
X64467619Y-73684190D01*
X64467619Y-72910095D01*
X63403238Y-74748571D02*
X63403238Y-76006476D01*
X64177333Y-75329142D01*
X64177333Y-75619428D01*
X64274095Y-75812952D01*
X64370857Y-75909714D01*
X64564380Y-76006476D01*
X65048190Y-76006476D01*
X65241714Y-75909714D01*
X65338476Y-75812952D01*
X65435238Y-75619428D01*
X65435238Y-75038857D01*
X65338476Y-74845333D01*
X65241714Y-74748571D01*
X63596761Y-76780571D02*
X63500000Y-76877333D01*
X63403238Y-77070857D01*
X63403238Y-77554666D01*
X63500000Y-77748190D01*
X63596761Y-77844952D01*
X63790285Y-77941714D01*
X63983809Y-77941714D01*
X64274095Y-77844952D01*
X65435238Y-76683809D01*
X65435238Y-77941714D01*
X65435238Y-81231619D02*
X64370857Y-81231619D01*
X64177333Y-81134857D01*
X64080571Y-80941333D01*
X64080571Y-80554285D01*
X64177333Y-80360761D01*
X65338476Y-81231619D02*
X65435238Y-81038095D01*
X65435238Y-80554285D01*
X65338476Y-80360761D01*
X65144952Y-80264000D01*
X64951428Y-80264000D01*
X64757904Y-80360761D01*
X64661142Y-80554285D01*
X64661142Y-81038095D01*
X64564380Y-81231619D01*
X65435238Y-82489523D02*
X65338476Y-82296000D01*
X65144952Y-82199238D01*
X63403238Y-82199238D01*
X65435238Y-84134476D02*
X64370857Y-84134476D01*
X64177333Y-84037714D01*
X64080571Y-83844190D01*
X64080571Y-83457142D01*
X64177333Y-83263619D01*
X65338476Y-84134476D02*
X65435238Y-83940952D01*
X65435238Y-83457142D01*
X65338476Y-83263619D01*
X65144952Y-83166857D01*
X64951428Y-83166857D01*
X64757904Y-83263619D01*
X64661142Y-83457142D01*
X64661142Y-83940952D01*
X64564380Y-84134476D01*
X65435238Y-85102095D02*
X64080571Y-85102095D01*
X64467619Y-85102095D02*
X64274095Y-85198857D01*
X64177333Y-85295619D01*
X64080571Y-85489142D01*
X64080571Y-85682666D01*
X65435238Y-86360000D02*
X64080571Y-86360000D01*
X64274095Y-86360000D02*
X64177333Y-86456761D01*
X64080571Y-86650285D01*
X64080571Y-86940571D01*
X64177333Y-87134095D01*
X64370857Y-87230857D01*
X65435238Y-87230857D01*
X64370857Y-87230857D02*
X64177333Y-87327619D01*
X64080571Y-87521142D01*
X64080571Y-87811428D01*
X64177333Y-88004952D01*
X64370857Y-88101714D01*
X65435238Y-88101714D01*
X65338476Y-91488380D02*
X65435238Y-91294857D01*
X65435238Y-90907809D01*
X65338476Y-90714285D01*
X65241714Y-90617523D01*
X65048190Y-90520761D01*
X64467619Y-90520761D01*
X64274095Y-90617523D01*
X64177333Y-90714285D01*
X64080571Y-90907809D01*
X64080571Y-91294857D01*
X64177333Y-91488380D01*
X65435238Y-92649523D02*
X65338476Y-92456000D01*
X65144952Y-92359238D01*
X63403238Y-92359238D01*
X65435238Y-93713904D02*
X65338476Y-93520380D01*
X65241714Y-93423619D01*
X65048190Y-93326857D01*
X64467619Y-93326857D01*
X64274095Y-93423619D01*
X64177333Y-93520380D01*
X64080571Y-93713904D01*
X64080571Y-94004190D01*
X64177333Y-94197714D01*
X64274095Y-94294476D01*
X64467619Y-94391238D01*
X65048190Y-94391238D01*
X65241714Y-94294476D01*
X65338476Y-94197714D01*
X65435238Y-94004190D01*
X65435238Y-93713904D01*
X65338476Y-96132952D02*
X65435238Y-95939428D01*
X65435238Y-95552380D01*
X65338476Y-95358857D01*
X65241714Y-95262095D01*
X65048190Y-95165333D01*
X64467619Y-95165333D01*
X64274095Y-95262095D01*
X64177333Y-95358857D01*
X64080571Y-95552380D01*
X64080571Y-95939428D01*
X64177333Y-96132952D01*
X65435238Y-97003809D02*
X63403238Y-97003809D01*
X64661142Y-97197333D02*
X65435238Y-97777904D01*
X64080571Y-97777904D02*
X64854666Y-97003809D01*
X64080571Y-100003428D02*
X65435238Y-100487238D01*
X64080571Y-100971047D01*
X63403238Y-102132190D02*
X63403238Y-102325714D01*
X63500000Y-102519238D01*
X63596761Y-102616000D01*
X63790285Y-102712761D01*
X64177333Y-102809523D01*
X64661142Y-102809523D01*
X65048190Y-102712761D01*
X65241714Y-102616000D01*
X65338476Y-102519238D01*
X65435238Y-102325714D01*
X65435238Y-102132190D01*
X65338476Y-101938666D01*
X65241714Y-101841904D01*
X65048190Y-101745142D01*
X64661142Y-101648380D01*
X64177333Y-101648380D01*
X63790285Y-101745142D01*
X63596761Y-101841904D01*
X63500000Y-101938666D01*
X63403238Y-102132190D01*
X65241714Y-103680380D02*
X65338476Y-103777142D01*
X65435238Y-103680380D01*
X65338476Y-103583619D01*
X65241714Y-103680380D01*
X65435238Y-103680380D01*
X64080571Y-105518857D02*
X65435238Y-105518857D01*
X63306476Y-105035047D02*
X64757904Y-104551238D01*
X64757904Y-105809142D01*
D10*
X92265333Y-92924380D02*
X91693904Y-92924380D01*
X91979619Y-93924380D02*
X91979619Y-92924380D01*
X91360571Y-93924380D02*
X91360571Y-92924380D01*
X91027238Y-93638666D01*
X90693904Y-92924380D01*
X90693904Y-93924380D01*
X90265333Y-93876761D02*
X90122476Y-93924380D01*
X89884380Y-93924380D01*
X89789142Y-93876761D01*
X89741523Y-93829142D01*
X89693904Y-93733904D01*
X89693904Y-93638666D01*
X89741523Y-93543428D01*
X89789142Y-93495809D01*
X89884380Y-93448190D01*
X90074857Y-93400571D01*
X90170095Y-93352952D01*
X90217714Y-93305333D01*
X90265333Y-93210095D01*
X90265333Y-93114857D01*
X90217714Y-93019619D01*
X90170095Y-92972000D01*
X90074857Y-92924380D01*
X89836761Y-92924380D01*
X89693904Y-92972000D01*
X92217714Y-95718380D02*
X91646285Y-95718380D01*
X91932000Y-96718380D02*
X91932000Y-95718380D01*
X90741523Y-96623142D02*
X90789142Y-96670761D01*
X90932000Y-96718380D01*
X91027238Y-96718380D01*
X91170095Y-96670761D01*
X91265333Y-96575523D01*
X91312952Y-96480285D01*
X91360571Y-96289809D01*
X91360571Y-96146952D01*
X91312952Y-95956476D01*
X91265333Y-95861238D01*
X91170095Y-95766000D01*
X91027238Y-95718380D01*
X90932000Y-95718380D01*
X90789142Y-95766000D01*
X90741523Y-95813619D01*
X90312952Y-96718380D02*
X90312952Y-95718380D01*
X89741523Y-96718380D02*
X90170095Y-96146952D01*
X89741523Y-95718380D02*
X90312952Y-96289809D01*
X105917904Y-100846000D02*
X106013142Y-100798380D01*
X106156000Y-100798380D01*
X106298857Y-100846000D01*
X106394095Y-100941238D01*
X106441714Y-101036476D01*
X106489333Y-101226952D01*
X106489333Y-101369809D01*
X106441714Y-101560285D01*
X106394095Y-101655523D01*
X106298857Y-101750761D01*
X106156000Y-101798380D01*
X106060761Y-101798380D01*
X105917904Y-101750761D01*
X105870285Y-101703142D01*
X105870285Y-101369809D01*
X106060761Y-101369809D01*
X105441714Y-101798380D02*
X105441714Y-100798380D01*
X104870285Y-101798380D01*
X104870285Y-100798380D01*
X104394095Y-101798380D02*
X104394095Y-100798380D01*
X104156000Y-100798380D01*
X104013142Y-100846000D01*
X103917904Y-100941238D01*
X103870285Y-101036476D01*
X103822666Y-101226952D01*
X103822666Y-101369809D01*
X103870285Y-101560285D01*
X103917904Y-101655523D01*
X104013142Y-101750761D01*
X104156000Y-101798380D01*
X104394095Y-101798380D01*
X92209809Y-100544380D02*
X91638380Y-100544380D01*
X91924095Y-101544380D02*
X91924095Y-100544380D01*
X91305047Y-101544380D02*
X91305047Y-100544380D01*
X91066952Y-100544380D01*
X90924095Y-100592000D01*
X90828857Y-100687238D01*
X90781238Y-100782476D01*
X90733619Y-100972952D01*
X90733619Y-101115809D01*
X90781238Y-101306285D01*
X90828857Y-101401523D01*
X90924095Y-101496761D01*
X91066952Y-101544380D01*
X91305047Y-101544380D01*
X90305047Y-101544380D02*
X90305047Y-100544380D01*
D12*
X67146714Y-72771000D02*
X66384714Y-72771000D01*
X67146714Y-73097571D02*
X66747571Y-73097571D01*
X66675000Y-73061285D01*
X66638714Y-72988714D01*
X66638714Y-72879857D01*
X66675000Y-72807285D01*
X66711285Y-72771000D01*
X66638714Y-73351571D02*
X66638714Y-73641857D01*
X66384714Y-73460428D02*
X67037857Y-73460428D01*
X67110428Y-73496714D01*
X67146714Y-73569285D01*
X67146714Y-73641857D01*
X66638714Y-73787000D02*
X66638714Y-74077285D01*
X66384714Y-73895857D02*
X67037857Y-73895857D01*
X67110428Y-73932142D01*
X67146714Y-74004714D01*
X67146714Y-74077285D01*
X66638714Y-74331285D02*
X67400714Y-74331285D01*
X66675000Y-74331285D02*
X66638714Y-74403857D01*
X66638714Y-74549000D01*
X66675000Y-74621571D01*
X66711285Y-74657857D01*
X66783857Y-74694142D01*
X67001571Y-74694142D01*
X67074142Y-74657857D01*
X67110428Y-74621571D01*
X67146714Y-74549000D01*
X67146714Y-74403857D01*
X67110428Y-74331285D01*
X67110428Y-74984428D02*
X67146714Y-75057000D01*
X67146714Y-75202142D01*
X67110428Y-75274714D01*
X67037857Y-75311000D01*
X67001571Y-75311000D01*
X66929000Y-75274714D01*
X66892714Y-75202142D01*
X66892714Y-75093285D01*
X66856428Y-75020714D01*
X66783857Y-74984428D01*
X66747571Y-74984428D01*
X66675000Y-75020714D01*
X66638714Y-75093285D01*
X66638714Y-75202142D01*
X66675000Y-75274714D01*
X67074142Y-75637571D02*
X67110428Y-75673857D01*
X67146714Y-75637571D01*
X67110428Y-75601285D01*
X67074142Y-75637571D01*
X67146714Y-75637571D01*
X66675000Y-75637571D02*
X66711285Y-75673857D01*
X66747571Y-75637571D01*
X66711285Y-75601285D01*
X66675000Y-75637571D01*
X66747571Y-75637571D01*
X66348428Y-76544714D02*
X67328142Y-75891571D01*
X66348428Y-77342999D02*
X67328142Y-76689857D01*
X66638714Y-77923571D02*
X67255571Y-77923571D01*
X67328142Y-77887285D01*
X67364428Y-77850999D01*
X67400714Y-77778428D01*
X67400714Y-77669571D01*
X67364428Y-77596999D01*
X67110428Y-77923571D02*
X67146714Y-77850999D01*
X67146714Y-77705857D01*
X67110428Y-77633285D01*
X67074142Y-77596999D01*
X67001571Y-77560714D01*
X66783857Y-77560714D01*
X66711285Y-77596999D01*
X66675000Y-77633285D01*
X66638714Y-77705857D01*
X66638714Y-77850999D01*
X66675000Y-77923571D01*
X67146714Y-78286428D02*
X66638714Y-78286428D01*
X66384714Y-78286428D02*
X66421000Y-78250142D01*
X66457285Y-78286428D01*
X66421000Y-78322714D01*
X66384714Y-78286428D01*
X66457285Y-78286428D01*
X66638714Y-78540428D02*
X66638714Y-78830714D01*
X66384714Y-78649285D02*
X67037857Y-78649285D01*
X67110428Y-78685571D01*
X67146714Y-78758142D01*
X67146714Y-78830714D01*
X67146714Y-79084714D02*
X66384714Y-79084714D01*
X67146714Y-79411285D02*
X66747571Y-79411285D01*
X66675000Y-79374999D01*
X66638714Y-79302428D01*
X66638714Y-79193571D01*
X66675000Y-79120999D01*
X66711285Y-79084714D01*
X66638714Y-80100714D02*
X67146714Y-80100714D01*
X66638714Y-79774142D02*
X67037857Y-79774142D01*
X67110428Y-79810428D01*
X67146714Y-79882999D01*
X67146714Y-79991857D01*
X67110428Y-80064428D01*
X67074142Y-80100714D01*
X67146714Y-80463571D02*
X66384714Y-80463571D01*
X66675000Y-80463571D02*
X66638714Y-80536142D01*
X66638714Y-80681285D01*
X66675000Y-80753857D01*
X66711285Y-80790142D01*
X66783857Y-80826428D01*
X67001571Y-80826428D01*
X67074142Y-80790142D01*
X67110428Y-80753857D01*
X67146714Y-80681285D01*
X67146714Y-80536142D01*
X67110428Y-80463571D01*
X67074142Y-81152999D02*
X67110428Y-81189285D01*
X67146714Y-81152999D01*
X67110428Y-81116714D01*
X67074142Y-81152999D01*
X67146714Y-81152999D01*
X67110428Y-81842428D02*
X67146714Y-81769857D01*
X67146714Y-81624714D01*
X67110428Y-81552142D01*
X67074142Y-81515857D01*
X67001571Y-81479571D01*
X66783857Y-81479571D01*
X66711285Y-81515857D01*
X66675000Y-81552142D01*
X66638714Y-81624714D01*
X66638714Y-81769857D01*
X66675000Y-81842428D01*
X67146714Y-82277857D02*
X67110428Y-82205285D01*
X67074142Y-82168999D01*
X67001571Y-82132714D01*
X66783857Y-82132714D01*
X66711285Y-82168999D01*
X66675000Y-82205285D01*
X66638714Y-82277857D01*
X66638714Y-82386714D01*
X66675000Y-82459285D01*
X66711285Y-82495571D01*
X66783857Y-82531857D01*
X67001571Y-82531857D01*
X67074142Y-82495571D01*
X67110428Y-82459285D01*
X67146714Y-82386714D01*
X67146714Y-82277857D01*
X67146714Y-82858428D02*
X66638714Y-82858428D01*
X66711285Y-82858428D02*
X66675000Y-82894714D01*
X66638714Y-82967285D01*
X66638714Y-83076142D01*
X66675000Y-83148714D01*
X66747571Y-83184999D01*
X67146714Y-83184999D01*
X66747571Y-83184999D02*
X66675000Y-83221285D01*
X66638714Y-83293857D01*
X66638714Y-83402714D01*
X66675000Y-83475285D01*
X66747571Y-83511571D01*
X67146714Y-83511571D01*
X66348428Y-84418714D02*
X67328142Y-83765571D01*
X66638714Y-84563857D02*
X66638714Y-84854142D01*
X67146714Y-84672714D02*
X66493571Y-84672714D01*
X66421000Y-84708999D01*
X66384714Y-84781571D01*
X66384714Y-84854142D01*
X67110428Y-85398428D02*
X67146714Y-85325857D01*
X67146714Y-85180714D01*
X67110428Y-85108142D01*
X67037857Y-85071857D01*
X66747571Y-85071857D01*
X66675000Y-85108142D01*
X66638714Y-85180714D01*
X66638714Y-85325857D01*
X66675000Y-85398428D01*
X66747571Y-85434714D01*
X66820142Y-85434714D01*
X66892714Y-85071857D01*
X67146714Y-85761285D02*
X66384714Y-85761285D01*
X67146714Y-86087857D02*
X66747571Y-86087857D01*
X66675000Y-86051571D01*
X66638714Y-85978999D01*
X66638714Y-85870142D01*
X66675000Y-85797571D01*
X66711285Y-85761285D01*
X67146714Y-86559571D02*
X67110428Y-86486999D01*
X67037857Y-86450714D01*
X66384714Y-86450714D01*
X66638714Y-86740999D02*
X66638714Y-87031285D01*
X67146714Y-86849857D02*
X66493571Y-86849857D01*
X66421000Y-86886142D01*
X66384714Y-86958714D01*
X66384714Y-87031285D01*
X67146714Y-87611857D02*
X66747571Y-87611857D01*
X66675000Y-87575571D01*
X66638714Y-87502999D01*
X66638714Y-87357857D01*
X66675000Y-87285285D01*
X67110428Y-87611857D02*
X67146714Y-87539285D01*
X67146714Y-87357857D01*
X67110428Y-87285285D01*
X67037857Y-87248999D01*
X66965285Y-87248999D01*
X66892714Y-87285285D01*
X66856428Y-87357857D01*
X66856428Y-87539285D01*
X66820142Y-87611857D01*
X67146714Y-87974714D02*
X66638714Y-87974714D01*
X66783857Y-87974714D02*
X66711285Y-88010999D01*
X66675000Y-88047285D01*
X66638714Y-88119857D01*
X66638714Y-88192428D01*
X67146714Y-88446428D02*
X66384714Y-88446428D01*
X66675000Y-88446428D02*
X66638714Y-88518999D01*
X66638714Y-88664142D01*
X66675000Y-88736714D01*
X66711285Y-88772999D01*
X66783857Y-88809285D01*
X67001571Y-88809285D01*
X67074142Y-88772999D01*
X67110428Y-88736714D01*
X67146714Y-88664142D01*
X67146714Y-88518999D01*
X67110428Y-88446428D01*
X67110428Y-89426142D02*
X67146714Y-89353571D01*
X67146714Y-89208428D01*
X67110428Y-89135857D01*
X67037857Y-89099571D01*
X66747571Y-89099571D01*
X66675000Y-89135857D01*
X66638714Y-89208428D01*
X66638714Y-89353571D01*
X66675000Y-89426142D01*
X66747571Y-89462428D01*
X66820142Y-89462428D01*
X66892714Y-89099571D01*
X66348428Y-90333285D02*
X67328142Y-89680142D01*
X66747571Y-90587285D02*
X66747571Y-90841285D01*
X67146714Y-90950142D02*
X67146714Y-90587285D01*
X66384714Y-90587285D01*
X66384714Y-90950142D01*
X67110428Y-91240428D02*
X67146714Y-91349285D01*
X67146714Y-91530714D01*
X67110428Y-91603285D01*
X67074142Y-91639571D01*
X67001571Y-91675857D01*
X66929000Y-91675857D01*
X66856428Y-91639571D01*
X66820142Y-91603285D01*
X66783857Y-91530714D01*
X66747571Y-91385571D01*
X66711285Y-91312999D01*
X66675000Y-91276714D01*
X66602428Y-91240428D01*
X66529857Y-91240428D01*
X66457285Y-91276714D01*
X66421000Y-91312999D01*
X66384714Y-91385571D01*
X66384714Y-91566999D01*
X66421000Y-91675857D01*
X67146714Y-92002428D02*
X66384714Y-92002428D01*
X66384714Y-92292714D01*
X66421000Y-92365285D01*
X66457285Y-92401571D01*
X66529857Y-92437857D01*
X66638714Y-92437857D01*
X66711285Y-92401571D01*
X66747571Y-92365285D01*
X66783857Y-92292714D01*
X66783857Y-92002428D01*
X66384714Y-92691857D02*
X66384714Y-93163571D01*
X66675000Y-92909571D01*
X66675000Y-93018428D01*
X66711285Y-93090999D01*
X66747571Y-93127285D01*
X66820142Y-93163571D01*
X67001571Y-93163571D01*
X67074142Y-93127285D01*
X67110428Y-93090999D01*
X67146714Y-93018428D01*
X67146714Y-92800714D01*
X67110428Y-92728142D01*
X67074142Y-92691857D01*
X66457285Y-93453857D02*
X66421000Y-93490142D01*
X66384714Y-93562714D01*
X66384714Y-93744142D01*
X66421000Y-93816714D01*
X66457285Y-93852999D01*
X66529857Y-93889285D01*
X66602428Y-93889285D01*
X66711285Y-93852999D01*
X67146714Y-93417571D01*
X67146714Y-93889285D01*
X66856428Y-94215857D02*
X66856428Y-94796428D01*
X66929000Y-95122999D02*
X66929000Y-95485857D01*
X67146714Y-95050428D02*
X66384714Y-95304428D01*
X67146714Y-95558428D01*
X67146714Y-95921285D02*
X67110428Y-95848714D01*
X67037857Y-95812428D01*
X66384714Y-95812428D01*
X67146714Y-96538142D02*
X66747571Y-96538142D01*
X66675000Y-96501857D01*
X66638714Y-96429285D01*
X66638714Y-96284142D01*
X66675000Y-96211571D01*
X67110428Y-96538142D02*
X67146714Y-96465571D01*
X67146714Y-96284142D01*
X67110428Y-96211571D01*
X67037857Y-96175285D01*
X66965285Y-96175285D01*
X66892714Y-96211571D01*
X66856428Y-96284142D01*
X66856428Y-96465571D01*
X66820142Y-96538142D01*
X67146714Y-96900999D02*
X66638714Y-96900999D01*
X66783857Y-96900999D02*
X66711285Y-96937285D01*
X66675000Y-96973571D01*
X66638714Y-97046142D01*
X66638714Y-97118714D01*
X67146714Y-97372714D02*
X66638714Y-97372714D01*
X66711285Y-97372714D02*
X66675000Y-97408999D01*
X66638714Y-97481571D01*
X66638714Y-97590428D01*
X66675000Y-97662999D01*
X66747571Y-97699285D01*
X67146714Y-97699285D01*
X66747571Y-97699285D02*
X66675000Y-97735571D01*
X66638714Y-97808142D01*
X66638714Y-97916999D01*
X66675000Y-97989571D01*
X66747571Y-98025857D01*
X67146714Y-98025857D01*
X66856428Y-98388714D02*
X66856428Y-98969285D01*
X67110428Y-99658714D02*
X67146714Y-99586142D01*
X67146714Y-99440999D01*
X67110428Y-99368428D01*
X67074142Y-99332142D01*
X67001571Y-99295857D01*
X66783857Y-99295857D01*
X66711285Y-99332142D01*
X66675000Y-99368428D01*
X66638714Y-99440999D01*
X66638714Y-99586142D01*
X66675000Y-99658714D01*
X67146714Y-100094142D02*
X67110428Y-100021571D01*
X67037857Y-99985285D01*
X66384714Y-99985285D01*
X67146714Y-100493285D02*
X67110428Y-100420714D01*
X67074142Y-100384428D01*
X67001571Y-100348142D01*
X66783857Y-100348142D01*
X66711285Y-100384428D01*
X66675000Y-100420714D01*
X66638714Y-100493285D01*
X66638714Y-100602142D01*
X66675000Y-100674714D01*
X66711285Y-100710999D01*
X66783857Y-100747285D01*
X67001571Y-100747285D01*
X67074142Y-100710999D01*
X67110428Y-100674714D01*
X67146714Y-100602142D01*
X67146714Y-100493285D01*
X67110428Y-101400428D02*
X67146714Y-101327857D01*
X67146714Y-101182714D01*
X67110428Y-101110142D01*
X67074142Y-101073857D01*
X67001571Y-101037571D01*
X66783857Y-101037571D01*
X66711285Y-101073857D01*
X66675000Y-101110142D01*
X66638714Y-101182714D01*
X66638714Y-101327857D01*
X66675000Y-101400428D01*
X67146714Y-101726999D02*
X66384714Y-101726999D01*
X66856428Y-101799571D02*
X67146714Y-102017285D01*
X66638714Y-102017285D02*
X66929000Y-101726999D01*
D10*
X105917904Y-103132000D02*
X106013142Y-103084380D01*
X106156000Y-103084380D01*
X106298857Y-103132000D01*
X106394095Y-103227238D01*
X106441714Y-103322476D01*
X106489333Y-103512952D01*
X106489333Y-103655809D01*
X106441714Y-103846285D01*
X106394095Y-103941523D01*
X106298857Y-104036761D01*
X106156000Y-104084380D01*
X106060761Y-104084380D01*
X105917904Y-104036761D01*
X105870285Y-103989142D01*
X105870285Y-103655809D01*
X106060761Y-103655809D01*
X105441714Y-104084380D02*
X105441714Y-103084380D01*
X104870285Y-104084380D01*
X104870285Y-103084380D01*
X104394095Y-104084380D02*
X104394095Y-103084380D01*
X104156000Y-103084380D01*
X104013142Y-103132000D01*
X103917904Y-103227238D01*
X103870285Y-103322476D01*
X103822666Y-103512952D01*
X103822666Y-103655809D01*
X103870285Y-103846285D01*
X103917904Y-103941523D01*
X104013142Y-104036761D01*
X104156000Y-104084380D01*
X104394095Y-104084380D01*
X92241523Y-98258380D02*
X91670095Y-98258380D01*
X91955809Y-99258380D02*
X91955809Y-98258380D01*
X91336761Y-99258380D02*
X91336761Y-98258380D01*
X91098666Y-98258380D01*
X90955809Y-98306000D01*
X90860571Y-98401238D01*
X90812952Y-98496476D01*
X90765333Y-98686952D01*
X90765333Y-98829809D01*
X90812952Y-99020285D01*
X90860571Y-99115523D01*
X90955809Y-99210761D01*
X91098666Y-99258380D01*
X91336761Y-99258380D01*
X90146285Y-98258380D02*
X89955809Y-98258380D01*
X89860571Y-98306000D01*
X89765333Y-98401238D01*
X89717714Y-98591714D01*
X89717714Y-98925047D01*
X89765333Y-99115523D01*
X89860571Y-99210761D01*
X89955809Y-99258380D01*
X90146285Y-99258380D01*
X90241523Y-99210761D01*
X90336761Y-99115523D01*
X90384380Y-98925047D01*
X90384380Y-98591714D01*
X90336761Y-98401238D01*
X90241523Y-98306000D01*
X90146285Y-98258380D01*
X105917904Y-98052000D02*
X106013142Y-98004380D01*
X106156000Y-98004380D01*
X106298857Y-98052000D01*
X106394095Y-98147238D01*
X106441714Y-98242476D01*
X106489333Y-98432952D01*
X106489333Y-98575809D01*
X106441714Y-98766285D01*
X106394095Y-98861523D01*
X106298857Y-98956761D01*
X106156000Y-99004380D01*
X106060761Y-99004380D01*
X105917904Y-98956761D01*
X105870285Y-98909142D01*
X105870285Y-98575809D01*
X106060761Y-98575809D01*
X105441714Y-99004380D02*
X105441714Y-98004380D01*
X104870285Y-99004380D01*
X104870285Y-98004380D01*
X104394095Y-99004380D02*
X104394095Y-98004380D01*
X104156000Y-98004380D01*
X104013142Y-98052000D01*
X103917904Y-98147238D01*
X103870285Y-98242476D01*
X103822666Y-98432952D01*
X103822666Y-98575809D01*
X103870285Y-98766285D01*
X103917904Y-98861523D01*
X104013142Y-98956761D01*
X104156000Y-99004380D01*
X104394095Y-99004380D01*
X106489333Y-92924380D02*
X106156000Y-93924380D01*
X105822666Y-92924380D01*
X104917904Y-93829142D02*
X104965523Y-93876761D01*
X105108380Y-93924380D01*
X105203619Y-93924380D01*
X105346476Y-93876761D01*
X105441714Y-93781523D01*
X105489333Y-93686285D01*
X105536952Y-93495809D01*
X105536952Y-93352952D01*
X105489333Y-93162476D01*
X105441714Y-93067238D01*
X105346476Y-92972000D01*
X105203619Y-92924380D01*
X105108380Y-92924380D01*
X104965523Y-92972000D01*
X104917904Y-93019619D01*
X103917904Y-93829142D02*
X103965523Y-93876761D01*
X104108380Y-93924380D01*
X104203619Y-93924380D01*
X104346476Y-93876761D01*
X104441714Y-93781523D01*
X104489333Y-93686285D01*
X104536952Y-93495809D01*
X104536952Y-93352952D01*
X104489333Y-93162476D01*
X104441714Y-93067238D01*
X104346476Y-92972000D01*
X104203619Y-92924380D01*
X104108380Y-92924380D01*
X103965523Y-92972000D01*
X103917904Y-93019619D01*
%TO.C,J0*%
X98377333Y-90594380D02*
X98377333Y-91308666D01*
X98424952Y-91451523D01*
X98520190Y-91546761D01*
X98663047Y-91594380D01*
X98758285Y-91594380D01*
X97710666Y-90594380D02*
X97615428Y-90594380D01*
X97520190Y-90642000D01*
X97472571Y-90689619D01*
X97424952Y-90784857D01*
X97377333Y-90975333D01*
X97377333Y-91213428D01*
X97424952Y-91403904D01*
X97472571Y-91499142D01*
X97520190Y-91546761D01*
X97615428Y-91594380D01*
X97710666Y-91594380D01*
X97805904Y-91546761D01*
X97853523Y-91499142D01*
X97901142Y-91403904D01*
X97948761Y-91213428D01*
X97948761Y-90975333D01*
X97901142Y-90784857D01*
X97853523Y-90689619D01*
X97805904Y-90642000D01*
X97710666Y-90594380D01*
D13*
X100644000Y-99312000D02*
X100644000Y-100332000D01*
X102084000Y-92712000D02*
X100644000Y-92712000D01*
X100644000Y-94232000D02*
X100644000Y-95252000D01*
X100644000Y-104392000D02*
X100644000Y-104962000D01*
X95444000Y-101852000D02*
X95444000Y-102872000D01*
X100644000Y-92142000D02*
X100644000Y-92712000D01*
X95444000Y-96772000D02*
X95444000Y-97792000D01*
X95444000Y-104392000D02*
X95444000Y-104962000D01*
X100644000Y-92142000D02*
X95444000Y-92142000D01*
X95444000Y-99312000D02*
X95444000Y-100332000D01*
X95444000Y-92142000D02*
X95444000Y-92712000D01*
X100644000Y-96772000D02*
X100644000Y-97792000D01*
X100644000Y-104962000D02*
X95444000Y-104962000D01*
X100644000Y-101852000D02*
X100644000Y-102872000D01*
X95444000Y-94232000D02*
X95444000Y-95252000D01*
%TD*%
M02*
