M48
; DRILL file {KiCad 5.1.9-73d0e3b20d~88~ubuntu18.04.1} date Mon Jan 11 01:03:31 2021
; FORMAT={-:-/ absolute / inch / decimal}
; #@! TF.CreationDate,2021-01-11T01:03:31+01:00
; #@! TF.GenerationSoftware,Kicad,Pcbnew,5.1.9-73d0e3b20d~88~ubuntu18.04.1
; #@! TF.FileFunction,Plated,1,2,PTH
FMAT,2
INCH
T1C0.0157
T2C0.0300
T3C0.0315
T4C0.0394
%
G90
G05
T1
X2.23Y-3.32
X2.3Y-3.7
X2.3Y-3.8
X2.56Y-4.2107
X2.63Y-4.18
X2.6601Y-4.0799
X2.7Y-4.1
X2.71Y-3.41
X2.9Y-2.75
X2.9Y-3.55
X2.95Y-3.4
X2.95Y-3.85
X2.95Y-3.92
X2.96Y-3.11
X3.24Y-3.38
X3.27Y-3.49
X3.27Y-3.63
X3.54Y-3.4
X3.58Y-3.33
T2
X3.39Y-3.01
X3.39Y-3.11
X3.39Y-3.21
X3.39Y-3.31
X3.39Y-3.41
X3.39Y-3.51
X3.39Y-3.61
X3.39Y-3.71
X3.39Y-3.81
X4.19Y-3.11
X4.19Y-3.21
X4.19Y-3.31
X4.19Y-3.41
X4.19Y-3.51
X4.19Y-3.61
T3
X2.05Y-3.05
X2.05Y-3.15
X2.05Y-3.25
X2.05Y-3.35
X2.05Y-3.45
X2.05Y-3.55
X2.05Y-3.65
X2.05Y-3.75
X2.05Y-3.85
X2.05Y-3.95
X2.15Y-3.05
X2.15Y-3.15
X2.15Y-3.25
X2.15Y-3.35
X2.15Y-3.45
X2.15Y-3.55
X2.15Y-3.65
X2.15Y-3.75
X2.15Y-3.85
X2.15Y-3.95
X3.05Y-3.05
X3.05Y-3.15
X3.05Y-3.25
X3.05Y-3.35
X3.05Y-3.45
X3.05Y-3.55
X3.05Y-3.65
X3.05Y-3.75
X3.05Y-3.85
X3.05Y-3.95
X3.15Y-3.05
X3.15Y-3.15
X3.15Y-3.25
X3.15Y-3.35
X3.15Y-3.45
X3.15Y-3.55
X3.15Y-3.65
X3.15Y-3.75
X3.15Y-3.85
X3.15Y-3.95
T4
X1.85Y-2.82
X1.85Y-2.92
X1.85Y-3.15
X1.85Y-3.25
X1.85Y-3.45
X1.85Y-3.55
X1.85Y-3.75
X1.85Y-3.85
X2.4Y-2.55
X2.6Y-2.55
X2.7Y-2.55
X2.8Y-2.55
X2.9Y-2.55
X3.1Y-2.55
X3.2Y-2.55
X3.3Y-2.55
X3.4Y-2.55
X3.65Y-2.55
X3.75Y-2.55
X3.85Y-2.55
T0
M30
