%TF.GenerationSoftware,KiCad,Pcbnew,6.0.10-86aedd382b~118~ubuntu22.04.1*%
%TF.CreationDate,2023-01-08T15:51:37+01:00*%
%TF.ProjectId,mp3alarm,6d703361-6c61-4726-9d2e-6b696361645f,v0.2*%
%TF.SameCoordinates,Original*%
%TF.FileFunction,Soldermask,Bot*%
%TF.FilePolarity,Negative*%
%FSLAX46Y46*%
G04 Gerber Fmt 4.6, Leading zero omitted, Abs format (unit mm)*
G04 Created by KiCad (PCBNEW 6.0.10-86aedd382b~118~ubuntu22.04.1) date 2023-01-08 15:51:37*
%MOMM*%
%LPD*%
G01*
G04 APERTURE LIST*
%ADD10R,1.700000X1.700000*%
%ADD11O,1.700000X1.700000*%
%ADD12C,1.400000*%
%ADD13C,1.524000*%
%ADD14C,6.400000*%
%ADD15C,2.500000*%
%ADD16C,1.000000*%
%ADD17R,3.150000X1.000000*%
G04 APERTURE END LIST*
D10*
%TO.C,J3*%
X46990000Y-90170000D03*
D11*
X46990000Y-87630000D03*
%TD*%
D10*
%TO.C,J5*%
X85399000Y-64770000D03*
D11*
X82859000Y-64770000D03*
X80319000Y-64770000D03*
X77779000Y-64770000D03*
%TD*%
D10*
%TO.C,J6*%
X97218500Y-64770000D03*
D11*
X94678500Y-64770000D03*
X92138500Y-64770000D03*
X89598500Y-64770000D03*
%TD*%
D12*
%TO.C,U2*%
X52070000Y-77470000D03*
X54610000Y-77470000D03*
X52070000Y-80010000D03*
X54610000Y-80010000D03*
X52070000Y-82550000D03*
X54610000Y-82550000D03*
X52070000Y-85090000D03*
X54610000Y-85090000D03*
X52070000Y-87630000D03*
X54610000Y-87630000D03*
X52070000Y-90170000D03*
X54610000Y-90170000D03*
X52070000Y-92710000D03*
X54610000Y-92710000D03*
X52070000Y-95250000D03*
X54610000Y-95250000D03*
X52070000Y-97790000D03*
X54610000Y-97790000D03*
X52070000Y-100330000D03*
X54610000Y-100330000D03*
X77470000Y-77470000D03*
X80010000Y-77470000D03*
X77470000Y-80010000D03*
X80010000Y-80010000D03*
X77470000Y-82550000D03*
X80010000Y-82550000D03*
X77470000Y-85090000D03*
X80010000Y-85090000D03*
X77470000Y-87630000D03*
X80010000Y-87630000D03*
X77470000Y-90170000D03*
X80010000Y-90170000D03*
X77470000Y-92710000D03*
X80010000Y-92710000D03*
X77470000Y-95250000D03*
X80010000Y-95250000D03*
X77470000Y-97790000D03*
X80010000Y-97790000D03*
X77470000Y-100330000D03*
X80010000Y-100330000D03*
%TD*%
D10*
%TO.C,J2*%
X46990000Y-97790000D03*
D11*
X46990000Y-95250000D03*
%TD*%
D10*
%TO.C,J9*%
X60960000Y-57658000D03*
%TD*%
%TO.C,J4*%
X46990000Y-82550000D03*
D11*
X46990000Y-80010000D03*
%TD*%
D10*
%TO.C,J1*%
X101600000Y-64770000D03*
D11*
X104140000Y-64770000D03*
X106680000Y-64770000D03*
%TD*%
D10*
%TO.C,J8*%
X46990000Y-71628000D03*
D11*
X46990000Y-74168000D03*
%TD*%
D13*
%TO.C,U1*%
X86106000Y-76454000D03*
X86106000Y-78994000D03*
X86106000Y-81534000D03*
X86106000Y-84074000D03*
X86106000Y-86614000D03*
X86106000Y-89154000D03*
X86106000Y-91694000D03*
X86106000Y-94234000D03*
X86106000Y-96774000D03*
X106426000Y-78994000D03*
X106426000Y-81534000D03*
X106426000Y-84074000D03*
X106426000Y-86614000D03*
X106426000Y-89154000D03*
X106426000Y-91694000D03*
%TD*%
D14*
%TO.C,H2*%
X48000000Y-104000000D03*
%TD*%
%TO.C,H4*%
X107000000Y-58000000D03*
%TD*%
%TO.C,H3*%
X107000000Y-104000000D03*
%TD*%
D15*
%TO.C,J10*%
X69342000Y-61976000D03*
X73457000Y-66091000D03*
X65227000Y-57861000D03*
X65227000Y-66091000D03*
X73457000Y-57861000D03*
%TD*%
D14*
%TO.C,H1*%
X48000000Y-58000000D03*
%TD*%
D16*
%TO.C,Y1*%
X58232000Y-74490000D03*
X60132000Y-74490000D03*
%TD*%
D17*
%TO.C,J0*%
X100569000Y-93472000D03*
X95519000Y-93472000D03*
X100569000Y-96012000D03*
X95519000Y-96012000D03*
X100569000Y-98552000D03*
X95519000Y-98552000D03*
X100569000Y-101092000D03*
X95519000Y-101092000D03*
X100569000Y-103632000D03*
X95519000Y-103632000D03*
%TD*%
M02*
