%TF.GenerationSoftware,KiCad,Pcbnew,6.0.10-86aedd382b~118~ubuntu22.04.1*%
%TF.CreationDate,2023-01-08T15:51:37+01:00*%
%TF.ProjectId,mp3alarm,6d703361-6c61-4726-9d2e-6b696361645f,v0.2*%
%TF.SameCoordinates,Original*%
%TF.FileFunction,Legend,Top*%
%TF.FilePolarity,Positive*%
%FSLAX46Y46*%
G04 Gerber Fmt 4.6, Leading zero omitted, Abs format (unit mm)*
G04 Created by KiCad (PCBNEW 6.0.10-86aedd382b~118~ubuntu22.04.1) date 2023-01-08 15:51:37*
%MOMM*%
%LPD*%
G01*
G04 APERTURE LIST*
%ADD10C,0.127000*%
%ADD11C,0.150000*%
%ADD12C,0.120000*%
%ADD13C,0.200000*%
%ADD14C,0.100000*%
G04 APERTURE END LIST*
D10*
X89244714Y-62375142D02*
X89244714Y-62738000D01*
X89607571Y-62774285D01*
X89571285Y-62738000D01*
X89535000Y-62665428D01*
X89535000Y-62484000D01*
X89571285Y-62411428D01*
X89607571Y-62375142D01*
X89680142Y-62338857D01*
X89861571Y-62338857D01*
X89934142Y-62375142D01*
X89970428Y-62411428D01*
X90006714Y-62484000D01*
X90006714Y-62665428D01*
X89970428Y-62738000D01*
X89934142Y-62774285D01*
X89244714Y-62121142D02*
X90006714Y-61867142D01*
X89244714Y-61613142D01*
X83167428Y-63155285D02*
X83203714Y-63046428D01*
X83203714Y-62865000D01*
X83167428Y-62792428D01*
X83131142Y-62756142D01*
X83058571Y-62719857D01*
X82986000Y-62719857D01*
X82913428Y-62756142D01*
X82877142Y-62792428D01*
X82840857Y-62865000D01*
X82804571Y-63010142D01*
X82768285Y-63082714D01*
X82732000Y-63119000D01*
X82659428Y-63155285D01*
X82586857Y-63155285D01*
X82514285Y-63119000D01*
X82478000Y-63082714D01*
X82441714Y-63010142D01*
X82441714Y-62828714D01*
X82478000Y-62719857D01*
X83203714Y-62393285D02*
X82441714Y-62393285D01*
X82441714Y-62211857D01*
X82478000Y-62103000D01*
X82550571Y-62030428D01*
X82623142Y-61994142D01*
X82768285Y-61957857D01*
X82877142Y-61957857D01*
X83022285Y-61994142D01*
X83094857Y-62030428D01*
X83167428Y-62103000D01*
X83203714Y-62211857D01*
X83203714Y-62393285D01*
X82986000Y-61667571D02*
X82986000Y-61304714D01*
X83203714Y-61740142D02*
X82441714Y-61486142D01*
X83203714Y-61232142D01*
D11*
X45108761Y-82613333D02*
X45156380Y-82470476D01*
X45156380Y-82232380D01*
X45108761Y-82137142D01*
X45061142Y-82089523D01*
X44965904Y-82041904D01*
X44870666Y-82041904D01*
X44775428Y-82089523D01*
X44727809Y-82137142D01*
X44680190Y-82232380D01*
X44632571Y-82422857D01*
X44584952Y-82518095D01*
X44537333Y-82565714D01*
X44442095Y-82613333D01*
X44346857Y-82613333D01*
X44251619Y-82565714D01*
X44204000Y-82518095D01*
X44156380Y-82422857D01*
X44156380Y-82184761D01*
X44204000Y-82041904D01*
X44156380Y-81708571D02*
X45156380Y-81470476D01*
X44442095Y-81280000D01*
X45156380Y-81089523D01*
X44156380Y-80851428D01*
X44251619Y-80518095D02*
X44204000Y-80470476D01*
X44156380Y-80375238D01*
X44156380Y-80137142D01*
X44204000Y-80041904D01*
X44251619Y-79994285D01*
X44346857Y-79946666D01*
X44442095Y-79946666D01*
X44584952Y-79994285D01*
X45156380Y-80565714D01*
X45156380Y-79946666D01*
D10*
X97554142Y-62683571D02*
X97590428Y-62719857D01*
X97626714Y-62828714D01*
X97626714Y-62901285D01*
X97590428Y-63010142D01*
X97517857Y-63082714D01*
X97445285Y-63119000D01*
X97300142Y-63155285D01*
X97191285Y-63155285D01*
X97046142Y-63119000D01*
X96973571Y-63082714D01*
X96901000Y-63010142D01*
X96864714Y-62901285D01*
X96864714Y-62828714D01*
X96901000Y-62719857D01*
X96937285Y-62683571D01*
X97626714Y-61994142D02*
X97626714Y-62357000D01*
X96864714Y-62357000D01*
X97626714Y-61740142D02*
X96864714Y-61740142D01*
X97626714Y-61304714D02*
X97191285Y-61631285D01*
X96864714Y-61304714D02*
X97300142Y-61740142D01*
D11*
X80557809Y-67762380D02*
X80557809Y-66762380D01*
X80986380Y-66857619D02*
X81034000Y-66810000D01*
X81129238Y-66762380D01*
X81367333Y-66762380D01*
X81462571Y-66810000D01*
X81510190Y-66857619D01*
X81557809Y-66952857D01*
X81557809Y-67048095D01*
X81510190Y-67190952D01*
X80938761Y-67762380D01*
X81557809Y-67762380D01*
X82557809Y-67667142D02*
X82510190Y-67714761D01*
X82367333Y-67762380D01*
X82272095Y-67762380D01*
X82129238Y-67714761D01*
X82034000Y-67619523D01*
X81986380Y-67524285D01*
X81938761Y-67333809D01*
X81938761Y-67190952D01*
X81986380Y-67000476D01*
X82034000Y-66905238D01*
X82129238Y-66810000D01*
X82272095Y-66762380D01*
X82367333Y-66762380D01*
X82510190Y-66810000D01*
X82557809Y-66857619D01*
D10*
X107024714Y-61994142D02*
X106661857Y-62248142D01*
X107024714Y-62429571D02*
X106262714Y-62429571D01*
X106262714Y-62139285D01*
X106299000Y-62066714D01*
X106335285Y-62030428D01*
X106407857Y-61994142D01*
X106516714Y-61994142D01*
X106589285Y-62030428D01*
X106625571Y-62066714D01*
X106661857Y-62139285D01*
X106661857Y-62429571D01*
D11*
X90710095Y-66762380D02*
X91281523Y-66762380D01*
X90995809Y-67762380D02*
X90995809Y-66762380D01*
X91614857Y-67762380D02*
X91614857Y-66762380D01*
X91948190Y-67476666D01*
X92281523Y-66762380D01*
X92281523Y-67762380D01*
X93281523Y-67762380D02*
X92710095Y-67762380D01*
X92995809Y-67762380D02*
X92995809Y-66762380D01*
X92900571Y-66905238D01*
X92805333Y-67000476D01*
X92710095Y-67048095D01*
X94138666Y-66762380D02*
X93948190Y-66762380D01*
X93852952Y-66810000D01*
X93805333Y-66857619D01*
X93710095Y-67000476D01*
X93662476Y-67190952D01*
X93662476Y-67571904D01*
X93710095Y-67667142D01*
X93757714Y-67714761D01*
X93852952Y-67762380D01*
X94043428Y-67762380D01*
X94138666Y-67714761D01*
X94186285Y-67667142D01*
X94233904Y-67571904D01*
X94233904Y-67333809D01*
X94186285Y-67238571D01*
X94138666Y-67190952D01*
X94043428Y-67143333D01*
X93852952Y-67143333D01*
X93757714Y-67190952D01*
X93710095Y-67238571D01*
X93662476Y-67333809D01*
X94567238Y-66762380D02*
X95186285Y-66762380D01*
X94852952Y-67143333D01*
X94995809Y-67143333D01*
X95091047Y-67190952D01*
X95138666Y-67238571D01*
X95186285Y-67333809D01*
X95186285Y-67571904D01*
X95138666Y-67667142D01*
X95091047Y-67714761D01*
X94995809Y-67762380D01*
X94710095Y-67762380D01*
X94614857Y-67714761D01*
X94567238Y-67667142D01*
X95519619Y-66762380D02*
X96186285Y-66762380D01*
X95757714Y-67762380D01*
X45108761Y-97853333D02*
X45156380Y-97710476D01*
X45156380Y-97472380D01*
X45108761Y-97377142D01*
X45061142Y-97329523D01*
X44965904Y-97281904D01*
X44870666Y-97281904D01*
X44775428Y-97329523D01*
X44727809Y-97377142D01*
X44680190Y-97472380D01*
X44632571Y-97662857D01*
X44584952Y-97758095D01*
X44537333Y-97805714D01*
X44442095Y-97853333D01*
X44346857Y-97853333D01*
X44251619Y-97805714D01*
X44204000Y-97758095D01*
X44156380Y-97662857D01*
X44156380Y-97424761D01*
X44204000Y-97281904D01*
X44156380Y-96948571D02*
X45156380Y-96710476D01*
X44442095Y-96520000D01*
X45156380Y-96329523D01*
X44156380Y-96091428D01*
X44156380Y-95520000D02*
X44156380Y-95424761D01*
X44204000Y-95329523D01*
X44251619Y-95281904D01*
X44346857Y-95234285D01*
X44537333Y-95186666D01*
X44775428Y-95186666D01*
X44965904Y-95234285D01*
X45061142Y-95281904D01*
X45108761Y-95329523D01*
X45156380Y-95424761D01*
X45156380Y-95520000D01*
X45108761Y-95615238D01*
X45061142Y-95662857D01*
X44965904Y-95710476D01*
X44775428Y-95758095D01*
X44537333Y-95758095D01*
X44346857Y-95710476D01*
X44251619Y-95662857D01*
X44204000Y-95615238D01*
X44156380Y-95520000D01*
X62333619Y-72842380D02*
X62000285Y-72366190D01*
X61762190Y-72842380D02*
X61762190Y-71842380D01*
X62143142Y-71842380D01*
X62238380Y-71890000D01*
X62286000Y-71937619D01*
X62333619Y-72032857D01*
X62333619Y-72175714D01*
X62286000Y-72270952D01*
X62238380Y-72318571D01*
X62143142Y-72366190D01*
X61762190Y-72366190D01*
X62762190Y-72842380D02*
X62762190Y-71842380D01*
X63000285Y-71842380D01*
X63143142Y-71890000D01*
X63238380Y-71985238D01*
X63286000Y-72080476D01*
X63333619Y-72270952D01*
X63333619Y-72413809D01*
X63286000Y-72604285D01*
X63238380Y-72699523D01*
X63143142Y-72794761D01*
X63000285Y-72842380D01*
X62762190Y-72842380D01*
X63714571Y-72556666D02*
X64190761Y-72556666D01*
X63619333Y-72842380D02*
X63952666Y-71842380D01*
X64286000Y-72842380D01*
X65095523Y-71842380D02*
X64619333Y-71842380D01*
X64571714Y-72318571D01*
X64619333Y-72270952D01*
X64714571Y-72223333D01*
X64952666Y-72223333D01*
X65047904Y-72270952D01*
X65095523Y-72318571D01*
X65143142Y-72413809D01*
X65143142Y-72651904D01*
X65095523Y-72747142D01*
X65047904Y-72794761D01*
X64952666Y-72842380D01*
X64714571Y-72842380D01*
X64619333Y-72794761D01*
X64571714Y-72747142D01*
X65714571Y-72270952D02*
X65619333Y-72223333D01*
X65571714Y-72175714D01*
X65524095Y-72080476D01*
X65524095Y-72032857D01*
X65571714Y-71937619D01*
X65619333Y-71890000D01*
X65714571Y-71842380D01*
X65905047Y-71842380D01*
X66000285Y-71890000D01*
X66047904Y-71937619D01*
X66095523Y-72032857D01*
X66095523Y-72080476D01*
X66047904Y-72175714D01*
X66000285Y-72223333D01*
X65905047Y-72270952D01*
X65714571Y-72270952D01*
X65619333Y-72318571D01*
X65571714Y-72366190D01*
X65524095Y-72461428D01*
X65524095Y-72651904D01*
X65571714Y-72747142D01*
X65619333Y-72794761D01*
X65714571Y-72842380D01*
X65905047Y-72842380D01*
X66000285Y-72794761D01*
X66047904Y-72747142D01*
X66095523Y-72651904D01*
X66095523Y-72461428D01*
X66047904Y-72366190D01*
X66000285Y-72318571D01*
X65905047Y-72270952D01*
X66714571Y-71842380D02*
X66809809Y-71842380D01*
X66905047Y-71890000D01*
X66952666Y-71937619D01*
X67000285Y-72032857D01*
X67047904Y-72223333D01*
X67047904Y-72461428D01*
X67000285Y-72651904D01*
X66952666Y-72747142D01*
X66905047Y-72794761D01*
X66809809Y-72842380D01*
X66714571Y-72842380D01*
X66619333Y-72794761D01*
X66571714Y-72747142D01*
X66524095Y-72651904D01*
X66476476Y-72461428D01*
X66476476Y-72223333D01*
X66524095Y-72032857D01*
X66571714Y-71937619D01*
X66619333Y-71890000D01*
X66714571Y-71842380D01*
X67381238Y-71842380D02*
X68047904Y-71842380D01*
X67619333Y-72842380D01*
X68762190Y-72318571D02*
X68428857Y-72318571D01*
X68428857Y-72842380D02*
X68428857Y-71842380D01*
X68905047Y-71842380D01*
X69286000Y-72842380D02*
X69286000Y-71842380D01*
X69666952Y-71842380D01*
X69762190Y-71890000D01*
X69809809Y-71937619D01*
X69857428Y-72032857D01*
X69857428Y-72175714D01*
X69809809Y-72270952D01*
X69762190Y-72318571D01*
X69666952Y-72366190D01*
X69286000Y-72366190D01*
X44156380Y-74612476D02*
X44156380Y-75088666D01*
X44632571Y-75136285D01*
X44584952Y-75088666D01*
X44537333Y-74993428D01*
X44537333Y-74755333D01*
X44584952Y-74660095D01*
X44632571Y-74612476D01*
X44727809Y-74564857D01*
X44965904Y-74564857D01*
X45061142Y-74612476D01*
X45108761Y-74660095D01*
X45156380Y-74755333D01*
X45156380Y-74993428D01*
X45108761Y-75088666D01*
X45061142Y-75136285D01*
X44156380Y-74279142D02*
X45156380Y-73945809D01*
X44156380Y-73612476D01*
X100306666Y-67476666D02*
X100782857Y-67476666D01*
X100211428Y-67762380D02*
X100544761Y-66762380D01*
X100878095Y-67762380D01*
X101211428Y-66762380D02*
X101211428Y-67571904D01*
X101259047Y-67667142D01*
X101306666Y-67714761D01*
X101401904Y-67762380D01*
X101592380Y-67762380D01*
X101687619Y-67714761D01*
X101735238Y-67667142D01*
X101782857Y-67571904D01*
X101782857Y-66762380D01*
X102259047Y-67762380D02*
X102259047Y-66762380D01*
X102497142Y-66762380D01*
X102640000Y-66810000D01*
X102735238Y-66905238D01*
X102782857Y-67000476D01*
X102830476Y-67190952D01*
X102830476Y-67333809D01*
X102782857Y-67524285D01*
X102735238Y-67619523D01*
X102640000Y-67714761D01*
X102497142Y-67762380D01*
X102259047Y-67762380D01*
X103259047Y-67762380D02*
X103259047Y-66762380D01*
X103925714Y-66762380D02*
X104116190Y-66762380D01*
X104211428Y-66810000D01*
X104306666Y-66905238D01*
X104354285Y-67095714D01*
X104354285Y-67429047D01*
X104306666Y-67619523D01*
X104211428Y-67714761D01*
X104116190Y-67762380D01*
X103925714Y-67762380D01*
X103830476Y-67714761D01*
X103735238Y-67619523D01*
X103687619Y-67429047D01*
X103687619Y-67095714D01*
X103735238Y-66905238D01*
X103830476Y-66810000D01*
X103925714Y-66762380D01*
X104544761Y-67857619D02*
X105306666Y-67857619D01*
X105735238Y-66762380D02*
X105925714Y-66762380D01*
X106020952Y-66810000D01*
X106116190Y-66905238D01*
X106163809Y-67095714D01*
X106163809Y-67429047D01*
X106116190Y-67619523D01*
X106020952Y-67714761D01*
X105925714Y-67762380D01*
X105735238Y-67762380D01*
X105640000Y-67714761D01*
X105544761Y-67619523D01*
X105497142Y-67429047D01*
X105497142Y-67095714D01*
X105544761Y-66905238D01*
X105640000Y-66810000D01*
X105735238Y-66762380D01*
X106592380Y-66762380D02*
X106592380Y-67571904D01*
X106640000Y-67667142D01*
X106687619Y-67714761D01*
X106782857Y-67762380D01*
X106973333Y-67762380D01*
X107068571Y-67714761D01*
X107116190Y-67667142D01*
X107163809Y-67571904D01*
X107163809Y-66762380D01*
X107497142Y-66762380D02*
X108068571Y-66762380D01*
X107782857Y-67762380D02*
X107782857Y-66762380D01*
D10*
X77361714Y-63173428D02*
X77361714Y-62701714D01*
X77652000Y-62955714D01*
X77652000Y-62846857D01*
X77688285Y-62774285D01*
X77724571Y-62738000D01*
X77797142Y-62701714D01*
X77978571Y-62701714D01*
X78051142Y-62738000D01*
X78087428Y-62774285D01*
X78123714Y-62846857D01*
X78123714Y-63064571D01*
X78087428Y-63137142D01*
X78051142Y-63173428D01*
X77361714Y-62484000D02*
X78123714Y-62230000D01*
X77361714Y-61976000D01*
X77361714Y-61794571D02*
X77361714Y-61322857D01*
X77652000Y-61576857D01*
X77652000Y-61468000D01*
X77688285Y-61395428D01*
X77724571Y-61359142D01*
X77797142Y-61322857D01*
X77978571Y-61322857D01*
X78051142Y-61359142D01*
X78087428Y-61395428D01*
X78123714Y-61468000D01*
X78123714Y-61685714D01*
X78087428Y-61758285D01*
X78051142Y-61794571D01*
D11*
X44204000Y-72135904D02*
X44156380Y-72231142D01*
X44156380Y-72374000D01*
X44204000Y-72516857D01*
X44299238Y-72612095D01*
X44394476Y-72659714D01*
X44584952Y-72707333D01*
X44727809Y-72707333D01*
X44918285Y-72659714D01*
X45013523Y-72612095D01*
X45108761Y-72516857D01*
X45156380Y-72374000D01*
X45156380Y-72278761D01*
X45108761Y-72135904D01*
X45061142Y-72088285D01*
X44727809Y-72088285D01*
X44727809Y-72278761D01*
X45156380Y-71659714D02*
X44156380Y-71659714D01*
X45156380Y-71088285D01*
X44156380Y-71088285D01*
X45156380Y-70612095D02*
X44156380Y-70612095D01*
X44156380Y-70374000D01*
X44204000Y-70231142D01*
X44299238Y-70135904D01*
X44394476Y-70088285D01*
X44584952Y-70040666D01*
X44727809Y-70040666D01*
X44918285Y-70088285D01*
X45013523Y-70135904D01*
X45108761Y-70231142D01*
X45156380Y-70374000D01*
X45156380Y-70612095D01*
D10*
X79938000Y-62810571D02*
X79901714Y-62883142D01*
X79901714Y-62992000D01*
X79938000Y-63100857D01*
X80010571Y-63173428D01*
X80083142Y-63209714D01*
X80228285Y-63246000D01*
X80337142Y-63246000D01*
X80482285Y-63209714D01*
X80554857Y-63173428D01*
X80627428Y-63100857D01*
X80663714Y-62992000D01*
X80663714Y-62919428D01*
X80627428Y-62810571D01*
X80591142Y-62774285D01*
X80337142Y-62774285D01*
X80337142Y-62919428D01*
X80663714Y-62447714D02*
X79901714Y-62447714D01*
X80663714Y-62012285D01*
X79901714Y-62012285D01*
X80663714Y-61649428D02*
X79901714Y-61649428D01*
X79901714Y-61468000D01*
X79938000Y-61359142D01*
X80010571Y-61286571D01*
X80083142Y-61250285D01*
X80228285Y-61214000D01*
X80337142Y-61214000D01*
X80482285Y-61250285D01*
X80554857Y-61286571D01*
X80627428Y-61359142D01*
X80663714Y-61468000D01*
X80663714Y-61649428D01*
D11*
X45108761Y-90233333D02*
X45156380Y-90090476D01*
X45156380Y-89852380D01*
X45108761Y-89757142D01*
X45061142Y-89709523D01*
X44965904Y-89661904D01*
X44870666Y-89661904D01*
X44775428Y-89709523D01*
X44727809Y-89757142D01*
X44680190Y-89852380D01*
X44632571Y-90042857D01*
X44584952Y-90138095D01*
X44537333Y-90185714D01*
X44442095Y-90233333D01*
X44346857Y-90233333D01*
X44251619Y-90185714D01*
X44204000Y-90138095D01*
X44156380Y-90042857D01*
X44156380Y-89804761D01*
X44204000Y-89661904D01*
X44156380Y-89328571D02*
X45156380Y-89090476D01*
X44442095Y-88900000D01*
X45156380Y-88709523D01*
X44156380Y-88471428D01*
X45156380Y-87566666D02*
X45156380Y-88138095D01*
X45156380Y-87852380D02*
X44156380Y-87852380D01*
X44299238Y-87947619D01*
X44394476Y-88042857D01*
X44442095Y-88138095D01*
D10*
X101944714Y-61994142D02*
X101944714Y-62357000D01*
X101182714Y-62357000D01*
X103759000Y-62810571D02*
X103722714Y-62883142D01*
X103722714Y-62992000D01*
X103759000Y-63100857D01*
X103831571Y-63173428D01*
X103904142Y-63209714D01*
X104049285Y-63246000D01*
X104158142Y-63246000D01*
X104303285Y-63209714D01*
X104375857Y-63173428D01*
X104448428Y-63100857D01*
X104484714Y-62992000D01*
X104484714Y-62919428D01*
X104448428Y-62810571D01*
X104412142Y-62774285D01*
X104158142Y-62774285D01*
X104158142Y-62919428D01*
X104484714Y-62447714D02*
X103722714Y-62447714D01*
X104484714Y-62012285D01*
X103722714Y-62012285D01*
X104484714Y-61649428D02*
X103722714Y-61649428D01*
X103722714Y-61468000D01*
X103759000Y-61359142D01*
X103831571Y-61286571D01*
X103904142Y-61250285D01*
X104049285Y-61214000D01*
X104158142Y-61214000D01*
X104303285Y-61250285D01*
X104375857Y-61286571D01*
X104448428Y-61359142D01*
X104484714Y-61468000D01*
X104484714Y-61649428D01*
X85707428Y-63137142D02*
X85743714Y-63028285D01*
X85743714Y-62846857D01*
X85707428Y-62774285D01*
X85671142Y-62738000D01*
X85598571Y-62701714D01*
X85526000Y-62701714D01*
X85453428Y-62738000D01*
X85417142Y-62774285D01*
X85380857Y-62846857D01*
X85344571Y-62992000D01*
X85308285Y-63064571D01*
X85272000Y-63100857D01*
X85199428Y-63137142D01*
X85126857Y-63137142D01*
X85054285Y-63100857D01*
X85018000Y-63064571D01*
X84981714Y-62992000D01*
X84981714Y-62810571D01*
X85018000Y-62701714D01*
X85671142Y-61939714D02*
X85707428Y-61976000D01*
X85743714Y-62084857D01*
X85743714Y-62157428D01*
X85707428Y-62266285D01*
X85634857Y-62338857D01*
X85562285Y-62375142D01*
X85417142Y-62411428D01*
X85308285Y-62411428D01*
X85163142Y-62375142D01*
X85090571Y-62338857D01*
X85018000Y-62266285D01*
X84981714Y-62157428D01*
X84981714Y-62084857D01*
X85018000Y-61976000D01*
X85054285Y-61939714D01*
X85743714Y-61250285D02*
X85743714Y-61613142D01*
X84981714Y-61613142D01*
X91821000Y-62810571D02*
X91784714Y-62883142D01*
X91784714Y-62992000D01*
X91821000Y-63100857D01*
X91893571Y-63173428D01*
X91966142Y-63209714D01*
X92111285Y-63246000D01*
X92220142Y-63246000D01*
X92365285Y-63209714D01*
X92437857Y-63173428D01*
X92510428Y-63100857D01*
X92546714Y-62992000D01*
X92546714Y-62919428D01*
X92510428Y-62810571D01*
X92474142Y-62774285D01*
X92220142Y-62774285D01*
X92220142Y-62919428D01*
X92546714Y-62447714D02*
X91784714Y-62447714D01*
X92546714Y-62012285D01*
X91784714Y-62012285D01*
X92546714Y-61649428D02*
X91784714Y-61649428D01*
X91784714Y-61468000D01*
X91821000Y-61359142D01*
X91893571Y-61286571D01*
X91966142Y-61250285D01*
X92111285Y-61214000D01*
X92220142Y-61214000D01*
X92365285Y-61250285D01*
X92437857Y-61286571D01*
X92510428Y-61359142D01*
X92546714Y-61468000D01*
X92546714Y-61649428D01*
X95086714Y-63010142D02*
X94324714Y-63010142D01*
X94324714Y-62828714D01*
X94361000Y-62719857D01*
X94433571Y-62647285D01*
X94506142Y-62611000D01*
X94651285Y-62574714D01*
X94760142Y-62574714D01*
X94905285Y-62611000D01*
X94977857Y-62647285D01*
X95050428Y-62719857D01*
X95086714Y-62828714D01*
X95086714Y-63010142D01*
X95086714Y-62248142D02*
X94324714Y-62248142D01*
X94324714Y-61740142D02*
X94324714Y-61595000D01*
X94361000Y-61522428D01*
X94433571Y-61449857D01*
X94578714Y-61413571D01*
X94832714Y-61413571D01*
X94977857Y-61449857D01*
X95050428Y-61522428D01*
X95086714Y-61595000D01*
X95086714Y-61740142D01*
X95050428Y-61812714D01*
X94977857Y-61885285D01*
X94832714Y-61921571D01*
X94578714Y-61921571D01*
X94433571Y-61885285D01*
X94361000Y-61812714D01*
X94324714Y-61740142D01*
D11*
%TO.C,D1*%
X53911809Y-61618761D02*
X54054666Y-61666380D01*
X54292761Y-61666380D01*
X54388000Y-61618761D01*
X54435619Y-61571142D01*
X54483238Y-61475904D01*
X54483238Y-61380666D01*
X54435619Y-61285428D01*
X54388000Y-61237809D01*
X54292761Y-61190190D01*
X54102285Y-61142571D01*
X54007047Y-61094952D01*
X53959428Y-61047333D01*
X53911809Y-60952095D01*
X53911809Y-60856857D01*
X53959428Y-60761619D01*
X54007047Y-60714000D01*
X54102285Y-60666380D01*
X54340380Y-60666380D01*
X54483238Y-60714000D01*
X54768952Y-60666380D02*
X55340380Y-60666380D01*
X55054666Y-61666380D02*
X55054666Y-60666380D01*
X55626095Y-61380666D02*
X56102285Y-61380666D01*
X55530857Y-61666380D02*
X55864190Y-60666380D01*
X56197523Y-61666380D01*
X56388000Y-60666380D02*
X56959428Y-60666380D01*
X56673714Y-61666380D02*
X56673714Y-60666380D01*
X57292761Y-60666380D02*
X57292761Y-61475904D01*
X57340380Y-61571142D01*
X57388000Y-61618761D01*
X57483238Y-61666380D01*
X57673714Y-61666380D01*
X57768952Y-61618761D01*
X57816571Y-61571142D01*
X57864190Y-61475904D01*
X57864190Y-60666380D01*
X58292761Y-61618761D02*
X58435619Y-61666380D01*
X58673714Y-61666380D01*
X58768952Y-61618761D01*
X58816571Y-61571142D01*
X58864190Y-61475904D01*
X58864190Y-61380666D01*
X58816571Y-61285428D01*
X58768952Y-61237809D01*
X58673714Y-61190190D01*
X58483238Y-61142571D01*
X58388000Y-61094952D01*
X58340380Y-61047333D01*
X58292761Y-60952095D01*
X58292761Y-60856857D01*
X58340380Y-60761619D01*
X58388000Y-60714000D01*
X58483238Y-60666380D01*
X58721333Y-60666380D01*
X58864190Y-60714000D01*
%TO.C,C1*%
X63929142Y-64682666D02*
X63976761Y-64730285D01*
X64024380Y-64873142D01*
X64024380Y-64968380D01*
X63976761Y-65111238D01*
X63881523Y-65206476D01*
X63786285Y-65254095D01*
X63595809Y-65301714D01*
X63452952Y-65301714D01*
X63262476Y-65254095D01*
X63167238Y-65206476D01*
X63072000Y-65111238D01*
X63024380Y-64968380D01*
X63024380Y-64873142D01*
X63072000Y-64730285D01*
X63119619Y-64682666D01*
X64024380Y-63730285D02*
X64024380Y-64301714D01*
X64024380Y-64016000D02*
X63024380Y-64016000D01*
X63167238Y-64111238D01*
X63262476Y-64206476D01*
X63310095Y-64301714D01*
D10*
%TO.C,J7*%
X62657666Y-105100380D02*
X62657666Y-104433714D01*
X62657666Y-104528952D02*
X62705285Y-104481333D01*
X62800523Y-104433714D01*
X62943380Y-104433714D01*
X63038619Y-104481333D01*
X63086238Y-104576571D01*
X63086238Y-105100380D01*
X63086238Y-104576571D02*
X63133857Y-104481333D01*
X63229095Y-104433714D01*
X63371952Y-104433714D01*
X63467190Y-104481333D01*
X63514809Y-104576571D01*
X63514809Y-105100380D01*
X63991000Y-105100380D02*
X63991000Y-104433714D01*
X63991000Y-104100380D02*
X63943380Y-104148000D01*
X63991000Y-104195619D01*
X64038619Y-104148000D01*
X63991000Y-104100380D01*
X63991000Y-104195619D01*
X64895761Y-105052761D02*
X64800523Y-105100380D01*
X64610047Y-105100380D01*
X64514809Y-105052761D01*
X64467190Y-105005142D01*
X64419571Y-104909904D01*
X64419571Y-104624190D01*
X64467190Y-104528952D01*
X64514809Y-104481333D01*
X64610047Y-104433714D01*
X64800523Y-104433714D01*
X64895761Y-104481333D01*
X65324333Y-105100380D02*
X65324333Y-104433714D01*
X65324333Y-104624190D02*
X65371952Y-104528952D01*
X65419571Y-104481333D01*
X65514809Y-104433714D01*
X65610047Y-104433714D01*
X66086238Y-105100380D02*
X65991000Y-105052761D01*
X65943380Y-105005142D01*
X65895761Y-104909904D01*
X65895761Y-104624190D01*
X65943380Y-104528952D01*
X65991000Y-104481333D01*
X66086238Y-104433714D01*
X66229095Y-104433714D01*
X66324333Y-104481333D01*
X66371952Y-104528952D01*
X66419571Y-104624190D01*
X66419571Y-104909904D01*
X66371952Y-105005142D01*
X66324333Y-105052761D01*
X66229095Y-105100380D01*
X66086238Y-105100380D01*
X66800523Y-105052761D02*
X66943380Y-105100380D01*
X67181476Y-105100380D01*
X67276714Y-105052761D01*
X67324333Y-105005142D01*
X67371952Y-104909904D01*
X67371952Y-104814666D01*
X67324333Y-104719428D01*
X67276714Y-104671809D01*
X67181476Y-104624190D01*
X66991000Y-104576571D01*
X66895761Y-104528952D01*
X66848142Y-104481333D01*
X66800523Y-104386095D01*
X66800523Y-104290857D01*
X66848142Y-104195619D01*
X66895761Y-104148000D01*
X66991000Y-104100380D01*
X67229095Y-104100380D01*
X67371952Y-104148000D01*
X67800523Y-105100380D02*
X67800523Y-104100380D01*
X68038619Y-104100380D01*
X68181476Y-104148000D01*
X68276714Y-104243238D01*
X68324333Y-104338476D01*
X68371952Y-104528952D01*
X68371952Y-104671809D01*
X68324333Y-104862285D01*
X68276714Y-104957523D01*
X68181476Y-105052761D01*
X68038619Y-105100380D01*
X67800523Y-105100380D01*
D11*
%TO.C,U2*%
X62063809Y-93924380D02*
X62063809Y-93257714D01*
X62063809Y-93352952D02*
X62111428Y-93305333D01*
X62206666Y-93257714D01*
X62349523Y-93257714D01*
X62444761Y-93305333D01*
X62492380Y-93400571D01*
X62492380Y-93924380D01*
X62492380Y-93400571D02*
X62540000Y-93305333D01*
X62635238Y-93257714D01*
X62778095Y-93257714D01*
X62873333Y-93305333D01*
X62920952Y-93400571D01*
X62920952Y-93924380D01*
X63397142Y-93924380D02*
X63397142Y-93257714D01*
X63397142Y-92924380D02*
X63349523Y-92972000D01*
X63397142Y-93019619D01*
X63444761Y-92972000D01*
X63397142Y-92924380D01*
X63397142Y-93019619D01*
X63873333Y-93257714D02*
X63873333Y-93924380D01*
X63873333Y-93352952D02*
X63920952Y-93305333D01*
X64016190Y-93257714D01*
X64159047Y-93257714D01*
X64254285Y-93305333D01*
X64301904Y-93400571D01*
X64301904Y-93924380D01*
X64778095Y-93924380D02*
X64778095Y-93257714D01*
X64778095Y-92924380D02*
X64730476Y-92972000D01*
X64778095Y-93019619D01*
X64825714Y-92972000D01*
X64778095Y-92924380D01*
X64778095Y-93019619D01*
X65016190Y-94019619D02*
X65778095Y-94019619D01*
X66397142Y-93876761D02*
X66301904Y-93924380D01*
X66111428Y-93924380D01*
X66016190Y-93876761D01*
X65968571Y-93781523D01*
X65968571Y-93400571D01*
X66016190Y-93305333D01*
X66111428Y-93257714D01*
X66301904Y-93257714D01*
X66397142Y-93305333D01*
X66444761Y-93400571D01*
X66444761Y-93495809D01*
X65968571Y-93591047D01*
X66825714Y-93876761D02*
X66920952Y-93924380D01*
X67111428Y-93924380D01*
X67206666Y-93876761D01*
X67254285Y-93781523D01*
X67254285Y-93733904D01*
X67206666Y-93638666D01*
X67111428Y-93591047D01*
X66968571Y-93591047D01*
X66873333Y-93543428D01*
X66825714Y-93448190D01*
X66825714Y-93400571D01*
X66873333Y-93305333D01*
X66968571Y-93257714D01*
X67111428Y-93257714D01*
X67206666Y-93305333D01*
X67682857Y-93257714D02*
X67682857Y-94257714D01*
X67682857Y-93305333D02*
X67778095Y-93257714D01*
X67968571Y-93257714D01*
X68063809Y-93305333D01*
X68111428Y-93352952D01*
X68159047Y-93448190D01*
X68159047Y-93733904D01*
X68111428Y-93829142D01*
X68063809Y-93876761D01*
X67968571Y-93924380D01*
X67778095Y-93924380D01*
X67682857Y-93876761D01*
X68492380Y-92924380D02*
X69111428Y-92924380D01*
X68778095Y-93305333D01*
X68920952Y-93305333D01*
X69016190Y-93352952D01*
X69063809Y-93400571D01*
X69111428Y-93495809D01*
X69111428Y-93733904D01*
X69063809Y-93829142D01*
X69016190Y-93876761D01*
X68920952Y-93924380D01*
X68635238Y-93924380D01*
X68540000Y-93876761D01*
X68492380Y-93829142D01*
X69492380Y-93019619D02*
X69540000Y-92972000D01*
X69635238Y-92924380D01*
X69873333Y-92924380D01*
X69968571Y-92972000D01*
X70016190Y-93019619D01*
X70063809Y-93114857D01*
X70063809Y-93210095D01*
X70016190Y-93352952D01*
X69444761Y-93924380D01*
X70063809Y-93924380D01*
%TO.C,J9*%
X59817142Y-60364666D02*
X60293333Y-60364666D01*
X59721904Y-60650380D02*
X60055238Y-59650380D01*
X60388571Y-60650380D01*
X60721904Y-60650380D02*
X60721904Y-59650380D01*
X61293333Y-60650380D01*
X61293333Y-59650380D01*
X61626666Y-59650380D02*
X62198095Y-59650380D01*
X61912380Y-60650380D02*
X61912380Y-59650380D01*
%TO.C,R1*%
X55254880Y-71286666D02*
X54778690Y-71620000D01*
X55254880Y-71858095D02*
X54254880Y-71858095D01*
X54254880Y-71477142D01*
X54302500Y-71381904D01*
X54350119Y-71334285D01*
X54445357Y-71286666D01*
X54588214Y-71286666D01*
X54683452Y-71334285D01*
X54731071Y-71381904D01*
X54778690Y-71477142D01*
X54778690Y-71858095D01*
X55254880Y-70334285D02*
X55254880Y-70905714D01*
X55254880Y-70620000D02*
X54254880Y-70620000D01*
X54397738Y-70715238D01*
X54492976Y-70810476D01*
X54540595Y-70905714D01*
%TO.C,U1*%
X100798380Y-94844285D02*
X101607904Y-94844285D01*
X101703142Y-94796666D01*
X101750761Y-94749047D01*
X101798380Y-94653809D01*
X101798380Y-94463333D01*
X101750761Y-94368095D01*
X101703142Y-94320476D01*
X101607904Y-94272857D01*
X100798380Y-94272857D01*
X101798380Y-93796666D02*
X100798380Y-93796666D01*
X100798380Y-93558571D01*
X100846000Y-93415714D01*
X100941238Y-93320476D01*
X101036476Y-93272857D01*
X101226952Y-93225238D01*
X101369809Y-93225238D01*
X101560285Y-93272857D01*
X101655523Y-93320476D01*
X101750761Y-93415714D01*
X101798380Y-93558571D01*
X101798380Y-93796666D01*
X101512666Y-92844285D02*
X101512666Y-92368095D01*
X101798380Y-92939523D02*
X100798380Y-92606190D01*
X101798380Y-92272857D01*
X101798380Y-91415714D02*
X101798380Y-91987142D01*
X101798380Y-91701428D02*
X100798380Y-91701428D01*
X100941238Y-91796666D01*
X101036476Y-91891904D01*
X101084095Y-91987142D01*
X100798380Y-91082380D02*
X100798380Y-90463333D01*
X101179333Y-90796666D01*
X101179333Y-90653809D01*
X101226952Y-90558571D01*
X101274571Y-90510952D01*
X101369809Y-90463333D01*
X101607904Y-90463333D01*
X101703142Y-90510952D01*
X101750761Y-90558571D01*
X101798380Y-90653809D01*
X101798380Y-90939523D01*
X101750761Y-91034761D01*
X101703142Y-91082380D01*
X100798380Y-90130000D02*
X100798380Y-89510952D01*
X101179333Y-89844285D01*
X101179333Y-89701428D01*
X101226952Y-89606190D01*
X101274571Y-89558571D01*
X101369809Y-89510952D01*
X101607904Y-89510952D01*
X101703142Y-89558571D01*
X101750761Y-89606190D01*
X101798380Y-89701428D01*
X101798380Y-89987142D01*
X101750761Y-90082380D01*
X101703142Y-90130000D01*
X101131714Y-88653809D02*
X101798380Y-88653809D01*
X100750761Y-88891904D02*
X101465047Y-89130000D01*
X101465047Y-88510952D01*
X101512666Y-88177619D02*
X101512666Y-87701428D01*
X101798380Y-88272857D02*
X100798380Y-87939523D01*
X101798380Y-87606190D01*
X101893619Y-87510952D02*
X101893619Y-86749047D01*
X101274571Y-86177619D02*
X101322190Y-86034761D01*
X101369809Y-85987142D01*
X101465047Y-85939523D01*
X101607904Y-85939523D01*
X101703142Y-85987142D01*
X101750761Y-86034761D01*
X101798380Y-86130000D01*
X101798380Y-86510952D01*
X100798380Y-86510952D01*
X100798380Y-86177619D01*
X100846000Y-86082380D01*
X100893619Y-86034761D01*
X100988857Y-85987142D01*
X101084095Y-85987142D01*
X101179333Y-86034761D01*
X101226952Y-86082380D01*
X101274571Y-86177619D01*
X101274571Y-86510952D01*
X101798380Y-85510952D02*
X101131714Y-85510952D01*
X101322190Y-85510952D02*
X101226952Y-85463333D01*
X101179333Y-85415714D01*
X101131714Y-85320476D01*
X101131714Y-85225238D01*
X101750761Y-84510952D02*
X101798380Y-84606190D01*
X101798380Y-84796666D01*
X101750761Y-84891904D01*
X101655523Y-84939523D01*
X101274571Y-84939523D01*
X101179333Y-84891904D01*
X101131714Y-84796666D01*
X101131714Y-84606190D01*
X101179333Y-84510952D01*
X101274571Y-84463333D01*
X101369809Y-84463333D01*
X101465047Y-84939523D01*
X101798380Y-83606190D02*
X101274571Y-83606190D01*
X101179333Y-83653809D01*
X101131714Y-83749047D01*
X101131714Y-83939523D01*
X101179333Y-84034761D01*
X101750761Y-83606190D02*
X101798380Y-83701428D01*
X101798380Y-83939523D01*
X101750761Y-84034761D01*
X101655523Y-84082380D01*
X101560285Y-84082380D01*
X101465047Y-84034761D01*
X101417428Y-83939523D01*
X101417428Y-83701428D01*
X101369809Y-83606190D01*
X101798380Y-83130000D02*
X100798380Y-83130000D01*
X101417428Y-83034761D02*
X101798380Y-82749047D01*
X101131714Y-82749047D02*
X101512666Y-83130000D01*
X101798380Y-82177619D02*
X101750761Y-82272857D01*
X101703142Y-82320476D01*
X101607904Y-82368095D01*
X101322190Y-82368095D01*
X101226952Y-82320476D01*
X101179333Y-82272857D01*
X101131714Y-82177619D01*
X101131714Y-82034761D01*
X101179333Y-81939523D01*
X101226952Y-81891904D01*
X101322190Y-81844285D01*
X101607904Y-81844285D01*
X101703142Y-81891904D01*
X101750761Y-81939523D01*
X101798380Y-82034761D01*
X101798380Y-82177619D01*
X101131714Y-80987142D02*
X101798380Y-80987142D01*
X101131714Y-81415714D02*
X101655523Y-81415714D01*
X101750761Y-81368095D01*
X101798380Y-81272857D01*
X101798380Y-81130000D01*
X101750761Y-81034761D01*
X101703142Y-80987142D01*
X101131714Y-80653809D02*
X101131714Y-80272857D01*
X100798380Y-80510952D02*
X101655523Y-80510952D01*
X101750761Y-80463333D01*
X101798380Y-80368095D01*
X101798380Y-80272857D01*
%TO.C,R2*%
X77922380Y-72364166D02*
X77446190Y-72697500D01*
X77922380Y-72935595D02*
X76922380Y-72935595D01*
X76922380Y-72554642D01*
X76970000Y-72459404D01*
X77017619Y-72411785D01*
X77112857Y-72364166D01*
X77255714Y-72364166D01*
X77350952Y-72411785D01*
X77398571Y-72459404D01*
X77446190Y-72554642D01*
X77446190Y-72935595D01*
X77017619Y-71983214D02*
X76970000Y-71935595D01*
X76922380Y-71840357D01*
X76922380Y-71602261D01*
X76970000Y-71507023D01*
X77017619Y-71459404D01*
X77112857Y-71411785D01*
X77208095Y-71411785D01*
X77350952Y-71459404D01*
X77922380Y-72030833D01*
X77922380Y-71411785D01*
%TO.C,IC1*%
X65825809Y-83256380D02*
X65825809Y-82256380D01*
X66873428Y-83161142D02*
X66825809Y-83208761D01*
X66682952Y-83256380D01*
X66587714Y-83256380D01*
X66444857Y-83208761D01*
X66349619Y-83113523D01*
X66302000Y-83018285D01*
X66254380Y-82827809D01*
X66254380Y-82684952D01*
X66302000Y-82494476D01*
X66349619Y-82399238D01*
X66444857Y-82304000D01*
X66587714Y-82256380D01*
X66682952Y-82256380D01*
X66825809Y-82304000D01*
X66873428Y-82351619D01*
X67825809Y-83256380D02*
X67254380Y-83256380D01*
X67540095Y-83256380D02*
X67540095Y-82256380D01*
X67444857Y-82399238D01*
X67349619Y-82494476D01*
X67254380Y-82542095D01*
%TO.C,C3*%
X72985333Y-84613142D02*
X72937714Y-84660761D01*
X72794857Y-84708380D01*
X72699619Y-84708380D01*
X72556761Y-84660761D01*
X72461523Y-84565523D01*
X72413904Y-84470285D01*
X72366285Y-84279809D01*
X72366285Y-84136952D01*
X72413904Y-83946476D01*
X72461523Y-83851238D01*
X72556761Y-83756000D01*
X72699619Y-83708380D01*
X72794857Y-83708380D01*
X72937714Y-83756000D01*
X72985333Y-83803619D01*
X73318666Y-83708380D02*
X73937714Y-83708380D01*
X73604380Y-84089333D01*
X73747238Y-84089333D01*
X73842476Y-84136952D01*
X73890095Y-84184571D01*
X73937714Y-84279809D01*
X73937714Y-84517904D01*
X73890095Y-84613142D01*
X73842476Y-84660761D01*
X73747238Y-84708380D01*
X73461523Y-84708380D01*
X73366285Y-84660761D01*
X73318666Y-84613142D01*
%TO.C,R3*%
X71530380Y-72364166D02*
X71054190Y-72697500D01*
X71530380Y-72935595D02*
X70530380Y-72935595D01*
X70530380Y-72554642D01*
X70578000Y-72459404D01*
X70625619Y-72411785D01*
X70720857Y-72364166D01*
X70863714Y-72364166D01*
X70958952Y-72411785D01*
X71006571Y-72459404D01*
X71054190Y-72554642D01*
X71054190Y-72935595D01*
X70530380Y-72030833D02*
X70530380Y-71411785D01*
X70911333Y-71745119D01*
X70911333Y-71602261D01*
X70958952Y-71507023D01*
X71006571Y-71459404D01*
X71101809Y-71411785D01*
X71339904Y-71411785D01*
X71435142Y-71459404D01*
X71482761Y-71507023D01*
X71530380Y-71602261D01*
X71530380Y-71887976D01*
X71482761Y-71983214D01*
X71435142Y-72030833D01*
%TO.C,D2*%
X44324380Y-66103333D02*
X45324380Y-65865238D01*
X44610095Y-65674761D01*
X45324380Y-65484285D01*
X44324380Y-65246190D01*
X45324380Y-64865238D02*
X44324380Y-64865238D01*
X44800571Y-64055714D02*
X44800571Y-64389047D01*
X45324380Y-64389047D02*
X44324380Y-64389047D01*
X44324380Y-63912857D01*
X45324380Y-63531904D02*
X44324380Y-63531904D01*
%TO.C,J10*%
X68532476Y-54428380D02*
X68532476Y-55142666D01*
X68484857Y-55285523D01*
X68389619Y-55380761D01*
X68246761Y-55428380D01*
X68151523Y-55428380D01*
X69532476Y-55428380D02*
X68961047Y-55428380D01*
X69246761Y-55428380D02*
X69246761Y-54428380D01*
X69151523Y-54571238D01*
X69056285Y-54666476D01*
X68961047Y-54714095D01*
X70151523Y-54428380D02*
X70246761Y-54428380D01*
X70342000Y-54476000D01*
X70389619Y-54523619D01*
X70437238Y-54618857D01*
X70484857Y-54809333D01*
X70484857Y-55047428D01*
X70437238Y-55237904D01*
X70389619Y-55333142D01*
X70342000Y-55380761D01*
X70246761Y-55428380D01*
X70151523Y-55428380D01*
X70056285Y-55380761D01*
X70008666Y-55333142D01*
X69961047Y-55237904D01*
X69913428Y-55047428D01*
X69913428Y-54809333D01*
X69961047Y-54618857D01*
X70008666Y-54523619D01*
X70056285Y-54476000D01*
X70151523Y-54428380D01*
%TO.C,Y1*%
X56608190Y-76716190D02*
X57084380Y-76716190D01*
X56084380Y-77049523D02*
X56608190Y-76716190D01*
X56084380Y-76382857D01*
X57084380Y-75525714D02*
X57084380Y-76097142D01*
X57084380Y-75811428D02*
X56084380Y-75811428D01*
X56227238Y-75906666D01*
X56322476Y-76001904D01*
X56370095Y-76097142D01*
%TO.C,C2*%
X66127333Y-84653142D02*
X66079714Y-84700761D01*
X65936857Y-84748380D01*
X65841619Y-84748380D01*
X65698761Y-84700761D01*
X65603523Y-84605523D01*
X65555904Y-84510285D01*
X65508285Y-84319809D01*
X65508285Y-84176952D01*
X65555904Y-83986476D01*
X65603523Y-83891238D01*
X65698761Y-83796000D01*
X65841619Y-83748380D01*
X65936857Y-83748380D01*
X66079714Y-83796000D01*
X66127333Y-83843619D01*
X66508285Y-83843619D02*
X66555904Y-83796000D01*
X66651142Y-83748380D01*
X66889238Y-83748380D01*
X66984476Y-83796000D01*
X67032095Y-83843619D01*
X67079714Y-83938857D01*
X67079714Y-84034095D01*
X67032095Y-84176952D01*
X66460666Y-84748380D01*
X67079714Y-84748380D01*
D12*
%TO.C,D1*%
X52738000Y-62020000D02*
X60038000Y-62020000D01*
X60038000Y-67520000D02*
X60038000Y-66370000D01*
X52738000Y-67520000D02*
X60038000Y-67520000D01*
%TO.C,C1*%
X60812000Y-63804748D02*
X60812000Y-65227252D01*
X62632000Y-63804748D02*
X62632000Y-65227252D01*
%TO.C,J3*%
X48320000Y-86300000D02*
X45660000Y-86300000D01*
X48320000Y-90170000D02*
X48320000Y-91500000D01*
X48320000Y-91500000D02*
X46990000Y-91500000D01*
X45660000Y-88900000D02*
X45660000Y-86300000D01*
X48320000Y-88900000D02*
X45660000Y-88900000D01*
X48320000Y-88900000D02*
X48320000Y-86300000D01*
%TO.C,J5*%
X84129000Y-63440000D02*
X84129000Y-66100000D01*
X84129000Y-66100000D02*
X76449000Y-66100000D01*
X85399000Y-63440000D02*
X86729000Y-63440000D01*
X76449000Y-63440000D02*
X76449000Y-66100000D01*
X86729000Y-63440000D02*
X86729000Y-64770000D01*
X84129000Y-63440000D02*
X76449000Y-63440000D01*
%TO.C,J6*%
X98548500Y-63440000D02*
X98548500Y-64770000D01*
X95948500Y-63440000D02*
X88268500Y-63440000D01*
X95948500Y-66100000D02*
X88268500Y-66100000D01*
X97218500Y-63440000D02*
X98548500Y-63440000D01*
X95948500Y-63440000D02*
X95948500Y-66100000D01*
X88268500Y-63440000D02*
X88268500Y-66100000D01*
D13*
%TO.C,J7*%
X60390000Y-101700000D02*
X60390000Y-101278000D01*
X71690000Y-101700000D02*
X71690000Y-100605000D01*
X60390000Y-101700000D02*
X71690000Y-101700000D01*
D12*
%TO.C,U2*%
X71120000Y-104140000D02*
X71120000Y-106680000D01*
X53340000Y-69850000D02*
X54610000Y-69850000D01*
X60960000Y-106680000D02*
X60960000Y-113030000D01*
X50800000Y-101600000D02*
X53340000Y-101600000D01*
X60960000Y-113030000D02*
X71120000Y-113030000D01*
X60960000Y-106680000D02*
X60960000Y-104140000D01*
X50800000Y-72390000D02*
X50800000Y-101600000D01*
X53340000Y-106680000D02*
X81280000Y-106680000D01*
X53340000Y-69850000D02*
X50800000Y-72390000D01*
X53340000Y-101600000D02*
X53340000Y-106680000D01*
X81280000Y-72390000D02*
X81280000Y-106680000D01*
X78740000Y-69850000D02*
X81280000Y-72390000D01*
X78740000Y-69850000D02*
X54610000Y-69850000D01*
X60960000Y-104140000D02*
X71120000Y-104140000D01*
X71120000Y-113030000D02*
X71120000Y-106680000D01*
G36*
X53340000Y-105410000D02*
G01*
X52070000Y-105410000D01*
X52070000Y-102870000D01*
X53340000Y-102870000D01*
X53340000Y-105410000D01*
G37*
D14*
X53340000Y-105410000D02*
X52070000Y-105410000D01*
X52070000Y-102870000D01*
X53340000Y-102870000D01*
X53340000Y-105410000D01*
D12*
%TO.C,J2*%
X48320000Y-97790000D02*
X48320000Y-99120000D01*
X45660000Y-96520000D02*
X45660000Y-93920000D01*
X48320000Y-99120000D02*
X46990000Y-99120000D01*
X48320000Y-96520000D02*
X48320000Y-93920000D01*
X48320000Y-96520000D02*
X45660000Y-96520000D01*
X48320000Y-93920000D02*
X45660000Y-93920000D01*
%TO.C,J9*%
X59630000Y-58928000D02*
X59630000Y-58988000D01*
X59630000Y-57658000D02*
X59630000Y-56328000D01*
X59630000Y-58988000D02*
X62290000Y-58988000D01*
X59630000Y-58928000D02*
X62290000Y-58928000D01*
X59630000Y-56328000D02*
X60960000Y-56328000D01*
X62290000Y-58928000D02*
X62290000Y-58988000D01*
%TO.C,R1*%
X53172500Y-72039564D02*
X53172500Y-70585436D01*
X51352500Y-72039564D02*
X51352500Y-70585436D01*
%TO.C,J4*%
X48320000Y-83880000D02*
X46990000Y-83880000D01*
X45660000Y-81280000D02*
X45660000Y-78680000D01*
X48320000Y-82550000D02*
X48320000Y-83880000D01*
X48320000Y-78680000D02*
X45660000Y-78680000D01*
X48320000Y-81280000D02*
X45660000Y-81280000D01*
X48320000Y-81280000D02*
X48320000Y-78680000D01*
%TO.C,J1*%
X102870000Y-63440000D02*
X108010000Y-63440000D01*
X100270000Y-66100000D02*
X100270000Y-64770000D01*
X101600000Y-66100000D02*
X100270000Y-66100000D01*
X102870000Y-66100000D02*
X102870000Y-63440000D01*
X102870000Y-66100000D02*
X108010000Y-66100000D01*
X108010000Y-66100000D02*
X108010000Y-63440000D01*
%TO.C,J8*%
X45660000Y-70298000D02*
X46990000Y-70298000D01*
X48320000Y-72898000D02*
X48320000Y-75498000D01*
X45660000Y-72898000D02*
X45660000Y-75498000D01*
X45660000Y-75498000D02*
X48320000Y-75498000D01*
X45660000Y-72898000D02*
X48320000Y-72898000D01*
X45660000Y-71628000D02*
X45660000Y-70298000D01*
%TO.C,U1*%
X83566000Y-106934000D02*
X83566000Y-68834000D01*
X83566000Y-68834000D02*
X108966000Y-68834000D01*
X108966000Y-106934000D02*
X83566000Y-106934000D01*
X108966000Y-68834000D02*
X108966000Y-106934000D01*
X87937620Y-104394000D02*
G75*
G03*
X87937620Y-104394000I-1831620J0D01*
G01*
X108257620Y-104394000D02*
G75*
G03*
X108257620Y-104394000I-1831620J0D01*
G01*
X87937620Y-71374000D02*
G75*
G03*
X87937620Y-71374000I-1831620J0D01*
G01*
X108257620Y-71374000D02*
G75*
G03*
X108257620Y-71374000I-1831620J0D01*
G01*
%TO.C,R2*%
X76348000Y-72924564D02*
X76348000Y-71470436D01*
X74528000Y-72924564D02*
X74528000Y-71470436D01*
%TO.C,IC1*%
X66802000Y-83546000D02*
X70302000Y-83546000D01*
X66802000Y-73426000D02*
X64852000Y-73426000D01*
X66802000Y-83546000D02*
X64852000Y-83546000D01*
X66802000Y-73426000D02*
X68752000Y-73426000D01*
%TO.C,C3*%
X72440748Y-87016000D02*
X73863252Y-87016000D01*
X72440748Y-85196000D02*
X73863252Y-85196000D01*
%TO.C,R3*%
X73808000Y-72924564D02*
X73808000Y-71470436D01*
X71988000Y-72924564D02*
X71988000Y-71470436D01*
%TO.C,D2*%
X45372000Y-62020000D02*
X52672000Y-62020000D01*
X45372000Y-67520000D02*
X52672000Y-67520000D01*
X52672000Y-67520000D02*
X52672000Y-66370000D01*
%TO.C,J10*%
X63342000Y-55976000D02*
X75342000Y-55976000D01*
X75342000Y-55976000D02*
X75342000Y-67976000D01*
X75342000Y-67976000D02*
X63342000Y-67976000D01*
X63342000Y-67976000D02*
X63342000Y-55976000D01*
X74042000Y-61976000D02*
G75*
G03*
X74042000Y-61976000I-4700000J0D01*
G01*
%TO.C,Y1*%
X59532000Y-76290000D02*
X60132000Y-75390000D01*
X60412000Y-76290000D02*
X57952000Y-76290000D01*
X60132000Y-75390000D02*
X60132000Y-75190000D01*
X60412000Y-83190000D02*
X60412000Y-76290000D01*
X58232000Y-75390000D02*
X58232000Y-75190000D01*
X58832000Y-76290000D02*
X58232000Y-75390000D01*
X57952000Y-76290000D02*
X57952000Y-83190000D01*
X57952000Y-83190000D02*
X60412000Y-83190000D01*
%TO.C,C2*%
X62884000Y-86300437D02*
X63948437Y-85236000D01*
X63948437Y-85236000D02*
X69704000Y-85236000D01*
X63948437Y-92056000D02*
X69704000Y-92056000D01*
X62884000Y-86300437D02*
X62884000Y-87586000D01*
X62884000Y-90991563D02*
X62884000Y-89706000D01*
X62884000Y-90991563D02*
X63948437Y-92056000D01*
X69704000Y-85236000D02*
X69704000Y-87586000D01*
X69704000Y-92056000D02*
X69704000Y-89706000D01*
%TD*%
M02*
