%TF.GenerationSoftware,KiCad,Pcbnew,7.0.2-6a45011f42~172~ubuntu22.04.1*%
%TF.CreationDate,2023-05-07T23:46:39+02:00*%
%TF.ProjectId,mp3alarm,6d703361-6c61-4726-9d2e-6b696361645f,v0.2*%
%TF.SameCoordinates,Original*%
%TF.FileFunction,Copper,L1,Top*%
%TF.FilePolarity,Positive*%
%FSLAX46Y46*%
G04 Gerber Fmt 4.6, Leading zero omitted, Abs format (unit mm)*
G04 Created by KiCad (PCBNEW 7.0.2-6a45011f42~172~ubuntu22.04.1) date 2023-05-07 23:46:39*
%MOMM*%
%LPD*%
G01*
G04 APERTURE LIST*
G04 Aperture macros list*
%AMRoundRect*
0 Rectangle with rounded corners*
0 $1 Rounding radius*
0 $2 $3 $4 $5 $6 $7 $8 $9 X,Y pos of 4 corners*
0 Add a 4 corners polygon primitive as box body*
4,1,4,$2,$3,$4,$5,$6,$7,$8,$9,$2,$3,0*
0 Add four circle primitives for the rounded corners*
1,1,$1+$1,$2,$3*
1,1,$1+$1,$4,$5*
1,1,$1+$1,$6,$7*
1,1,$1+$1,$8,$9*
0 Add four rect primitives between the rounded corners*
20,1,$1+$1,$2,$3,$4,$5,0*
20,1,$1+$1,$4,$5,$6,$7,0*
20,1,$1+$1,$6,$7,$8,$9,0*
20,1,$1+$1,$8,$9,$2,$3,0*%
G04 Aperture macros list end*
%TA.AperFunction,ComponentPad*%
%ADD10C,5.000000*%
%TD*%
%TA.AperFunction,ComponentPad*%
%ADD11C,4.000000*%
%TD*%
%TA.AperFunction,SMDPad,CuDef*%
%ADD12R,1.500000X0.900000*%
%TD*%
%TA.AperFunction,SMDPad,CuDef*%
%ADD13RoundRect,0.250000X-0.650000X0.325000X-0.650000X-0.325000X0.650000X-0.325000X0.650000X0.325000X0*%
%TD*%
%TA.AperFunction,ComponentPad*%
%ADD14R,1.700000X1.700000*%
%TD*%
%TA.AperFunction,ComponentPad*%
%ADD15O,1.700000X1.700000*%
%TD*%
%TA.AperFunction,SMDPad,CuDef*%
%ADD16R,0.500000X1.000000*%
%TD*%
%TA.AperFunction,SMDPad,CuDef*%
%ADD17R,0.720000X0.780000*%
%TD*%
%TA.AperFunction,SMDPad,CuDef*%
%ADD18R,1.050000X1.080000*%
%TD*%
%TA.AperFunction,SMDPad,CuDef*%
%ADD19R,1.050000X1.200000*%
%TD*%
%TA.AperFunction,SMDPad,CuDef*%
%ADD20R,1.050000X2.390000*%
%TD*%
%TA.AperFunction,SMDPad,CuDef*%
%ADD21R,2.910000X0.550000*%
%TD*%
%TA.AperFunction,ComponentPad*%
%ADD22C,1.400000*%
%TD*%
%TA.AperFunction,SMDPad,CuDef*%
%ADD23RoundRect,0.250000X0.625000X-0.312500X0.625000X0.312500X-0.625000X0.312500X-0.625000X-0.312500X0*%
%TD*%
%TA.AperFunction,ComponentPad*%
%ADD24C,1.524000*%
%TD*%
%TA.AperFunction,ComponentPad*%
%ADD25C,6.400000*%
%TD*%
%TA.AperFunction,SMDPad,CuDef*%
%ADD26RoundRect,0.150000X0.850000X0.150000X-0.850000X0.150000X-0.850000X-0.150000X0.850000X-0.150000X0*%
%TD*%
%TA.AperFunction,SMDPad,CuDef*%
%ADD27RoundRect,0.250000X-0.325000X-0.650000X0.325000X-0.650000X0.325000X0.650000X-0.325000X0.650000X0*%
%TD*%
%TA.AperFunction,ComponentPad*%
%ADD28C,1.000000*%
%TD*%
%TA.AperFunction,SMDPad,CuDef*%
%ADD29RoundRect,0.250000X-1.412500X-0.550000X1.412500X-0.550000X1.412500X0.550000X-1.412500X0.550000X0*%
%TD*%
%TA.AperFunction,ViaPad*%
%ADD30C,0.800000*%
%TD*%
%TA.AperFunction,Conductor*%
%ADD31C,0.254000*%
%TD*%
%TA.AperFunction,Conductor*%
%ADD32C,0.635000*%
%TD*%
G04 APERTURE END LIST*
D10*
%TO.P,J10,1,In*%
%TO.N,ANT*%
X69342000Y-61976000D03*
D11*
%TO.P,J10,2,Ext*%
%TO.N,GND*%
X65227000Y-57861000D03*
X65227000Y-66091000D03*
X73457000Y-57861000D03*
X73457000Y-66091000D03*
%TD*%
D12*
%TO.P,D1,1,VDD*%
%TO.N,VCC*%
X53938000Y-63120000D03*
%TO.P,D1,2,DOUT*%
%TO.N,Net-(D1-Pad2)*%
X53938000Y-66420000D03*
%TO.P,D1,3,VSS*%
%TO.N,GND*%
X58838000Y-66420000D03*
%TO.P,D1,4,DIN*%
%TO.N,Net-(D1-Pad4)*%
X58838000Y-63120000D03*
%TD*%
D13*
%TO.P,C1,1*%
%TO.N,ANT*%
X61722000Y-63041000D03*
%TO.P,C1,2*%
%TO.N,Net-(C1-Pad2)*%
X61722000Y-65991000D03*
%TD*%
D14*
%TO.P,J3,1,Pin_1*%
%TO.N,GND*%
X46482000Y-90170000D03*
D15*
%TO.P,J3,2,Pin_2*%
%TO.N,SW1*%
X46482000Y-87630000D03*
%TD*%
D14*
%TO.P,J5,1,Pin_1*%
%TO.N,SCL*%
X85399000Y-64770000D03*
D15*
%TO.P,J5,2,Pin_2*%
%TO.N,SDA*%
X82859000Y-64770000D03*
%TO.P,J5,3,Pin_3*%
%TO.N,GND*%
X80319000Y-64770000D03*
%TO.P,J5,4,Pin_4*%
%TO.N,VCC*%
X77779000Y-64770000D03*
%TD*%
D14*
%TO.P,J6,1,Pin_1*%
%TO.N,TM_CLK*%
X97218500Y-64770000D03*
D15*
%TO.P,J6,2,Pin_2*%
%TO.N,TM_DIO*%
X94678500Y-64770000D03*
%TO.P,J6,3,Pin_3*%
%TO.N,GND*%
X92138500Y-64770000D03*
%TO.P,J6,4,Pin_4*%
%TO.N,5V*%
X89598500Y-64770000D03*
%TD*%
D16*
%TO.P,J7,1,DAT2*%
%TO.N,unconnected-(J7-Pad1)*%
X69590000Y-102590000D03*
%TO.P,J7,2,CD/DAT3*%
%TO.N,SD_CD*%
X68490000Y-102590000D03*
%TO.P,J7,3,CMD*%
%TO.N,SD_CMD*%
X67390000Y-102590000D03*
%TO.P,J7,4,VDD*%
%TO.N,VCC*%
X66290000Y-102590000D03*
%TO.P,J7,5,CLK*%
%TO.N,SD_CLK*%
X65190000Y-102590000D03*
%TO.P,J7,6,VSS*%
%TO.N,GND*%
X64090000Y-102590000D03*
%TO.P,J7,7,DAT0*%
%TO.N,SD_DATA0*%
X62990000Y-102590000D03*
%TO.P,J7,8,DAT1*%
%TO.N,unconnected-(J7-Pad8)*%
X61890000Y-102590000D03*
D17*
%TO.P,J7,9,DET*%
%TO.N,unconnected-(J7-Pad9)*%
X71350000Y-99910000D03*
D18*
%TO.P,J7,10,GND_1*%
%TO.N,GND*%
X71365000Y-98640000D03*
D19*
%TO.P,J7,11,GND_2*%
X71365000Y-96030000D03*
%TO.P,J7,12,GND_3*%
X60715000Y-96600000D03*
D20*
%TO.P,J7,13,GND_4*%
X60715000Y-99785000D03*
D21*
%TO.P,J7,14*%
%TO.N,N/C*%
X68026000Y-95355000D03*
%TO.P,J7,15*%
X63836000Y-95355000D03*
%TD*%
D22*
%TO.P,U2,1,GND*%
%TO.N,GND*%
X52070000Y-77470000D03*
%TO.P,U2,2,RST*%
%TO.N,unconnected-(U2-Pad2)*%
X54610000Y-77470000D03*
%TO.P,U2,3,NC*%
%TO.N,unconnected-(U2-Pad3)*%
X52070000Y-80010000D03*
%TO.P,U2,4,IO_36/SVP/A0*%
%TO.N,SW1*%
X54610000Y-80010000D03*
%TO.P,U2,5,IO_39/SVN*%
%TO.N,SW2*%
X52070000Y-82550000D03*
%TO.P,U2,6,IO_26/D0*%
%TO.N,STATUS_DATA*%
X54610000Y-82550000D03*
%TO.P,U2,7,IO_35*%
%TO.N,I2S_RADIO_DOUT*%
X52070000Y-85090000D03*
%TO.P,U2,8,IO_18/D5*%
%TO.N,SD_CLK*%
X54610000Y-85090000D03*
%TO.P,U2,9,IO_33*%
%TO.N,RDA_R*%
X52070000Y-87630000D03*
%TO.P,U2,10,IO_19/D6*%
%TO.N,SD_DATA0*%
X54610000Y-87630000D03*
%TO.P,U2,11,IO_34*%
%TO.N,SW0*%
X52070000Y-90170000D03*
%TO.P,U2,12,IO_23/D7*%
%TO.N,SD_CMD*%
X54610000Y-90170000D03*
%TO.P,U2,13,IO_14/TMS*%
%TO.N,TMS*%
X52070000Y-92710000D03*
%TO.P,U2,14,IO_05/D8*%
%TO.N,SD_CD*%
X54610000Y-92710000D03*
%TO.P,U2,15,NC*%
%TO.N,unconnected-(U2-Pad15)*%
X52070000Y-95250000D03*
%TO.P,U2,16,3V3*%
%TO.N,VCC*%
X54610000Y-95250000D03*
%TO.P,U2,17,IO_09/SD2*%
%TO.N,unconnected-(U2-Pad17)*%
X52070000Y-97790000D03*
%TO.P,U2,18,IO_13/TCK*%
%TO.N,TCK*%
X54610000Y-97790000D03*
%TO.P,U2,19,CMD*%
%TO.N,unconnected-(U2-Pad19)*%
X52070000Y-100330000D03*
%TO.P,U2,20,IO_10/SD3*%
%TO.N,unconnected-(U2-Pad20)*%
X54610000Y-100330000D03*
%TO.P,U2,21,TXD*%
%TO.N,unconnected-(U2-Pad21)*%
X77470000Y-77470000D03*
%TO.P,U2,22,GND*%
%TO.N,GND*%
X80010000Y-77470000D03*
%TO.P,U2,23,RXD*%
%TO.N,unconnected-(U2-Pad23)*%
X77470000Y-80010000D03*
%TO.P,U2,24,IO_27*%
%TO.N,I2S_LRC*%
X80010000Y-80010000D03*
%TO.P,U2,25,IO_22/D1/SCL*%
%TO.N,SCL*%
X77470000Y-82550000D03*
%TO.P,U2,26,IO_25*%
%TO.N,I2S_DIN*%
X80010000Y-82550000D03*
%TO.P,U2,27,IO_21/D2/SDA*%
%TO.N,SDA*%
X77470000Y-85090000D03*
%TO.P,U2,28,IO_32*%
%TO.N,I2S_MUTE*%
X80010000Y-85090000D03*
%TO.P,U2,29,IO_17/D3*%
%TO.N,TM_DIO*%
X77470000Y-87630000D03*
%TO.P,U2,30,IO_12/TDI*%
%TO.N,TDI*%
X80010000Y-87630000D03*
%TO.P,U2,31,IO_16/D4*%
%TO.N,TM_CLK*%
X77470000Y-90170000D03*
%TO.P,U2,32,IO_04*%
%TO.N,I2S_BCLK*%
X80010000Y-90170000D03*
%TO.P,U2,33,GND*%
%TO.N,GND*%
X77470000Y-92710000D03*
%TO.P,U2,34,IO_00*%
%TO.N,unconnected-(U2-Pad34)*%
X80010000Y-92710000D03*
%TO.P,U2,35,VCC_(USB)*%
%TO.N,5V*%
X77470000Y-95250000D03*
%TO.P,U2,36,IO_02*%
%TO.N,unconnected-(U2-Pad36)*%
X80010000Y-95250000D03*
%TO.P,U2,37,TD0*%
%TO.N,TDO*%
X77470000Y-97790000D03*
%TO.P,U2,38,SD1*%
%TO.N,unconnected-(U2-Pad38)*%
X80010000Y-97790000D03*
%TO.P,U2,39,SD0*%
%TO.N,unconnected-(U2-Pad39)*%
X77470000Y-100330000D03*
%TO.P,U2,40,CLK*%
%TO.N,unconnected-(U2-Pad40)*%
X80010000Y-100330000D03*
%TD*%
D14*
%TO.P,J2,1,Pin_1*%
%TO.N,GND*%
X46482000Y-97790000D03*
D15*
%TO.P,J2,2,Pin_2*%
%TO.N,SW0*%
X46482000Y-95250000D03*
%TD*%
D14*
%TO.P,J9,1,Pin_1*%
%TO.N,ANT*%
X60960000Y-57658000D03*
%TD*%
D23*
%TO.P,R1,1*%
%TO.N,STATUS_DATA*%
X52262500Y-72775000D03*
%TO.P,R1,2*%
%TO.N,Net-(D1-Pad4)*%
X52262500Y-69850000D03*
%TD*%
D14*
%TO.P,J4,1,Pin_1*%
%TO.N,GND*%
X46482000Y-82550000D03*
D15*
%TO.P,J4,2,Pin_2*%
%TO.N,SW2*%
X46482000Y-80010000D03*
%TD*%
D14*
%TO.P,J1,1,Pin_1*%
%TO.N,Net-(J1-Pad1)*%
X101600000Y-64770000D03*
D15*
%TO.P,J1,2,Pin_2*%
%TO.N,GND*%
X104140000Y-64770000D03*
%TO.P,J1,3,Pin_3*%
%TO.N,Net-(J1-Pad3)*%
X106680000Y-64770000D03*
%TD*%
D14*
%TO.P,J8,1,Pin_1*%
%TO.N,GND*%
X46482000Y-71628000D03*
D15*
%TO.P,J8,2,Pin_2*%
%TO.N,5V*%
X46482000Y-74168000D03*
%TD*%
D24*
%TO.P,U1,1,VIN*%
%TO.N,5V*%
X86106000Y-76454000D03*
%TO.P,U1,2,3VO*%
%TO.N,unconnected-(U1-Pad2)*%
X86106000Y-78994000D03*
%TO.P,U1,3,GND*%
%TO.N,GND*%
X86106000Y-81534000D03*
%TO.P,U1,4,WSEL*%
%TO.N,I2S_LRC*%
X86106000Y-84074000D03*
%TO.P,U1,5,DIN*%
%TO.N,I2S_DIN*%
X86106000Y-86614000D03*
%TO.P,U1,6,BCLK*%
%TO.N,I2S_BCLK*%
X86106000Y-89154000D03*
%TO.P,U1,7,Lout*%
%TO.N,Net-(J1-Pad1)*%
X86106000Y-91694000D03*
%TO.P,U1,8,AGND*%
%TO.N,GND*%
X86106000Y-94234000D03*
%TO.P,U1,9,Rout*%
%TO.N,Net-(J1-Pad3)*%
X86106000Y-96774000D03*
%TO.P,U1,10,SCLK*%
%TO.N,unconnected-(U1-Pad10)*%
X106426000Y-78994000D03*
%TO.P,U1,11,SF1*%
%TO.N,unconnected-(U1-Pad11)*%
X106426000Y-81534000D03*
%TO.P,U1,12,MUTE*%
%TO.N,I2S_MUTE*%
X106426000Y-84074000D03*
%TO.P,U1,13,SF0*%
%TO.N,unconnected-(U1-Pad13)*%
X106426000Y-86614000D03*
%TO.P,U1,14,PLL*%
%TO.N,unconnected-(U1-Pad14)*%
X106426000Y-89154000D03*
%TO.P,U1,15,DEEM*%
%TO.N,unconnected-(U1-Pad15)*%
X106426000Y-91694000D03*
%TD*%
D23*
%TO.P,R4,1*%
%TO.N,VCC*%
X49530000Y-97977500D03*
%TO.P,R4,2*%
%TO.N,SW0*%
X49530000Y-95052500D03*
%TD*%
D25*
%TO.P,H2,1,1*%
%TO.N,GND*%
X48000000Y-104000000D03*
%TD*%
%TO.P,H4,1,1*%
%TO.N,GND*%
X107000000Y-58000000D03*
%TD*%
D23*
%TO.P,R2,1*%
%TO.N,SCL*%
X75438000Y-73660000D03*
%TO.P,R2,2*%
%TO.N,VCC*%
X75438000Y-70735000D03*
%TD*%
D26*
%TO.P,IC1,1,GPIO1*%
%TO.N,I2S_LRC*%
X69302000Y-82931000D03*
%TO.P,IC1,2,GND*%
%TO.N,GND*%
X69302000Y-81661000D03*
%TO.P,IC1,3,RF_GND*%
X69302000Y-80391000D03*
%TO.P,IC1,4,FMIN*%
%TO.N,Net-(C1-Pad2)*%
X69302000Y-79121000D03*
%TO.P,IC1,5,GND*%
%TO.N,GND*%
X69302000Y-77851000D03*
%TO.P,IC1,6,GND*%
X69302000Y-76581000D03*
%TO.P,IC1,7,SCL*%
%TO.N,SCL*%
X69302000Y-75311000D03*
%TO.P,IC1,8,SDA*%
%TO.N,SDA*%
X69302000Y-74041000D03*
%TO.P,IC1,9,RCLK*%
%TO.N,Net-(IC1-Pad9)*%
X64302000Y-74041000D03*
%TO.P,IC1,10,VDD*%
%TO.N,VCC*%
X64302000Y-75311000D03*
%TO.P,IC1,11,GND*%
%TO.N,GND*%
X64302000Y-76581000D03*
%TO.P,IC1,12,ROUT*%
%TO.N,unconnected-(IC1-Pad12)*%
X64302000Y-77851000D03*
%TO.P,IC1,13,LOUT*%
%TO.N,unconnected-(IC1-Pad13)*%
X64302000Y-79121000D03*
%TO.P,IC1,14,GND*%
%TO.N,GND*%
X64302000Y-80391000D03*
%TO.P,IC1,15,GPIO3*%
%TO.N,I2S_BCLK*%
X64302000Y-81661000D03*
%TO.P,IC1,16,GPIO2*%
%TO.N,I2S_RADIO_DOUT*%
X64302000Y-82931000D03*
%TD*%
D23*
%TO.P,R5,1*%
%TO.N,VCC*%
X49530000Y-90362500D03*
%TO.P,R5,2*%
%TO.N,SW1*%
X49530000Y-87437500D03*
%TD*%
D27*
%TO.P,C3,1*%
%TO.N,VCC*%
X71677000Y-86106000D03*
%TO.P,C3,2*%
%TO.N,GND*%
X74627000Y-86106000D03*
%TD*%
D23*
%TO.P,R3,1*%
%TO.N,SDA*%
X72898000Y-73660000D03*
%TO.P,R3,2*%
%TO.N,VCC*%
X72898000Y-70735000D03*
%TD*%
D12*
%TO.P,D2,1,VDD*%
%TO.N,VCC*%
X46572000Y-63120000D03*
%TO.P,D2,2,DOUT*%
%TO.N,unconnected-(D2-Pad2)*%
X46572000Y-66420000D03*
%TO.P,D2,3,VSS*%
%TO.N,GND*%
X51472000Y-66420000D03*
%TO.P,D2,4,DIN*%
%TO.N,Net-(D1-Pad2)*%
X51472000Y-63120000D03*
%TD*%
D23*
%TO.P,R6,1*%
%TO.N,VCC*%
X49530000Y-82996500D03*
%TO.P,R6,2*%
%TO.N,SW2*%
X49530000Y-80071500D03*
%TD*%
D25*
%TO.P,H3,1,1*%
%TO.N,GND*%
X107000000Y-104000000D03*
%TD*%
%TO.P,H1,1,1*%
%TO.N,GND*%
X48000000Y-58000000D03*
%TD*%
D28*
%TO.P,Y1,1,1*%
%TO.N,Net-(IC1-Pad9)*%
X58232000Y-74490000D03*
%TO.P,Y1,2,2*%
%TO.N,GND*%
X60132000Y-74490000D03*
%TD*%
D29*
%TO.P,C2,1*%
%TO.N,VCC*%
X63756500Y-88646000D03*
%TO.P,C2,2*%
%TO.N,GND*%
X68831500Y-88646000D03*
%TD*%
D30*
%TO.N,GND*%
X87376000Y-80518000D03*
X84074000Y-83312000D03*
X61214000Y-92202000D03*
X89916000Y-86360000D03*
X92456000Y-70358000D03*
X83566000Y-87884000D03*
X64008000Y-103886000D03*
X84582000Y-99568000D03*
%TO.N,VCC*%
X49530000Y-84582000D03*
X49530000Y-92202000D03*
X49530000Y-99822000D03*
X61214000Y-88646000D03*
X103632000Y-93472000D03*
X55939477Y-102813525D03*
%TO.N,SDA*%
X72898000Y-74530500D03*
%TO.N,5V*%
X56896000Y-85852000D03*
X56896000Y-74168000D03*
%TO.N,SD_CMD*%
X65024000Y-106953000D03*
X67567455Y-103628545D03*
%TO.N,SD_CD*%
X68580000Y-104140000D03*
X66802000Y-106172000D03*
%TO.N,Net-(C1-Pad2)*%
X67056000Y-78994000D03*
X61976000Y-68326000D03*
%TO.N,I2S_BCLK*%
X66548000Y-81788000D03*
%TO.N,Net-(IC1-Pad9)*%
X63500000Y-73152000D03*
%TO.N,I2S_MUTE*%
X90932000Y-84582000D03*
X82296000Y-85852000D03*
%TO.N,I2S_RADIO_DOUT*%
X64262000Y-84074000D03*
%TO.N,Net-(D1-Pad4)*%
X52324000Y-68834000D03*
X56896000Y-64262000D03*
%TO.N,TDI*%
X92710000Y-101092000D03*
X82550000Y-89389500D03*
%TO.N,TDO*%
X91186000Y-102108000D03*
%TD*%
D31*
%TO.N,Net-(J1-Pad1)*%
X101600000Y-64770000D02*
X101600000Y-76200000D01*
X101600000Y-76200000D02*
X86106000Y-91694000D01*
%TO.N,SW0*%
X50800000Y-91440000D02*
X50800000Y-94036500D01*
X49784000Y-95052500D02*
X49586500Y-95250000D01*
X49586500Y-95250000D02*
X46482000Y-95250000D01*
X50800000Y-94036500D02*
X49784000Y-95052500D01*
X52070000Y-90170000D02*
X50800000Y-91440000D01*
%TO.N,SW1*%
X52517765Y-83631000D02*
X52000235Y-83631000D01*
X52000235Y-83631000D02*
X49530000Y-86101235D01*
X53340000Y-82808765D02*
X53340000Y-81280000D01*
X53340000Y-81280000D02*
X54610000Y-80010000D01*
X49530000Y-86101235D02*
X49530000Y-87437500D01*
X52517765Y-83631000D02*
X53340000Y-82808765D01*
X49530000Y-87437500D02*
X49337500Y-87630000D01*
X49337500Y-87630000D02*
X46482000Y-87630000D01*
%TO.N,SW2*%
X49722500Y-80010000D02*
X46482000Y-80010000D01*
X49784000Y-80071500D02*
X49722500Y-80010000D01*
X49784000Y-80264000D02*
X49784000Y-80071500D01*
X52070000Y-82550000D02*
X49784000Y-80264000D01*
D32*
%TO.N,VCC*%
X62728000Y-87620000D02*
X61214000Y-86106000D01*
X61214000Y-76454000D02*
X62357000Y-75311000D01*
X55881501Y-102871501D02*
X55939477Y-102813525D01*
X49530000Y-92202000D02*
X49530000Y-90362500D01*
X64302000Y-75311000D02*
X65052355Y-75311000D01*
X65052355Y-75311000D02*
X69628355Y-70735000D01*
X76200000Y-103632000D02*
X98298000Y-103632000D01*
X66290000Y-102590000D02*
X66290000Y-103725000D01*
X77779000Y-69033000D02*
X77779000Y-64770000D01*
X61214000Y-86106000D02*
X61214000Y-76454000D01*
X54610000Y-95250000D02*
X55881501Y-96521501D01*
X74930000Y-89359000D02*
X74930000Y-102362000D01*
X53938000Y-62828000D02*
X53086000Y-61976000D01*
X66290000Y-103268702D02*
X66290000Y-102590000D01*
X62357000Y-72724000D02*
X53938000Y-64305000D01*
X76077000Y-70735000D02*
X77779000Y-69033000D01*
X62357000Y-75311000D02*
X62357000Y-72724000D01*
X103632000Y-98298000D02*
X103632000Y-93472000D01*
X53938000Y-64305000D02*
X53938000Y-63170000D01*
X63756500Y-88646000D02*
X62730500Y-87620000D01*
X49530000Y-99822000D02*
X49530000Y-97977500D01*
X64148702Y-105410000D02*
X66290000Y-103268702D01*
X75438000Y-70735000D02*
X76077000Y-70735000D01*
X98298000Y-103632000D02*
X103632000Y-98298000D01*
X49530000Y-84582000D02*
X49530000Y-82996500D01*
X47462000Y-61976000D02*
X46318000Y-63120000D01*
X62357000Y-75311000D02*
X64302000Y-75311000D01*
X58420000Y-105410000D02*
X64148702Y-105410000D01*
X74930000Y-102362000D02*
X76200000Y-103632000D01*
X62730500Y-87620000D02*
X62728000Y-87620000D01*
X55881501Y-96521501D02*
X55881501Y-102871501D01*
X55881501Y-102871501D02*
X58420000Y-105410000D01*
X53086000Y-61976000D02*
X47462000Y-61976000D01*
X53938000Y-63170000D02*
X53938000Y-62828000D01*
X71677000Y-86106000D02*
X74930000Y-89359000D01*
X63756500Y-88646000D02*
X66296500Y-86106000D01*
X61214000Y-88646000D02*
X63756500Y-88646000D01*
X72898000Y-70735000D02*
X75438000Y-70735000D01*
X66296500Y-86106000D02*
X71677000Y-86106000D01*
X69628355Y-70735000D02*
X72898000Y-70735000D01*
D31*
%TO.N,SDA*%
X72898000Y-73660000D02*
X74879500Y-71678500D01*
X72517000Y-74041000D02*
X72898000Y-73660000D01*
X72898000Y-73660000D02*
X72898000Y-74530500D01*
X76324369Y-71678500D02*
X82859000Y-65143869D01*
X74879500Y-71678500D02*
X76324369Y-71678500D01*
X69302000Y-74041000D02*
X72517000Y-74041000D01*
X82859000Y-65143869D02*
X82859000Y-64770000D01*
%TO.N,SCL*%
X75438000Y-73660000D02*
X76509000Y-73660000D01*
X69302000Y-75311000D02*
X73787000Y-75311000D01*
X73787000Y-75311000D02*
X75438000Y-73660000D01*
X70231000Y-75311000D02*
X69302000Y-75311000D01*
X77470000Y-82550000D02*
X70231000Y-75311000D01*
X76509000Y-73660000D02*
X85399000Y-64770000D01*
%TO.N,TM_CLK*%
X86579447Y-80137000D02*
X97218500Y-69497947D01*
X85886553Y-80137000D02*
X86579447Y-80137000D01*
X78929000Y-88711000D02*
X82104001Y-88711000D01*
X82104001Y-88711000D02*
X82104001Y-86764502D01*
X77470000Y-90170000D02*
X78929000Y-88711000D01*
X97218500Y-69497947D02*
X97218500Y-64770000D01*
X81515000Y-86175501D02*
X81515000Y-84508553D01*
X81515000Y-84508553D02*
X85886553Y-80137000D01*
X82104001Y-86764502D02*
X81515000Y-86175501D01*
%TO.N,TM_DIO*%
X79756000Y-83631000D02*
X80457765Y-83631000D01*
X78551000Y-86549000D02*
X78551000Y-84836000D01*
X84836000Y-74612500D02*
X94678500Y-64770000D01*
X84836000Y-79252765D02*
X84836000Y-74612500D01*
X78551000Y-84836000D02*
X79756000Y-83631000D01*
X77470000Y-87630000D02*
X78551000Y-86549000D01*
X80457765Y-83631000D02*
X84836000Y-79252765D01*
D32*
%TO.N,5V*%
X56896000Y-85852000D02*
X56896000Y-74168000D01*
D31*
%TO.N,SD_DATA0*%
X62862999Y-103471001D02*
X61335199Y-103471001D01*
X62990000Y-102590000D02*
X62990000Y-103344000D01*
X56580011Y-98715813D02*
X56580011Y-89600011D01*
X62990000Y-103344000D02*
X62862999Y-103471001D01*
X56580011Y-89600011D02*
X54610000Y-87630000D01*
X61335199Y-103471001D02*
X56580011Y-98715813D01*
%TO.N,SD_CLK*%
X57088021Y-91022823D02*
X57088021Y-87568021D01*
X65190000Y-99124802D02*
X57088021Y-91022823D01*
X57088021Y-87568021D02*
X54610000Y-85090000D01*
X65190000Y-102590000D02*
X65190000Y-99124802D01*
%TO.N,SD_CMD*%
X50988999Y-100848881D02*
X57093118Y-106953000D01*
X53528999Y-91251001D02*
X53528999Y-93072567D01*
X50988999Y-94731119D02*
X50988999Y-100848881D01*
X51551119Y-94168999D02*
X50988999Y-94731119D01*
X67567455Y-103628545D02*
X67567455Y-102767455D01*
X54610000Y-90170000D02*
X53528999Y-91251001D01*
X57093118Y-106953000D02*
X65024000Y-106953000D01*
X67567455Y-102767455D02*
X67390000Y-102590000D01*
X52432567Y-94168999D02*
X51551119Y-94168999D01*
X53528999Y-93072567D02*
X52432567Y-94168999D01*
%TO.N,SD_CD*%
X53528999Y-101506841D02*
X58194158Y-106172000D01*
X58194158Y-106172000D02*
X66802000Y-106172000D01*
X68490000Y-104050000D02*
X68580000Y-104140000D01*
X68490000Y-102590000D02*
X68490000Y-104050000D01*
X53528999Y-93791001D02*
X53528999Y-101506841D01*
X54610000Y-92710000D02*
X53528999Y-93791001D01*
%TO.N,ANT*%
X61722000Y-63041000D02*
X60960000Y-62279000D01*
X62787000Y-61976000D02*
X69342000Y-61976000D01*
X61722000Y-63041000D02*
X62787000Y-61976000D01*
X60960000Y-62279000D02*
X60960000Y-57658000D01*
%TO.N,STATUS_DATA*%
X54610000Y-82550000D02*
X55691001Y-81468999D01*
X55691001Y-81468999D02*
X55691001Y-76203501D01*
X55691001Y-76203501D02*
X52262500Y-72775000D01*
%TO.N,Net-(C1-Pad2)*%
X67183000Y-79121000D02*
X67056000Y-78994000D01*
X61976000Y-66245000D02*
X61722000Y-65991000D01*
X69302000Y-79121000D02*
X67183000Y-79121000D01*
X61976000Y-68326000D02*
X61976000Y-66245000D01*
%TO.N,I2S_LRC*%
X78929000Y-81091000D02*
X80010000Y-80010000D01*
X78929000Y-82804000D02*
X78929000Y-81091000D01*
X69302000Y-82931000D02*
X70002000Y-83631000D01*
X78102000Y-83631000D02*
X78929000Y-82804000D01*
X70002000Y-83631000D02*
X78102000Y-83631000D01*
%TO.N,I2S_BCLK*%
X64302000Y-81661000D02*
X66421000Y-81661000D01*
X66421000Y-81661000D02*
X66548000Y-81788000D01*
%TO.N,Net-(IC1-Pad9)*%
X64302000Y-74041000D02*
X64302000Y-73954000D01*
X64302000Y-73954000D02*
X63500000Y-73152000D01*
%TO.N,I2S_MUTE*%
X82930999Y-85217001D02*
X90296999Y-85217001D01*
X82296000Y-85852000D02*
X82930999Y-85217001D01*
X90296999Y-85217001D02*
X90932000Y-84582000D01*
%TO.N,I2S_RADIO_DOUT*%
X64302000Y-82931000D02*
X64302000Y-84034000D01*
X64302000Y-84034000D02*
X64262000Y-84074000D01*
%TO.N,Net-(J1-Pad3)*%
X105283000Y-77597000D02*
X86106000Y-96774000D01*
X106680000Y-64770000D02*
X105283000Y-66167000D01*
X105283000Y-66167000D02*
X105283000Y-77597000D01*
%TO.N,Net-(D1-Pad2)*%
X53938000Y-66370000D02*
X53938000Y-65840000D01*
X54040500Y-66472500D02*
X53938000Y-66370000D01*
X53938000Y-65840000D02*
X51218000Y-63120000D01*
%TO.N,Net-(D1-Pad4)*%
X52262500Y-69850000D02*
X52262500Y-68895500D01*
X56896000Y-64262000D02*
X57746000Y-64262000D01*
X52262500Y-68895500D02*
X52324000Y-68834000D01*
X57746000Y-64262000D02*
X58838000Y-63170000D01*
%TO.N,TDI*%
X82550000Y-94834447D02*
X88807553Y-101092000D01*
X82550000Y-89389500D02*
X82550000Y-94834447D01*
X88807553Y-101092000D02*
X92710000Y-101092000D01*
%TO.N,TDO*%
X78929000Y-100777765D02*
X80259235Y-102108000D01*
X78929000Y-99249000D02*
X78929000Y-100777765D01*
X80259235Y-102108000D02*
X91186000Y-102108000D01*
X77470000Y-97790000D02*
X78929000Y-99249000D01*
%TD*%
%TA.AperFunction,Conductor*%
%TO.N,GND*%
G36*
X67711533Y-73924129D02*
G01*
X67768368Y-73966676D01*
X67793179Y-74033196D01*
X67793500Y-74042184D01*
X67793500Y-74257502D01*
X67793692Y-74259950D01*
X67793693Y-74259958D01*
X67796438Y-74294832D01*
X67836808Y-74433789D01*
X67842855Y-74454601D01*
X67924336Y-74592378D01*
X67935650Y-74611508D01*
X67931438Y-74613998D01*
X67950670Y-74649217D01*
X67945605Y-74720032D01*
X67933335Y-74739123D01*
X67935650Y-74740492D01*
X67842854Y-74897400D01*
X67796438Y-75057167D01*
X67796437Y-75057169D01*
X67796438Y-75057169D01*
X67793500Y-75094498D01*
X67793500Y-75527502D01*
X67793692Y-75529950D01*
X67793693Y-75529958D01*
X67796438Y-75564832D01*
X67830991Y-75683767D01*
X67842855Y-75724601D01*
X67917174Y-75850268D01*
X67935650Y-75881508D01*
X67931559Y-75883926D01*
X67951023Y-75919570D01*
X67945958Y-75990385D01*
X67933737Y-76009434D01*
X67936048Y-76010801D01*
X67843318Y-76167600D01*
X67797007Y-76327000D01*
X69430000Y-76327000D01*
X69498121Y-76347002D01*
X69544614Y-76400658D01*
X69556000Y-76453000D01*
X69556000Y-77597000D01*
X70806992Y-77597000D01*
X70760681Y-77437600D01*
X70667952Y-77280801D01*
X70672059Y-77278371D01*
X70652643Y-77242876D01*
X70657654Y-77172057D01*
X70670203Y-77152530D01*
X70667952Y-77151199D01*
X70768784Y-76980699D01*
X70771025Y-76982024D01*
X70796848Y-76941583D01*
X70861342Y-76911900D01*
X70931645Y-76921797D01*
X70968736Y-76947469D01*
X76241899Y-82220632D01*
X76275925Y-82282944D01*
X76274849Y-82328238D01*
X76276275Y-82328363D01*
X76275314Y-82339343D01*
X76275314Y-82339345D01*
X76256884Y-82550000D01*
X76275314Y-82760655D01*
X76290685Y-82818022D01*
X76295741Y-82836889D01*
X76294051Y-82907865D01*
X76254257Y-82966661D01*
X76188993Y-82994609D01*
X76174034Y-82995500D01*
X70936500Y-82995500D01*
X70868379Y-82975498D01*
X70821886Y-82921842D01*
X70810500Y-82869500D01*
X70810500Y-82716967D01*
X70810500Y-82714498D01*
X70807562Y-82677169D01*
X70761145Y-82517399D01*
X70676453Y-82374193D01*
X70676452Y-82374192D01*
X70668350Y-82360492D01*
X70672439Y-82358073D01*
X70652976Y-82322429D01*
X70658041Y-82251614D01*
X70670292Y-82232583D01*
X70667952Y-82231199D01*
X70760681Y-82074399D01*
X70806993Y-81915000D01*
X67797007Y-81915000D01*
X67843318Y-82074399D01*
X67936048Y-82231199D01*
X67931821Y-82233698D01*
X67951023Y-82268863D01*
X67945958Y-82339678D01*
X67933433Y-82359181D01*
X67935650Y-82360492D01*
X67842854Y-82517400D01*
X67796438Y-82677167D01*
X67794917Y-82696500D01*
X67793500Y-82714498D01*
X67793500Y-83147502D01*
X67793692Y-83149950D01*
X67793693Y-83149958D01*
X67796438Y-83184832D01*
X67842854Y-83344599D01*
X67927549Y-83487810D01*
X68045189Y-83605450D01*
X68045191Y-83605451D01*
X68045193Y-83605453D01*
X68188399Y-83690145D01*
X68348169Y-83736562D01*
X68385498Y-83739500D01*
X69159578Y-83739500D01*
X69227699Y-83759502D01*
X69248673Y-83776405D01*
X69493183Y-84020915D01*
X69506300Y-84037287D01*
X69558281Y-84086100D01*
X69561123Y-84088855D01*
X69580906Y-84108638D01*
X69584031Y-84111062D01*
X69584032Y-84111063D01*
X69584121Y-84111132D01*
X69593141Y-84118836D01*
X69625494Y-84149217D01*
X69643335Y-84159025D01*
X69659853Y-84169876D01*
X69675933Y-84182349D01*
X69716658Y-84199972D01*
X69727303Y-84205187D01*
X69766197Y-84226569D01*
X69785918Y-84231632D01*
X69804609Y-84238032D01*
X69823292Y-84246117D01*
X69867114Y-84253057D01*
X69878741Y-84255465D01*
X69921717Y-84266500D01*
X69921718Y-84266500D01*
X69942066Y-84266500D01*
X69961775Y-84268050D01*
X69981879Y-84271235D01*
X70026055Y-84267059D01*
X70037914Y-84266500D01*
X76329271Y-84266500D01*
X76397392Y-84286502D01*
X76443885Y-84340158D01*
X76453989Y-84410432D01*
X76432485Y-84464770D01*
X76419411Y-84483441D01*
X76330043Y-84675090D01*
X76275314Y-84879344D01*
X76256884Y-85090000D01*
X76275314Y-85300655D01*
X76330043Y-85504909D01*
X76419411Y-85696559D01*
X76540701Y-85869779D01*
X76690220Y-86019298D01*
X76690223Y-86019300D01*
X76690224Y-86019301D01*
X76693162Y-86021358D01*
X76863440Y-86140588D01*
X76863441Y-86140588D01*
X76863442Y-86140589D01*
X77055090Y-86229956D01*
X77084729Y-86237897D01*
X77086204Y-86238293D01*
X77146826Y-86275245D01*
X77177848Y-86339106D01*
X77169419Y-86409600D01*
X77124216Y-86464347D01*
X77086204Y-86481707D01*
X77055088Y-86490044D01*
X76863440Y-86579411D01*
X76690220Y-86700701D01*
X76540701Y-86850220D01*
X76419411Y-87023440D01*
X76330043Y-87215090D01*
X76275314Y-87419344D01*
X76256884Y-87630000D01*
X76275314Y-87840655D01*
X76330043Y-88044909D01*
X76419411Y-88236559D01*
X76540701Y-88409779D01*
X76690220Y-88559298D01*
X76863440Y-88680588D01*
X76863441Y-88680588D01*
X76863442Y-88680589D01*
X77055090Y-88769956D01*
X77084729Y-88777897D01*
X77086204Y-88778293D01*
X77146826Y-88815245D01*
X77177848Y-88879106D01*
X77169419Y-88949600D01*
X77124216Y-89004347D01*
X77086204Y-89021707D01*
X77055088Y-89030044D01*
X76863440Y-89119411D01*
X76690220Y-89240701D01*
X76540701Y-89390220D01*
X76419411Y-89563440D01*
X76330043Y-89755090D01*
X76275314Y-89959344D01*
X76256884Y-90170000D01*
X76275314Y-90380655D01*
X76330043Y-90584909D01*
X76419411Y-90776559D01*
X76540701Y-90949779D01*
X76690220Y-91099298D01*
X76863440Y-91220588D01*
X76863441Y-91220588D01*
X76863442Y-91220589D01*
X77055090Y-91309956D01*
X77087168Y-91318551D01*
X77147791Y-91355501D01*
X77178814Y-91419361D01*
X77170387Y-91489856D01*
X77125185Y-91544603D01*
X77087173Y-91561964D01*
X77055264Y-91570514D01*
X76863693Y-91659845D01*
X76813912Y-91694702D01*
X76813912Y-91694703D01*
X77430481Y-92311272D01*
X77344852Y-92324835D01*
X77231955Y-92382359D01*
X77142359Y-92471955D01*
X77084835Y-92584852D01*
X77071272Y-92670481D01*
X76454703Y-92053912D01*
X76454702Y-92053912D01*
X76419845Y-92103693D01*
X76330515Y-92295262D01*
X76275808Y-92499431D01*
X76257386Y-92709999D01*
X76275808Y-92920568D01*
X76330515Y-93124738D01*
X76419846Y-93316308D01*
X76454701Y-93366086D01*
X76454702Y-93366086D01*
X77071272Y-92749516D01*
X77084835Y-92835148D01*
X77142359Y-92948045D01*
X77231955Y-93037641D01*
X77344852Y-93095165D01*
X77430482Y-93108727D01*
X76813912Y-93725296D01*
X76813912Y-93725297D01*
X76863691Y-93760153D01*
X77055260Y-93849483D01*
X77087171Y-93858034D01*
X77147793Y-93894986D01*
X77178815Y-93958847D01*
X77170386Y-94029341D01*
X77125183Y-94084088D01*
X77087170Y-94101448D01*
X77055090Y-94110043D01*
X76863440Y-94199411D01*
X76690220Y-94320701D01*
X76540701Y-94470220D01*
X76419411Y-94643440D01*
X76330043Y-94835090D01*
X76275314Y-95039344D01*
X76256884Y-95250000D01*
X76275314Y-95460655D01*
X76330043Y-95664909D01*
X76419411Y-95856559D01*
X76540701Y-96029779D01*
X76690220Y-96179298D01*
X76690223Y-96179300D01*
X76690224Y-96179301D01*
X76716412Y-96197638D01*
X76863440Y-96300588D01*
X76863441Y-96300588D01*
X76863442Y-96300589D01*
X77055090Y-96389956D01*
X77084729Y-96397897D01*
X77086204Y-96398293D01*
X77146826Y-96435245D01*
X77177848Y-96499106D01*
X77169419Y-96569600D01*
X77124216Y-96624347D01*
X77086204Y-96641707D01*
X77055088Y-96650044D01*
X76863440Y-96739411D01*
X76690220Y-96860701D01*
X76540701Y-97010220D01*
X76419411Y-97183440D01*
X76330043Y-97375090D01*
X76275314Y-97579344D01*
X76256884Y-97790000D01*
X76275314Y-98000655D01*
X76330043Y-98204909D01*
X76419411Y-98396559D01*
X76540701Y-98569779D01*
X76690220Y-98719298D01*
X76690223Y-98719300D01*
X76690224Y-98719301D01*
X76708653Y-98732205D01*
X76863440Y-98840588D01*
X76863441Y-98840588D01*
X76863442Y-98840589D01*
X77055090Y-98929956D01*
X77084729Y-98937897D01*
X77086204Y-98938293D01*
X77146826Y-98975245D01*
X77177848Y-99039106D01*
X77169419Y-99109600D01*
X77124216Y-99164347D01*
X77086204Y-99181707D01*
X77055088Y-99190044D01*
X76863440Y-99279411D01*
X76690220Y-99400701D01*
X76540701Y-99550220D01*
X76419411Y-99723440D01*
X76330043Y-99915090D01*
X76275314Y-100119344D01*
X76256884Y-100329999D01*
X76275314Y-100540655D01*
X76330043Y-100744909D01*
X76419411Y-100936559D01*
X76540701Y-101109779D01*
X76690220Y-101259298D01*
X76863440Y-101380588D01*
X76863441Y-101380588D01*
X76863442Y-101380589D01*
X77055090Y-101469956D01*
X77259345Y-101524686D01*
X77470000Y-101543116D01*
X77680655Y-101524686D01*
X77884910Y-101469956D01*
X78076558Y-101380589D01*
X78249776Y-101259301D01*
X78288370Y-101220706D01*
X78350682Y-101186680D01*
X78421498Y-101191744D01*
X78457781Y-101212715D01*
X78496254Y-101244542D01*
X78505035Y-101252532D01*
X79750418Y-102497915D01*
X79763535Y-102514287D01*
X79815516Y-102563100D01*
X79818358Y-102565855D01*
X79838141Y-102585638D01*
X79838734Y-102586098D01*
X79876218Y-102645551D01*
X79875603Y-102716545D01*
X79836703Y-102775936D01*
X79771869Y-102804868D01*
X79755019Y-102806000D01*
X76594331Y-102806000D01*
X76526210Y-102785998D01*
X76505236Y-102769095D01*
X75792905Y-102056764D01*
X75758879Y-101994452D01*
X75756000Y-101967669D01*
X75756000Y-89397704D01*
X75756416Y-89387476D01*
X75760567Y-89336502D01*
X75760567Y-89336501D01*
X75750170Y-89260198D01*
X75749772Y-89256952D01*
X75741446Y-89180387D01*
X75741444Y-89180382D01*
X75741387Y-89179853D01*
X75736495Y-89158979D01*
X75734667Y-89154004D01*
X75709766Y-89086224D01*
X75708654Y-89083065D01*
X75686712Y-89017943D01*
X75683907Y-89009618D01*
X75674638Y-88990277D01*
X75671106Y-88984752D01*
X75653428Y-88957095D01*
X75632901Y-88924980D01*
X75631102Y-88922079D01*
X75625948Y-88913513D01*
X75591451Y-88856178D01*
X75591449Y-88856176D01*
X75591179Y-88855727D01*
X75577976Y-88838836D01*
X75551597Y-88812457D01*
X75523185Y-88784045D01*
X75520842Y-88781638D01*
X75517673Y-88778293D01*
X75467894Y-88725742D01*
X75467893Y-88725741D01*
X75467530Y-88725358D01*
X75450066Y-88710926D01*
X74402165Y-87663025D01*
X74368139Y-87600713D01*
X74373000Y-87532750D01*
X74373000Y-86360000D01*
X74881000Y-86360000D01*
X74881000Y-87514000D01*
X74999303Y-87514000D01*
X75005692Y-87513674D01*
X75106327Y-87503393D01*
X75274522Y-87447659D01*
X75425342Y-87354632D01*
X75550632Y-87229342D01*
X75643659Y-87078522D01*
X75699393Y-86910327D01*
X75709674Y-86809692D01*
X75710000Y-86803302D01*
X75710000Y-86360000D01*
X74881000Y-86360000D01*
X74373000Y-86360000D01*
X73544000Y-86360000D01*
X73544000Y-86500669D01*
X73523998Y-86568790D01*
X73470342Y-86615283D01*
X73400068Y-86625387D01*
X73335488Y-86595893D01*
X73328905Y-86589764D01*
X72797404Y-86058263D01*
X72763378Y-85995951D01*
X72760499Y-85969168D01*
X72760499Y-85852000D01*
X73544000Y-85852000D01*
X74373000Y-85852000D01*
X74373000Y-84698000D01*
X74881000Y-84698000D01*
X74881000Y-85852000D01*
X75710000Y-85852000D01*
X75710000Y-85408697D01*
X75709674Y-85402307D01*
X75699393Y-85301672D01*
X75643659Y-85133477D01*
X75550632Y-84982657D01*
X75425342Y-84857367D01*
X75274522Y-84764340D01*
X75106327Y-84708606D01*
X75005692Y-84698325D01*
X74999303Y-84698000D01*
X74881000Y-84698000D01*
X74373000Y-84698000D01*
X74254697Y-84698000D01*
X74248307Y-84698325D01*
X74147672Y-84708606D01*
X73979477Y-84764340D01*
X73828657Y-84857367D01*
X73703367Y-84982657D01*
X73610340Y-85133477D01*
X73554606Y-85301672D01*
X73544325Y-85402307D01*
X73544000Y-85408697D01*
X73544000Y-85852000D01*
X72760499Y-85852000D01*
X72760499Y-85408661D01*
X72760499Y-85408660D01*
X72760499Y-85405456D01*
X72749887Y-85301574D01*
X72694115Y-85133262D01*
X72601030Y-84982348D01*
X72601028Y-84982346D01*
X72601027Y-84982344D01*
X72475655Y-84856972D01*
X72475652Y-84856970D01*
X72324738Y-84763885D01*
X72156426Y-84708113D01*
X72156423Y-84708112D01*
X72156421Y-84708112D01*
X72055746Y-84697826D01*
X72055725Y-84697824D01*
X72052545Y-84697500D01*
X72049339Y-84697500D01*
X71304661Y-84697500D01*
X71304641Y-84697500D01*
X71301456Y-84697501D01*
X71298279Y-84697825D01*
X71298270Y-84697826D01*
X71197573Y-84708113D01*
X71029262Y-84763885D01*
X70878344Y-84856972D01*
X70752972Y-84982344D01*
X70752970Y-84982348D01*
X70659885Y-85133262D01*
X70644899Y-85178488D01*
X70639881Y-85193633D01*
X70599467Y-85252004D01*
X70533910Y-85279260D01*
X70520276Y-85280000D01*
X66335203Y-85280000D01*
X66324977Y-85279584D01*
X66320674Y-85279233D01*
X66274002Y-85275432D01*
X66197765Y-85285820D01*
X66194379Y-85286234D01*
X66117374Y-85294609D01*
X66096470Y-85299508D01*
X66023763Y-85326217D01*
X66020552Y-85327348D01*
X65947134Y-85352087D01*
X65927771Y-85361365D01*
X65862499Y-85403085D01*
X65859604Y-85404881D01*
X65793233Y-85444815D01*
X65776327Y-85458032D01*
X65721544Y-85512814D01*
X65719102Y-85515191D01*
X65662865Y-85568462D01*
X65648427Y-85585931D01*
X63933763Y-87300595D01*
X63871451Y-87334621D01*
X63844668Y-87337500D01*
X63668331Y-87337500D01*
X63600210Y-87317498D01*
X63579236Y-87300595D01*
X63341941Y-87063300D01*
X63335003Y-87055775D01*
X63307539Y-87023442D01*
X63301890Y-87016791D01*
X63301888Y-87016790D01*
X63301887Y-87016788D01*
X63271329Y-86993558D01*
X63258486Y-86982346D01*
X62076905Y-85800764D01*
X62042879Y-85738452D01*
X62040000Y-85711669D01*
X62040000Y-83147502D01*
X62793500Y-83147502D01*
X62793692Y-83149950D01*
X62793693Y-83149958D01*
X62796438Y-83184832D01*
X62842854Y-83344599D01*
X62927549Y-83487810D01*
X63045189Y-83605450D01*
X63045191Y-83605451D01*
X63045193Y-83605453D01*
X63188399Y-83690145D01*
X63267776Y-83713206D01*
X63285644Y-83718397D01*
X63345479Y-83756610D01*
X63375157Y-83821106D01*
X63370324Y-83878330D01*
X63368458Y-83884070D01*
X63348496Y-84074000D01*
X63368458Y-84263929D01*
X63427472Y-84445556D01*
X63522958Y-84610942D01*
X63553209Y-84644539D01*
X63650747Y-84752866D01*
X63805248Y-84865118D01*
X63979712Y-84942794D01*
X64166513Y-84982500D01*
X64166515Y-84982500D01*
X64357485Y-84982500D01*
X64357487Y-84982500D01*
X64544288Y-84942794D01*
X64718752Y-84865118D01*
X64873253Y-84752866D01*
X65001040Y-84610944D01*
X65096527Y-84445556D01*
X65155542Y-84263928D01*
X65175504Y-84074000D01*
X65155542Y-83884072D01*
X65155539Y-83884065D01*
X65154480Y-83873982D01*
X65167252Y-83804144D01*
X65215754Y-83752297D01*
X65244637Y-83739814D01*
X65255830Y-83736562D01*
X65255831Y-83736562D01*
X65415601Y-83690145D01*
X65558807Y-83605453D01*
X65676453Y-83487807D01*
X65761145Y-83344601D01*
X65807562Y-83184831D01*
X65810500Y-83147502D01*
X65810500Y-82714498D01*
X65807562Y-82677169D01*
X65798225Y-82645030D01*
X65798427Y-82574036D01*
X65836981Y-82514419D01*
X65901646Y-82485110D01*
X65971890Y-82495414D01*
X65993283Y-82507942D01*
X66091248Y-82579118D01*
X66265712Y-82656794D01*
X66452513Y-82696500D01*
X66452515Y-82696500D01*
X66643485Y-82696500D01*
X66643487Y-82696500D01*
X66830288Y-82656794D01*
X67004752Y-82579118D01*
X67159253Y-82466866D01*
X67287040Y-82324944D01*
X67382527Y-82159556D01*
X67441542Y-81977928D01*
X67461504Y-81788000D01*
X67441542Y-81598072D01*
X67392445Y-81446967D01*
X67382527Y-81416443D01*
X67287041Y-81251057D01*
X67159252Y-81109133D01*
X67067004Y-81042111D01*
X67004752Y-80996882D01*
X66830288Y-80919206D01*
X66643487Y-80879500D01*
X66452513Y-80879500D01*
X66373363Y-80896324D01*
X66265711Y-80919206D01*
X66192410Y-80951842D01*
X66091248Y-80996882D01*
X66084979Y-81001437D01*
X66018111Y-81025295D01*
X66010919Y-81025500D01*
X65850825Y-81025500D01*
X65782704Y-81005498D01*
X65736211Y-80951842D01*
X65726107Y-80881568D01*
X65742371Y-80835361D01*
X65760681Y-80804399D01*
X65806993Y-80645000D01*
X67797007Y-80645000D01*
X67843318Y-80804399D01*
X67936048Y-80961199D01*
X67931942Y-80963626D01*
X67951377Y-80999217D01*
X67946312Y-81070032D01*
X67933813Y-81089479D01*
X67936048Y-81090801D01*
X67843318Y-81247600D01*
X67797007Y-81407000D01*
X69048000Y-81407000D01*
X69048000Y-80645000D01*
X69556000Y-80645000D01*
X69556000Y-81407000D01*
X70806992Y-81407000D01*
X70760681Y-81247600D01*
X70667952Y-81090801D01*
X70672059Y-81088371D01*
X70652643Y-81052876D01*
X70657654Y-80982057D01*
X70670203Y-80962530D01*
X70667952Y-80961199D01*
X70760681Y-80804399D01*
X70806993Y-80645000D01*
X69556000Y-80645000D01*
X69048000Y-80645000D01*
X67797007Y-80645000D01*
X65806993Y-80645000D01*
X62797007Y-80645000D01*
X62843318Y-80804399D01*
X62936048Y-80961199D01*
X62931821Y-80963698D01*
X62951023Y-80998863D01*
X62945958Y-81069678D01*
X62933433Y-81089181D01*
X62935650Y-81090492D01*
X62927547Y-81104192D01*
X62927547Y-81104193D01*
X62924625Y-81109134D01*
X62842854Y-81247400D01*
X62796438Y-81407167D01*
X62793919Y-81439177D01*
X62793500Y-81444498D01*
X62793500Y-81877502D01*
X62793692Y-81879950D01*
X62793693Y-81879958D01*
X62796438Y-81914832D01*
X62841602Y-82070291D01*
X62842855Y-82074601D01*
X62923133Y-82210344D01*
X62935650Y-82231508D01*
X62931438Y-82233998D01*
X62950670Y-82269217D01*
X62945605Y-82340032D01*
X62933335Y-82359123D01*
X62935650Y-82360492D01*
X62842854Y-82517400D01*
X62796438Y-82677167D01*
X62794917Y-82696500D01*
X62793500Y-82714498D01*
X62793500Y-83147502D01*
X62040000Y-83147502D01*
X62040000Y-79337502D01*
X62793500Y-79337502D01*
X62793692Y-79339950D01*
X62793693Y-79339958D01*
X62796438Y-79374832D01*
X62841792Y-79530944D01*
X62842855Y-79534601D01*
X62919509Y-79664216D01*
X62935650Y-79691508D01*
X62931559Y-79693926D01*
X62951023Y-79729570D01*
X62945958Y-79800385D01*
X62933737Y-79819434D01*
X62936048Y-79820801D01*
X62843318Y-79977600D01*
X62797007Y-80137000D01*
X65806992Y-80137000D01*
X65760681Y-79977600D01*
X65667952Y-79820801D01*
X65672178Y-79818301D01*
X65652976Y-79783136D01*
X65658041Y-79712321D01*
X65670579Y-79692826D01*
X65668350Y-79691508D01*
X65680429Y-79671084D01*
X65761145Y-79534601D01*
X65807562Y-79374831D01*
X65810500Y-79337502D01*
X65810500Y-78994000D01*
X66142496Y-78994000D01*
X66143701Y-79005462D01*
X66162458Y-79183929D01*
X66221472Y-79365556D01*
X66316958Y-79530942D01*
X66316960Y-79530944D01*
X66444747Y-79672866D01*
X66599248Y-79785118D01*
X66773712Y-79862794D01*
X66960513Y-79902500D01*
X66960515Y-79902500D01*
X67151485Y-79902500D01*
X67151487Y-79902500D01*
X67338288Y-79862794D01*
X67512752Y-79785118D01*
X67519021Y-79780562D01*
X67585889Y-79756705D01*
X67593081Y-79756500D01*
X67753175Y-79756500D01*
X67821296Y-79776502D01*
X67867789Y-79830158D01*
X67877893Y-79900432D01*
X67861629Y-79946639D01*
X67843318Y-79977600D01*
X67797007Y-80137000D01*
X70806992Y-80137000D01*
X70760681Y-79977600D01*
X70667952Y-79820801D01*
X70672178Y-79818301D01*
X70652976Y-79783136D01*
X70658041Y-79712321D01*
X70670579Y-79692826D01*
X70668350Y-79691508D01*
X70680429Y-79671084D01*
X70761145Y-79534601D01*
X70807562Y-79374831D01*
X70810500Y-79337502D01*
X70810500Y-78904498D01*
X70807562Y-78867169D01*
X70761145Y-78707399D01*
X70676453Y-78564193D01*
X70676452Y-78564192D01*
X70668350Y-78550492D01*
X70672439Y-78548073D01*
X70652976Y-78512429D01*
X70658041Y-78441614D01*
X70670292Y-78422583D01*
X70667952Y-78421199D01*
X70760681Y-78264399D01*
X70806993Y-78105000D01*
X67797007Y-78105000D01*
X67806434Y-78137448D01*
X67806231Y-78208444D01*
X67767677Y-78268060D01*
X67703013Y-78297369D01*
X67632768Y-78287065D01*
X67611376Y-78274537D01*
X67602461Y-78268060D01*
X67512752Y-78202882D01*
X67338288Y-78125206D01*
X67151487Y-78085500D01*
X66960513Y-78085500D01*
X66835978Y-78111970D01*
X66773711Y-78125206D01*
X66599246Y-78202883D01*
X66444747Y-78315133D01*
X66316958Y-78457057D01*
X66221472Y-78622443D01*
X66162458Y-78804070D01*
X66155524Y-78870042D01*
X66142496Y-78994000D01*
X65810500Y-78994000D01*
X65810500Y-78904498D01*
X65807562Y-78867169D01*
X65761145Y-78707399D01*
X65676453Y-78564193D01*
X65676452Y-78564192D01*
X65668350Y-78550492D01*
X65672566Y-78547998D01*
X65653368Y-78512957D01*
X65658332Y-78442135D01*
X65670696Y-78422895D01*
X65668350Y-78421508D01*
X65681485Y-78399298D01*
X65761145Y-78264601D01*
X65807562Y-78104831D01*
X65810500Y-78067502D01*
X65810500Y-77634498D01*
X65807562Y-77597169D01*
X65761145Y-77437399D01*
X65676453Y-77294193D01*
X65676452Y-77294192D01*
X65668350Y-77280492D01*
X65672439Y-77278073D01*
X65652976Y-77242429D01*
X65658041Y-77171614D01*
X65670292Y-77152583D01*
X65667952Y-77151199D01*
X65760681Y-76994399D01*
X65806993Y-76835000D01*
X67797007Y-76835000D01*
X67843318Y-76994399D01*
X67936048Y-77151199D01*
X67931942Y-77153626D01*
X67951377Y-77189217D01*
X67946312Y-77260032D01*
X67933813Y-77279479D01*
X67936048Y-77280801D01*
X67843318Y-77437600D01*
X67797007Y-77597000D01*
X69048000Y-77597000D01*
X69048000Y-76835000D01*
X67797007Y-76835000D01*
X65806993Y-76835000D01*
X62797007Y-76835000D01*
X62843318Y-76994399D01*
X62936048Y-77151199D01*
X62931821Y-77153698D01*
X62951023Y-77188863D01*
X62945958Y-77259678D01*
X62933433Y-77279181D01*
X62935650Y-77280492D01*
X62842854Y-77437400D01*
X62796438Y-77597167D01*
X62794868Y-77617121D01*
X62793500Y-77634498D01*
X62793500Y-78067502D01*
X62793692Y-78069950D01*
X62793693Y-78069958D01*
X62796438Y-78104832D01*
X62838548Y-78249779D01*
X62842855Y-78264601D01*
X62915009Y-78386607D01*
X62935650Y-78421508D01*
X62931438Y-78423998D01*
X62950670Y-78459217D01*
X62945605Y-78530032D01*
X62933335Y-78549123D01*
X62935650Y-78550492D01*
X62842854Y-78707400D01*
X62796438Y-78867167D01*
X62796437Y-78867169D01*
X62796438Y-78867169D01*
X62793500Y-78904498D01*
X62793500Y-79337502D01*
X62040000Y-79337502D01*
X62040000Y-76848330D01*
X62060002Y-76780209D01*
X62076900Y-76759240D01*
X62570887Y-76265253D01*
X62633197Y-76231229D01*
X62704012Y-76236294D01*
X62760741Y-76278697D01*
X62797008Y-76327000D01*
X65806992Y-76327000D01*
X65760681Y-76167600D01*
X65667952Y-76010801D01*
X65672178Y-76008301D01*
X65652976Y-75973136D01*
X65658041Y-75902321D01*
X65670577Y-75882829D01*
X65668349Y-75881511D01*
X65686825Y-75850268D01*
X65706181Y-75825313D01*
X67578404Y-73953090D01*
X67640717Y-73919064D01*
X67711533Y-73924129D01*
G37*
%TD.AperFunction*%
%TA.AperFunction,Conductor*%
G36*
X81586647Y-89366502D02*
G01*
X81633140Y-89420158D01*
X81643834Y-89459326D01*
X81650924Y-89526776D01*
X81656458Y-89579429D01*
X81715472Y-89761055D01*
X81782903Y-89877848D01*
X81810960Y-89926444D01*
X81873817Y-89996253D01*
X81882136Y-90005492D01*
X81912853Y-90069500D01*
X81914500Y-90089803D01*
X81914500Y-94750377D01*
X81912199Y-94771218D01*
X81914438Y-94842458D01*
X81914500Y-94846416D01*
X81914500Y-94874430D01*
X81914995Y-94878350D01*
X81914996Y-94878366D01*
X81915012Y-94878492D01*
X81915940Y-94890297D01*
X81917334Y-94934652D01*
X81923014Y-94954202D01*
X81927022Y-94973557D01*
X81929572Y-94993743D01*
X81945906Y-95034999D01*
X81949749Y-95046226D01*
X81962130Y-95088839D01*
X81972492Y-95106361D01*
X81981189Y-95124114D01*
X81988680Y-95143034D01*
X82014764Y-95178936D01*
X82021275Y-95188848D01*
X82043866Y-95227045D01*
X82058254Y-95241433D01*
X82071091Y-95256462D01*
X82083058Y-95272934D01*
X82105326Y-95291356D01*
X82117255Y-95301224D01*
X82126035Y-95309214D01*
X88074226Y-101257405D01*
X88108252Y-101319717D01*
X88103187Y-101390532D01*
X88060640Y-101447368D01*
X87994120Y-101472179D01*
X87985131Y-101472500D01*
X80880768Y-101472500D01*
X80812647Y-101452498D01*
X80766154Y-101398842D01*
X80756050Y-101328568D01*
X80785544Y-101263988D01*
X80791673Y-101257405D01*
X80939298Y-101109779D01*
X80939298Y-101109778D01*
X80939301Y-101109776D01*
X81060589Y-100936558D01*
X81149956Y-100744910D01*
X81204686Y-100540655D01*
X81223116Y-100330000D01*
X81204686Y-100119345D01*
X81149956Y-99915090D01*
X81060589Y-99723442D01*
X80939301Y-99550224D01*
X80939300Y-99550223D01*
X80939298Y-99550220D01*
X80789779Y-99400701D01*
X80616559Y-99279411D01*
X80424907Y-99190042D01*
X80393793Y-99181705D01*
X80333171Y-99144752D01*
X80302151Y-99080891D01*
X80310581Y-99010397D01*
X80355785Y-98955651D01*
X80393798Y-98938292D01*
X80408380Y-98934385D01*
X80424907Y-98929957D01*
X80424907Y-98929956D01*
X80424910Y-98929956D01*
X80616558Y-98840589D01*
X80789776Y-98719301D01*
X80939301Y-98569776D01*
X81060589Y-98396558D01*
X81149956Y-98204910D01*
X81204686Y-98000655D01*
X81223116Y-97790000D01*
X81204686Y-97579345D01*
X81149956Y-97375090D01*
X81060589Y-97183442D01*
X81028770Y-97138000D01*
X80939298Y-97010220D01*
X80789779Y-96860701D01*
X80616559Y-96739411D01*
X80424910Y-96650043D01*
X80393796Y-96641707D01*
X80333173Y-96604755D01*
X80302152Y-96540895D01*
X80310580Y-96470400D01*
X80355783Y-96415653D01*
X80393796Y-96398293D01*
X80424910Y-96389956D01*
X80502886Y-96353595D01*
X80616558Y-96300589D01*
X80789776Y-96179301D01*
X80939301Y-96029776D01*
X81060589Y-95856558D01*
X81149956Y-95664910D01*
X81204686Y-95460655D01*
X81223116Y-95250000D01*
X81204686Y-95039345D01*
X81149956Y-94835090D01*
X81060589Y-94643442D01*
X81050554Y-94629111D01*
X80939298Y-94470220D01*
X80789779Y-94320701D01*
X80616559Y-94199411D01*
X80424907Y-94110042D01*
X80393793Y-94101705D01*
X80333171Y-94064752D01*
X80302151Y-94000891D01*
X80310581Y-93930397D01*
X80355785Y-93875651D01*
X80393798Y-93858292D01*
X80421682Y-93850821D01*
X80424907Y-93849957D01*
X80424907Y-93849956D01*
X80424910Y-93849956D01*
X80616558Y-93760589D01*
X80789776Y-93639301D01*
X80939301Y-93489776D01*
X81060589Y-93316558D01*
X81149956Y-93124910D01*
X81204686Y-92920655D01*
X81223116Y-92710000D01*
X81204686Y-92499345D01*
X81149956Y-92295090D01*
X81060589Y-92103442D01*
X80939301Y-91930224D01*
X80939300Y-91930223D01*
X80939298Y-91930220D01*
X80789779Y-91780701D01*
X80616559Y-91659411D01*
X80424910Y-91570043D01*
X80393796Y-91561707D01*
X80333173Y-91524755D01*
X80302152Y-91460895D01*
X80310580Y-91390400D01*
X80355783Y-91335653D01*
X80393796Y-91318293D01*
X80424910Y-91309956D01*
X80424914Y-91309954D01*
X80616558Y-91220589D01*
X80789776Y-91099301D01*
X80939301Y-90949776D01*
X81060589Y-90776558D01*
X81149956Y-90584910D01*
X81204686Y-90380655D01*
X81223116Y-90170000D01*
X81204686Y-89959345D01*
X81149956Y-89755090D01*
X81060589Y-89563442D01*
X81047515Y-89544770D01*
X81024828Y-89477495D01*
X81042114Y-89408635D01*
X81093884Y-89360052D01*
X81150729Y-89346500D01*
X81518526Y-89346500D01*
X81586647Y-89366502D01*
G37*
%TD.AperFunction*%
%TA.AperFunction,Conductor*%
G36*
X84929592Y-85872503D02*
G01*
X84976085Y-85926159D01*
X84986189Y-85996433D01*
X84975666Y-86031750D01*
X84924409Y-86141673D01*
X84907559Y-86177807D01*
X84850022Y-86392532D01*
X84830647Y-86614000D01*
X84850022Y-86835467D01*
X84891000Y-86988393D01*
X84907560Y-87050196D01*
X84944556Y-87129534D01*
X85001512Y-87251678D01*
X85129025Y-87433784D01*
X85286215Y-87590974D01*
X85286218Y-87590976D01*
X85286219Y-87590977D01*
X85311083Y-87608387D01*
X85468321Y-87718487D01*
X85468322Y-87718487D01*
X85468323Y-87718488D01*
X85578375Y-87769806D01*
X85631659Y-87816722D01*
X85651120Y-87884999D01*
X85630578Y-87952959D01*
X85578374Y-87998194D01*
X85548991Y-88011895D01*
X85468322Y-88049512D01*
X85286215Y-88177025D01*
X85129025Y-88334215D01*
X85001512Y-88516322D01*
X84963247Y-88598383D01*
X84907682Y-88717544D01*
X84907559Y-88717807D01*
X84850022Y-88932532D01*
X84830647Y-89154000D01*
X84850022Y-89375467D01*
X84900391Y-89563440D01*
X84907560Y-89590196D01*
X84947928Y-89676766D01*
X85001512Y-89791678D01*
X85129025Y-89973784D01*
X85286215Y-90130974D01*
X85468321Y-90258487D01*
X85468322Y-90258487D01*
X85468323Y-90258488D01*
X85578375Y-90309806D01*
X85631659Y-90356722D01*
X85651120Y-90424999D01*
X85630578Y-90492959D01*
X85578374Y-90538194D01*
X85548991Y-90551895D01*
X85468322Y-90589512D01*
X85286215Y-90717025D01*
X85129025Y-90874215D01*
X85001512Y-91056322D01*
X84907559Y-91257807D01*
X84850022Y-91472532D01*
X84830647Y-91694000D01*
X84850022Y-91915467D01*
X84900391Y-92103440D01*
X84907560Y-92130196D01*
X84958119Y-92238620D01*
X85001512Y-92331678D01*
X85129025Y-92513784D01*
X85286215Y-92670974D01*
X85286218Y-92670976D01*
X85286219Y-92670977D01*
X85468323Y-92798488D01*
X85578965Y-92850081D01*
X85632250Y-92896997D01*
X85651711Y-92965274D01*
X85631170Y-93033234D01*
X85578966Y-93078469D01*
X85468575Y-93129946D01*
X85405394Y-93174184D01*
X86084211Y-93853000D01*
X86074431Y-93853000D01*
X85980579Y-93868661D01*
X85868749Y-93929180D01*
X85782629Y-94022731D01*
X85731552Y-94139177D01*
X85725461Y-94212670D01*
X85046184Y-93533394D01*
X85001948Y-93596572D01*
X84908031Y-93797975D01*
X84850517Y-94012623D01*
X84831149Y-94233999D01*
X84850517Y-94455376D01*
X84908031Y-94670024D01*
X85001947Y-94871426D01*
X85046184Y-94934603D01*
X85046186Y-94934603D01*
X85721607Y-94259182D01*
X85721051Y-94265898D01*
X85752266Y-94389162D01*
X85821813Y-94495612D01*
X85922157Y-94573713D01*
X86042422Y-94615000D01*
X86084211Y-94615000D01*
X85405395Y-95293813D01*
X85405395Y-95293814D01*
X85468573Y-95338052D01*
X85578965Y-95389529D01*
X85632250Y-95436446D01*
X85651711Y-95504724D01*
X85631169Y-95572683D01*
X85578965Y-95617919D01*
X85468323Y-95669512D01*
X85286215Y-95797025D01*
X85129025Y-95954215D01*
X85001509Y-96136327D01*
X84997765Y-96144356D01*
X84950845Y-96197638D01*
X84882566Y-96217094D01*
X84814607Y-96196548D01*
X84794479Y-96180193D01*
X83222405Y-94608119D01*
X83188379Y-94545807D01*
X83185500Y-94519024D01*
X83185500Y-90089803D01*
X83205502Y-90021682D01*
X83217864Y-90005492D01*
X83226183Y-89996253D01*
X83289040Y-89926444D01*
X83384527Y-89761056D01*
X83443542Y-89579428D01*
X83463504Y-89389500D01*
X83443542Y-89199572D01*
X83384527Y-89017944D01*
X83384527Y-89017943D01*
X83289041Y-88852557D01*
X83174856Y-88725742D01*
X83161253Y-88710634D01*
X83128561Y-88686882D01*
X83006753Y-88598383D01*
X83006752Y-88598382D01*
X82832288Y-88520706D01*
X82832286Y-88520705D01*
X82820190Y-88515320D01*
X82821424Y-88512546D01*
X82776819Y-88488457D01*
X82742506Y-88426302D01*
X82739501Y-88398950D01*
X82739501Y-86848570D01*
X82741801Y-86827735D01*
X82741708Y-86824785D01*
X82741709Y-86824783D01*
X82739563Y-86756489D01*
X82739501Y-86752532D01*
X82739501Y-86728480D01*
X82739501Y-86724519D01*
X82739481Y-86724364D01*
X82754976Y-86655950D01*
X82790982Y-86615342D01*
X82907253Y-86530866D01*
X83035040Y-86388944D01*
X83130527Y-86223556D01*
X83189542Y-86041928D01*
X83191704Y-86021358D01*
X83197593Y-85965330D01*
X83224606Y-85899674D01*
X83282828Y-85859044D01*
X83322903Y-85852501D01*
X84861471Y-85852501D01*
X84929592Y-85872503D01*
G37*
%TD.AperFunction*%
%TA.AperFunction,Conductor*%
G36*
X78485297Y-93366087D02*
G01*
X78520156Y-93316304D01*
X78609483Y-93124740D01*
X78618034Y-93092829D01*
X78654986Y-93032206D01*
X78718846Y-93001185D01*
X78789341Y-93009613D01*
X78844088Y-93054816D01*
X78861448Y-93092829D01*
X78870043Y-93124910D01*
X78959411Y-93316559D01*
X79080701Y-93489779D01*
X79230220Y-93639298D01*
X79403440Y-93760588D01*
X79403441Y-93760588D01*
X79403442Y-93760589D01*
X79595090Y-93849956D01*
X79624729Y-93857897D01*
X79626204Y-93858293D01*
X79686826Y-93895245D01*
X79717848Y-93959106D01*
X79709419Y-94029600D01*
X79664216Y-94084347D01*
X79626204Y-94101707D01*
X79595088Y-94110044D01*
X79403440Y-94199411D01*
X79230220Y-94320701D01*
X79080701Y-94470220D01*
X78959411Y-94643440D01*
X78870044Y-94835088D01*
X78861707Y-94866204D01*
X78824755Y-94926826D01*
X78760894Y-94957848D01*
X78690400Y-94949419D01*
X78635653Y-94904216D01*
X78618293Y-94866204D01*
X78609955Y-94835088D01*
X78554768Y-94716738D01*
X78520589Y-94643442D01*
X78510554Y-94629111D01*
X78399298Y-94470220D01*
X78249779Y-94320701D01*
X78076559Y-94199411D01*
X77884910Y-94110043D01*
X77852829Y-94101448D01*
X77792207Y-94064497D01*
X77761185Y-94000636D01*
X77769613Y-93930142D01*
X77814816Y-93875395D01*
X77852829Y-93858034D01*
X77884740Y-93849483D01*
X78076304Y-93760156D01*
X78126087Y-93725297D01*
X78126087Y-93725296D01*
X77509518Y-93108727D01*
X77595148Y-93095165D01*
X77708045Y-93037641D01*
X77797641Y-92948045D01*
X77855165Y-92835148D01*
X77868727Y-92749516D01*
X78485297Y-93366087D01*
G37*
%TD.AperFunction*%
%TA.AperFunction,Conductor*%
G36*
X104394000Y-66104390D02*
G01*
X104474508Y-66090956D01*
X104480581Y-66088872D01*
X104551505Y-66085668D01*
X104612903Y-66121317D01*
X104645281Y-66184500D01*
X104647500Y-66208043D01*
X104647500Y-77281575D01*
X104627498Y-77349696D01*
X104610595Y-77370670D01*
X87590507Y-94390757D01*
X87528195Y-94424783D01*
X87457380Y-94419718D01*
X87400544Y-94377171D01*
X87375733Y-94310651D01*
X87375892Y-94290680D01*
X87380850Y-94234004D01*
X87361482Y-94012623D01*
X87303968Y-93797975D01*
X87210051Y-93596571D01*
X87165815Y-93533395D01*
X87165813Y-93533395D01*
X86490392Y-94208817D01*
X86490949Y-94202102D01*
X86459734Y-94078838D01*
X86390187Y-93972388D01*
X86289843Y-93894287D01*
X86169578Y-93853000D01*
X86127790Y-93853000D01*
X86806603Y-93174186D01*
X86806603Y-93174184D01*
X86743426Y-93129947D01*
X86633034Y-93078470D01*
X86579749Y-93031552D01*
X86560288Y-92963275D01*
X86580830Y-92895315D01*
X86633032Y-92850082D01*
X86743677Y-92798488D01*
X86925781Y-92670977D01*
X87082977Y-92513781D01*
X87210488Y-92331677D01*
X87304440Y-92130196D01*
X87361978Y-91915463D01*
X87381353Y-91694000D01*
X87361978Y-91472537D01*
X87352111Y-91435713D01*
X87353799Y-91364740D01*
X87384720Y-91314010D01*
X101989918Y-76708813D01*
X102006281Y-76695705D01*
X102008300Y-76693554D01*
X102008303Y-76693553D01*
X102055103Y-76643714D01*
X102057795Y-76640936D01*
X102077639Y-76621094D01*
X102080124Y-76617889D01*
X102087838Y-76608855D01*
X102118217Y-76576506D01*
X102128019Y-76558674D01*
X102138875Y-76542149D01*
X102151349Y-76526068D01*
X102151348Y-76526068D01*
X102151350Y-76526067D01*
X102168976Y-76485333D01*
X102174190Y-76474689D01*
X102195569Y-76435803D01*
X102200629Y-76416089D01*
X102207033Y-76397386D01*
X102215117Y-76378708D01*
X102222057Y-76334883D01*
X102224462Y-76323265D01*
X102235500Y-76280282D01*
X102235500Y-76259934D01*
X102237051Y-76240223D01*
X102240235Y-76220121D01*
X102236059Y-76175944D01*
X102235500Y-76164086D01*
X102235500Y-66254500D01*
X102255502Y-66186379D01*
X102309158Y-66139886D01*
X102361500Y-66128500D01*
X102495269Y-66128500D01*
X102498638Y-66128500D01*
X102559201Y-66121989D01*
X102696204Y-66070889D01*
X102813261Y-65983261D01*
X102900889Y-65866204D01*
X102945195Y-65747415D01*
X102987741Y-65690581D01*
X103054261Y-65665770D01*
X103123635Y-65680861D01*
X103155951Y-65706112D01*
X103217096Y-65772533D01*
X103394697Y-65910766D01*
X103592631Y-66017883D01*
X103805485Y-66090955D01*
X103886000Y-66104391D01*
X103886000Y-65203674D01*
X103997685Y-65254680D01*
X104104237Y-65270000D01*
X104175763Y-65270000D01*
X104282315Y-65254680D01*
X104394000Y-65203674D01*
X104394000Y-66104390D01*
G37*
%TD.AperFunction*%
%TA.AperFunction,Conductor*%
G36*
X78789596Y-90470579D02*
G01*
X78844344Y-90515780D01*
X78861705Y-90553793D01*
X78870042Y-90584907D01*
X78959411Y-90776559D01*
X79080701Y-90949779D01*
X79230220Y-91099298D01*
X79403440Y-91220588D01*
X79403441Y-91220588D01*
X79403442Y-91220589D01*
X79595090Y-91309956D01*
X79624729Y-91317897D01*
X79626204Y-91318293D01*
X79686826Y-91355245D01*
X79717848Y-91419106D01*
X79709419Y-91489600D01*
X79664216Y-91544347D01*
X79626204Y-91561707D01*
X79595088Y-91570044D01*
X79403440Y-91659411D01*
X79230220Y-91780701D01*
X79080701Y-91930220D01*
X78959411Y-92103440D01*
X78870043Y-92295090D01*
X78861448Y-92327170D01*
X78824496Y-92387793D01*
X78760635Y-92418814D01*
X78690141Y-92410386D01*
X78635394Y-92365183D01*
X78618034Y-92327171D01*
X78609483Y-92295260D01*
X78520153Y-92103691D01*
X78485297Y-92053912D01*
X78485295Y-92053912D01*
X77868726Y-92670480D01*
X77855165Y-92584852D01*
X77797641Y-92471955D01*
X77708045Y-92382359D01*
X77595148Y-92324835D01*
X77509517Y-92311272D01*
X78126086Y-91694702D01*
X78126086Y-91694701D01*
X78076308Y-91659846D01*
X77884736Y-91570514D01*
X77852826Y-91561964D01*
X77792204Y-91525011D01*
X77761184Y-91461150D01*
X77769614Y-91390656D01*
X77814818Y-91335910D01*
X77852825Y-91318553D01*
X77884910Y-91309956D01*
X78076558Y-91220589D01*
X78249776Y-91099301D01*
X78399301Y-90949776D01*
X78520589Y-90776558D01*
X78609956Y-90584910D01*
X78618292Y-90553798D01*
X78655242Y-90493175D01*
X78719101Y-90462152D01*
X78789596Y-90470579D01*
G37*
%TD.AperFunction*%
%TA.AperFunction,Conductor*%
G36*
X91168943Y-85480880D02*
G01*
X91225576Y-85523696D01*
X91250070Y-85590333D01*
X91234650Y-85659635D01*
X91213445Y-85687820D01*
X87591057Y-89310208D01*
X87528745Y-89344234D01*
X87457930Y-89339169D01*
X87401094Y-89296622D01*
X87376283Y-89230102D01*
X87376442Y-89210131D01*
X87377366Y-89199570D01*
X87381353Y-89154000D01*
X87361978Y-88932537D01*
X87359575Y-88923570D01*
X87344883Y-88868739D01*
X87304440Y-88717804D01*
X87210488Y-88516324D01*
X87197578Y-88497887D01*
X87093347Y-88349029D01*
X87082977Y-88334219D01*
X87082976Y-88334218D01*
X87082974Y-88334215D01*
X86925784Y-88177025D01*
X86743678Y-88049512D01*
X86675286Y-88017621D01*
X86633624Y-87998193D01*
X86580341Y-87951278D01*
X86560880Y-87883001D01*
X86581422Y-87815041D01*
X86633624Y-87769806D01*
X86743677Y-87718488D01*
X86925781Y-87590977D01*
X87082977Y-87433781D01*
X87210488Y-87251677D01*
X87304440Y-87050196D01*
X87361978Y-86835463D01*
X87381353Y-86614000D01*
X87361978Y-86392537D01*
X87361015Y-86388944D01*
X87338461Y-86304772D01*
X87304440Y-86177804D01*
X87236333Y-86031750D01*
X87225673Y-85961559D01*
X87254653Y-85896746D01*
X87314073Y-85857890D01*
X87350529Y-85852501D01*
X90212930Y-85852501D01*
X90233768Y-85854801D01*
X90236715Y-85854708D01*
X90236718Y-85854709D01*
X90305011Y-85852562D01*
X90308968Y-85852501D01*
X90333026Y-85852501D01*
X90336982Y-85852501D01*
X90340994Y-85851993D01*
X90341003Y-85851993D01*
X90352847Y-85851059D01*
X90397204Y-85849666D01*
X90416743Y-85843988D01*
X90436101Y-85839979D01*
X90456298Y-85837428D01*
X90497554Y-85821093D01*
X90508764Y-85817254D01*
X90551392Y-85804870D01*
X90568906Y-85794511D01*
X90586666Y-85785811D01*
X90605585Y-85778321D01*
X90605585Y-85778320D01*
X90605587Y-85778320D01*
X90641498Y-85752228D01*
X90651398Y-85745725D01*
X90689597Y-85723135D01*
X90703985Y-85708746D01*
X90719020Y-85695905D01*
X90735486Y-85683943D01*
X90763781Y-85649738D01*
X90771751Y-85640979D01*
X90885327Y-85527404D01*
X90947641Y-85493379D01*
X90974423Y-85490500D01*
X91027488Y-85490500D01*
X91045822Y-85486602D01*
X91098154Y-85475479D01*
X91168943Y-85480880D01*
G37*
%TD.AperFunction*%
%TA.AperFunction,Conductor*%
G36*
X85721051Y-81565898D02*
G01*
X85752266Y-81689162D01*
X85821813Y-81795612D01*
X85922157Y-81873713D01*
X86042422Y-81915000D01*
X86084210Y-81915000D01*
X85405395Y-82593813D01*
X85405395Y-82593814D01*
X85468573Y-82638052D01*
X85578965Y-82689529D01*
X85632250Y-82736446D01*
X85651711Y-82804724D01*
X85631169Y-82872683D01*
X85578965Y-82917919D01*
X85468323Y-82969512D01*
X85286215Y-83097025D01*
X85129025Y-83254215D01*
X85001512Y-83436322D01*
X84907559Y-83637807D01*
X84850022Y-83852532D01*
X84830647Y-84074000D01*
X84850022Y-84295463D01*
X84884166Y-84422890D01*
X84882476Y-84493866D01*
X84842682Y-84552662D01*
X84777418Y-84580610D01*
X84762459Y-84581501D01*
X83015068Y-84581501D01*
X82994229Y-84579200D01*
X82928867Y-84581254D01*
X82922986Y-84581439D01*
X82919030Y-84581501D01*
X82891016Y-84581501D01*
X82887104Y-84581994D01*
X82887070Y-84581997D01*
X82886950Y-84582013D01*
X82875149Y-84582941D01*
X82830794Y-84584335D01*
X82811243Y-84590015D01*
X82791893Y-84594022D01*
X82771698Y-84596574D01*
X82730440Y-84612908D01*
X82719216Y-84616751D01*
X82676604Y-84629132D01*
X82659083Y-84639493D01*
X82641340Y-84648185D01*
X82622411Y-84655680D01*
X82616477Y-84659992D01*
X82549608Y-84683848D01*
X82480458Y-84667765D01*
X82430979Y-84616849D01*
X82416883Y-84547266D01*
X82442643Y-84481108D01*
X82453316Y-84468967D01*
X84794857Y-82127427D01*
X84857167Y-82093403D01*
X84927983Y-82098468D01*
X84984818Y-82141015D01*
X84998143Y-82163270D01*
X85001945Y-82171424D01*
X85046184Y-82234603D01*
X85046186Y-82234603D01*
X85721607Y-81559181D01*
X85721051Y-81565898D01*
G37*
%TD.AperFunction*%
%TA.AperFunction,Conductor*%
G36*
X79624835Y-77595148D02*
G01*
X79682359Y-77708045D01*
X79771955Y-77797641D01*
X79884852Y-77855165D01*
X79970482Y-77868727D01*
X79353912Y-78485296D01*
X79353912Y-78485297D01*
X79403691Y-78520153D01*
X79595260Y-78609483D01*
X79627171Y-78618034D01*
X79687793Y-78654986D01*
X79718815Y-78718847D01*
X79710386Y-78789341D01*
X79665183Y-78844088D01*
X79627170Y-78861448D01*
X79595090Y-78870043D01*
X79403440Y-78959411D01*
X79230220Y-79080701D01*
X79080701Y-79230220D01*
X78959411Y-79403440D01*
X78870044Y-79595088D01*
X78861707Y-79626204D01*
X78824755Y-79686826D01*
X78760894Y-79717848D01*
X78690400Y-79709419D01*
X78635653Y-79664216D01*
X78618293Y-79626204D01*
X78609955Y-79595088D01*
X78581749Y-79534599D01*
X78520589Y-79403442D01*
X78508784Y-79386583D01*
X78399298Y-79230220D01*
X78249779Y-79080701D01*
X78076559Y-78959411D01*
X77884907Y-78870042D01*
X77853793Y-78861705D01*
X77793171Y-78824752D01*
X77762151Y-78760891D01*
X77770581Y-78690397D01*
X77815785Y-78635651D01*
X77853798Y-78618292D01*
X77868380Y-78614385D01*
X77884907Y-78609957D01*
X77884907Y-78609956D01*
X77884910Y-78609956D01*
X78076558Y-78520589D01*
X78249776Y-78399301D01*
X78399301Y-78249776D01*
X78520589Y-78076558D01*
X78609956Y-77884910D01*
X78618552Y-77852828D01*
X78655500Y-77792208D01*
X78719360Y-77761185D01*
X78789855Y-77769612D01*
X78844603Y-77814813D01*
X78861964Y-77852826D01*
X78870514Y-77884736D01*
X78959846Y-78076308D01*
X78994701Y-78126086D01*
X78994702Y-78126086D01*
X79611272Y-77509516D01*
X79624835Y-77595148D01*
G37*
%TD.AperFunction*%
%TA.AperFunction,Conductor*%
G36*
X95794561Y-65672200D02*
G01*
X95853106Y-65712362D01*
X95873500Y-65747942D01*
X95917609Y-65866203D01*
X96005238Y-65983261D01*
X96122294Y-66070888D01*
X96122295Y-66070888D01*
X96122296Y-66070889D01*
X96259299Y-66121989D01*
X96319862Y-66128500D01*
X96457000Y-66128500D01*
X96525121Y-66148502D01*
X96571614Y-66202158D01*
X96583000Y-66254500D01*
X96583000Y-69182523D01*
X96562998Y-69250644D01*
X96546095Y-69271618D01*
X87417519Y-78400193D01*
X87355207Y-78434219D01*
X87284392Y-78429154D01*
X87227556Y-78386607D01*
X87214231Y-78364352D01*
X87210488Y-78356324D01*
X87135885Y-78249779D01*
X87082976Y-78174217D01*
X86925784Y-78017025D01*
X86743678Y-77889512D01*
X86693247Y-77865996D01*
X86633624Y-77838193D01*
X86580341Y-77791278D01*
X86560880Y-77723001D01*
X86581422Y-77655041D01*
X86633624Y-77609806D01*
X86743677Y-77558488D01*
X86925781Y-77430977D01*
X87082977Y-77273781D01*
X87210488Y-77091677D01*
X87304440Y-76890196D01*
X87361978Y-76675463D01*
X87381353Y-76454000D01*
X87361978Y-76232537D01*
X87304440Y-76017804D01*
X87210488Y-75816324D01*
X87200981Y-75802747D01*
X87082974Y-75634215D01*
X86925784Y-75477025D01*
X86743678Y-75349512D01*
X86657204Y-75309189D01*
X86542196Y-75255560D01*
X86506981Y-75246124D01*
X86327467Y-75198022D01*
X86106000Y-75178647D01*
X85884532Y-75198022D01*
X85669804Y-75255559D01*
X85650747Y-75264446D01*
X85580555Y-75275105D01*
X85515743Y-75246124D01*
X85476888Y-75186703D01*
X85471500Y-75150250D01*
X85471500Y-74927922D01*
X85491502Y-74859801D01*
X85508405Y-74838827D01*
X89861995Y-70485237D01*
X94222682Y-66124549D01*
X94284992Y-66090525D01*
X94332966Y-66093319D01*
X94333566Y-66089725D01*
X94343862Y-66091443D01*
X94343865Y-66091444D01*
X94565931Y-66128500D01*
X94565934Y-66128500D01*
X94791066Y-66128500D01*
X94791069Y-66128500D01*
X95013135Y-66091444D01*
X95226074Y-66018342D01*
X95424076Y-65911189D01*
X95601740Y-65772906D01*
X95662746Y-65706635D01*
X95723596Y-65670067D01*
X95794561Y-65672200D01*
G37*
%TD.AperFunction*%
%TA.AperFunction,Conductor*%
G36*
X80573000Y-66104390D02*
G01*
X80653515Y-66090955D01*
X80686085Y-66079774D01*
X80757009Y-66076572D01*
X80818405Y-66112223D01*
X80850781Y-66175408D01*
X80843857Y-66246066D01*
X80816094Y-66288041D01*
X78820095Y-68284041D01*
X78757783Y-68318066D01*
X78686968Y-68313002D01*
X78630132Y-68270455D01*
X78605321Y-68203935D01*
X78605000Y-68194946D01*
X78605000Y-65910188D01*
X78625002Y-65842067D01*
X78653610Y-65810756D01*
X78658246Y-65807148D01*
X78702240Y-65772906D01*
X78854722Y-65607268D01*
X78943817Y-65470896D01*
X78997819Y-65424809D01*
X79068167Y-65415234D01*
X79132524Y-65445211D01*
X79154782Y-65470897D01*
X79243678Y-65606962D01*
X79396096Y-65772533D01*
X79573697Y-65910766D01*
X79771631Y-66017883D01*
X79984485Y-66090955D01*
X80065000Y-66104391D01*
X80065000Y-65203674D01*
X80176685Y-65254680D01*
X80283237Y-65270000D01*
X80354763Y-65270000D01*
X80461315Y-65254680D01*
X80573000Y-65203674D01*
X80573000Y-66104390D01*
G37*
%TD.AperFunction*%
%TA.AperFunction,Conductor*%
G36*
X108003300Y-54025672D02*
G01*
X108304319Y-54041449D01*
X108317436Y-54042827D01*
X108611911Y-54089467D01*
X108624811Y-54092209D01*
X108912799Y-54169374D01*
X108925332Y-54173447D01*
X109203672Y-54280292D01*
X109215719Y-54285656D01*
X109481368Y-54421010D01*
X109492785Y-54427601D01*
X109742838Y-54589988D01*
X109753495Y-54597732D01*
X109982126Y-54782873D01*
X109985197Y-54785360D01*
X109994998Y-54794185D01*
X110205814Y-55005001D01*
X110214639Y-55014802D01*
X110366938Y-55202876D01*
X110402263Y-55246498D01*
X110410013Y-55257164D01*
X110498575Y-55393537D01*
X110572394Y-55507208D01*
X110578989Y-55518631D01*
X110714343Y-55784280D01*
X110719707Y-55796327D01*
X110826550Y-56074661D01*
X110830626Y-56087205D01*
X110907790Y-56375188D01*
X110910532Y-56388088D01*
X110957172Y-56682563D01*
X110958550Y-56695679D01*
X110974327Y-56996698D01*
X110974500Y-57003293D01*
X110974500Y-104996706D01*
X110974327Y-105003301D01*
X110958550Y-105304320D01*
X110957172Y-105317436D01*
X110910532Y-105611911D01*
X110907790Y-105624811D01*
X110830626Y-105912794D01*
X110826550Y-105925338D01*
X110719707Y-106203672D01*
X110714343Y-106215719D01*
X110578989Y-106481368D01*
X110572394Y-106492791D01*
X110410015Y-106742832D01*
X110402263Y-106753501D01*
X110214639Y-106985197D01*
X110205814Y-106994998D01*
X109994998Y-107205814D01*
X109985197Y-107214639D01*
X109753501Y-107402263D01*
X109742832Y-107410015D01*
X109492791Y-107572394D01*
X109481368Y-107578989D01*
X109215719Y-107714343D01*
X109203672Y-107719707D01*
X108925338Y-107826550D01*
X108912794Y-107830626D01*
X108624811Y-107907790D01*
X108611911Y-107910532D01*
X108317436Y-107957172D01*
X108304320Y-107958550D01*
X108020488Y-107973426D01*
X108003299Y-107974327D01*
X107996707Y-107974500D01*
X65551446Y-107974500D01*
X65483325Y-107954498D01*
X65436832Y-107900842D01*
X65426728Y-107830568D01*
X65456222Y-107765988D01*
X65477385Y-107746564D01*
X65480752Y-107744118D01*
X65635253Y-107631866D01*
X65763040Y-107489944D01*
X65858527Y-107324556D01*
X65917542Y-107142928D01*
X65937504Y-106953000D01*
X65937504Y-106952996D01*
X65936839Y-106946667D01*
X65949613Y-106876829D01*
X65998116Y-106824984D01*
X66062149Y-106807500D01*
X66095601Y-106807500D01*
X66163722Y-106827502D01*
X66189237Y-106849189D01*
X66190747Y-106850866D01*
X66345248Y-106963118D01*
X66519712Y-107040794D01*
X66706513Y-107080500D01*
X66706515Y-107080500D01*
X66897485Y-107080500D01*
X66897487Y-107080500D01*
X67084288Y-107040794D01*
X67258752Y-106963118D01*
X67413253Y-106850866D01*
X67541040Y-106708944D01*
X67636527Y-106543556D01*
X67695542Y-106361928D01*
X67715504Y-106172000D01*
X67695542Y-105982072D01*
X67636527Y-105800444D01*
X67636527Y-105800443D01*
X67541041Y-105635057D01*
X67413252Y-105493133D01*
X67258753Y-105380883D01*
X67258752Y-105380882D01*
X67084288Y-105303206D01*
X66897487Y-105263500D01*
X66706513Y-105263500D01*
X66581979Y-105289970D01*
X66519711Y-105303206D01*
X66345246Y-105380883D01*
X66190747Y-105493133D01*
X66189237Y-105494811D01*
X66183986Y-105498045D01*
X66180033Y-105500918D01*
X66179813Y-105500616D01*
X66128790Y-105532050D01*
X66095601Y-105536500D01*
X65494534Y-105536500D01*
X65426413Y-105516498D01*
X65379920Y-105462842D01*
X65369816Y-105392568D01*
X65399310Y-105327988D01*
X65405438Y-105321405D01*
X65735128Y-104991714D01*
X66136747Y-104590093D01*
X66199058Y-104556070D01*
X66236937Y-104555090D01*
X66245017Y-104554651D01*
X66245018Y-104554652D01*
X66424420Y-104544926D01*
X66597537Y-104496860D01*
X66756274Y-104412703D01*
X66839761Y-104341788D01*
X66904628Y-104312933D01*
X66974799Y-104323728D01*
X66995392Y-104335885D01*
X67052963Y-104377712D01*
X67110703Y-104419663D01*
X67285167Y-104497339D01*
X67471968Y-104537045D01*
X67471970Y-104537045D01*
X67676186Y-104537045D01*
X67676186Y-104538902D01*
X67730796Y-104543064D01*
X67787432Y-104585876D01*
X67795331Y-104597913D01*
X67840958Y-104676942D01*
X67840960Y-104676944D01*
X67968747Y-104818866D01*
X68123248Y-104931118D01*
X68297712Y-105008794D01*
X68484513Y-105048500D01*
X68484515Y-105048500D01*
X68675485Y-105048500D01*
X68675487Y-105048500D01*
X68862288Y-105008794D01*
X69036752Y-104931118D01*
X69191253Y-104818866D01*
X69319040Y-104676944D01*
X69414527Y-104511556D01*
X69473542Y-104329928D01*
X69493504Y-104140000D01*
X69473542Y-103950072D01*
X69420800Y-103787749D01*
X69412900Y-103763436D01*
X69410873Y-103692468D01*
X69447535Y-103631671D01*
X69511247Y-103600345D01*
X69532733Y-103598500D01*
X69885269Y-103598500D01*
X69888638Y-103598500D01*
X69949201Y-103591989D01*
X70086204Y-103540889D01*
X70203261Y-103453261D01*
X70290889Y-103336204D01*
X70341989Y-103199201D01*
X70348500Y-103138638D01*
X70348500Y-102041362D01*
X70341989Y-101980799D01*
X70290889Y-101843796D01*
X70290888Y-101843794D01*
X70203261Y-101726738D01*
X70086205Y-101639111D01*
X70000235Y-101607046D01*
X69949201Y-101588011D01*
X69888638Y-101581500D01*
X69291362Y-101581500D01*
X69288013Y-101581859D01*
X69288013Y-101581860D01*
X69230799Y-101588011D01*
X69084032Y-101642752D01*
X69013216Y-101647816D01*
X68995968Y-101642752D01*
X68895049Y-101605111D01*
X68849201Y-101588011D01*
X68788638Y-101581500D01*
X68191362Y-101581500D01*
X68188013Y-101581859D01*
X68188013Y-101581860D01*
X68130799Y-101588011D01*
X67984031Y-101642753D01*
X67913216Y-101647817D01*
X67895966Y-101642753D01*
X67886206Y-101639112D01*
X67886204Y-101639111D01*
X67749201Y-101588011D01*
X67688638Y-101581500D01*
X67091362Y-101581500D01*
X67088013Y-101581859D01*
X67088013Y-101581860D01*
X67030799Y-101588011D01*
X66884031Y-101642752D01*
X66813215Y-101647816D01*
X66795967Y-101642752D01*
X66700235Y-101607046D01*
X66649201Y-101588011D01*
X66588638Y-101581500D01*
X65991362Y-101581500D01*
X65988020Y-101581859D01*
X65988006Y-101581860D01*
X65964966Y-101584337D01*
X65895097Y-101571730D01*
X65843137Y-101523350D01*
X65825500Y-101459059D01*
X65825500Y-99208875D01*
X65827801Y-99188028D01*
X65827708Y-99185085D01*
X65827709Y-99185083D01*
X65825562Y-99116770D01*
X65825500Y-99112812D01*
X65825500Y-99088784D01*
X65825500Y-99084819D01*
X65824990Y-99080788D01*
X65824058Y-99068951D01*
X65822665Y-99024597D01*
X65816987Y-99005053D01*
X65812977Y-98985691D01*
X65812525Y-98982114D01*
X65810427Y-98965503D01*
X65794089Y-98924239D01*
X65790248Y-98913018D01*
X65787193Y-98902503D01*
X65784723Y-98894000D01*
X70332000Y-98894000D01*
X70332000Y-99225222D01*
X70332359Y-99231936D01*
X70338505Y-99289093D01*
X70389554Y-99425962D01*
X70456368Y-99515215D01*
X70481179Y-99581735D01*
X70481500Y-99590723D01*
X70481500Y-100348638D01*
X70488011Y-100409201D01*
X70503993Y-100452050D01*
X70539111Y-100546205D01*
X70626738Y-100663261D01*
X70743794Y-100750888D01*
X70743795Y-100750888D01*
X70743796Y-100750889D01*
X70880799Y-100801989D01*
X70941362Y-100808500D01*
X70944731Y-100808500D01*
X71755269Y-100808500D01*
X71758638Y-100808500D01*
X71819201Y-100801989D01*
X71956204Y-100750889D01*
X72073261Y-100663261D01*
X72160889Y-100546204D01*
X72211989Y-100409201D01*
X72218500Y-100348638D01*
X72218500Y-99630798D01*
X72238502Y-99562677D01*
X72243632Y-99555288D01*
X72340446Y-99425960D01*
X72391494Y-99289093D01*
X72397640Y-99231936D01*
X72398000Y-99225222D01*
X72398000Y-98894000D01*
X70332000Y-98894000D01*
X65784723Y-98894000D01*
X65777869Y-98870409D01*
X65767505Y-98852885D01*
X65758811Y-98835137D01*
X65753654Y-98822113D01*
X65751319Y-98816214D01*
X65745433Y-98808113D01*
X65725240Y-98780320D01*
X65718721Y-98770396D01*
X65696135Y-98732204D01*
X65681740Y-98717809D01*
X65668904Y-98702779D01*
X65656943Y-98686316D01*
X65622748Y-98658027D01*
X65613969Y-98650038D01*
X65349931Y-98386000D01*
X70332000Y-98386000D01*
X71111000Y-98386000D01*
X71111000Y-97592000D01*
X71619000Y-97592000D01*
X71619000Y-98386000D01*
X72398000Y-98386000D01*
X72398000Y-98054777D01*
X72397640Y-98048063D01*
X72391494Y-97990906D01*
X72340445Y-97854037D01*
X72252904Y-97737095D01*
X72135962Y-97649554D01*
X71999093Y-97598505D01*
X71941936Y-97592359D01*
X71935223Y-97592000D01*
X71619000Y-97592000D01*
X71111000Y-97592000D01*
X70794777Y-97592000D01*
X70788063Y-97592359D01*
X70730906Y-97598505D01*
X70594037Y-97649554D01*
X70477095Y-97737095D01*
X70389554Y-97854037D01*
X70338505Y-97990906D01*
X70332359Y-98048063D01*
X70332000Y-98054777D01*
X70332000Y-98386000D01*
X65349931Y-98386000D01*
X63317526Y-96353595D01*
X63283500Y-96291283D01*
X63284021Y-96284000D01*
X70332000Y-96284000D01*
X70332000Y-96675222D01*
X70332359Y-96681936D01*
X70338505Y-96739093D01*
X70389554Y-96875962D01*
X70477095Y-96992904D01*
X70594037Y-97080445D01*
X70730906Y-97131494D01*
X70788063Y-97137640D01*
X70794777Y-97138000D01*
X71111000Y-97138000D01*
X71111000Y-96284000D01*
X71619000Y-96284000D01*
X71619000Y-97138000D01*
X71935223Y-97138000D01*
X71941936Y-97137640D01*
X71999093Y-97131494D01*
X72135962Y-97080445D01*
X72252904Y-96992904D01*
X72340445Y-96875962D01*
X72391494Y-96739093D01*
X72397640Y-96681936D01*
X72398000Y-96675222D01*
X72398000Y-96284000D01*
X71619000Y-96284000D01*
X71111000Y-96284000D01*
X70332000Y-96284000D01*
X63284021Y-96284000D01*
X63288565Y-96220468D01*
X63331112Y-96163632D01*
X63397632Y-96138821D01*
X63406621Y-96138500D01*
X65336269Y-96138500D01*
X65339638Y-96138500D01*
X65400201Y-96131989D01*
X65537204Y-96080889D01*
X65654261Y-95993261D01*
X65741889Y-95876204D01*
X65792989Y-95739201D01*
X65799500Y-95678638D01*
X66062500Y-95678638D01*
X66069011Y-95739201D01*
X66094561Y-95807702D01*
X66120111Y-95876205D01*
X66207738Y-95993261D01*
X66324794Y-96080888D01*
X66324795Y-96080888D01*
X66324796Y-96080889D01*
X66461799Y-96131989D01*
X66522362Y-96138500D01*
X66525731Y-96138500D01*
X69526269Y-96138500D01*
X69529638Y-96138500D01*
X69590201Y-96131989D01*
X69727204Y-96080889D01*
X69844261Y-95993261D01*
X69931889Y-95876204D01*
X69969264Y-95776000D01*
X70332000Y-95776000D01*
X71111000Y-95776000D01*
X71111000Y-94922000D01*
X71619000Y-94922000D01*
X71619000Y-95776000D01*
X72398000Y-95776000D01*
X72398000Y-95384777D01*
X72397640Y-95378063D01*
X72391494Y-95320906D01*
X72340445Y-95184037D01*
X72252904Y-95067095D01*
X72135962Y-94979554D01*
X71999093Y-94928505D01*
X71941936Y-94922359D01*
X71935223Y-94922000D01*
X71619000Y-94922000D01*
X71111000Y-94922000D01*
X70794777Y-94922000D01*
X70788063Y-94922359D01*
X70730906Y-94928505D01*
X70594037Y-94979554D01*
X70477095Y-95067095D01*
X70389554Y-95184037D01*
X70338505Y-95320906D01*
X70332359Y-95378063D01*
X70332000Y-95384777D01*
X70332000Y-95776000D01*
X69969264Y-95776000D01*
X69982989Y-95739201D01*
X69989500Y-95678638D01*
X69989500Y-95031362D01*
X69982989Y-94970799D01*
X69931889Y-94833796D01*
X69913089Y-94808682D01*
X69844261Y-94716738D01*
X69727205Y-94629111D01*
X69634404Y-94594498D01*
X69590201Y-94578011D01*
X69529638Y-94571500D01*
X66522362Y-94571500D01*
X66519013Y-94571859D01*
X66519013Y-94571860D01*
X66461799Y-94578011D01*
X66324794Y-94629111D01*
X66207738Y-94716738D01*
X66120111Y-94833794D01*
X66071652Y-94963718D01*
X66069011Y-94970799D01*
X66062500Y-95031362D01*
X66062500Y-95678638D01*
X65799500Y-95678638D01*
X65799500Y-95031362D01*
X65792989Y-94970799D01*
X65741889Y-94833796D01*
X65723089Y-94808682D01*
X65654261Y-94716738D01*
X65537205Y-94629111D01*
X65444404Y-94594498D01*
X65400201Y-94578011D01*
X65339638Y-94571500D01*
X62332362Y-94571500D01*
X62329013Y-94571859D01*
X62329013Y-94571860D01*
X62271799Y-94578011D01*
X62134794Y-94629111D01*
X62017738Y-94716738D01*
X61960577Y-94793097D01*
X61903741Y-94835644D01*
X61832926Y-94840708D01*
X61770614Y-94806683D01*
X57760426Y-90796495D01*
X57726400Y-90734183D01*
X57723521Y-90707400D01*
X57723521Y-87652094D01*
X57725822Y-87631247D01*
X57725729Y-87628304D01*
X57725730Y-87628302D01*
X57723583Y-87559989D01*
X57723521Y-87556031D01*
X57723521Y-87532003D01*
X57723521Y-87528038D01*
X57723011Y-87524007D01*
X57722079Y-87512170D01*
X57721819Y-87503887D01*
X57720686Y-87467816D01*
X57715008Y-87448272D01*
X57710998Y-87428910D01*
X57708448Y-87408722D01*
X57692113Y-87367464D01*
X57688269Y-87356237D01*
X57675890Y-87313628D01*
X57665525Y-87296103D01*
X57656836Y-87278367D01*
X57649340Y-87259433D01*
X57623256Y-87223531D01*
X57616740Y-87213611D01*
X57594156Y-87175424D01*
X57594155Y-87175423D01*
X57579764Y-87161032D01*
X57566930Y-87146005D01*
X57554963Y-87129534D01*
X57520760Y-87101238D01*
X57511983Y-87093250D01*
X57281102Y-86862369D01*
X57247076Y-86800057D01*
X57252141Y-86729242D01*
X57294688Y-86672406D01*
X57318939Y-86658172D01*
X57352752Y-86643118D01*
X57507253Y-86530866D01*
X57635040Y-86388944D01*
X57730527Y-86223556D01*
X57789542Y-86041928D01*
X57809504Y-85852000D01*
X57789542Y-85662072D01*
X57734730Y-85493379D01*
X57728167Y-85473180D01*
X57722000Y-85434244D01*
X57722000Y-75559064D01*
X57742002Y-75490943D01*
X57795658Y-75444450D01*
X57865932Y-75434346D01*
X57884576Y-75438490D01*
X58034298Y-75483908D01*
X58232000Y-75503380D01*
X58429701Y-75483908D01*
X58619804Y-75426241D01*
X58743815Y-75359956D01*
X59621252Y-75359956D01*
X59744392Y-75425777D01*
X59934396Y-75483415D01*
X60131999Y-75502877D01*
X60329603Y-75483415D01*
X60519607Y-75425777D01*
X60642747Y-75359956D01*
X60132001Y-74849210D01*
X60132000Y-74849210D01*
X59621252Y-75359956D01*
X58743815Y-75359956D01*
X58795004Y-75332595D01*
X58795005Y-75332593D01*
X58795007Y-75332593D01*
X58948568Y-75206568D01*
X59082468Y-75043412D01*
X59084337Y-75044946D01*
X59122161Y-75006439D01*
X59191397Y-74990725D01*
X59202024Y-74991844D01*
X59262042Y-75000746D01*
X59772789Y-74490000D01*
X59877102Y-74490000D01*
X59896505Y-74587545D01*
X59951760Y-74670240D01*
X60034455Y-74725495D01*
X60107376Y-74740000D01*
X60156624Y-74740000D01*
X60229545Y-74725495D01*
X60312240Y-74670240D01*
X60367495Y-74587545D01*
X60386898Y-74490001D01*
X60491210Y-74490001D01*
X61001956Y-75000747D01*
X61067777Y-74877607D01*
X61125415Y-74687603D01*
X61144877Y-74490000D01*
X61125415Y-74292396D01*
X61067777Y-74102392D01*
X61001956Y-73979252D01*
X60491210Y-74489999D01*
X60491210Y-74490001D01*
X60386898Y-74490001D01*
X60386898Y-74490000D01*
X60367495Y-74392455D01*
X60312240Y-74309760D01*
X60229545Y-74254505D01*
X60156624Y-74240000D01*
X60107376Y-74240000D01*
X60034455Y-74254505D01*
X59951760Y-74309760D01*
X59896505Y-74392455D01*
X59877102Y-74490000D01*
X59772789Y-74490000D01*
X59772790Y-74489999D01*
X59262042Y-73979251D01*
X59202022Y-73988154D01*
X59131704Y-73978364D01*
X59082768Y-73936341D01*
X59082468Y-73936588D01*
X59081065Y-73934878D01*
X59077841Y-73932110D01*
X59075402Y-73927979D01*
X58948568Y-73773431D01*
X58795007Y-73647406D01*
X58743810Y-73620041D01*
X59621252Y-73620041D01*
X60131999Y-74130790D01*
X60132000Y-74130790D01*
X60642747Y-73620042D01*
X60519607Y-73554222D01*
X60329603Y-73496584D01*
X60132000Y-73477122D01*
X59934396Y-73496584D01*
X59744390Y-73554223D01*
X59621252Y-73620041D01*
X58743810Y-73620041D01*
X58619802Y-73553758D01*
X58429701Y-73496091D01*
X58232000Y-73476619D01*
X58034298Y-73496091D01*
X57844195Y-73553758D01*
X57743023Y-73607836D01*
X57673517Y-73622308D01*
X57607221Y-73596904D01*
X57589992Y-73581025D01*
X57507252Y-73489133D01*
X57352753Y-73376883D01*
X57352752Y-73376882D01*
X57178288Y-73299206D01*
X56991487Y-73259500D01*
X56800513Y-73259500D01*
X56695342Y-73281855D01*
X56613711Y-73299206D01*
X56439246Y-73376883D01*
X56284747Y-73489133D01*
X56156958Y-73631057D01*
X56061472Y-73796443D01*
X56002458Y-73978070D01*
X55982496Y-74168000D01*
X56002458Y-74357929D01*
X56063833Y-74546821D01*
X56070000Y-74585757D01*
X56070000Y-75379577D01*
X56049998Y-75447698D01*
X55996342Y-75494191D01*
X55926068Y-75504295D01*
X55861488Y-75474801D01*
X55854905Y-75468672D01*
X53677055Y-73290822D01*
X53643029Y-73228510D01*
X53640803Y-73188920D01*
X53645673Y-73141246D01*
X53645673Y-73141245D01*
X53646000Y-73138045D01*
X53645999Y-72411956D01*
X53635387Y-72308074D01*
X53579615Y-72139762D01*
X53486530Y-71988848D01*
X53486528Y-71988846D01*
X53486527Y-71988844D01*
X53361155Y-71863472D01*
X53361152Y-71863470D01*
X53210238Y-71770385D01*
X53041926Y-71714613D01*
X53041923Y-71714612D01*
X53041921Y-71714612D01*
X52941246Y-71704326D01*
X52941225Y-71704324D01*
X52938045Y-71704000D01*
X52934839Y-71704000D01*
X51590161Y-71704000D01*
X51590141Y-71704000D01*
X51586956Y-71704001D01*
X51583779Y-71704325D01*
X51583770Y-71704326D01*
X51483073Y-71714613D01*
X51314762Y-71770385D01*
X51163844Y-71863472D01*
X51038472Y-71988844D01*
X50998930Y-72052952D01*
X50945385Y-72139762D01*
X50889613Y-72308074D01*
X50889612Y-72308078D01*
X50879326Y-72408753D01*
X50879325Y-72408770D01*
X50879000Y-72411955D01*
X50879000Y-72415159D01*
X50879000Y-72415160D01*
X50879000Y-73134838D01*
X50879000Y-73134857D01*
X50879001Y-73138044D01*
X50879325Y-73141221D01*
X50879326Y-73141229D01*
X50884623Y-73193078D01*
X50889613Y-73241926D01*
X50945385Y-73410238D01*
X50998644Y-73496584D01*
X51038472Y-73561155D01*
X51163844Y-73686527D01*
X51163846Y-73686528D01*
X51163848Y-73686530D01*
X51314762Y-73779615D01*
X51483074Y-73835387D01*
X51559137Y-73843158D01*
X51583753Y-73845673D01*
X51583755Y-73845673D01*
X51586955Y-73846000D01*
X52382577Y-73845999D01*
X52450698Y-73866001D01*
X52471672Y-73882904D01*
X54635627Y-76046860D01*
X54669653Y-76109172D01*
X54664588Y-76179988D01*
X54622041Y-76236823D01*
X54557514Y-76261475D01*
X54511462Y-76265505D01*
X54399344Y-76275314D01*
X54195090Y-76330043D01*
X54003440Y-76419411D01*
X53830220Y-76540701D01*
X53680701Y-76690220D01*
X53559411Y-76863440D01*
X53470043Y-77055090D01*
X53461448Y-77087170D01*
X53424496Y-77147793D01*
X53360635Y-77178814D01*
X53290141Y-77170386D01*
X53235394Y-77125183D01*
X53218034Y-77087171D01*
X53209483Y-77055260D01*
X53120153Y-76863691D01*
X53085297Y-76813912D01*
X53085296Y-76813912D01*
X52468727Y-77430481D01*
X52455165Y-77344852D01*
X52397641Y-77231955D01*
X52308045Y-77142359D01*
X52195148Y-77084835D01*
X52109517Y-77071272D01*
X52726086Y-76454702D01*
X52726086Y-76454701D01*
X52676308Y-76419846D01*
X52484738Y-76330515D01*
X52280568Y-76275808D01*
X52069999Y-76257386D01*
X51859431Y-76275808D01*
X51655262Y-76330515D01*
X51463693Y-76419845D01*
X51413912Y-76454702D01*
X51413912Y-76454703D01*
X52030481Y-77071272D01*
X51944852Y-77084835D01*
X51831955Y-77142359D01*
X51742359Y-77231955D01*
X51684835Y-77344852D01*
X51671272Y-77430481D01*
X51054703Y-76813912D01*
X51054702Y-76813912D01*
X51019845Y-76863693D01*
X50930515Y-77055262D01*
X50875808Y-77259431D01*
X50857386Y-77470000D01*
X50875808Y-77680568D01*
X50930515Y-77884738D01*
X51019846Y-78076308D01*
X51054701Y-78126086D01*
X51054702Y-78126086D01*
X51671272Y-77509516D01*
X51684835Y-77595148D01*
X51742359Y-77708045D01*
X51831955Y-77797641D01*
X51944852Y-77855165D01*
X52030482Y-77868727D01*
X51413912Y-78485296D01*
X51413912Y-78485297D01*
X51463691Y-78520153D01*
X51655260Y-78609483D01*
X51687171Y-78618034D01*
X51747793Y-78654986D01*
X51778815Y-78718847D01*
X51770386Y-78789341D01*
X51725183Y-78844088D01*
X51687170Y-78861448D01*
X51655090Y-78870043D01*
X51463440Y-78959411D01*
X51290220Y-79080701D01*
X51140701Y-79230220D01*
X51026926Y-79392708D01*
X50971469Y-79437036D01*
X50900849Y-79444345D01*
X50837489Y-79412314D01*
X50816474Y-79386585D01*
X50754030Y-79285348D01*
X50754029Y-79285347D01*
X50754028Y-79285345D01*
X50628655Y-79159972D01*
X50628652Y-79159970D01*
X50477738Y-79066885D01*
X50309426Y-79011113D01*
X50309423Y-79011112D01*
X50309421Y-79011112D01*
X50208746Y-79000826D01*
X50208725Y-79000824D01*
X50205545Y-79000500D01*
X50202339Y-79000500D01*
X48857661Y-79000500D01*
X48857641Y-79000500D01*
X48854456Y-79000501D01*
X48851279Y-79000825D01*
X48851270Y-79000826D01*
X48750573Y-79011113D01*
X48582262Y-79066885D01*
X48431344Y-79159972D01*
X48305971Y-79285345D01*
X48287897Y-79314648D01*
X48235111Y-79362126D01*
X48180657Y-79374500D01*
X47757731Y-79374500D01*
X47689610Y-79354498D01*
X47652249Y-79317417D01*
X47557722Y-79172732D01*
X47405240Y-79007094D01*
X47405239Y-79007093D01*
X47405237Y-79007091D01*
X47227578Y-78868812D01*
X47029573Y-78761657D01*
X46871523Y-78707399D01*
X46816635Y-78688556D01*
X46594569Y-78651500D01*
X46369431Y-78651500D01*
X46147365Y-78688556D01*
X46147362Y-78688556D01*
X46147362Y-78688557D01*
X45934426Y-78761657D01*
X45736421Y-78868812D01*
X45558762Y-79007091D01*
X45406278Y-79172731D01*
X45283139Y-79361209D01*
X45192702Y-79567388D01*
X45137566Y-79785118D01*
X45137436Y-79785632D01*
X45118844Y-80010000D01*
X45137436Y-80234368D01*
X45137436Y-80234371D01*
X45137437Y-80234372D01*
X45192702Y-80452611D01*
X45283139Y-80658790D01*
X45347582Y-80757427D01*
X45406278Y-80847268D01*
X45546982Y-81000112D01*
X45549841Y-81003217D01*
X45581262Y-81066882D01*
X45573275Y-81137428D01*
X45528416Y-81192457D01*
X45501173Y-81206611D01*
X45386036Y-81249554D01*
X45269095Y-81337095D01*
X45181554Y-81454037D01*
X45130505Y-81590906D01*
X45124359Y-81648063D01*
X45124000Y-81654777D01*
X45124000Y-82296000D01*
X46050884Y-82296000D01*
X46022507Y-82340156D01*
X45982000Y-82478111D01*
X45982000Y-82621889D01*
X46022507Y-82759844D01*
X46050884Y-82804000D01*
X45124000Y-82804000D01*
X45124000Y-83445222D01*
X45124359Y-83451936D01*
X45130505Y-83509093D01*
X45181554Y-83645962D01*
X45269095Y-83762904D01*
X45386037Y-83850445D01*
X45522906Y-83901494D01*
X45580063Y-83907640D01*
X45586777Y-83908000D01*
X46228000Y-83908000D01*
X46228000Y-82983674D01*
X46339685Y-83034680D01*
X46446237Y-83050000D01*
X46517763Y-83050000D01*
X46624315Y-83034680D01*
X46736000Y-82983674D01*
X46736000Y-83908000D01*
X47377223Y-83908000D01*
X47383936Y-83907640D01*
X47441093Y-83901494D01*
X47577962Y-83850445D01*
X47694904Y-83762904D01*
X47782445Y-83645962D01*
X47833494Y-83509093D01*
X47839640Y-83451936D01*
X47840000Y-83445222D01*
X47840000Y-82804000D01*
X46913116Y-82804000D01*
X46941493Y-82759844D01*
X46982000Y-82621889D01*
X46982000Y-82478111D01*
X46941493Y-82340156D01*
X46913116Y-82296000D01*
X47840000Y-82296000D01*
X47840000Y-81654777D01*
X47839640Y-81648063D01*
X47833494Y-81590906D01*
X47782445Y-81454037D01*
X47694904Y-81337095D01*
X47577962Y-81249554D01*
X47462827Y-81206611D01*
X47405991Y-81164064D01*
X47381180Y-81097544D01*
X47396271Y-81028170D01*
X47414152Y-81003224D01*
X47557722Y-80847268D01*
X47652249Y-80702582D01*
X47706252Y-80656496D01*
X47757731Y-80645500D01*
X48104790Y-80645500D01*
X48172911Y-80665502D01*
X48212031Y-80705353D01*
X48212884Y-80706737D01*
X48212885Y-80706738D01*
X48304828Y-80855801D01*
X48305972Y-80857655D01*
X48431344Y-80983027D01*
X48431346Y-80983028D01*
X48431348Y-80983030D01*
X48582262Y-81076115D01*
X48750574Y-81131887D01*
X48826637Y-81139658D01*
X48851253Y-81142173D01*
X48851255Y-81142173D01*
X48854455Y-81142500D01*
X49711577Y-81142499D01*
X49779698Y-81162501D01*
X49800672Y-81179404D01*
X50335156Y-81713888D01*
X50369182Y-81776200D01*
X50364117Y-81847015D01*
X50321570Y-81903851D01*
X50255050Y-81928662D01*
X50233255Y-81928331D01*
X50208729Y-81925825D01*
X50208723Y-81925824D01*
X50205545Y-81925500D01*
X50202339Y-81925500D01*
X48857661Y-81925500D01*
X48857641Y-81925500D01*
X48854456Y-81925501D01*
X48851279Y-81925825D01*
X48851270Y-81925826D01*
X48750573Y-81936113D01*
X48582262Y-81991885D01*
X48431344Y-82084972D01*
X48305972Y-82210344D01*
X48291382Y-82233998D01*
X48212885Y-82361262D01*
X48161147Y-82517400D01*
X48157112Y-82529578D01*
X48146826Y-82630253D01*
X48146824Y-82630275D01*
X48146500Y-82633455D01*
X48146500Y-82636659D01*
X48146500Y-82636660D01*
X48146500Y-83356338D01*
X48146500Y-83356357D01*
X48146501Y-83359544D01*
X48146825Y-83362721D01*
X48146826Y-83362729D01*
X48151494Y-83408421D01*
X48157113Y-83463426D01*
X48212885Y-83631738D01*
X48287247Y-83752297D01*
X48305972Y-83782655D01*
X48431344Y-83908027D01*
X48431346Y-83908028D01*
X48431348Y-83908030D01*
X48582262Y-84001115D01*
X48617633Y-84012835D01*
X48676003Y-84053247D01*
X48703260Y-84118803D01*
X48704000Y-84132439D01*
X48704000Y-84164244D01*
X48697833Y-84203180D01*
X48636458Y-84392070D01*
X48616496Y-84582000D01*
X48636458Y-84771929D01*
X48695472Y-84953556D01*
X48790958Y-85118942D01*
X48858210Y-85193633D01*
X48918747Y-85260866D01*
X49073248Y-85373118D01*
X49103754Y-85386700D01*
X49157849Y-85432679D01*
X49178498Y-85500606D01*
X49159146Y-85568914D01*
X49141599Y-85590901D01*
X49140078Y-85592422D01*
X49123711Y-85605536D01*
X49074928Y-85657484D01*
X49072179Y-85660321D01*
X49055158Y-85677342D01*
X49055144Y-85677357D01*
X49052361Y-85680141D01*
X49049946Y-85683253D01*
X49049923Y-85683280D01*
X49049841Y-85683387D01*
X49042156Y-85692383D01*
X49011781Y-85724731D01*
X49001974Y-85742568D01*
X48991125Y-85759084D01*
X48978649Y-85775168D01*
X48961022Y-85815899D01*
X48955804Y-85826551D01*
X48934430Y-85865432D01*
X48929370Y-85885141D01*
X48922967Y-85903843D01*
X48914883Y-85922524D01*
X48907941Y-85966354D01*
X48905534Y-85977975D01*
X48894500Y-86020952D01*
X48894500Y-86041300D01*
X48892949Y-86061010D01*
X48889764Y-86081113D01*
X48893941Y-86125289D01*
X48894500Y-86137147D01*
X48894500Y-86248626D01*
X48874498Y-86316747D01*
X48820842Y-86363240D01*
X48781308Y-86373973D01*
X48756726Y-86376484D01*
X48750573Y-86377113D01*
X48582262Y-86432885D01*
X48431344Y-86525972D01*
X48305972Y-86651344D01*
X48258394Y-86728480D01*
X48212885Y-86802262D01*
X48194799Y-86856844D01*
X48177804Y-86908133D01*
X48137390Y-86966504D01*
X48071833Y-86993760D01*
X48058199Y-86994500D01*
X47757731Y-86994500D01*
X47689610Y-86974498D01*
X47652249Y-86937417D01*
X47557722Y-86792732D01*
X47405240Y-86627094D01*
X47405239Y-86627093D01*
X47405237Y-86627091D01*
X47227578Y-86488812D01*
X47029573Y-86381657D01*
X46885427Y-86332172D01*
X46816635Y-86308556D01*
X46594569Y-86271500D01*
X46369431Y-86271500D01*
X46147365Y-86308556D01*
X46147362Y-86308556D01*
X46147362Y-86308557D01*
X45934426Y-86381657D01*
X45736421Y-86488812D01*
X45558762Y-86627091D01*
X45406278Y-86792731D01*
X45283139Y-86981209D01*
X45192702Y-87187388D01*
X45137437Y-87405627D01*
X45137436Y-87405632D01*
X45118844Y-87630000D01*
X45137436Y-87854368D01*
X45137436Y-87854371D01*
X45137437Y-87854372D01*
X45192702Y-88072611D01*
X45192703Y-88072614D01*
X45192704Y-88072616D01*
X45200581Y-88090573D01*
X45283139Y-88278790D01*
X45339347Y-88364822D01*
X45406278Y-88467268D01*
X45490998Y-88559298D01*
X45549841Y-88623217D01*
X45581262Y-88686882D01*
X45573275Y-88757428D01*
X45528416Y-88812457D01*
X45501173Y-88826611D01*
X45386036Y-88869554D01*
X45269095Y-88957095D01*
X45181554Y-89074037D01*
X45130505Y-89210906D01*
X45124359Y-89268063D01*
X45124000Y-89274777D01*
X45124000Y-89916000D01*
X46050884Y-89916000D01*
X46022507Y-89960156D01*
X45982000Y-90098111D01*
X45982000Y-90241889D01*
X46022507Y-90379844D01*
X46050884Y-90424000D01*
X45124000Y-90424000D01*
X45124000Y-91065222D01*
X45124359Y-91071936D01*
X45130505Y-91129093D01*
X45181554Y-91265962D01*
X45269095Y-91382904D01*
X45386037Y-91470445D01*
X45522906Y-91521494D01*
X45580063Y-91527640D01*
X45586777Y-91528000D01*
X46228000Y-91528000D01*
X46228000Y-90603674D01*
X46339685Y-90654680D01*
X46446237Y-90670000D01*
X46517763Y-90670000D01*
X46624315Y-90654680D01*
X46736000Y-90603674D01*
X46736000Y-91528000D01*
X47377223Y-91528000D01*
X47383936Y-91527640D01*
X47441093Y-91521494D01*
X47577962Y-91470445D01*
X47694904Y-91382904D01*
X47782445Y-91265962D01*
X47833494Y-91129093D01*
X47839640Y-91071936D01*
X47840000Y-91065222D01*
X47840000Y-90424000D01*
X46913116Y-90424000D01*
X46941493Y-90379844D01*
X46982000Y-90241889D01*
X46982000Y-90098111D01*
X46941493Y-89960156D01*
X46913116Y-89916000D01*
X47840000Y-89916000D01*
X47840000Y-89274777D01*
X47839640Y-89268063D01*
X47833494Y-89210906D01*
X47782445Y-89074037D01*
X47694904Y-88957095D01*
X47577962Y-88869554D01*
X47462827Y-88826611D01*
X47405991Y-88784064D01*
X47381180Y-88717544D01*
X47396271Y-88648170D01*
X47414152Y-88623224D01*
X47557722Y-88467268D01*
X47652249Y-88322582D01*
X47706252Y-88276496D01*
X47757731Y-88265500D01*
X48295628Y-88265500D01*
X48363749Y-88285502D01*
X48384718Y-88302400D01*
X48431348Y-88349030D01*
X48582262Y-88442115D01*
X48750574Y-88497887D01*
X48826637Y-88505658D01*
X48851253Y-88508173D01*
X48851255Y-88508173D01*
X48854455Y-88508500D01*
X50205544Y-88508499D01*
X50309426Y-88497887D01*
X50477738Y-88442115D01*
X50628652Y-88349030D01*
X50754030Y-88223652D01*
X50779053Y-88183082D01*
X50831838Y-88135604D01*
X50901913Y-88124201D01*
X50967029Y-88152493D01*
X51000489Y-88195979D01*
X51019411Y-88236559D01*
X51140701Y-88409779D01*
X51290220Y-88559298D01*
X51463440Y-88680588D01*
X51463441Y-88680588D01*
X51463442Y-88680589D01*
X51655090Y-88769956D01*
X51684729Y-88777897D01*
X51686204Y-88778293D01*
X51746826Y-88815245D01*
X51777848Y-88879106D01*
X51769419Y-88949600D01*
X51724216Y-89004347D01*
X51686204Y-89021707D01*
X51655088Y-89030044D01*
X51463440Y-89119411D01*
X51290220Y-89240701D01*
X51140701Y-89390220D01*
X51019411Y-89563441D01*
X51000489Y-89604020D01*
X50953571Y-89657305D01*
X50885294Y-89676766D01*
X50817334Y-89656224D01*
X50779053Y-89616917D01*
X50771098Y-89604020D01*
X50754030Y-89576348D01*
X50754028Y-89576346D01*
X50754027Y-89576344D01*
X50628655Y-89450972D01*
X50606191Y-89437116D01*
X50477738Y-89357885D01*
X50309426Y-89302113D01*
X50309423Y-89302112D01*
X50309421Y-89302112D01*
X50208746Y-89291826D01*
X50208725Y-89291824D01*
X50205545Y-89291500D01*
X50202339Y-89291500D01*
X48857661Y-89291500D01*
X48857641Y-89291500D01*
X48854456Y-89291501D01*
X48851279Y-89291825D01*
X48851270Y-89291826D01*
X48750573Y-89302113D01*
X48582262Y-89357885D01*
X48431344Y-89450972D01*
X48305972Y-89576344D01*
X48256702Y-89656224D01*
X48212885Y-89727262D01*
X48157113Y-89895574D01*
X48157112Y-89895578D01*
X48146826Y-89996253D01*
X48146824Y-89996275D01*
X48146500Y-89999455D01*
X48146500Y-90002659D01*
X48146500Y-90002660D01*
X48146500Y-90722338D01*
X48146500Y-90722357D01*
X48146501Y-90725544D01*
X48146825Y-90728721D01*
X48146826Y-90728729D01*
X48149979Y-90759590D01*
X48157113Y-90829426D01*
X48212885Y-90997738D01*
X48275528Y-91099298D01*
X48305972Y-91148655D01*
X48431344Y-91274027D01*
X48431346Y-91274028D01*
X48431348Y-91274030D01*
X48582262Y-91367115D01*
X48617633Y-91378835D01*
X48676003Y-91419247D01*
X48703260Y-91484803D01*
X48704000Y-91498439D01*
X48704000Y-91784244D01*
X48697833Y-91823180D01*
X48636458Y-92012070D01*
X48616496Y-92202000D01*
X48636458Y-92391929D01*
X48695472Y-92573556D01*
X48790958Y-92738942D01*
X48877582Y-92835148D01*
X48918747Y-92880866D01*
X49073248Y-92993118D01*
X49247712Y-93070794D01*
X49434513Y-93110500D01*
X49434515Y-93110500D01*
X49625485Y-93110500D01*
X49625487Y-93110500D01*
X49812288Y-93070794D01*
X49986752Y-92993118D01*
X49986754Y-92993115D01*
X49987251Y-92992895D01*
X50057618Y-92983461D01*
X50121915Y-93013567D01*
X50159729Y-93073656D01*
X50164500Y-93108002D01*
X50164500Y-93721077D01*
X50144498Y-93789198D01*
X50127599Y-93810167D01*
X50051107Y-93886660D01*
X49993171Y-93944596D01*
X49930859Y-93978621D01*
X49904076Y-93981500D01*
X48857661Y-93981500D01*
X48857641Y-93981500D01*
X48854456Y-93981501D01*
X48851279Y-93981825D01*
X48851270Y-93981826D01*
X48750573Y-93992113D01*
X48582262Y-94047885D01*
X48431344Y-94140972D01*
X48305972Y-94266344D01*
X48215680Y-94412731D01*
X48212885Y-94417262D01*
X48176146Y-94528134D01*
X48135734Y-94586504D01*
X48070178Y-94613760D01*
X48056543Y-94614500D01*
X47757731Y-94614500D01*
X47689610Y-94594498D01*
X47652249Y-94557417D01*
X47557722Y-94412732D01*
X47405240Y-94247094D01*
X47405239Y-94247093D01*
X47405237Y-94247091D01*
X47227578Y-94108812D01*
X47029573Y-94001657D01*
X46863358Y-93944596D01*
X46816635Y-93928556D01*
X46594569Y-93891500D01*
X46369431Y-93891500D01*
X46147365Y-93928556D01*
X46147362Y-93928556D01*
X46147362Y-93928557D01*
X45934426Y-94001657D01*
X45736421Y-94108812D01*
X45558762Y-94247091D01*
X45406278Y-94412731D01*
X45283139Y-94601209D01*
X45192702Y-94807388D01*
X45137437Y-95025627D01*
X45137436Y-95025632D01*
X45118844Y-95250000D01*
X45137436Y-95474368D01*
X45137436Y-95474371D01*
X45137437Y-95474372D01*
X45192702Y-95692611D01*
X45283139Y-95898790D01*
X45344860Y-95993261D01*
X45406278Y-96087268D01*
X45528898Y-96220468D01*
X45549841Y-96243217D01*
X45581262Y-96306882D01*
X45573275Y-96377428D01*
X45528416Y-96432457D01*
X45501173Y-96446611D01*
X45386036Y-96489554D01*
X45269095Y-96577095D01*
X45181554Y-96694037D01*
X45130505Y-96830906D01*
X45124359Y-96888063D01*
X45124000Y-96894777D01*
X45124000Y-97536000D01*
X46050884Y-97536000D01*
X46022507Y-97580156D01*
X45982000Y-97718111D01*
X45982000Y-97861889D01*
X46022507Y-97999844D01*
X46050884Y-98044000D01*
X45124000Y-98044000D01*
X45124000Y-98685222D01*
X45124359Y-98691936D01*
X45130505Y-98749093D01*
X45181554Y-98885962D01*
X45269095Y-99002904D01*
X45386037Y-99090445D01*
X45522906Y-99141494D01*
X45580063Y-99147640D01*
X45586777Y-99148000D01*
X46228000Y-99148000D01*
X46228000Y-98223674D01*
X46339685Y-98274680D01*
X46446237Y-98290000D01*
X46517763Y-98290000D01*
X46624315Y-98274680D01*
X46736000Y-98223674D01*
X46736000Y-99148000D01*
X47377223Y-99148000D01*
X47383936Y-99147640D01*
X47441093Y-99141494D01*
X47577962Y-99090445D01*
X47694904Y-99002904D01*
X47782445Y-98885962D01*
X47833494Y-98749093D01*
X47839640Y-98691936D01*
X47840000Y-98685222D01*
X47840000Y-98044000D01*
X46913116Y-98044000D01*
X46941493Y-97999844D01*
X46982000Y-97861889D01*
X46982000Y-97718111D01*
X46941493Y-97580156D01*
X46913116Y-97536000D01*
X47840000Y-97536000D01*
X47840000Y-96894777D01*
X47839640Y-96888063D01*
X47833494Y-96830906D01*
X47782445Y-96694037D01*
X47694904Y-96577095D01*
X47577962Y-96489554D01*
X47462827Y-96446611D01*
X47405991Y-96404064D01*
X47381180Y-96337544D01*
X47396271Y-96268170D01*
X47414152Y-96243224D01*
X47557722Y-96087268D01*
X47652249Y-95942582D01*
X47706252Y-95896496D01*
X47757731Y-95885500D01*
X48300628Y-95885500D01*
X48368749Y-95905502D01*
X48389718Y-95922400D01*
X48431348Y-95964030D01*
X48582262Y-96057115D01*
X48750574Y-96112887D01*
X48826637Y-96120658D01*
X48851253Y-96123173D01*
X48851255Y-96123173D01*
X48854455Y-96123500D01*
X50205544Y-96123499D01*
X50208731Y-96123173D01*
X50208739Y-96123173D01*
X50214690Y-96122565D01*
X50284491Y-96135538D01*
X50336198Y-96184190D01*
X50353499Y-96247912D01*
X50353499Y-96782086D01*
X50333497Y-96850207D01*
X50279841Y-96896700D01*
X50214701Y-96907434D01*
X50208749Y-96906826D01*
X50208722Y-96906824D01*
X50205545Y-96906500D01*
X50202339Y-96906500D01*
X48857661Y-96906500D01*
X48857641Y-96906500D01*
X48854456Y-96906501D01*
X48851279Y-96906825D01*
X48851270Y-96906826D01*
X48750573Y-96917113D01*
X48582262Y-96972885D01*
X48431344Y-97065972D01*
X48305972Y-97191344D01*
X48305970Y-97191348D01*
X48212885Y-97342262D01*
X48164123Y-97489419D01*
X48157112Y-97510578D01*
X48146826Y-97611253D01*
X48146824Y-97611275D01*
X48146500Y-97614455D01*
X48146500Y-97617659D01*
X48146500Y-97617660D01*
X48146500Y-98337338D01*
X48146500Y-98337357D01*
X48146501Y-98340544D01*
X48146825Y-98343721D01*
X48146826Y-98343729D01*
X48151332Y-98387833D01*
X48157113Y-98444426D01*
X48212885Y-98612738D01*
X48283263Y-98726838D01*
X48305972Y-98763655D01*
X48431344Y-98889027D01*
X48431346Y-98889028D01*
X48431348Y-98889030D01*
X48582262Y-98982115D01*
X48617633Y-98993835D01*
X48676003Y-99034247D01*
X48703260Y-99099803D01*
X48704000Y-99113439D01*
X48704000Y-99404244D01*
X48697833Y-99443180D01*
X48636458Y-99632070D01*
X48616496Y-99821999D01*
X48636458Y-100011930D01*
X48687555Y-100169190D01*
X48689582Y-100240158D01*
X48652920Y-100300956D01*
X48589207Y-100332281D01*
X48548012Y-100332575D01*
X48391374Y-100307766D01*
X48384832Y-100307079D01*
X48003301Y-100287084D01*
X47996699Y-100287084D01*
X47615167Y-100307079D01*
X47608629Y-100307766D01*
X47231265Y-100367534D01*
X47224815Y-100368905D01*
X46855784Y-100467787D01*
X46849501Y-100469829D01*
X46492835Y-100606739D01*
X46486811Y-100609421D01*
X46146397Y-100782872D01*
X46140686Y-100786169D01*
X45820267Y-100994251D01*
X45814938Y-100998123D01*
X45562086Y-101202877D01*
X47059204Y-102699995D01*
X47056635Y-102701570D01*
X46865130Y-102865130D01*
X46701570Y-103056635D01*
X46699995Y-103059204D01*
X45202877Y-101562086D01*
X44998123Y-101814938D01*
X44994251Y-101820267D01*
X44786169Y-102140686D01*
X44782872Y-102146397D01*
X44609421Y-102486811D01*
X44606739Y-102492835D01*
X44469829Y-102849501D01*
X44467787Y-102855784D01*
X44368905Y-103224815D01*
X44367534Y-103231265D01*
X44307766Y-103608629D01*
X44307079Y-103615167D01*
X44287084Y-103996699D01*
X44287084Y-104003300D01*
X44307079Y-104384832D01*
X44307766Y-104391370D01*
X44367534Y-104768734D01*
X44368905Y-104775184D01*
X44467787Y-105144215D01*
X44469829Y-105150498D01*
X44606739Y-105507164D01*
X44609421Y-105513188D01*
X44782873Y-105853605D01*
X44786169Y-105859314D01*
X44994248Y-106179727D01*
X44998130Y-106185070D01*
X45202876Y-106437911D01*
X45202877Y-106437912D01*
X46699994Y-104940794D01*
X46701570Y-104943365D01*
X46865130Y-105134870D01*
X47056635Y-105298430D01*
X47059203Y-105300004D01*
X45562086Y-106797121D01*
X45562087Y-106797122D01*
X45814929Y-107001869D01*
X45820272Y-107005751D01*
X46140685Y-107213830D01*
X46146394Y-107217126D01*
X46486811Y-107390578D01*
X46492835Y-107393260D01*
X46849501Y-107530170D01*
X46855784Y-107532212D01*
X47224815Y-107631094D01*
X47231265Y-107632465D01*
X47608629Y-107692233D01*
X47615167Y-107692920D01*
X47996699Y-107712916D01*
X48003301Y-107712916D01*
X48384832Y-107692920D01*
X48391370Y-107692233D01*
X48768734Y-107632465D01*
X48775184Y-107631094D01*
X49144215Y-107532212D01*
X49150498Y-107530170D01*
X49507164Y-107393260D01*
X49513188Y-107390578D01*
X49853605Y-107217126D01*
X49859314Y-107213830D01*
X50179728Y-107005751D01*
X50185064Y-107001874D01*
X50437912Y-106797121D01*
X48940795Y-105300004D01*
X48943365Y-105298430D01*
X49134870Y-105134870D01*
X49298430Y-104943365D01*
X49300004Y-104940795D01*
X50797121Y-106437912D01*
X51001874Y-106185064D01*
X51005751Y-106179728D01*
X51213830Y-105859314D01*
X51217126Y-105853605D01*
X51390578Y-105513188D01*
X51393260Y-105507164D01*
X51530170Y-105150498D01*
X51532212Y-105144215D01*
X51631094Y-104775184D01*
X51632465Y-104768734D01*
X51692233Y-104391370D01*
X51692920Y-104384832D01*
X51712916Y-104003300D01*
X51712916Y-103996699D01*
X51692920Y-103615167D01*
X51692233Y-103608629D01*
X51632465Y-103231265D01*
X51631094Y-103224815D01*
X51532212Y-102855784D01*
X51530170Y-102849501D01*
X51393268Y-102492857D01*
X51387529Y-102422093D01*
X51420959Y-102359460D01*
X51482945Y-102324843D01*
X51553806Y-102329234D01*
X51599993Y-102358607D01*
X54172501Y-104931116D01*
X56584302Y-107342917D01*
X56597416Y-107359285D01*
X56649383Y-107408085D01*
X56652225Y-107410840D01*
X56672024Y-107430639D01*
X56675241Y-107433134D01*
X56684270Y-107440846D01*
X56716612Y-107471217D01*
X56734443Y-107481020D01*
X56750967Y-107491874D01*
X56767051Y-107504350D01*
X56807792Y-107521980D01*
X56818431Y-107527193D01*
X56857310Y-107548567D01*
X56857312Y-107548567D01*
X56857315Y-107548569D01*
X56877030Y-107553630D01*
X56895732Y-107560034D01*
X56914409Y-107568117D01*
X56914410Y-107568117D01*
X56958232Y-107575057D01*
X56969859Y-107577465D01*
X57012835Y-107588500D01*
X57012836Y-107588500D01*
X57033184Y-107588500D01*
X57052893Y-107590050D01*
X57072997Y-107593235D01*
X57117173Y-107589059D01*
X57129032Y-107588500D01*
X64317601Y-107588500D01*
X64385722Y-107608502D01*
X64411237Y-107630189D01*
X64412747Y-107631866D01*
X64533649Y-107719707D01*
X64570615Y-107746564D01*
X64613969Y-107802786D01*
X64620044Y-107873522D01*
X64586913Y-107936314D01*
X64525093Y-107971226D01*
X64496554Y-107974500D01*
X47003293Y-107974500D01*
X46996700Y-107974327D01*
X46978512Y-107973373D01*
X46695679Y-107958550D01*
X46682563Y-107957172D01*
X46388088Y-107910532D01*
X46375188Y-107907790D01*
X46087205Y-107830626D01*
X46074661Y-107826550D01*
X45796327Y-107719707D01*
X45784280Y-107714343D01*
X45518631Y-107578989D01*
X45507208Y-107572394D01*
X45380247Y-107489944D01*
X45257164Y-107410013D01*
X45246498Y-107402263D01*
X45235380Y-107393260D01*
X45014802Y-107214639D01*
X45005001Y-107205814D01*
X44794185Y-106994998D01*
X44785360Y-106985197D01*
X44767479Y-106963116D01*
X44597732Y-106753495D01*
X44589988Y-106742838D01*
X44427601Y-106492785D01*
X44421010Y-106481368D01*
X44285656Y-106215719D01*
X44280292Y-106203672D01*
X44235018Y-106085730D01*
X44173447Y-105925332D01*
X44169373Y-105912794D01*
X44134898Y-105784132D01*
X44092209Y-105624811D01*
X44089467Y-105611911D01*
X44042826Y-105317435D01*
X44041449Y-105304319D01*
X44025673Y-105003300D01*
X44025500Y-104996706D01*
X44025500Y-74168000D01*
X45118844Y-74168000D01*
X45137436Y-74392368D01*
X45137436Y-74392371D01*
X45137437Y-74392372D01*
X45192702Y-74610611D01*
X45192703Y-74610614D01*
X45192704Y-74610616D01*
X45209283Y-74648412D01*
X45283139Y-74816790D01*
X45406278Y-75005268D01*
X45558762Y-75170908D01*
X45692633Y-75275105D01*
X45736424Y-75309189D01*
X45934426Y-75416342D01*
X46147365Y-75489444D01*
X46369431Y-75526500D01*
X46369434Y-75526500D01*
X46594566Y-75526500D01*
X46594569Y-75526500D01*
X46816635Y-75489444D01*
X47029574Y-75416342D01*
X47227576Y-75309189D01*
X47405240Y-75170906D01*
X47557722Y-75005268D01*
X47680860Y-74816791D01*
X47771296Y-74610616D01*
X47826564Y-74392368D01*
X47845156Y-74168000D01*
X47826564Y-73943632D01*
X47771296Y-73725384D01*
X47680860Y-73519209D01*
X47557722Y-73330732D01*
X47414157Y-73174780D01*
X47382737Y-73111117D01*
X47390724Y-73040571D01*
X47435583Y-72985542D01*
X47462827Y-72971388D01*
X47577963Y-72928445D01*
X47694904Y-72840904D01*
X47782445Y-72723962D01*
X47833494Y-72587093D01*
X47839640Y-72529936D01*
X47840000Y-72523222D01*
X47840000Y-71882000D01*
X46913116Y-71882000D01*
X46941493Y-71837844D01*
X46982000Y-71699889D01*
X46982000Y-71556111D01*
X46941493Y-71418156D01*
X46913116Y-71374000D01*
X47840000Y-71374000D01*
X47840000Y-70732777D01*
X47839640Y-70726063D01*
X47833494Y-70668906D01*
X47782445Y-70532037D01*
X47694904Y-70415095D01*
X47577962Y-70327554D01*
X47441093Y-70276505D01*
X47383936Y-70270359D01*
X47377223Y-70270000D01*
X46736000Y-70270000D01*
X46736000Y-71194325D01*
X46624315Y-71143320D01*
X46517763Y-71128000D01*
X46446237Y-71128000D01*
X46339685Y-71143320D01*
X46228000Y-71194325D01*
X46228000Y-70270000D01*
X45586777Y-70270000D01*
X45580063Y-70270359D01*
X45522906Y-70276505D01*
X45386037Y-70327554D01*
X45269095Y-70415095D01*
X45181554Y-70532037D01*
X45130505Y-70668906D01*
X45124359Y-70726063D01*
X45124000Y-70732777D01*
X45124000Y-71374000D01*
X46050884Y-71374000D01*
X46022507Y-71418156D01*
X45982000Y-71556111D01*
X45982000Y-71699889D01*
X46022507Y-71837844D01*
X46050884Y-71882000D01*
X45124000Y-71882000D01*
X45124000Y-72523222D01*
X45124359Y-72529936D01*
X45130505Y-72587093D01*
X45181554Y-72723962D01*
X45269095Y-72840904D01*
X45386037Y-72928445D01*
X45501172Y-72971388D01*
X45558008Y-73013935D01*
X45582819Y-73080455D01*
X45567728Y-73149829D01*
X45549841Y-73174782D01*
X45406278Y-73330731D01*
X45283139Y-73519209D01*
X45192702Y-73725388D01*
X45137437Y-73943627D01*
X45137436Y-73943632D01*
X45118844Y-74168000D01*
X44025500Y-74168000D01*
X44025500Y-70209857D01*
X50879000Y-70209857D01*
X50879001Y-70213044D01*
X50889613Y-70316926D01*
X50945385Y-70485238D01*
X50974251Y-70532037D01*
X51038472Y-70636155D01*
X51163844Y-70761527D01*
X51163846Y-70761528D01*
X51163848Y-70761530D01*
X51314762Y-70854615D01*
X51483074Y-70910387D01*
X51559137Y-70918158D01*
X51583753Y-70920673D01*
X51583755Y-70920673D01*
X51586955Y-70921000D01*
X52938044Y-70920999D01*
X53041926Y-70910387D01*
X53210238Y-70854615D01*
X53361152Y-70761530D01*
X53486530Y-70636152D01*
X53579615Y-70485238D01*
X53635387Y-70316926D01*
X53646000Y-70213045D01*
X53645999Y-69486956D01*
X53635387Y-69383074D01*
X53579615Y-69214762D01*
X53486530Y-69063848D01*
X53486528Y-69063846D01*
X53486527Y-69063844D01*
X53361154Y-68938471D01*
X53293364Y-68896657D01*
X53245887Y-68843871D01*
X53234202Y-68802590D01*
X53217542Y-68644072D01*
X53186931Y-68549862D01*
X53158527Y-68462443D01*
X53063041Y-68297057D01*
X52935252Y-68155133D01*
X52780753Y-68042883D01*
X52780752Y-68042882D01*
X52606288Y-67965206D01*
X52419487Y-67925500D01*
X52228513Y-67925500D01*
X52103978Y-67951970D01*
X52041711Y-67965206D01*
X51901696Y-68027544D01*
X51878919Y-68037686D01*
X51867246Y-68042883D01*
X51712747Y-68155133D01*
X51584958Y-68297057D01*
X51489472Y-68462443D01*
X51430458Y-68644069D01*
X51421209Y-68732070D01*
X51394195Y-68797726D01*
X51335973Y-68838355D01*
X51335532Y-68838502D01*
X51314764Y-68845383D01*
X51163844Y-68938472D01*
X51038472Y-69063844D01*
X50987329Y-69146759D01*
X50945385Y-69214762D01*
X50889613Y-69383074D01*
X50889612Y-69383078D01*
X50879326Y-69483753D01*
X50879325Y-69483770D01*
X50879000Y-69486955D01*
X50879000Y-69490159D01*
X50879000Y-69490160D01*
X50879000Y-70209838D01*
X50879000Y-70209857D01*
X44025500Y-70209857D01*
X44025500Y-66918638D01*
X45313500Y-66918638D01*
X45320011Y-66979201D01*
X45330992Y-67008642D01*
X45371111Y-67116205D01*
X45458738Y-67233261D01*
X45575794Y-67320888D01*
X45575795Y-67320888D01*
X45575796Y-67320889D01*
X45712799Y-67371989D01*
X45773362Y-67378500D01*
X45776731Y-67378500D01*
X47367269Y-67378500D01*
X47370638Y-67378500D01*
X47431201Y-67371989D01*
X47568204Y-67320889D01*
X47685261Y-67233261D01*
X47772889Y-67116204D01*
X47823989Y-66979201D01*
X47830500Y-66918638D01*
X47830500Y-66674000D01*
X50214000Y-66674000D01*
X50214000Y-66915222D01*
X50214359Y-66921936D01*
X50220505Y-66979093D01*
X50271554Y-67115962D01*
X50359095Y-67232904D01*
X50476037Y-67320445D01*
X50612906Y-67371494D01*
X50670063Y-67377640D01*
X50676777Y-67378000D01*
X51218000Y-67378000D01*
X51218000Y-66674000D01*
X50214000Y-66674000D01*
X47830500Y-66674000D01*
X47830500Y-66166000D01*
X50214000Y-66166000D01*
X51218000Y-66166000D01*
X51218000Y-65462000D01*
X50676777Y-65462000D01*
X50670063Y-65462359D01*
X50612906Y-65468505D01*
X50476037Y-65519554D01*
X50359095Y-65607095D01*
X50271554Y-65724037D01*
X50220505Y-65860906D01*
X50214359Y-65918063D01*
X50214000Y-65924777D01*
X50214000Y-66166000D01*
X47830500Y-66166000D01*
X47830500Y-65921362D01*
X47823989Y-65860799D01*
X47772889Y-65723796D01*
X47759651Y-65706112D01*
X47685261Y-65606738D01*
X47568205Y-65519111D01*
X47480482Y-65486392D01*
X47431201Y-65468011D01*
X47370638Y-65461500D01*
X45773362Y-65461500D01*
X45770013Y-65461859D01*
X45770013Y-65461860D01*
X45712799Y-65468011D01*
X45575794Y-65519111D01*
X45458738Y-65606738D01*
X45371111Y-65723794D01*
X45340022Y-65807148D01*
X45320011Y-65860799D01*
X45313500Y-65921362D01*
X45313500Y-66918638D01*
X44025500Y-66918638D01*
X44025500Y-58003300D01*
X44287084Y-58003300D01*
X44307079Y-58384832D01*
X44307766Y-58391370D01*
X44367534Y-58768734D01*
X44368905Y-58775184D01*
X44467787Y-59144215D01*
X44469829Y-59150498D01*
X44606739Y-59507164D01*
X44609421Y-59513188D01*
X44782873Y-59853605D01*
X44786169Y-59859314D01*
X44994248Y-60179727D01*
X44998130Y-60185070D01*
X45202876Y-60437911D01*
X45202877Y-60437912D01*
X46699994Y-58940794D01*
X46701570Y-58943365D01*
X46865130Y-59134870D01*
X47056635Y-59298430D01*
X47059203Y-59300004D01*
X45562086Y-60797121D01*
X45562087Y-60797122D01*
X45814929Y-61001869D01*
X45820272Y-61005751D01*
X46140685Y-61213830D01*
X46146394Y-61217126D01*
X46486811Y-61390578D01*
X46492835Y-61393260D01*
X46589011Y-61430178D01*
X46645439Y-61473263D01*
X46669616Y-61540017D01*
X46653865Y-61609244D01*
X46632953Y-61636904D01*
X46145264Y-62124595D01*
X46082951Y-62158620D01*
X46056168Y-62161500D01*
X45773362Y-62161500D01*
X45770013Y-62161859D01*
X45770013Y-62161860D01*
X45712799Y-62168011D01*
X45575794Y-62219111D01*
X45458738Y-62306738D01*
X45371111Y-62423794D01*
X45336474Y-62516660D01*
X45320011Y-62560799D01*
X45313500Y-62621362D01*
X45313500Y-63618638D01*
X45313860Y-63621986D01*
X45320011Y-63679200D01*
X45371111Y-63816205D01*
X45458738Y-63933261D01*
X45575794Y-64020888D01*
X45575795Y-64020888D01*
X45575796Y-64020889D01*
X45712799Y-64071989D01*
X45773362Y-64078500D01*
X45776731Y-64078500D01*
X47367269Y-64078500D01*
X47370638Y-64078500D01*
X47431201Y-64071989D01*
X47568204Y-64020889D01*
X47685261Y-63933261D01*
X47772889Y-63816204D01*
X47823989Y-63679201D01*
X47830500Y-63618638D01*
X47830500Y-62928000D01*
X47850502Y-62859879D01*
X47904158Y-62813386D01*
X47956500Y-62802000D01*
X50087500Y-62802000D01*
X50155621Y-62822002D01*
X50202114Y-62875658D01*
X50213500Y-62928000D01*
X50213500Y-63618638D01*
X50213860Y-63621986D01*
X50220011Y-63679200D01*
X50271111Y-63816205D01*
X50358738Y-63933261D01*
X50475794Y-64020888D01*
X50475795Y-64020888D01*
X50475796Y-64020889D01*
X50612799Y-64071989D01*
X50673362Y-64078500D01*
X51225578Y-64078500D01*
X51293699Y-64098502D01*
X51314673Y-64115405D01*
X52458480Y-65259213D01*
X52492506Y-65321525D01*
X52487441Y-65392341D01*
X52444894Y-65449176D01*
X52378374Y-65473987D01*
X52346906Y-65469463D01*
X52346828Y-65470197D01*
X52273936Y-65462359D01*
X52267223Y-65462000D01*
X51726000Y-65462000D01*
X51726000Y-67378000D01*
X52267223Y-67378000D01*
X52273936Y-67377640D01*
X52331093Y-67371494D01*
X52467962Y-67320445D01*
X52584902Y-67232905D01*
X52603817Y-67207638D01*
X52660652Y-67165090D01*
X52731468Y-67160024D01*
X52793781Y-67194048D01*
X52805555Y-67207635D01*
X52824739Y-67233262D01*
X52941794Y-67320888D01*
X52941795Y-67320888D01*
X52941796Y-67320889D01*
X53078799Y-67371989D01*
X53139362Y-67378500D01*
X53142731Y-67378500D01*
X54733269Y-67378500D01*
X54736638Y-67378500D01*
X54797201Y-67371989D01*
X54934204Y-67320889D01*
X55051261Y-67233261D01*
X55138889Y-67116204D01*
X55189989Y-66979201D01*
X55189989Y-66979198D01*
X55190493Y-66977848D01*
X55233040Y-66921012D01*
X55299560Y-66896201D01*
X55368934Y-66911292D01*
X55397643Y-66932784D01*
X58445944Y-69981086D01*
X61494094Y-73029236D01*
X61528120Y-73091548D01*
X61530999Y-73118331D01*
X61530999Y-74916667D01*
X61510997Y-74984788D01*
X61494094Y-75005762D01*
X60657297Y-75842559D01*
X60649775Y-75849494D01*
X60610791Y-75882608D01*
X60564221Y-75943869D01*
X60562122Y-75946554D01*
X60513597Y-76006922D01*
X60502280Y-76025169D01*
X60469758Y-76095463D01*
X60468285Y-76098536D01*
X60433864Y-76167941D01*
X60426732Y-76188200D01*
X60410084Y-76263829D01*
X60409306Y-76267147D01*
X60390610Y-76342327D01*
X60387999Y-76363642D01*
X60387999Y-76441088D01*
X60387953Y-76444497D01*
X60385855Y-76521965D01*
X60388000Y-76544512D01*
X60388000Y-86067296D01*
X60387584Y-86077522D01*
X60384442Y-86116114D01*
X60383433Y-86128499D01*
X60384611Y-86137147D01*
X60393824Y-86204773D01*
X60394238Y-86208158D01*
X60402610Y-86285135D01*
X60407504Y-86306020D01*
X60407687Y-86306520D01*
X60407688Y-86306521D01*
X60434238Y-86378789D01*
X60435360Y-86381977D01*
X60460086Y-86455363D01*
X60469366Y-86474729D01*
X60511073Y-86539979D01*
X60512872Y-86542879D01*
X60552816Y-86609267D01*
X60566034Y-86626174D01*
X60566406Y-86626546D01*
X60566408Y-86626549D01*
X60620829Y-86680970D01*
X60623172Y-86683378D01*
X60676466Y-86739639D01*
X60693931Y-86754072D01*
X61475879Y-87536020D01*
X61509905Y-87598332D01*
X61504840Y-87669147D01*
X61462293Y-87725983D01*
X61395773Y-87750794D01*
X61360589Y-87748362D01*
X61309487Y-87737500D01*
X61118513Y-87737500D01*
X60993979Y-87763970D01*
X60931711Y-87777206D01*
X60810320Y-87831253D01*
X60758394Y-87854372D01*
X60757246Y-87854883D01*
X60602747Y-87967133D01*
X60474958Y-88109057D01*
X60379472Y-88274443D01*
X60320458Y-88456070D01*
X60301872Y-88632906D01*
X60300496Y-88646000D01*
X60308043Y-88717804D01*
X60320458Y-88835929D01*
X60379472Y-89017556D01*
X60474958Y-89182942D01*
X60535060Y-89249692D01*
X60602747Y-89324866D01*
X60757248Y-89437118D01*
X60931712Y-89514794D01*
X61118513Y-89554500D01*
X61118515Y-89554500D01*
X61309485Y-89554500D01*
X61309487Y-89554500D01*
X61496288Y-89514794D01*
X61515801Y-89506105D01*
X61586168Y-89496671D01*
X61650465Y-89526776D01*
X61674291Y-89555064D01*
X61737354Y-89657305D01*
X61744972Y-89669655D01*
X61870344Y-89795027D01*
X61870346Y-89795028D01*
X61870348Y-89795030D01*
X62021262Y-89888115D01*
X62189574Y-89943887D01*
X62265637Y-89951658D01*
X62290253Y-89954173D01*
X62290255Y-89954173D01*
X62293455Y-89954500D01*
X65219544Y-89954499D01*
X65323426Y-89943887D01*
X65491738Y-89888115D01*
X65642652Y-89795030D01*
X65768030Y-89669652D01*
X65861115Y-89518738D01*
X65916887Y-89350426D01*
X65927500Y-89246545D01*
X65927500Y-88900000D01*
X66661000Y-88900000D01*
X66661000Y-89243302D01*
X66661325Y-89249692D01*
X66671606Y-89350327D01*
X66727340Y-89518522D01*
X66820367Y-89669342D01*
X66945657Y-89794632D01*
X67096477Y-89887659D01*
X67264672Y-89943393D01*
X67365307Y-89953674D01*
X67371697Y-89954000D01*
X68577500Y-89954000D01*
X68577500Y-88900000D01*
X69085500Y-88900000D01*
X69085500Y-89954000D01*
X70291303Y-89954000D01*
X70297692Y-89953674D01*
X70398327Y-89943393D01*
X70566522Y-89887659D01*
X70717342Y-89794632D01*
X70842632Y-89669342D01*
X70935659Y-89518522D01*
X70991393Y-89350327D01*
X71001674Y-89249692D01*
X71002000Y-89243302D01*
X71002000Y-88900000D01*
X69085500Y-88900000D01*
X68577500Y-88900000D01*
X66661000Y-88900000D01*
X65927500Y-88900000D01*
X65927499Y-88392000D01*
X66661000Y-88392000D01*
X68577500Y-88392000D01*
X68577500Y-87338000D01*
X67371697Y-87338000D01*
X67365307Y-87338325D01*
X67264672Y-87348606D01*
X67096477Y-87404340D01*
X66945657Y-87497367D01*
X66820367Y-87622657D01*
X66727340Y-87773477D01*
X66671606Y-87941672D01*
X66661325Y-88042307D01*
X66661000Y-88048697D01*
X66661000Y-88392000D01*
X65927499Y-88392000D01*
X65927499Y-88045456D01*
X65916887Y-87941574D01*
X65869695Y-87799158D01*
X65867256Y-87728206D01*
X65900204Y-87670434D01*
X66601735Y-86968904D01*
X66664048Y-86934879D01*
X66690831Y-86932000D01*
X70520276Y-86932000D01*
X70588397Y-86952002D01*
X70634890Y-87005658D01*
X70639877Y-87018358D01*
X70659885Y-87078738D01*
X70749195Y-87223531D01*
X70760702Y-87242187D01*
X70757910Y-87243908D01*
X70780732Y-87285701D01*
X70775667Y-87356516D01*
X70733120Y-87413352D01*
X70666600Y-87438163D01*
X70597226Y-87423072D01*
X70591465Y-87419725D01*
X70566524Y-87404341D01*
X70398327Y-87348606D01*
X70297692Y-87338325D01*
X70291303Y-87338000D01*
X69085500Y-87338000D01*
X69085500Y-88392000D01*
X71002000Y-88392000D01*
X71002000Y-88048697D01*
X71001674Y-88042307D01*
X70991393Y-87941672D01*
X70935659Y-87773477D01*
X70834903Y-87610126D01*
X70837721Y-87608387D01*
X70814955Y-87566694D01*
X70820020Y-87495879D01*
X70862567Y-87439043D01*
X70929087Y-87414232D01*
X70998461Y-87429323D01*
X71004202Y-87432658D01*
X71029262Y-87448115D01*
X71197574Y-87503887D01*
X71273637Y-87511658D01*
X71298253Y-87514173D01*
X71298255Y-87514173D01*
X71301455Y-87514500D01*
X71865168Y-87514499D01*
X71933289Y-87534501D01*
X71954263Y-87551404D01*
X74067095Y-89664235D01*
X74101120Y-89726547D01*
X74104000Y-89753330D01*
X74104000Y-102323296D01*
X74103584Y-102333522D01*
X74099433Y-102384497D01*
X74109824Y-102460773D01*
X74110238Y-102464158D01*
X74118610Y-102541135D01*
X74123504Y-102562020D01*
X74123687Y-102562520D01*
X74123688Y-102562521D01*
X74150238Y-102634789D01*
X74151360Y-102637977D01*
X74176086Y-102711363D01*
X74185366Y-102730729D01*
X74227073Y-102795979D01*
X74228872Y-102798879D01*
X74268816Y-102865267D01*
X74282034Y-102882174D01*
X74282406Y-102882546D01*
X74282408Y-102882549D01*
X74336829Y-102936970D01*
X74339172Y-102939378D01*
X74392466Y-102995639D01*
X74409931Y-103010072D01*
X75588557Y-104188698D01*
X75595494Y-104196222D01*
X75628610Y-104235209D01*
X75689876Y-104281782D01*
X75692506Y-104283837D01*
X75752519Y-104332077D01*
X75752521Y-104332078D01*
X75752933Y-104332409D01*
X75771161Y-104343715D01*
X75771637Y-104343935D01*
X75771641Y-104343938D01*
X75841477Y-104376247D01*
X75844533Y-104377712D01*
X75913952Y-104412141D01*
X75934180Y-104419262D01*
X75934697Y-104419375D01*
X75934702Y-104419378D01*
X76009892Y-104435927D01*
X76013158Y-104436694D01*
X76088341Y-104455392D01*
X76109640Y-104458000D01*
X76110167Y-104458000D01*
X76187107Y-104458000D01*
X76190518Y-104458046D01*
X76193727Y-104458132D01*
X76267432Y-104460129D01*
X76267433Y-104460128D01*
X76267961Y-104460143D01*
X76290508Y-104458000D01*
X98259296Y-104458000D01*
X98269521Y-104458415D01*
X98320499Y-104462567D01*
X98396771Y-104452174D01*
X98400061Y-104451770D01*
X98476613Y-104443446D01*
X98476620Y-104443443D01*
X98477150Y-104443386D01*
X98498015Y-104438497D01*
X98498517Y-104438312D01*
X98498521Y-104438312D01*
X98570823Y-104411748D01*
X98573896Y-104410666D01*
X98646874Y-104386078D01*
X98646875Y-104386076D01*
X98647377Y-104385908D01*
X98666715Y-104376641D01*
X98667161Y-104376355D01*
X98667166Y-104376354D01*
X98732029Y-104334893D01*
X98734872Y-104333130D01*
X98800822Y-104293451D01*
X98800824Y-104293448D01*
X98801276Y-104293177D01*
X98818169Y-104279971D01*
X98818546Y-104279593D01*
X98818549Y-104279592D01*
X98872987Y-104225152D01*
X98875358Y-104222844D01*
X98931258Y-104169894D01*
X98931260Y-104169889D01*
X98931648Y-104169523D01*
X98946067Y-104152072D01*
X99094839Y-104003300D01*
X103287084Y-104003300D01*
X103307079Y-104384832D01*
X103307766Y-104391370D01*
X103367534Y-104768734D01*
X103368905Y-104775184D01*
X103467787Y-105144215D01*
X103469829Y-105150498D01*
X103606739Y-105507164D01*
X103609421Y-105513188D01*
X103782873Y-105853605D01*
X103786169Y-105859314D01*
X103994248Y-106179727D01*
X103998130Y-106185070D01*
X104202876Y-106437911D01*
X104202877Y-106437912D01*
X105699994Y-104940794D01*
X105701570Y-104943365D01*
X105865130Y-105134870D01*
X106056635Y-105298430D01*
X106059203Y-105300004D01*
X104562086Y-106797121D01*
X104562087Y-106797122D01*
X104814929Y-107001869D01*
X104820272Y-107005751D01*
X105140685Y-107213830D01*
X105146394Y-107217126D01*
X105486811Y-107390578D01*
X105492835Y-107393260D01*
X105849501Y-107530170D01*
X105855784Y-107532212D01*
X106224815Y-107631094D01*
X106231265Y-107632465D01*
X106608629Y-107692233D01*
X106615167Y-107692920D01*
X106996699Y-107712916D01*
X107003301Y-107712916D01*
X107384832Y-107692920D01*
X107391370Y-107692233D01*
X107768734Y-107632465D01*
X107775184Y-107631094D01*
X108144215Y-107532212D01*
X108150498Y-107530170D01*
X108507164Y-107393260D01*
X108513188Y-107390578D01*
X108853605Y-107217126D01*
X108859314Y-107213830D01*
X109179728Y-107005751D01*
X109185064Y-107001874D01*
X109437912Y-106797121D01*
X107940795Y-105300004D01*
X107943365Y-105298430D01*
X108134870Y-105134870D01*
X108298430Y-104943365D01*
X108300004Y-104940795D01*
X109797121Y-106437912D01*
X110001874Y-106185064D01*
X110005751Y-106179728D01*
X110213830Y-105859314D01*
X110217126Y-105853605D01*
X110390578Y-105513188D01*
X110393260Y-105507164D01*
X110530170Y-105150498D01*
X110532212Y-105144215D01*
X110631094Y-104775184D01*
X110632465Y-104768734D01*
X110692233Y-104391370D01*
X110692920Y-104384832D01*
X110712916Y-104003300D01*
X110712916Y-103996699D01*
X110692920Y-103615167D01*
X110692233Y-103608629D01*
X110632465Y-103231265D01*
X110631094Y-103224815D01*
X110532212Y-102855784D01*
X110530170Y-102849501D01*
X110393260Y-102492835D01*
X110390578Y-102486811D01*
X110217127Y-102146397D01*
X110213830Y-102140686D01*
X110005753Y-101820275D01*
X110001865Y-101814924D01*
X109797122Y-101562087D01*
X109797121Y-101562086D01*
X108300004Y-103059203D01*
X108298430Y-103056635D01*
X108134870Y-102865130D01*
X107943365Y-102701570D01*
X107940795Y-102699995D01*
X109437912Y-101202877D01*
X109437911Y-101202876D01*
X109185070Y-100998130D01*
X109179727Y-100994248D01*
X108859314Y-100786169D01*
X108853605Y-100782873D01*
X108513188Y-100609421D01*
X108507164Y-100606739D01*
X108150498Y-100469829D01*
X108144215Y-100467787D01*
X107775184Y-100368905D01*
X107768734Y-100367534D01*
X107391370Y-100307766D01*
X107384832Y-100307079D01*
X107003301Y-100287084D01*
X106996699Y-100287084D01*
X106615167Y-100307079D01*
X106608629Y-100307766D01*
X106231265Y-100367534D01*
X106224815Y-100368905D01*
X105855784Y-100467787D01*
X105849501Y-100469829D01*
X105492835Y-100606739D01*
X105486811Y-100609421D01*
X105146397Y-100782872D01*
X105140686Y-100786169D01*
X104820267Y-100994251D01*
X104814938Y-100998123D01*
X104562086Y-101202877D01*
X106059204Y-102699995D01*
X106056635Y-102701570D01*
X105865130Y-102865130D01*
X105701570Y-103056635D01*
X105699995Y-103059204D01*
X104202877Y-101562086D01*
X103998123Y-101814938D01*
X103994251Y-101820267D01*
X103786169Y-102140686D01*
X103782872Y-102146397D01*
X103609421Y-102486811D01*
X103606739Y-102492835D01*
X103469829Y-102849501D01*
X103467787Y-102855784D01*
X103368905Y-103224815D01*
X103367534Y-103231265D01*
X103307766Y-103608629D01*
X103307079Y-103615167D01*
X103287084Y-103996699D01*
X103287084Y-104003300D01*
X99094839Y-104003300D01*
X104188709Y-98909430D01*
X104196209Y-98902515D01*
X104235209Y-98869390D01*
X104281804Y-98808093D01*
X104283830Y-98805501D01*
X104332077Y-98745481D01*
X104332078Y-98745477D01*
X104332412Y-98745063D01*
X104343716Y-98726838D01*
X104347205Y-98719298D01*
X104376244Y-98656529D01*
X104377720Y-98653449D01*
X104397911Y-98612738D01*
X104411905Y-98584523D01*
X104411905Y-98584520D01*
X104412142Y-98584044D01*
X104419262Y-98563824D01*
X104419378Y-98563298D01*
X104435931Y-98488091D01*
X104436680Y-98484894D01*
X104455265Y-98410168D01*
X104455265Y-98410163D01*
X104455391Y-98409657D01*
X104458000Y-98388365D01*
X104458000Y-98310891D01*
X104458046Y-98307480D01*
X104460143Y-98230038D01*
X104458000Y-98207492D01*
X104458000Y-93889757D01*
X104464167Y-93850821D01*
X104493485Y-93760588D01*
X104525542Y-93661928D01*
X104545504Y-93472000D01*
X104525542Y-93282072D01*
X104474476Y-93124909D01*
X104466527Y-93100443D01*
X104371041Y-92935057D01*
X104294527Y-92850080D01*
X104243253Y-92793134D01*
X104088752Y-92680882D01*
X103914288Y-92603206D01*
X103727487Y-92563500D01*
X103536513Y-92563500D01*
X103411978Y-92589970D01*
X103349711Y-92603206D01*
X103175246Y-92680883D01*
X103020747Y-92793133D01*
X102892958Y-92935057D01*
X102797472Y-93100443D01*
X102738458Y-93282070D01*
X102718496Y-93471999D01*
X102738458Y-93661929D01*
X102799833Y-93850821D01*
X102806000Y-93889757D01*
X102806000Y-97903668D01*
X102785998Y-97971789D01*
X102769095Y-97992763D01*
X97992764Y-102769095D01*
X97930452Y-102803121D01*
X97903669Y-102806000D01*
X92050293Y-102806000D01*
X91982172Y-102785998D01*
X91935679Y-102732342D01*
X91925575Y-102662068D01*
X91941174Y-102617000D01*
X92020527Y-102479556D01*
X92041564Y-102414812D01*
X92079542Y-102297928D01*
X92099504Y-102108000D01*
X92089971Y-102017305D01*
X92102743Y-101947471D01*
X92151244Y-101895624D01*
X92220077Y-101878229D01*
X92266527Y-101889030D01*
X92427712Y-101960794D01*
X92614513Y-102000500D01*
X92614515Y-102000500D01*
X92805485Y-102000500D01*
X92805487Y-102000500D01*
X92992288Y-101960794D01*
X93166752Y-101883118D01*
X93321253Y-101770866D01*
X93449040Y-101628944D01*
X93544527Y-101463556D01*
X93603542Y-101281928D01*
X93623504Y-101092000D01*
X93603542Y-100902072D01*
X93550750Y-100739596D01*
X93544527Y-100720443D01*
X93449041Y-100555057D01*
X93327990Y-100420616D01*
X93321253Y-100413134D01*
X93315838Y-100409200D01*
X93175281Y-100307079D01*
X93166752Y-100300882D01*
X92992288Y-100223206D01*
X92805487Y-100183500D01*
X92614513Y-100183500D01*
X92489979Y-100209970D01*
X92427711Y-100223206D01*
X92253246Y-100300883D01*
X92098747Y-100413133D01*
X92097237Y-100414811D01*
X92091986Y-100418045D01*
X92088033Y-100420918D01*
X92087813Y-100420616D01*
X92036790Y-100452050D01*
X92003601Y-100456500D01*
X89122976Y-100456500D01*
X89054855Y-100436498D01*
X89033881Y-100419595D01*
X86699805Y-98085519D01*
X86665779Y-98023207D01*
X86670844Y-97952392D01*
X86713391Y-97895556D01*
X86735648Y-97882231D01*
X86743677Y-97878488D01*
X86925781Y-97750977D01*
X87082977Y-97593781D01*
X87210488Y-97411677D01*
X87304440Y-97210196D01*
X87361978Y-96995463D01*
X87381353Y-96774000D01*
X87361978Y-96552537D01*
X87352111Y-96515713D01*
X87353799Y-96444740D01*
X87384720Y-96394010D01*
X104940944Y-78837786D01*
X105003254Y-78803762D01*
X105074069Y-78808827D01*
X105130905Y-78851374D01*
X105155716Y-78917894D01*
X105155558Y-78937863D01*
X105150647Y-78993998D01*
X105170022Y-79215467D01*
X105212636Y-79374500D01*
X105227560Y-79430196D01*
X105276244Y-79534599D01*
X105321512Y-79631678D01*
X105449025Y-79813784D01*
X105606215Y-79970974D01*
X105788321Y-80098487D01*
X105788322Y-80098487D01*
X105788323Y-80098488D01*
X105898375Y-80149806D01*
X105951659Y-80196722D01*
X105971120Y-80264999D01*
X105950578Y-80332959D01*
X105898374Y-80378194D01*
X105868991Y-80391895D01*
X105788322Y-80429512D01*
X105606215Y-80557025D01*
X105449025Y-80714215D01*
X105321512Y-80896322D01*
X105272497Y-81001437D01*
X105227682Y-81097544D01*
X105227559Y-81097807D01*
X105170022Y-81312532D01*
X105150647Y-81534000D01*
X105170022Y-81755467D01*
X105215584Y-81925501D01*
X105227560Y-81970196D01*
X105271917Y-82065320D01*
X105321512Y-82171678D01*
X105449025Y-82353784D01*
X105606215Y-82510974D01*
X105788321Y-82638487D01*
X105788322Y-82638487D01*
X105788323Y-82638488D01*
X105898375Y-82689806D01*
X105951659Y-82736722D01*
X105971120Y-82804999D01*
X105950578Y-82872959D01*
X105898374Y-82918194D01*
X105868991Y-82931895D01*
X105788322Y-82969512D01*
X105606215Y-83097025D01*
X105449025Y-83254215D01*
X105321512Y-83436322D01*
X105227559Y-83637807D01*
X105170022Y-83852532D01*
X105150647Y-84074000D01*
X105170022Y-84295467D01*
X105215388Y-84464770D01*
X105227560Y-84510196D01*
X105277293Y-84616849D01*
X105321512Y-84711678D01*
X105449025Y-84893784D01*
X105606215Y-85050974D01*
X105788321Y-85178487D01*
X105788322Y-85178487D01*
X105788323Y-85178488D01*
X105898375Y-85229806D01*
X105951659Y-85276722D01*
X105971120Y-85344999D01*
X105950578Y-85412959D01*
X105898374Y-85458194D01*
X105882335Y-85465674D01*
X105788322Y-85509512D01*
X105606215Y-85637025D01*
X105449025Y-85794215D01*
X105321512Y-85976322D01*
X105256327Y-86116114D01*
X105249291Y-86131203D01*
X105227559Y-86177807D01*
X105170022Y-86392532D01*
X105150647Y-86614000D01*
X105170022Y-86835467D01*
X105211000Y-86988393D01*
X105227560Y-87050196D01*
X105264556Y-87129534D01*
X105321512Y-87251678D01*
X105449025Y-87433784D01*
X105606215Y-87590974D01*
X105606218Y-87590976D01*
X105606219Y-87590977D01*
X105631083Y-87608387D01*
X105788321Y-87718487D01*
X105788322Y-87718487D01*
X105788323Y-87718488D01*
X105898375Y-87769806D01*
X105951659Y-87816722D01*
X105971120Y-87884999D01*
X105950578Y-87952959D01*
X105898374Y-87998194D01*
X105868991Y-88011895D01*
X105788322Y-88049512D01*
X105606215Y-88177025D01*
X105449025Y-88334215D01*
X105321512Y-88516322D01*
X105283247Y-88598383D01*
X105227682Y-88717544D01*
X105227559Y-88717807D01*
X105170022Y-88932532D01*
X105150647Y-89154000D01*
X105170022Y-89375467D01*
X105220391Y-89563440D01*
X105227560Y-89590196D01*
X105267928Y-89676766D01*
X105321512Y-89791678D01*
X105449025Y-89973784D01*
X105606215Y-90130974D01*
X105788321Y-90258487D01*
X105788322Y-90258487D01*
X105788323Y-90258488D01*
X105898375Y-90309806D01*
X105951659Y-90356722D01*
X105971120Y-90424999D01*
X105950578Y-90492959D01*
X105898374Y-90538194D01*
X105868991Y-90551895D01*
X105788322Y-90589512D01*
X105606215Y-90717025D01*
X105449025Y-90874215D01*
X105321512Y-91056322D01*
X105227559Y-91257807D01*
X105170022Y-91472532D01*
X105150647Y-91694000D01*
X105170022Y-91915467D01*
X105220391Y-92103440D01*
X105227560Y-92130196D01*
X105278119Y-92238620D01*
X105321512Y-92331678D01*
X105449025Y-92513784D01*
X105606215Y-92670974D01*
X105788321Y-92798487D01*
X105788322Y-92798487D01*
X105788323Y-92798488D01*
X105989804Y-92892440D01*
X106140739Y-92932883D01*
X106204532Y-92949977D01*
X106204533Y-92949977D01*
X106204537Y-92949978D01*
X106426000Y-92969353D01*
X106647463Y-92949978D01*
X106862196Y-92892440D01*
X107063677Y-92798488D01*
X107245781Y-92670977D01*
X107402977Y-92513781D01*
X107530488Y-92331677D01*
X107624440Y-92130196D01*
X107681978Y-91915463D01*
X107701353Y-91694000D01*
X107681978Y-91472537D01*
X107681417Y-91470445D01*
X107659969Y-91390400D01*
X107624440Y-91257804D01*
X107530488Y-91056324D01*
X107502114Y-91015802D01*
X107402974Y-90874215D01*
X107245784Y-90717025D01*
X107063678Y-90589512D01*
X106987077Y-90553793D01*
X106953624Y-90538193D01*
X106900341Y-90491278D01*
X106880880Y-90423001D01*
X106901422Y-90355041D01*
X106953624Y-90309806D01*
X107063677Y-90258488D01*
X107245781Y-90130977D01*
X107402977Y-89973781D01*
X107530488Y-89791677D01*
X107624440Y-89590196D01*
X107681978Y-89375463D01*
X107701353Y-89154000D01*
X107681978Y-88932537D01*
X107679575Y-88923570D01*
X107664883Y-88868739D01*
X107624440Y-88717804D01*
X107530488Y-88516324D01*
X107517578Y-88497887D01*
X107413347Y-88349029D01*
X107402977Y-88334219D01*
X107402976Y-88334218D01*
X107402974Y-88334215D01*
X107245784Y-88177025D01*
X107063678Y-88049512D01*
X106995286Y-88017621D01*
X106953624Y-87998193D01*
X106900341Y-87951278D01*
X106880880Y-87883001D01*
X106901422Y-87815041D01*
X106953624Y-87769806D01*
X107063677Y-87718488D01*
X107245781Y-87590977D01*
X107402977Y-87433781D01*
X107530488Y-87251677D01*
X107624440Y-87050196D01*
X107681978Y-86835463D01*
X107701353Y-86614000D01*
X107681978Y-86392537D01*
X107681015Y-86388944D01*
X107658461Y-86304772D01*
X107624440Y-86177804D01*
X107530488Y-85976324D01*
X107529964Y-85975576D01*
X107407560Y-85800764D01*
X107402977Y-85794219D01*
X107402976Y-85794218D01*
X107402974Y-85794215D01*
X107245784Y-85637025D01*
X107063678Y-85509512D01*
X107001340Y-85480444D01*
X106953624Y-85458193D01*
X106900341Y-85411278D01*
X106880880Y-85343001D01*
X106901422Y-85275041D01*
X106953624Y-85229806D01*
X107063677Y-85178488D01*
X107245781Y-85050977D01*
X107402977Y-84893781D01*
X107530488Y-84711677D01*
X107624440Y-84510196D01*
X107681978Y-84295463D01*
X107701353Y-84074000D01*
X107681978Y-83852537D01*
X107681417Y-83850445D01*
X107659968Y-83770397D01*
X107624440Y-83637804D01*
X107530488Y-83436324D01*
X107478956Y-83362729D01*
X107444567Y-83313616D01*
X107402977Y-83254219D01*
X107402976Y-83254218D01*
X107402974Y-83254215D01*
X107245784Y-83097025D01*
X107063678Y-82969512D01*
X107013247Y-82945996D01*
X106953624Y-82918193D01*
X106900341Y-82871278D01*
X106880880Y-82803001D01*
X106901422Y-82735041D01*
X106953624Y-82689806D01*
X107063677Y-82638488D01*
X107245781Y-82510977D01*
X107402977Y-82353781D01*
X107530488Y-82171677D01*
X107624440Y-81970196D01*
X107681978Y-81755463D01*
X107701353Y-81534000D01*
X107681978Y-81312537D01*
X107624440Y-81097804D01*
X107530488Y-80896324D01*
X107522217Y-80884512D01*
X107402974Y-80714215D01*
X107245784Y-80557025D01*
X107063677Y-80429512D01*
X106953626Y-80378194D01*
X106900341Y-80331276D01*
X106880880Y-80262999D01*
X106901422Y-80195039D01*
X106953624Y-80149806D01*
X107063677Y-80098488D01*
X107245781Y-79970977D01*
X107402977Y-79813781D01*
X107530488Y-79631677D01*
X107624440Y-79430196D01*
X107681978Y-79215463D01*
X107701353Y-78994000D01*
X107681978Y-78772537D01*
X107678857Y-78760891D01*
X107659475Y-78688556D01*
X107624440Y-78557804D01*
X107530488Y-78356324D01*
X107530485Y-78356320D01*
X107445332Y-78234708D01*
X107402977Y-78174219D01*
X107402975Y-78174217D01*
X107402974Y-78174215D01*
X107245784Y-78017025D01*
X107063678Y-77889512D01*
X106993117Y-77856609D01*
X106862196Y-77795560D01*
X106848709Y-77791946D01*
X106647467Y-77738022D01*
X106426000Y-77718647D01*
X106204535Y-77738022D01*
X106078182Y-77771878D01*
X106007205Y-77770188D01*
X105948409Y-77730393D01*
X105920462Y-77665129D01*
X105921122Y-77630459D01*
X105923235Y-77617121D01*
X105919059Y-77572944D01*
X105918500Y-77561086D01*
X105918500Y-72052952D01*
X105918500Y-66482417D01*
X105938501Y-66414300D01*
X105955399Y-66393331D01*
X106224182Y-66124548D01*
X106286492Y-66090524D01*
X106334462Y-66093339D01*
X106335066Y-66089725D01*
X106345362Y-66091443D01*
X106345365Y-66091444D01*
X106567431Y-66128500D01*
X106567434Y-66128500D01*
X106792566Y-66128500D01*
X106792569Y-66128500D01*
X107014635Y-66091444D01*
X107227574Y-66018342D01*
X107425576Y-65911189D01*
X107603240Y-65772906D01*
X107755722Y-65607268D01*
X107878860Y-65418791D01*
X107969296Y-65212616D01*
X108024564Y-64994368D01*
X108043156Y-64770000D01*
X108024564Y-64545632D01*
X107969296Y-64327384D01*
X107878860Y-64121209D01*
X107755722Y-63932732D01*
X107603240Y-63767094D01*
X107603239Y-63767093D01*
X107603237Y-63767091D01*
X107425578Y-63628812D01*
X107227573Y-63521657D01*
X107074510Y-63469111D01*
X107014635Y-63448556D01*
X106792569Y-63411500D01*
X106567431Y-63411500D01*
X106345365Y-63448556D01*
X106345362Y-63448556D01*
X106345362Y-63448557D01*
X106132426Y-63521657D01*
X105934421Y-63628812D01*
X105756762Y-63767091D01*
X105604275Y-63932735D01*
X105515182Y-64069101D01*
X105461179Y-64115189D01*
X105390831Y-64124764D01*
X105326473Y-64094786D01*
X105304217Y-64069101D01*
X105215321Y-63933037D01*
X105062903Y-63767466D01*
X104885302Y-63629233D01*
X104687368Y-63522116D01*
X104474510Y-63449042D01*
X104394000Y-63435606D01*
X104394000Y-64336325D01*
X104282315Y-64285320D01*
X104175763Y-64270000D01*
X104104237Y-64270000D01*
X103997685Y-64285320D01*
X103886000Y-64336325D01*
X103886000Y-63435607D01*
X103885999Y-63435606D01*
X103805489Y-63449042D01*
X103592631Y-63522116D01*
X103394697Y-63629233D01*
X103217099Y-63767463D01*
X103155951Y-63833888D01*
X103095098Y-63870459D01*
X103024133Y-63868324D01*
X102965588Y-63828162D01*
X102945194Y-63792582D01*
X102944998Y-63792057D01*
X102900889Y-63673796D01*
X102900888Y-63673794D01*
X102813261Y-63556738D01*
X102696205Y-63469111D01*
X102606377Y-63435607D01*
X102559201Y-63418011D01*
X102498638Y-63411500D01*
X100701362Y-63411500D01*
X100698013Y-63411859D01*
X100698013Y-63411860D01*
X100640799Y-63418011D01*
X100503794Y-63469111D01*
X100386738Y-63556738D01*
X100299111Y-63673794D01*
X100248011Y-63810799D01*
X100247118Y-63819110D01*
X100241500Y-63871362D01*
X100241500Y-65668638D01*
X100248011Y-65729201D01*
X100266960Y-65780005D01*
X100299111Y-65866205D01*
X100386738Y-65983261D01*
X100503794Y-66070888D01*
X100503795Y-66070888D01*
X100503796Y-66070889D01*
X100640799Y-66121989D01*
X100701362Y-66128500D01*
X100838500Y-66128500D01*
X100906621Y-66148502D01*
X100953114Y-66202158D01*
X100964500Y-66254500D01*
X100964500Y-75884576D01*
X100944498Y-75952697D01*
X100927595Y-75973671D01*
X92041458Y-84859808D01*
X91979146Y-84893834D01*
X91908331Y-84888769D01*
X91851495Y-84846222D01*
X91826684Y-84779702D01*
X91827052Y-84757553D01*
X91845504Y-84582000D01*
X91825542Y-84392072D01*
X91785245Y-84268051D01*
X91766527Y-84210443D01*
X91671041Y-84045057D01*
X91543252Y-83903133D01*
X91457583Y-83840891D01*
X91388752Y-83790882D01*
X91214288Y-83713206D01*
X91027487Y-83673500D01*
X90836513Y-83673500D01*
X90719872Y-83698293D01*
X90649711Y-83713206D01*
X90475246Y-83790883D01*
X90320747Y-83903133D01*
X90192958Y-84045057D01*
X90097472Y-84210443D01*
X90038458Y-84392070D01*
X90030407Y-84468673D01*
X90003393Y-84534329D01*
X89945171Y-84574958D01*
X89905097Y-84581501D01*
X87449541Y-84581501D01*
X87381420Y-84561499D01*
X87334927Y-84507843D01*
X87324823Y-84437569D01*
X87327834Y-84422890D01*
X87336092Y-84392070D01*
X87361978Y-84295463D01*
X87381353Y-84074000D01*
X87361978Y-83852537D01*
X87361417Y-83850445D01*
X87339968Y-83770397D01*
X87304440Y-83637804D01*
X87210488Y-83436324D01*
X87158956Y-83362729D01*
X87124567Y-83313616D01*
X87082977Y-83254219D01*
X87082976Y-83254218D01*
X87082974Y-83254215D01*
X86925784Y-83097025D01*
X86743676Y-82969511D01*
X86633035Y-82917919D01*
X86579749Y-82871002D01*
X86560288Y-82802725D01*
X86580830Y-82734765D01*
X86633035Y-82689529D01*
X86743425Y-82638053D01*
X86806603Y-82593814D01*
X86806603Y-82593812D01*
X86127791Y-81915000D01*
X86137569Y-81915000D01*
X86231421Y-81899339D01*
X86343251Y-81838820D01*
X86429371Y-81745269D01*
X86480448Y-81628823D01*
X86486538Y-81555329D01*
X87165812Y-82234603D01*
X87165814Y-82234603D01*
X87210052Y-82171427D01*
X87303968Y-81970024D01*
X87361482Y-81755376D01*
X87380850Y-81533999D01*
X87361482Y-81312623D01*
X87303968Y-81097975D01*
X87210052Y-80896574D01*
X87082590Y-80714539D01*
X87080709Y-80712658D01*
X87078711Y-80708999D01*
X87076270Y-80705513D01*
X87076658Y-80705240D01*
X87046683Y-80650346D01*
X87051748Y-80579531D01*
X87080707Y-80534470D01*
X97608418Y-70006760D01*
X97624781Y-69993652D01*
X97626800Y-69991501D01*
X97626803Y-69991500D01*
X97673603Y-69941661D01*
X97676295Y-69938883D01*
X97696139Y-69919041D01*
X97698624Y-69915836D01*
X97706338Y-69906802D01*
X97736717Y-69874453D01*
X97746519Y-69856621D01*
X97757375Y-69840096D01*
X97769849Y-69824015D01*
X97769848Y-69824015D01*
X97769850Y-69824014D01*
X97787476Y-69783280D01*
X97792690Y-69772636D01*
X97814069Y-69733750D01*
X97819129Y-69714036D01*
X97825533Y-69695333D01*
X97833617Y-69676655D01*
X97840557Y-69632830D01*
X97842962Y-69621212D01*
X97854000Y-69578229D01*
X97854000Y-69557881D01*
X97855551Y-69538170D01*
X97858735Y-69518068D01*
X97854559Y-69473891D01*
X97854000Y-69462033D01*
X97854000Y-66254500D01*
X97874002Y-66186379D01*
X97927658Y-66139886D01*
X97980000Y-66128500D01*
X98113769Y-66128500D01*
X98117138Y-66128500D01*
X98177701Y-66121989D01*
X98314704Y-66070889D01*
X98431761Y-65983261D01*
X98519389Y-65866204D01*
X98570489Y-65729201D01*
X98577000Y-65668638D01*
X98577000Y-63871362D01*
X98570489Y-63810799D01*
X98519389Y-63673796D01*
X98519388Y-63673794D01*
X98431761Y-63556738D01*
X98314705Y-63469111D01*
X98224877Y-63435607D01*
X98177701Y-63418011D01*
X98117138Y-63411500D01*
X96319862Y-63411500D01*
X96316513Y-63411859D01*
X96316513Y-63411860D01*
X96259299Y-63418011D01*
X96122294Y-63469111D01*
X96005238Y-63556738D01*
X95917609Y-63673796D01*
X95873500Y-63792057D01*
X95830953Y-63848893D01*
X95764433Y-63873703D01*
X95695059Y-63858611D01*
X95662746Y-63833363D01*
X95601740Y-63767094D01*
X95601739Y-63767093D01*
X95601737Y-63767091D01*
X95424078Y-63628812D01*
X95226073Y-63521657D01*
X95073010Y-63469111D01*
X95013135Y-63448556D01*
X94791069Y-63411500D01*
X94565931Y-63411500D01*
X94343865Y-63448556D01*
X94343862Y-63448556D01*
X94343862Y-63448557D01*
X94130926Y-63521657D01*
X93932921Y-63628812D01*
X93755262Y-63767091D01*
X93602775Y-63932735D01*
X93513682Y-64069101D01*
X93459679Y-64115189D01*
X93389331Y-64124764D01*
X93324973Y-64094786D01*
X93302717Y-64069101D01*
X93213821Y-63933037D01*
X93061403Y-63767466D01*
X92883802Y-63629233D01*
X92685868Y-63522116D01*
X92473010Y-63449042D01*
X92392500Y-63435606D01*
X92392500Y-64336325D01*
X92280815Y-64285320D01*
X92174263Y-64270000D01*
X92102737Y-64270000D01*
X91996185Y-64285320D01*
X91884500Y-64336325D01*
X91884500Y-63435607D01*
X91884499Y-63435606D01*
X91803989Y-63449042D01*
X91591131Y-63522116D01*
X91393197Y-63629233D01*
X91215596Y-63767466D01*
X91063178Y-63933037D01*
X90974282Y-64069102D01*
X90920278Y-64115190D01*
X90849930Y-64124765D01*
X90785573Y-64094787D01*
X90763316Y-64069101D01*
X90761286Y-64065994D01*
X90674222Y-63932732D01*
X90521740Y-63767094D01*
X90521739Y-63767093D01*
X90521737Y-63767091D01*
X90344078Y-63628812D01*
X90146073Y-63521657D01*
X89993010Y-63469111D01*
X89933135Y-63448556D01*
X89711069Y-63411500D01*
X89485931Y-63411500D01*
X89263865Y-63448556D01*
X89263862Y-63448556D01*
X89263862Y-63448557D01*
X89050926Y-63521657D01*
X88852921Y-63628812D01*
X88675262Y-63767091D01*
X88522778Y-63932731D01*
X88399639Y-64121209D01*
X88309202Y-64327388D01*
X88253937Y-64545627D01*
X88253936Y-64545632D01*
X88235344Y-64770000D01*
X88253936Y-64994368D01*
X88253936Y-64994371D01*
X88253937Y-64994372D01*
X88309202Y-65212611D01*
X88399639Y-65418790D01*
X88433683Y-65470898D01*
X88522778Y-65607268D01*
X88651795Y-65747417D01*
X88675262Y-65772908D01*
X88852921Y-65911187D01*
X88852924Y-65911189D01*
X89050926Y-66018342D01*
X89263865Y-66091444D01*
X89485931Y-66128500D01*
X89485934Y-66128500D01*
X89711066Y-66128500D01*
X89711069Y-66128500D01*
X89933135Y-66091444D01*
X90146074Y-66018342D01*
X90344076Y-65911189D01*
X90521740Y-65772906D01*
X90674222Y-65607268D01*
X90763317Y-65470896D01*
X90817319Y-65424809D01*
X90887667Y-65415234D01*
X90952024Y-65445211D01*
X90974282Y-65470897D01*
X91063178Y-65606962D01*
X91215596Y-65772533D01*
X91393197Y-65910766D01*
X91591131Y-66017883D01*
X91803985Y-66090955D01*
X91884500Y-66104391D01*
X91884500Y-65203674D01*
X91996185Y-65254680D01*
X92102737Y-65270000D01*
X92174263Y-65270000D01*
X92280815Y-65254680D01*
X92392499Y-65203674D01*
X92392499Y-66105076D01*
X92372497Y-66173197D01*
X92355594Y-66194171D01*
X84446078Y-74103687D01*
X84429711Y-74116801D01*
X84380928Y-74168749D01*
X84378179Y-74171586D01*
X84361158Y-74188607D01*
X84361144Y-74188622D01*
X84358361Y-74191406D01*
X84355946Y-74194518D01*
X84355923Y-74194545D01*
X84355841Y-74194652D01*
X84348156Y-74203648D01*
X84317781Y-74235996D01*
X84307974Y-74253833D01*
X84297125Y-74270349D01*
X84284649Y-74286433D01*
X84267022Y-74327164D01*
X84261804Y-74337816D01*
X84240430Y-74376697D01*
X84235370Y-74396406D01*
X84228967Y-74415108D01*
X84220883Y-74433789D01*
X84213941Y-74477619D01*
X84211534Y-74489240D01*
X84200500Y-74532217D01*
X84200500Y-74552565D01*
X84198949Y-74572275D01*
X84195764Y-74592378D01*
X84199941Y-74636554D01*
X84200500Y-74648412D01*
X84200500Y-78937341D01*
X84180498Y-79005462D01*
X84163595Y-79026436D01*
X81243370Y-81946660D01*
X81181058Y-81980686D01*
X81110242Y-81975621D01*
X81053407Y-81933074D01*
X81051062Y-81929835D01*
X80939300Y-81770222D01*
X80789779Y-81620701D01*
X80616559Y-81499411D01*
X80424910Y-81410043D01*
X80393796Y-81401707D01*
X80333173Y-81364755D01*
X80302152Y-81300895D01*
X80310580Y-81230400D01*
X80355783Y-81175653D01*
X80393796Y-81158293D01*
X80424910Y-81149956D01*
X80440899Y-81142500D01*
X80616558Y-81060589D01*
X80789776Y-80939301D01*
X80939301Y-80789776D01*
X81060589Y-80616558D01*
X81149956Y-80424910D01*
X81204686Y-80220655D01*
X81223116Y-80010000D01*
X81204686Y-79799345D01*
X81149956Y-79595090D01*
X81060589Y-79403442D01*
X81048784Y-79386583D01*
X80939298Y-79230220D01*
X80789779Y-79080701D01*
X80616559Y-78959411D01*
X80424910Y-78870043D01*
X80392829Y-78861448D01*
X80332207Y-78824497D01*
X80301185Y-78760636D01*
X80309613Y-78690142D01*
X80354816Y-78635395D01*
X80392829Y-78618034D01*
X80424740Y-78609483D01*
X80616304Y-78520156D01*
X80666087Y-78485297D01*
X80666087Y-78485296D01*
X80049518Y-77868727D01*
X80135148Y-77855165D01*
X80248045Y-77797641D01*
X80337641Y-77708045D01*
X80395165Y-77595148D01*
X80408727Y-77509518D01*
X81025296Y-78126087D01*
X81025297Y-78126087D01*
X81060156Y-78076304D01*
X81149483Y-77884740D01*
X81204191Y-77680568D01*
X81222613Y-77470000D01*
X81204191Y-77259431D01*
X81149484Y-77055261D01*
X81060153Y-76863691D01*
X81025297Y-76813912D01*
X81025296Y-76813912D01*
X80408727Y-77430481D01*
X80395165Y-77344852D01*
X80337641Y-77231955D01*
X80248045Y-77142359D01*
X80135148Y-77084835D01*
X80049517Y-77071272D01*
X80666086Y-76454702D01*
X80666086Y-76454701D01*
X80616308Y-76419846D01*
X80424738Y-76330515D01*
X80220568Y-76275808D01*
X80010000Y-76257386D01*
X79799431Y-76275808D01*
X79595262Y-76330515D01*
X79403693Y-76419845D01*
X79353912Y-76454702D01*
X79353912Y-76454703D01*
X79970481Y-77071272D01*
X79884852Y-77084835D01*
X79771955Y-77142359D01*
X79682359Y-77231955D01*
X79624835Y-77344852D01*
X79611272Y-77430481D01*
X78994703Y-76813912D01*
X78994702Y-76813912D01*
X78959845Y-76863693D01*
X78870514Y-77055264D01*
X78861964Y-77087173D01*
X78825011Y-77147795D01*
X78761149Y-77178815D01*
X78690655Y-77170385D01*
X78635909Y-77125180D01*
X78618551Y-77087168D01*
X78610002Y-77055264D01*
X78609956Y-77055090D01*
X78520589Y-76863442D01*
X78399301Y-76690224D01*
X78399300Y-76690223D01*
X78399298Y-76690220D01*
X78249779Y-76540701D01*
X78076559Y-76419411D01*
X77884909Y-76330043D01*
X77680655Y-76275314D01*
X77470000Y-76256884D01*
X77259344Y-76275314D01*
X77055090Y-76330043D01*
X76863440Y-76419411D01*
X76690220Y-76540701D01*
X76540701Y-76690220D01*
X76419411Y-76863440D01*
X76330043Y-77055090D01*
X76275314Y-77259344D01*
X76256884Y-77470000D01*
X76275314Y-77680655D01*
X76330043Y-77884909D01*
X76419411Y-78076559D01*
X76540701Y-78249779D01*
X76690220Y-78399298D01*
X76863440Y-78520588D01*
X76863441Y-78520588D01*
X76863442Y-78520589D01*
X77055090Y-78609956D01*
X77084729Y-78617897D01*
X77086204Y-78618293D01*
X77146826Y-78655245D01*
X77177848Y-78719106D01*
X77169419Y-78789600D01*
X77124216Y-78844347D01*
X77086204Y-78861707D01*
X77055088Y-78870044D01*
X76863440Y-78959411D01*
X76690220Y-79080701D01*
X76540701Y-79230220D01*
X76419411Y-79403440D01*
X76330043Y-79595090D01*
X76275314Y-79799344D01*
X76256884Y-80010000D01*
X76267762Y-80134338D01*
X76253772Y-80203943D01*
X76204373Y-80254935D01*
X76135247Y-80271125D01*
X76068341Y-80247372D01*
X76053146Y-80234414D01*
X74083333Y-78264601D01*
X71980328Y-76161595D01*
X71946302Y-76099283D01*
X71951367Y-76028467D01*
X71993914Y-75971632D01*
X72060434Y-75946821D01*
X72069423Y-75946500D01*
X73702931Y-75946500D01*
X73723769Y-75948800D01*
X73726716Y-75948707D01*
X73726719Y-75948708D01*
X73795012Y-75946561D01*
X73798969Y-75946500D01*
X73823027Y-75946500D01*
X73826983Y-75946500D01*
X73830995Y-75945992D01*
X73831004Y-75945992D01*
X73842848Y-75945058D01*
X73887205Y-75943665D01*
X73906744Y-75937987D01*
X73926102Y-75933978D01*
X73946299Y-75931427D01*
X73987555Y-75915092D01*
X73998765Y-75911253D01*
X74041393Y-75898869D01*
X74058907Y-75888510D01*
X74076667Y-75879810D01*
X74095586Y-75872320D01*
X74095586Y-75872319D01*
X74095588Y-75872319D01*
X74131499Y-75846227D01*
X74141399Y-75839724D01*
X74179598Y-75817134D01*
X74193986Y-75802745D01*
X74209021Y-75789904D01*
X74225487Y-75777942D01*
X74253787Y-75743731D01*
X74261747Y-75734983D01*
X75228829Y-74767901D01*
X75291139Y-74733878D01*
X75317922Y-74730999D01*
X76110338Y-74730999D01*
X76113544Y-74730999D01*
X76217426Y-74720387D01*
X76385738Y-74664615D01*
X76536652Y-74571530D01*
X76662030Y-74446152D01*
X76755115Y-74295238D01*
X76755362Y-74294490D01*
X76757323Y-74291658D01*
X76762847Y-74282703D01*
X76763320Y-74282994D01*
X76795770Y-74236118D01*
X76804821Y-74230836D01*
X76804707Y-74230678D01*
X76817588Y-74221319D01*
X76853499Y-74195227D01*
X76863399Y-74188724D01*
X76901598Y-74166134D01*
X76915986Y-74151745D01*
X76931021Y-74138904D01*
X76947487Y-74126942D01*
X76975788Y-74092729D01*
X76983757Y-74083973D01*
X84902327Y-66165405D01*
X84964640Y-66131379D01*
X84991423Y-66128500D01*
X86294269Y-66128500D01*
X86297638Y-66128500D01*
X86358201Y-66121989D01*
X86495204Y-66070889D01*
X86612261Y-65983261D01*
X86699889Y-65866204D01*
X86750989Y-65729201D01*
X86757500Y-65668638D01*
X86757500Y-63871362D01*
X86750989Y-63810799D01*
X86699889Y-63673796D01*
X86699888Y-63673794D01*
X86612261Y-63556738D01*
X86495205Y-63469111D01*
X86405377Y-63435607D01*
X86358201Y-63418011D01*
X86297638Y-63411500D01*
X84500362Y-63411500D01*
X84497013Y-63411859D01*
X84497013Y-63411860D01*
X84439799Y-63418011D01*
X84302794Y-63469111D01*
X84185738Y-63556738D01*
X84098109Y-63673796D01*
X84054000Y-63792057D01*
X84011453Y-63848893D01*
X83944933Y-63873703D01*
X83875559Y-63858611D01*
X83843246Y-63833363D01*
X83782240Y-63767094D01*
X83782239Y-63767093D01*
X83782237Y-63767091D01*
X83604578Y-63628812D01*
X83406573Y-63521657D01*
X83253510Y-63469111D01*
X83193635Y-63448556D01*
X82971569Y-63411500D01*
X82746431Y-63411500D01*
X82524365Y-63448556D01*
X82524362Y-63448556D01*
X82524362Y-63448557D01*
X82311426Y-63521657D01*
X82113421Y-63628812D01*
X81935762Y-63767091D01*
X81783275Y-63932735D01*
X81694182Y-64069101D01*
X81640179Y-64115189D01*
X81569831Y-64124764D01*
X81505473Y-64094786D01*
X81483217Y-64069101D01*
X81394321Y-63933037D01*
X81241903Y-63767466D01*
X81064302Y-63629233D01*
X80866368Y-63522116D01*
X80653510Y-63449042D01*
X80573000Y-63435606D01*
X80573000Y-64336325D01*
X80461315Y-64285320D01*
X80354763Y-64270000D01*
X80283237Y-64270000D01*
X80176685Y-64285320D01*
X80065000Y-64336325D01*
X80065000Y-63435607D01*
X80064999Y-63435606D01*
X79984489Y-63449042D01*
X79771631Y-63522116D01*
X79573697Y-63629233D01*
X79396096Y-63767466D01*
X79243678Y-63933037D01*
X79154782Y-64069102D01*
X79100778Y-64115190D01*
X79030430Y-64124765D01*
X78966073Y-64094787D01*
X78943816Y-64069101D01*
X78941786Y-64065994D01*
X78854722Y-63932732D01*
X78702240Y-63767094D01*
X78702239Y-63767093D01*
X78702237Y-63767091D01*
X78524578Y-63628812D01*
X78326573Y-63521657D01*
X78173510Y-63469111D01*
X78113635Y-63448556D01*
X77891569Y-63411500D01*
X77666431Y-63411500D01*
X77444365Y-63448556D01*
X77444362Y-63448556D01*
X77444362Y-63448557D01*
X77231426Y-63521657D01*
X77033421Y-63628812D01*
X76855762Y-63767091D01*
X76703278Y-63932731D01*
X76580139Y-64121209D01*
X76489702Y-64327388D01*
X76434437Y-64545627D01*
X76434436Y-64545632D01*
X76415844Y-64770000D01*
X76434436Y-64994368D01*
X76434436Y-64994371D01*
X76434437Y-64994372D01*
X76489702Y-65212611D01*
X76580139Y-65418790D01*
X76614183Y-65470898D01*
X76703278Y-65607268D01*
X76832295Y-65747417D01*
X76855761Y-65772907D01*
X76904390Y-65810756D01*
X76945862Y-65868380D01*
X76953000Y-65910188D01*
X76953000Y-68638669D01*
X76932998Y-68706790D01*
X76916099Y-68727759D01*
X76461336Y-69182523D01*
X76016763Y-69627096D01*
X75954451Y-69661121D01*
X75927668Y-69664000D01*
X74765661Y-69664000D01*
X74765641Y-69664000D01*
X74762456Y-69664001D01*
X74759279Y-69664325D01*
X74759270Y-69664326D01*
X74658573Y-69674613D01*
X74490262Y-69730385D01*
X74339347Y-69823470D01*
X74322722Y-69840096D01*
X74290721Y-69872096D01*
X74228412Y-69906120D01*
X74201628Y-69909000D01*
X74134372Y-69909000D01*
X74066251Y-69888998D01*
X74045281Y-69872099D01*
X73996652Y-69823470D01*
X73845738Y-69730385D01*
X73677426Y-69674613D01*
X73677423Y-69674612D01*
X73677421Y-69674612D01*
X73576746Y-69664326D01*
X73576725Y-69664324D01*
X73573545Y-69664000D01*
X73570339Y-69664000D01*
X72225661Y-69664000D01*
X72225641Y-69664000D01*
X72222456Y-69664001D01*
X72219279Y-69664325D01*
X72219270Y-69664326D01*
X72118573Y-69674613D01*
X71950262Y-69730385D01*
X71799347Y-69823470D01*
X71782722Y-69840096D01*
X71750721Y-69872096D01*
X71688412Y-69906120D01*
X71661628Y-69909000D01*
X69667057Y-69909000D01*
X69656831Y-69908584D01*
X69605856Y-69904433D01*
X69605855Y-69904433D01*
X69595785Y-69905804D01*
X69529576Y-69914824D01*
X69526193Y-69915238D01*
X69449224Y-69923609D01*
X69428328Y-69928506D01*
X69355604Y-69955223D01*
X69352389Y-69956355D01*
X69278992Y-69981086D01*
X69259625Y-69990366D01*
X69194362Y-70032081D01*
X69191466Y-70033877D01*
X69125086Y-70073817D01*
X69108172Y-70087042D01*
X69053398Y-70141814D01*
X69050957Y-70144189D01*
X68994718Y-70197463D01*
X68980286Y-70214926D01*
X65782831Y-73412381D01*
X65720519Y-73446407D01*
X65649704Y-73441342D01*
X65604642Y-73412382D01*
X65558807Y-73366547D01*
X65415601Y-73281855D01*
X65415600Y-73281854D01*
X65415599Y-73281854D01*
X65255832Y-73235438D01*
X65220958Y-73232693D01*
X65220950Y-73232692D01*
X65218502Y-73232500D01*
X65216033Y-73232500D01*
X64535416Y-73232500D01*
X64467295Y-73212498D01*
X64420802Y-73158842D01*
X64410106Y-73119671D01*
X64400346Y-73026811D01*
X64393542Y-72962072D01*
X64334527Y-72780444D01*
X64334527Y-72780443D01*
X64239041Y-72615057D01*
X64111252Y-72473133D01*
X64022664Y-72408770D01*
X63956752Y-72360882D01*
X63782288Y-72283206D01*
X63595487Y-72243500D01*
X63404513Y-72243500D01*
X63217712Y-72283206D01*
X63217710Y-72283206D01*
X63217709Y-72283207D01*
X63191760Y-72294760D01*
X63121393Y-72304193D01*
X63057097Y-72274085D01*
X63032549Y-72244609D01*
X63018181Y-72220728D01*
X63004969Y-72203828D01*
X62985775Y-72184634D01*
X62950168Y-72149027D01*
X62947825Y-72146620D01*
X62930187Y-72128000D01*
X62894894Y-72090742D01*
X62894890Y-72090739D01*
X62894531Y-72090360D01*
X62877069Y-72075928D01*
X58394236Y-67593095D01*
X58360210Y-67530783D01*
X58365275Y-67459968D01*
X58407822Y-67403132D01*
X58474342Y-67378321D01*
X58483331Y-67378000D01*
X58584000Y-67378000D01*
X59092000Y-67378000D01*
X59633223Y-67378000D01*
X59639936Y-67377640D01*
X59697093Y-67371494D01*
X59833962Y-67320445D01*
X59950904Y-67232904D01*
X60038445Y-67115962D01*
X60089494Y-66979093D01*
X60095640Y-66921936D01*
X60096000Y-66915222D01*
X60096000Y-66562844D01*
X60116002Y-66494723D01*
X60169658Y-66448230D01*
X60239932Y-66438126D01*
X60304512Y-66467620D01*
X60341603Y-66523209D01*
X60379885Y-66638738D01*
X60472970Y-66789652D01*
X60472972Y-66789655D01*
X60598344Y-66915027D01*
X60598346Y-66915028D01*
X60598348Y-66915030D01*
X60749262Y-67008115D01*
X60917574Y-67063887D01*
X60993637Y-67071658D01*
X61018253Y-67074173D01*
X61018255Y-67074173D01*
X61021455Y-67074500D01*
X61214500Y-67074499D01*
X61282620Y-67094501D01*
X61329113Y-67148156D01*
X61340500Y-67200499D01*
X61340500Y-67625696D01*
X61320498Y-67693817D01*
X61308136Y-67710007D01*
X61236958Y-67789057D01*
X61141472Y-67954443D01*
X61082458Y-68136070D01*
X61062496Y-68325999D01*
X61082458Y-68515929D01*
X61141472Y-68697556D01*
X61236958Y-68862942D01*
X61236960Y-68862944D01*
X61364747Y-69004866D01*
X61519248Y-69117118D01*
X61693712Y-69194794D01*
X61880513Y-69234500D01*
X61880515Y-69234500D01*
X62071485Y-69234500D01*
X62071487Y-69234500D01*
X62258288Y-69194794D01*
X62432752Y-69117118D01*
X62587253Y-69004866D01*
X62715040Y-68862944D01*
X62810527Y-68697556D01*
X62869542Y-68515928D01*
X62889504Y-68326000D01*
X62869542Y-68136072D01*
X62810527Y-67954444D01*
X62810527Y-67954443D01*
X62715041Y-67789057D01*
X62643864Y-67710007D01*
X62613147Y-67645999D01*
X62611500Y-67625696D01*
X62611500Y-67126683D01*
X62631502Y-67058562D01*
X62685158Y-67012069D01*
X62693883Y-67008642D01*
X62694736Y-67008115D01*
X62694738Y-67008115D01*
X62723481Y-66990385D01*
X62791960Y-66971648D01*
X62859699Y-66992906D01*
X62903637Y-67043978D01*
X63023189Y-67298040D01*
X63027001Y-67304974D01*
X63191847Y-67564730D01*
X63196500Y-67571135D01*
X63283043Y-67675746D01*
X64000913Y-66957875D01*
X64119632Y-67110404D01*
X64302523Y-67278768D01*
X64360537Y-67316670D01*
X63639521Y-68037686D01*
X63639521Y-68037688D01*
X63877280Y-68210429D01*
X63883961Y-68214669D01*
X64153572Y-68362889D01*
X64160707Y-68366247D01*
X64446769Y-68479507D01*
X64454295Y-68481952D01*
X64752278Y-68558462D01*
X64760050Y-68559944D01*
X65065278Y-68598503D01*
X65073169Y-68599000D01*
X65380831Y-68599000D01*
X65388721Y-68598503D01*
X65693949Y-68559944D01*
X65701721Y-68558462D01*
X65999704Y-68481952D01*
X66007230Y-68479507D01*
X66293292Y-68366247D01*
X66300427Y-68362889D01*
X66570038Y-68214669D01*
X66576719Y-68210429D01*
X66814477Y-68037688D01*
X66814477Y-68037686D01*
X66093461Y-67316670D01*
X66151477Y-67278768D01*
X66334368Y-67110404D01*
X66453085Y-66957876D01*
X67170955Y-67675746D01*
X67170956Y-67675745D01*
X67257499Y-67571135D01*
X67262152Y-67564730D01*
X67426998Y-67304974D01*
X67430810Y-67298040D01*
X67561800Y-67019672D01*
X67564715Y-67012309D01*
X67659783Y-66719723D01*
X67661754Y-66712046D01*
X67719400Y-66409855D01*
X67720393Y-66401994D01*
X67739710Y-66094957D01*
X70944290Y-66094957D01*
X70963606Y-66401994D01*
X70964599Y-66409855D01*
X71022245Y-66712046D01*
X71024216Y-66719723D01*
X71119284Y-67012309D01*
X71122199Y-67019672D01*
X71253189Y-67298040D01*
X71257001Y-67304974D01*
X71421847Y-67564730D01*
X71426500Y-67571135D01*
X71513043Y-67675746D01*
X72230913Y-66957875D01*
X72349632Y-67110404D01*
X72532523Y-67278768D01*
X72590537Y-67316670D01*
X71869521Y-68037686D01*
X71869521Y-68037688D01*
X72107280Y-68210429D01*
X72113961Y-68214669D01*
X72383572Y-68362889D01*
X72390707Y-68366247D01*
X72676769Y-68479507D01*
X72684295Y-68481952D01*
X72982278Y-68558462D01*
X72990050Y-68559944D01*
X73295278Y-68598503D01*
X73303169Y-68599000D01*
X73610831Y-68599000D01*
X73618721Y-68598503D01*
X73923949Y-68559944D01*
X73931721Y-68558462D01*
X74229704Y-68481952D01*
X74237230Y-68479507D01*
X74523292Y-68366247D01*
X74530427Y-68362889D01*
X74800038Y-68214669D01*
X74806719Y-68210429D01*
X75044477Y-68037688D01*
X75044477Y-68037686D01*
X74323461Y-67316670D01*
X74381477Y-67278768D01*
X74564368Y-67110404D01*
X74683085Y-66957876D01*
X75400955Y-67675746D01*
X75400956Y-67675745D01*
X75487499Y-67571135D01*
X75492152Y-67564730D01*
X75656998Y-67304974D01*
X75660810Y-67298040D01*
X75791800Y-67019672D01*
X75794715Y-67012309D01*
X75889783Y-66719723D01*
X75891754Y-66712046D01*
X75949400Y-66409855D01*
X75950393Y-66401994D01*
X75969710Y-66094957D01*
X75969710Y-66087042D01*
X75950393Y-65780005D01*
X75949400Y-65772144D01*
X75891754Y-65469953D01*
X75889783Y-65462276D01*
X75794715Y-65169690D01*
X75791800Y-65162327D01*
X75660810Y-64883959D01*
X75656998Y-64877025D01*
X75492152Y-64617269D01*
X75487499Y-64610864D01*
X75400955Y-64506252D01*
X74683084Y-65224122D01*
X74564368Y-65071596D01*
X74381477Y-64903232D01*
X74323461Y-64865328D01*
X75044477Y-64144312D01*
X75044477Y-64144310D01*
X74806719Y-63971570D01*
X74800038Y-63967330D01*
X74530427Y-63819110D01*
X74523292Y-63815752D01*
X74237230Y-63702492D01*
X74229704Y-63700047D01*
X73931721Y-63623537D01*
X73923949Y-63622055D01*
X73618721Y-63583496D01*
X73610831Y-63583000D01*
X73303169Y-63583000D01*
X73295278Y-63583496D01*
X72990050Y-63622055D01*
X72982278Y-63623537D01*
X72684295Y-63700047D01*
X72676769Y-63702492D01*
X72390707Y-63815752D01*
X72383572Y-63819110D01*
X72113961Y-63967330D01*
X72107272Y-63971575D01*
X71869521Y-64144309D01*
X71869521Y-64144312D01*
X72590538Y-64865328D01*
X72532523Y-64903232D01*
X72349632Y-65071596D01*
X72230914Y-65224123D01*
X71513043Y-64506252D01*
X71513042Y-64506252D01*
X71426495Y-64610870D01*
X71421850Y-64617263D01*
X71257001Y-64877025D01*
X71253189Y-64883959D01*
X71122199Y-65162327D01*
X71119284Y-65169690D01*
X71024216Y-65462276D01*
X71022245Y-65469953D01*
X70964599Y-65772144D01*
X70963606Y-65780005D01*
X70944290Y-66087042D01*
X70944290Y-66094957D01*
X67739710Y-66094957D01*
X67739710Y-66087042D01*
X67720393Y-65780005D01*
X67719400Y-65772144D01*
X67661754Y-65469953D01*
X67659783Y-65462276D01*
X67564715Y-65169690D01*
X67561800Y-65162327D01*
X67430810Y-64883959D01*
X67426998Y-64877025D01*
X67262152Y-64617269D01*
X67257499Y-64610864D01*
X67170955Y-64506252D01*
X66453084Y-65224122D01*
X66334368Y-65071596D01*
X66151477Y-64903232D01*
X66093461Y-64865328D01*
X66814477Y-64144312D01*
X66814477Y-64144310D01*
X66576719Y-63971570D01*
X66570038Y-63967330D01*
X66300427Y-63819110D01*
X66293292Y-63815752D01*
X66007230Y-63702492D01*
X65999704Y-63700047D01*
X65701721Y-63623537D01*
X65693949Y-63622055D01*
X65388721Y-63583496D01*
X65380831Y-63583000D01*
X65073169Y-63583000D01*
X65065278Y-63583496D01*
X64760050Y-63622055D01*
X64752278Y-63623537D01*
X64454295Y-63700047D01*
X64446769Y-63702492D01*
X64160707Y-63815752D01*
X64153572Y-63819110D01*
X63883961Y-63967330D01*
X63877272Y-63971575D01*
X63639521Y-64144309D01*
X63639521Y-64144312D01*
X64360538Y-64865329D01*
X64302523Y-64903232D01*
X64119632Y-65071596D01*
X64000914Y-65224123D01*
X63283043Y-64506252D01*
X63283042Y-64506252D01*
X63196495Y-64610870D01*
X63191850Y-64617263D01*
X63027001Y-64877025D01*
X63023192Y-64883953D01*
X62976578Y-64983013D01*
X62929475Y-65036134D01*
X62861130Y-65055356D01*
X62796424Y-65036605D01*
X62694741Y-64973886D01*
X62694738Y-64973885D01*
X62526426Y-64918113D01*
X62526423Y-64918112D01*
X62526421Y-64918112D01*
X62425746Y-64907826D01*
X62425725Y-64907824D01*
X62422545Y-64907500D01*
X62419339Y-64907500D01*
X61024661Y-64907500D01*
X61024641Y-64907500D01*
X61021456Y-64907501D01*
X61018279Y-64907825D01*
X61018270Y-64907826D01*
X60917573Y-64918113D01*
X60749262Y-64973885D01*
X60598344Y-65066972D01*
X60472972Y-65192344D01*
X60434523Y-65254680D01*
X60379885Y-65343262D01*
X60324113Y-65511574D01*
X60324112Y-65511578D01*
X60313826Y-65612253D01*
X60313824Y-65612275D01*
X60313500Y-65615455D01*
X60313500Y-65618659D01*
X60313500Y-65618660D01*
X60313500Y-65763116D01*
X60293498Y-65831237D01*
X60239842Y-65877730D01*
X60169568Y-65887834D01*
X60104988Y-65858340D01*
X60069444Y-65807148D01*
X60038445Y-65724037D01*
X59950904Y-65607095D01*
X59833962Y-65519554D01*
X59697093Y-65468505D01*
X59639936Y-65462359D01*
X59633223Y-65462000D01*
X59092000Y-65462000D01*
X59092000Y-67378000D01*
X58584000Y-67378000D01*
X58584000Y-66674000D01*
X57527809Y-66674000D01*
X57527809Y-66669461D01*
X57483538Y-66666295D01*
X57438475Y-66637334D01*
X56967141Y-66166000D01*
X57580000Y-66166000D01*
X58584000Y-66166000D01*
X58584000Y-65462000D01*
X58042777Y-65462000D01*
X58036063Y-65462359D01*
X57978906Y-65468505D01*
X57842037Y-65519554D01*
X57725095Y-65607095D01*
X57637554Y-65724037D01*
X57586505Y-65860906D01*
X57580359Y-65918063D01*
X57580000Y-65924777D01*
X57580000Y-66166000D01*
X56967141Y-66166000D01*
X55063141Y-64262000D01*
X55982496Y-64262000D01*
X56002458Y-64451929D01*
X56061472Y-64633556D01*
X56156958Y-64798942D01*
X56238037Y-64888989D01*
X56284747Y-64940866D01*
X56439248Y-65053118D01*
X56613712Y-65130794D01*
X56800513Y-65170500D01*
X56800515Y-65170500D01*
X56991485Y-65170500D01*
X56991487Y-65170500D01*
X57178288Y-65130794D01*
X57352752Y-65053118D01*
X57507253Y-64940866D01*
X57508762Y-64939189D01*
X57514013Y-64935954D01*
X57517967Y-64933082D01*
X57518186Y-64933383D01*
X57569210Y-64901950D01*
X57602399Y-64897500D01*
X57661931Y-64897500D01*
X57682769Y-64899800D01*
X57685716Y-64899707D01*
X57685719Y-64899708D01*
X57754012Y-64897561D01*
X57757969Y-64897500D01*
X57782027Y-64897500D01*
X57785983Y-64897500D01*
X57789995Y-64896992D01*
X57790004Y-64896992D01*
X57801848Y-64896058D01*
X57846205Y-64894665D01*
X57865744Y-64888987D01*
X57885102Y-64884978D01*
X57905299Y-64882427D01*
X57946555Y-64866092D01*
X57957765Y-64862253D01*
X58000393Y-64849869D01*
X58017907Y-64839510D01*
X58035667Y-64830810D01*
X58054586Y-64823320D01*
X58054586Y-64823319D01*
X58054588Y-64823319D01*
X58090499Y-64797227D01*
X58100399Y-64790724D01*
X58138598Y-64768134D01*
X58152986Y-64753745D01*
X58168021Y-64740904D01*
X58184487Y-64728942D01*
X58212783Y-64694736D01*
X58220753Y-64685977D01*
X58791327Y-64115404D01*
X58853640Y-64081379D01*
X58880423Y-64078500D01*
X59633269Y-64078500D01*
X59636638Y-64078500D01*
X59697201Y-64071989D01*
X59834204Y-64020889D01*
X59951261Y-63933261D01*
X60038889Y-63816204D01*
X60089989Y-63679201D01*
X60096500Y-63618638D01*
X60096500Y-63614353D01*
X60096560Y-63614148D01*
X60096681Y-63611893D01*
X60096626Y-63613921D01*
X60116502Y-63546232D01*
X60170158Y-63499739D01*
X60240432Y-63489635D01*
X60305012Y-63519129D01*
X60342103Y-63574718D01*
X60379885Y-63688738D01*
X60458507Y-63816204D01*
X60472972Y-63839655D01*
X60598344Y-63965027D01*
X60598346Y-63965028D01*
X60598348Y-63965030D01*
X60749262Y-64058115D01*
X60917574Y-64113887D01*
X60993637Y-64121658D01*
X61018253Y-64124173D01*
X61018255Y-64124173D01*
X61021455Y-64124500D01*
X62422544Y-64124499D01*
X62526426Y-64113887D01*
X62694738Y-64058115D01*
X62845652Y-63965030D01*
X62971030Y-63839652D01*
X63064115Y-63688738D01*
X63119887Y-63520426D01*
X63130500Y-63416545D01*
X63130499Y-62737499D01*
X63150501Y-62669379D01*
X63204157Y-62622886D01*
X63256499Y-62611500D01*
X66298021Y-62611500D01*
X66366142Y-62631502D01*
X66412635Y-62685158D01*
X66418727Y-62701360D01*
X66510143Y-63006712D01*
X66648950Y-63328501D01*
X66824175Y-63632000D01*
X67033449Y-63913104D01*
X67035957Y-63915762D01*
X67035961Y-63915767D01*
X67224310Y-64115404D01*
X67273943Y-64168012D01*
X67542403Y-64393278D01*
X67835200Y-64585853D01*
X68148374Y-64743135D01*
X68477690Y-64862996D01*
X68818694Y-64943816D01*
X69166775Y-64984500D01*
X69170445Y-64984500D01*
X69513555Y-64984500D01*
X69517225Y-64984500D01*
X69865306Y-64943816D01*
X70206310Y-64862996D01*
X70535626Y-64743135D01*
X70848800Y-64585853D01*
X71141597Y-64393278D01*
X71410057Y-64168012D01*
X71650551Y-63913104D01*
X71859825Y-63632000D01*
X72035050Y-63328501D01*
X72173857Y-63006712D01*
X72274367Y-62670984D01*
X72335222Y-62325857D01*
X72355599Y-61976000D01*
X72354521Y-61957500D01*
X72350231Y-61883842D01*
X72335222Y-61626143D01*
X72286844Y-61351778D01*
X72275004Y-61284628D01*
X72275003Y-61284626D01*
X72274367Y-61281016D01*
X72173857Y-60945288D01*
X72035050Y-60623499D01*
X71859825Y-60320000D01*
X71650551Y-60038896D01*
X71599390Y-59984669D01*
X71412574Y-59786656D01*
X71410057Y-59783988D01*
X71407249Y-59781631D01*
X71407245Y-59781628D01*
X71144412Y-59561084D01*
X71144411Y-59561083D01*
X71141597Y-59558722D01*
X70848800Y-59366147D01*
X70535626Y-59208865D01*
X70206310Y-59089004D01*
X70117857Y-59068040D01*
X69868875Y-59009029D01*
X69868860Y-59009026D01*
X69865306Y-59008184D01*
X69861665Y-59007758D01*
X69861657Y-59007757D01*
X69520871Y-58967926D01*
X69520868Y-58967925D01*
X69517225Y-58967500D01*
X69166775Y-58967500D01*
X69163132Y-58967925D01*
X69163128Y-58967926D01*
X68822342Y-59007757D01*
X68822331Y-59007758D01*
X68818694Y-59008184D01*
X68815142Y-59009025D01*
X68815124Y-59009029D01*
X68481259Y-59088158D01*
X68481256Y-59088158D01*
X68477690Y-59089004D01*
X68474238Y-59090260D01*
X68474236Y-59090261D01*
X68308736Y-59150498D01*
X68148374Y-59208865D01*
X68145107Y-59210505D01*
X68145104Y-59210507D01*
X67838467Y-59364506D01*
X67835200Y-59366147D01*
X67832148Y-59368153D01*
X67832145Y-59368156D01*
X67545470Y-59556704D01*
X67545460Y-59556710D01*
X67542403Y-59558722D01*
X67539596Y-59561076D01*
X67539587Y-59561084D01*
X67276754Y-59781628D01*
X67276741Y-59781639D01*
X67273943Y-59783988D01*
X67271432Y-59786648D01*
X67271425Y-59786656D01*
X67035961Y-60036232D01*
X67035950Y-60036245D01*
X67033449Y-60038896D01*
X67031265Y-60041829D01*
X67031263Y-60041832D01*
X66826360Y-60317064D01*
X66826354Y-60317072D01*
X66824175Y-60320000D01*
X66822343Y-60323172D01*
X66822343Y-60323173D01*
X66650784Y-60620321D01*
X66650778Y-60620331D01*
X66648950Y-60623499D01*
X66647501Y-60626857D01*
X66647496Y-60626868D01*
X66511595Y-60941920D01*
X66511590Y-60941932D01*
X66510143Y-60945288D01*
X66448857Y-61150000D01*
X66418728Y-61250637D01*
X66380029Y-61310159D01*
X66315293Y-61339311D01*
X66298021Y-61340500D01*
X62871069Y-61340500D01*
X62850231Y-61338199D01*
X62779002Y-61340438D01*
X62775044Y-61340500D01*
X62747017Y-61340500D01*
X62743107Y-61340993D01*
X62743069Y-61340996D01*
X62742942Y-61341013D01*
X62731142Y-61341941D01*
X62686792Y-61343335D01*
X62667252Y-61349012D01*
X62647902Y-61353020D01*
X62627702Y-61355572D01*
X62586437Y-61371910D01*
X62575210Y-61375753D01*
X62532608Y-61388130D01*
X62515091Y-61398490D01*
X62497344Y-61407184D01*
X62478411Y-61414680D01*
X62442513Y-61440762D01*
X62432595Y-61447277D01*
X62394400Y-61469865D01*
X62380003Y-61484262D01*
X62364978Y-61497094D01*
X62348513Y-61509057D01*
X62320220Y-61543256D01*
X62312233Y-61552032D01*
X61943669Y-61920596D01*
X61881359Y-61954620D01*
X61854576Y-61957500D01*
X61721500Y-61957500D01*
X61653379Y-61937498D01*
X61606886Y-61883842D01*
X61595500Y-61831500D01*
X61595500Y-59142500D01*
X61615502Y-59074379D01*
X61669158Y-59027886D01*
X61721500Y-59016500D01*
X61855269Y-59016500D01*
X61858638Y-59016500D01*
X61919201Y-59009989D01*
X62056204Y-58958889D01*
X62173261Y-58871261D01*
X62260889Y-58754204D01*
X62311989Y-58617201D01*
X62318500Y-58556638D01*
X62318500Y-57864957D01*
X62714290Y-57864957D01*
X62733606Y-58171994D01*
X62734599Y-58179855D01*
X62792245Y-58482046D01*
X62794216Y-58489723D01*
X62889284Y-58782309D01*
X62892199Y-58789672D01*
X63023189Y-59068040D01*
X63027001Y-59074974D01*
X63191847Y-59334730D01*
X63196500Y-59341135D01*
X63283043Y-59445746D01*
X64000913Y-58727875D01*
X64119632Y-58880404D01*
X64302523Y-59048768D01*
X64360537Y-59086670D01*
X63639521Y-59807686D01*
X63639521Y-59807688D01*
X63877280Y-59980429D01*
X63883961Y-59984669D01*
X64153572Y-60132889D01*
X64160707Y-60136247D01*
X64446769Y-60249507D01*
X64454295Y-60251952D01*
X64752278Y-60328462D01*
X64760050Y-60329944D01*
X65065278Y-60368503D01*
X65073169Y-60369000D01*
X65380831Y-60369000D01*
X65388721Y-60368503D01*
X65693949Y-60329944D01*
X65701721Y-60328462D01*
X65999704Y-60251952D01*
X66007230Y-60249507D01*
X66293292Y-60136247D01*
X66300427Y-60132889D01*
X66570038Y-59984669D01*
X66576719Y-59980429D01*
X66814477Y-59807688D01*
X66814477Y-59807686D01*
X66093461Y-59086670D01*
X66151477Y-59048768D01*
X66334368Y-58880404D01*
X66453085Y-58727876D01*
X67170955Y-59445746D01*
X67170956Y-59445745D01*
X67257499Y-59341135D01*
X67262152Y-59334730D01*
X67426998Y-59074974D01*
X67430810Y-59068040D01*
X67561800Y-58789672D01*
X67564715Y-58782309D01*
X67659783Y-58489723D01*
X67661754Y-58482046D01*
X67719400Y-58179855D01*
X67720393Y-58171994D01*
X67739710Y-57864957D01*
X70944290Y-57864957D01*
X70963606Y-58171994D01*
X70964599Y-58179855D01*
X71022245Y-58482046D01*
X71024216Y-58489723D01*
X71119284Y-58782309D01*
X71122199Y-58789672D01*
X71253189Y-59068040D01*
X71257001Y-59074974D01*
X71421847Y-59334730D01*
X71426500Y-59341135D01*
X71513043Y-59445746D01*
X72230913Y-58727875D01*
X72349632Y-58880404D01*
X72532523Y-59048768D01*
X72590537Y-59086670D01*
X71869521Y-59807686D01*
X71869521Y-59807688D01*
X72107280Y-59980429D01*
X72113961Y-59984669D01*
X72383572Y-60132889D01*
X72390707Y-60136247D01*
X72676769Y-60249507D01*
X72684295Y-60251952D01*
X72982278Y-60328462D01*
X72990050Y-60329944D01*
X73295278Y-60368503D01*
X73303169Y-60369000D01*
X73610831Y-60369000D01*
X73618721Y-60368503D01*
X73923949Y-60329944D01*
X73931721Y-60328462D01*
X74229704Y-60251952D01*
X74237230Y-60249507D01*
X74523292Y-60136247D01*
X74530427Y-60132889D01*
X74800038Y-59984669D01*
X74806719Y-59980429D01*
X75044477Y-59807688D01*
X75044477Y-59807686D01*
X74323461Y-59086670D01*
X74381477Y-59048768D01*
X74564368Y-58880404D01*
X74683085Y-58727876D01*
X75400955Y-59445746D01*
X75400956Y-59445745D01*
X75487499Y-59341135D01*
X75492152Y-59334730D01*
X75656998Y-59074974D01*
X75660810Y-59068040D01*
X75791800Y-58789672D01*
X75794715Y-58782309D01*
X75889783Y-58489723D01*
X75891754Y-58482046D01*
X75949400Y-58179855D01*
X75950393Y-58171994D01*
X75961006Y-58003300D01*
X103287084Y-58003300D01*
X103307079Y-58384832D01*
X103307766Y-58391370D01*
X103367534Y-58768734D01*
X103368905Y-58775184D01*
X103467787Y-59144215D01*
X103469829Y-59150498D01*
X103606739Y-59507164D01*
X103609421Y-59513188D01*
X103782873Y-59853605D01*
X103786169Y-59859314D01*
X103994248Y-60179727D01*
X103998130Y-60185070D01*
X104202876Y-60437911D01*
X104202877Y-60437912D01*
X105699994Y-58940794D01*
X105701570Y-58943365D01*
X105865130Y-59134870D01*
X106056635Y-59298430D01*
X106059203Y-59300004D01*
X104562086Y-60797121D01*
X104562087Y-60797122D01*
X104814929Y-61001869D01*
X104820272Y-61005751D01*
X105140685Y-61213830D01*
X105146394Y-61217126D01*
X105486811Y-61390578D01*
X105492835Y-61393260D01*
X105849501Y-61530170D01*
X105855784Y-61532212D01*
X106224815Y-61631094D01*
X106231265Y-61632465D01*
X106608629Y-61692233D01*
X106615167Y-61692920D01*
X106996699Y-61712916D01*
X107003301Y-61712916D01*
X107384832Y-61692920D01*
X107391370Y-61692233D01*
X107768734Y-61632465D01*
X107775184Y-61631094D01*
X108144215Y-61532212D01*
X108150498Y-61530170D01*
X108507164Y-61393260D01*
X108513188Y-61390578D01*
X108853605Y-61217126D01*
X108859314Y-61213830D01*
X109179728Y-61005751D01*
X109185064Y-61001874D01*
X109437912Y-60797121D01*
X107940795Y-59300004D01*
X107943365Y-59298430D01*
X108134870Y-59134870D01*
X108298430Y-58943365D01*
X108300004Y-58940795D01*
X109797121Y-60437912D01*
X110001874Y-60185064D01*
X110005751Y-60179728D01*
X110213830Y-59859314D01*
X110217126Y-59853605D01*
X110390578Y-59513188D01*
X110393260Y-59507164D01*
X110530170Y-59150498D01*
X110532212Y-59144215D01*
X110631094Y-58775184D01*
X110632465Y-58768734D01*
X110692233Y-58391370D01*
X110692920Y-58384832D01*
X110712916Y-58003300D01*
X110712916Y-57996699D01*
X110692920Y-57615167D01*
X110692233Y-57608629D01*
X110632465Y-57231265D01*
X110631094Y-57224815D01*
X110532212Y-56855784D01*
X110530170Y-56849501D01*
X110393260Y-56492835D01*
X110390578Y-56486811D01*
X110217127Y-56146397D01*
X110213830Y-56140686D01*
X110005753Y-55820275D01*
X110001865Y-55814924D01*
X109797122Y-55562087D01*
X109797121Y-55562086D01*
X108300004Y-57059203D01*
X108298430Y-57056635D01*
X108134870Y-56865130D01*
X107943365Y-56701570D01*
X107940794Y-56699994D01*
X109437912Y-55202877D01*
X109437911Y-55202876D01*
X109185070Y-54998130D01*
X109179727Y-54994248D01*
X108859314Y-54786169D01*
X108853605Y-54782873D01*
X108513188Y-54609421D01*
X108507164Y-54606739D01*
X108150498Y-54469829D01*
X108144215Y-54467787D01*
X107775184Y-54368905D01*
X107768734Y-54367534D01*
X107391370Y-54307766D01*
X107384832Y-54307079D01*
X107003301Y-54287084D01*
X106996699Y-54287084D01*
X106615167Y-54307079D01*
X106608629Y-54307766D01*
X106231265Y-54367534D01*
X106224815Y-54368905D01*
X105855784Y-54467787D01*
X105849501Y-54469829D01*
X105492835Y-54606739D01*
X105486811Y-54609421D01*
X105146397Y-54782872D01*
X105140686Y-54786169D01*
X104820267Y-54994251D01*
X104814938Y-54998123D01*
X104562086Y-55202877D01*
X106059204Y-56699995D01*
X106056635Y-56701570D01*
X105865130Y-56865130D01*
X105701570Y-57056635D01*
X105699995Y-57059204D01*
X104202877Y-55562086D01*
X103998123Y-55814938D01*
X103994251Y-55820267D01*
X103786169Y-56140686D01*
X103782872Y-56146397D01*
X103609421Y-56486811D01*
X103606739Y-56492835D01*
X103469829Y-56849501D01*
X103467787Y-56855784D01*
X103368905Y-57224815D01*
X103367534Y-57231265D01*
X103307766Y-57608629D01*
X103307079Y-57615167D01*
X103287084Y-57996699D01*
X103287084Y-58003300D01*
X75961006Y-58003300D01*
X75969710Y-57864957D01*
X75969710Y-57857042D01*
X75950393Y-57550005D01*
X75949400Y-57542144D01*
X75891754Y-57239953D01*
X75889783Y-57232276D01*
X75794715Y-56939690D01*
X75791800Y-56932327D01*
X75660810Y-56653959D01*
X75656998Y-56647025D01*
X75492152Y-56387269D01*
X75487499Y-56380864D01*
X75400955Y-56276252D01*
X74683084Y-56994122D01*
X74564368Y-56841596D01*
X74381477Y-56673232D01*
X74323461Y-56635328D01*
X75044477Y-55914312D01*
X75044477Y-55914310D01*
X74806719Y-55741570D01*
X74800038Y-55737330D01*
X74530427Y-55589110D01*
X74523292Y-55585752D01*
X74237230Y-55472492D01*
X74229704Y-55470047D01*
X73931721Y-55393537D01*
X73923949Y-55392055D01*
X73618721Y-55353496D01*
X73610831Y-55353000D01*
X73303169Y-55353000D01*
X73295278Y-55353496D01*
X72990050Y-55392055D01*
X72982278Y-55393537D01*
X72684295Y-55470047D01*
X72676769Y-55472492D01*
X72390707Y-55585752D01*
X72383572Y-55589110D01*
X72113961Y-55737330D01*
X72107272Y-55741575D01*
X71869521Y-55914309D01*
X71869521Y-55914312D01*
X72590538Y-56635329D01*
X72532523Y-56673232D01*
X72349632Y-56841596D01*
X72230914Y-56994123D01*
X71513043Y-56276252D01*
X71513042Y-56276252D01*
X71426495Y-56380870D01*
X71421850Y-56387263D01*
X71257001Y-56647025D01*
X71253189Y-56653959D01*
X71122199Y-56932327D01*
X71119284Y-56939690D01*
X71024216Y-57232276D01*
X71022245Y-57239953D01*
X70964599Y-57542144D01*
X70963606Y-57550005D01*
X70944290Y-57857042D01*
X70944290Y-57864957D01*
X67739710Y-57864957D01*
X67739710Y-57857042D01*
X67720393Y-57550005D01*
X67719400Y-57542144D01*
X67661754Y-57239953D01*
X67659783Y-57232276D01*
X67564715Y-56939690D01*
X67561800Y-56932327D01*
X67430810Y-56653959D01*
X67426998Y-56647025D01*
X67262152Y-56387269D01*
X67257499Y-56380864D01*
X67170955Y-56276252D01*
X66453084Y-56994122D01*
X66334368Y-56841596D01*
X66151477Y-56673232D01*
X66093461Y-56635328D01*
X66814477Y-55914312D01*
X66814477Y-55914310D01*
X66576719Y-55741570D01*
X66570038Y-55737330D01*
X66300427Y-55589110D01*
X66293292Y-55585752D01*
X66007230Y-55472492D01*
X65999704Y-55470047D01*
X65701721Y-55393537D01*
X65693949Y-55392055D01*
X65388721Y-55353496D01*
X65380831Y-55353000D01*
X65073169Y-55353000D01*
X65065278Y-55353496D01*
X64760050Y-55392055D01*
X64752278Y-55393537D01*
X64454295Y-55470047D01*
X64446769Y-55472492D01*
X64160707Y-55585752D01*
X64153572Y-55589110D01*
X63883961Y-55737330D01*
X63877272Y-55741575D01*
X63639521Y-55914309D01*
X63639521Y-55914312D01*
X64360538Y-56635329D01*
X64302523Y-56673232D01*
X64119632Y-56841596D01*
X64000914Y-56994123D01*
X63283043Y-56276252D01*
X63283042Y-56276252D01*
X63196495Y-56380870D01*
X63191850Y-56387263D01*
X63027001Y-56647025D01*
X63023189Y-56653959D01*
X62892199Y-56932327D01*
X62889284Y-56939690D01*
X62794216Y-57232276D01*
X62792245Y-57239953D01*
X62734599Y-57542144D01*
X62733606Y-57550005D01*
X62714290Y-57857042D01*
X62714290Y-57864957D01*
X62318500Y-57864957D01*
X62318500Y-56759362D01*
X62311989Y-56698799D01*
X62260889Y-56561796D01*
X62234136Y-56526058D01*
X62173261Y-56444738D01*
X62056205Y-56357111D01*
X61987702Y-56331561D01*
X61919201Y-56306011D01*
X61858638Y-56299500D01*
X60061362Y-56299500D01*
X60058013Y-56299859D01*
X60058013Y-56299860D01*
X60000799Y-56306011D01*
X59863794Y-56357111D01*
X59746738Y-56444738D01*
X59659111Y-56561794D01*
X59617547Y-56673232D01*
X59608011Y-56698799D01*
X59601500Y-56759362D01*
X59601500Y-58556638D01*
X59601860Y-58559986D01*
X59608011Y-58617200D01*
X59659111Y-58754205D01*
X59746738Y-58871261D01*
X59863794Y-58958888D01*
X59863795Y-58958888D01*
X59863796Y-58958889D01*
X60000799Y-59009989D01*
X60061362Y-59016500D01*
X60198500Y-59016500D01*
X60266621Y-59036502D01*
X60313114Y-59090158D01*
X60324500Y-59142500D01*
X60324500Y-62194930D01*
X60322199Y-62215771D01*
X60324438Y-62287011D01*
X60324500Y-62290969D01*
X60324500Y-62318983D01*
X60324995Y-62322903D01*
X60324996Y-62322919D01*
X60325012Y-62323045D01*
X60325940Y-62334850D01*
X60327334Y-62379203D01*
X60333014Y-62398753D01*
X60337022Y-62418110D01*
X60341568Y-62454090D01*
X60338724Y-62454449D01*
X60343020Y-62501352D01*
X60338995Y-62516660D01*
X60326684Y-62553813D01*
X60286270Y-62612185D01*
X60220714Y-62639441D01*
X60150829Y-62626928D01*
X60098803Y-62578619D01*
X60089029Y-62558226D01*
X60038889Y-62423796D01*
X60034633Y-62418110D01*
X59951261Y-62306738D01*
X59834205Y-62219111D01*
X59765702Y-62193561D01*
X59697201Y-62168011D01*
X59636638Y-62161500D01*
X58039362Y-62161500D01*
X58036013Y-62161859D01*
X58036013Y-62161860D01*
X57978799Y-62168011D01*
X57841794Y-62219111D01*
X57724738Y-62306738D01*
X57637111Y-62423794D01*
X57602474Y-62516660D01*
X57586011Y-62560799D01*
X57579500Y-62621362D01*
X57579500Y-62624729D01*
X57579500Y-62624730D01*
X57579500Y-63388335D01*
X57559498Y-63456456D01*
X57505842Y-63502949D01*
X57435568Y-63513053D01*
X57379440Y-63490272D01*
X57352753Y-63470883D01*
X57352752Y-63470882D01*
X57178288Y-63393206D01*
X56991487Y-63353500D01*
X56800513Y-63353500D01*
X56675978Y-63379970D01*
X56613711Y-63393206D01*
X56439246Y-63470883D01*
X56284747Y-63583133D01*
X56156958Y-63725057D01*
X56061472Y-63890443D01*
X56002458Y-64072070D01*
X55982496Y-64262000D01*
X55063141Y-64262000D01*
X54972874Y-64171733D01*
X54938848Y-64109421D01*
X54943913Y-64038606D01*
X54986459Y-63981771D01*
X55051261Y-63933261D01*
X55066351Y-63913104D01*
X55125651Y-63833888D01*
X55138889Y-63816204D01*
X55189989Y-63679201D01*
X55196500Y-63618638D01*
X55196500Y-62621362D01*
X55189989Y-62560799D01*
X55138889Y-62423796D01*
X55134633Y-62418110D01*
X55051261Y-62306738D01*
X54934205Y-62219111D01*
X54865702Y-62193561D01*
X54797201Y-62168011D01*
X54736638Y-62161500D01*
X54733269Y-62161500D01*
X54491831Y-62161500D01*
X54423710Y-62141498D01*
X54402736Y-62124595D01*
X53697441Y-61419300D01*
X53690503Y-61411775D01*
X53657389Y-61372790D01*
X53596120Y-61326214D01*
X53593433Y-61324114D01*
X53591204Y-61322322D01*
X53533481Y-61275923D01*
X53533478Y-61275921D01*
X53533067Y-61275591D01*
X53514838Y-61264283D01*
X53444534Y-61231757D01*
X53441459Y-61230284D01*
X53424598Y-61221922D01*
X53372522Y-61196095D01*
X53372519Y-61196094D01*
X53372049Y-61195861D01*
X53351805Y-61188733D01*
X53276170Y-61172085D01*
X53272849Y-61171307D01*
X53197663Y-61152609D01*
X53176356Y-61150000D01*
X53175833Y-61150000D01*
X53098914Y-61150000D01*
X53095502Y-61149954D01*
X53018042Y-61147855D01*
X52995486Y-61150000D01*
X50357957Y-61150000D01*
X50289836Y-61129998D01*
X50243343Y-61076342D01*
X50233239Y-61006068D01*
X50262733Y-60941488D01*
X50278662Y-60926080D01*
X50437912Y-60797121D01*
X48940795Y-59300004D01*
X48943365Y-59298430D01*
X49134870Y-59134870D01*
X49298430Y-58943365D01*
X49300004Y-58940795D01*
X50797121Y-60437912D01*
X51001874Y-60185064D01*
X51005751Y-60179728D01*
X51213830Y-59859314D01*
X51217126Y-59853605D01*
X51390578Y-59513188D01*
X51393260Y-59507164D01*
X51530170Y-59150498D01*
X51532212Y-59144215D01*
X51631094Y-58775184D01*
X51632465Y-58768734D01*
X51692233Y-58391370D01*
X51692920Y-58384832D01*
X51712916Y-58003300D01*
X51712916Y-57996699D01*
X51692920Y-57615167D01*
X51692233Y-57608629D01*
X51632465Y-57231265D01*
X51631094Y-57224815D01*
X51532212Y-56855784D01*
X51530170Y-56849501D01*
X51393260Y-56492835D01*
X51390578Y-56486811D01*
X51217127Y-56146397D01*
X51213830Y-56140686D01*
X51005753Y-55820275D01*
X51001865Y-55814924D01*
X50797122Y-55562087D01*
X50797121Y-55562086D01*
X49300004Y-57059203D01*
X49298430Y-57056635D01*
X49134870Y-56865130D01*
X48943365Y-56701570D01*
X48940795Y-56699995D01*
X50437912Y-55202877D01*
X50437911Y-55202876D01*
X50185070Y-54998130D01*
X50179727Y-54994248D01*
X49859314Y-54786169D01*
X49853605Y-54782873D01*
X49513188Y-54609421D01*
X49507164Y-54606739D01*
X49150498Y-54469829D01*
X49144215Y-54467787D01*
X48775184Y-54368905D01*
X48768734Y-54367534D01*
X48391370Y-54307766D01*
X48384832Y-54307079D01*
X48003301Y-54287084D01*
X47996699Y-54287084D01*
X47615167Y-54307079D01*
X47608629Y-54307766D01*
X47231265Y-54367534D01*
X47224815Y-54368905D01*
X46855784Y-54467787D01*
X46849501Y-54469829D01*
X46492835Y-54606739D01*
X46486811Y-54609421D01*
X46146397Y-54782872D01*
X46140686Y-54786169D01*
X45820267Y-54994251D01*
X45814938Y-54998123D01*
X45562086Y-55202877D01*
X47059204Y-56699995D01*
X47056635Y-56701570D01*
X46865130Y-56865130D01*
X46701570Y-57056635D01*
X46699995Y-57059204D01*
X45202877Y-55562086D01*
X44998123Y-55814938D01*
X44994251Y-55820267D01*
X44786169Y-56140686D01*
X44782872Y-56146397D01*
X44609421Y-56486811D01*
X44606739Y-56492835D01*
X44469829Y-56849501D01*
X44467787Y-56855784D01*
X44368905Y-57224815D01*
X44367534Y-57231265D01*
X44307766Y-57608629D01*
X44307079Y-57615167D01*
X44287084Y-57996699D01*
X44287084Y-58003300D01*
X44025500Y-58003300D01*
X44025500Y-57003293D01*
X44025673Y-56996699D01*
X44041449Y-56695680D01*
X44042827Y-56682563D01*
X44047358Y-56653959D01*
X44089467Y-56388084D01*
X44092209Y-56375188D01*
X44112393Y-56299860D01*
X44169376Y-56087195D01*
X44173445Y-56074672D01*
X44280295Y-55796319D01*
X44285656Y-55784280D01*
X44309578Y-55737330D01*
X44421014Y-55518623D01*
X44427596Y-55507222D01*
X44589994Y-55257151D01*
X44597725Y-55246512D01*
X44785369Y-55014790D01*
X44794175Y-55005011D01*
X45005011Y-54794175D01*
X45014790Y-54785369D01*
X45246512Y-54597725D01*
X45257151Y-54589994D01*
X45507222Y-54427596D01*
X45518623Y-54421014D01*
X45784280Y-54285655D01*
X45796319Y-54280295D01*
X46074672Y-54173445D01*
X46087195Y-54169376D01*
X46375192Y-54092208D01*
X46388084Y-54089467D01*
X46682566Y-54042826D01*
X46695678Y-54041449D01*
X46996699Y-54025672D01*
X47003293Y-54025500D01*
X47008285Y-54025500D01*
X107991715Y-54025500D01*
X107996707Y-54025500D01*
X108003300Y-54025672D01*
G37*
%TD.AperFunction*%
%TA.AperFunction,Conductor*%
G36*
X57424022Y-92258010D02*
G01*
X57430605Y-92264139D01*
X60443371Y-95276905D01*
X60477397Y-95339217D01*
X60472332Y-95410032D01*
X60429785Y-95466868D01*
X60363265Y-95491679D01*
X60354276Y-95492000D01*
X60144777Y-95492000D01*
X60138063Y-95492359D01*
X60080906Y-95498505D01*
X59944037Y-95549554D01*
X59827095Y-95637095D01*
X59739554Y-95754037D01*
X59688505Y-95890906D01*
X59682359Y-95948063D01*
X59682000Y-95954777D01*
X59682000Y-96346000D01*
X60843000Y-96346000D01*
X60911121Y-96366002D01*
X60957614Y-96419658D01*
X60969000Y-96472000D01*
X60969000Y-97708000D01*
X61285223Y-97708000D01*
X61291936Y-97707640D01*
X61349093Y-97701494D01*
X61485962Y-97650445D01*
X61602904Y-97562904D01*
X61690445Y-97445962D01*
X61741494Y-97309093D01*
X61747640Y-97251936D01*
X61748000Y-97245222D01*
X61748000Y-96885724D01*
X61768002Y-96817603D01*
X61821658Y-96771110D01*
X61891932Y-96761006D01*
X61956512Y-96790500D01*
X61963095Y-96796629D01*
X64517595Y-99351129D01*
X64551621Y-99413441D01*
X64554500Y-99440224D01*
X64554499Y-101459564D01*
X64534497Y-101527685D01*
X64480841Y-101574178D01*
X64415033Y-101584842D01*
X64391945Y-101582360D01*
X64385223Y-101582000D01*
X64340000Y-101582000D01*
X64340000Y-103598000D01*
X64385223Y-103598000D01*
X64391936Y-103597640D01*
X64449091Y-103591494D01*
X64464552Y-103585728D01*
X64535367Y-103580662D01*
X64597680Y-103614686D01*
X64631707Y-103676997D01*
X64626644Y-103747813D01*
X64597682Y-103792877D01*
X63843464Y-104547096D01*
X63781154Y-104581120D01*
X63754371Y-104584000D01*
X58814330Y-104584000D01*
X58746209Y-104563998D01*
X58725235Y-104547095D01*
X56868244Y-102690104D01*
X56838550Y-102635725D01*
X56837112Y-102636193D01*
X56834623Y-102628535D01*
X56834218Y-102627792D01*
X56834057Y-102626791D01*
X56774005Y-102441971D01*
X56774004Y-102441969D01*
X56724380Y-102356017D01*
X56707501Y-102293023D01*
X56707500Y-100046225D01*
X56727503Y-99978104D01*
X56781159Y-99931611D01*
X56851433Y-99921508D01*
X56916013Y-99951001D01*
X56922596Y-99957130D01*
X60826382Y-103860916D01*
X60839499Y-103877288D01*
X60891480Y-103926101D01*
X60894322Y-103928856D01*
X60914105Y-103948639D01*
X60917230Y-103951063D01*
X60917231Y-103951064D01*
X60917320Y-103951133D01*
X60926340Y-103958837D01*
X60958693Y-103989218D01*
X60976534Y-103999026D01*
X60993052Y-104009877D01*
X61009132Y-104022350D01*
X61049857Y-104039973D01*
X61060502Y-104045188D01*
X61099396Y-104066570D01*
X61119117Y-104071633D01*
X61137808Y-104078033D01*
X61156491Y-104086118D01*
X61200313Y-104093058D01*
X61211940Y-104095466D01*
X61254916Y-104106501D01*
X61254917Y-104106501D01*
X61275265Y-104106501D01*
X61294974Y-104108051D01*
X61315078Y-104111236D01*
X61359254Y-104107060D01*
X61371113Y-104106501D01*
X62778930Y-104106501D01*
X62799768Y-104108801D01*
X62802715Y-104108708D01*
X62802718Y-104108709D01*
X62871011Y-104106562D01*
X62874968Y-104106501D01*
X62899026Y-104106501D01*
X62902982Y-104106501D01*
X62906994Y-104105993D01*
X62907003Y-104105993D01*
X62918847Y-104105059D01*
X62963204Y-104103666D01*
X62982743Y-104097988D01*
X63002101Y-104093979D01*
X63022298Y-104091428D01*
X63063554Y-104075093D01*
X63074764Y-104071254D01*
X63117392Y-104058870D01*
X63134906Y-104048511D01*
X63152666Y-104039811D01*
X63171585Y-104032321D01*
X63171585Y-104032320D01*
X63171587Y-104032320D01*
X63207498Y-104006228D01*
X63217398Y-103999725D01*
X63255597Y-103977135D01*
X63269985Y-103962746D01*
X63285020Y-103949905D01*
X63301486Y-103937943D01*
X63329790Y-103903726D01*
X63337750Y-103894980D01*
X63379916Y-103852814D01*
X63396279Y-103839707D01*
X63398299Y-103837555D01*
X63398303Y-103837553D01*
X63445103Y-103787714D01*
X63447796Y-103784935D01*
X63467639Y-103765094D01*
X63470124Y-103761889D01*
X63477838Y-103752855D01*
X63508217Y-103720506D01*
X63518025Y-103702663D01*
X63528872Y-103686151D01*
X63541350Y-103670066D01*
X63549435Y-103651379D01*
X63594844Y-103596806D01*
X63662551Y-103575444D01*
X63709107Y-103583364D01*
X63730905Y-103591494D01*
X63788061Y-103597640D01*
X63794777Y-103598000D01*
X63840000Y-103598000D01*
X63840000Y-101582000D01*
X63794777Y-101582000D01*
X63788063Y-101582359D01*
X63730906Y-101588505D01*
X63584747Y-101643019D01*
X63513931Y-101648083D01*
X63496683Y-101643019D01*
X63400235Y-101607046D01*
X63349201Y-101588011D01*
X63288638Y-101581500D01*
X62691362Y-101581500D01*
X62688013Y-101581859D01*
X62688013Y-101581860D01*
X62630799Y-101588011D01*
X62484032Y-101642752D01*
X62413216Y-101647816D01*
X62395968Y-101642752D01*
X62295049Y-101605111D01*
X62249201Y-101588011D01*
X62188638Y-101581500D01*
X61662747Y-101581500D01*
X61594626Y-101561498D01*
X61548133Y-101507842D01*
X61538029Y-101437568D01*
X61567523Y-101372988D01*
X61587239Y-101354631D01*
X61602905Y-101342903D01*
X61690445Y-101225962D01*
X61741494Y-101089093D01*
X61747640Y-101031936D01*
X61748000Y-101025222D01*
X61748000Y-100039000D01*
X60969000Y-100039000D01*
X60969000Y-101488000D01*
X61217087Y-101488000D01*
X61285208Y-101508002D01*
X61331701Y-101561658D01*
X61341805Y-101631932D01*
X61312311Y-101696512D01*
X61292598Y-101714866D01*
X61282484Y-101722437D01*
X61276736Y-101726741D01*
X61189111Y-101843794D01*
X61142908Y-101967669D01*
X61138011Y-101980799D01*
X61131500Y-102041362D01*
X61131500Y-102044730D01*
X61131500Y-102064378D01*
X61111498Y-102132499D01*
X61057842Y-102178992D01*
X60987568Y-102189096D01*
X60922988Y-102159602D01*
X60916405Y-102153473D01*
X60445061Y-101682129D01*
X60411035Y-101619817D01*
X60416100Y-101549002D01*
X60445061Y-101503938D01*
X60461000Y-101487999D01*
X60461000Y-100039000D01*
X59682000Y-100039000D01*
X59682000Y-100614878D01*
X59661998Y-100682999D01*
X59608342Y-100729492D01*
X59538068Y-100739596D01*
X59473488Y-100710102D01*
X59466905Y-100703973D01*
X58293931Y-99531000D01*
X59682000Y-99531000D01*
X60461000Y-99531000D01*
X60461000Y-98082000D01*
X60969000Y-98082000D01*
X60969000Y-99531000D01*
X61748000Y-99531000D01*
X61748000Y-98544777D01*
X61747640Y-98538063D01*
X61741494Y-98480906D01*
X61690445Y-98344037D01*
X61602904Y-98227095D01*
X61485962Y-98139554D01*
X61349093Y-98088505D01*
X61291936Y-98082359D01*
X61285223Y-98082000D01*
X60969000Y-98082000D01*
X60461000Y-98082000D01*
X60144777Y-98082000D01*
X60138063Y-98082359D01*
X60080906Y-98088505D01*
X59944037Y-98139554D01*
X59827095Y-98227095D01*
X59739554Y-98344037D01*
X59688505Y-98480906D01*
X59682359Y-98538063D01*
X59682000Y-98544777D01*
X59682000Y-99531000D01*
X58293931Y-99531000D01*
X57252415Y-98489484D01*
X57218390Y-98427172D01*
X57215510Y-98400389D01*
X57215510Y-96854000D01*
X59682000Y-96854000D01*
X59682000Y-97245222D01*
X59682359Y-97251936D01*
X59688505Y-97309093D01*
X59739554Y-97445962D01*
X59827095Y-97562904D01*
X59944037Y-97650445D01*
X60080906Y-97701494D01*
X60138063Y-97707640D01*
X60144777Y-97708000D01*
X60461000Y-97708000D01*
X60461000Y-96854000D01*
X59682000Y-96854000D01*
X57215510Y-96854000D01*
X57215510Y-95256464D01*
X57215510Y-92353230D01*
X57235512Y-92285113D01*
X57289168Y-92238620D01*
X57359442Y-92228516D01*
X57424022Y-92258010D01*
G37*
%TD.AperFunction*%
%TA.AperFunction,Conductor*%
G36*
X53085296Y-78126087D02*
G01*
X53085297Y-78126087D01*
X53120156Y-78076304D01*
X53209483Y-77884740D01*
X53218034Y-77852829D01*
X53254986Y-77792206D01*
X53318846Y-77761185D01*
X53389341Y-77769613D01*
X53444088Y-77814816D01*
X53461448Y-77852829D01*
X53470043Y-77884910D01*
X53559411Y-78076559D01*
X53680701Y-78249779D01*
X53830220Y-78399298D01*
X54003440Y-78520588D01*
X54003441Y-78520588D01*
X54003442Y-78520589D01*
X54195090Y-78609956D01*
X54224729Y-78617897D01*
X54226204Y-78618293D01*
X54286826Y-78655245D01*
X54317848Y-78719106D01*
X54309419Y-78789600D01*
X54264216Y-78844347D01*
X54226204Y-78861707D01*
X54195088Y-78870044D01*
X54003440Y-78959411D01*
X53830220Y-79080701D01*
X53680701Y-79230220D01*
X53559411Y-79403440D01*
X53470044Y-79595088D01*
X53461707Y-79626204D01*
X53424755Y-79686826D01*
X53360894Y-79717848D01*
X53290400Y-79709419D01*
X53235653Y-79664216D01*
X53218293Y-79626204D01*
X53209955Y-79595088D01*
X53181749Y-79534599D01*
X53120589Y-79403442D01*
X53108784Y-79386583D01*
X52999298Y-79230220D01*
X52849779Y-79080701D01*
X52676559Y-78959411D01*
X52484910Y-78870043D01*
X52452829Y-78861448D01*
X52392207Y-78824497D01*
X52361185Y-78760636D01*
X52369613Y-78690142D01*
X52414816Y-78635395D01*
X52452829Y-78618034D01*
X52484740Y-78609483D01*
X52676304Y-78520156D01*
X52726087Y-78485297D01*
X52726087Y-78485296D01*
X52109518Y-77868727D01*
X52195148Y-77855165D01*
X52308045Y-77797641D01*
X52397641Y-77708045D01*
X52455165Y-77595148D01*
X52468727Y-77509518D01*
X53085296Y-78126087D01*
G37*
%TD.AperFunction*%
%TD*%
M02*
