%TF.GenerationSoftware,KiCad,Pcbnew,5.1.9-73d0e3b20d~88~ubuntu18.04.1*%
%TF.CreationDate,2021-01-11T01:03:34+01:00*%
%TF.ProjectId,mp3alarm,6d703361-6c61-4726-9d2e-6b696361645f,v0.2*%
%TF.SameCoordinates,Original*%
%TF.FileFunction,Copper,L1,Top*%
%TF.FilePolarity,Positive*%
%FSLAX46Y46*%
G04 Gerber Fmt 4.6, Leading zero omitted, Abs format (unit mm)*
G04 Created by KiCad (PCBNEW 5.1.9-73d0e3b20d~88~ubuntu18.04.1) date 2021-01-11 01:03:34*
%MOMM*%
%LPD*%
G01*
G04 APERTURE LIST*
%TA.AperFunction,ComponentPad*%
%ADD10C,1.400000*%
%TD*%
%TA.AperFunction,SMDPad,CuDef*%
%ADD11R,1.500000X1.000000*%
%TD*%
%TA.AperFunction,SMDPad,CuDef*%
%ADD12R,0.500000X1.000000*%
%TD*%
%TA.AperFunction,SMDPad,CuDef*%
%ADD13R,0.720000X0.780000*%
%TD*%
%TA.AperFunction,SMDPad,CuDef*%
%ADD14R,1.050000X1.080000*%
%TD*%
%TA.AperFunction,SMDPad,CuDef*%
%ADD15R,1.050000X1.200000*%
%TD*%
%TA.AperFunction,SMDPad,CuDef*%
%ADD16R,1.050000X2.390000*%
%TD*%
%TA.AperFunction,SMDPad,CuDef*%
%ADD17R,2.910000X0.550000*%
%TD*%
%TA.AperFunction,ComponentPad*%
%ADD18R,1.700000X1.700000*%
%TD*%
%TA.AperFunction,ComponentPad*%
%ADD19O,1.700000X1.700000*%
%TD*%
%TA.AperFunction,ComponentPad*%
%ADD20C,1.524000*%
%TD*%
%TA.AperFunction,ViaPad*%
%ADD21C,0.800000*%
%TD*%
%TA.AperFunction,Conductor*%
%ADD22C,0.254000*%
%TD*%
%TA.AperFunction,Conductor*%
%ADD23C,0.635000*%
%TD*%
%TA.AperFunction,Conductor*%
%ADD24C,0.100000*%
%TD*%
G04 APERTURE END LIST*
%TO.P,C1,2*%
%TO.N,VCC*%
%TA.AperFunction,SMDPad,CuDef*%
G36*
G01*
X71258000Y-90820001D02*
X71258000Y-89519999D01*
G75*
G02*
X71507999Y-89270000I249999J0D01*
G01*
X72158001Y-89270000D01*
G75*
G02*
X72408000Y-89519999I0J-249999D01*
G01*
X72408000Y-90820001D01*
G75*
G02*
X72158001Y-91070000I-249999J0D01*
G01*
X71507999Y-91070000D01*
G75*
G02*
X71258000Y-90820001I0J249999D01*
G01*
G37*
%TD.AperFunction*%
%TO.P,C1,1*%
%TO.N,GND*%
%TA.AperFunction,SMDPad,CuDef*%
G36*
G01*
X68308000Y-90820001D02*
X68308000Y-89519999D01*
G75*
G02*
X68557999Y-89270000I249999J0D01*
G01*
X69208001Y-89270000D01*
G75*
G02*
X69458000Y-89519999I0J-249999D01*
G01*
X69458000Y-90820001D01*
G75*
G02*
X69208001Y-91070000I-249999J0D01*
G01*
X68557999Y-91070000D01*
G75*
G02*
X68308000Y-90820001I0J249999D01*
G01*
G37*
%TD.AperFunction*%
%TD*%
D10*
%TO.P,U2,40*%
%TO.N,Net-(U2-Pad40)*%
X80010000Y-100330000D03*
%TO.P,U2,39*%
%TO.N,Net-(U2-Pad39)*%
X77470000Y-100330000D03*
%TO.P,U2,38*%
%TO.N,Net-(U2-Pad38)*%
X80010000Y-97790000D03*
%TO.P,U2,37*%
%TO.N,TDO*%
X77470000Y-97790000D03*
%TO.P,U2,36*%
%TO.N,Net-(U2-Pad36)*%
X80010000Y-95250000D03*
%TO.P,U2,35*%
%TO.N,5V*%
X77470000Y-95250000D03*
%TO.P,U2,34*%
%TO.N,Net-(U2-Pad34)*%
X80010000Y-92710000D03*
%TO.P,U2,33*%
%TO.N,GND*%
X77470000Y-92710000D03*
%TO.P,U2,32*%
%TO.N,I2S_BCLK*%
X80010000Y-90170000D03*
%TO.P,U2,31*%
%TO.N,TM_CLK*%
X77470000Y-90170000D03*
%TO.P,U2,30*%
%TO.N,TDI*%
X80010000Y-87630000D03*
%TO.P,U2,29*%
%TO.N,TM_DIO*%
X77470000Y-87630000D03*
%TO.P,U2,28*%
%TO.N,I2S_MUTE*%
X80010000Y-85090000D03*
%TO.P,U2,27*%
%TO.N,SDA*%
X77470000Y-85090000D03*
%TO.P,U2,26*%
%TO.N,I2S_DIN*%
X80010000Y-82550000D03*
%TO.P,U2,25*%
%TO.N,SCL*%
X77470000Y-82550000D03*
%TO.P,U2,24*%
%TO.N,I2S_LRC*%
X80010000Y-80010000D03*
%TO.P,U2,23*%
%TO.N,Net-(U2-Pad23)*%
X77470000Y-80010000D03*
%TO.P,U2,22*%
%TO.N,GND*%
X80010000Y-77470000D03*
%TO.P,U2,21*%
%TO.N,Net-(U2-Pad21)*%
X77470000Y-77470000D03*
%TO.P,U2,20*%
%TO.N,Net-(U2-Pad20)*%
X54610000Y-100330000D03*
%TO.P,U2,19*%
%TO.N,Net-(U2-Pad19)*%
X52070000Y-100330000D03*
%TO.P,U2,18*%
%TO.N,TCK*%
X54610000Y-97790000D03*
%TO.P,U2,17*%
%TO.N,Net-(U2-Pad17)*%
X52070000Y-97790000D03*
%TO.P,U2,16*%
%TO.N,VCC*%
X54610000Y-95250000D03*
%TO.P,U2,15*%
%TO.N,Net-(U2-Pad15)*%
X52070000Y-95250000D03*
%TO.P,U2,14*%
%TO.N,SD_CD*%
X54610000Y-92710000D03*
%TO.P,U2,13*%
%TO.N,TMS*%
X52070000Y-92710000D03*
%TO.P,U2,12*%
%TO.N,SD_CMD*%
X54610000Y-90170000D03*
%TO.P,U2,11*%
%TO.N,SW0*%
X52070000Y-90170000D03*
%TO.P,U2,10*%
%TO.N,SD_DATA0*%
X54610000Y-87630000D03*
%TO.P,U2,9*%
%TO.N,RDA_R*%
X52070000Y-87630000D03*
%TO.P,U2,8*%
%TO.N,SD_CLK*%
X54610000Y-85090000D03*
%TO.P,U2,7*%
%TO.N,SW1*%
X52070000Y-85090000D03*
%TO.P,U2,6*%
%TO.N,STATUS_DATA*%
X54610000Y-82550000D03*
%TO.P,U2,5*%
%TO.N,SW2*%
X52070000Y-82550000D03*
%TO.P,U2,4*%
%TO.N,RDA_L*%
X54610000Y-80010000D03*
%TO.P,U2,3*%
%TO.N,Net-(U2-Pad3)*%
X52070000Y-80010000D03*
%TO.P,U2,1*%
%TO.N,GND*%
X52070000Y-77470000D03*
%TO.P,U2,2*%
%TO.N,Net-(U2-Pad2)*%
X54610000Y-77470000D03*
%TD*%
D11*
%TO.P,D1,1*%
%TO.N,VCC*%
X57060000Y-66370000D03*
%TO.P,D1,2*%
%TO.N,Net-(D1-Pad2)*%
X57060000Y-63170000D03*
%TO.P,D1,4*%
%TO.N,Net-(D1-Pad4)*%
X52160000Y-66370000D03*
%TO.P,D1,3*%
%TO.N,GND*%
X52160000Y-63170000D03*
%TD*%
D12*
%TO.P,J7,1*%
%TO.N,Net-(J7-Pad1)*%
X69590000Y-102590000D03*
%TO.P,J7,2*%
%TO.N,SD_CD*%
X68490000Y-102590000D03*
%TO.P,J7,3*%
%TO.N,SD_CMD*%
X67390000Y-102590000D03*
%TO.P,J7,4*%
%TO.N,VCC*%
X66290000Y-102590000D03*
%TO.P,J7,5*%
%TO.N,SD_CLK*%
X65190000Y-102590000D03*
%TO.P,J7,6*%
%TO.N,GND*%
X64090000Y-102590000D03*
%TO.P,J7,7*%
%TO.N,SD_DATA0*%
X62990000Y-102590000D03*
%TO.P,J7,8*%
%TO.N,Net-(J7-Pad8)*%
X61890000Y-102590000D03*
D13*
%TO.P,J7,9*%
%TO.N,Net-(J7-Pad9)*%
X71350000Y-99910000D03*
D14*
%TO.P,J7,10*%
%TO.N,GND*%
X71365000Y-98640000D03*
D15*
%TO.P,J7,11*%
X71365000Y-96030000D03*
%TO.P,J7,12*%
X60715000Y-96600000D03*
D16*
%TO.P,J7,13*%
X60715000Y-99785000D03*
D17*
%TO.P,J7,14*%
%TO.N,N/C*%
X68026000Y-95355000D03*
%TO.P,J7,15*%
X63836000Y-95355000D03*
%TD*%
D18*
%TO.P,J2,1*%
%TO.N,GND*%
X46990000Y-97790000D03*
D19*
%TO.P,J2,2*%
%TO.N,SW0*%
X46990000Y-95250000D03*
%TD*%
%TO.P,J3,2*%
%TO.N,SW1*%
X46990000Y-87630000D03*
D18*
%TO.P,J3,1*%
%TO.N,GND*%
X46990000Y-90170000D03*
%TD*%
%TO.P,J4,1*%
%TO.N,GND*%
X46990000Y-82550000D03*
D19*
%TO.P,J4,2*%
%TO.N,SW2*%
X46990000Y-80010000D03*
%TD*%
%TO.P,J5,4*%
%TO.N,VCC*%
X66040000Y-64770000D03*
%TO.P,J5,3*%
%TO.N,GND*%
X68580000Y-64770000D03*
%TO.P,J5,2*%
%TO.N,SDA*%
X71120000Y-64770000D03*
D18*
%TO.P,J5,1*%
%TO.N,SCL*%
X73660000Y-64770000D03*
%TD*%
%TO.P,J6,1*%
%TO.N,TM_CLK*%
X86360000Y-64770000D03*
D19*
%TO.P,J6,2*%
%TO.N,TM_DIO*%
X83820000Y-64770000D03*
%TO.P,J6,3*%
%TO.N,GND*%
X81280000Y-64770000D03*
%TO.P,J6,4*%
%TO.N,5V*%
X78740000Y-64770000D03*
%TD*%
%TO.P,R1,1*%
%TO.N,STATUS_DATA*%
%TA.AperFunction,SMDPad,CuDef*%
G36*
G01*
X52887503Y-73337500D02*
X51637497Y-73337500D01*
G75*
G02*
X51387500Y-73087503I0J249997D01*
G01*
X51387500Y-72462497D01*
G75*
G02*
X51637497Y-72212500I249997J0D01*
G01*
X52887503Y-72212500D01*
G75*
G02*
X53137500Y-72462497I0J-249997D01*
G01*
X53137500Y-73087503D01*
G75*
G02*
X52887503Y-73337500I-249997J0D01*
G01*
G37*
%TD.AperFunction*%
%TO.P,R1,2*%
%TO.N,Net-(D1-Pad4)*%
%TA.AperFunction,SMDPad,CuDef*%
G36*
G01*
X52887503Y-70412500D02*
X51637497Y-70412500D01*
G75*
G02*
X51387500Y-70162503I0J249997D01*
G01*
X51387500Y-69537497D01*
G75*
G02*
X51637497Y-69287500I249997J0D01*
G01*
X52887503Y-69287500D01*
G75*
G02*
X53137500Y-69537497I0J-249997D01*
G01*
X53137500Y-70162503D01*
G75*
G02*
X52887503Y-70412500I-249997J0D01*
G01*
G37*
%TD.AperFunction*%
%TD*%
D20*
%TO.P,U1,1*%
%TO.N,5V*%
X86106000Y-76454000D03*
%TO.P,U1,2*%
%TO.N,Net-(U1-Pad2)*%
X86106000Y-78994000D03*
%TO.P,U1,3*%
%TO.N,GND*%
X86106000Y-81534000D03*
%TO.P,U1,4*%
%TO.N,I2S_LRC*%
X86106000Y-84074000D03*
%TO.P,U1,5*%
%TO.N,I2S_DIN*%
X86106000Y-86614000D03*
%TO.P,U1,6*%
%TO.N,I2S_BCLK*%
X86106000Y-89154000D03*
%TO.P,U1,7*%
%TO.N,Net-(J1-Pad1)*%
X86106000Y-91694000D03*
%TO.P,U1,8*%
%TO.N,GND*%
X86106000Y-94234000D03*
%TO.P,U1,9*%
%TO.N,Net-(J1-Pad3)*%
X86106000Y-96774000D03*
%TO.P,U1,10*%
%TO.N,Net-(U1-Pad10)*%
X106426000Y-78994000D03*
%TO.P,U1,11*%
%TO.N,Net-(U1-Pad11)*%
X106426000Y-81534000D03*
%TO.P,U1,12*%
%TO.N,I2S_MUTE*%
X106426000Y-84074000D03*
%TO.P,U1,13*%
%TO.N,Net-(U1-Pad13)*%
X106426000Y-86614000D03*
%TO.P,U1,14*%
%TO.N,Net-(U1-Pad14)*%
X106426000Y-89154000D03*
%TO.P,U1,15*%
%TO.N,Net-(U1-Pad15)*%
X106426000Y-91694000D03*
%TD*%
D18*
%TO.P,J1,1*%
%TO.N,Net-(J1-Pad1)*%
X92710000Y-64770000D03*
D19*
%TO.P,J1,2*%
%TO.N,GND*%
X95250000Y-64770000D03*
%TO.P,J1,3*%
%TO.N,Net-(J1-Pad3)*%
X97790000Y-64770000D03*
%TD*%
D18*
%TO.P,J9,1*%
%TO.N,ANT*%
X60960000Y-64770000D03*
%TD*%
%TO.P,J8,1*%
%TO.N,GND*%
X46990000Y-71628000D03*
D19*
%TO.P,J8,2*%
%TO.N,5V*%
X46990000Y-74168000D03*
%TD*%
D21*
%TO.N,GND*%
X83058000Y-92202000D03*
X83058000Y-88646000D03*
X58420000Y-96520000D03*
X58420000Y-93980000D03*
X74930000Y-86360000D03*
X73660000Y-69850000D03*
X89916000Y-86360000D03*
X56642000Y-84328000D03*
%TO.N,VCC*%
X68834000Y-86614000D03*
X73660000Y-90170000D03*
%TO.N,SDA*%
X75184000Y-78994000D03*
%TO.N,SD_CMD*%
X65024000Y-106953000D03*
X67567455Y-103628545D03*
%TO.N,SD_CD*%
X68580000Y-104140000D03*
X66802000Y-106172000D03*
%TO.N,I2S_MUTE*%
X82296000Y-85852000D03*
X90932000Y-84582000D03*
%TO.N,TDI*%
X74930000Y-99568000D03*
%TO.N,TDO*%
X74930000Y-97790000D03*
%TD*%
D22*
%TO.N,Net-(J1-Pad1)*%
X92964000Y-84836000D02*
X92964000Y-64770000D01*
X86106000Y-91694000D02*
X92964000Y-84836000D01*
%TO.N,GND*%
X83058000Y-92202000D02*
X83058000Y-88646000D01*
X95504000Y-84836000D02*
X95504000Y-64770000D01*
X86106000Y-94234000D02*
X95504000Y-84836000D01*
%TO.N,SW0*%
X46990000Y-95250000D02*
X52070000Y-90170000D01*
%TO.N,SW1*%
X49530000Y-87630000D02*
X52070000Y-85090000D01*
X46990000Y-87630000D02*
X49530000Y-87630000D01*
%TO.N,SW2*%
X49530000Y-80010000D02*
X52070000Y-82550000D01*
X46990000Y-80010000D02*
X49530000Y-80010000D01*
D23*
%TO.N,VCC*%
X66040000Y-68580000D02*
X66040000Y-64770000D01*
X64770000Y-69850000D02*
X66040000Y-68580000D01*
X64770000Y-82550000D02*
X68834000Y-86614000D01*
X64770000Y-69850000D02*
X64770000Y-82550000D01*
X55881501Y-96521501D02*
X55881501Y-102871501D01*
X54610000Y-95250000D02*
X55881501Y-96521501D01*
X55881501Y-102871501D02*
X58420000Y-105410000D01*
X66290000Y-103268702D02*
X66290000Y-102590000D01*
X64148702Y-105410000D02*
X66290000Y-103268702D01*
X58420000Y-105410000D02*
X64148702Y-105410000D01*
X66290000Y-103725000D02*
X67975000Y-105410000D01*
X66290000Y-102590000D02*
X66290000Y-103725000D01*
X67975000Y-105410000D02*
X68548702Y-105410000D01*
X68548702Y-105410000D02*
X72390000Y-105410000D01*
X73660000Y-104140000D02*
X73660000Y-90170000D01*
X72390000Y-105410000D02*
X73660000Y-104140000D01*
X57060000Y-66370000D02*
X57060000Y-68490000D01*
X58420000Y-69850000D02*
X64770000Y-69850000D01*
X57060000Y-68490000D02*
X58420000Y-69850000D01*
X73660000Y-90170000D02*
X71833000Y-90170000D01*
D22*
%TO.N,SDA*%
X75184000Y-82804000D02*
X77470000Y-85090000D01*
X75184000Y-78994000D02*
X75184000Y-82804000D01*
%TO.N,TM_CLK*%
X78928999Y-88711001D02*
X77470000Y-90170000D01*
X78928999Y-87111119D02*
X78928999Y-88711001D01*
X79869117Y-86171001D02*
X78928999Y-87111119D01*
X80528881Y-86171001D02*
X79869117Y-86171001D01*
X84962999Y-66167001D02*
X84962999Y-81736883D01*
X84962999Y-81736883D02*
X80528881Y-86171001D01*
X86360000Y-64770000D02*
X84962999Y-66167001D01*
%TO.N,TM_DIO*%
X78551001Y-86548999D02*
X77470000Y-87630000D01*
X78551001Y-70038999D02*
X78551001Y-86548999D01*
X83820000Y-64770000D02*
X78551001Y-70038999D01*
%TO.N,SD_DATA0*%
X56580011Y-89600011D02*
X54610000Y-87630000D01*
X56580011Y-98715813D02*
X56580011Y-89600011D01*
X61335199Y-103471001D02*
X56580011Y-98715813D01*
X62862999Y-103471001D02*
X61335199Y-103471001D01*
X62990000Y-103344000D02*
X62862999Y-103471001D01*
X62990000Y-102590000D02*
X62990000Y-103344000D01*
%TO.N,SD_CLK*%
X57088021Y-87568021D02*
X54610000Y-85090000D01*
X57088021Y-91022823D02*
X57088021Y-87568021D01*
X65190000Y-99124802D02*
X57088021Y-91022823D01*
X65190000Y-102590000D02*
X65190000Y-99124802D01*
%TO.N,SD_CMD*%
X50988999Y-100848881D02*
X57093118Y-106953000D01*
X50988999Y-94731119D02*
X50988999Y-100848881D01*
X57093118Y-106953000D02*
X65024000Y-106953000D01*
X51551119Y-94168999D02*
X50988999Y-94731119D01*
X53528999Y-93072567D02*
X52432567Y-94168999D01*
X52432567Y-94168999D02*
X51551119Y-94168999D01*
X53528999Y-91251001D02*
X53528999Y-93072567D01*
X54610000Y-90170000D02*
X53528999Y-91251001D01*
X67567455Y-102767455D02*
X67390000Y-102590000D01*
X67567455Y-103628545D02*
X67567455Y-102767455D01*
%TO.N,SD_CD*%
X68490000Y-104050000D02*
X68580000Y-104140000D01*
X68490000Y-102590000D02*
X68490000Y-104050000D01*
X58194158Y-106172000D02*
X66802000Y-106172000D01*
X53528999Y-101506841D02*
X58194158Y-106172000D01*
X53528999Y-93791001D02*
X53528999Y-101506841D01*
X54610000Y-92710000D02*
X53528999Y-93791001D01*
%TO.N,STATUS_DATA*%
X55691001Y-76203501D02*
X52262500Y-72775000D01*
X55691001Y-81468999D02*
X55691001Y-76203501D01*
X54610000Y-82550000D02*
X55691001Y-81468999D01*
%TO.N,I2S_MUTE*%
X90296999Y-85217001D02*
X90932000Y-84582000D01*
X82930999Y-85217001D02*
X90296999Y-85217001D01*
X82296000Y-85852000D02*
X82930999Y-85217001D01*
%TO.N,Net-(J1-Pad3)*%
X86106000Y-96774000D02*
X91440000Y-96774000D01*
X98044000Y-90170000D02*
X98044000Y-64770000D01*
X91440000Y-96774000D02*
X98044000Y-90170000D01*
%TO.N,Net-(D1-Pad4)*%
X52262500Y-66472500D02*
X52160000Y-66370000D01*
X52262500Y-69850000D02*
X52262500Y-66472500D01*
%TO.N,TDI*%
X81091001Y-88711001D02*
X80010000Y-87630000D01*
X81091001Y-98308881D02*
X81091001Y-88711001D01*
X80231881Y-99168001D02*
X81091001Y-98308881D01*
X75329999Y-99168001D02*
X80231881Y-99168001D01*
X74930000Y-99568000D02*
X75329999Y-99168001D01*
%TO.N,TDO*%
X74930000Y-97790000D02*
X77470000Y-97790000D01*
%TD*%
%TO.N,GND*%
X108561222Y-61683096D02*
X109149164Y-61860606D01*
X109691436Y-62148937D01*
X110167364Y-62537094D01*
X110558845Y-63010314D01*
X110850951Y-63550552D01*
X111032563Y-64137244D01*
X111100001Y-64778888D01*
X111100000Y-104107721D01*
X111036904Y-104751221D01*
X110859394Y-105339164D01*
X110571063Y-105881436D01*
X110182906Y-106357364D01*
X109709686Y-106748845D01*
X109169449Y-107040950D01*
X108582756Y-107222563D01*
X107941130Y-107290000D01*
X66004686Y-107290000D01*
X66019226Y-107254898D01*
X66059000Y-107054939D01*
X66059000Y-106934000D01*
X66100289Y-106934000D01*
X66142226Y-106975937D01*
X66311744Y-107089205D01*
X66500102Y-107167226D01*
X66700061Y-107207000D01*
X66903939Y-107207000D01*
X67103898Y-107167226D01*
X67292256Y-107089205D01*
X67461774Y-106975937D01*
X67605937Y-106831774D01*
X67719205Y-106662256D01*
X67797226Y-106473898D01*
X67821475Y-106351987D01*
X67975000Y-106367108D01*
X68021785Y-106362500D01*
X72343215Y-106362500D01*
X72390000Y-106367108D01*
X72436785Y-106362500D01*
X72576723Y-106348717D01*
X72756269Y-106294252D01*
X72921741Y-106205806D01*
X73066778Y-106086778D01*
X73096607Y-106050431D01*
X74300436Y-104846603D01*
X74336778Y-104816778D01*
X74455806Y-104671741D01*
X74544252Y-104506269D01*
X74598717Y-104326723D01*
X74612500Y-104186785D01*
X74612500Y-104186784D01*
X74617108Y-104140001D01*
X74612500Y-104093216D01*
X74612500Y-103919872D01*
X105715000Y-103919872D01*
X105715000Y-104360128D01*
X105800890Y-104791925D01*
X105969369Y-105198669D01*
X106213962Y-105564729D01*
X106525271Y-105876038D01*
X106891331Y-106120631D01*
X107298075Y-106289110D01*
X107729872Y-106375000D01*
X108170128Y-106375000D01*
X108601925Y-106289110D01*
X109008669Y-106120631D01*
X109374729Y-105876038D01*
X109686038Y-105564729D01*
X109930631Y-105198669D01*
X110099110Y-104791925D01*
X110185000Y-104360128D01*
X110185000Y-103919872D01*
X110099110Y-103488075D01*
X109930631Y-103081331D01*
X109686038Y-102715271D01*
X109374729Y-102403962D01*
X109008669Y-102159369D01*
X108601925Y-101990890D01*
X108170128Y-101905000D01*
X107729872Y-101905000D01*
X107298075Y-101990890D01*
X106891331Y-102159369D01*
X106525271Y-102403962D01*
X106213962Y-102715271D01*
X105969369Y-103081331D01*
X105800890Y-103488075D01*
X105715000Y-103919872D01*
X74612500Y-103919872D01*
X74612500Y-100556763D01*
X74628102Y-100563226D01*
X74828061Y-100603000D01*
X75031939Y-100603000D01*
X75231898Y-100563226D01*
X75420256Y-100485205D01*
X75589774Y-100371937D01*
X75733937Y-100227774D01*
X75847205Y-100058256D01*
X75900330Y-99930001D01*
X76190692Y-99930001D01*
X76186304Y-99940595D01*
X76135000Y-100198514D01*
X76135000Y-100461486D01*
X76186304Y-100719405D01*
X76286939Y-100962359D01*
X76433038Y-101181013D01*
X76618987Y-101366962D01*
X76837641Y-101513061D01*
X77080595Y-101613696D01*
X77338514Y-101665000D01*
X77601486Y-101665000D01*
X77859405Y-101613696D01*
X78102359Y-101513061D01*
X78321013Y-101366962D01*
X78506962Y-101181013D01*
X78653061Y-100962359D01*
X78740000Y-100752470D01*
X78826939Y-100962359D01*
X78973038Y-101181013D01*
X79158987Y-101366962D01*
X79377641Y-101513061D01*
X79620595Y-101613696D01*
X79878514Y-101665000D01*
X80141486Y-101665000D01*
X80399405Y-101613696D01*
X80642359Y-101513061D01*
X80861013Y-101366962D01*
X81046962Y-101181013D01*
X81193061Y-100962359D01*
X81293696Y-100719405D01*
X81345000Y-100461486D01*
X81345000Y-100198514D01*
X81293696Y-99940595D01*
X81193061Y-99697641D01*
X81046962Y-99478987D01*
X81022744Y-99454769D01*
X81603354Y-98874159D01*
X81632423Y-98850303D01*
X81727646Y-98734273D01*
X81798403Y-98601896D01*
X81841975Y-98458259D01*
X81853001Y-98346307D01*
X81853001Y-98346305D01*
X81856687Y-98308882D01*
X81853001Y-98271459D01*
X81853001Y-96636408D01*
X84709000Y-96636408D01*
X84709000Y-96911592D01*
X84762686Y-97181490D01*
X84867995Y-97435727D01*
X85020880Y-97664535D01*
X85215465Y-97859120D01*
X85444273Y-98012005D01*
X85698510Y-98117314D01*
X85968408Y-98171000D01*
X86243592Y-98171000D01*
X86513490Y-98117314D01*
X86767727Y-98012005D01*
X86996535Y-97859120D01*
X87191120Y-97664535D01*
X87277005Y-97536000D01*
X91402577Y-97536000D01*
X91440000Y-97539686D01*
X91477423Y-97536000D01*
X91477426Y-97536000D01*
X91589378Y-97524974D01*
X91733015Y-97481402D01*
X91865392Y-97410645D01*
X91981422Y-97315422D01*
X92005284Y-97286346D01*
X98556353Y-90735278D01*
X98585422Y-90711422D01*
X98680645Y-90595392D01*
X98751402Y-90463015D01*
X98794974Y-90319378D01*
X98806000Y-90207426D01*
X98806000Y-90207424D01*
X98809686Y-90170001D01*
X98806000Y-90132578D01*
X98806000Y-78856408D01*
X105029000Y-78856408D01*
X105029000Y-79131592D01*
X105082686Y-79401490D01*
X105187995Y-79655727D01*
X105340880Y-79884535D01*
X105535465Y-80079120D01*
X105764273Y-80232005D01*
X105841515Y-80264000D01*
X105764273Y-80295995D01*
X105535465Y-80448880D01*
X105340880Y-80643465D01*
X105187995Y-80872273D01*
X105082686Y-81126510D01*
X105029000Y-81396408D01*
X105029000Y-81671592D01*
X105082686Y-81941490D01*
X105187995Y-82195727D01*
X105340880Y-82424535D01*
X105535465Y-82619120D01*
X105764273Y-82772005D01*
X105841515Y-82804000D01*
X105764273Y-82835995D01*
X105535465Y-82988880D01*
X105340880Y-83183465D01*
X105187995Y-83412273D01*
X105082686Y-83666510D01*
X105029000Y-83936408D01*
X105029000Y-84211592D01*
X105082686Y-84481490D01*
X105187995Y-84735727D01*
X105340880Y-84964535D01*
X105535465Y-85159120D01*
X105764273Y-85312005D01*
X105841515Y-85344000D01*
X105764273Y-85375995D01*
X105535465Y-85528880D01*
X105340880Y-85723465D01*
X105187995Y-85952273D01*
X105082686Y-86206510D01*
X105029000Y-86476408D01*
X105029000Y-86751592D01*
X105082686Y-87021490D01*
X105187995Y-87275727D01*
X105340880Y-87504535D01*
X105535465Y-87699120D01*
X105764273Y-87852005D01*
X105841515Y-87884000D01*
X105764273Y-87915995D01*
X105535465Y-88068880D01*
X105340880Y-88263465D01*
X105187995Y-88492273D01*
X105082686Y-88746510D01*
X105029000Y-89016408D01*
X105029000Y-89291592D01*
X105082686Y-89561490D01*
X105187995Y-89815727D01*
X105340880Y-90044535D01*
X105535465Y-90239120D01*
X105764273Y-90392005D01*
X105841515Y-90424000D01*
X105764273Y-90455995D01*
X105535465Y-90608880D01*
X105340880Y-90803465D01*
X105187995Y-91032273D01*
X105082686Y-91286510D01*
X105029000Y-91556408D01*
X105029000Y-91831592D01*
X105082686Y-92101490D01*
X105187995Y-92355727D01*
X105340880Y-92584535D01*
X105535465Y-92779120D01*
X105764273Y-92932005D01*
X106018510Y-93037314D01*
X106288408Y-93091000D01*
X106563592Y-93091000D01*
X106833490Y-93037314D01*
X107087727Y-92932005D01*
X107316535Y-92779120D01*
X107511120Y-92584535D01*
X107664005Y-92355727D01*
X107769314Y-92101490D01*
X107823000Y-91831592D01*
X107823000Y-91556408D01*
X107769314Y-91286510D01*
X107664005Y-91032273D01*
X107511120Y-90803465D01*
X107316535Y-90608880D01*
X107087727Y-90455995D01*
X107010485Y-90424000D01*
X107087727Y-90392005D01*
X107316535Y-90239120D01*
X107511120Y-90044535D01*
X107664005Y-89815727D01*
X107769314Y-89561490D01*
X107823000Y-89291592D01*
X107823000Y-89016408D01*
X107769314Y-88746510D01*
X107664005Y-88492273D01*
X107511120Y-88263465D01*
X107316535Y-88068880D01*
X107087727Y-87915995D01*
X107010485Y-87884000D01*
X107087727Y-87852005D01*
X107316535Y-87699120D01*
X107511120Y-87504535D01*
X107664005Y-87275727D01*
X107769314Y-87021490D01*
X107823000Y-86751592D01*
X107823000Y-86476408D01*
X107769314Y-86206510D01*
X107664005Y-85952273D01*
X107511120Y-85723465D01*
X107316535Y-85528880D01*
X107087727Y-85375995D01*
X107010485Y-85344000D01*
X107087727Y-85312005D01*
X107316535Y-85159120D01*
X107511120Y-84964535D01*
X107664005Y-84735727D01*
X107769314Y-84481490D01*
X107823000Y-84211592D01*
X107823000Y-83936408D01*
X107769314Y-83666510D01*
X107664005Y-83412273D01*
X107511120Y-83183465D01*
X107316535Y-82988880D01*
X107087727Y-82835995D01*
X107010485Y-82804000D01*
X107087727Y-82772005D01*
X107316535Y-82619120D01*
X107511120Y-82424535D01*
X107664005Y-82195727D01*
X107769314Y-81941490D01*
X107823000Y-81671592D01*
X107823000Y-81396408D01*
X107769314Y-81126510D01*
X107664005Y-80872273D01*
X107511120Y-80643465D01*
X107316535Y-80448880D01*
X107087727Y-80295995D01*
X107010485Y-80264000D01*
X107087727Y-80232005D01*
X107316535Y-80079120D01*
X107511120Y-79884535D01*
X107664005Y-79655727D01*
X107769314Y-79401490D01*
X107823000Y-79131592D01*
X107823000Y-78856408D01*
X107769314Y-78586510D01*
X107664005Y-78332273D01*
X107511120Y-78103465D01*
X107316535Y-77908880D01*
X107087727Y-77755995D01*
X106833490Y-77650686D01*
X106563592Y-77597000D01*
X106288408Y-77597000D01*
X106018510Y-77650686D01*
X105764273Y-77755995D01*
X105535465Y-77908880D01*
X105340880Y-78103465D01*
X105187995Y-78332273D01*
X105082686Y-78586510D01*
X105029000Y-78856408D01*
X98806000Y-78856408D01*
X98806000Y-65854107D01*
X98943475Y-65716632D01*
X99105990Y-65473411D01*
X99217932Y-65203158D01*
X99275000Y-64916260D01*
X99275000Y-64623740D01*
X99260307Y-64549872D01*
X105715000Y-64549872D01*
X105715000Y-64990128D01*
X105800890Y-65421925D01*
X105969369Y-65828669D01*
X106213962Y-66194729D01*
X106525271Y-66506038D01*
X106891331Y-66750631D01*
X107298075Y-66919110D01*
X107729872Y-67005000D01*
X108170128Y-67005000D01*
X108601925Y-66919110D01*
X109008669Y-66750631D01*
X109374729Y-66506038D01*
X109686038Y-66194729D01*
X109930631Y-65828669D01*
X110099110Y-65421925D01*
X110185000Y-64990128D01*
X110185000Y-64549872D01*
X110099110Y-64118075D01*
X109930631Y-63711331D01*
X109686038Y-63345271D01*
X109374729Y-63033962D01*
X109008669Y-62789369D01*
X108601925Y-62620890D01*
X108170128Y-62535000D01*
X107729872Y-62535000D01*
X107298075Y-62620890D01*
X106891331Y-62789369D01*
X106525271Y-63033962D01*
X106213962Y-63345271D01*
X105969369Y-63711331D01*
X105800890Y-64118075D01*
X105715000Y-64549872D01*
X99260307Y-64549872D01*
X99217932Y-64336842D01*
X99105990Y-64066589D01*
X98943475Y-63823368D01*
X98736632Y-63616525D01*
X98493411Y-63454010D01*
X98223158Y-63342068D01*
X97936260Y-63285000D01*
X97643740Y-63285000D01*
X97356842Y-63342068D01*
X97086589Y-63454010D01*
X96843368Y-63616525D01*
X96636525Y-63823368D01*
X96514805Y-64005534D01*
X96445178Y-63888645D01*
X96250269Y-63672412D01*
X96016920Y-63498359D01*
X95754099Y-63373175D01*
X95606890Y-63328524D01*
X95377000Y-63449845D01*
X95377000Y-64643000D01*
X95397000Y-64643000D01*
X95397000Y-64897000D01*
X95377000Y-64897000D01*
X95377000Y-66090155D01*
X95606890Y-66211476D01*
X95754099Y-66166825D01*
X96016920Y-66041641D01*
X96250269Y-65867588D01*
X96445178Y-65651355D01*
X96514805Y-65534466D01*
X96636525Y-65716632D01*
X96843368Y-65923475D01*
X97086589Y-66085990D01*
X97282001Y-66166932D01*
X97282000Y-89854369D01*
X91124370Y-96012000D01*
X87277005Y-96012000D01*
X87191120Y-95883465D01*
X86996535Y-95688880D01*
X86767727Y-95535995D01*
X86696057Y-95506308D01*
X86709023Y-95501636D01*
X86824980Y-95439656D01*
X86891960Y-95199565D01*
X86106000Y-94413605D01*
X85320040Y-95199565D01*
X85387020Y-95439656D01*
X85522760Y-95503485D01*
X85444273Y-95535995D01*
X85215465Y-95688880D01*
X85020880Y-95883465D01*
X84867995Y-96112273D01*
X84762686Y-96366510D01*
X84709000Y-96636408D01*
X81853001Y-96636408D01*
X81853001Y-94306017D01*
X84704090Y-94306017D01*
X84745078Y-94578133D01*
X84838364Y-94837023D01*
X84900344Y-94952980D01*
X85140435Y-95019960D01*
X85926395Y-94234000D01*
X86285605Y-94234000D01*
X87071565Y-95019960D01*
X87311656Y-94952980D01*
X87428756Y-94703952D01*
X87495023Y-94436865D01*
X87507910Y-94161983D01*
X87466922Y-93889867D01*
X87373636Y-93630977D01*
X87311656Y-93515020D01*
X87071565Y-93448040D01*
X86285605Y-94234000D01*
X85926395Y-94234000D01*
X85140435Y-93448040D01*
X84900344Y-93515020D01*
X84783244Y-93764048D01*
X84716977Y-94031135D01*
X84704090Y-94306017D01*
X81853001Y-94306017D01*
X81853001Y-88748423D01*
X81856687Y-88711000D01*
X81853001Y-88673575D01*
X81841975Y-88561623D01*
X81798403Y-88417986D01*
X81727646Y-88285609D01*
X81632423Y-88169579D01*
X81603353Y-88145722D01*
X81324114Y-87866484D01*
X81345000Y-87761486D01*
X81345000Y-87498514D01*
X81293696Y-87240595D01*
X81193061Y-86997641D01*
X81046962Y-86778987D01*
X81020923Y-86752948D01*
X81070303Y-86712423D01*
X81094165Y-86683347D01*
X81401410Y-86376102D01*
X81492063Y-86511774D01*
X81636226Y-86655937D01*
X81805744Y-86769205D01*
X81994102Y-86847226D01*
X82194061Y-86887000D01*
X82397939Y-86887000D01*
X82597898Y-86847226D01*
X82786256Y-86769205D01*
X82955774Y-86655937D01*
X83099937Y-86511774D01*
X83213205Y-86342256D01*
X83291226Y-86153898D01*
X83326015Y-85979001D01*
X84856924Y-85979001D01*
X84762686Y-86206510D01*
X84709000Y-86476408D01*
X84709000Y-86751592D01*
X84762686Y-87021490D01*
X84867995Y-87275727D01*
X85020880Y-87504535D01*
X85215465Y-87699120D01*
X85444273Y-87852005D01*
X85521515Y-87884000D01*
X85444273Y-87915995D01*
X85215465Y-88068880D01*
X85020880Y-88263465D01*
X84867995Y-88492273D01*
X84762686Y-88746510D01*
X84709000Y-89016408D01*
X84709000Y-89291592D01*
X84762686Y-89561490D01*
X84867995Y-89815727D01*
X85020880Y-90044535D01*
X85215465Y-90239120D01*
X85444273Y-90392005D01*
X85521515Y-90424000D01*
X85444273Y-90455995D01*
X85215465Y-90608880D01*
X85020880Y-90803465D01*
X84867995Y-91032273D01*
X84762686Y-91286510D01*
X84709000Y-91556408D01*
X84709000Y-91831592D01*
X84762686Y-92101490D01*
X84867995Y-92355727D01*
X85020880Y-92584535D01*
X85215465Y-92779120D01*
X85444273Y-92932005D01*
X85515943Y-92961692D01*
X85502977Y-92966364D01*
X85387020Y-93028344D01*
X85320040Y-93268435D01*
X86106000Y-94054395D01*
X86891960Y-93268435D01*
X86824980Y-93028344D01*
X86689240Y-92964515D01*
X86767727Y-92932005D01*
X86996535Y-92779120D01*
X87191120Y-92584535D01*
X87344005Y-92355727D01*
X87449314Y-92101490D01*
X87503000Y-91831592D01*
X87503000Y-91556408D01*
X87472841Y-91404789D01*
X93476347Y-85401283D01*
X93505422Y-85377422D01*
X93593018Y-85270686D01*
X93600645Y-85261393D01*
X93638465Y-85190636D01*
X93671402Y-85129015D01*
X93714974Y-84985378D01*
X93726000Y-84873426D01*
X93726000Y-84873423D01*
X93729686Y-84836000D01*
X93726000Y-84798577D01*
X93726000Y-66233218D01*
X93804180Y-66209502D01*
X93914494Y-66150537D01*
X94011185Y-66071185D01*
X94090537Y-65974494D01*
X94149502Y-65864180D01*
X94173966Y-65783534D01*
X94249731Y-65867588D01*
X94483080Y-66041641D01*
X94745901Y-66166825D01*
X94893110Y-66211476D01*
X95123000Y-66090155D01*
X95123000Y-64897000D01*
X95103000Y-64897000D01*
X95103000Y-64643000D01*
X95123000Y-64643000D01*
X95123000Y-63449845D01*
X94893110Y-63328524D01*
X94745901Y-63373175D01*
X94483080Y-63498359D01*
X94249731Y-63672412D01*
X94173966Y-63756466D01*
X94149502Y-63675820D01*
X94090537Y-63565506D01*
X94011185Y-63468815D01*
X93914494Y-63389463D01*
X93804180Y-63330498D01*
X93684482Y-63294188D01*
X93560000Y-63281928D01*
X91860000Y-63281928D01*
X91735518Y-63294188D01*
X91615820Y-63330498D01*
X91505506Y-63389463D01*
X91408815Y-63468815D01*
X91329463Y-63565506D01*
X91270498Y-63675820D01*
X91234188Y-63795518D01*
X91221928Y-63920000D01*
X91221928Y-65620000D01*
X91234188Y-65744482D01*
X91270498Y-65864180D01*
X91329463Y-65974494D01*
X91408815Y-66071185D01*
X91505506Y-66150537D01*
X91615820Y-66209502D01*
X91735518Y-66245812D01*
X91860000Y-66258072D01*
X92202001Y-66258072D01*
X92202000Y-84520370D01*
X91949264Y-84773106D01*
X91967000Y-84683939D01*
X91967000Y-84480061D01*
X91927226Y-84280102D01*
X91849205Y-84091744D01*
X91735937Y-83922226D01*
X91591774Y-83778063D01*
X91422256Y-83664795D01*
X91233898Y-83586774D01*
X91033939Y-83547000D01*
X90830061Y-83547000D01*
X90630102Y-83586774D01*
X90441744Y-83664795D01*
X90272226Y-83778063D01*
X90128063Y-83922226D01*
X90014795Y-84091744D01*
X89936774Y-84280102D01*
X89901985Y-84455001D01*
X87454583Y-84455001D01*
X87503000Y-84211592D01*
X87503000Y-83936408D01*
X87449314Y-83666510D01*
X87344005Y-83412273D01*
X87191120Y-83183465D01*
X86996535Y-82988880D01*
X86767727Y-82835995D01*
X86696057Y-82806308D01*
X86709023Y-82801636D01*
X86824980Y-82739656D01*
X86891960Y-82499565D01*
X86106000Y-81713605D01*
X86091858Y-81727748D01*
X85912253Y-81548143D01*
X85926395Y-81534000D01*
X86285605Y-81534000D01*
X87071565Y-82319960D01*
X87311656Y-82252980D01*
X87428756Y-82003952D01*
X87495023Y-81736865D01*
X87507910Y-81461983D01*
X87466922Y-81189867D01*
X87373636Y-80930977D01*
X87311656Y-80815020D01*
X87071565Y-80748040D01*
X86285605Y-81534000D01*
X85926395Y-81534000D01*
X85912253Y-81519858D01*
X86091858Y-81340253D01*
X86106000Y-81354395D01*
X86891960Y-80568435D01*
X86824980Y-80328344D01*
X86689240Y-80264515D01*
X86767727Y-80232005D01*
X86996535Y-80079120D01*
X87191120Y-79884535D01*
X87344005Y-79655727D01*
X87449314Y-79401490D01*
X87503000Y-79131592D01*
X87503000Y-78856408D01*
X87449314Y-78586510D01*
X87344005Y-78332273D01*
X87191120Y-78103465D01*
X86996535Y-77908880D01*
X86767727Y-77755995D01*
X86690485Y-77724000D01*
X86767727Y-77692005D01*
X86996535Y-77539120D01*
X87191120Y-77344535D01*
X87344005Y-77115727D01*
X87449314Y-76861490D01*
X87503000Y-76591592D01*
X87503000Y-76316408D01*
X87449314Y-76046510D01*
X87344005Y-75792273D01*
X87191120Y-75563465D01*
X86996535Y-75368880D01*
X86767727Y-75215995D01*
X86513490Y-75110686D01*
X86243592Y-75057000D01*
X85968408Y-75057000D01*
X85724999Y-75105417D01*
X85724999Y-66482631D01*
X85949558Y-66258072D01*
X87210000Y-66258072D01*
X87334482Y-66245812D01*
X87454180Y-66209502D01*
X87564494Y-66150537D01*
X87661185Y-66071185D01*
X87740537Y-65974494D01*
X87799502Y-65864180D01*
X87835812Y-65744482D01*
X87848072Y-65620000D01*
X87848072Y-63920000D01*
X87835812Y-63795518D01*
X87799502Y-63675820D01*
X87740537Y-63565506D01*
X87661185Y-63468815D01*
X87564494Y-63389463D01*
X87454180Y-63330498D01*
X87334482Y-63294188D01*
X87210000Y-63281928D01*
X85510000Y-63281928D01*
X85385518Y-63294188D01*
X85265820Y-63330498D01*
X85155506Y-63389463D01*
X85058815Y-63468815D01*
X84979463Y-63565506D01*
X84920498Y-63675820D01*
X84898487Y-63748380D01*
X84766632Y-63616525D01*
X84523411Y-63454010D01*
X84253158Y-63342068D01*
X83966260Y-63285000D01*
X83673740Y-63285000D01*
X83386842Y-63342068D01*
X83116589Y-63454010D01*
X82873368Y-63616525D01*
X82666525Y-63823368D01*
X82544805Y-64005534D01*
X82475178Y-63888645D01*
X82280269Y-63672412D01*
X82046920Y-63498359D01*
X81784099Y-63373175D01*
X81636890Y-63328524D01*
X81407000Y-63449845D01*
X81407000Y-64643000D01*
X81427000Y-64643000D01*
X81427000Y-64897000D01*
X81407000Y-64897000D01*
X81407000Y-64917000D01*
X81153000Y-64917000D01*
X81153000Y-64897000D01*
X81133000Y-64897000D01*
X81133000Y-64643000D01*
X81153000Y-64643000D01*
X81153000Y-63449845D01*
X80923110Y-63328524D01*
X80775901Y-63373175D01*
X80513080Y-63498359D01*
X80279731Y-63672412D01*
X80084822Y-63888645D01*
X80015195Y-64005534D01*
X79893475Y-63823368D01*
X79686632Y-63616525D01*
X79443411Y-63454010D01*
X79173158Y-63342068D01*
X78886260Y-63285000D01*
X78593740Y-63285000D01*
X78306842Y-63342068D01*
X78036589Y-63454010D01*
X77793368Y-63616525D01*
X77586525Y-63823368D01*
X77424010Y-64066589D01*
X77312068Y-64336842D01*
X77255000Y-64623740D01*
X77255000Y-64916260D01*
X77312068Y-65203158D01*
X77424010Y-65473411D01*
X77586525Y-65716632D01*
X77793368Y-65923475D01*
X78036589Y-66085990D01*
X78306842Y-66197932D01*
X78593740Y-66255000D01*
X78886260Y-66255000D01*
X79173158Y-66197932D01*
X79443411Y-66085990D01*
X79686632Y-65923475D01*
X79893475Y-65716632D01*
X80015195Y-65534466D01*
X80084822Y-65651355D01*
X80279731Y-65867588D01*
X80513080Y-66041641D01*
X80775901Y-66166825D01*
X80923110Y-66211476D01*
X81152998Y-66090156D01*
X81152998Y-66255000D01*
X81257370Y-66255000D01*
X78038655Y-69473715D01*
X78009579Y-69497577D01*
X77976818Y-69537497D01*
X77914356Y-69613607D01*
X77887807Y-69663277D01*
X77843599Y-69745985D01*
X77800027Y-69889622D01*
X77789217Y-69999378D01*
X77785315Y-70038999D01*
X77789001Y-70076422D01*
X77789001Y-76172300D01*
X77601486Y-76135000D01*
X77338514Y-76135000D01*
X77080595Y-76186304D01*
X76837641Y-76286939D01*
X76618987Y-76433038D01*
X76433038Y-76618987D01*
X76286939Y-76837641D01*
X76186304Y-77080595D01*
X76135000Y-77338514D01*
X76135000Y-77601486D01*
X76186304Y-77859405D01*
X76286939Y-78102359D01*
X76433038Y-78321013D01*
X76618987Y-78506962D01*
X76837641Y-78653061D01*
X77047530Y-78740000D01*
X76837641Y-78826939D01*
X76618987Y-78973038D01*
X76433038Y-79158987D01*
X76286939Y-79377641D01*
X76186304Y-79620595D01*
X76135000Y-79878514D01*
X76135000Y-80141486D01*
X76186304Y-80399405D01*
X76286939Y-80642359D01*
X76433038Y-80861013D01*
X76618987Y-81046962D01*
X76837641Y-81193061D01*
X77047530Y-81280000D01*
X76837641Y-81366939D01*
X76618987Y-81513038D01*
X76433038Y-81698987D01*
X76286939Y-81917641D01*
X76186304Y-82160595D01*
X76135000Y-82418514D01*
X76135000Y-82677370D01*
X75946000Y-82488370D01*
X75946000Y-79695711D01*
X75987937Y-79653774D01*
X76101205Y-79484256D01*
X76179226Y-79295898D01*
X76219000Y-79095939D01*
X76219000Y-78892061D01*
X76179226Y-78692102D01*
X76101205Y-78503744D01*
X75987937Y-78334226D01*
X75843774Y-78190063D01*
X75674256Y-78076795D01*
X75485898Y-77998774D01*
X75285939Y-77959000D01*
X75082061Y-77959000D01*
X74882102Y-77998774D01*
X74693744Y-78076795D01*
X74524226Y-78190063D01*
X74380063Y-78334226D01*
X74266795Y-78503744D01*
X74188774Y-78692102D01*
X74149000Y-78892061D01*
X74149000Y-79095939D01*
X74188774Y-79295898D01*
X74266795Y-79484256D01*
X74380063Y-79653774D01*
X74422000Y-79695711D01*
X74422001Y-82766567D01*
X74418314Y-82804000D01*
X74433027Y-82953378D01*
X74476599Y-83097015D01*
X74547355Y-83229392D01*
X74618175Y-83315686D01*
X74642579Y-83345422D01*
X74671649Y-83369279D01*
X76155886Y-84853516D01*
X76135000Y-84958514D01*
X76135000Y-85221486D01*
X76186304Y-85479405D01*
X76286939Y-85722359D01*
X76433038Y-85941013D01*
X76618987Y-86126962D01*
X76837641Y-86273061D01*
X77047530Y-86360000D01*
X76837641Y-86446939D01*
X76618987Y-86593038D01*
X76433038Y-86778987D01*
X76286939Y-86997641D01*
X76186304Y-87240595D01*
X76135000Y-87498514D01*
X76135000Y-87761486D01*
X76186304Y-88019405D01*
X76286939Y-88262359D01*
X76433038Y-88481013D01*
X76618987Y-88666962D01*
X76837641Y-88813061D01*
X77047530Y-88900000D01*
X76837641Y-88986939D01*
X76618987Y-89133038D01*
X76433038Y-89318987D01*
X76286939Y-89537641D01*
X76186304Y-89780595D01*
X76135000Y-90038514D01*
X76135000Y-90301486D01*
X76186304Y-90559405D01*
X76286939Y-90802359D01*
X76433038Y-91021013D01*
X76618987Y-91206962D01*
X76837641Y-91353061D01*
X77051444Y-91441621D01*
X76888634Y-91501065D01*
X76787797Y-91554963D01*
X76728336Y-91788731D01*
X77470000Y-92530395D01*
X78211664Y-91788731D01*
X78152203Y-91554963D01*
X77913758Y-91444066D01*
X77894173Y-91439294D01*
X78102359Y-91353061D01*
X78321013Y-91206962D01*
X78506962Y-91021013D01*
X78653061Y-90802359D01*
X78740000Y-90592470D01*
X78826939Y-90802359D01*
X78973038Y-91021013D01*
X79158987Y-91206962D01*
X79377641Y-91353061D01*
X79587530Y-91440000D01*
X79377641Y-91526939D01*
X79158987Y-91673038D01*
X78973038Y-91858987D01*
X78826939Y-92077641D01*
X78738379Y-92291444D01*
X78678935Y-92128634D01*
X78625037Y-92027797D01*
X78391269Y-91968336D01*
X77649605Y-92710000D01*
X78391269Y-93451664D01*
X78625037Y-93392203D01*
X78735934Y-93153758D01*
X78740706Y-93134173D01*
X78826939Y-93342359D01*
X78973038Y-93561013D01*
X79158987Y-93746962D01*
X79377641Y-93893061D01*
X79587530Y-93980000D01*
X79377641Y-94066939D01*
X79158987Y-94213038D01*
X78973038Y-94398987D01*
X78826939Y-94617641D01*
X78740000Y-94827530D01*
X78653061Y-94617641D01*
X78506962Y-94398987D01*
X78321013Y-94213038D01*
X78102359Y-94066939D01*
X77888556Y-93978379D01*
X78051366Y-93918935D01*
X78152203Y-93865037D01*
X78211664Y-93631269D01*
X77470000Y-92889605D01*
X76728336Y-93631269D01*
X76787797Y-93865037D01*
X77026242Y-93975934D01*
X77045827Y-93980706D01*
X76837641Y-94066939D01*
X76618987Y-94213038D01*
X76433038Y-94398987D01*
X76286939Y-94617641D01*
X76186304Y-94860595D01*
X76135000Y-95118514D01*
X76135000Y-95381486D01*
X76186304Y-95639405D01*
X76286939Y-95882359D01*
X76433038Y-96101013D01*
X76618987Y-96286962D01*
X76837641Y-96433061D01*
X77047530Y-96520000D01*
X76837641Y-96606939D01*
X76618987Y-96753038D01*
X76433038Y-96938987D01*
X76373562Y-97028000D01*
X75631711Y-97028000D01*
X75589774Y-96986063D01*
X75420256Y-96872795D01*
X75231898Y-96794774D01*
X75031939Y-96755000D01*
X74828061Y-96755000D01*
X74628102Y-96794774D01*
X74612500Y-96801237D01*
X74612500Y-92784473D01*
X76130610Y-92784473D01*
X76170875Y-93044344D01*
X76261065Y-93291366D01*
X76314963Y-93392203D01*
X76548731Y-93451664D01*
X77290395Y-92710000D01*
X76548731Y-91968336D01*
X76314963Y-92027797D01*
X76204066Y-92266242D01*
X76141817Y-92521740D01*
X76130610Y-92784473D01*
X74612500Y-92784473D01*
X74612500Y-90575047D01*
X74655226Y-90471898D01*
X74695000Y-90271939D01*
X74695000Y-90068061D01*
X74655226Y-89868102D01*
X74577205Y-89679744D01*
X74463937Y-89510226D01*
X74319774Y-89366063D01*
X74150256Y-89252795D01*
X73961898Y-89174774D01*
X73761939Y-89135000D01*
X73558061Y-89135000D01*
X73358102Y-89174774D01*
X73254953Y-89217500D01*
X72989802Y-89217500D01*
X72978472Y-89180149D01*
X72896405Y-89026613D01*
X72785962Y-88892038D01*
X72651387Y-88781595D01*
X72497851Y-88699528D01*
X72331255Y-88648992D01*
X72158001Y-88631928D01*
X71507999Y-88631928D01*
X71334745Y-88648992D01*
X71168149Y-88699528D01*
X71014613Y-88781595D01*
X70880038Y-88892038D01*
X70769595Y-89026613D01*
X70687528Y-89180149D01*
X70636992Y-89346745D01*
X70619928Y-89519999D01*
X70619928Y-90820001D01*
X70636992Y-90993255D01*
X70687528Y-91159851D01*
X70769595Y-91313387D01*
X70880038Y-91447962D01*
X71014613Y-91558405D01*
X71168149Y-91640472D01*
X71334745Y-91691008D01*
X71507999Y-91708072D01*
X72158001Y-91708072D01*
X72331255Y-91691008D01*
X72497851Y-91640472D01*
X72651387Y-91558405D01*
X72707501Y-91512353D01*
X72707500Y-103745461D01*
X71995462Y-104457500D01*
X69568763Y-104457500D01*
X69575226Y-104441898D01*
X69615000Y-104241939D01*
X69615000Y-104038061D01*
X69575226Y-103838102D01*
X69529650Y-103728072D01*
X69840000Y-103728072D01*
X69964482Y-103715812D01*
X70084180Y-103679502D01*
X70194494Y-103620537D01*
X70291185Y-103541185D01*
X70370537Y-103444494D01*
X70429502Y-103334180D01*
X70465812Y-103214482D01*
X70478072Y-103090000D01*
X70478072Y-102090000D01*
X70465812Y-101965518D01*
X70429502Y-101845820D01*
X70370537Y-101735506D01*
X70291185Y-101638815D01*
X70194494Y-101559463D01*
X70084180Y-101500498D01*
X69964482Y-101464188D01*
X69840000Y-101451928D01*
X69340000Y-101451928D01*
X69215518Y-101464188D01*
X69095820Y-101500498D01*
X69040000Y-101530335D01*
X68984180Y-101500498D01*
X68864482Y-101464188D01*
X68740000Y-101451928D01*
X68240000Y-101451928D01*
X68115518Y-101464188D01*
X67995820Y-101500498D01*
X67940000Y-101530335D01*
X67884180Y-101500498D01*
X67764482Y-101464188D01*
X67640000Y-101451928D01*
X67140000Y-101451928D01*
X67015518Y-101464188D01*
X66895820Y-101500498D01*
X66840000Y-101530335D01*
X66784180Y-101500498D01*
X66664482Y-101464188D01*
X66540000Y-101451928D01*
X66040000Y-101451928D01*
X65952000Y-101460595D01*
X65952000Y-99180000D01*
X70201928Y-99180000D01*
X70214188Y-99304482D01*
X70250498Y-99424180D01*
X70309463Y-99534494D01*
X70351928Y-99586238D01*
X70351928Y-100300000D01*
X70364188Y-100424482D01*
X70400498Y-100544180D01*
X70459463Y-100654494D01*
X70538815Y-100751185D01*
X70635506Y-100830537D01*
X70745820Y-100889502D01*
X70865518Y-100925812D01*
X70990000Y-100938072D01*
X71710000Y-100938072D01*
X71834482Y-100925812D01*
X71954180Y-100889502D01*
X72064494Y-100830537D01*
X72161185Y-100751185D01*
X72240537Y-100654494D01*
X72299502Y-100544180D01*
X72335812Y-100424482D01*
X72348072Y-100300000D01*
X72348072Y-99622793D01*
X72420537Y-99534494D01*
X72479502Y-99424180D01*
X72515812Y-99304482D01*
X72528072Y-99180000D01*
X72525000Y-98925750D01*
X72366250Y-98767000D01*
X71492000Y-98767000D01*
X71492000Y-98787000D01*
X71238000Y-98787000D01*
X71238000Y-98767000D01*
X70363750Y-98767000D01*
X70205000Y-98925750D01*
X70201928Y-99180000D01*
X65952000Y-99180000D01*
X65952000Y-99162225D01*
X65955686Y-99124802D01*
X65950738Y-99074567D01*
X65940974Y-98975424D01*
X65897402Y-98831787D01*
X65855417Y-98753238D01*
X65826645Y-98699409D01*
X65778720Y-98641013D01*
X65731422Y-98583380D01*
X65702346Y-98559518D01*
X65242828Y-98100000D01*
X70201928Y-98100000D01*
X70205000Y-98354250D01*
X70363750Y-98513000D01*
X71238000Y-98513000D01*
X71238000Y-97623750D01*
X71492000Y-97623750D01*
X71492000Y-98513000D01*
X72366250Y-98513000D01*
X72525000Y-98354250D01*
X72528072Y-98100000D01*
X72515812Y-97975518D01*
X72479502Y-97855820D01*
X72420537Y-97745506D01*
X72341185Y-97648815D01*
X72244494Y-97569463D01*
X72134180Y-97510498D01*
X72014482Y-97474188D01*
X71890000Y-97461928D01*
X71650750Y-97465000D01*
X71492000Y-97623750D01*
X71238000Y-97623750D01*
X71079250Y-97465000D01*
X70840000Y-97461928D01*
X70715518Y-97474188D01*
X70595820Y-97510498D01*
X70485506Y-97569463D01*
X70388815Y-97648815D01*
X70309463Y-97745506D01*
X70250498Y-97855820D01*
X70214188Y-97975518D01*
X70201928Y-98100000D01*
X65242828Y-98100000D01*
X63772828Y-96630000D01*
X70201928Y-96630000D01*
X70214188Y-96754482D01*
X70250498Y-96874180D01*
X70309463Y-96984494D01*
X70388815Y-97081185D01*
X70485506Y-97160537D01*
X70595820Y-97219502D01*
X70715518Y-97255812D01*
X70840000Y-97268072D01*
X71079250Y-97265000D01*
X71238000Y-97106250D01*
X71238000Y-96157000D01*
X71492000Y-96157000D01*
X71492000Y-97106250D01*
X71650750Y-97265000D01*
X71890000Y-97268072D01*
X72014482Y-97255812D01*
X72134180Y-97219502D01*
X72244494Y-97160537D01*
X72341185Y-97081185D01*
X72420537Y-96984494D01*
X72479502Y-96874180D01*
X72515812Y-96754482D01*
X72528072Y-96630000D01*
X72525000Y-96315750D01*
X72366250Y-96157000D01*
X71492000Y-96157000D01*
X71238000Y-96157000D01*
X70363750Y-96157000D01*
X70205000Y-96315750D01*
X70201928Y-96630000D01*
X63772828Y-96630000D01*
X63410900Y-96268072D01*
X65291000Y-96268072D01*
X65415482Y-96255812D01*
X65535180Y-96219502D01*
X65645494Y-96160537D01*
X65742185Y-96081185D01*
X65821537Y-95984494D01*
X65880502Y-95874180D01*
X65916812Y-95754482D01*
X65929072Y-95630000D01*
X65929072Y-95080000D01*
X65932928Y-95080000D01*
X65932928Y-95630000D01*
X65945188Y-95754482D01*
X65981498Y-95874180D01*
X66040463Y-95984494D01*
X66119815Y-96081185D01*
X66216506Y-96160537D01*
X66326820Y-96219502D01*
X66446518Y-96255812D01*
X66571000Y-96268072D01*
X69481000Y-96268072D01*
X69605482Y-96255812D01*
X69725180Y-96219502D01*
X69835494Y-96160537D01*
X69932185Y-96081185D01*
X70011537Y-95984494D01*
X70070502Y-95874180D01*
X70106812Y-95754482D01*
X70119072Y-95630000D01*
X70119072Y-95430000D01*
X70201928Y-95430000D01*
X70205000Y-95744250D01*
X70363750Y-95903000D01*
X71238000Y-95903000D01*
X71238000Y-94953750D01*
X71492000Y-94953750D01*
X71492000Y-95903000D01*
X72366250Y-95903000D01*
X72525000Y-95744250D01*
X72528072Y-95430000D01*
X72515812Y-95305518D01*
X72479502Y-95185820D01*
X72420537Y-95075506D01*
X72341185Y-94978815D01*
X72244494Y-94899463D01*
X72134180Y-94840498D01*
X72014482Y-94804188D01*
X71890000Y-94791928D01*
X71650750Y-94795000D01*
X71492000Y-94953750D01*
X71238000Y-94953750D01*
X71079250Y-94795000D01*
X70840000Y-94791928D01*
X70715518Y-94804188D01*
X70595820Y-94840498D01*
X70485506Y-94899463D01*
X70388815Y-94978815D01*
X70309463Y-95075506D01*
X70250498Y-95185820D01*
X70214188Y-95305518D01*
X70201928Y-95430000D01*
X70119072Y-95430000D01*
X70119072Y-95080000D01*
X70106812Y-94955518D01*
X70070502Y-94835820D01*
X70011537Y-94725506D01*
X69932185Y-94628815D01*
X69835494Y-94549463D01*
X69725180Y-94490498D01*
X69605482Y-94454188D01*
X69481000Y-94441928D01*
X66571000Y-94441928D01*
X66446518Y-94454188D01*
X66326820Y-94490498D01*
X66216506Y-94549463D01*
X66119815Y-94628815D01*
X66040463Y-94725506D01*
X65981498Y-94835820D01*
X65945188Y-94955518D01*
X65932928Y-95080000D01*
X65929072Y-95080000D01*
X65916812Y-94955518D01*
X65880502Y-94835820D01*
X65821537Y-94725506D01*
X65742185Y-94628815D01*
X65645494Y-94549463D01*
X65535180Y-94490498D01*
X65415482Y-94454188D01*
X65291000Y-94441928D01*
X62381000Y-94441928D01*
X62256518Y-94454188D01*
X62136820Y-94490498D01*
X62026506Y-94549463D01*
X61929815Y-94628815D01*
X61858518Y-94715690D01*
X58212828Y-91070000D01*
X67669928Y-91070000D01*
X67682188Y-91194482D01*
X67718498Y-91314180D01*
X67777463Y-91424494D01*
X67856815Y-91521185D01*
X67953506Y-91600537D01*
X68063820Y-91659502D01*
X68183518Y-91695812D01*
X68308000Y-91708072D01*
X68597250Y-91705000D01*
X68756000Y-91546250D01*
X68756000Y-90297000D01*
X69010000Y-90297000D01*
X69010000Y-91546250D01*
X69168750Y-91705000D01*
X69458000Y-91708072D01*
X69582482Y-91695812D01*
X69702180Y-91659502D01*
X69812494Y-91600537D01*
X69909185Y-91521185D01*
X69988537Y-91424494D01*
X70047502Y-91314180D01*
X70083812Y-91194482D01*
X70096072Y-91070000D01*
X70093000Y-90455750D01*
X69934250Y-90297000D01*
X69010000Y-90297000D01*
X68756000Y-90297000D01*
X67831750Y-90297000D01*
X67673000Y-90455750D01*
X67669928Y-91070000D01*
X58212828Y-91070000D01*
X57850021Y-90707193D01*
X57850021Y-89270000D01*
X67669928Y-89270000D01*
X67673000Y-89884250D01*
X67831750Y-90043000D01*
X68756000Y-90043000D01*
X68756000Y-88793750D01*
X69010000Y-88793750D01*
X69010000Y-90043000D01*
X69934250Y-90043000D01*
X70093000Y-89884250D01*
X70096072Y-89270000D01*
X70083812Y-89145518D01*
X70047502Y-89025820D01*
X69988537Y-88915506D01*
X69909185Y-88818815D01*
X69812494Y-88739463D01*
X69702180Y-88680498D01*
X69582482Y-88644188D01*
X69458000Y-88631928D01*
X69168750Y-88635000D01*
X69010000Y-88793750D01*
X68756000Y-88793750D01*
X68597250Y-88635000D01*
X68308000Y-88631928D01*
X68183518Y-88644188D01*
X68063820Y-88680498D01*
X67953506Y-88739463D01*
X67856815Y-88818815D01*
X67777463Y-88915506D01*
X67718498Y-89025820D01*
X67682188Y-89145518D01*
X67669928Y-89270000D01*
X57850021Y-89270000D01*
X57850021Y-87605444D01*
X57853707Y-87568021D01*
X57845099Y-87480622D01*
X57838995Y-87418643D01*
X57795423Y-87275006D01*
X57762486Y-87213385D01*
X57724666Y-87142628D01*
X57653300Y-87055669D01*
X57629443Y-87026599D01*
X57600373Y-87002742D01*
X55924114Y-85326484D01*
X55945000Y-85221486D01*
X55945000Y-84958514D01*
X55893696Y-84700595D01*
X55793061Y-84457641D01*
X55646962Y-84238987D01*
X55461013Y-84053038D01*
X55242359Y-83906939D01*
X55032470Y-83820000D01*
X55242359Y-83733061D01*
X55461013Y-83586962D01*
X55646962Y-83401013D01*
X55793061Y-83182359D01*
X55893696Y-82939405D01*
X55945000Y-82681486D01*
X55945000Y-82418514D01*
X55924114Y-82313516D01*
X56203354Y-82034277D01*
X56232423Y-82010421D01*
X56327646Y-81894391D01*
X56398403Y-81762014D01*
X56441975Y-81618377D01*
X56453001Y-81506425D01*
X56453001Y-81506423D01*
X56456687Y-81469000D01*
X56453001Y-81431577D01*
X56453001Y-76240924D01*
X56456687Y-76203501D01*
X56453001Y-76166075D01*
X56441975Y-76054123D01*
X56398403Y-75910486D01*
X56335217Y-75792273D01*
X56327646Y-75778108D01*
X56292858Y-75735720D01*
X56232423Y-75662079D01*
X56203347Y-75638217D01*
X53764549Y-73199419D01*
X53775572Y-73087503D01*
X53775572Y-72462497D01*
X53758508Y-72289243D01*
X53707972Y-72122648D01*
X53625905Y-71969112D01*
X53515463Y-71834537D01*
X53380888Y-71724095D01*
X53227352Y-71642028D01*
X53060757Y-71591492D01*
X52887503Y-71574428D01*
X51637497Y-71574428D01*
X51464243Y-71591492D01*
X51297648Y-71642028D01*
X51144112Y-71724095D01*
X51009537Y-71834537D01*
X50899095Y-71969112D01*
X50817028Y-72122648D01*
X50766492Y-72289243D01*
X50749428Y-72462497D01*
X50749428Y-73087503D01*
X50766492Y-73260757D01*
X50817028Y-73427352D01*
X50899095Y-73580888D01*
X51009537Y-73715463D01*
X51144112Y-73825905D01*
X51297648Y-73907972D01*
X51464243Y-73958508D01*
X51637497Y-73975572D01*
X52385442Y-73975572D01*
X54544870Y-76135000D01*
X54478514Y-76135000D01*
X54220595Y-76186304D01*
X53977641Y-76286939D01*
X53758987Y-76433038D01*
X53573038Y-76618987D01*
X53426939Y-76837641D01*
X53338379Y-77051444D01*
X53278935Y-76888634D01*
X53225037Y-76787797D01*
X52991269Y-76728336D01*
X52249605Y-77470000D01*
X52991269Y-78211664D01*
X53225037Y-78152203D01*
X53335934Y-77913758D01*
X53340706Y-77894173D01*
X53426939Y-78102359D01*
X53573038Y-78321013D01*
X53758987Y-78506962D01*
X53977641Y-78653061D01*
X54187530Y-78740000D01*
X53977641Y-78826939D01*
X53758987Y-78973038D01*
X53573038Y-79158987D01*
X53426939Y-79377641D01*
X53340000Y-79587530D01*
X53253061Y-79377641D01*
X53106962Y-79158987D01*
X52921013Y-78973038D01*
X52702359Y-78826939D01*
X52488556Y-78738379D01*
X52651366Y-78678935D01*
X52752203Y-78625037D01*
X52811664Y-78391269D01*
X52070000Y-77649605D01*
X51328336Y-78391269D01*
X51387797Y-78625037D01*
X51626242Y-78735934D01*
X51645827Y-78740706D01*
X51437641Y-78826939D01*
X51218987Y-78973038D01*
X51033038Y-79158987D01*
X50886939Y-79377641D01*
X50786304Y-79620595D01*
X50735000Y-79878514D01*
X50735000Y-80137370D01*
X50095284Y-79497654D01*
X50071422Y-79468578D01*
X49955392Y-79373355D01*
X49823015Y-79302598D01*
X49679378Y-79259026D01*
X49567426Y-79248000D01*
X49567423Y-79248000D01*
X49530000Y-79244314D01*
X49492577Y-79248000D01*
X48266842Y-79248000D01*
X48143475Y-79063368D01*
X47936632Y-78856525D01*
X47693411Y-78694010D01*
X47423158Y-78582068D01*
X47136260Y-78525000D01*
X46843740Y-78525000D01*
X46556842Y-78582068D01*
X46286589Y-78694010D01*
X46043368Y-78856525D01*
X45836525Y-79063368D01*
X45674010Y-79306589D01*
X45562068Y-79576842D01*
X45505000Y-79863740D01*
X45505000Y-80156260D01*
X45562068Y-80443158D01*
X45674010Y-80713411D01*
X45836525Y-80956632D01*
X45968380Y-81088487D01*
X45895820Y-81110498D01*
X45785506Y-81169463D01*
X45688815Y-81248815D01*
X45609463Y-81345506D01*
X45550498Y-81455820D01*
X45514188Y-81575518D01*
X45501928Y-81700000D01*
X45505000Y-82264250D01*
X45663750Y-82423000D01*
X46863000Y-82423000D01*
X46863000Y-82403000D01*
X47117000Y-82403000D01*
X47117000Y-82423000D01*
X48316250Y-82423000D01*
X48475000Y-82264250D01*
X48478072Y-81700000D01*
X48465812Y-81575518D01*
X48429502Y-81455820D01*
X48370537Y-81345506D01*
X48291185Y-81248815D01*
X48194494Y-81169463D01*
X48084180Y-81110498D01*
X48011620Y-81088487D01*
X48143475Y-80956632D01*
X48266842Y-80772000D01*
X49214370Y-80772000D01*
X50755886Y-82313516D01*
X50735000Y-82418514D01*
X50735000Y-82681486D01*
X50786304Y-82939405D01*
X50886939Y-83182359D01*
X51033038Y-83401013D01*
X51218987Y-83586962D01*
X51437641Y-83733061D01*
X51647530Y-83820000D01*
X51437641Y-83906939D01*
X51218987Y-84053038D01*
X51033038Y-84238987D01*
X50886939Y-84457641D01*
X50786304Y-84700595D01*
X50735000Y-84958514D01*
X50735000Y-85221486D01*
X50755886Y-85326484D01*
X49214370Y-86868000D01*
X48266842Y-86868000D01*
X48143475Y-86683368D01*
X47936632Y-86476525D01*
X47693411Y-86314010D01*
X47423158Y-86202068D01*
X47136260Y-86145000D01*
X46843740Y-86145000D01*
X46556842Y-86202068D01*
X46286589Y-86314010D01*
X46043368Y-86476525D01*
X45836525Y-86683368D01*
X45674010Y-86926589D01*
X45562068Y-87196842D01*
X45505000Y-87483740D01*
X45505000Y-87776260D01*
X45562068Y-88063158D01*
X45674010Y-88333411D01*
X45836525Y-88576632D01*
X45968380Y-88708487D01*
X45895820Y-88730498D01*
X45785506Y-88789463D01*
X45688815Y-88868815D01*
X45609463Y-88965506D01*
X45550498Y-89075820D01*
X45514188Y-89195518D01*
X45501928Y-89320000D01*
X45505000Y-89884250D01*
X45663750Y-90043000D01*
X46863000Y-90043000D01*
X46863000Y-90023000D01*
X47117000Y-90023000D01*
X47117000Y-90043000D01*
X48316250Y-90043000D01*
X48475000Y-89884250D01*
X48478072Y-89320000D01*
X48465812Y-89195518D01*
X48429502Y-89075820D01*
X48370537Y-88965506D01*
X48291185Y-88868815D01*
X48194494Y-88789463D01*
X48084180Y-88730498D01*
X48011620Y-88708487D01*
X48143475Y-88576632D01*
X48266842Y-88392000D01*
X49492577Y-88392000D01*
X49530000Y-88395686D01*
X49567423Y-88392000D01*
X49567426Y-88392000D01*
X49679378Y-88380974D01*
X49823015Y-88337402D01*
X49955392Y-88266645D01*
X50071422Y-88171422D01*
X50095284Y-88142346D01*
X50735000Y-87502630D01*
X50735000Y-87761486D01*
X50786304Y-88019405D01*
X50886939Y-88262359D01*
X51033038Y-88481013D01*
X51218987Y-88666962D01*
X51437641Y-88813061D01*
X51647530Y-88900000D01*
X51437641Y-88986939D01*
X51218987Y-89133038D01*
X51033038Y-89318987D01*
X50886939Y-89537641D01*
X50786304Y-89780595D01*
X50735000Y-90038514D01*
X50735000Y-90301486D01*
X50755886Y-90406484D01*
X47354049Y-93808321D01*
X47136260Y-93765000D01*
X46843740Y-93765000D01*
X46556842Y-93822068D01*
X46286589Y-93934010D01*
X46043368Y-94096525D01*
X45836525Y-94303368D01*
X45674010Y-94546589D01*
X45562068Y-94816842D01*
X45505000Y-95103740D01*
X45505000Y-95396260D01*
X45562068Y-95683158D01*
X45674010Y-95953411D01*
X45836525Y-96196632D01*
X45968380Y-96328487D01*
X45895820Y-96350498D01*
X45785506Y-96409463D01*
X45688815Y-96488815D01*
X45609463Y-96585506D01*
X45550498Y-96695820D01*
X45514188Y-96815518D01*
X45501928Y-96940000D01*
X45505000Y-97504250D01*
X45663750Y-97663000D01*
X46863000Y-97663000D01*
X46863000Y-97643000D01*
X47117000Y-97643000D01*
X47117000Y-97663000D01*
X48316250Y-97663000D01*
X48475000Y-97504250D01*
X48478072Y-96940000D01*
X48465812Y-96815518D01*
X48429502Y-96695820D01*
X48370537Y-96585506D01*
X48291185Y-96488815D01*
X48194494Y-96409463D01*
X48084180Y-96350498D01*
X48011620Y-96328487D01*
X48143475Y-96196632D01*
X48305990Y-95953411D01*
X48417932Y-95683158D01*
X48475000Y-95396260D01*
X48475000Y-95103740D01*
X48431679Y-94885951D01*
X50735000Y-92582631D01*
X50735000Y-92841486D01*
X50786304Y-93099405D01*
X50886939Y-93342359D01*
X51033038Y-93561013D01*
X51059077Y-93587052D01*
X51009697Y-93627577D01*
X50985835Y-93656653D01*
X50476653Y-94165835D01*
X50447577Y-94189697D01*
X50411219Y-94234000D01*
X50352354Y-94305727D01*
X50325333Y-94356280D01*
X50281597Y-94438105D01*
X50238025Y-94581742D01*
X50233389Y-94628815D01*
X50223313Y-94731119D01*
X50226999Y-94768542D01*
X50227000Y-100811448D01*
X50223313Y-100848881D01*
X50238026Y-100998259D01*
X50281598Y-101141896D01*
X50352354Y-101274273D01*
X50401777Y-101334494D01*
X50447578Y-101390303D01*
X50476648Y-101414160D01*
X56352487Y-107290000D01*
X47022279Y-107290000D01*
X46378779Y-107226904D01*
X45790836Y-107049394D01*
X45248564Y-106761063D01*
X44772636Y-106372906D01*
X44381155Y-105899686D01*
X44089050Y-105359449D01*
X43907437Y-104772756D01*
X43840000Y-104131130D01*
X43840000Y-103919872D01*
X44755000Y-103919872D01*
X44755000Y-104360128D01*
X44840890Y-104791925D01*
X45009369Y-105198669D01*
X45253962Y-105564729D01*
X45565271Y-105876038D01*
X45931331Y-106120631D01*
X46338075Y-106289110D01*
X46769872Y-106375000D01*
X47210128Y-106375000D01*
X47641925Y-106289110D01*
X48048669Y-106120631D01*
X48414729Y-105876038D01*
X48726038Y-105564729D01*
X48970631Y-105198669D01*
X49139110Y-104791925D01*
X49225000Y-104360128D01*
X49225000Y-103919872D01*
X49139110Y-103488075D01*
X48970631Y-103081331D01*
X48726038Y-102715271D01*
X48414729Y-102403962D01*
X48048669Y-102159369D01*
X47641925Y-101990890D01*
X47210128Y-101905000D01*
X46769872Y-101905000D01*
X46338075Y-101990890D01*
X45931331Y-102159369D01*
X45565271Y-102403962D01*
X45253962Y-102715271D01*
X45009369Y-103081331D01*
X44840890Y-103488075D01*
X44755000Y-103919872D01*
X43840000Y-103919872D01*
X43840000Y-98640000D01*
X45501928Y-98640000D01*
X45514188Y-98764482D01*
X45550498Y-98884180D01*
X45609463Y-98994494D01*
X45688815Y-99091185D01*
X45785506Y-99170537D01*
X45895820Y-99229502D01*
X46015518Y-99265812D01*
X46140000Y-99278072D01*
X46704250Y-99275000D01*
X46863000Y-99116250D01*
X46863000Y-97917000D01*
X47117000Y-97917000D01*
X47117000Y-99116250D01*
X47275750Y-99275000D01*
X47840000Y-99278072D01*
X47964482Y-99265812D01*
X48084180Y-99229502D01*
X48194494Y-99170537D01*
X48291185Y-99091185D01*
X48370537Y-98994494D01*
X48429502Y-98884180D01*
X48465812Y-98764482D01*
X48478072Y-98640000D01*
X48475000Y-98075750D01*
X48316250Y-97917000D01*
X47117000Y-97917000D01*
X46863000Y-97917000D01*
X45663750Y-97917000D01*
X45505000Y-98075750D01*
X45501928Y-98640000D01*
X43840000Y-98640000D01*
X43840000Y-91020000D01*
X45501928Y-91020000D01*
X45514188Y-91144482D01*
X45550498Y-91264180D01*
X45609463Y-91374494D01*
X45688815Y-91471185D01*
X45785506Y-91550537D01*
X45895820Y-91609502D01*
X46015518Y-91645812D01*
X46140000Y-91658072D01*
X46704250Y-91655000D01*
X46863000Y-91496250D01*
X46863000Y-90297000D01*
X47117000Y-90297000D01*
X47117000Y-91496250D01*
X47275750Y-91655000D01*
X47840000Y-91658072D01*
X47964482Y-91645812D01*
X48084180Y-91609502D01*
X48194494Y-91550537D01*
X48291185Y-91471185D01*
X48370537Y-91374494D01*
X48429502Y-91264180D01*
X48465812Y-91144482D01*
X48478072Y-91020000D01*
X48475000Y-90455750D01*
X48316250Y-90297000D01*
X47117000Y-90297000D01*
X46863000Y-90297000D01*
X45663750Y-90297000D01*
X45505000Y-90455750D01*
X45501928Y-91020000D01*
X43840000Y-91020000D01*
X43840000Y-83400000D01*
X45501928Y-83400000D01*
X45514188Y-83524482D01*
X45550498Y-83644180D01*
X45609463Y-83754494D01*
X45688815Y-83851185D01*
X45785506Y-83930537D01*
X45895820Y-83989502D01*
X46015518Y-84025812D01*
X46140000Y-84038072D01*
X46704250Y-84035000D01*
X46863000Y-83876250D01*
X46863000Y-82677000D01*
X47117000Y-82677000D01*
X47117000Y-83876250D01*
X47275750Y-84035000D01*
X47840000Y-84038072D01*
X47964482Y-84025812D01*
X48084180Y-83989502D01*
X48194494Y-83930537D01*
X48291185Y-83851185D01*
X48370537Y-83754494D01*
X48429502Y-83644180D01*
X48465812Y-83524482D01*
X48478072Y-83400000D01*
X48475000Y-82835750D01*
X48316250Y-82677000D01*
X47117000Y-82677000D01*
X46863000Y-82677000D01*
X45663750Y-82677000D01*
X45505000Y-82835750D01*
X45501928Y-83400000D01*
X43840000Y-83400000D01*
X43840000Y-77544473D01*
X50730610Y-77544473D01*
X50770875Y-77804344D01*
X50861065Y-78051366D01*
X50914963Y-78152203D01*
X51148731Y-78211664D01*
X51890395Y-77470000D01*
X51148731Y-76728336D01*
X50914963Y-76787797D01*
X50804066Y-77026242D01*
X50741817Y-77281740D01*
X50730610Y-77544473D01*
X43840000Y-77544473D01*
X43840000Y-76548731D01*
X51328336Y-76548731D01*
X52070000Y-77290395D01*
X52811664Y-76548731D01*
X52752203Y-76314963D01*
X52513758Y-76204066D01*
X52258260Y-76141817D01*
X51995527Y-76130610D01*
X51735656Y-76170875D01*
X51488634Y-76261065D01*
X51387797Y-76314963D01*
X51328336Y-76548731D01*
X43840000Y-76548731D01*
X43840000Y-72478000D01*
X45501928Y-72478000D01*
X45514188Y-72602482D01*
X45550498Y-72722180D01*
X45609463Y-72832494D01*
X45688815Y-72929185D01*
X45785506Y-73008537D01*
X45895820Y-73067502D01*
X45968380Y-73089513D01*
X45836525Y-73221368D01*
X45674010Y-73464589D01*
X45562068Y-73734842D01*
X45505000Y-74021740D01*
X45505000Y-74314260D01*
X45562068Y-74601158D01*
X45674010Y-74871411D01*
X45836525Y-75114632D01*
X46043368Y-75321475D01*
X46286589Y-75483990D01*
X46556842Y-75595932D01*
X46843740Y-75653000D01*
X47136260Y-75653000D01*
X47423158Y-75595932D01*
X47693411Y-75483990D01*
X47936632Y-75321475D01*
X48143475Y-75114632D01*
X48305990Y-74871411D01*
X48417932Y-74601158D01*
X48475000Y-74314260D01*
X48475000Y-74021740D01*
X48417932Y-73734842D01*
X48305990Y-73464589D01*
X48143475Y-73221368D01*
X48011620Y-73089513D01*
X48084180Y-73067502D01*
X48194494Y-73008537D01*
X48291185Y-72929185D01*
X48370537Y-72832494D01*
X48429502Y-72722180D01*
X48465812Y-72602482D01*
X48478072Y-72478000D01*
X48475000Y-71913750D01*
X48316250Y-71755000D01*
X47117000Y-71755000D01*
X47117000Y-71775000D01*
X46863000Y-71775000D01*
X46863000Y-71755000D01*
X45663750Y-71755000D01*
X45505000Y-71913750D01*
X45501928Y-72478000D01*
X43840000Y-72478000D01*
X43840000Y-70778000D01*
X45501928Y-70778000D01*
X45505000Y-71342250D01*
X45663750Y-71501000D01*
X46863000Y-71501000D01*
X46863000Y-70301750D01*
X47117000Y-70301750D01*
X47117000Y-71501000D01*
X48316250Y-71501000D01*
X48475000Y-71342250D01*
X48478072Y-70778000D01*
X48465812Y-70653518D01*
X48429502Y-70533820D01*
X48370537Y-70423506D01*
X48291185Y-70326815D01*
X48194494Y-70247463D01*
X48084180Y-70188498D01*
X47964482Y-70152188D01*
X47840000Y-70139928D01*
X47275750Y-70143000D01*
X47117000Y-70301750D01*
X46863000Y-70301750D01*
X46704250Y-70143000D01*
X46140000Y-70139928D01*
X46015518Y-70152188D01*
X45895820Y-70188498D01*
X45785506Y-70247463D01*
X45688815Y-70326815D01*
X45609463Y-70423506D01*
X45550498Y-70533820D01*
X45514188Y-70653518D01*
X45501928Y-70778000D01*
X43840000Y-70778000D01*
X43840000Y-69537497D01*
X50749428Y-69537497D01*
X50749428Y-70162503D01*
X50766492Y-70335757D01*
X50817028Y-70502352D01*
X50899095Y-70655888D01*
X51009537Y-70790463D01*
X51144112Y-70900905D01*
X51297648Y-70982972D01*
X51464243Y-71033508D01*
X51637497Y-71050572D01*
X52887503Y-71050572D01*
X53060757Y-71033508D01*
X53227352Y-70982972D01*
X53380888Y-70900905D01*
X53515463Y-70790463D01*
X53625905Y-70655888D01*
X53707972Y-70502352D01*
X53758508Y-70335757D01*
X53775572Y-70162503D01*
X53775572Y-69537497D01*
X53758508Y-69364243D01*
X53707972Y-69197648D01*
X53625905Y-69044112D01*
X53515463Y-68909537D01*
X53380888Y-68799095D01*
X53227352Y-68717028D01*
X53060757Y-68666492D01*
X53024500Y-68662921D01*
X53024500Y-67496795D01*
X53034482Y-67495812D01*
X53154180Y-67459502D01*
X53264494Y-67400537D01*
X53361185Y-67321185D01*
X53440537Y-67224494D01*
X53499502Y-67114180D01*
X53535812Y-66994482D01*
X53548072Y-66870000D01*
X53548072Y-65870000D01*
X55671928Y-65870000D01*
X55671928Y-66870000D01*
X55684188Y-66994482D01*
X55720498Y-67114180D01*
X55779463Y-67224494D01*
X55858815Y-67321185D01*
X55955506Y-67400537D01*
X56065820Y-67459502D01*
X56107501Y-67472146D01*
X56107501Y-68443206D01*
X56102892Y-68490000D01*
X56121283Y-68676722D01*
X56175749Y-68856269D01*
X56223855Y-68946269D01*
X56264195Y-69021741D01*
X56383223Y-69166778D01*
X56419565Y-69196603D01*
X57713393Y-70490431D01*
X57743222Y-70526778D01*
X57888259Y-70645806D01*
X58053731Y-70734252D01*
X58197948Y-70778000D01*
X58233277Y-70788717D01*
X58419999Y-70807108D01*
X58466784Y-70802500D01*
X63817500Y-70802500D01*
X63817501Y-82503205D01*
X63812892Y-82550000D01*
X63831283Y-82736722D01*
X63867696Y-82856756D01*
X63885749Y-82916269D01*
X63974195Y-83081741D01*
X64093223Y-83226778D01*
X64129564Y-83256602D01*
X67874070Y-87001109D01*
X67916795Y-87104256D01*
X68030063Y-87273774D01*
X68174226Y-87417937D01*
X68343744Y-87531205D01*
X68532102Y-87609226D01*
X68732061Y-87649000D01*
X68935939Y-87649000D01*
X69135898Y-87609226D01*
X69324256Y-87531205D01*
X69493774Y-87417937D01*
X69637937Y-87273774D01*
X69751205Y-87104256D01*
X69829226Y-86915898D01*
X69869000Y-86715939D01*
X69869000Y-86512061D01*
X69829226Y-86312102D01*
X69751205Y-86123744D01*
X69637937Y-85954226D01*
X69493774Y-85810063D01*
X69324256Y-85696795D01*
X69221109Y-85654070D01*
X65722500Y-82155462D01*
X65722500Y-70244538D01*
X66680436Y-69286603D01*
X66716778Y-69256778D01*
X66835806Y-69111741D01*
X66924252Y-68946269D01*
X66978717Y-68766723D01*
X66992500Y-68626785D01*
X66992500Y-68626784D01*
X66997108Y-68580001D01*
X66992500Y-68533216D01*
X66992500Y-65917607D01*
X67193475Y-65716632D01*
X67315195Y-65534466D01*
X67384822Y-65651355D01*
X67579731Y-65867588D01*
X67813080Y-66041641D01*
X68075901Y-66166825D01*
X68223110Y-66211476D01*
X68453000Y-66090155D01*
X68453000Y-64897000D01*
X68433000Y-64897000D01*
X68433000Y-64643000D01*
X68453000Y-64643000D01*
X68453000Y-63449845D01*
X68707000Y-63449845D01*
X68707000Y-64643000D01*
X68727000Y-64643000D01*
X68727000Y-64897000D01*
X68707000Y-64897000D01*
X68707000Y-66090155D01*
X68936890Y-66211476D01*
X69084099Y-66166825D01*
X69346920Y-66041641D01*
X69580269Y-65867588D01*
X69775178Y-65651355D01*
X69844805Y-65534466D01*
X69966525Y-65716632D01*
X70173368Y-65923475D01*
X70416589Y-66085990D01*
X70686842Y-66197932D01*
X70973740Y-66255000D01*
X71266260Y-66255000D01*
X71553158Y-66197932D01*
X71823411Y-66085990D01*
X72066632Y-65923475D01*
X72198487Y-65791620D01*
X72220498Y-65864180D01*
X72279463Y-65974494D01*
X72358815Y-66071185D01*
X72455506Y-66150537D01*
X72565820Y-66209502D01*
X72685518Y-66245812D01*
X72810000Y-66258072D01*
X74510000Y-66258072D01*
X74634482Y-66245812D01*
X74754180Y-66209502D01*
X74864494Y-66150537D01*
X74961185Y-66071185D01*
X75040537Y-65974494D01*
X75099502Y-65864180D01*
X75135812Y-65744482D01*
X75148072Y-65620000D01*
X75148072Y-63920000D01*
X75135812Y-63795518D01*
X75099502Y-63675820D01*
X75040537Y-63565506D01*
X74961185Y-63468815D01*
X74864494Y-63389463D01*
X74754180Y-63330498D01*
X74634482Y-63294188D01*
X74510000Y-63281928D01*
X72810000Y-63281928D01*
X72685518Y-63294188D01*
X72565820Y-63330498D01*
X72455506Y-63389463D01*
X72358815Y-63468815D01*
X72279463Y-63565506D01*
X72220498Y-63675820D01*
X72198487Y-63748380D01*
X72066632Y-63616525D01*
X71823411Y-63454010D01*
X71553158Y-63342068D01*
X71266260Y-63285000D01*
X70973740Y-63285000D01*
X70686842Y-63342068D01*
X70416589Y-63454010D01*
X70173368Y-63616525D01*
X69966525Y-63823368D01*
X69844805Y-64005534D01*
X69775178Y-63888645D01*
X69580269Y-63672412D01*
X69346920Y-63498359D01*
X69084099Y-63373175D01*
X68936890Y-63328524D01*
X68707000Y-63449845D01*
X68453000Y-63449845D01*
X68223110Y-63328524D01*
X68075901Y-63373175D01*
X67813080Y-63498359D01*
X67579731Y-63672412D01*
X67384822Y-63888645D01*
X67315195Y-64005534D01*
X67193475Y-63823368D01*
X66986632Y-63616525D01*
X66743411Y-63454010D01*
X66473158Y-63342068D01*
X66186260Y-63285000D01*
X65893740Y-63285000D01*
X65606842Y-63342068D01*
X65336589Y-63454010D01*
X65093368Y-63616525D01*
X64886525Y-63823368D01*
X64724010Y-64066589D01*
X64612068Y-64336842D01*
X64555000Y-64623740D01*
X64555000Y-64916260D01*
X64612068Y-65203158D01*
X64724010Y-65473411D01*
X64886525Y-65716632D01*
X65087501Y-65917608D01*
X65087500Y-68185461D01*
X64375462Y-68897500D01*
X58814538Y-68897500D01*
X58012500Y-68095462D01*
X58012500Y-67472145D01*
X58054180Y-67459502D01*
X58164494Y-67400537D01*
X58261185Y-67321185D01*
X58340537Y-67224494D01*
X58399502Y-67114180D01*
X58435812Y-66994482D01*
X58448072Y-66870000D01*
X58448072Y-65870000D01*
X58435812Y-65745518D01*
X58399502Y-65625820D01*
X58340537Y-65515506D01*
X58261185Y-65418815D01*
X58164494Y-65339463D01*
X58054180Y-65280498D01*
X57934482Y-65244188D01*
X57810000Y-65231928D01*
X56310000Y-65231928D01*
X56185518Y-65244188D01*
X56065820Y-65280498D01*
X55955506Y-65339463D01*
X55858815Y-65418815D01*
X55779463Y-65515506D01*
X55720498Y-65625820D01*
X55684188Y-65745518D01*
X55671928Y-65870000D01*
X53548072Y-65870000D01*
X53535812Y-65745518D01*
X53499502Y-65625820D01*
X53440537Y-65515506D01*
X53361185Y-65418815D01*
X53264494Y-65339463D01*
X53154180Y-65280498D01*
X53034482Y-65244188D01*
X52910000Y-65231928D01*
X51410000Y-65231928D01*
X51285518Y-65244188D01*
X51165820Y-65280498D01*
X51055506Y-65339463D01*
X50958815Y-65418815D01*
X50879463Y-65515506D01*
X50820498Y-65625820D01*
X50784188Y-65745518D01*
X50771928Y-65870000D01*
X50771928Y-66870000D01*
X50784188Y-66994482D01*
X50820498Y-67114180D01*
X50879463Y-67224494D01*
X50958815Y-67321185D01*
X51055506Y-67400537D01*
X51165820Y-67459502D01*
X51285518Y-67495812D01*
X51410000Y-67508072D01*
X51500501Y-67508072D01*
X51500500Y-68662921D01*
X51464243Y-68666492D01*
X51297648Y-68717028D01*
X51144112Y-68799095D01*
X51009537Y-68909537D01*
X50899095Y-69044112D01*
X50817028Y-69197648D01*
X50766492Y-69364243D01*
X50749428Y-69537497D01*
X43840000Y-69537497D01*
X43840000Y-64802279D01*
X43864748Y-64549872D01*
X44755000Y-64549872D01*
X44755000Y-64990128D01*
X44840890Y-65421925D01*
X45009369Y-65828669D01*
X45253962Y-66194729D01*
X45565271Y-66506038D01*
X45931331Y-66750631D01*
X46338075Y-66919110D01*
X46769872Y-67005000D01*
X47210128Y-67005000D01*
X47641925Y-66919110D01*
X48048669Y-66750631D01*
X48414729Y-66506038D01*
X48726038Y-66194729D01*
X48970631Y-65828669D01*
X49139110Y-65421925D01*
X49225000Y-64990128D01*
X49225000Y-64549872D01*
X49139110Y-64118075D01*
X48970631Y-63711331D01*
X48943015Y-63670000D01*
X50771928Y-63670000D01*
X50784188Y-63794482D01*
X50820498Y-63914180D01*
X50879463Y-64024494D01*
X50958815Y-64121185D01*
X51055506Y-64200537D01*
X51165820Y-64259502D01*
X51285518Y-64295812D01*
X51410000Y-64308072D01*
X51874250Y-64305000D01*
X52033000Y-64146250D01*
X52033000Y-63297000D01*
X52287000Y-63297000D01*
X52287000Y-64146250D01*
X52445750Y-64305000D01*
X52910000Y-64308072D01*
X53034482Y-64295812D01*
X53154180Y-64259502D01*
X53264494Y-64200537D01*
X53361185Y-64121185D01*
X53440537Y-64024494D01*
X53499502Y-63914180D01*
X53535812Y-63794482D01*
X53548072Y-63670000D01*
X53545000Y-63455750D01*
X53386250Y-63297000D01*
X52287000Y-63297000D01*
X52033000Y-63297000D01*
X50933750Y-63297000D01*
X50775000Y-63455750D01*
X50771928Y-63670000D01*
X48943015Y-63670000D01*
X48726038Y-63345271D01*
X48414729Y-63033962D01*
X48048669Y-62789369D01*
X47760487Y-62670000D01*
X50771928Y-62670000D01*
X50775000Y-62884250D01*
X50933750Y-63043000D01*
X52033000Y-63043000D01*
X52033000Y-62193750D01*
X52287000Y-62193750D01*
X52287000Y-63043000D01*
X53386250Y-63043000D01*
X53545000Y-62884250D01*
X53548072Y-62670000D01*
X55671928Y-62670000D01*
X55671928Y-63670000D01*
X55684188Y-63794482D01*
X55720498Y-63914180D01*
X55779463Y-64024494D01*
X55858815Y-64121185D01*
X55955506Y-64200537D01*
X56065820Y-64259502D01*
X56185518Y-64295812D01*
X56310000Y-64308072D01*
X57810000Y-64308072D01*
X57934482Y-64295812D01*
X58054180Y-64259502D01*
X58164494Y-64200537D01*
X58261185Y-64121185D01*
X58340537Y-64024494D01*
X58396391Y-63920000D01*
X59471928Y-63920000D01*
X59471928Y-65620000D01*
X59484188Y-65744482D01*
X59520498Y-65864180D01*
X59579463Y-65974494D01*
X59658815Y-66071185D01*
X59755506Y-66150537D01*
X59865820Y-66209502D01*
X59985518Y-66245812D01*
X60110000Y-66258072D01*
X61810000Y-66258072D01*
X61934482Y-66245812D01*
X62054180Y-66209502D01*
X62164494Y-66150537D01*
X62261185Y-66071185D01*
X62340537Y-65974494D01*
X62399502Y-65864180D01*
X62435812Y-65744482D01*
X62448072Y-65620000D01*
X62448072Y-63920000D01*
X62435812Y-63795518D01*
X62399502Y-63675820D01*
X62340537Y-63565506D01*
X62261185Y-63468815D01*
X62164494Y-63389463D01*
X62054180Y-63330498D01*
X61934482Y-63294188D01*
X61810000Y-63281928D01*
X60110000Y-63281928D01*
X59985518Y-63294188D01*
X59865820Y-63330498D01*
X59755506Y-63389463D01*
X59658815Y-63468815D01*
X59579463Y-63565506D01*
X59520498Y-63675820D01*
X59484188Y-63795518D01*
X59471928Y-63920000D01*
X58396391Y-63920000D01*
X58399502Y-63914180D01*
X58435812Y-63794482D01*
X58448072Y-63670000D01*
X58448072Y-62670000D01*
X58435812Y-62545518D01*
X58399502Y-62425820D01*
X58340537Y-62315506D01*
X58261185Y-62218815D01*
X58164494Y-62139463D01*
X58054180Y-62080498D01*
X57934482Y-62044188D01*
X57810000Y-62031928D01*
X56310000Y-62031928D01*
X56185518Y-62044188D01*
X56065820Y-62080498D01*
X55955506Y-62139463D01*
X55858815Y-62218815D01*
X55779463Y-62315506D01*
X55720498Y-62425820D01*
X55684188Y-62545518D01*
X55671928Y-62670000D01*
X53548072Y-62670000D01*
X53535812Y-62545518D01*
X53499502Y-62425820D01*
X53440537Y-62315506D01*
X53361185Y-62218815D01*
X53264494Y-62139463D01*
X53154180Y-62080498D01*
X53034482Y-62044188D01*
X52910000Y-62031928D01*
X52445750Y-62035000D01*
X52287000Y-62193750D01*
X52033000Y-62193750D01*
X51874250Y-62035000D01*
X51410000Y-62031928D01*
X51285518Y-62044188D01*
X51165820Y-62080498D01*
X51055506Y-62139463D01*
X50958815Y-62218815D01*
X50879463Y-62315506D01*
X50820498Y-62425820D01*
X50784188Y-62545518D01*
X50771928Y-62670000D01*
X47760487Y-62670000D01*
X47641925Y-62620890D01*
X47210128Y-62535000D01*
X46769872Y-62535000D01*
X46338075Y-62620890D01*
X45931331Y-62789369D01*
X45565271Y-63033962D01*
X45253962Y-63345271D01*
X45009369Y-63711331D01*
X44840890Y-64118075D01*
X44755000Y-64549872D01*
X43864748Y-64549872D01*
X43903096Y-64158778D01*
X44080606Y-63570836D01*
X44368937Y-63028564D01*
X44757094Y-62552636D01*
X45230314Y-62161155D01*
X45770552Y-61869049D01*
X46357244Y-61687437D01*
X46998879Y-61620000D01*
X107917721Y-61620000D01*
X108561222Y-61683096D01*
%TA.AperFunction,Conductor*%
D24*
G36*
X108561222Y-61683096D02*
G01*
X109149164Y-61860606D01*
X109691436Y-62148937D01*
X110167364Y-62537094D01*
X110558845Y-63010314D01*
X110850951Y-63550552D01*
X111032563Y-64137244D01*
X111100001Y-64778888D01*
X111100000Y-104107721D01*
X111036904Y-104751221D01*
X110859394Y-105339164D01*
X110571063Y-105881436D01*
X110182906Y-106357364D01*
X109709686Y-106748845D01*
X109169449Y-107040950D01*
X108582756Y-107222563D01*
X107941130Y-107290000D01*
X66004686Y-107290000D01*
X66019226Y-107254898D01*
X66059000Y-107054939D01*
X66059000Y-106934000D01*
X66100289Y-106934000D01*
X66142226Y-106975937D01*
X66311744Y-107089205D01*
X66500102Y-107167226D01*
X66700061Y-107207000D01*
X66903939Y-107207000D01*
X67103898Y-107167226D01*
X67292256Y-107089205D01*
X67461774Y-106975937D01*
X67605937Y-106831774D01*
X67719205Y-106662256D01*
X67797226Y-106473898D01*
X67821475Y-106351987D01*
X67975000Y-106367108D01*
X68021785Y-106362500D01*
X72343215Y-106362500D01*
X72390000Y-106367108D01*
X72436785Y-106362500D01*
X72576723Y-106348717D01*
X72756269Y-106294252D01*
X72921741Y-106205806D01*
X73066778Y-106086778D01*
X73096607Y-106050431D01*
X74300436Y-104846603D01*
X74336778Y-104816778D01*
X74455806Y-104671741D01*
X74544252Y-104506269D01*
X74598717Y-104326723D01*
X74612500Y-104186785D01*
X74612500Y-104186784D01*
X74617108Y-104140001D01*
X74612500Y-104093216D01*
X74612500Y-103919872D01*
X105715000Y-103919872D01*
X105715000Y-104360128D01*
X105800890Y-104791925D01*
X105969369Y-105198669D01*
X106213962Y-105564729D01*
X106525271Y-105876038D01*
X106891331Y-106120631D01*
X107298075Y-106289110D01*
X107729872Y-106375000D01*
X108170128Y-106375000D01*
X108601925Y-106289110D01*
X109008669Y-106120631D01*
X109374729Y-105876038D01*
X109686038Y-105564729D01*
X109930631Y-105198669D01*
X110099110Y-104791925D01*
X110185000Y-104360128D01*
X110185000Y-103919872D01*
X110099110Y-103488075D01*
X109930631Y-103081331D01*
X109686038Y-102715271D01*
X109374729Y-102403962D01*
X109008669Y-102159369D01*
X108601925Y-101990890D01*
X108170128Y-101905000D01*
X107729872Y-101905000D01*
X107298075Y-101990890D01*
X106891331Y-102159369D01*
X106525271Y-102403962D01*
X106213962Y-102715271D01*
X105969369Y-103081331D01*
X105800890Y-103488075D01*
X105715000Y-103919872D01*
X74612500Y-103919872D01*
X74612500Y-100556763D01*
X74628102Y-100563226D01*
X74828061Y-100603000D01*
X75031939Y-100603000D01*
X75231898Y-100563226D01*
X75420256Y-100485205D01*
X75589774Y-100371937D01*
X75733937Y-100227774D01*
X75847205Y-100058256D01*
X75900330Y-99930001D01*
X76190692Y-99930001D01*
X76186304Y-99940595D01*
X76135000Y-100198514D01*
X76135000Y-100461486D01*
X76186304Y-100719405D01*
X76286939Y-100962359D01*
X76433038Y-101181013D01*
X76618987Y-101366962D01*
X76837641Y-101513061D01*
X77080595Y-101613696D01*
X77338514Y-101665000D01*
X77601486Y-101665000D01*
X77859405Y-101613696D01*
X78102359Y-101513061D01*
X78321013Y-101366962D01*
X78506962Y-101181013D01*
X78653061Y-100962359D01*
X78740000Y-100752470D01*
X78826939Y-100962359D01*
X78973038Y-101181013D01*
X79158987Y-101366962D01*
X79377641Y-101513061D01*
X79620595Y-101613696D01*
X79878514Y-101665000D01*
X80141486Y-101665000D01*
X80399405Y-101613696D01*
X80642359Y-101513061D01*
X80861013Y-101366962D01*
X81046962Y-101181013D01*
X81193061Y-100962359D01*
X81293696Y-100719405D01*
X81345000Y-100461486D01*
X81345000Y-100198514D01*
X81293696Y-99940595D01*
X81193061Y-99697641D01*
X81046962Y-99478987D01*
X81022744Y-99454769D01*
X81603354Y-98874159D01*
X81632423Y-98850303D01*
X81727646Y-98734273D01*
X81798403Y-98601896D01*
X81841975Y-98458259D01*
X81853001Y-98346307D01*
X81853001Y-98346305D01*
X81856687Y-98308882D01*
X81853001Y-98271459D01*
X81853001Y-96636408D01*
X84709000Y-96636408D01*
X84709000Y-96911592D01*
X84762686Y-97181490D01*
X84867995Y-97435727D01*
X85020880Y-97664535D01*
X85215465Y-97859120D01*
X85444273Y-98012005D01*
X85698510Y-98117314D01*
X85968408Y-98171000D01*
X86243592Y-98171000D01*
X86513490Y-98117314D01*
X86767727Y-98012005D01*
X86996535Y-97859120D01*
X87191120Y-97664535D01*
X87277005Y-97536000D01*
X91402577Y-97536000D01*
X91440000Y-97539686D01*
X91477423Y-97536000D01*
X91477426Y-97536000D01*
X91589378Y-97524974D01*
X91733015Y-97481402D01*
X91865392Y-97410645D01*
X91981422Y-97315422D01*
X92005284Y-97286346D01*
X98556353Y-90735278D01*
X98585422Y-90711422D01*
X98680645Y-90595392D01*
X98751402Y-90463015D01*
X98794974Y-90319378D01*
X98806000Y-90207426D01*
X98806000Y-90207424D01*
X98809686Y-90170001D01*
X98806000Y-90132578D01*
X98806000Y-78856408D01*
X105029000Y-78856408D01*
X105029000Y-79131592D01*
X105082686Y-79401490D01*
X105187995Y-79655727D01*
X105340880Y-79884535D01*
X105535465Y-80079120D01*
X105764273Y-80232005D01*
X105841515Y-80264000D01*
X105764273Y-80295995D01*
X105535465Y-80448880D01*
X105340880Y-80643465D01*
X105187995Y-80872273D01*
X105082686Y-81126510D01*
X105029000Y-81396408D01*
X105029000Y-81671592D01*
X105082686Y-81941490D01*
X105187995Y-82195727D01*
X105340880Y-82424535D01*
X105535465Y-82619120D01*
X105764273Y-82772005D01*
X105841515Y-82804000D01*
X105764273Y-82835995D01*
X105535465Y-82988880D01*
X105340880Y-83183465D01*
X105187995Y-83412273D01*
X105082686Y-83666510D01*
X105029000Y-83936408D01*
X105029000Y-84211592D01*
X105082686Y-84481490D01*
X105187995Y-84735727D01*
X105340880Y-84964535D01*
X105535465Y-85159120D01*
X105764273Y-85312005D01*
X105841515Y-85344000D01*
X105764273Y-85375995D01*
X105535465Y-85528880D01*
X105340880Y-85723465D01*
X105187995Y-85952273D01*
X105082686Y-86206510D01*
X105029000Y-86476408D01*
X105029000Y-86751592D01*
X105082686Y-87021490D01*
X105187995Y-87275727D01*
X105340880Y-87504535D01*
X105535465Y-87699120D01*
X105764273Y-87852005D01*
X105841515Y-87884000D01*
X105764273Y-87915995D01*
X105535465Y-88068880D01*
X105340880Y-88263465D01*
X105187995Y-88492273D01*
X105082686Y-88746510D01*
X105029000Y-89016408D01*
X105029000Y-89291592D01*
X105082686Y-89561490D01*
X105187995Y-89815727D01*
X105340880Y-90044535D01*
X105535465Y-90239120D01*
X105764273Y-90392005D01*
X105841515Y-90424000D01*
X105764273Y-90455995D01*
X105535465Y-90608880D01*
X105340880Y-90803465D01*
X105187995Y-91032273D01*
X105082686Y-91286510D01*
X105029000Y-91556408D01*
X105029000Y-91831592D01*
X105082686Y-92101490D01*
X105187995Y-92355727D01*
X105340880Y-92584535D01*
X105535465Y-92779120D01*
X105764273Y-92932005D01*
X106018510Y-93037314D01*
X106288408Y-93091000D01*
X106563592Y-93091000D01*
X106833490Y-93037314D01*
X107087727Y-92932005D01*
X107316535Y-92779120D01*
X107511120Y-92584535D01*
X107664005Y-92355727D01*
X107769314Y-92101490D01*
X107823000Y-91831592D01*
X107823000Y-91556408D01*
X107769314Y-91286510D01*
X107664005Y-91032273D01*
X107511120Y-90803465D01*
X107316535Y-90608880D01*
X107087727Y-90455995D01*
X107010485Y-90424000D01*
X107087727Y-90392005D01*
X107316535Y-90239120D01*
X107511120Y-90044535D01*
X107664005Y-89815727D01*
X107769314Y-89561490D01*
X107823000Y-89291592D01*
X107823000Y-89016408D01*
X107769314Y-88746510D01*
X107664005Y-88492273D01*
X107511120Y-88263465D01*
X107316535Y-88068880D01*
X107087727Y-87915995D01*
X107010485Y-87884000D01*
X107087727Y-87852005D01*
X107316535Y-87699120D01*
X107511120Y-87504535D01*
X107664005Y-87275727D01*
X107769314Y-87021490D01*
X107823000Y-86751592D01*
X107823000Y-86476408D01*
X107769314Y-86206510D01*
X107664005Y-85952273D01*
X107511120Y-85723465D01*
X107316535Y-85528880D01*
X107087727Y-85375995D01*
X107010485Y-85344000D01*
X107087727Y-85312005D01*
X107316535Y-85159120D01*
X107511120Y-84964535D01*
X107664005Y-84735727D01*
X107769314Y-84481490D01*
X107823000Y-84211592D01*
X107823000Y-83936408D01*
X107769314Y-83666510D01*
X107664005Y-83412273D01*
X107511120Y-83183465D01*
X107316535Y-82988880D01*
X107087727Y-82835995D01*
X107010485Y-82804000D01*
X107087727Y-82772005D01*
X107316535Y-82619120D01*
X107511120Y-82424535D01*
X107664005Y-82195727D01*
X107769314Y-81941490D01*
X107823000Y-81671592D01*
X107823000Y-81396408D01*
X107769314Y-81126510D01*
X107664005Y-80872273D01*
X107511120Y-80643465D01*
X107316535Y-80448880D01*
X107087727Y-80295995D01*
X107010485Y-80264000D01*
X107087727Y-80232005D01*
X107316535Y-80079120D01*
X107511120Y-79884535D01*
X107664005Y-79655727D01*
X107769314Y-79401490D01*
X107823000Y-79131592D01*
X107823000Y-78856408D01*
X107769314Y-78586510D01*
X107664005Y-78332273D01*
X107511120Y-78103465D01*
X107316535Y-77908880D01*
X107087727Y-77755995D01*
X106833490Y-77650686D01*
X106563592Y-77597000D01*
X106288408Y-77597000D01*
X106018510Y-77650686D01*
X105764273Y-77755995D01*
X105535465Y-77908880D01*
X105340880Y-78103465D01*
X105187995Y-78332273D01*
X105082686Y-78586510D01*
X105029000Y-78856408D01*
X98806000Y-78856408D01*
X98806000Y-65854107D01*
X98943475Y-65716632D01*
X99105990Y-65473411D01*
X99217932Y-65203158D01*
X99275000Y-64916260D01*
X99275000Y-64623740D01*
X99260307Y-64549872D01*
X105715000Y-64549872D01*
X105715000Y-64990128D01*
X105800890Y-65421925D01*
X105969369Y-65828669D01*
X106213962Y-66194729D01*
X106525271Y-66506038D01*
X106891331Y-66750631D01*
X107298075Y-66919110D01*
X107729872Y-67005000D01*
X108170128Y-67005000D01*
X108601925Y-66919110D01*
X109008669Y-66750631D01*
X109374729Y-66506038D01*
X109686038Y-66194729D01*
X109930631Y-65828669D01*
X110099110Y-65421925D01*
X110185000Y-64990128D01*
X110185000Y-64549872D01*
X110099110Y-64118075D01*
X109930631Y-63711331D01*
X109686038Y-63345271D01*
X109374729Y-63033962D01*
X109008669Y-62789369D01*
X108601925Y-62620890D01*
X108170128Y-62535000D01*
X107729872Y-62535000D01*
X107298075Y-62620890D01*
X106891331Y-62789369D01*
X106525271Y-63033962D01*
X106213962Y-63345271D01*
X105969369Y-63711331D01*
X105800890Y-64118075D01*
X105715000Y-64549872D01*
X99260307Y-64549872D01*
X99217932Y-64336842D01*
X99105990Y-64066589D01*
X98943475Y-63823368D01*
X98736632Y-63616525D01*
X98493411Y-63454010D01*
X98223158Y-63342068D01*
X97936260Y-63285000D01*
X97643740Y-63285000D01*
X97356842Y-63342068D01*
X97086589Y-63454010D01*
X96843368Y-63616525D01*
X96636525Y-63823368D01*
X96514805Y-64005534D01*
X96445178Y-63888645D01*
X96250269Y-63672412D01*
X96016920Y-63498359D01*
X95754099Y-63373175D01*
X95606890Y-63328524D01*
X95377000Y-63449845D01*
X95377000Y-64643000D01*
X95397000Y-64643000D01*
X95397000Y-64897000D01*
X95377000Y-64897000D01*
X95377000Y-66090155D01*
X95606890Y-66211476D01*
X95754099Y-66166825D01*
X96016920Y-66041641D01*
X96250269Y-65867588D01*
X96445178Y-65651355D01*
X96514805Y-65534466D01*
X96636525Y-65716632D01*
X96843368Y-65923475D01*
X97086589Y-66085990D01*
X97282001Y-66166932D01*
X97282000Y-89854369D01*
X91124370Y-96012000D01*
X87277005Y-96012000D01*
X87191120Y-95883465D01*
X86996535Y-95688880D01*
X86767727Y-95535995D01*
X86696057Y-95506308D01*
X86709023Y-95501636D01*
X86824980Y-95439656D01*
X86891960Y-95199565D01*
X86106000Y-94413605D01*
X85320040Y-95199565D01*
X85387020Y-95439656D01*
X85522760Y-95503485D01*
X85444273Y-95535995D01*
X85215465Y-95688880D01*
X85020880Y-95883465D01*
X84867995Y-96112273D01*
X84762686Y-96366510D01*
X84709000Y-96636408D01*
X81853001Y-96636408D01*
X81853001Y-94306017D01*
X84704090Y-94306017D01*
X84745078Y-94578133D01*
X84838364Y-94837023D01*
X84900344Y-94952980D01*
X85140435Y-95019960D01*
X85926395Y-94234000D01*
X86285605Y-94234000D01*
X87071565Y-95019960D01*
X87311656Y-94952980D01*
X87428756Y-94703952D01*
X87495023Y-94436865D01*
X87507910Y-94161983D01*
X87466922Y-93889867D01*
X87373636Y-93630977D01*
X87311656Y-93515020D01*
X87071565Y-93448040D01*
X86285605Y-94234000D01*
X85926395Y-94234000D01*
X85140435Y-93448040D01*
X84900344Y-93515020D01*
X84783244Y-93764048D01*
X84716977Y-94031135D01*
X84704090Y-94306017D01*
X81853001Y-94306017D01*
X81853001Y-88748423D01*
X81856687Y-88711000D01*
X81853001Y-88673575D01*
X81841975Y-88561623D01*
X81798403Y-88417986D01*
X81727646Y-88285609D01*
X81632423Y-88169579D01*
X81603353Y-88145722D01*
X81324114Y-87866484D01*
X81345000Y-87761486D01*
X81345000Y-87498514D01*
X81293696Y-87240595D01*
X81193061Y-86997641D01*
X81046962Y-86778987D01*
X81020923Y-86752948D01*
X81070303Y-86712423D01*
X81094165Y-86683347D01*
X81401410Y-86376102D01*
X81492063Y-86511774D01*
X81636226Y-86655937D01*
X81805744Y-86769205D01*
X81994102Y-86847226D01*
X82194061Y-86887000D01*
X82397939Y-86887000D01*
X82597898Y-86847226D01*
X82786256Y-86769205D01*
X82955774Y-86655937D01*
X83099937Y-86511774D01*
X83213205Y-86342256D01*
X83291226Y-86153898D01*
X83326015Y-85979001D01*
X84856924Y-85979001D01*
X84762686Y-86206510D01*
X84709000Y-86476408D01*
X84709000Y-86751592D01*
X84762686Y-87021490D01*
X84867995Y-87275727D01*
X85020880Y-87504535D01*
X85215465Y-87699120D01*
X85444273Y-87852005D01*
X85521515Y-87884000D01*
X85444273Y-87915995D01*
X85215465Y-88068880D01*
X85020880Y-88263465D01*
X84867995Y-88492273D01*
X84762686Y-88746510D01*
X84709000Y-89016408D01*
X84709000Y-89291592D01*
X84762686Y-89561490D01*
X84867995Y-89815727D01*
X85020880Y-90044535D01*
X85215465Y-90239120D01*
X85444273Y-90392005D01*
X85521515Y-90424000D01*
X85444273Y-90455995D01*
X85215465Y-90608880D01*
X85020880Y-90803465D01*
X84867995Y-91032273D01*
X84762686Y-91286510D01*
X84709000Y-91556408D01*
X84709000Y-91831592D01*
X84762686Y-92101490D01*
X84867995Y-92355727D01*
X85020880Y-92584535D01*
X85215465Y-92779120D01*
X85444273Y-92932005D01*
X85515943Y-92961692D01*
X85502977Y-92966364D01*
X85387020Y-93028344D01*
X85320040Y-93268435D01*
X86106000Y-94054395D01*
X86891960Y-93268435D01*
X86824980Y-93028344D01*
X86689240Y-92964515D01*
X86767727Y-92932005D01*
X86996535Y-92779120D01*
X87191120Y-92584535D01*
X87344005Y-92355727D01*
X87449314Y-92101490D01*
X87503000Y-91831592D01*
X87503000Y-91556408D01*
X87472841Y-91404789D01*
X93476347Y-85401283D01*
X93505422Y-85377422D01*
X93593018Y-85270686D01*
X93600645Y-85261393D01*
X93638465Y-85190636D01*
X93671402Y-85129015D01*
X93714974Y-84985378D01*
X93726000Y-84873426D01*
X93726000Y-84873423D01*
X93729686Y-84836000D01*
X93726000Y-84798577D01*
X93726000Y-66233218D01*
X93804180Y-66209502D01*
X93914494Y-66150537D01*
X94011185Y-66071185D01*
X94090537Y-65974494D01*
X94149502Y-65864180D01*
X94173966Y-65783534D01*
X94249731Y-65867588D01*
X94483080Y-66041641D01*
X94745901Y-66166825D01*
X94893110Y-66211476D01*
X95123000Y-66090155D01*
X95123000Y-64897000D01*
X95103000Y-64897000D01*
X95103000Y-64643000D01*
X95123000Y-64643000D01*
X95123000Y-63449845D01*
X94893110Y-63328524D01*
X94745901Y-63373175D01*
X94483080Y-63498359D01*
X94249731Y-63672412D01*
X94173966Y-63756466D01*
X94149502Y-63675820D01*
X94090537Y-63565506D01*
X94011185Y-63468815D01*
X93914494Y-63389463D01*
X93804180Y-63330498D01*
X93684482Y-63294188D01*
X93560000Y-63281928D01*
X91860000Y-63281928D01*
X91735518Y-63294188D01*
X91615820Y-63330498D01*
X91505506Y-63389463D01*
X91408815Y-63468815D01*
X91329463Y-63565506D01*
X91270498Y-63675820D01*
X91234188Y-63795518D01*
X91221928Y-63920000D01*
X91221928Y-65620000D01*
X91234188Y-65744482D01*
X91270498Y-65864180D01*
X91329463Y-65974494D01*
X91408815Y-66071185D01*
X91505506Y-66150537D01*
X91615820Y-66209502D01*
X91735518Y-66245812D01*
X91860000Y-66258072D01*
X92202001Y-66258072D01*
X92202000Y-84520370D01*
X91949264Y-84773106D01*
X91967000Y-84683939D01*
X91967000Y-84480061D01*
X91927226Y-84280102D01*
X91849205Y-84091744D01*
X91735937Y-83922226D01*
X91591774Y-83778063D01*
X91422256Y-83664795D01*
X91233898Y-83586774D01*
X91033939Y-83547000D01*
X90830061Y-83547000D01*
X90630102Y-83586774D01*
X90441744Y-83664795D01*
X90272226Y-83778063D01*
X90128063Y-83922226D01*
X90014795Y-84091744D01*
X89936774Y-84280102D01*
X89901985Y-84455001D01*
X87454583Y-84455001D01*
X87503000Y-84211592D01*
X87503000Y-83936408D01*
X87449314Y-83666510D01*
X87344005Y-83412273D01*
X87191120Y-83183465D01*
X86996535Y-82988880D01*
X86767727Y-82835995D01*
X86696057Y-82806308D01*
X86709023Y-82801636D01*
X86824980Y-82739656D01*
X86891960Y-82499565D01*
X86106000Y-81713605D01*
X86091858Y-81727748D01*
X85912253Y-81548143D01*
X85926395Y-81534000D01*
X86285605Y-81534000D01*
X87071565Y-82319960D01*
X87311656Y-82252980D01*
X87428756Y-82003952D01*
X87495023Y-81736865D01*
X87507910Y-81461983D01*
X87466922Y-81189867D01*
X87373636Y-80930977D01*
X87311656Y-80815020D01*
X87071565Y-80748040D01*
X86285605Y-81534000D01*
X85926395Y-81534000D01*
X85912253Y-81519858D01*
X86091858Y-81340253D01*
X86106000Y-81354395D01*
X86891960Y-80568435D01*
X86824980Y-80328344D01*
X86689240Y-80264515D01*
X86767727Y-80232005D01*
X86996535Y-80079120D01*
X87191120Y-79884535D01*
X87344005Y-79655727D01*
X87449314Y-79401490D01*
X87503000Y-79131592D01*
X87503000Y-78856408D01*
X87449314Y-78586510D01*
X87344005Y-78332273D01*
X87191120Y-78103465D01*
X86996535Y-77908880D01*
X86767727Y-77755995D01*
X86690485Y-77724000D01*
X86767727Y-77692005D01*
X86996535Y-77539120D01*
X87191120Y-77344535D01*
X87344005Y-77115727D01*
X87449314Y-76861490D01*
X87503000Y-76591592D01*
X87503000Y-76316408D01*
X87449314Y-76046510D01*
X87344005Y-75792273D01*
X87191120Y-75563465D01*
X86996535Y-75368880D01*
X86767727Y-75215995D01*
X86513490Y-75110686D01*
X86243592Y-75057000D01*
X85968408Y-75057000D01*
X85724999Y-75105417D01*
X85724999Y-66482631D01*
X85949558Y-66258072D01*
X87210000Y-66258072D01*
X87334482Y-66245812D01*
X87454180Y-66209502D01*
X87564494Y-66150537D01*
X87661185Y-66071185D01*
X87740537Y-65974494D01*
X87799502Y-65864180D01*
X87835812Y-65744482D01*
X87848072Y-65620000D01*
X87848072Y-63920000D01*
X87835812Y-63795518D01*
X87799502Y-63675820D01*
X87740537Y-63565506D01*
X87661185Y-63468815D01*
X87564494Y-63389463D01*
X87454180Y-63330498D01*
X87334482Y-63294188D01*
X87210000Y-63281928D01*
X85510000Y-63281928D01*
X85385518Y-63294188D01*
X85265820Y-63330498D01*
X85155506Y-63389463D01*
X85058815Y-63468815D01*
X84979463Y-63565506D01*
X84920498Y-63675820D01*
X84898487Y-63748380D01*
X84766632Y-63616525D01*
X84523411Y-63454010D01*
X84253158Y-63342068D01*
X83966260Y-63285000D01*
X83673740Y-63285000D01*
X83386842Y-63342068D01*
X83116589Y-63454010D01*
X82873368Y-63616525D01*
X82666525Y-63823368D01*
X82544805Y-64005534D01*
X82475178Y-63888645D01*
X82280269Y-63672412D01*
X82046920Y-63498359D01*
X81784099Y-63373175D01*
X81636890Y-63328524D01*
X81407000Y-63449845D01*
X81407000Y-64643000D01*
X81427000Y-64643000D01*
X81427000Y-64897000D01*
X81407000Y-64897000D01*
X81407000Y-64917000D01*
X81153000Y-64917000D01*
X81153000Y-64897000D01*
X81133000Y-64897000D01*
X81133000Y-64643000D01*
X81153000Y-64643000D01*
X81153000Y-63449845D01*
X80923110Y-63328524D01*
X80775901Y-63373175D01*
X80513080Y-63498359D01*
X80279731Y-63672412D01*
X80084822Y-63888645D01*
X80015195Y-64005534D01*
X79893475Y-63823368D01*
X79686632Y-63616525D01*
X79443411Y-63454010D01*
X79173158Y-63342068D01*
X78886260Y-63285000D01*
X78593740Y-63285000D01*
X78306842Y-63342068D01*
X78036589Y-63454010D01*
X77793368Y-63616525D01*
X77586525Y-63823368D01*
X77424010Y-64066589D01*
X77312068Y-64336842D01*
X77255000Y-64623740D01*
X77255000Y-64916260D01*
X77312068Y-65203158D01*
X77424010Y-65473411D01*
X77586525Y-65716632D01*
X77793368Y-65923475D01*
X78036589Y-66085990D01*
X78306842Y-66197932D01*
X78593740Y-66255000D01*
X78886260Y-66255000D01*
X79173158Y-66197932D01*
X79443411Y-66085990D01*
X79686632Y-65923475D01*
X79893475Y-65716632D01*
X80015195Y-65534466D01*
X80084822Y-65651355D01*
X80279731Y-65867588D01*
X80513080Y-66041641D01*
X80775901Y-66166825D01*
X80923110Y-66211476D01*
X81152998Y-66090156D01*
X81152998Y-66255000D01*
X81257370Y-66255000D01*
X78038655Y-69473715D01*
X78009579Y-69497577D01*
X77976818Y-69537497D01*
X77914356Y-69613607D01*
X77887807Y-69663277D01*
X77843599Y-69745985D01*
X77800027Y-69889622D01*
X77789217Y-69999378D01*
X77785315Y-70038999D01*
X77789001Y-70076422D01*
X77789001Y-76172300D01*
X77601486Y-76135000D01*
X77338514Y-76135000D01*
X77080595Y-76186304D01*
X76837641Y-76286939D01*
X76618987Y-76433038D01*
X76433038Y-76618987D01*
X76286939Y-76837641D01*
X76186304Y-77080595D01*
X76135000Y-77338514D01*
X76135000Y-77601486D01*
X76186304Y-77859405D01*
X76286939Y-78102359D01*
X76433038Y-78321013D01*
X76618987Y-78506962D01*
X76837641Y-78653061D01*
X77047530Y-78740000D01*
X76837641Y-78826939D01*
X76618987Y-78973038D01*
X76433038Y-79158987D01*
X76286939Y-79377641D01*
X76186304Y-79620595D01*
X76135000Y-79878514D01*
X76135000Y-80141486D01*
X76186304Y-80399405D01*
X76286939Y-80642359D01*
X76433038Y-80861013D01*
X76618987Y-81046962D01*
X76837641Y-81193061D01*
X77047530Y-81280000D01*
X76837641Y-81366939D01*
X76618987Y-81513038D01*
X76433038Y-81698987D01*
X76286939Y-81917641D01*
X76186304Y-82160595D01*
X76135000Y-82418514D01*
X76135000Y-82677370D01*
X75946000Y-82488370D01*
X75946000Y-79695711D01*
X75987937Y-79653774D01*
X76101205Y-79484256D01*
X76179226Y-79295898D01*
X76219000Y-79095939D01*
X76219000Y-78892061D01*
X76179226Y-78692102D01*
X76101205Y-78503744D01*
X75987937Y-78334226D01*
X75843774Y-78190063D01*
X75674256Y-78076795D01*
X75485898Y-77998774D01*
X75285939Y-77959000D01*
X75082061Y-77959000D01*
X74882102Y-77998774D01*
X74693744Y-78076795D01*
X74524226Y-78190063D01*
X74380063Y-78334226D01*
X74266795Y-78503744D01*
X74188774Y-78692102D01*
X74149000Y-78892061D01*
X74149000Y-79095939D01*
X74188774Y-79295898D01*
X74266795Y-79484256D01*
X74380063Y-79653774D01*
X74422000Y-79695711D01*
X74422001Y-82766567D01*
X74418314Y-82804000D01*
X74433027Y-82953378D01*
X74476599Y-83097015D01*
X74547355Y-83229392D01*
X74618175Y-83315686D01*
X74642579Y-83345422D01*
X74671649Y-83369279D01*
X76155886Y-84853516D01*
X76135000Y-84958514D01*
X76135000Y-85221486D01*
X76186304Y-85479405D01*
X76286939Y-85722359D01*
X76433038Y-85941013D01*
X76618987Y-86126962D01*
X76837641Y-86273061D01*
X77047530Y-86360000D01*
X76837641Y-86446939D01*
X76618987Y-86593038D01*
X76433038Y-86778987D01*
X76286939Y-86997641D01*
X76186304Y-87240595D01*
X76135000Y-87498514D01*
X76135000Y-87761486D01*
X76186304Y-88019405D01*
X76286939Y-88262359D01*
X76433038Y-88481013D01*
X76618987Y-88666962D01*
X76837641Y-88813061D01*
X77047530Y-88900000D01*
X76837641Y-88986939D01*
X76618987Y-89133038D01*
X76433038Y-89318987D01*
X76286939Y-89537641D01*
X76186304Y-89780595D01*
X76135000Y-90038514D01*
X76135000Y-90301486D01*
X76186304Y-90559405D01*
X76286939Y-90802359D01*
X76433038Y-91021013D01*
X76618987Y-91206962D01*
X76837641Y-91353061D01*
X77051444Y-91441621D01*
X76888634Y-91501065D01*
X76787797Y-91554963D01*
X76728336Y-91788731D01*
X77470000Y-92530395D01*
X78211664Y-91788731D01*
X78152203Y-91554963D01*
X77913758Y-91444066D01*
X77894173Y-91439294D01*
X78102359Y-91353061D01*
X78321013Y-91206962D01*
X78506962Y-91021013D01*
X78653061Y-90802359D01*
X78740000Y-90592470D01*
X78826939Y-90802359D01*
X78973038Y-91021013D01*
X79158987Y-91206962D01*
X79377641Y-91353061D01*
X79587530Y-91440000D01*
X79377641Y-91526939D01*
X79158987Y-91673038D01*
X78973038Y-91858987D01*
X78826939Y-92077641D01*
X78738379Y-92291444D01*
X78678935Y-92128634D01*
X78625037Y-92027797D01*
X78391269Y-91968336D01*
X77649605Y-92710000D01*
X78391269Y-93451664D01*
X78625037Y-93392203D01*
X78735934Y-93153758D01*
X78740706Y-93134173D01*
X78826939Y-93342359D01*
X78973038Y-93561013D01*
X79158987Y-93746962D01*
X79377641Y-93893061D01*
X79587530Y-93980000D01*
X79377641Y-94066939D01*
X79158987Y-94213038D01*
X78973038Y-94398987D01*
X78826939Y-94617641D01*
X78740000Y-94827530D01*
X78653061Y-94617641D01*
X78506962Y-94398987D01*
X78321013Y-94213038D01*
X78102359Y-94066939D01*
X77888556Y-93978379D01*
X78051366Y-93918935D01*
X78152203Y-93865037D01*
X78211664Y-93631269D01*
X77470000Y-92889605D01*
X76728336Y-93631269D01*
X76787797Y-93865037D01*
X77026242Y-93975934D01*
X77045827Y-93980706D01*
X76837641Y-94066939D01*
X76618987Y-94213038D01*
X76433038Y-94398987D01*
X76286939Y-94617641D01*
X76186304Y-94860595D01*
X76135000Y-95118514D01*
X76135000Y-95381486D01*
X76186304Y-95639405D01*
X76286939Y-95882359D01*
X76433038Y-96101013D01*
X76618987Y-96286962D01*
X76837641Y-96433061D01*
X77047530Y-96520000D01*
X76837641Y-96606939D01*
X76618987Y-96753038D01*
X76433038Y-96938987D01*
X76373562Y-97028000D01*
X75631711Y-97028000D01*
X75589774Y-96986063D01*
X75420256Y-96872795D01*
X75231898Y-96794774D01*
X75031939Y-96755000D01*
X74828061Y-96755000D01*
X74628102Y-96794774D01*
X74612500Y-96801237D01*
X74612500Y-92784473D01*
X76130610Y-92784473D01*
X76170875Y-93044344D01*
X76261065Y-93291366D01*
X76314963Y-93392203D01*
X76548731Y-93451664D01*
X77290395Y-92710000D01*
X76548731Y-91968336D01*
X76314963Y-92027797D01*
X76204066Y-92266242D01*
X76141817Y-92521740D01*
X76130610Y-92784473D01*
X74612500Y-92784473D01*
X74612500Y-90575047D01*
X74655226Y-90471898D01*
X74695000Y-90271939D01*
X74695000Y-90068061D01*
X74655226Y-89868102D01*
X74577205Y-89679744D01*
X74463937Y-89510226D01*
X74319774Y-89366063D01*
X74150256Y-89252795D01*
X73961898Y-89174774D01*
X73761939Y-89135000D01*
X73558061Y-89135000D01*
X73358102Y-89174774D01*
X73254953Y-89217500D01*
X72989802Y-89217500D01*
X72978472Y-89180149D01*
X72896405Y-89026613D01*
X72785962Y-88892038D01*
X72651387Y-88781595D01*
X72497851Y-88699528D01*
X72331255Y-88648992D01*
X72158001Y-88631928D01*
X71507999Y-88631928D01*
X71334745Y-88648992D01*
X71168149Y-88699528D01*
X71014613Y-88781595D01*
X70880038Y-88892038D01*
X70769595Y-89026613D01*
X70687528Y-89180149D01*
X70636992Y-89346745D01*
X70619928Y-89519999D01*
X70619928Y-90820001D01*
X70636992Y-90993255D01*
X70687528Y-91159851D01*
X70769595Y-91313387D01*
X70880038Y-91447962D01*
X71014613Y-91558405D01*
X71168149Y-91640472D01*
X71334745Y-91691008D01*
X71507999Y-91708072D01*
X72158001Y-91708072D01*
X72331255Y-91691008D01*
X72497851Y-91640472D01*
X72651387Y-91558405D01*
X72707501Y-91512353D01*
X72707500Y-103745461D01*
X71995462Y-104457500D01*
X69568763Y-104457500D01*
X69575226Y-104441898D01*
X69615000Y-104241939D01*
X69615000Y-104038061D01*
X69575226Y-103838102D01*
X69529650Y-103728072D01*
X69840000Y-103728072D01*
X69964482Y-103715812D01*
X70084180Y-103679502D01*
X70194494Y-103620537D01*
X70291185Y-103541185D01*
X70370537Y-103444494D01*
X70429502Y-103334180D01*
X70465812Y-103214482D01*
X70478072Y-103090000D01*
X70478072Y-102090000D01*
X70465812Y-101965518D01*
X70429502Y-101845820D01*
X70370537Y-101735506D01*
X70291185Y-101638815D01*
X70194494Y-101559463D01*
X70084180Y-101500498D01*
X69964482Y-101464188D01*
X69840000Y-101451928D01*
X69340000Y-101451928D01*
X69215518Y-101464188D01*
X69095820Y-101500498D01*
X69040000Y-101530335D01*
X68984180Y-101500498D01*
X68864482Y-101464188D01*
X68740000Y-101451928D01*
X68240000Y-101451928D01*
X68115518Y-101464188D01*
X67995820Y-101500498D01*
X67940000Y-101530335D01*
X67884180Y-101500498D01*
X67764482Y-101464188D01*
X67640000Y-101451928D01*
X67140000Y-101451928D01*
X67015518Y-101464188D01*
X66895820Y-101500498D01*
X66840000Y-101530335D01*
X66784180Y-101500498D01*
X66664482Y-101464188D01*
X66540000Y-101451928D01*
X66040000Y-101451928D01*
X65952000Y-101460595D01*
X65952000Y-99180000D01*
X70201928Y-99180000D01*
X70214188Y-99304482D01*
X70250498Y-99424180D01*
X70309463Y-99534494D01*
X70351928Y-99586238D01*
X70351928Y-100300000D01*
X70364188Y-100424482D01*
X70400498Y-100544180D01*
X70459463Y-100654494D01*
X70538815Y-100751185D01*
X70635506Y-100830537D01*
X70745820Y-100889502D01*
X70865518Y-100925812D01*
X70990000Y-100938072D01*
X71710000Y-100938072D01*
X71834482Y-100925812D01*
X71954180Y-100889502D01*
X72064494Y-100830537D01*
X72161185Y-100751185D01*
X72240537Y-100654494D01*
X72299502Y-100544180D01*
X72335812Y-100424482D01*
X72348072Y-100300000D01*
X72348072Y-99622793D01*
X72420537Y-99534494D01*
X72479502Y-99424180D01*
X72515812Y-99304482D01*
X72528072Y-99180000D01*
X72525000Y-98925750D01*
X72366250Y-98767000D01*
X71492000Y-98767000D01*
X71492000Y-98787000D01*
X71238000Y-98787000D01*
X71238000Y-98767000D01*
X70363750Y-98767000D01*
X70205000Y-98925750D01*
X70201928Y-99180000D01*
X65952000Y-99180000D01*
X65952000Y-99162225D01*
X65955686Y-99124802D01*
X65950738Y-99074567D01*
X65940974Y-98975424D01*
X65897402Y-98831787D01*
X65855417Y-98753238D01*
X65826645Y-98699409D01*
X65778720Y-98641013D01*
X65731422Y-98583380D01*
X65702346Y-98559518D01*
X65242828Y-98100000D01*
X70201928Y-98100000D01*
X70205000Y-98354250D01*
X70363750Y-98513000D01*
X71238000Y-98513000D01*
X71238000Y-97623750D01*
X71492000Y-97623750D01*
X71492000Y-98513000D01*
X72366250Y-98513000D01*
X72525000Y-98354250D01*
X72528072Y-98100000D01*
X72515812Y-97975518D01*
X72479502Y-97855820D01*
X72420537Y-97745506D01*
X72341185Y-97648815D01*
X72244494Y-97569463D01*
X72134180Y-97510498D01*
X72014482Y-97474188D01*
X71890000Y-97461928D01*
X71650750Y-97465000D01*
X71492000Y-97623750D01*
X71238000Y-97623750D01*
X71079250Y-97465000D01*
X70840000Y-97461928D01*
X70715518Y-97474188D01*
X70595820Y-97510498D01*
X70485506Y-97569463D01*
X70388815Y-97648815D01*
X70309463Y-97745506D01*
X70250498Y-97855820D01*
X70214188Y-97975518D01*
X70201928Y-98100000D01*
X65242828Y-98100000D01*
X63772828Y-96630000D01*
X70201928Y-96630000D01*
X70214188Y-96754482D01*
X70250498Y-96874180D01*
X70309463Y-96984494D01*
X70388815Y-97081185D01*
X70485506Y-97160537D01*
X70595820Y-97219502D01*
X70715518Y-97255812D01*
X70840000Y-97268072D01*
X71079250Y-97265000D01*
X71238000Y-97106250D01*
X71238000Y-96157000D01*
X71492000Y-96157000D01*
X71492000Y-97106250D01*
X71650750Y-97265000D01*
X71890000Y-97268072D01*
X72014482Y-97255812D01*
X72134180Y-97219502D01*
X72244494Y-97160537D01*
X72341185Y-97081185D01*
X72420537Y-96984494D01*
X72479502Y-96874180D01*
X72515812Y-96754482D01*
X72528072Y-96630000D01*
X72525000Y-96315750D01*
X72366250Y-96157000D01*
X71492000Y-96157000D01*
X71238000Y-96157000D01*
X70363750Y-96157000D01*
X70205000Y-96315750D01*
X70201928Y-96630000D01*
X63772828Y-96630000D01*
X63410900Y-96268072D01*
X65291000Y-96268072D01*
X65415482Y-96255812D01*
X65535180Y-96219502D01*
X65645494Y-96160537D01*
X65742185Y-96081185D01*
X65821537Y-95984494D01*
X65880502Y-95874180D01*
X65916812Y-95754482D01*
X65929072Y-95630000D01*
X65929072Y-95080000D01*
X65932928Y-95080000D01*
X65932928Y-95630000D01*
X65945188Y-95754482D01*
X65981498Y-95874180D01*
X66040463Y-95984494D01*
X66119815Y-96081185D01*
X66216506Y-96160537D01*
X66326820Y-96219502D01*
X66446518Y-96255812D01*
X66571000Y-96268072D01*
X69481000Y-96268072D01*
X69605482Y-96255812D01*
X69725180Y-96219502D01*
X69835494Y-96160537D01*
X69932185Y-96081185D01*
X70011537Y-95984494D01*
X70070502Y-95874180D01*
X70106812Y-95754482D01*
X70119072Y-95630000D01*
X70119072Y-95430000D01*
X70201928Y-95430000D01*
X70205000Y-95744250D01*
X70363750Y-95903000D01*
X71238000Y-95903000D01*
X71238000Y-94953750D01*
X71492000Y-94953750D01*
X71492000Y-95903000D01*
X72366250Y-95903000D01*
X72525000Y-95744250D01*
X72528072Y-95430000D01*
X72515812Y-95305518D01*
X72479502Y-95185820D01*
X72420537Y-95075506D01*
X72341185Y-94978815D01*
X72244494Y-94899463D01*
X72134180Y-94840498D01*
X72014482Y-94804188D01*
X71890000Y-94791928D01*
X71650750Y-94795000D01*
X71492000Y-94953750D01*
X71238000Y-94953750D01*
X71079250Y-94795000D01*
X70840000Y-94791928D01*
X70715518Y-94804188D01*
X70595820Y-94840498D01*
X70485506Y-94899463D01*
X70388815Y-94978815D01*
X70309463Y-95075506D01*
X70250498Y-95185820D01*
X70214188Y-95305518D01*
X70201928Y-95430000D01*
X70119072Y-95430000D01*
X70119072Y-95080000D01*
X70106812Y-94955518D01*
X70070502Y-94835820D01*
X70011537Y-94725506D01*
X69932185Y-94628815D01*
X69835494Y-94549463D01*
X69725180Y-94490498D01*
X69605482Y-94454188D01*
X69481000Y-94441928D01*
X66571000Y-94441928D01*
X66446518Y-94454188D01*
X66326820Y-94490498D01*
X66216506Y-94549463D01*
X66119815Y-94628815D01*
X66040463Y-94725506D01*
X65981498Y-94835820D01*
X65945188Y-94955518D01*
X65932928Y-95080000D01*
X65929072Y-95080000D01*
X65916812Y-94955518D01*
X65880502Y-94835820D01*
X65821537Y-94725506D01*
X65742185Y-94628815D01*
X65645494Y-94549463D01*
X65535180Y-94490498D01*
X65415482Y-94454188D01*
X65291000Y-94441928D01*
X62381000Y-94441928D01*
X62256518Y-94454188D01*
X62136820Y-94490498D01*
X62026506Y-94549463D01*
X61929815Y-94628815D01*
X61858518Y-94715690D01*
X58212828Y-91070000D01*
X67669928Y-91070000D01*
X67682188Y-91194482D01*
X67718498Y-91314180D01*
X67777463Y-91424494D01*
X67856815Y-91521185D01*
X67953506Y-91600537D01*
X68063820Y-91659502D01*
X68183518Y-91695812D01*
X68308000Y-91708072D01*
X68597250Y-91705000D01*
X68756000Y-91546250D01*
X68756000Y-90297000D01*
X69010000Y-90297000D01*
X69010000Y-91546250D01*
X69168750Y-91705000D01*
X69458000Y-91708072D01*
X69582482Y-91695812D01*
X69702180Y-91659502D01*
X69812494Y-91600537D01*
X69909185Y-91521185D01*
X69988537Y-91424494D01*
X70047502Y-91314180D01*
X70083812Y-91194482D01*
X70096072Y-91070000D01*
X70093000Y-90455750D01*
X69934250Y-90297000D01*
X69010000Y-90297000D01*
X68756000Y-90297000D01*
X67831750Y-90297000D01*
X67673000Y-90455750D01*
X67669928Y-91070000D01*
X58212828Y-91070000D01*
X57850021Y-90707193D01*
X57850021Y-89270000D01*
X67669928Y-89270000D01*
X67673000Y-89884250D01*
X67831750Y-90043000D01*
X68756000Y-90043000D01*
X68756000Y-88793750D01*
X69010000Y-88793750D01*
X69010000Y-90043000D01*
X69934250Y-90043000D01*
X70093000Y-89884250D01*
X70096072Y-89270000D01*
X70083812Y-89145518D01*
X70047502Y-89025820D01*
X69988537Y-88915506D01*
X69909185Y-88818815D01*
X69812494Y-88739463D01*
X69702180Y-88680498D01*
X69582482Y-88644188D01*
X69458000Y-88631928D01*
X69168750Y-88635000D01*
X69010000Y-88793750D01*
X68756000Y-88793750D01*
X68597250Y-88635000D01*
X68308000Y-88631928D01*
X68183518Y-88644188D01*
X68063820Y-88680498D01*
X67953506Y-88739463D01*
X67856815Y-88818815D01*
X67777463Y-88915506D01*
X67718498Y-89025820D01*
X67682188Y-89145518D01*
X67669928Y-89270000D01*
X57850021Y-89270000D01*
X57850021Y-87605444D01*
X57853707Y-87568021D01*
X57845099Y-87480622D01*
X57838995Y-87418643D01*
X57795423Y-87275006D01*
X57762486Y-87213385D01*
X57724666Y-87142628D01*
X57653300Y-87055669D01*
X57629443Y-87026599D01*
X57600373Y-87002742D01*
X55924114Y-85326484D01*
X55945000Y-85221486D01*
X55945000Y-84958514D01*
X55893696Y-84700595D01*
X55793061Y-84457641D01*
X55646962Y-84238987D01*
X55461013Y-84053038D01*
X55242359Y-83906939D01*
X55032470Y-83820000D01*
X55242359Y-83733061D01*
X55461013Y-83586962D01*
X55646962Y-83401013D01*
X55793061Y-83182359D01*
X55893696Y-82939405D01*
X55945000Y-82681486D01*
X55945000Y-82418514D01*
X55924114Y-82313516D01*
X56203354Y-82034277D01*
X56232423Y-82010421D01*
X56327646Y-81894391D01*
X56398403Y-81762014D01*
X56441975Y-81618377D01*
X56453001Y-81506425D01*
X56453001Y-81506423D01*
X56456687Y-81469000D01*
X56453001Y-81431577D01*
X56453001Y-76240924D01*
X56456687Y-76203501D01*
X56453001Y-76166075D01*
X56441975Y-76054123D01*
X56398403Y-75910486D01*
X56335217Y-75792273D01*
X56327646Y-75778108D01*
X56292858Y-75735720D01*
X56232423Y-75662079D01*
X56203347Y-75638217D01*
X53764549Y-73199419D01*
X53775572Y-73087503D01*
X53775572Y-72462497D01*
X53758508Y-72289243D01*
X53707972Y-72122648D01*
X53625905Y-71969112D01*
X53515463Y-71834537D01*
X53380888Y-71724095D01*
X53227352Y-71642028D01*
X53060757Y-71591492D01*
X52887503Y-71574428D01*
X51637497Y-71574428D01*
X51464243Y-71591492D01*
X51297648Y-71642028D01*
X51144112Y-71724095D01*
X51009537Y-71834537D01*
X50899095Y-71969112D01*
X50817028Y-72122648D01*
X50766492Y-72289243D01*
X50749428Y-72462497D01*
X50749428Y-73087503D01*
X50766492Y-73260757D01*
X50817028Y-73427352D01*
X50899095Y-73580888D01*
X51009537Y-73715463D01*
X51144112Y-73825905D01*
X51297648Y-73907972D01*
X51464243Y-73958508D01*
X51637497Y-73975572D01*
X52385442Y-73975572D01*
X54544870Y-76135000D01*
X54478514Y-76135000D01*
X54220595Y-76186304D01*
X53977641Y-76286939D01*
X53758987Y-76433038D01*
X53573038Y-76618987D01*
X53426939Y-76837641D01*
X53338379Y-77051444D01*
X53278935Y-76888634D01*
X53225037Y-76787797D01*
X52991269Y-76728336D01*
X52249605Y-77470000D01*
X52991269Y-78211664D01*
X53225037Y-78152203D01*
X53335934Y-77913758D01*
X53340706Y-77894173D01*
X53426939Y-78102359D01*
X53573038Y-78321013D01*
X53758987Y-78506962D01*
X53977641Y-78653061D01*
X54187530Y-78740000D01*
X53977641Y-78826939D01*
X53758987Y-78973038D01*
X53573038Y-79158987D01*
X53426939Y-79377641D01*
X53340000Y-79587530D01*
X53253061Y-79377641D01*
X53106962Y-79158987D01*
X52921013Y-78973038D01*
X52702359Y-78826939D01*
X52488556Y-78738379D01*
X52651366Y-78678935D01*
X52752203Y-78625037D01*
X52811664Y-78391269D01*
X52070000Y-77649605D01*
X51328336Y-78391269D01*
X51387797Y-78625037D01*
X51626242Y-78735934D01*
X51645827Y-78740706D01*
X51437641Y-78826939D01*
X51218987Y-78973038D01*
X51033038Y-79158987D01*
X50886939Y-79377641D01*
X50786304Y-79620595D01*
X50735000Y-79878514D01*
X50735000Y-80137370D01*
X50095284Y-79497654D01*
X50071422Y-79468578D01*
X49955392Y-79373355D01*
X49823015Y-79302598D01*
X49679378Y-79259026D01*
X49567426Y-79248000D01*
X49567423Y-79248000D01*
X49530000Y-79244314D01*
X49492577Y-79248000D01*
X48266842Y-79248000D01*
X48143475Y-79063368D01*
X47936632Y-78856525D01*
X47693411Y-78694010D01*
X47423158Y-78582068D01*
X47136260Y-78525000D01*
X46843740Y-78525000D01*
X46556842Y-78582068D01*
X46286589Y-78694010D01*
X46043368Y-78856525D01*
X45836525Y-79063368D01*
X45674010Y-79306589D01*
X45562068Y-79576842D01*
X45505000Y-79863740D01*
X45505000Y-80156260D01*
X45562068Y-80443158D01*
X45674010Y-80713411D01*
X45836525Y-80956632D01*
X45968380Y-81088487D01*
X45895820Y-81110498D01*
X45785506Y-81169463D01*
X45688815Y-81248815D01*
X45609463Y-81345506D01*
X45550498Y-81455820D01*
X45514188Y-81575518D01*
X45501928Y-81700000D01*
X45505000Y-82264250D01*
X45663750Y-82423000D01*
X46863000Y-82423000D01*
X46863000Y-82403000D01*
X47117000Y-82403000D01*
X47117000Y-82423000D01*
X48316250Y-82423000D01*
X48475000Y-82264250D01*
X48478072Y-81700000D01*
X48465812Y-81575518D01*
X48429502Y-81455820D01*
X48370537Y-81345506D01*
X48291185Y-81248815D01*
X48194494Y-81169463D01*
X48084180Y-81110498D01*
X48011620Y-81088487D01*
X48143475Y-80956632D01*
X48266842Y-80772000D01*
X49214370Y-80772000D01*
X50755886Y-82313516D01*
X50735000Y-82418514D01*
X50735000Y-82681486D01*
X50786304Y-82939405D01*
X50886939Y-83182359D01*
X51033038Y-83401013D01*
X51218987Y-83586962D01*
X51437641Y-83733061D01*
X51647530Y-83820000D01*
X51437641Y-83906939D01*
X51218987Y-84053038D01*
X51033038Y-84238987D01*
X50886939Y-84457641D01*
X50786304Y-84700595D01*
X50735000Y-84958514D01*
X50735000Y-85221486D01*
X50755886Y-85326484D01*
X49214370Y-86868000D01*
X48266842Y-86868000D01*
X48143475Y-86683368D01*
X47936632Y-86476525D01*
X47693411Y-86314010D01*
X47423158Y-86202068D01*
X47136260Y-86145000D01*
X46843740Y-86145000D01*
X46556842Y-86202068D01*
X46286589Y-86314010D01*
X46043368Y-86476525D01*
X45836525Y-86683368D01*
X45674010Y-86926589D01*
X45562068Y-87196842D01*
X45505000Y-87483740D01*
X45505000Y-87776260D01*
X45562068Y-88063158D01*
X45674010Y-88333411D01*
X45836525Y-88576632D01*
X45968380Y-88708487D01*
X45895820Y-88730498D01*
X45785506Y-88789463D01*
X45688815Y-88868815D01*
X45609463Y-88965506D01*
X45550498Y-89075820D01*
X45514188Y-89195518D01*
X45501928Y-89320000D01*
X45505000Y-89884250D01*
X45663750Y-90043000D01*
X46863000Y-90043000D01*
X46863000Y-90023000D01*
X47117000Y-90023000D01*
X47117000Y-90043000D01*
X48316250Y-90043000D01*
X48475000Y-89884250D01*
X48478072Y-89320000D01*
X48465812Y-89195518D01*
X48429502Y-89075820D01*
X48370537Y-88965506D01*
X48291185Y-88868815D01*
X48194494Y-88789463D01*
X48084180Y-88730498D01*
X48011620Y-88708487D01*
X48143475Y-88576632D01*
X48266842Y-88392000D01*
X49492577Y-88392000D01*
X49530000Y-88395686D01*
X49567423Y-88392000D01*
X49567426Y-88392000D01*
X49679378Y-88380974D01*
X49823015Y-88337402D01*
X49955392Y-88266645D01*
X50071422Y-88171422D01*
X50095284Y-88142346D01*
X50735000Y-87502630D01*
X50735000Y-87761486D01*
X50786304Y-88019405D01*
X50886939Y-88262359D01*
X51033038Y-88481013D01*
X51218987Y-88666962D01*
X51437641Y-88813061D01*
X51647530Y-88900000D01*
X51437641Y-88986939D01*
X51218987Y-89133038D01*
X51033038Y-89318987D01*
X50886939Y-89537641D01*
X50786304Y-89780595D01*
X50735000Y-90038514D01*
X50735000Y-90301486D01*
X50755886Y-90406484D01*
X47354049Y-93808321D01*
X47136260Y-93765000D01*
X46843740Y-93765000D01*
X46556842Y-93822068D01*
X46286589Y-93934010D01*
X46043368Y-94096525D01*
X45836525Y-94303368D01*
X45674010Y-94546589D01*
X45562068Y-94816842D01*
X45505000Y-95103740D01*
X45505000Y-95396260D01*
X45562068Y-95683158D01*
X45674010Y-95953411D01*
X45836525Y-96196632D01*
X45968380Y-96328487D01*
X45895820Y-96350498D01*
X45785506Y-96409463D01*
X45688815Y-96488815D01*
X45609463Y-96585506D01*
X45550498Y-96695820D01*
X45514188Y-96815518D01*
X45501928Y-96940000D01*
X45505000Y-97504250D01*
X45663750Y-97663000D01*
X46863000Y-97663000D01*
X46863000Y-97643000D01*
X47117000Y-97643000D01*
X47117000Y-97663000D01*
X48316250Y-97663000D01*
X48475000Y-97504250D01*
X48478072Y-96940000D01*
X48465812Y-96815518D01*
X48429502Y-96695820D01*
X48370537Y-96585506D01*
X48291185Y-96488815D01*
X48194494Y-96409463D01*
X48084180Y-96350498D01*
X48011620Y-96328487D01*
X48143475Y-96196632D01*
X48305990Y-95953411D01*
X48417932Y-95683158D01*
X48475000Y-95396260D01*
X48475000Y-95103740D01*
X48431679Y-94885951D01*
X50735000Y-92582631D01*
X50735000Y-92841486D01*
X50786304Y-93099405D01*
X50886939Y-93342359D01*
X51033038Y-93561013D01*
X51059077Y-93587052D01*
X51009697Y-93627577D01*
X50985835Y-93656653D01*
X50476653Y-94165835D01*
X50447577Y-94189697D01*
X50411219Y-94234000D01*
X50352354Y-94305727D01*
X50325333Y-94356280D01*
X50281597Y-94438105D01*
X50238025Y-94581742D01*
X50233389Y-94628815D01*
X50223313Y-94731119D01*
X50226999Y-94768542D01*
X50227000Y-100811448D01*
X50223313Y-100848881D01*
X50238026Y-100998259D01*
X50281598Y-101141896D01*
X50352354Y-101274273D01*
X50401777Y-101334494D01*
X50447578Y-101390303D01*
X50476648Y-101414160D01*
X56352487Y-107290000D01*
X47022279Y-107290000D01*
X46378779Y-107226904D01*
X45790836Y-107049394D01*
X45248564Y-106761063D01*
X44772636Y-106372906D01*
X44381155Y-105899686D01*
X44089050Y-105359449D01*
X43907437Y-104772756D01*
X43840000Y-104131130D01*
X43840000Y-103919872D01*
X44755000Y-103919872D01*
X44755000Y-104360128D01*
X44840890Y-104791925D01*
X45009369Y-105198669D01*
X45253962Y-105564729D01*
X45565271Y-105876038D01*
X45931331Y-106120631D01*
X46338075Y-106289110D01*
X46769872Y-106375000D01*
X47210128Y-106375000D01*
X47641925Y-106289110D01*
X48048669Y-106120631D01*
X48414729Y-105876038D01*
X48726038Y-105564729D01*
X48970631Y-105198669D01*
X49139110Y-104791925D01*
X49225000Y-104360128D01*
X49225000Y-103919872D01*
X49139110Y-103488075D01*
X48970631Y-103081331D01*
X48726038Y-102715271D01*
X48414729Y-102403962D01*
X48048669Y-102159369D01*
X47641925Y-101990890D01*
X47210128Y-101905000D01*
X46769872Y-101905000D01*
X46338075Y-101990890D01*
X45931331Y-102159369D01*
X45565271Y-102403962D01*
X45253962Y-102715271D01*
X45009369Y-103081331D01*
X44840890Y-103488075D01*
X44755000Y-103919872D01*
X43840000Y-103919872D01*
X43840000Y-98640000D01*
X45501928Y-98640000D01*
X45514188Y-98764482D01*
X45550498Y-98884180D01*
X45609463Y-98994494D01*
X45688815Y-99091185D01*
X45785506Y-99170537D01*
X45895820Y-99229502D01*
X46015518Y-99265812D01*
X46140000Y-99278072D01*
X46704250Y-99275000D01*
X46863000Y-99116250D01*
X46863000Y-97917000D01*
X47117000Y-97917000D01*
X47117000Y-99116250D01*
X47275750Y-99275000D01*
X47840000Y-99278072D01*
X47964482Y-99265812D01*
X48084180Y-99229502D01*
X48194494Y-99170537D01*
X48291185Y-99091185D01*
X48370537Y-98994494D01*
X48429502Y-98884180D01*
X48465812Y-98764482D01*
X48478072Y-98640000D01*
X48475000Y-98075750D01*
X48316250Y-97917000D01*
X47117000Y-97917000D01*
X46863000Y-97917000D01*
X45663750Y-97917000D01*
X45505000Y-98075750D01*
X45501928Y-98640000D01*
X43840000Y-98640000D01*
X43840000Y-91020000D01*
X45501928Y-91020000D01*
X45514188Y-91144482D01*
X45550498Y-91264180D01*
X45609463Y-91374494D01*
X45688815Y-91471185D01*
X45785506Y-91550537D01*
X45895820Y-91609502D01*
X46015518Y-91645812D01*
X46140000Y-91658072D01*
X46704250Y-91655000D01*
X46863000Y-91496250D01*
X46863000Y-90297000D01*
X47117000Y-90297000D01*
X47117000Y-91496250D01*
X47275750Y-91655000D01*
X47840000Y-91658072D01*
X47964482Y-91645812D01*
X48084180Y-91609502D01*
X48194494Y-91550537D01*
X48291185Y-91471185D01*
X48370537Y-91374494D01*
X48429502Y-91264180D01*
X48465812Y-91144482D01*
X48478072Y-91020000D01*
X48475000Y-90455750D01*
X48316250Y-90297000D01*
X47117000Y-90297000D01*
X46863000Y-90297000D01*
X45663750Y-90297000D01*
X45505000Y-90455750D01*
X45501928Y-91020000D01*
X43840000Y-91020000D01*
X43840000Y-83400000D01*
X45501928Y-83400000D01*
X45514188Y-83524482D01*
X45550498Y-83644180D01*
X45609463Y-83754494D01*
X45688815Y-83851185D01*
X45785506Y-83930537D01*
X45895820Y-83989502D01*
X46015518Y-84025812D01*
X46140000Y-84038072D01*
X46704250Y-84035000D01*
X46863000Y-83876250D01*
X46863000Y-82677000D01*
X47117000Y-82677000D01*
X47117000Y-83876250D01*
X47275750Y-84035000D01*
X47840000Y-84038072D01*
X47964482Y-84025812D01*
X48084180Y-83989502D01*
X48194494Y-83930537D01*
X48291185Y-83851185D01*
X48370537Y-83754494D01*
X48429502Y-83644180D01*
X48465812Y-83524482D01*
X48478072Y-83400000D01*
X48475000Y-82835750D01*
X48316250Y-82677000D01*
X47117000Y-82677000D01*
X46863000Y-82677000D01*
X45663750Y-82677000D01*
X45505000Y-82835750D01*
X45501928Y-83400000D01*
X43840000Y-83400000D01*
X43840000Y-77544473D01*
X50730610Y-77544473D01*
X50770875Y-77804344D01*
X50861065Y-78051366D01*
X50914963Y-78152203D01*
X51148731Y-78211664D01*
X51890395Y-77470000D01*
X51148731Y-76728336D01*
X50914963Y-76787797D01*
X50804066Y-77026242D01*
X50741817Y-77281740D01*
X50730610Y-77544473D01*
X43840000Y-77544473D01*
X43840000Y-76548731D01*
X51328336Y-76548731D01*
X52070000Y-77290395D01*
X52811664Y-76548731D01*
X52752203Y-76314963D01*
X52513758Y-76204066D01*
X52258260Y-76141817D01*
X51995527Y-76130610D01*
X51735656Y-76170875D01*
X51488634Y-76261065D01*
X51387797Y-76314963D01*
X51328336Y-76548731D01*
X43840000Y-76548731D01*
X43840000Y-72478000D01*
X45501928Y-72478000D01*
X45514188Y-72602482D01*
X45550498Y-72722180D01*
X45609463Y-72832494D01*
X45688815Y-72929185D01*
X45785506Y-73008537D01*
X45895820Y-73067502D01*
X45968380Y-73089513D01*
X45836525Y-73221368D01*
X45674010Y-73464589D01*
X45562068Y-73734842D01*
X45505000Y-74021740D01*
X45505000Y-74314260D01*
X45562068Y-74601158D01*
X45674010Y-74871411D01*
X45836525Y-75114632D01*
X46043368Y-75321475D01*
X46286589Y-75483990D01*
X46556842Y-75595932D01*
X46843740Y-75653000D01*
X47136260Y-75653000D01*
X47423158Y-75595932D01*
X47693411Y-75483990D01*
X47936632Y-75321475D01*
X48143475Y-75114632D01*
X48305990Y-74871411D01*
X48417932Y-74601158D01*
X48475000Y-74314260D01*
X48475000Y-74021740D01*
X48417932Y-73734842D01*
X48305990Y-73464589D01*
X48143475Y-73221368D01*
X48011620Y-73089513D01*
X48084180Y-73067502D01*
X48194494Y-73008537D01*
X48291185Y-72929185D01*
X48370537Y-72832494D01*
X48429502Y-72722180D01*
X48465812Y-72602482D01*
X48478072Y-72478000D01*
X48475000Y-71913750D01*
X48316250Y-71755000D01*
X47117000Y-71755000D01*
X47117000Y-71775000D01*
X46863000Y-71775000D01*
X46863000Y-71755000D01*
X45663750Y-71755000D01*
X45505000Y-71913750D01*
X45501928Y-72478000D01*
X43840000Y-72478000D01*
X43840000Y-70778000D01*
X45501928Y-70778000D01*
X45505000Y-71342250D01*
X45663750Y-71501000D01*
X46863000Y-71501000D01*
X46863000Y-70301750D01*
X47117000Y-70301750D01*
X47117000Y-71501000D01*
X48316250Y-71501000D01*
X48475000Y-71342250D01*
X48478072Y-70778000D01*
X48465812Y-70653518D01*
X48429502Y-70533820D01*
X48370537Y-70423506D01*
X48291185Y-70326815D01*
X48194494Y-70247463D01*
X48084180Y-70188498D01*
X47964482Y-70152188D01*
X47840000Y-70139928D01*
X47275750Y-70143000D01*
X47117000Y-70301750D01*
X46863000Y-70301750D01*
X46704250Y-70143000D01*
X46140000Y-70139928D01*
X46015518Y-70152188D01*
X45895820Y-70188498D01*
X45785506Y-70247463D01*
X45688815Y-70326815D01*
X45609463Y-70423506D01*
X45550498Y-70533820D01*
X45514188Y-70653518D01*
X45501928Y-70778000D01*
X43840000Y-70778000D01*
X43840000Y-69537497D01*
X50749428Y-69537497D01*
X50749428Y-70162503D01*
X50766492Y-70335757D01*
X50817028Y-70502352D01*
X50899095Y-70655888D01*
X51009537Y-70790463D01*
X51144112Y-70900905D01*
X51297648Y-70982972D01*
X51464243Y-71033508D01*
X51637497Y-71050572D01*
X52887503Y-71050572D01*
X53060757Y-71033508D01*
X53227352Y-70982972D01*
X53380888Y-70900905D01*
X53515463Y-70790463D01*
X53625905Y-70655888D01*
X53707972Y-70502352D01*
X53758508Y-70335757D01*
X53775572Y-70162503D01*
X53775572Y-69537497D01*
X53758508Y-69364243D01*
X53707972Y-69197648D01*
X53625905Y-69044112D01*
X53515463Y-68909537D01*
X53380888Y-68799095D01*
X53227352Y-68717028D01*
X53060757Y-68666492D01*
X53024500Y-68662921D01*
X53024500Y-67496795D01*
X53034482Y-67495812D01*
X53154180Y-67459502D01*
X53264494Y-67400537D01*
X53361185Y-67321185D01*
X53440537Y-67224494D01*
X53499502Y-67114180D01*
X53535812Y-66994482D01*
X53548072Y-66870000D01*
X53548072Y-65870000D01*
X55671928Y-65870000D01*
X55671928Y-66870000D01*
X55684188Y-66994482D01*
X55720498Y-67114180D01*
X55779463Y-67224494D01*
X55858815Y-67321185D01*
X55955506Y-67400537D01*
X56065820Y-67459502D01*
X56107501Y-67472146D01*
X56107501Y-68443206D01*
X56102892Y-68490000D01*
X56121283Y-68676722D01*
X56175749Y-68856269D01*
X56223855Y-68946269D01*
X56264195Y-69021741D01*
X56383223Y-69166778D01*
X56419565Y-69196603D01*
X57713393Y-70490431D01*
X57743222Y-70526778D01*
X57888259Y-70645806D01*
X58053731Y-70734252D01*
X58197948Y-70778000D01*
X58233277Y-70788717D01*
X58419999Y-70807108D01*
X58466784Y-70802500D01*
X63817500Y-70802500D01*
X63817501Y-82503205D01*
X63812892Y-82550000D01*
X63831283Y-82736722D01*
X63867696Y-82856756D01*
X63885749Y-82916269D01*
X63974195Y-83081741D01*
X64093223Y-83226778D01*
X64129564Y-83256602D01*
X67874070Y-87001109D01*
X67916795Y-87104256D01*
X68030063Y-87273774D01*
X68174226Y-87417937D01*
X68343744Y-87531205D01*
X68532102Y-87609226D01*
X68732061Y-87649000D01*
X68935939Y-87649000D01*
X69135898Y-87609226D01*
X69324256Y-87531205D01*
X69493774Y-87417937D01*
X69637937Y-87273774D01*
X69751205Y-87104256D01*
X69829226Y-86915898D01*
X69869000Y-86715939D01*
X69869000Y-86512061D01*
X69829226Y-86312102D01*
X69751205Y-86123744D01*
X69637937Y-85954226D01*
X69493774Y-85810063D01*
X69324256Y-85696795D01*
X69221109Y-85654070D01*
X65722500Y-82155462D01*
X65722500Y-70244538D01*
X66680436Y-69286603D01*
X66716778Y-69256778D01*
X66835806Y-69111741D01*
X66924252Y-68946269D01*
X66978717Y-68766723D01*
X66992500Y-68626785D01*
X66992500Y-68626784D01*
X66997108Y-68580001D01*
X66992500Y-68533216D01*
X66992500Y-65917607D01*
X67193475Y-65716632D01*
X67315195Y-65534466D01*
X67384822Y-65651355D01*
X67579731Y-65867588D01*
X67813080Y-66041641D01*
X68075901Y-66166825D01*
X68223110Y-66211476D01*
X68453000Y-66090155D01*
X68453000Y-64897000D01*
X68433000Y-64897000D01*
X68433000Y-64643000D01*
X68453000Y-64643000D01*
X68453000Y-63449845D01*
X68707000Y-63449845D01*
X68707000Y-64643000D01*
X68727000Y-64643000D01*
X68727000Y-64897000D01*
X68707000Y-64897000D01*
X68707000Y-66090155D01*
X68936890Y-66211476D01*
X69084099Y-66166825D01*
X69346920Y-66041641D01*
X69580269Y-65867588D01*
X69775178Y-65651355D01*
X69844805Y-65534466D01*
X69966525Y-65716632D01*
X70173368Y-65923475D01*
X70416589Y-66085990D01*
X70686842Y-66197932D01*
X70973740Y-66255000D01*
X71266260Y-66255000D01*
X71553158Y-66197932D01*
X71823411Y-66085990D01*
X72066632Y-65923475D01*
X72198487Y-65791620D01*
X72220498Y-65864180D01*
X72279463Y-65974494D01*
X72358815Y-66071185D01*
X72455506Y-66150537D01*
X72565820Y-66209502D01*
X72685518Y-66245812D01*
X72810000Y-66258072D01*
X74510000Y-66258072D01*
X74634482Y-66245812D01*
X74754180Y-66209502D01*
X74864494Y-66150537D01*
X74961185Y-66071185D01*
X75040537Y-65974494D01*
X75099502Y-65864180D01*
X75135812Y-65744482D01*
X75148072Y-65620000D01*
X75148072Y-63920000D01*
X75135812Y-63795518D01*
X75099502Y-63675820D01*
X75040537Y-63565506D01*
X74961185Y-63468815D01*
X74864494Y-63389463D01*
X74754180Y-63330498D01*
X74634482Y-63294188D01*
X74510000Y-63281928D01*
X72810000Y-63281928D01*
X72685518Y-63294188D01*
X72565820Y-63330498D01*
X72455506Y-63389463D01*
X72358815Y-63468815D01*
X72279463Y-63565506D01*
X72220498Y-63675820D01*
X72198487Y-63748380D01*
X72066632Y-63616525D01*
X71823411Y-63454010D01*
X71553158Y-63342068D01*
X71266260Y-63285000D01*
X70973740Y-63285000D01*
X70686842Y-63342068D01*
X70416589Y-63454010D01*
X70173368Y-63616525D01*
X69966525Y-63823368D01*
X69844805Y-64005534D01*
X69775178Y-63888645D01*
X69580269Y-63672412D01*
X69346920Y-63498359D01*
X69084099Y-63373175D01*
X68936890Y-63328524D01*
X68707000Y-63449845D01*
X68453000Y-63449845D01*
X68223110Y-63328524D01*
X68075901Y-63373175D01*
X67813080Y-63498359D01*
X67579731Y-63672412D01*
X67384822Y-63888645D01*
X67315195Y-64005534D01*
X67193475Y-63823368D01*
X66986632Y-63616525D01*
X66743411Y-63454010D01*
X66473158Y-63342068D01*
X66186260Y-63285000D01*
X65893740Y-63285000D01*
X65606842Y-63342068D01*
X65336589Y-63454010D01*
X65093368Y-63616525D01*
X64886525Y-63823368D01*
X64724010Y-64066589D01*
X64612068Y-64336842D01*
X64555000Y-64623740D01*
X64555000Y-64916260D01*
X64612068Y-65203158D01*
X64724010Y-65473411D01*
X64886525Y-65716632D01*
X65087501Y-65917608D01*
X65087500Y-68185461D01*
X64375462Y-68897500D01*
X58814538Y-68897500D01*
X58012500Y-68095462D01*
X58012500Y-67472145D01*
X58054180Y-67459502D01*
X58164494Y-67400537D01*
X58261185Y-67321185D01*
X58340537Y-67224494D01*
X58399502Y-67114180D01*
X58435812Y-66994482D01*
X58448072Y-66870000D01*
X58448072Y-65870000D01*
X58435812Y-65745518D01*
X58399502Y-65625820D01*
X58340537Y-65515506D01*
X58261185Y-65418815D01*
X58164494Y-65339463D01*
X58054180Y-65280498D01*
X57934482Y-65244188D01*
X57810000Y-65231928D01*
X56310000Y-65231928D01*
X56185518Y-65244188D01*
X56065820Y-65280498D01*
X55955506Y-65339463D01*
X55858815Y-65418815D01*
X55779463Y-65515506D01*
X55720498Y-65625820D01*
X55684188Y-65745518D01*
X55671928Y-65870000D01*
X53548072Y-65870000D01*
X53535812Y-65745518D01*
X53499502Y-65625820D01*
X53440537Y-65515506D01*
X53361185Y-65418815D01*
X53264494Y-65339463D01*
X53154180Y-65280498D01*
X53034482Y-65244188D01*
X52910000Y-65231928D01*
X51410000Y-65231928D01*
X51285518Y-65244188D01*
X51165820Y-65280498D01*
X51055506Y-65339463D01*
X50958815Y-65418815D01*
X50879463Y-65515506D01*
X50820498Y-65625820D01*
X50784188Y-65745518D01*
X50771928Y-65870000D01*
X50771928Y-66870000D01*
X50784188Y-66994482D01*
X50820498Y-67114180D01*
X50879463Y-67224494D01*
X50958815Y-67321185D01*
X51055506Y-67400537D01*
X51165820Y-67459502D01*
X51285518Y-67495812D01*
X51410000Y-67508072D01*
X51500501Y-67508072D01*
X51500500Y-68662921D01*
X51464243Y-68666492D01*
X51297648Y-68717028D01*
X51144112Y-68799095D01*
X51009537Y-68909537D01*
X50899095Y-69044112D01*
X50817028Y-69197648D01*
X50766492Y-69364243D01*
X50749428Y-69537497D01*
X43840000Y-69537497D01*
X43840000Y-64802279D01*
X43864748Y-64549872D01*
X44755000Y-64549872D01*
X44755000Y-64990128D01*
X44840890Y-65421925D01*
X45009369Y-65828669D01*
X45253962Y-66194729D01*
X45565271Y-66506038D01*
X45931331Y-66750631D01*
X46338075Y-66919110D01*
X46769872Y-67005000D01*
X47210128Y-67005000D01*
X47641925Y-66919110D01*
X48048669Y-66750631D01*
X48414729Y-66506038D01*
X48726038Y-66194729D01*
X48970631Y-65828669D01*
X49139110Y-65421925D01*
X49225000Y-64990128D01*
X49225000Y-64549872D01*
X49139110Y-64118075D01*
X48970631Y-63711331D01*
X48943015Y-63670000D01*
X50771928Y-63670000D01*
X50784188Y-63794482D01*
X50820498Y-63914180D01*
X50879463Y-64024494D01*
X50958815Y-64121185D01*
X51055506Y-64200537D01*
X51165820Y-64259502D01*
X51285518Y-64295812D01*
X51410000Y-64308072D01*
X51874250Y-64305000D01*
X52033000Y-64146250D01*
X52033000Y-63297000D01*
X52287000Y-63297000D01*
X52287000Y-64146250D01*
X52445750Y-64305000D01*
X52910000Y-64308072D01*
X53034482Y-64295812D01*
X53154180Y-64259502D01*
X53264494Y-64200537D01*
X53361185Y-64121185D01*
X53440537Y-64024494D01*
X53499502Y-63914180D01*
X53535812Y-63794482D01*
X53548072Y-63670000D01*
X53545000Y-63455750D01*
X53386250Y-63297000D01*
X52287000Y-63297000D01*
X52033000Y-63297000D01*
X50933750Y-63297000D01*
X50775000Y-63455750D01*
X50771928Y-63670000D01*
X48943015Y-63670000D01*
X48726038Y-63345271D01*
X48414729Y-63033962D01*
X48048669Y-62789369D01*
X47760487Y-62670000D01*
X50771928Y-62670000D01*
X50775000Y-62884250D01*
X50933750Y-63043000D01*
X52033000Y-63043000D01*
X52033000Y-62193750D01*
X52287000Y-62193750D01*
X52287000Y-63043000D01*
X53386250Y-63043000D01*
X53545000Y-62884250D01*
X53548072Y-62670000D01*
X55671928Y-62670000D01*
X55671928Y-63670000D01*
X55684188Y-63794482D01*
X55720498Y-63914180D01*
X55779463Y-64024494D01*
X55858815Y-64121185D01*
X55955506Y-64200537D01*
X56065820Y-64259502D01*
X56185518Y-64295812D01*
X56310000Y-64308072D01*
X57810000Y-64308072D01*
X57934482Y-64295812D01*
X58054180Y-64259502D01*
X58164494Y-64200537D01*
X58261185Y-64121185D01*
X58340537Y-64024494D01*
X58396391Y-63920000D01*
X59471928Y-63920000D01*
X59471928Y-65620000D01*
X59484188Y-65744482D01*
X59520498Y-65864180D01*
X59579463Y-65974494D01*
X59658815Y-66071185D01*
X59755506Y-66150537D01*
X59865820Y-66209502D01*
X59985518Y-66245812D01*
X60110000Y-66258072D01*
X61810000Y-66258072D01*
X61934482Y-66245812D01*
X62054180Y-66209502D01*
X62164494Y-66150537D01*
X62261185Y-66071185D01*
X62340537Y-65974494D01*
X62399502Y-65864180D01*
X62435812Y-65744482D01*
X62448072Y-65620000D01*
X62448072Y-63920000D01*
X62435812Y-63795518D01*
X62399502Y-63675820D01*
X62340537Y-63565506D01*
X62261185Y-63468815D01*
X62164494Y-63389463D01*
X62054180Y-63330498D01*
X61934482Y-63294188D01*
X61810000Y-63281928D01*
X60110000Y-63281928D01*
X59985518Y-63294188D01*
X59865820Y-63330498D01*
X59755506Y-63389463D01*
X59658815Y-63468815D01*
X59579463Y-63565506D01*
X59520498Y-63675820D01*
X59484188Y-63795518D01*
X59471928Y-63920000D01*
X58396391Y-63920000D01*
X58399502Y-63914180D01*
X58435812Y-63794482D01*
X58448072Y-63670000D01*
X58448072Y-62670000D01*
X58435812Y-62545518D01*
X58399502Y-62425820D01*
X58340537Y-62315506D01*
X58261185Y-62218815D01*
X58164494Y-62139463D01*
X58054180Y-62080498D01*
X57934482Y-62044188D01*
X57810000Y-62031928D01*
X56310000Y-62031928D01*
X56185518Y-62044188D01*
X56065820Y-62080498D01*
X55955506Y-62139463D01*
X55858815Y-62218815D01*
X55779463Y-62315506D01*
X55720498Y-62425820D01*
X55684188Y-62545518D01*
X55671928Y-62670000D01*
X53548072Y-62670000D01*
X53535812Y-62545518D01*
X53499502Y-62425820D01*
X53440537Y-62315506D01*
X53361185Y-62218815D01*
X53264494Y-62139463D01*
X53154180Y-62080498D01*
X53034482Y-62044188D01*
X52910000Y-62031928D01*
X52445750Y-62035000D01*
X52287000Y-62193750D01*
X52033000Y-62193750D01*
X51874250Y-62035000D01*
X51410000Y-62031928D01*
X51285518Y-62044188D01*
X51165820Y-62080498D01*
X51055506Y-62139463D01*
X50958815Y-62218815D01*
X50879463Y-62315506D01*
X50820498Y-62425820D01*
X50784188Y-62545518D01*
X50771928Y-62670000D01*
X47760487Y-62670000D01*
X47641925Y-62620890D01*
X47210128Y-62535000D01*
X46769872Y-62535000D01*
X46338075Y-62620890D01*
X45931331Y-62789369D01*
X45565271Y-63033962D01*
X45253962Y-63345271D01*
X45009369Y-63711331D01*
X44840890Y-64118075D01*
X44755000Y-64549872D01*
X43864748Y-64549872D01*
X43903096Y-64158778D01*
X44080606Y-63570836D01*
X44368937Y-63028564D01*
X44757094Y-62552636D01*
X45230314Y-62161155D01*
X45770552Y-61869049D01*
X46357244Y-61687437D01*
X46998879Y-61620000D01*
X107917721Y-61620000D01*
X108561222Y-61683096D01*
G37*
%TD.AperFunction*%
D22*
X60351571Y-95364003D02*
X60190000Y-95361928D01*
X60065518Y-95374188D01*
X59945820Y-95410498D01*
X59835506Y-95469463D01*
X59738815Y-95548815D01*
X59659463Y-95645506D01*
X59600498Y-95755820D01*
X59564188Y-95875518D01*
X59551928Y-96000000D01*
X59555000Y-96314250D01*
X59713750Y-96473000D01*
X60588000Y-96473000D01*
X60588000Y-96453000D01*
X60842000Y-96453000D01*
X60842000Y-96473000D01*
X60862000Y-96473000D01*
X60862000Y-96727000D01*
X60842000Y-96727000D01*
X60842000Y-97676250D01*
X61000750Y-97835000D01*
X61240000Y-97838072D01*
X61364482Y-97825812D01*
X61484180Y-97789502D01*
X61594494Y-97730537D01*
X61691185Y-97651185D01*
X61770537Y-97554494D01*
X61829502Y-97444180D01*
X61865812Y-97324482D01*
X61878072Y-97200000D01*
X61875017Y-96887449D01*
X64428001Y-99440433D01*
X64428000Y-101461289D01*
X64371750Y-101455000D01*
X64213000Y-101613750D01*
X64213000Y-102463000D01*
X64237000Y-102463000D01*
X64237000Y-102717000D01*
X64213000Y-102717000D01*
X64213000Y-103566250D01*
X64371750Y-103725000D01*
X64476609Y-103713277D01*
X64508857Y-103702807D01*
X63754164Y-104457500D01*
X58814539Y-104457500D01*
X56834001Y-102476963D01*
X56834001Y-100047433D01*
X60769920Y-103983353D01*
X60793777Y-104012423D01*
X60909807Y-104107646D01*
X61042184Y-104178403D01*
X61185821Y-104221975D01*
X61297773Y-104233001D01*
X61297775Y-104233001D01*
X61335198Y-104236687D01*
X61372621Y-104233001D01*
X62825576Y-104233001D01*
X62862999Y-104236687D01*
X62900422Y-104233001D01*
X62900425Y-104233001D01*
X63012377Y-104221975D01*
X63156014Y-104178403D01*
X63288391Y-104107646D01*
X63404421Y-104012423D01*
X63428284Y-103983346D01*
X63502342Y-103909287D01*
X63531422Y-103885422D01*
X63626645Y-103769392D01*
X63663553Y-103700342D01*
X63703391Y-103713277D01*
X63808250Y-103725000D01*
X63967000Y-103566250D01*
X63967000Y-102717000D01*
X63943000Y-102717000D01*
X63943000Y-102463000D01*
X63967000Y-102463000D01*
X63967000Y-101613750D01*
X63808250Y-101455000D01*
X63703391Y-101466723D01*
X63584421Y-101505350D01*
X63539890Y-101530276D01*
X63484180Y-101500498D01*
X63364482Y-101464188D01*
X63240000Y-101451928D01*
X62740000Y-101451928D01*
X62615518Y-101464188D01*
X62495820Y-101500498D01*
X62440000Y-101530335D01*
X62384180Y-101500498D01*
X62264482Y-101464188D01*
X62140000Y-101451928D01*
X61665910Y-101451928D01*
X61691185Y-101431185D01*
X61770537Y-101334494D01*
X61829502Y-101224180D01*
X61865812Y-101104482D01*
X61878072Y-100980000D01*
X61875000Y-100070750D01*
X61716250Y-99912000D01*
X60842000Y-99912000D01*
X60842000Y-101456250D01*
X61000750Y-101615000D01*
X61214490Y-101617744D01*
X61188815Y-101638815D01*
X61109463Y-101735506D01*
X61050498Y-101845820D01*
X61014188Y-101965518D01*
X61004609Y-102062780D01*
X60493039Y-101551211D01*
X60588000Y-101456250D01*
X60588000Y-99912000D01*
X59713750Y-99912000D01*
X59555000Y-100070750D01*
X59553174Y-100611345D01*
X57531829Y-98590000D01*
X59551928Y-98590000D01*
X59555000Y-99499250D01*
X59713750Y-99658000D01*
X60588000Y-99658000D01*
X60588000Y-98113750D01*
X60842000Y-98113750D01*
X60842000Y-99658000D01*
X61716250Y-99658000D01*
X61875000Y-99499250D01*
X61878072Y-98590000D01*
X61865812Y-98465518D01*
X61829502Y-98345820D01*
X61770537Y-98235506D01*
X61691185Y-98138815D01*
X61594494Y-98059463D01*
X61484180Y-98000498D01*
X61364482Y-97964188D01*
X61240000Y-97951928D01*
X61000750Y-97955000D01*
X60842000Y-98113750D01*
X60588000Y-98113750D01*
X60429250Y-97955000D01*
X60190000Y-97951928D01*
X60065518Y-97964188D01*
X59945820Y-98000498D01*
X59835506Y-98059463D01*
X59738815Y-98138815D01*
X59659463Y-98235506D01*
X59600498Y-98345820D01*
X59564188Y-98465518D01*
X59551928Y-98590000D01*
X57531829Y-98590000D01*
X57342011Y-98400183D01*
X57342011Y-97200000D01*
X59551928Y-97200000D01*
X59564188Y-97324482D01*
X59600498Y-97444180D01*
X59659463Y-97554494D01*
X59738815Y-97651185D01*
X59835506Y-97730537D01*
X59945820Y-97789502D01*
X60065518Y-97825812D01*
X60190000Y-97838072D01*
X60429250Y-97835000D01*
X60588000Y-97676250D01*
X60588000Y-96727000D01*
X59713750Y-96727000D01*
X59555000Y-96885750D01*
X59551928Y-97200000D01*
X57342011Y-97200000D01*
X57342011Y-92354443D01*
X60351571Y-95364003D01*
%TA.AperFunction,Conductor*%
D24*
G36*
X60351571Y-95364003D02*
G01*
X60190000Y-95361928D01*
X60065518Y-95374188D01*
X59945820Y-95410498D01*
X59835506Y-95469463D01*
X59738815Y-95548815D01*
X59659463Y-95645506D01*
X59600498Y-95755820D01*
X59564188Y-95875518D01*
X59551928Y-96000000D01*
X59555000Y-96314250D01*
X59713750Y-96473000D01*
X60588000Y-96473000D01*
X60588000Y-96453000D01*
X60842000Y-96453000D01*
X60842000Y-96473000D01*
X60862000Y-96473000D01*
X60862000Y-96727000D01*
X60842000Y-96727000D01*
X60842000Y-97676250D01*
X61000750Y-97835000D01*
X61240000Y-97838072D01*
X61364482Y-97825812D01*
X61484180Y-97789502D01*
X61594494Y-97730537D01*
X61691185Y-97651185D01*
X61770537Y-97554494D01*
X61829502Y-97444180D01*
X61865812Y-97324482D01*
X61878072Y-97200000D01*
X61875017Y-96887449D01*
X64428001Y-99440433D01*
X64428000Y-101461289D01*
X64371750Y-101455000D01*
X64213000Y-101613750D01*
X64213000Y-102463000D01*
X64237000Y-102463000D01*
X64237000Y-102717000D01*
X64213000Y-102717000D01*
X64213000Y-103566250D01*
X64371750Y-103725000D01*
X64476609Y-103713277D01*
X64508857Y-103702807D01*
X63754164Y-104457500D01*
X58814539Y-104457500D01*
X56834001Y-102476963D01*
X56834001Y-100047433D01*
X60769920Y-103983353D01*
X60793777Y-104012423D01*
X60909807Y-104107646D01*
X61042184Y-104178403D01*
X61185821Y-104221975D01*
X61297773Y-104233001D01*
X61297775Y-104233001D01*
X61335198Y-104236687D01*
X61372621Y-104233001D01*
X62825576Y-104233001D01*
X62862999Y-104236687D01*
X62900422Y-104233001D01*
X62900425Y-104233001D01*
X63012377Y-104221975D01*
X63156014Y-104178403D01*
X63288391Y-104107646D01*
X63404421Y-104012423D01*
X63428284Y-103983346D01*
X63502342Y-103909287D01*
X63531422Y-103885422D01*
X63626645Y-103769392D01*
X63663553Y-103700342D01*
X63703391Y-103713277D01*
X63808250Y-103725000D01*
X63967000Y-103566250D01*
X63967000Y-102717000D01*
X63943000Y-102717000D01*
X63943000Y-102463000D01*
X63967000Y-102463000D01*
X63967000Y-101613750D01*
X63808250Y-101455000D01*
X63703391Y-101466723D01*
X63584421Y-101505350D01*
X63539890Y-101530276D01*
X63484180Y-101500498D01*
X63364482Y-101464188D01*
X63240000Y-101451928D01*
X62740000Y-101451928D01*
X62615518Y-101464188D01*
X62495820Y-101500498D01*
X62440000Y-101530335D01*
X62384180Y-101500498D01*
X62264482Y-101464188D01*
X62140000Y-101451928D01*
X61665910Y-101451928D01*
X61691185Y-101431185D01*
X61770537Y-101334494D01*
X61829502Y-101224180D01*
X61865812Y-101104482D01*
X61878072Y-100980000D01*
X61875000Y-100070750D01*
X61716250Y-99912000D01*
X60842000Y-99912000D01*
X60842000Y-101456250D01*
X61000750Y-101615000D01*
X61214490Y-101617744D01*
X61188815Y-101638815D01*
X61109463Y-101735506D01*
X61050498Y-101845820D01*
X61014188Y-101965518D01*
X61004609Y-102062780D01*
X60493039Y-101551211D01*
X60588000Y-101456250D01*
X60588000Y-99912000D01*
X59713750Y-99912000D01*
X59555000Y-100070750D01*
X59553174Y-100611345D01*
X57531829Y-98590000D01*
X59551928Y-98590000D01*
X59555000Y-99499250D01*
X59713750Y-99658000D01*
X60588000Y-99658000D01*
X60588000Y-98113750D01*
X60842000Y-98113750D01*
X60842000Y-99658000D01*
X61716250Y-99658000D01*
X61875000Y-99499250D01*
X61878072Y-98590000D01*
X61865812Y-98465518D01*
X61829502Y-98345820D01*
X61770537Y-98235506D01*
X61691185Y-98138815D01*
X61594494Y-98059463D01*
X61484180Y-98000498D01*
X61364482Y-97964188D01*
X61240000Y-97951928D01*
X61000750Y-97955000D01*
X60842000Y-98113750D01*
X60588000Y-98113750D01*
X60429250Y-97955000D01*
X60190000Y-97951928D01*
X60065518Y-97964188D01*
X59945820Y-98000498D01*
X59835506Y-98059463D01*
X59738815Y-98138815D01*
X59659463Y-98235506D01*
X59600498Y-98345820D01*
X59564188Y-98465518D01*
X59551928Y-98590000D01*
X57531829Y-98590000D01*
X57342011Y-98400183D01*
X57342011Y-97200000D01*
X59551928Y-97200000D01*
X59564188Y-97324482D01*
X59600498Y-97444180D01*
X59659463Y-97554494D01*
X59738815Y-97651185D01*
X59835506Y-97730537D01*
X59945820Y-97789502D01*
X60065518Y-97825812D01*
X60190000Y-97838072D01*
X60429250Y-97835000D01*
X60588000Y-97676250D01*
X60588000Y-96727000D01*
X59713750Y-96727000D01*
X59555000Y-96885750D01*
X59551928Y-97200000D01*
X57342011Y-97200000D01*
X57342011Y-92354443D01*
X60351571Y-95364003D01*
G37*
%TD.AperFunction*%
D22*
X87503000Y-89219370D02*
X87503000Y-89016408D01*
X87449314Y-88746510D01*
X87344005Y-88492273D01*
X87191120Y-88263465D01*
X86996535Y-88068880D01*
X86767727Y-87915995D01*
X86690485Y-87884000D01*
X86767727Y-87852005D01*
X86996535Y-87699120D01*
X87191120Y-87504535D01*
X87344005Y-87275727D01*
X87449314Y-87021490D01*
X87503000Y-86751592D01*
X87503000Y-86476408D01*
X87449314Y-86206510D01*
X87355076Y-85979001D01*
X90259576Y-85979001D01*
X90296999Y-85982687D01*
X90334422Y-85979001D01*
X90334425Y-85979001D01*
X90446377Y-85967975D01*
X90590014Y-85924403D01*
X90722391Y-85853646D01*
X90838421Y-85758423D01*
X90862282Y-85729348D01*
X90974630Y-85617000D01*
X91033939Y-85617000D01*
X91123106Y-85599264D01*
X87503000Y-89219370D01*
%TA.AperFunction,Conductor*%
D24*
G36*
X87503000Y-89219370D02*
G01*
X87503000Y-89016408D01*
X87449314Y-88746510D01*
X87344005Y-88492273D01*
X87191120Y-88263465D01*
X86996535Y-88068880D01*
X86767727Y-87915995D01*
X86690485Y-87884000D01*
X86767727Y-87852005D01*
X86996535Y-87699120D01*
X87191120Y-87504535D01*
X87344005Y-87275727D01*
X87449314Y-87021490D01*
X87503000Y-86751592D01*
X87503000Y-86476408D01*
X87449314Y-86206510D01*
X87355076Y-85979001D01*
X90259576Y-85979001D01*
X90296999Y-85982687D01*
X90334422Y-85979001D01*
X90334425Y-85979001D01*
X90446377Y-85967975D01*
X90590014Y-85924403D01*
X90722391Y-85853646D01*
X90838421Y-85758423D01*
X90862282Y-85729348D01*
X90974630Y-85617000D01*
X91033939Y-85617000D01*
X91123106Y-85599264D01*
X87503000Y-89219370D01*
G37*
%TD.AperFunction*%
D22*
X84201000Y-81421251D02*
X81181665Y-84440586D01*
X81046962Y-84238987D01*
X80861013Y-84053038D01*
X80642359Y-83906939D01*
X80432470Y-83820000D01*
X80642359Y-83733061D01*
X80861013Y-83586962D01*
X81046962Y-83401013D01*
X81193061Y-83182359D01*
X81293696Y-82939405D01*
X81345000Y-82681486D01*
X81345000Y-82418514D01*
X81293696Y-82160595D01*
X81193061Y-81917641D01*
X81046962Y-81698987D01*
X80861013Y-81513038D01*
X80642359Y-81366939D01*
X80432470Y-81280000D01*
X80642359Y-81193061D01*
X80861013Y-81046962D01*
X81046962Y-80861013D01*
X81193061Y-80642359D01*
X81293696Y-80399405D01*
X81345000Y-80141486D01*
X81345000Y-79878514D01*
X81293696Y-79620595D01*
X81193061Y-79377641D01*
X81046962Y-79158987D01*
X80861013Y-78973038D01*
X80642359Y-78826939D01*
X80428556Y-78738379D01*
X80591366Y-78678935D01*
X80692203Y-78625037D01*
X80751664Y-78391269D01*
X80010000Y-77649605D01*
X79995858Y-77663748D01*
X79816253Y-77484143D01*
X79830395Y-77470000D01*
X80189605Y-77470000D01*
X80931269Y-78211664D01*
X81165037Y-78152203D01*
X81275934Y-77913758D01*
X81338183Y-77658260D01*
X81349390Y-77395527D01*
X81309125Y-77135656D01*
X81218935Y-76888634D01*
X81165037Y-76787797D01*
X80931269Y-76728336D01*
X80189605Y-77470000D01*
X79830395Y-77470000D01*
X79816253Y-77455858D01*
X79995858Y-77276253D01*
X80010000Y-77290395D01*
X80751664Y-76548731D01*
X80692203Y-76314963D01*
X80453758Y-76204066D01*
X80198260Y-76141817D01*
X79935527Y-76130610D01*
X79675656Y-76170875D01*
X79428634Y-76261065D01*
X79327797Y-76314963D01*
X79313001Y-76373133D01*
X79313001Y-70354629D01*
X83455952Y-66211679D01*
X83673740Y-66255000D01*
X83966260Y-66255000D01*
X84200999Y-66208307D01*
X84201000Y-81421251D01*
%TA.AperFunction,Conductor*%
D24*
G36*
X84201000Y-81421251D02*
G01*
X81181665Y-84440586D01*
X81046962Y-84238987D01*
X80861013Y-84053038D01*
X80642359Y-83906939D01*
X80432470Y-83820000D01*
X80642359Y-83733061D01*
X80861013Y-83586962D01*
X81046962Y-83401013D01*
X81193061Y-83182359D01*
X81293696Y-82939405D01*
X81345000Y-82681486D01*
X81345000Y-82418514D01*
X81293696Y-82160595D01*
X81193061Y-81917641D01*
X81046962Y-81698987D01*
X80861013Y-81513038D01*
X80642359Y-81366939D01*
X80432470Y-81280000D01*
X80642359Y-81193061D01*
X80861013Y-81046962D01*
X81046962Y-80861013D01*
X81193061Y-80642359D01*
X81293696Y-80399405D01*
X81345000Y-80141486D01*
X81345000Y-79878514D01*
X81293696Y-79620595D01*
X81193061Y-79377641D01*
X81046962Y-79158987D01*
X80861013Y-78973038D01*
X80642359Y-78826939D01*
X80428556Y-78738379D01*
X80591366Y-78678935D01*
X80692203Y-78625037D01*
X80751664Y-78391269D01*
X80010000Y-77649605D01*
X79995858Y-77663748D01*
X79816253Y-77484143D01*
X79830395Y-77470000D01*
X80189605Y-77470000D01*
X80931269Y-78211664D01*
X81165037Y-78152203D01*
X81275934Y-77913758D01*
X81338183Y-77658260D01*
X81349390Y-77395527D01*
X81309125Y-77135656D01*
X81218935Y-76888634D01*
X81165037Y-76787797D01*
X80931269Y-76728336D01*
X80189605Y-77470000D01*
X79830395Y-77470000D01*
X79816253Y-77455858D01*
X79995858Y-77276253D01*
X80010000Y-77290395D01*
X80751664Y-76548731D01*
X80692203Y-76314963D01*
X80453758Y-76204066D01*
X80198260Y-76141817D01*
X79935527Y-76130610D01*
X79675656Y-76170875D01*
X79428634Y-76261065D01*
X79327797Y-76314963D01*
X79313001Y-76373133D01*
X79313001Y-70354629D01*
X83455952Y-66211679D01*
X83673740Y-66255000D01*
X83966260Y-66255000D01*
X84200999Y-66208307D01*
X84201000Y-81421251D01*
G37*
%TD.AperFunction*%
%TD*%
M02*
