%TF.GenerationSoftware,KiCad,Pcbnew,7.0.2-6a45011f42~172~ubuntu22.04.1*%
%TF.CreationDate,2023-05-07T23:46:40+02:00*%
%TF.ProjectId,mp3alarm,6d703361-6c61-4726-9d2e-6b696361645f,v0.2*%
%TF.SameCoordinates,Original*%
%TF.FileFunction,Copper,L2,Bot*%
%TF.FilePolarity,Positive*%
%FSLAX46Y46*%
G04 Gerber Fmt 4.6, Leading zero omitted, Abs format (unit mm)*
G04 Created by KiCad (PCBNEW 7.0.2-6a45011f42~172~ubuntu22.04.1) date 2023-05-07 23:46:40*
%MOMM*%
%LPD*%
G01*
G04 APERTURE LIST*
%TA.AperFunction,ComponentPad*%
%ADD10C,5.000000*%
%TD*%
%TA.AperFunction,ComponentPad*%
%ADD11C,4.000000*%
%TD*%
%TA.AperFunction,ComponentPad*%
%ADD12R,1.700000X1.700000*%
%TD*%
%TA.AperFunction,ComponentPad*%
%ADD13O,1.700000X1.700000*%
%TD*%
%TA.AperFunction,ComponentPad*%
%ADD14C,1.400000*%
%TD*%
%TA.AperFunction,ComponentPad*%
%ADD15C,1.524000*%
%TD*%
%TA.AperFunction,ComponentPad*%
%ADD16C,6.400000*%
%TD*%
%TA.AperFunction,ComponentPad*%
%ADD17C,1.000000*%
%TD*%
%TA.AperFunction,SMDPad,CuDef*%
%ADD18R,3.150000X1.000000*%
%TD*%
%TA.AperFunction,ViaPad*%
%ADD19C,0.800000*%
%TD*%
%TA.AperFunction,Conductor*%
%ADD20C,0.635000*%
%TD*%
%TA.AperFunction,Conductor*%
%ADD21C,0.254000*%
%TD*%
G04 APERTURE END LIST*
D10*
%TO.P,J10,1,In*%
%TO.N,ANT*%
X69342000Y-61976000D03*
D11*
%TO.P,J10,2,Ext*%
%TO.N,GND*%
X65227000Y-57861000D03*
X65227000Y-66091000D03*
X73457000Y-57861000D03*
X73457000Y-66091000D03*
%TD*%
D12*
%TO.P,J3,1,Pin_1*%
%TO.N,GND*%
X46482000Y-90170000D03*
D13*
%TO.P,J3,2,Pin_2*%
%TO.N,SW1*%
X46482000Y-87630000D03*
%TD*%
D12*
%TO.P,J5,1,Pin_1*%
%TO.N,SCL*%
X85399000Y-64770000D03*
D13*
%TO.P,J5,2,Pin_2*%
%TO.N,SDA*%
X82859000Y-64770000D03*
%TO.P,J5,3,Pin_3*%
%TO.N,GND*%
X80319000Y-64770000D03*
%TO.P,J5,4,Pin_4*%
%TO.N,VCC*%
X77779000Y-64770000D03*
%TD*%
D12*
%TO.P,J6,1,Pin_1*%
%TO.N,TM_CLK*%
X97218500Y-64770000D03*
D13*
%TO.P,J6,2,Pin_2*%
%TO.N,TM_DIO*%
X94678500Y-64770000D03*
%TO.P,J6,3,Pin_3*%
%TO.N,GND*%
X92138500Y-64770000D03*
%TO.P,J6,4,Pin_4*%
%TO.N,5V*%
X89598500Y-64770000D03*
%TD*%
D14*
%TO.P,U2,1,GND*%
%TO.N,GND*%
X52070000Y-77470000D03*
%TO.P,U2,2,RST*%
%TO.N,unconnected-(U2-Pad2)*%
X54610000Y-77470000D03*
%TO.P,U2,3,NC*%
%TO.N,unconnected-(U2-Pad3)*%
X52070000Y-80010000D03*
%TO.P,U2,4,IO_36/SVP/A0*%
%TO.N,SW1*%
X54610000Y-80010000D03*
%TO.P,U2,5,IO_39/SVN*%
%TO.N,SW2*%
X52070000Y-82550000D03*
%TO.P,U2,6,IO_26/D0*%
%TO.N,STATUS_DATA*%
X54610000Y-82550000D03*
%TO.P,U2,7,IO_35*%
%TO.N,I2S_RADIO_DOUT*%
X52070000Y-85090000D03*
%TO.P,U2,8,IO_18/D5*%
%TO.N,SD_CLK*%
X54610000Y-85090000D03*
%TO.P,U2,9,IO_33*%
%TO.N,RDA_R*%
X52070000Y-87630000D03*
%TO.P,U2,10,IO_19/D6*%
%TO.N,SD_DATA0*%
X54610000Y-87630000D03*
%TO.P,U2,11,IO_34*%
%TO.N,SW0*%
X52070000Y-90170000D03*
%TO.P,U2,12,IO_23/D7*%
%TO.N,SD_CMD*%
X54610000Y-90170000D03*
%TO.P,U2,13,IO_14/TMS*%
%TO.N,TMS*%
X52070000Y-92710000D03*
%TO.P,U2,14,IO_05/D8*%
%TO.N,SD_CD*%
X54610000Y-92710000D03*
%TO.P,U2,15,NC*%
%TO.N,unconnected-(U2-Pad15)*%
X52070000Y-95250000D03*
%TO.P,U2,16,3V3*%
%TO.N,VCC*%
X54610000Y-95250000D03*
%TO.P,U2,17,IO_09/SD2*%
%TO.N,unconnected-(U2-Pad17)*%
X52070000Y-97790000D03*
%TO.P,U2,18,IO_13/TCK*%
%TO.N,TCK*%
X54610000Y-97790000D03*
%TO.P,U2,19,CMD*%
%TO.N,unconnected-(U2-Pad19)*%
X52070000Y-100330000D03*
%TO.P,U2,20,IO_10/SD3*%
%TO.N,unconnected-(U2-Pad20)*%
X54610000Y-100330000D03*
%TO.P,U2,21,TXD*%
%TO.N,unconnected-(U2-Pad21)*%
X77470000Y-77470000D03*
%TO.P,U2,22,GND*%
%TO.N,GND*%
X80010000Y-77470000D03*
%TO.P,U2,23,RXD*%
%TO.N,unconnected-(U2-Pad23)*%
X77470000Y-80010000D03*
%TO.P,U2,24,IO_27*%
%TO.N,I2S_LRC*%
X80010000Y-80010000D03*
%TO.P,U2,25,IO_22/D1/SCL*%
%TO.N,SCL*%
X77470000Y-82550000D03*
%TO.P,U2,26,IO_25*%
%TO.N,I2S_DIN*%
X80010000Y-82550000D03*
%TO.P,U2,27,IO_21/D2/SDA*%
%TO.N,SDA*%
X77470000Y-85090000D03*
%TO.P,U2,28,IO_32*%
%TO.N,I2S_MUTE*%
X80010000Y-85090000D03*
%TO.P,U2,29,IO_17/D3*%
%TO.N,TM_DIO*%
X77470000Y-87630000D03*
%TO.P,U2,30,IO_12/TDI*%
%TO.N,TDI*%
X80010000Y-87630000D03*
%TO.P,U2,31,IO_16/D4*%
%TO.N,TM_CLK*%
X77470000Y-90170000D03*
%TO.P,U2,32,IO_04*%
%TO.N,I2S_BCLK*%
X80010000Y-90170000D03*
%TO.P,U2,33,GND*%
%TO.N,GND*%
X77470000Y-92710000D03*
%TO.P,U2,34,IO_00*%
%TO.N,unconnected-(U2-Pad34)*%
X80010000Y-92710000D03*
%TO.P,U2,35,VCC_(USB)*%
%TO.N,5V*%
X77470000Y-95250000D03*
%TO.P,U2,36,IO_02*%
%TO.N,unconnected-(U2-Pad36)*%
X80010000Y-95250000D03*
%TO.P,U2,37,TD0*%
%TO.N,TDO*%
X77470000Y-97790000D03*
%TO.P,U2,38,SD1*%
%TO.N,unconnected-(U2-Pad38)*%
X80010000Y-97790000D03*
%TO.P,U2,39,SD0*%
%TO.N,unconnected-(U2-Pad39)*%
X77470000Y-100330000D03*
%TO.P,U2,40,CLK*%
%TO.N,unconnected-(U2-Pad40)*%
X80010000Y-100330000D03*
%TD*%
D12*
%TO.P,J2,1,Pin_1*%
%TO.N,GND*%
X46482000Y-97790000D03*
D13*
%TO.P,J2,2,Pin_2*%
%TO.N,SW0*%
X46482000Y-95250000D03*
%TD*%
D12*
%TO.P,J9,1,Pin_1*%
%TO.N,ANT*%
X60960000Y-57658000D03*
%TD*%
%TO.P,J4,1,Pin_1*%
%TO.N,GND*%
X46482000Y-82550000D03*
D13*
%TO.P,J4,2,Pin_2*%
%TO.N,SW2*%
X46482000Y-80010000D03*
%TD*%
D12*
%TO.P,J1,1,Pin_1*%
%TO.N,Net-(J1-Pad1)*%
X101600000Y-64770000D03*
D13*
%TO.P,J1,2,Pin_2*%
%TO.N,GND*%
X104140000Y-64770000D03*
%TO.P,J1,3,Pin_3*%
%TO.N,Net-(J1-Pad3)*%
X106680000Y-64770000D03*
%TD*%
D12*
%TO.P,J8,1,Pin_1*%
%TO.N,GND*%
X46482000Y-71628000D03*
D13*
%TO.P,J8,2,Pin_2*%
%TO.N,5V*%
X46482000Y-74168000D03*
%TD*%
D15*
%TO.P,U1,1,VIN*%
%TO.N,5V*%
X86106000Y-76454000D03*
%TO.P,U1,2,3VO*%
%TO.N,unconnected-(U1-Pad2)*%
X86106000Y-78994000D03*
%TO.P,U1,3,GND*%
%TO.N,GND*%
X86106000Y-81534000D03*
%TO.P,U1,4,WSEL*%
%TO.N,I2S_LRC*%
X86106000Y-84074000D03*
%TO.P,U1,5,DIN*%
%TO.N,I2S_DIN*%
X86106000Y-86614000D03*
%TO.P,U1,6,BCLK*%
%TO.N,I2S_BCLK*%
X86106000Y-89154000D03*
%TO.P,U1,7,Lout*%
%TO.N,Net-(J1-Pad1)*%
X86106000Y-91694000D03*
%TO.P,U1,8,AGND*%
%TO.N,GND*%
X86106000Y-94234000D03*
%TO.P,U1,9,Rout*%
%TO.N,Net-(J1-Pad3)*%
X86106000Y-96774000D03*
%TO.P,U1,10,SCLK*%
%TO.N,unconnected-(U1-Pad10)*%
X106426000Y-78994000D03*
%TO.P,U1,11,SF1*%
%TO.N,unconnected-(U1-Pad11)*%
X106426000Y-81534000D03*
%TO.P,U1,12,MUTE*%
%TO.N,I2S_MUTE*%
X106426000Y-84074000D03*
%TO.P,U1,13,SF0*%
%TO.N,unconnected-(U1-Pad13)*%
X106426000Y-86614000D03*
%TO.P,U1,14,PLL*%
%TO.N,unconnected-(U1-Pad14)*%
X106426000Y-89154000D03*
%TO.P,U1,15,DEEM*%
%TO.N,unconnected-(U1-Pad15)*%
X106426000Y-91694000D03*
%TD*%
D16*
%TO.P,H2,1,1*%
%TO.N,GND*%
X48000000Y-104000000D03*
%TD*%
%TO.P,H4,1,1*%
%TO.N,GND*%
X107000000Y-58000000D03*
%TD*%
%TO.P,H3,1,1*%
%TO.N,GND*%
X107000000Y-104000000D03*
%TD*%
%TO.P,H1,1,1*%
%TO.N,GND*%
X48000000Y-58000000D03*
%TD*%
D17*
%TO.P,Y1,1,1*%
%TO.N,Net-(IC1-Pad9)*%
X58232000Y-74490000D03*
%TO.P,Y1,2,2*%
%TO.N,GND*%
X60132000Y-74490000D03*
%TD*%
D18*
%TO.P,J0,1,Pin_1*%
%TO.N,VCC*%
X100569000Y-93472000D03*
%TO.P,J0,2,Pin_2*%
%TO.N,TMS*%
X95519000Y-93472000D03*
%TO.P,J0,3,Pin_3*%
%TO.N,GND*%
X100569000Y-96012000D03*
%TO.P,J0,4,Pin_4*%
%TO.N,TCK*%
X95519000Y-96012000D03*
%TO.P,J0,5,Pin_5*%
%TO.N,GND*%
X100569000Y-98552000D03*
%TO.P,J0,6,Pin_6*%
%TO.N,TDO*%
X95519000Y-98552000D03*
%TO.P,J0,7,Pin_7*%
%TO.N,GND*%
X100569000Y-101092000D03*
%TO.P,J0,8,Pin_8*%
%TO.N,TDI*%
X95519000Y-101092000D03*
%TO.P,J0,9,Pin_9*%
%TO.N,GND*%
X100569000Y-103632000D03*
%TO.P,J0,10,Pin_10*%
%TO.N,unconnected-(J0-Pad10)*%
X95519000Y-103632000D03*
%TD*%
D19*
%TO.N,GND*%
X87376000Y-80518000D03*
X84074000Y-83312000D03*
X61214000Y-92202000D03*
X89916000Y-86360000D03*
X92456000Y-70358000D03*
X83566000Y-87884000D03*
X64008000Y-103886000D03*
X84582000Y-99568000D03*
%TO.N,VCC*%
X49530000Y-84582000D03*
X49530000Y-92202000D03*
X49530000Y-99822000D03*
X61214000Y-88646000D03*
X103632000Y-93472000D03*
X55939477Y-102813525D03*
%TO.N,SDA*%
X72898000Y-74530500D03*
%TO.N,5V*%
X56896000Y-85852000D03*
X56896000Y-74168000D03*
%TO.N,SD_CMD*%
X65024000Y-106953000D03*
X67567455Y-103628545D03*
%TO.N,SD_CD*%
X68580000Y-104140000D03*
X66802000Y-106172000D03*
%TO.N,Net-(C1-Pad2)*%
X67056000Y-78994000D03*
X61976000Y-68326000D03*
%TO.N,I2S_BCLK*%
X66548000Y-81788000D03*
%TO.N,Net-(IC1-Pad9)*%
X63500000Y-73152000D03*
%TO.N,I2S_MUTE*%
X90932000Y-84582000D03*
X82296000Y-85852000D03*
%TO.N,I2S_RADIO_DOUT*%
X64262000Y-84074000D03*
%TO.N,Net-(D1-Pad4)*%
X52324000Y-68834000D03*
X56896000Y-64262000D03*
%TO.N,TDI*%
X92710000Y-101092000D03*
X82550000Y-89389500D03*
%TO.N,TDO*%
X91186000Y-102108000D03*
%TD*%
D20*
%TO.N,VCC*%
X55939477Y-102813525D02*
X52521525Y-102813525D01*
X54610000Y-95250000D02*
X61214000Y-88646000D01*
X52521525Y-102813525D02*
X49530000Y-99822000D01*
X49530000Y-99822000D02*
X49530000Y-92202000D01*
X103632000Y-93472000D02*
X100569000Y-93472000D01*
X49530000Y-92202000D02*
X49530000Y-84582000D01*
D21*
%TO.N,SDA*%
X72898000Y-74530500D02*
X72898000Y-80518000D01*
X72898000Y-80518000D02*
X77470000Y-85090000D01*
D20*
%TO.N,5V*%
X76859679Y-101601501D02*
X76198499Y-100940321D01*
X88392000Y-100838000D02*
X87628499Y-101601501D01*
X76198499Y-100940321D02*
X76198499Y-96521501D01*
X65528998Y-85852000D02*
X56896000Y-85852000D01*
X86106000Y-76454000D02*
X86106000Y-68262500D01*
X86106000Y-76454000D02*
X88392000Y-78740000D01*
X88392000Y-78740000D02*
X88392000Y-100838000D01*
X56896000Y-74168000D02*
X46482000Y-74168000D01*
X76198499Y-96521501D02*
X77470000Y-95250000D01*
X87628499Y-101601501D02*
X76859679Y-101601501D01*
X86106000Y-68262500D02*
X89598500Y-64770000D01*
X76198499Y-96521501D02*
X65528998Y-85852000D01*
D21*
%TO.N,SD_CMD*%
X65024000Y-106953000D02*
X65024000Y-106172000D01*
X65024000Y-106172000D02*
X67567455Y-103628545D01*
%TO.N,SD_CD*%
X68580000Y-104394000D02*
X68580000Y-104140000D01*
X66802000Y-106172000D02*
X68580000Y-104394000D01*
%TO.N,Net-(C1-Pad2)*%
X67056000Y-78994000D02*
X67056000Y-73406000D01*
X67056000Y-73406000D02*
X61976000Y-68326000D01*
%TO.N,I2S_LRC*%
X86106000Y-84074000D02*
X82042000Y-80010000D01*
X82042000Y-80010000D02*
X80010000Y-80010000D01*
%TO.N,I2S_DIN*%
X82042000Y-82550000D02*
X86106000Y-86614000D01*
X80010000Y-82550000D02*
X82042000Y-82550000D01*
%TO.N,I2S_BCLK*%
X66548000Y-81788000D02*
X76011000Y-91251000D01*
X80010000Y-90170000D02*
X85090000Y-90170000D01*
X85090000Y-90170000D02*
X86106000Y-89154000D01*
X76011000Y-91251000D02*
X78929000Y-91251000D01*
X78929000Y-91251000D02*
X80010000Y-90170000D01*
%TO.N,Net-(IC1-Pad9)*%
X59113000Y-73609000D02*
X58232000Y-74490000D01*
X63043000Y-73609000D02*
X59113000Y-73609000D01*
X63500000Y-73152000D02*
X63043000Y-73609000D01*
%TO.N,I2S_MUTE*%
X91440000Y-84074000D02*
X106426000Y-84074000D01*
X81534000Y-85090000D02*
X82296000Y-85852000D01*
X90932000Y-84582000D02*
X91440000Y-84074000D01*
X80010000Y-85090000D02*
X81534000Y-85090000D01*
%TO.N,I2S_RADIO_DOUT*%
X64197000Y-84009000D02*
X53151000Y-84009000D01*
X64262000Y-84074000D02*
X64197000Y-84009000D01*
X53151000Y-84009000D02*
X52070000Y-85090000D01*
%TO.N,Net-(D1-Pad4)*%
X52324000Y-68834000D02*
X56896000Y-64262000D01*
%TO.N,TDI*%
X80010000Y-87630000D02*
X81769500Y-89389500D01*
X92710000Y-101092000D02*
X95519000Y-101092000D01*
X81769500Y-89389500D02*
X82550000Y-89389500D01*
%TO.N,TDO*%
X94145499Y-98552000D02*
X95519000Y-98552000D01*
X91186000Y-101511499D02*
X94145499Y-98552000D01*
X91186000Y-102108000D02*
X91186000Y-101511499D01*
%TO.N,TCK*%
X54610000Y-97790000D02*
X70866000Y-97790000D01*
X91948000Y-99286000D02*
X91948000Y-97028000D01*
X92964000Y-96012000D02*
X95519000Y-96012000D01*
X76200000Y-103124000D02*
X88110000Y-103124000D01*
X70866000Y-97790000D02*
X76200000Y-103124000D01*
X91948000Y-97028000D02*
X92964000Y-96012000D01*
X88110000Y-103124000D02*
X91948000Y-99286000D01*
%TO.N,TMS*%
X76392001Y-102300001D02*
X87917827Y-102300001D01*
X52070000Y-92710000D02*
X53151000Y-93791000D01*
X90932000Y-95758000D02*
X93218000Y-93472000D01*
X90932000Y-99285828D02*
X90932000Y-95758000D01*
X53151000Y-93791000D02*
X53151000Y-95319765D01*
X53151000Y-95319765D02*
X54351235Y-96520000D01*
X70612000Y-96520000D02*
X76392001Y-102300001D01*
X87917827Y-102300001D02*
X90932000Y-99285828D01*
X54351235Y-96520000D02*
X70612000Y-96520000D01*
X93218000Y-93472000D02*
X95519000Y-93472000D01*
%TD*%
%TA.AperFunction,Conductor*%
%TO.N,GND*%
G36*
X85003218Y-90825502D02*
G01*
X85049711Y-90879158D01*
X85059815Y-90949432D01*
X85038310Y-91003771D01*
X85001512Y-91056322D01*
X84907559Y-91257807D01*
X84850022Y-91472532D01*
X84830647Y-91694000D01*
X84850022Y-91915467D01*
X84900390Y-92103439D01*
X84907560Y-92130196D01*
X84941043Y-92202000D01*
X85001512Y-92331678D01*
X85129025Y-92513784D01*
X85286215Y-92670974D01*
X85286218Y-92670976D01*
X85286219Y-92670977D01*
X85468323Y-92798488D01*
X85578965Y-92850081D01*
X85632250Y-92896997D01*
X85651711Y-92965274D01*
X85631170Y-93033234D01*
X85578966Y-93078469D01*
X85468575Y-93129946D01*
X85405394Y-93174184D01*
X86084211Y-93853000D01*
X86074431Y-93853000D01*
X85980579Y-93868661D01*
X85868749Y-93929180D01*
X85782629Y-94022731D01*
X85731552Y-94139177D01*
X85725461Y-94212670D01*
X85046184Y-93533394D01*
X85001948Y-93596572D01*
X84908031Y-93797975D01*
X84850517Y-94012623D01*
X84831149Y-94233999D01*
X84850517Y-94455376D01*
X84908031Y-94670024D01*
X85001947Y-94871426D01*
X85046184Y-94934603D01*
X85046186Y-94934603D01*
X85721607Y-94259182D01*
X85721051Y-94265898D01*
X85752266Y-94389162D01*
X85821813Y-94495612D01*
X85922157Y-94573713D01*
X86042422Y-94615000D01*
X86084210Y-94615000D01*
X85405395Y-95293813D01*
X85405395Y-95293814D01*
X85468573Y-95338052D01*
X85578965Y-95389529D01*
X85632250Y-95436446D01*
X85651711Y-95504724D01*
X85631169Y-95572683D01*
X85578965Y-95617919D01*
X85468323Y-95669512D01*
X85286215Y-95797025D01*
X85129025Y-95954215D01*
X85001512Y-96136322D01*
X84981471Y-96179301D01*
X84907682Y-96337544D01*
X84907559Y-96337807D01*
X84850022Y-96552532D01*
X84830647Y-96774000D01*
X84850022Y-96995467D01*
X84871408Y-97075277D01*
X84907560Y-97210196D01*
X84945348Y-97291232D01*
X85001512Y-97411678D01*
X85129025Y-97593784D01*
X85286215Y-97750974D01*
X85468321Y-97878487D01*
X85468322Y-97878487D01*
X85468323Y-97878488D01*
X85669804Y-97972440D01*
X85820739Y-98012883D01*
X85884532Y-98029977D01*
X85884533Y-98029977D01*
X85884537Y-98029978D01*
X86106000Y-98049353D01*
X86327463Y-98029978D01*
X86542196Y-97972440D01*
X86743677Y-97878488D01*
X86925781Y-97750977D01*
X87082977Y-97593781D01*
X87210488Y-97411677D01*
X87304440Y-97210196D01*
X87318294Y-97158490D01*
X87355245Y-97097870D01*
X87419106Y-97066849D01*
X87489600Y-97075277D01*
X87544347Y-97120480D01*
X87565964Y-97188106D01*
X87566000Y-97191104D01*
X87566000Y-100443668D01*
X87545998Y-100511789D01*
X87529096Y-100532762D01*
X87323261Y-100738597D01*
X87260952Y-100772621D01*
X87234168Y-100775501D01*
X81305965Y-100775501D01*
X81237844Y-100755499D01*
X81191351Y-100701843D01*
X81181247Y-100631569D01*
X81184259Y-100616889D01*
X81185270Y-100613118D01*
X81204686Y-100540655D01*
X81223116Y-100330000D01*
X81204686Y-100119345D01*
X81149956Y-99915090D01*
X81060589Y-99723442D01*
X80939301Y-99550224D01*
X80939300Y-99550223D01*
X80939298Y-99550220D01*
X80789779Y-99400701D01*
X80616559Y-99279411D01*
X80424907Y-99190042D01*
X80393793Y-99181705D01*
X80333171Y-99144752D01*
X80302151Y-99080891D01*
X80310581Y-99010397D01*
X80355785Y-98955651D01*
X80393798Y-98938292D01*
X80408380Y-98934385D01*
X80424907Y-98929957D01*
X80424907Y-98929956D01*
X80424910Y-98929956D01*
X80616558Y-98840589D01*
X80789776Y-98719301D01*
X80939301Y-98569776D01*
X81060589Y-98396558D01*
X81149956Y-98204910D01*
X81204686Y-98000655D01*
X81223116Y-97790000D01*
X81204686Y-97579345D01*
X81149956Y-97375090D01*
X81060589Y-97183442D01*
X81060585Y-97183437D01*
X80946496Y-97020500D01*
X80939301Y-97010224D01*
X80939300Y-97010223D01*
X80939298Y-97010220D01*
X80789779Y-96860701D01*
X80616559Y-96739411D01*
X80424910Y-96650043D01*
X80393796Y-96641707D01*
X80333173Y-96604755D01*
X80302152Y-96540895D01*
X80310580Y-96470400D01*
X80355783Y-96415653D01*
X80393796Y-96398293D01*
X80424910Y-96389956D01*
X80495809Y-96356895D01*
X80616558Y-96300589D01*
X80789776Y-96179301D01*
X80939301Y-96029776D01*
X81060589Y-95856558D01*
X81149956Y-95664910D01*
X81204686Y-95460655D01*
X81223116Y-95250000D01*
X81204686Y-95039345D01*
X81149956Y-94835090D01*
X81060589Y-94643442D01*
X81041768Y-94616563D01*
X80946496Y-94480500D01*
X80939301Y-94470224D01*
X80939300Y-94470223D01*
X80939298Y-94470220D01*
X80789779Y-94320701D01*
X80616559Y-94199411D01*
X80424907Y-94110042D01*
X80393793Y-94101705D01*
X80333171Y-94064752D01*
X80302151Y-94000891D01*
X80310581Y-93930397D01*
X80355785Y-93875651D01*
X80393798Y-93858292D01*
X80419387Y-93851436D01*
X80424907Y-93849957D01*
X80424907Y-93849956D01*
X80424910Y-93849956D01*
X80616558Y-93760589D01*
X80789776Y-93639301D01*
X80939301Y-93489776D01*
X81060589Y-93316558D01*
X81149956Y-93124910D01*
X81204686Y-92920655D01*
X81223116Y-92710000D01*
X81204686Y-92499345D01*
X81149956Y-92295090D01*
X81060589Y-92103442D01*
X80939301Y-91930224D01*
X80939300Y-91930223D01*
X80939298Y-91930220D01*
X80789779Y-91780701D01*
X80616559Y-91659411D01*
X80424910Y-91570043D01*
X80393796Y-91561707D01*
X80333173Y-91524755D01*
X80302152Y-91460895D01*
X80310580Y-91390400D01*
X80355783Y-91335653D01*
X80393796Y-91318293D01*
X80424910Y-91309956D01*
X80519255Y-91265962D01*
X80616558Y-91220589D01*
X80789776Y-91099301D01*
X80939301Y-90949776D01*
X81002702Y-90859229D01*
X81058160Y-90814901D01*
X81105916Y-90805500D01*
X84935097Y-90805500D01*
X85003218Y-90825502D01*
G37*
%TD.AperFunction*%
%TA.AperFunction,Conductor*%
G36*
X63565197Y-84664502D02*
G01*
X63590707Y-84686185D01*
X63629710Y-84729502D01*
X63650748Y-84752867D01*
X63712956Y-84798064D01*
X63756310Y-84854287D01*
X63762385Y-84925023D01*
X63729253Y-84987814D01*
X63667433Y-85022726D01*
X63638895Y-85026000D01*
X57301188Y-85026000D01*
X57249940Y-85015107D01*
X57178290Y-84983207D01*
X57178288Y-84983206D01*
X56991487Y-84943500D01*
X56800513Y-84943500D01*
X56683721Y-84968325D01*
X56613711Y-84983206D01*
X56439246Y-85060883D01*
X56284747Y-85173133D01*
X56156958Y-85315057D01*
X56061472Y-85480443D01*
X56002458Y-85662070D01*
X55982496Y-85851999D01*
X56002458Y-86041929D01*
X56061472Y-86223556D01*
X56156958Y-86388942D01*
X56246881Y-86488812D01*
X56284747Y-86530866D01*
X56439248Y-86643118D01*
X56613712Y-86720794D01*
X56800513Y-86760500D01*
X56800515Y-86760500D01*
X56991485Y-86760500D01*
X56991487Y-86760500D01*
X57178288Y-86720794D01*
X57229480Y-86698002D01*
X57249940Y-86688893D01*
X57301188Y-86678000D01*
X65134667Y-86678000D01*
X65202788Y-86698002D01*
X65223762Y-86714905D01*
X75335594Y-96826737D01*
X75369620Y-96889049D01*
X75372499Y-96915832D01*
X75372499Y-100077576D01*
X75352497Y-100145697D01*
X75298841Y-100192190D01*
X75228567Y-100202294D01*
X75163987Y-100172800D01*
X75157404Y-100166671D01*
X71120816Y-96130083D01*
X71107705Y-96113717D01*
X71055734Y-96064914D01*
X71052891Y-96062158D01*
X71035900Y-96045167D01*
X71033094Y-96042361D01*
X71029877Y-96039865D01*
X71020859Y-96032164D01*
X70988506Y-96001783D01*
X70988503Y-96001781D01*
X70970672Y-95991978D01*
X70954154Y-95981128D01*
X70938067Y-95968650D01*
X70897336Y-95951024D01*
X70886678Y-95945802D01*
X70847802Y-95924430D01*
X70828086Y-95919368D01*
X70809380Y-95912963D01*
X70790709Y-95904883D01*
X70746873Y-95897940D01*
X70735250Y-95895532D01*
X70692284Y-95884500D01*
X70692282Y-95884500D01*
X70671934Y-95884500D01*
X70652224Y-95882949D01*
X70632121Y-95879765D01*
X70632120Y-95879765D01*
X70587944Y-95883941D01*
X70576086Y-95884500D01*
X55845340Y-95884500D01*
X55777219Y-95864498D01*
X55730726Y-95810842D01*
X55720622Y-95740568D01*
X55731145Y-95705250D01*
X55749956Y-95664910D01*
X55804686Y-95460655D01*
X55823116Y-95250000D01*
X55823115Y-95249993D01*
X55823430Y-95246397D01*
X55849293Y-95180279D01*
X55859848Y-95168291D01*
X61510525Y-89517614D01*
X61548366Y-89491606D01*
X61670752Y-89437118D01*
X61825253Y-89324866D01*
X61953040Y-89182944D01*
X62048527Y-89017556D01*
X62107542Y-88835928D01*
X62127504Y-88646000D01*
X62107542Y-88456072D01*
X62057443Y-88301885D01*
X62048527Y-88274443D01*
X61953041Y-88109057D01*
X61853220Y-87998195D01*
X61825253Y-87967134D01*
X61814561Y-87959366D01*
X61730129Y-87898022D01*
X61670752Y-87854882D01*
X61496288Y-87777206D01*
X61309487Y-87737500D01*
X61118513Y-87737500D01*
X60993979Y-87763970D01*
X60931711Y-87777206D01*
X60842957Y-87816722D01*
X60758394Y-87854372D01*
X60757246Y-87854883D01*
X60602747Y-87967133D01*
X60474958Y-88109057D01*
X60379473Y-88274442D01*
X60370556Y-88301885D01*
X60339819Y-88352039D01*
X56026952Y-92664906D01*
X55964640Y-92698932D01*
X55893825Y-92693867D01*
X55836989Y-92651320D01*
X55812336Y-92586794D01*
X55804686Y-92499345D01*
X55749956Y-92295090D01*
X55660589Y-92103442D01*
X55539301Y-91930224D01*
X55539300Y-91930223D01*
X55539298Y-91930220D01*
X55389779Y-91780701D01*
X55216559Y-91659411D01*
X55024910Y-91570043D01*
X54993796Y-91561707D01*
X54933173Y-91524755D01*
X54902152Y-91460895D01*
X54910580Y-91390400D01*
X54955783Y-91335653D01*
X54993796Y-91318293D01*
X55024910Y-91309956D01*
X55119255Y-91265962D01*
X55216558Y-91220589D01*
X55389776Y-91099301D01*
X55539301Y-90949776D01*
X55660589Y-90776558D01*
X55749956Y-90584910D01*
X55804686Y-90380655D01*
X55823116Y-90170000D01*
X55804686Y-89959345D01*
X55749956Y-89755090D01*
X55660589Y-89563442D01*
X55610288Y-89491605D01*
X55572136Y-89437117D01*
X55539301Y-89390224D01*
X55539300Y-89390223D01*
X55539298Y-89390220D01*
X55389779Y-89240701D01*
X55216559Y-89119411D01*
X55024907Y-89030042D01*
X54993793Y-89021705D01*
X54933171Y-88984752D01*
X54902151Y-88920891D01*
X54910581Y-88850397D01*
X54955785Y-88795651D01*
X54993798Y-88778292D01*
X55015815Y-88772393D01*
X55024907Y-88769957D01*
X55024907Y-88769956D01*
X55024910Y-88769956D01*
X55216558Y-88680589D01*
X55389776Y-88559301D01*
X55539301Y-88409776D01*
X55660589Y-88236558D01*
X55749956Y-88044910D01*
X55804686Y-87840655D01*
X55823116Y-87630000D01*
X55804686Y-87419345D01*
X55749956Y-87215090D01*
X55660589Y-87023442D01*
X55631017Y-86981209D01*
X55539298Y-86850220D01*
X55389779Y-86700701D01*
X55216559Y-86579411D01*
X55024910Y-86490043D01*
X54993796Y-86481707D01*
X54933173Y-86444755D01*
X54902152Y-86380895D01*
X54910580Y-86310400D01*
X54955783Y-86255653D01*
X54993796Y-86238293D01*
X55024910Y-86229956D01*
X55095809Y-86196895D01*
X55216558Y-86140589D01*
X55389776Y-86019301D01*
X55539301Y-85869776D01*
X55660589Y-85696558D01*
X55749956Y-85504910D01*
X55804686Y-85300655D01*
X55823116Y-85090000D01*
X55804686Y-84879345D01*
X55784259Y-84803110D01*
X55785949Y-84732135D01*
X55825743Y-84673339D01*
X55891007Y-84645391D01*
X55905966Y-84644500D01*
X63497076Y-84644500D01*
X63565197Y-84664502D01*
G37*
%TD.AperFunction*%
%TA.AperFunction,Conductor*%
G36*
X87165812Y-94934603D02*
G01*
X87165814Y-94934603D01*
X87210052Y-94871427D01*
X87303968Y-94670025D01*
X87318293Y-94616563D01*
X87355244Y-94555940D01*
X87419105Y-94524919D01*
X87489600Y-94533347D01*
X87544347Y-94578550D01*
X87565964Y-94646175D01*
X87566000Y-94649174D01*
X87566000Y-96356895D01*
X87545998Y-96425016D01*
X87492342Y-96471509D01*
X87422068Y-96481613D01*
X87357488Y-96452119D01*
X87319104Y-96392393D01*
X87318294Y-96389507D01*
X87309555Y-96356895D01*
X87304440Y-96337804D01*
X87210488Y-96136324D01*
X87194658Y-96113717D01*
X87082974Y-95954215D01*
X86925784Y-95797025D01*
X86743676Y-95669511D01*
X86633035Y-95617919D01*
X86579749Y-95571002D01*
X86560288Y-95502725D01*
X86580830Y-95434765D01*
X86633035Y-95389529D01*
X86743425Y-95338053D01*
X86806603Y-95293814D01*
X86806603Y-95293812D01*
X86127791Y-94615000D01*
X86137569Y-94615000D01*
X86231421Y-94599339D01*
X86343251Y-94538820D01*
X86429371Y-94445269D01*
X86480448Y-94328823D01*
X86486538Y-94255329D01*
X87165812Y-94934603D01*
G37*
%TD.AperFunction*%
%TA.AperFunction,Conductor*%
G36*
X78485296Y-93366087D02*
G01*
X78485297Y-93366087D01*
X78520156Y-93316304D01*
X78609483Y-93124740D01*
X78618034Y-93092829D01*
X78654986Y-93032206D01*
X78718846Y-93001185D01*
X78789341Y-93009613D01*
X78844088Y-93054816D01*
X78861448Y-93092829D01*
X78870043Y-93124910D01*
X78959411Y-93316559D01*
X79080701Y-93489779D01*
X79230220Y-93639298D01*
X79403440Y-93760588D01*
X79403441Y-93760588D01*
X79403442Y-93760589D01*
X79595090Y-93849956D01*
X79624729Y-93857897D01*
X79626204Y-93858293D01*
X79686826Y-93895245D01*
X79717848Y-93959106D01*
X79709419Y-94029600D01*
X79664216Y-94084347D01*
X79626204Y-94101707D01*
X79595088Y-94110044D01*
X79403440Y-94199411D01*
X79230220Y-94320701D01*
X79080701Y-94470220D01*
X78959411Y-94643440D01*
X78870044Y-94835088D01*
X78861707Y-94866204D01*
X78824755Y-94926826D01*
X78760894Y-94957848D01*
X78690400Y-94949419D01*
X78635653Y-94904216D01*
X78618293Y-94866204D01*
X78609955Y-94835088D01*
X78520588Y-94643440D01*
X78406496Y-94480500D01*
X78399301Y-94470224D01*
X78399300Y-94470223D01*
X78399298Y-94470220D01*
X78249779Y-94320701D01*
X78076559Y-94199411D01*
X77884910Y-94110043D01*
X77852829Y-94101448D01*
X77792207Y-94064497D01*
X77761185Y-94000636D01*
X77769613Y-93930142D01*
X77814816Y-93875395D01*
X77852829Y-93858034D01*
X77884740Y-93849483D01*
X78076304Y-93760156D01*
X78126087Y-93725297D01*
X78126087Y-93725296D01*
X77509518Y-93108727D01*
X77595148Y-93095165D01*
X77708045Y-93037641D01*
X77797641Y-92948045D01*
X77855165Y-92835148D01*
X77868727Y-92749518D01*
X78485296Y-93366087D01*
G37*
%TD.AperFunction*%
%TA.AperFunction,Conductor*%
G36*
X87489600Y-91995277D02*
G01*
X87544347Y-92040480D01*
X87565964Y-92108106D01*
X87566000Y-92111104D01*
X87566000Y-93818825D01*
X87545998Y-93886946D01*
X87492342Y-93933439D01*
X87422068Y-93943543D01*
X87357488Y-93914049D01*
X87319104Y-93854323D01*
X87318293Y-93851436D01*
X87303968Y-93797975D01*
X87210051Y-93596571D01*
X87165815Y-93533395D01*
X87165813Y-93533395D01*
X86490392Y-94208816D01*
X86490949Y-94202102D01*
X86459734Y-94078838D01*
X86390187Y-93972388D01*
X86289843Y-93894287D01*
X86169578Y-93853000D01*
X86127790Y-93853000D01*
X86806603Y-93174186D01*
X86806603Y-93174184D01*
X86743426Y-93129947D01*
X86633034Y-93078470D01*
X86579749Y-93031552D01*
X86560288Y-92963275D01*
X86580830Y-92895315D01*
X86633032Y-92850082D01*
X86743677Y-92798488D01*
X86925781Y-92670977D01*
X87082977Y-92513781D01*
X87210488Y-92331677D01*
X87304440Y-92130196D01*
X87318294Y-92078490D01*
X87355245Y-92017870D01*
X87419106Y-91986849D01*
X87489600Y-91995277D01*
G37*
%TD.AperFunction*%
%TA.AperFunction,Conductor*%
G36*
X81794699Y-83205502D02*
G01*
X81815673Y-83222405D01*
X84827276Y-86234009D01*
X84861302Y-86296321D01*
X84859888Y-86355714D01*
X84850022Y-86392534D01*
X84830647Y-86614000D01*
X84850022Y-86835467D01*
X84871408Y-86915277D01*
X84907560Y-87050196D01*
X84968609Y-87181117D01*
X85001512Y-87251678D01*
X85129025Y-87433784D01*
X85286215Y-87590974D01*
X85468321Y-87718487D01*
X85468322Y-87718487D01*
X85468323Y-87718488D01*
X85578375Y-87769806D01*
X85631659Y-87816722D01*
X85651120Y-87884999D01*
X85630578Y-87952959D01*
X85578374Y-87998194D01*
X85548991Y-88011895D01*
X85468322Y-88049512D01*
X85286215Y-88177025D01*
X85129025Y-88334215D01*
X85001512Y-88516322D01*
X84951667Y-88623217D01*
X84907682Y-88717544D01*
X84907559Y-88717807D01*
X84850022Y-88932532D01*
X84830647Y-89154000D01*
X84850022Y-89375469D01*
X84850136Y-89375892D01*
X84850119Y-89376576D01*
X84850983Y-89386445D01*
X84849882Y-89386541D01*
X84848445Y-89446868D01*
X84808650Y-89505663D01*
X84743385Y-89533609D01*
X84728429Y-89534500D01*
X83588201Y-89534500D01*
X83520080Y-89514498D01*
X83473587Y-89460842D01*
X83462891Y-89395329D01*
X83463504Y-89389500D01*
X83443542Y-89199572D01*
X83384527Y-89017944D01*
X83384527Y-89017943D01*
X83289041Y-88852557D01*
X83161252Y-88710633D01*
X83006753Y-88598383D01*
X83006752Y-88598382D01*
X82832288Y-88520706D01*
X82645487Y-88481000D01*
X82454513Y-88481000D01*
X82329978Y-88507470D01*
X82267711Y-88520706D01*
X82093247Y-88598382D01*
X82055124Y-88626080D01*
X81988256Y-88649937D01*
X81919105Y-88633855D01*
X81891969Y-88613237D01*
X81238099Y-87959366D01*
X81204074Y-87897054D01*
X81205154Y-87851763D01*
X81203725Y-87851638D01*
X81206927Y-87815041D01*
X81223116Y-87630000D01*
X81204686Y-87419345D01*
X81149956Y-87215090D01*
X81060589Y-87023442D01*
X81031017Y-86981209D01*
X80939298Y-86850220D01*
X80789779Y-86700701D01*
X80616559Y-86579411D01*
X80424910Y-86490043D01*
X80393796Y-86481707D01*
X80333173Y-86444755D01*
X80302152Y-86380895D01*
X80310580Y-86310400D01*
X80355783Y-86255653D01*
X80393796Y-86238293D01*
X80424910Y-86229956D01*
X80495809Y-86196895D01*
X80616558Y-86140589D01*
X80789776Y-86019301D01*
X80939301Y-85869776D01*
X81002702Y-85779229D01*
X81058160Y-85734901D01*
X81105916Y-85725500D01*
X81218577Y-85725500D01*
X81286698Y-85745502D01*
X81307672Y-85762405D01*
X81349210Y-85803943D01*
X81383236Y-85866255D01*
X81385425Y-85879867D01*
X81402458Y-86041929D01*
X81461472Y-86223556D01*
X81556958Y-86388942D01*
X81646881Y-86488812D01*
X81684747Y-86530866D01*
X81839248Y-86643118D01*
X82013712Y-86720794D01*
X82200513Y-86760500D01*
X82200515Y-86760500D01*
X82391485Y-86760500D01*
X82391487Y-86760500D01*
X82578288Y-86720794D01*
X82752752Y-86643118D01*
X82907253Y-86530866D01*
X83035040Y-86388944D01*
X83130527Y-86223556D01*
X83189542Y-86041928D01*
X83209504Y-85852000D01*
X83189542Y-85662072D01*
X83138476Y-85504907D01*
X83130527Y-85480443D01*
X83035041Y-85315057D01*
X82907252Y-85173133D01*
X82767863Y-85071861D01*
X82752752Y-85060882D01*
X82578288Y-84983206D01*
X82391487Y-84943500D01*
X82391485Y-84943500D01*
X82338423Y-84943500D01*
X82270302Y-84923498D01*
X82249328Y-84906595D01*
X82042816Y-84700083D01*
X82029705Y-84683717D01*
X81977734Y-84634914D01*
X81974891Y-84632158D01*
X81957900Y-84615167D01*
X81955094Y-84612361D01*
X81951877Y-84609865D01*
X81942859Y-84602164D01*
X81910506Y-84571783D01*
X81910503Y-84571781D01*
X81892672Y-84561978D01*
X81876154Y-84551128D01*
X81860067Y-84538650D01*
X81819336Y-84521024D01*
X81808678Y-84515802D01*
X81769802Y-84494430D01*
X81750086Y-84489368D01*
X81731380Y-84482963D01*
X81712709Y-84474883D01*
X81668873Y-84467940D01*
X81657250Y-84465532D01*
X81614284Y-84454500D01*
X81614282Y-84454500D01*
X81593934Y-84454500D01*
X81574224Y-84452949D01*
X81554121Y-84449765D01*
X81554120Y-84449765D01*
X81509944Y-84453941D01*
X81498086Y-84454500D01*
X81105916Y-84454500D01*
X81037795Y-84434498D01*
X81002703Y-84400771D01*
X80939298Y-84310220D01*
X80789779Y-84160701D01*
X80616559Y-84039411D01*
X80424907Y-83950042D01*
X80393793Y-83941705D01*
X80333171Y-83904752D01*
X80302151Y-83840891D01*
X80310581Y-83770397D01*
X80355785Y-83715651D01*
X80393798Y-83698292D01*
X80415815Y-83692393D01*
X80424907Y-83689957D01*
X80424907Y-83689956D01*
X80424910Y-83689956D01*
X80616558Y-83600589D01*
X80789776Y-83479301D01*
X80939301Y-83329776D01*
X81002702Y-83239229D01*
X81058160Y-83194901D01*
X81105916Y-83185500D01*
X81726578Y-83185500D01*
X81794699Y-83205502D01*
G37*
%TD.AperFunction*%
%TA.AperFunction,Conductor*%
G36*
X81794699Y-80665502D02*
G01*
X81815673Y-80682405D01*
X84827276Y-83694009D01*
X84861302Y-83756321D01*
X84859888Y-83815714D01*
X84850022Y-83852534D01*
X84830647Y-84074000D01*
X84835558Y-84130134D01*
X84821568Y-84199738D01*
X84772168Y-84250730D01*
X84703042Y-84266920D01*
X84636137Y-84243167D01*
X84620942Y-84230209D01*
X82550816Y-82160083D01*
X82537705Y-82143717D01*
X82485734Y-82094914D01*
X82482891Y-82092158D01*
X82465900Y-82075167D01*
X82463094Y-82072361D01*
X82459877Y-82069865D01*
X82450859Y-82062164D01*
X82418506Y-82031783D01*
X82418503Y-82031781D01*
X82400672Y-82021978D01*
X82384154Y-82011128D01*
X82368067Y-81998650D01*
X82327336Y-81981024D01*
X82316678Y-81975802D01*
X82277802Y-81954430D01*
X82258086Y-81949368D01*
X82239380Y-81942963D01*
X82220709Y-81934883D01*
X82176873Y-81927940D01*
X82165250Y-81925532D01*
X82122284Y-81914500D01*
X82122282Y-81914500D01*
X82101934Y-81914500D01*
X82082224Y-81912949D01*
X82062121Y-81909765D01*
X82062120Y-81909765D01*
X82017944Y-81913941D01*
X82006086Y-81914500D01*
X81105916Y-81914500D01*
X81037795Y-81894498D01*
X81002703Y-81860771D01*
X80939298Y-81770220D01*
X80789779Y-81620701D01*
X80616559Y-81499411D01*
X80424910Y-81410043D01*
X80393796Y-81401707D01*
X80333173Y-81364755D01*
X80302152Y-81300895D01*
X80310580Y-81230400D01*
X80355783Y-81175653D01*
X80393796Y-81158293D01*
X80424910Y-81149956D01*
X80451776Y-81137428D01*
X80616558Y-81060589D01*
X80789776Y-80939301D01*
X80939301Y-80789776D01*
X81002702Y-80699229D01*
X81058160Y-80654901D01*
X81105916Y-80645500D01*
X81726578Y-80645500D01*
X81794699Y-80665502D01*
G37*
%TD.AperFunction*%
%TA.AperFunction,Conductor*%
G36*
X87165812Y-82234603D02*
G01*
X87165814Y-82234603D01*
X87210052Y-82171427D01*
X87303968Y-81970025D01*
X87318293Y-81916563D01*
X87355244Y-81855940D01*
X87419105Y-81824919D01*
X87489600Y-81833347D01*
X87544347Y-81878550D01*
X87565964Y-81946175D01*
X87566000Y-81949174D01*
X87566000Y-83656895D01*
X87545998Y-83725016D01*
X87492342Y-83771509D01*
X87422068Y-83781613D01*
X87357488Y-83752119D01*
X87319104Y-83692393D01*
X87318294Y-83689507D01*
X87309555Y-83656895D01*
X87304440Y-83637804D01*
X87210488Y-83436324D01*
X87210400Y-83436199D01*
X87082974Y-83254215D01*
X86925784Y-83097025D01*
X86743676Y-82969511D01*
X86633035Y-82917919D01*
X86579749Y-82871002D01*
X86560288Y-82802725D01*
X86580830Y-82734765D01*
X86633035Y-82689529D01*
X86743425Y-82638053D01*
X86806603Y-82593814D01*
X86806603Y-82593813D01*
X86127789Y-81915000D01*
X86137569Y-81915000D01*
X86231421Y-81899339D01*
X86343251Y-81838820D01*
X86429371Y-81745269D01*
X86480448Y-81628823D01*
X86486538Y-81555329D01*
X87165812Y-82234603D01*
G37*
%TD.AperFunction*%
%TA.AperFunction,Conductor*%
G36*
X87489600Y-79295277D02*
G01*
X87544347Y-79340480D01*
X87565964Y-79408106D01*
X87566000Y-79411104D01*
X87566000Y-81118825D01*
X87545998Y-81186946D01*
X87492342Y-81233439D01*
X87422068Y-81243543D01*
X87357488Y-81214049D01*
X87319104Y-81154323D01*
X87318293Y-81151436D01*
X87303968Y-81097975D01*
X87210051Y-80896571D01*
X87165815Y-80833395D01*
X87165813Y-80833395D01*
X86490392Y-81508816D01*
X86490949Y-81502102D01*
X86459734Y-81378838D01*
X86390187Y-81272388D01*
X86289843Y-81194287D01*
X86169578Y-81153000D01*
X86127790Y-81153000D01*
X86806603Y-80474185D01*
X86806603Y-80474184D01*
X86743426Y-80429947D01*
X86633034Y-80378470D01*
X86579749Y-80331552D01*
X86560288Y-80263275D01*
X86580830Y-80195315D01*
X86633032Y-80150082D01*
X86743677Y-80098488D01*
X86925781Y-79970977D01*
X87082977Y-79813781D01*
X87210488Y-79631677D01*
X87304440Y-79430196D01*
X87318294Y-79378490D01*
X87355245Y-79317870D01*
X87419106Y-79286849D01*
X87489600Y-79295277D01*
G37*
%TD.AperFunction*%
%TA.AperFunction,Conductor*%
G36*
X53085296Y-78126087D02*
G01*
X53085297Y-78126087D01*
X53120156Y-78076304D01*
X53209483Y-77884740D01*
X53218034Y-77852829D01*
X53254986Y-77792206D01*
X53318846Y-77761185D01*
X53389341Y-77769613D01*
X53444088Y-77814816D01*
X53461448Y-77852829D01*
X53470043Y-77884910D01*
X53559411Y-78076559D01*
X53680701Y-78249779D01*
X53830220Y-78399298D01*
X54003440Y-78520588D01*
X54003441Y-78520588D01*
X54003442Y-78520589D01*
X54195090Y-78609956D01*
X54224729Y-78617897D01*
X54226204Y-78618293D01*
X54286826Y-78655245D01*
X54317848Y-78719106D01*
X54309419Y-78789600D01*
X54264216Y-78844347D01*
X54226204Y-78861707D01*
X54195088Y-78870044D01*
X54003440Y-78959411D01*
X53830220Y-79080701D01*
X53680701Y-79230220D01*
X53559411Y-79403440D01*
X53470044Y-79595088D01*
X53461707Y-79626204D01*
X53424755Y-79686826D01*
X53360894Y-79717848D01*
X53290400Y-79709419D01*
X53235653Y-79664216D01*
X53218293Y-79626204D01*
X53216653Y-79620083D01*
X53209956Y-79595090D01*
X53120589Y-79403442D01*
X53109734Y-79387940D01*
X52999298Y-79230220D01*
X52849779Y-79080701D01*
X52676559Y-78959411D01*
X52484910Y-78870043D01*
X52452829Y-78861448D01*
X52392207Y-78824497D01*
X52361185Y-78760636D01*
X52369613Y-78690142D01*
X52414816Y-78635395D01*
X52452829Y-78618034D01*
X52484740Y-78609483D01*
X52676304Y-78520156D01*
X52726087Y-78485297D01*
X52726087Y-78485296D01*
X52109518Y-77868727D01*
X52195148Y-77855165D01*
X52308045Y-77797641D01*
X52397641Y-77708045D01*
X52455165Y-77595148D01*
X52468727Y-77509518D01*
X53085296Y-78126087D01*
G37*
%TD.AperFunction*%
%TA.AperFunction,Conductor*%
G36*
X79624835Y-77595148D02*
G01*
X79682359Y-77708045D01*
X79771955Y-77797641D01*
X79884852Y-77855165D01*
X79970482Y-77868727D01*
X79353912Y-78485296D01*
X79353912Y-78485297D01*
X79403691Y-78520153D01*
X79595260Y-78609483D01*
X79627171Y-78618034D01*
X79687793Y-78654986D01*
X79718815Y-78718847D01*
X79710386Y-78789341D01*
X79665183Y-78844088D01*
X79627170Y-78861448D01*
X79595090Y-78870043D01*
X79403440Y-78959411D01*
X79230220Y-79080701D01*
X79080701Y-79230220D01*
X78959411Y-79403440D01*
X78870044Y-79595088D01*
X78861707Y-79626204D01*
X78824755Y-79686826D01*
X78760894Y-79717848D01*
X78690400Y-79709419D01*
X78635653Y-79664216D01*
X78618293Y-79626204D01*
X78616653Y-79620083D01*
X78609956Y-79595090D01*
X78520589Y-79403442D01*
X78509734Y-79387940D01*
X78399298Y-79230220D01*
X78249779Y-79080701D01*
X78076559Y-78959411D01*
X77884907Y-78870042D01*
X77853793Y-78861705D01*
X77793171Y-78824752D01*
X77762151Y-78760891D01*
X77770581Y-78690397D01*
X77815785Y-78635651D01*
X77853798Y-78618292D01*
X77868380Y-78614385D01*
X77884907Y-78609957D01*
X77884907Y-78609956D01*
X77884910Y-78609956D01*
X78076558Y-78520589D01*
X78249776Y-78399301D01*
X78399301Y-78249776D01*
X78520589Y-78076558D01*
X78609956Y-77884910D01*
X78618552Y-77852828D01*
X78655500Y-77792208D01*
X78719360Y-77761185D01*
X78789855Y-77769612D01*
X78844603Y-77814813D01*
X78861964Y-77852826D01*
X78870514Y-77884736D01*
X78959846Y-78076308D01*
X78994701Y-78126086D01*
X78994702Y-78126086D01*
X79611272Y-77509516D01*
X79624835Y-77595148D01*
G37*
%TD.AperFunction*%
%TA.AperFunction,Conductor*%
G36*
X60034455Y-74254505D02*
G01*
X59955587Y-74307202D01*
X59981386Y-74281404D01*
X60043698Y-74247379D01*
X60070481Y-74244500D01*
X60084753Y-74244500D01*
X60034455Y-74254505D01*
G37*
%TD.AperFunction*%
%TA.AperFunction,Conductor*%
G36*
X60261641Y-74264502D02*
G01*
X60282616Y-74281405D01*
X60308415Y-74307204D01*
X60231074Y-74255526D01*
X60261641Y-74264502D01*
G37*
%TD.AperFunction*%
%TA.AperFunction,Conductor*%
G36*
X60223496Y-74253301D02*
G01*
X60179247Y-74244500D01*
X60193520Y-74244500D01*
X60223496Y-74253301D01*
G37*
%TD.AperFunction*%
%TA.AperFunction,Conductor*%
G36*
X108003300Y-54025672D02*
G01*
X108304319Y-54041449D01*
X108317436Y-54042827D01*
X108611911Y-54089467D01*
X108624811Y-54092209D01*
X108912799Y-54169374D01*
X108925332Y-54173447D01*
X109203672Y-54280292D01*
X109215719Y-54285656D01*
X109481368Y-54421010D01*
X109492785Y-54427601D01*
X109742838Y-54589988D01*
X109753495Y-54597732D01*
X109982126Y-54782873D01*
X109985197Y-54785360D01*
X109994998Y-54794185D01*
X110205814Y-55005001D01*
X110214639Y-55014802D01*
X110366938Y-55202876D01*
X110402263Y-55246498D01*
X110410013Y-55257164D01*
X110498575Y-55393537D01*
X110572394Y-55507208D01*
X110578989Y-55518631D01*
X110714343Y-55784280D01*
X110719707Y-55796327D01*
X110826550Y-56074661D01*
X110830626Y-56087205D01*
X110907790Y-56375188D01*
X110910532Y-56388088D01*
X110957172Y-56682563D01*
X110958550Y-56695679D01*
X110974327Y-56996698D01*
X110974500Y-57003293D01*
X110974500Y-104996706D01*
X110974327Y-105003301D01*
X110958550Y-105304320D01*
X110957172Y-105317436D01*
X110910532Y-105611911D01*
X110907790Y-105624811D01*
X110830626Y-105912794D01*
X110826550Y-105925338D01*
X110719707Y-106203672D01*
X110714343Y-106215719D01*
X110578989Y-106481368D01*
X110572394Y-106492791D01*
X110410015Y-106742832D01*
X110402263Y-106753501D01*
X110214639Y-106985197D01*
X110205814Y-106994998D01*
X109994998Y-107205814D01*
X109985197Y-107214639D01*
X109753501Y-107402263D01*
X109742832Y-107410015D01*
X109492791Y-107572394D01*
X109481368Y-107578989D01*
X109215719Y-107714343D01*
X109203672Y-107719707D01*
X108925338Y-107826550D01*
X108912794Y-107830626D01*
X108624811Y-107907790D01*
X108611911Y-107910532D01*
X108317436Y-107957172D01*
X108304320Y-107958550D01*
X108020488Y-107973426D01*
X108003299Y-107974327D01*
X107996707Y-107974500D01*
X65551446Y-107974500D01*
X65483325Y-107954498D01*
X65436832Y-107900842D01*
X65426728Y-107830568D01*
X65456222Y-107765988D01*
X65477385Y-107746564D01*
X65480752Y-107744118D01*
X65635253Y-107631866D01*
X65763040Y-107489944D01*
X65858527Y-107324556D01*
X65917542Y-107142928D01*
X65937504Y-106953000D01*
X65932417Y-106904605D01*
X65945189Y-106834770D01*
X65993690Y-106782923D01*
X66062523Y-106765528D01*
X66129833Y-106788109D01*
X66151363Y-106807126D01*
X66190747Y-106850866D01*
X66345248Y-106963118D01*
X66519712Y-107040794D01*
X66706513Y-107080500D01*
X66706515Y-107080500D01*
X66897485Y-107080500D01*
X66897487Y-107080500D01*
X67084288Y-107040794D01*
X67258752Y-106963118D01*
X67413253Y-106850866D01*
X67541040Y-106708944D01*
X67636527Y-106543556D01*
X67695542Y-106361928D01*
X67712575Y-106199863D01*
X67739587Y-106134210D01*
X67748780Y-106123951D01*
X68848751Y-105023980D01*
X68886593Y-104997972D01*
X69036752Y-104931118D01*
X69191253Y-104818866D01*
X69319040Y-104676944D01*
X69414527Y-104511556D01*
X69473542Y-104329928D01*
X69489233Y-104180638D01*
X93435500Y-104180638D01*
X93435860Y-104183986D01*
X93442011Y-104241200D01*
X93493111Y-104378205D01*
X93580738Y-104495261D01*
X93697794Y-104582888D01*
X93697795Y-104582888D01*
X93697796Y-104582889D01*
X93834799Y-104633989D01*
X93895362Y-104640500D01*
X93898731Y-104640500D01*
X97139269Y-104640500D01*
X97142638Y-104640500D01*
X97203201Y-104633989D01*
X97340204Y-104582889D01*
X97457261Y-104495261D01*
X97544889Y-104378204D01*
X97595989Y-104241201D01*
X97602500Y-104180638D01*
X97602500Y-103886000D01*
X98486000Y-103886000D01*
X98486000Y-104177222D01*
X98486359Y-104183936D01*
X98492505Y-104241093D01*
X98543554Y-104377962D01*
X98631095Y-104494904D01*
X98748037Y-104582445D01*
X98884906Y-104633494D01*
X98942063Y-104639640D01*
X98948777Y-104640000D01*
X100315000Y-104640000D01*
X100315000Y-103886000D01*
X100823000Y-103886000D01*
X100823000Y-104640000D01*
X102189223Y-104640000D01*
X102195936Y-104639640D01*
X102253093Y-104633494D01*
X102389962Y-104582445D01*
X102506904Y-104494904D01*
X102594445Y-104377962D01*
X102645494Y-104241093D01*
X102651640Y-104183936D01*
X102652000Y-104177222D01*
X102652000Y-104003300D01*
X103287084Y-104003300D01*
X103307079Y-104384832D01*
X103307766Y-104391370D01*
X103367534Y-104768734D01*
X103368905Y-104775184D01*
X103467787Y-105144215D01*
X103469829Y-105150498D01*
X103606739Y-105507164D01*
X103609421Y-105513188D01*
X103782873Y-105853605D01*
X103786169Y-105859314D01*
X103994248Y-106179727D01*
X103998130Y-106185070D01*
X104202876Y-106437911D01*
X104202877Y-106437912D01*
X105699994Y-104940794D01*
X105701570Y-104943365D01*
X105865130Y-105134870D01*
X106056635Y-105298430D01*
X106059203Y-105300004D01*
X104562086Y-106797121D01*
X104562087Y-106797122D01*
X104814929Y-107001869D01*
X104820272Y-107005751D01*
X105140685Y-107213830D01*
X105146394Y-107217126D01*
X105486811Y-107390578D01*
X105492835Y-107393260D01*
X105849501Y-107530170D01*
X105855784Y-107532212D01*
X106224815Y-107631094D01*
X106231265Y-107632465D01*
X106608629Y-107692233D01*
X106615167Y-107692920D01*
X106996699Y-107712916D01*
X107003301Y-107712916D01*
X107384832Y-107692920D01*
X107391370Y-107692233D01*
X107768734Y-107632465D01*
X107775184Y-107631094D01*
X108144215Y-107532212D01*
X108150498Y-107530170D01*
X108507164Y-107393260D01*
X108513188Y-107390578D01*
X108853605Y-107217126D01*
X108859314Y-107213830D01*
X109179728Y-107005751D01*
X109185064Y-107001874D01*
X109437912Y-106797121D01*
X107940795Y-105300004D01*
X107943365Y-105298430D01*
X108134870Y-105134870D01*
X108298430Y-104943365D01*
X108300004Y-104940795D01*
X109797121Y-106437912D01*
X110001874Y-106185064D01*
X110005751Y-106179728D01*
X110213830Y-105859314D01*
X110217126Y-105853605D01*
X110390578Y-105513188D01*
X110393260Y-105507164D01*
X110530170Y-105150498D01*
X110532212Y-105144215D01*
X110631094Y-104775184D01*
X110632465Y-104768734D01*
X110692233Y-104391370D01*
X110692920Y-104384832D01*
X110712916Y-104003300D01*
X110712916Y-103996699D01*
X110692920Y-103615167D01*
X110692233Y-103608629D01*
X110632465Y-103231265D01*
X110631094Y-103224815D01*
X110532212Y-102855784D01*
X110530170Y-102849501D01*
X110393260Y-102492835D01*
X110390578Y-102486811D01*
X110217127Y-102146397D01*
X110213830Y-102140686D01*
X110005753Y-101820275D01*
X110001865Y-101814924D01*
X109797122Y-101562087D01*
X109797121Y-101562086D01*
X108300004Y-103059203D01*
X108298430Y-103056635D01*
X108134870Y-102865130D01*
X107943365Y-102701570D01*
X107940795Y-102699995D01*
X109437912Y-101202877D01*
X109437911Y-101202876D01*
X109185070Y-100998130D01*
X109179727Y-100994248D01*
X108859314Y-100786169D01*
X108853605Y-100782873D01*
X108513188Y-100609421D01*
X108507164Y-100606739D01*
X108150498Y-100469829D01*
X108144215Y-100467787D01*
X107775184Y-100368905D01*
X107768734Y-100367534D01*
X107391370Y-100307766D01*
X107384832Y-100307079D01*
X107003301Y-100287084D01*
X106996699Y-100287084D01*
X106615167Y-100307079D01*
X106608629Y-100307766D01*
X106231265Y-100367534D01*
X106224815Y-100368905D01*
X105855784Y-100467787D01*
X105849501Y-100469829D01*
X105492835Y-100606739D01*
X105486811Y-100609421D01*
X105146397Y-100782872D01*
X105140686Y-100786169D01*
X104820267Y-100994251D01*
X104814938Y-100998123D01*
X104562086Y-101202877D01*
X106059204Y-102699995D01*
X106056635Y-102701570D01*
X105865130Y-102865130D01*
X105701570Y-103056635D01*
X105699995Y-103059204D01*
X104202877Y-101562086D01*
X103998123Y-101814938D01*
X103994251Y-101820267D01*
X103786169Y-102140686D01*
X103782872Y-102146397D01*
X103609421Y-102486811D01*
X103606739Y-102492835D01*
X103469829Y-102849501D01*
X103467787Y-102855784D01*
X103368905Y-103224815D01*
X103367534Y-103231265D01*
X103307766Y-103608629D01*
X103307079Y-103615167D01*
X103287084Y-103996699D01*
X103287084Y-104003300D01*
X102652000Y-104003300D01*
X102652000Y-103886000D01*
X100823000Y-103886000D01*
X100315000Y-103886000D01*
X98486000Y-103886000D01*
X97602500Y-103886000D01*
X97602500Y-103378000D01*
X98486000Y-103378000D01*
X100315000Y-103378000D01*
X100315000Y-102624000D01*
X100823000Y-102624000D01*
X100823000Y-103378000D01*
X102652000Y-103378000D01*
X102652000Y-103086777D01*
X102651640Y-103080063D01*
X102645494Y-103022906D01*
X102594445Y-102886037D01*
X102506904Y-102769095D01*
X102389962Y-102681554D01*
X102253093Y-102630505D01*
X102195936Y-102624359D01*
X102189223Y-102624000D01*
X100823000Y-102624000D01*
X100315000Y-102624000D01*
X98948777Y-102624000D01*
X98942063Y-102624359D01*
X98884906Y-102630505D01*
X98748037Y-102681554D01*
X98631095Y-102769095D01*
X98543554Y-102886037D01*
X98492505Y-103022906D01*
X98486359Y-103080063D01*
X98486000Y-103086777D01*
X98486000Y-103378000D01*
X97602500Y-103378000D01*
X97602500Y-103083362D01*
X97595989Y-103022799D01*
X97544889Y-102885796D01*
X97529419Y-102865130D01*
X97457261Y-102768738D01*
X97340205Y-102681111D01*
X97271702Y-102655561D01*
X97203201Y-102630011D01*
X97142638Y-102623500D01*
X93895362Y-102623500D01*
X93892013Y-102623859D01*
X93892013Y-102623860D01*
X93834799Y-102630011D01*
X93697794Y-102681111D01*
X93580738Y-102768738D01*
X93493111Y-102885794D01*
X93459170Y-102976794D01*
X93442011Y-103022799D01*
X93435500Y-103083362D01*
X93435500Y-104180638D01*
X69489233Y-104180638D01*
X69493504Y-104140000D01*
X69473542Y-103950072D01*
X69414527Y-103768444D01*
X69414527Y-103768443D01*
X69319041Y-103603057D01*
X69194131Y-103464330D01*
X69191253Y-103461134D01*
X69160258Y-103438615D01*
X69114002Y-103405007D01*
X69036752Y-103348882D01*
X68862288Y-103271206D01*
X68675487Y-103231500D01*
X68484513Y-103231500D01*
X68471270Y-103231500D01*
X68471270Y-103229644D01*
X68416642Y-103225474D01*
X68360012Y-103182654D01*
X68352122Y-103170630D01*
X68306495Y-103091601D01*
X68178708Y-102949679D01*
X68024207Y-102837427D01*
X67849743Y-102759751D01*
X67662942Y-102720045D01*
X67471968Y-102720045D01*
X67347433Y-102746515D01*
X67285166Y-102759751D01*
X67110701Y-102837428D01*
X66956202Y-102949678D01*
X66828413Y-103091602D01*
X66732927Y-103256988D01*
X66673913Y-103438615D01*
X66656880Y-103600676D01*
X66629866Y-103666333D01*
X66620665Y-103676600D01*
X64634078Y-105663187D01*
X64617711Y-105676301D01*
X64568928Y-105728249D01*
X64566179Y-105731086D01*
X64549158Y-105748107D01*
X64549144Y-105748122D01*
X64546361Y-105750906D01*
X64543946Y-105754018D01*
X64543923Y-105754045D01*
X64543841Y-105754152D01*
X64536156Y-105763148D01*
X64505781Y-105795496D01*
X64495974Y-105813333D01*
X64485125Y-105829849D01*
X64472649Y-105845933D01*
X64455022Y-105886664D01*
X64449804Y-105897316D01*
X64428430Y-105936197D01*
X64423370Y-105955906D01*
X64416967Y-105974608D01*
X64408883Y-105993289D01*
X64401941Y-106037119D01*
X64399534Y-106048740D01*
X64388500Y-106091717D01*
X64388500Y-106112065D01*
X64386949Y-106131775D01*
X64383764Y-106151878D01*
X64387941Y-106196054D01*
X64388500Y-106207915D01*
X64388499Y-106252699D01*
X64368495Y-106320819D01*
X64356136Y-106337006D01*
X64284958Y-106416057D01*
X64189472Y-106581443D01*
X64130458Y-106763070D01*
X64110496Y-106953000D01*
X64130458Y-107142929D01*
X64189472Y-107324556D01*
X64284958Y-107489942D01*
X64323018Y-107532212D01*
X64412747Y-107631866D01*
X64533649Y-107719707D01*
X64570615Y-107746564D01*
X64613969Y-107802786D01*
X64620044Y-107873522D01*
X64586913Y-107936314D01*
X64525093Y-107971226D01*
X64496554Y-107974500D01*
X47003293Y-107974500D01*
X46996700Y-107974327D01*
X46978512Y-107973373D01*
X46695679Y-107958550D01*
X46682563Y-107957172D01*
X46388088Y-107910532D01*
X46375188Y-107907790D01*
X46087205Y-107830626D01*
X46074661Y-107826550D01*
X45796327Y-107719707D01*
X45784280Y-107714343D01*
X45518631Y-107578989D01*
X45507208Y-107572394D01*
X45380247Y-107489944D01*
X45257164Y-107410013D01*
X45246498Y-107402263D01*
X45235380Y-107393260D01*
X45014802Y-107214639D01*
X45005001Y-107205814D01*
X44794185Y-106994998D01*
X44785360Y-106985197D01*
X44767479Y-106963116D01*
X44597732Y-106753495D01*
X44589988Y-106742838D01*
X44427601Y-106492785D01*
X44421010Y-106481368D01*
X44285656Y-106215719D01*
X44280292Y-106203672D01*
X44263003Y-106158633D01*
X44173447Y-105925332D01*
X44169373Y-105912794D01*
X44163831Y-105892112D01*
X44092209Y-105624811D01*
X44089467Y-105611911D01*
X44042826Y-105317435D01*
X44041449Y-105304319D01*
X44025673Y-105003300D01*
X44025500Y-104996706D01*
X44025500Y-104003300D01*
X44287084Y-104003300D01*
X44307079Y-104384832D01*
X44307766Y-104391370D01*
X44367534Y-104768734D01*
X44368905Y-104775184D01*
X44467787Y-105144215D01*
X44469829Y-105150498D01*
X44606739Y-105507164D01*
X44609421Y-105513188D01*
X44782873Y-105853605D01*
X44786169Y-105859314D01*
X44994248Y-106179727D01*
X44998130Y-106185070D01*
X45202876Y-106437911D01*
X45202877Y-106437912D01*
X46699994Y-104940794D01*
X46701570Y-104943365D01*
X46865130Y-105134870D01*
X47056635Y-105298430D01*
X47059203Y-105300004D01*
X45562086Y-106797121D01*
X45562087Y-106797122D01*
X45814929Y-107001869D01*
X45820272Y-107005751D01*
X46140685Y-107213830D01*
X46146394Y-107217126D01*
X46486811Y-107390578D01*
X46492835Y-107393260D01*
X46849501Y-107530170D01*
X46855784Y-107532212D01*
X47224815Y-107631094D01*
X47231265Y-107632465D01*
X47608629Y-107692233D01*
X47615167Y-107692920D01*
X47996699Y-107712916D01*
X48003301Y-107712916D01*
X48384832Y-107692920D01*
X48391370Y-107692233D01*
X48768734Y-107632465D01*
X48775184Y-107631094D01*
X49144215Y-107532212D01*
X49150498Y-107530170D01*
X49507164Y-107393260D01*
X49513188Y-107390578D01*
X49853605Y-107217126D01*
X49859314Y-107213830D01*
X50179728Y-107005751D01*
X50185064Y-107001874D01*
X50437912Y-106797121D01*
X48940795Y-105300004D01*
X48943365Y-105298430D01*
X49134870Y-105134870D01*
X49298430Y-104943365D01*
X49300004Y-104940795D01*
X50797121Y-106437912D01*
X51001874Y-106185064D01*
X51005751Y-106179728D01*
X51213830Y-105859314D01*
X51217126Y-105853605D01*
X51390578Y-105513188D01*
X51393260Y-105507164D01*
X51530170Y-105150498D01*
X51532212Y-105144215D01*
X51631094Y-104775184D01*
X51632465Y-104768734D01*
X51692233Y-104391370D01*
X51692920Y-104384832D01*
X51712916Y-104003300D01*
X51712916Y-103996699D01*
X51692920Y-103615167D01*
X51692233Y-103608629D01*
X51667034Y-103449525D01*
X51676134Y-103379114D01*
X51721856Y-103324800D01*
X51789684Y-103303827D01*
X51858083Y-103322854D01*
X51880578Y-103340719D01*
X51910082Y-103370223D01*
X51917019Y-103377747D01*
X51950135Y-103416734D01*
X52011401Y-103463307D01*
X52014031Y-103465362D01*
X52074044Y-103513602D01*
X52074046Y-103513603D01*
X52074458Y-103513934D01*
X52092686Y-103525240D01*
X52093162Y-103525460D01*
X52093166Y-103525463D01*
X52163002Y-103557772D01*
X52166058Y-103559237D01*
X52235477Y-103593666D01*
X52255705Y-103600787D01*
X52256222Y-103600900D01*
X52256227Y-103600903D01*
X52331417Y-103617452D01*
X52334683Y-103618219D01*
X52409866Y-103636917D01*
X52431165Y-103639525D01*
X52431692Y-103639525D01*
X52508632Y-103639525D01*
X52512043Y-103639571D01*
X52515252Y-103639657D01*
X52588957Y-103641654D01*
X52588958Y-103641653D01*
X52589486Y-103641668D01*
X52612033Y-103639525D01*
X55534289Y-103639525D01*
X55585537Y-103650418D01*
X55613517Y-103662875D01*
X55657189Y-103682319D01*
X55843990Y-103722025D01*
X55843992Y-103722025D01*
X56034962Y-103722025D01*
X56034964Y-103722025D01*
X56221765Y-103682319D01*
X56396229Y-103604643D01*
X56550730Y-103492391D01*
X56678517Y-103350469D01*
X56774004Y-103185081D01*
X56833019Y-103003453D01*
X56852981Y-102813525D01*
X56833019Y-102623597D01*
X56774004Y-102441969D01*
X56774004Y-102441968D01*
X56678518Y-102276582D01*
X56550729Y-102134658D01*
X56424420Y-102042889D01*
X56396229Y-102022407D01*
X56221765Y-101944731D01*
X56034964Y-101905025D01*
X55843990Y-101905025D01*
X55657189Y-101944731D01*
X55657187Y-101944731D01*
X55657186Y-101944732D01*
X55585537Y-101976632D01*
X55534289Y-101987525D01*
X52915856Y-101987525D01*
X52847735Y-101967523D01*
X52826761Y-101950620D01*
X52517483Y-101641342D01*
X52483457Y-101579030D01*
X52488522Y-101508215D01*
X52531069Y-101451379D01*
X52553328Y-101438052D01*
X52676558Y-101380589D01*
X52849776Y-101259301D01*
X52999301Y-101109776D01*
X53120589Y-100936558D01*
X53209956Y-100744910D01*
X53218292Y-100713796D01*
X53255245Y-100653173D01*
X53319105Y-100622152D01*
X53389600Y-100630580D01*
X53444347Y-100675783D01*
X53461707Y-100713796D01*
X53470043Y-100744910D01*
X53559411Y-100936559D01*
X53680701Y-101109779D01*
X53830220Y-101259298D01*
X54003440Y-101380588D01*
X54003441Y-101380588D01*
X54003442Y-101380589D01*
X54195090Y-101469956D01*
X54399345Y-101524686D01*
X54610000Y-101543116D01*
X54820655Y-101524686D01*
X55024910Y-101469956D01*
X55216558Y-101380589D01*
X55389776Y-101259301D01*
X55539301Y-101109776D01*
X55660589Y-100936558D01*
X55749956Y-100744910D01*
X55804686Y-100540655D01*
X55823116Y-100330000D01*
X55804686Y-100119345D01*
X55749956Y-99915090D01*
X55660589Y-99723442D01*
X55539301Y-99550224D01*
X55539300Y-99550223D01*
X55539298Y-99550220D01*
X55389779Y-99400701D01*
X55216559Y-99279411D01*
X55024907Y-99190042D01*
X54993793Y-99181705D01*
X54933171Y-99144752D01*
X54902151Y-99080891D01*
X54910581Y-99010397D01*
X54955785Y-98955651D01*
X54993798Y-98938292D01*
X55008380Y-98934385D01*
X55024907Y-98929957D01*
X55024907Y-98929956D01*
X55024910Y-98929956D01*
X55216558Y-98840589D01*
X55389776Y-98719301D01*
X55539301Y-98569776D01*
X55602702Y-98479229D01*
X55658160Y-98434901D01*
X55705916Y-98425500D01*
X70550578Y-98425500D01*
X70618699Y-98445502D01*
X70639673Y-98462405D01*
X75691184Y-103513917D01*
X75704298Y-103530285D01*
X75756265Y-103579085D01*
X75759107Y-103581840D01*
X75778906Y-103601639D01*
X75782123Y-103604134D01*
X75791152Y-103611846D01*
X75823494Y-103642217D01*
X75841327Y-103652021D01*
X75857848Y-103662872D01*
X75873933Y-103675349D01*
X75914657Y-103692972D01*
X75925309Y-103698191D01*
X75950189Y-103711868D01*
X75964197Y-103719569D01*
X75983918Y-103724632D01*
X76002609Y-103731032D01*
X76021292Y-103739117D01*
X76065114Y-103746057D01*
X76076741Y-103748465D01*
X76119717Y-103759500D01*
X76119718Y-103759500D01*
X76140066Y-103759500D01*
X76159775Y-103761050D01*
X76179879Y-103764235D01*
X76224055Y-103760059D01*
X76235914Y-103759500D01*
X88025931Y-103759500D01*
X88046769Y-103761800D01*
X88049716Y-103761707D01*
X88049719Y-103761708D01*
X88118012Y-103759561D01*
X88121969Y-103759500D01*
X88146027Y-103759500D01*
X88149983Y-103759500D01*
X88153995Y-103758992D01*
X88154004Y-103758992D01*
X88165848Y-103758058D01*
X88210205Y-103756665D01*
X88229744Y-103750987D01*
X88249102Y-103746978D01*
X88269299Y-103744427D01*
X88310555Y-103728092D01*
X88321765Y-103724253D01*
X88364393Y-103711869D01*
X88381907Y-103701510D01*
X88399667Y-103692810D01*
X88418586Y-103685320D01*
X88418586Y-103685319D01*
X88418588Y-103685319D01*
X88454499Y-103659227D01*
X88464399Y-103652724D01*
X88502598Y-103630134D01*
X88516986Y-103615745D01*
X88532021Y-103602904D01*
X88548487Y-103590942D01*
X88576788Y-103556729D01*
X88584757Y-103547973D01*
X90062141Y-102070589D01*
X90124451Y-102036565D01*
X90195266Y-102041630D01*
X90252102Y-102084177D01*
X90276544Y-102146515D01*
X90292458Y-102297929D01*
X90351472Y-102479556D01*
X90446958Y-102644942D01*
X90446960Y-102644944D01*
X90574747Y-102786866D01*
X90729248Y-102899118D01*
X90903712Y-102976794D01*
X91090513Y-103016500D01*
X91090515Y-103016500D01*
X91281485Y-103016500D01*
X91281487Y-103016500D01*
X91468288Y-102976794D01*
X91642752Y-102899118D01*
X91797253Y-102786866D01*
X91925040Y-102644944D01*
X92020527Y-102479556D01*
X92079542Y-102297928D01*
X92099504Y-102108000D01*
X92089971Y-102017305D01*
X92102743Y-101947471D01*
X92151244Y-101895624D01*
X92220077Y-101878229D01*
X92266527Y-101889030D01*
X92427712Y-101960794D01*
X92614513Y-102000500D01*
X92614515Y-102000500D01*
X92805485Y-102000500D01*
X92805487Y-102000500D01*
X92992288Y-101960794D01*
X93166752Y-101883118D01*
X93302546Y-101784457D01*
X93369411Y-101760600D01*
X93438563Y-101776680D01*
X93488043Y-101827593D01*
X93492332Y-101837165D01*
X93580738Y-101955261D01*
X93697794Y-102042888D01*
X93697795Y-102042888D01*
X93697796Y-102042889D01*
X93834799Y-102093989D01*
X93895362Y-102100500D01*
X93898731Y-102100500D01*
X97139269Y-102100500D01*
X97142638Y-102100500D01*
X97203201Y-102093989D01*
X97340204Y-102042889D01*
X97457261Y-101955261D01*
X97544889Y-101838204D01*
X97595989Y-101701201D01*
X97602500Y-101640638D01*
X97602500Y-101346000D01*
X98486000Y-101346000D01*
X98486000Y-101637222D01*
X98486359Y-101643936D01*
X98492505Y-101701093D01*
X98543554Y-101837962D01*
X98631095Y-101954904D01*
X98748037Y-102042445D01*
X98884906Y-102093494D01*
X98942063Y-102099640D01*
X98948777Y-102100000D01*
X100315000Y-102100000D01*
X100315000Y-101346000D01*
X100823000Y-101346000D01*
X100823000Y-102100000D01*
X102189223Y-102100000D01*
X102195936Y-102099640D01*
X102253093Y-102093494D01*
X102389962Y-102042445D01*
X102506904Y-101954904D01*
X102594445Y-101837962D01*
X102645494Y-101701093D01*
X102651640Y-101643936D01*
X102652000Y-101637222D01*
X102652000Y-101346000D01*
X100823000Y-101346000D01*
X100315000Y-101346000D01*
X98486000Y-101346000D01*
X97602500Y-101346000D01*
X97602500Y-100838000D01*
X98486000Y-100838000D01*
X100315000Y-100838000D01*
X100315000Y-100084000D01*
X100823000Y-100084000D01*
X100823000Y-100838000D01*
X102652000Y-100838000D01*
X102652000Y-100546777D01*
X102651640Y-100540063D01*
X102645494Y-100482906D01*
X102594445Y-100346037D01*
X102506904Y-100229095D01*
X102389962Y-100141554D01*
X102253093Y-100090505D01*
X102195936Y-100084359D01*
X102189223Y-100084000D01*
X100823000Y-100084000D01*
X100315000Y-100084000D01*
X98948777Y-100084000D01*
X98942063Y-100084359D01*
X98884906Y-100090505D01*
X98748037Y-100141554D01*
X98631095Y-100229095D01*
X98543554Y-100346037D01*
X98492505Y-100482906D01*
X98486359Y-100540063D01*
X98486000Y-100546777D01*
X98486000Y-100838000D01*
X97602500Y-100838000D01*
X97602500Y-100543362D01*
X97595989Y-100482799D01*
X97544889Y-100345796D01*
X97534772Y-100332281D01*
X97457261Y-100228738D01*
X97340205Y-100141111D01*
X97271702Y-100115561D01*
X97203201Y-100090011D01*
X97142638Y-100083500D01*
X93895362Y-100083500D01*
X93892015Y-100083859D01*
X93892011Y-100083860D01*
X93821754Y-100091413D01*
X93751885Y-100078807D01*
X93699924Y-100030428D01*
X93682366Y-99961637D01*
X93704788Y-99894273D01*
X93719184Y-99877046D01*
X93998827Y-99597404D01*
X94061140Y-99563379D01*
X94087923Y-99560500D01*
X97139269Y-99560500D01*
X97142638Y-99560500D01*
X97203201Y-99553989D01*
X97340204Y-99502889D01*
X97457261Y-99415261D01*
X97544889Y-99298204D01*
X97595989Y-99161201D01*
X97602500Y-99100638D01*
X97602500Y-98806000D01*
X98486000Y-98806000D01*
X98486000Y-99097222D01*
X98486359Y-99103936D01*
X98492505Y-99161093D01*
X98543554Y-99297962D01*
X98631095Y-99414904D01*
X98748037Y-99502445D01*
X98884906Y-99553494D01*
X98942063Y-99559640D01*
X98948777Y-99560000D01*
X100315000Y-99560000D01*
X100315000Y-98806000D01*
X100823000Y-98806000D01*
X100823000Y-99560000D01*
X102189223Y-99560000D01*
X102195936Y-99559640D01*
X102253093Y-99553494D01*
X102389962Y-99502445D01*
X102506904Y-99414904D01*
X102594445Y-99297962D01*
X102645494Y-99161093D01*
X102651640Y-99103936D01*
X102652000Y-99097222D01*
X102652000Y-98806000D01*
X100823000Y-98806000D01*
X100315000Y-98806000D01*
X98486000Y-98806000D01*
X97602500Y-98806000D01*
X97602500Y-98298000D01*
X98486000Y-98298000D01*
X100315000Y-98298000D01*
X100315000Y-97544000D01*
X100823000Y-97544000D01*
X100823000Y-98298000D01*
X102652000Y-98298000D01*
X102652000Y-98006777D01*
X102651640Y-98000063D01*
X102645494Y-97942906D01*
X102594445Y-97806037D01*
X102506904Y-97689095D01*
X102389962Y-97601554D01*
X102253093Y-97550505D01*
X102195936Y-97544359D01*
X102189223Y-97544000D01*
X100823000Y-97544000D01*
X100315000Y-97544000D01*
X98948777Y-97544000D01*
X98942063Y-97544359D01*
X98884906Y-97550505D01*
X98748037Y-97601554D01*
X98631095Y-97689095D01*
X98543554Y-97806037D01*
X98492505Y-97942906D01*
X98486359Y-98000063D01*
X98486000Y-98006777D01*
X98486000Y-98298000D01*
X97602500Y-98298000D01*
X97602500Y-98003362D01*
X97595989Y-97942799D01*
X97544889Y-97805796D01*
X97544888Y-97805794D01*
X97457261Y-97688738D01*
X97340205Y-97601111D01*
X97271702Y-97575561D01*
X97203201Y-97550011D01*
X97142638Y-97543500D01*
X93895362Y-97543500D01*
X93892013Y-97543859D01*
X93892013Y-97543860D01*
X93834799Y-97550011D01*
X93697794Y-97601111D01*
X93580738Y-97688738D01*
X93493111Y-97805794D01*
X93472189Y-97861889D01*
X93442011Y-97942799D01*
X93435500Y-98003362D01*
X93435500Y-98006730D01*
X93435500Y-98311074D01*
X93415498Y-98379195D01*
X93398595Y-98400169D01*
X92798595Y-99000169D01*
X92736283Y-99034195D01*
X92665468Y-99029130D01*
X92608632Y-98986583D01*
X92583821Y-98920063D01*
X92583500Y-98911074D01*
X92583500Y-97343423D01*
X92603502Y-97275302D01*
X92620405Y-97254327D01*
X93190329Y-96684404D01*
X93252641Y-96650379D01*
X93279424Y-96647500D01*
X93364337Y-96647500D01*
X93432458Y-96667502D01*
X93478951Y-96721158D01*
X93482393Y-96729468D01*
X93493111Y-96758205D01*
X93580738Y-96875261D01*
X93697794Y-96962888D01*
X93697795Y-96962888D01*
X93697796Y-96962889D01*
X93834799Y-97013989D01*
X93895362Y-97020500D01*
X93898731Y-97020500D01*
X97139269Y-97020500D01*
X97142638Y-97020500D01*
X97203201Y-97013989D01*
X97340204Y-96962889D01*
X97457261Y-96875261D01*
X97544889Y-96758204D01*
X97595989Y-96621201D01*
X97602500Y-96560638D01*
X97602500Y-96266000D01*
X98486000Y-96266000D01*
X98486000Y-96557222D01*
X98486359Y-96563936D01*
X98492505Y-96621093D01*
X98543554Y-96757962D01*
X98631095Y-96874904D01*
X98748037Y-96962445D01*
X98884906Y-97013494D01*
X98942063Y-97019640D01*
X98948777Y-97020000D01*
X100315000Y-97020000D01*
X100315000Y-96266000D01*
X100823000Y-96266000D01*
X100823000Y-97020000D01*
X102189223Y-97020000D01*
X102195936Y-97019640D01*
X102253093Y-97013494D01*
X102389962Y-96962445D01*
X102506904Y-96874904D01*
X102594445Y-96757962D01*
X102645494Y-96621093D01*
X102651640Y-96563936D01*
X102652000Y-96557222D01*
X102652000Y-96266000D01*
X100823000Y-96266000D01*
X100315000Y-96266000D01*
X98486000Y-96266000D01*
X97602500Y-96266000D01*
X97602500Y-95758000D01*
X98486000Y-95758000D01*
X100315000Y-95758000D01*
X100315000Y-95004000D01*
X100823000Y-95004000D01*
X100823000Y-95758000D01*
X102652000Y-95758000D01*
X102652000Y-95466777D01*
X102651640Y-95460063D01*
X102645494Y-95402906D01*
X102594445Y-95266037D01*
X102506904Y-95149095D01*
X102389962Y-95061554D01*
X102253093Y-95010505D01*
X102195936Y-95004359D01*
X102189223Y-95004000D01*
X100823000Y-95004000D01*
X100315000Y-95004000D01*
X98948777Y-95004000D01*
X98942063Y-95004359D01*
X98884906Y-95010505D01*
X98748037Y-95061554D01*
X98631095Y-95149095D01*
X98543554Y-95266037D01*
X98492505Y-95402906D01*
X98486359Y-95460063D01*
X98486000Y-95466777D01*
X98486000Y-95758000D01*
X97602500Y-95758000D01*
X97602500Y-95463362D01*
X97595989Y-95402799D01*
X97544889Y-95265796D01*
X97544888Y-95265794D01*
X97457261Y-95148738D01*
X97340205Y-95061111D01*
X97245082Y-95025632D01*
X97203201Y-95010011D01*
X97142638Y-95003500D01*
X93895362Y-95003500D01*
X93892013Y-95003859D01*
X93892013Y-95003860D01*
X93834799Y-95010011D01*
X93697794Y-95061111D01*
X93580738Y-95148738D01*
X93493111Y-95265794D01*
X93483821Y-95290700D01*
X93482662Y-95293812D01*
X93482393Y-95294532D01*
X93439847Y-95351368D01*
X93373327Y-95376179D01*
X93364337Y-95376500D01*
X93048074Y-95376500D01*
X93027228Y-95374198D01*
X92955970Y-95376438D01*
X92952012Y-95376500D01*
X92924017Y-95376500D01*
X92920097Y-95376995D01*
X92920066Y-95376997D01*
X92919963Y-95377011D01*
X92908154Y-95377940D01*
X92863794Y-95379334D01*
X92844243Y-95385014D01*
X92824894Y-95389021D01*
X92804699Y-95391573D01*
X92763441Y-95407907D01*
X92752217Y-95411750D01*
X92709605Y-95424131D01*
X92692084Y-95434492D01*
X92674341Y-95443184D01*
X92655415Y-95450678D01*
X92619513Y-95476762D01*
X92609597Y-95483276D01*
X92571399Y-95505867D01*
X92557011Y-95520255D01*
X92541984Y-95533089D01*
X92525515Y-95545055D01*
X92497222Y-95579255D01*
X92489234Y-95588032D01*
X91782593Y-96294673D01*
X91720283Y-96328697D01*
X91649468Y-96323633D01*
X91592632Y-96281086D01*
X91567821Y-96214566D01*
X91567500Y-96205578D01*
X91567500Y-96179298D01*
X91567500Y-96073418D01*
X91587501Y-96005301D01*
X91604395Y-95984336D01*
X93337811Y-94250919D01*
X93400121Y-94216895D01*
X93470936Y-94221960D01*
X93527772Y-94264507D01*
X93580738Y-94335261D01*
X93697794Y-94422888D01*
X93697795Y-94422888D01*
X93697796Y-94422889D01*
X93834799Y-94473989D01*
X93895362Y-94480500D01*
X93898731Y-94480500D01*
X97139269Y-94480500D01*
X97142638Y-94480500D01*
X97203201Y-94473989D01*
X97340204Y-94422889D01*
X97457261Y-94335261D01*
X97544889Y-94218204D01*
X97595989Y-94081201D01*
X97602500Y-94020638D01*
X98485500Y-94020638D01*
X98492011Y-94081201D01*
X98502481Y-94109271D01*
X98543111Y-94218205D01*
X98630738Y-94335261D01*
X98747794Y-94422888D01*
X98747795Y-94422888D01*
X98747796Y-94422889D01*
X98884799Y-94473989D01*
X98945362Y-94480500D01*
X98948731Y-94480500D01*
X102189269Y-94480500D01*
X102192638Y-94480500D01*
X102253201Y-94473989D01*
X102390204Y-94422889D01*
X102507261Y-94335261D01*
X102507262Y-94335258D01*
X102521763Y-94324404D01*
X102524553Y-94328132D01*
X102554180Y-94305949D01*
X102598225Y-94298000D01*
X103226812Y-94298000D01*
X103278060Y-94308893D01*
X103304578Y-94320699D01*
X103349712Y-94340794D01*
X103536513Y-94380500D01*
X103536515Y-94380500D01*
X103727485Y-94380500D01*
X103727487Y-94380500D01*
X103914288Y-94340794D01*
X104088752Y-94263118D01*
X104243253Y-94150866D01*
X104371040Y-94008944D01*
X104466527Y-93843556D01*
X104525542Y-93661928D01*
X104545504Y-93472000D01*
X104525542Y-93282072D01*
X104474476Y-93124909D01*
X104466527Y-93100443D01*
X104371041Y-92935057D01*
X104289966Y-92845014D01*
X104243253Y-92793134D01*
X104088752Y-92680882D01*
X103914288Y-92603206D01*
X103727487Y-92563500D01*
X103536513Y-92563500D01*
X103349712Y-92603206D01*
X103349710Y-92603206D01*
X103349709Y-92603207D01*
X103278060Y-92635107D01*
X103226812Y-92646000D01*
X102598225Y-92646000D01*
X102530104Y-92625998D01*
X102522365Y-92618791D01*
X102521763Y-92619596D01*
X102507262Y-92608740D01*
X102507261Y-92608739D01*
X102390204Y-92521111D01*
X102390203Y-92521110D01*
X102304300Y-92489070D01*
X102253201Y-92470011D01*
X102192638Y-92463500D01*
X98945362Y-92463500D01*
X98942013Y-92463859D01*
X98942013Y-92463860D01*
X98884799Y-92470011D01*
X98747794Y-92521111D01*
X98630738Y-92608738D01*
X98543111Y-92725794D01*
X98497613Y-92847779D01*
X98492011Y-92862799D01*
X98485500Y-92923362D01*
X98485500Y-94020638D01*
X97602500Y-94020638D01*
X97602500Y-92923362D01*
X97595989Y-92862799D01*
X97544889Y-92725796D01*
X97544888Y-92725794D01*
X97457261Y-92608738D01*
X97340205Y-92521111D01*
X97271702Y-92495561D01*
X97203201Y-92470011D01*
X97142638Y-92463500D01*
X93895362Y-92463500D01*
X93892013Y-92463859D01*
X93892013Y-92463860D01*
X93834799Y-92470011D01*
X93697794Y-92521111D01*
X93580738Y-92608738D01*
X93493111Y-92725794D01*
X93482393Y-92754532D01*
X93439847Y-92811368D01*
X93373327Y-92836179D01*
X93364337Y-92836500D01*
X93302069Y-92836500D01*
X93281230Y-92834199D01*
X93218230Y-92836179D01*
X93209987Y-92836438D01*
X93206031Y-92836500D01*
X93178017Y-92836500D01*
X93174105Y-92836993D01*
X93174071Y-92836996D01*
X93173951Y-92837012D01*
X93162150Y-92837940D01*
X93117795Y-92839334D01*
X93098244Y-92845014D01*
X93078894Y-92849021D01*
X93058699Y-92851573D01*
X93017441Y-92867907D01*
X93006217Y-92871750D01*
X92963605Y-92884131D01*
X92946084Y-92894492D01*
X92928341Y-92903184D01*
X92909414Y-92910678D01*
X92873520Y-92936757D01*
X92863603Y-92943271D01*
X92825401Y-92965865D01*
X92811003Y-92980262D01*
X92795978Y-92993094D01*
X92779513Y-93005057D01*
X92751220Y-93039256D01*
X92743233Y-93048032D01*
X90542078Y-95249187D01*
X90525711Y-95262301D01*
X90476928Y-95314249D01*
X90474179Y-95317086D01*
X90457158Y-95334107D01*
X90457144Y-95334122D01*
X90454361Y-95336906D01*
X90451946Y-95340018D01*
X90451923Y-95340045D01*
X90451841Y-95340152D01*
X90444156Y-95349148D01*
X90413781Y-95381496D01*
X90403974Y-95399333D01*
X90393125Y-95415849D01*
X90380649Y-95431933D01*
X90363022Y-95472664D01*
X90357804Y-95483316D01*
X90336430Y-95522197D01*
X90331370Y-95541906D01*
X90324967Y-95560608D01*
X90316883Y-95579289D01*
X90309941Y-95623119D01*
X90307534Y-95634740D01*
X90296500Y-95677717D01*
X90296500Y-95698065D01*
X90294949Y-95717776D01*
X90291764Y-95737879D01*
X90295940Y-95782053D01*
X90296499Y-95793909D01*
X90296499Y-98970404D01*
X90276497Y-99038525D01*
X90259594Y-99059499D01*
X89758595Y-99560500D01*
X89433096Y-99885999D01*
X89370783Y-99920024D01*
X89299968Y-99914960D01*
X89243132Y-99872413D01*
X89218321Y-99805893D01*
X89218000Y-99796904D01*
X89218000Y-84582000D01*
X90018496Y-84582000D01*
X90038458Y-84771929D01*
X90097472Y-84953556D01*
X90192958Y-85118942D01*
X90292780Y-85229805D01*
X90320747Y-85260866D01*
X90475248Y-85373118D01*
X90649712Y-85450794D01*
X90836513Y-85490500D01*
X90836515Y-85490500D01*
X91027485Y-85490500D01*
X91027487Y-85490500D01*
X91214288Y-85450794D01*
X91388752Y-85373118D01*
X91543253Y-85260866D01*
X91671040Y-85118944D01*
X91766527Y-84953556D01*
X91810739Y-84817488D01*
X91817538Y-84796563D01*
X91857612Y-84737958D01*
X91923009Y-84710321D01*
X91937371Y-84709500D01*
X105254396Y-84709500D01*
X105322517Y-84729502D01*
X105357609Y-84763229D01*
X105449025Y-84893784D01*
X105606215Y-85050974D01*
X105788321Y-85178487D01*
X105788322Y-85178487D01*
X105788323Y-85178488D01*
X105898375Y-85229806D01*
X105951659Y-85276722D01*
X105971120Y-85344999D01*
X105950578Y-85412959D01*
X105898374Y-85458194D01*
X105868991Y-85471895D01*
X105788322Y-85509512D01*
X105606215Y-85637025D01*
X105449025Y-85794215D01*
X105321512Y-85976322D01*
X105227559Y-86177807D01*
X105170022Y-86392532D01*
X105150647Y-86614000D01*
X105170022Y-86835467D01*
X105191408Y-86915277D01*
X105227560Y-87050196D01*
X105288609Y-87181117D01*
X105321512Y-87251678D01*
X105449025Y-87433784D01*
X105606215Y-87590974D01*
X105788321Y-87718487D01*
X105788322Y-87718487D01*
X105788323Y-87718488D01*
X105898375Y-87769806D01*
X105951659Y-87816722D01*
X105971120Y-87884999D01*
X105950578Y-87952959D01*
X105898374Y-87998194D01*
X105868991Y-88011895D01*
X105788322Y-88049512D01*
X105606215Y-88177025D01*
X105449025Y-88334215D01*
X105321512Y-88516322D01*
X105271667Y-88623217D01*
X105227682Y-88717544D01*
X105227559Y-88717807D01*
X105170022Y-88932532D01*
X105150647Y-89154000D01*
X105170022Y-89375467D01*
X105208112Y-89517617D01*
X105227560Y-89590196D01*
X105271917Y-89685320D01*
X105321512Y-89791678D01*
X105449025Y-89973784D01*
X105606215Y-90130974D01*
X105788321Y-90258487D01*
X105788322Y-90258487D01*
X105788323Y-90258488D01*
X105898375Y-90309806D01*
X105951659Y-90356722D01*
X105971120Y-90424999D01*
X105950578Y-90492959D01*
X105898374Y-90538194D01*
X105868991Y-90551895D01*
X105788322Y-90589512D01*
X105606215Y-90717025D01*
X105449025Y-90874215D01*
X105321512Y-91056322D01*
X105227559Y-91257807D01*
X105170022Y-91472532D01*
X105150647Y-91694000D01*
X105170022Y-91915467D01*
X105220390Y-92103439D01*
X105227560Y-92130196D01*
X105261043Y-92202000D01*
X105321512Y-92331678D01*
X105449025Y-92513784D01*
X105606215Y-92670974D01*
X105788321Y-92798487D01*
X105788322Y-92798487D01*
X105788323Y-92798488D01*
X105989804Y-92892440D01*
X106105206Y-92923362D01*
X106204532Y-92949977D01*
X106204533Y-92949977D01*
X106204537Y-92949978D01*
X106426000Y-92969353D01*
X106647463Y-92949978D01*
X106862196Y-92892440D01*
X107063677Y-92798488D01*
X107245781Y-92670977D01*
X107402977Y-92513781D01*
X107530488Y-92331677D01*
X107624440Y-92130196D01*
X107681978Y-91915463D01*
X107701353Y-91694000D01*
X107681978Y-91472537D01*
X107681417Y-91470445D01*
X107659969Y-91390400D01*
X107624440Y-91257804D01*
X107530488Y-91056324D01*
X107455882Y-90949776D01*
X107402974Y-90874215D01*
X107245784Y-90717025D01*
X107063678Y-90589512D01*
X107013247Y-90565996D01*
X106953624Y-90538193D01*
X106900341Y-90491278D01*
X106880880Y-90423001D01*
X106901422Y-90355041D01*
X106953624Y-90309806D01*
X107063677Y-90258488D01*
X107245781Y-90130977D01*
X107402977Y-89973781D01*
X107530488Y-89791677D01*
X107624440Y-89590196D01*
X107681978Y-89375463D01*
X107701353Y-89154000D01*
X107681978Y-88932537D01*
X107678857Y-88920891D01*
X107659968Y-88850397D01*
X107624440Y-88717804D01*
X107530488Y-88516324D01*
X107455882Y-88409776D01*
X107402974Y-88334215D01*
X107245784Y-88177025D01*
X107063678Y-88049512D01*
X106987090Y-88013799D01*
X106953624Y-87998193D01*
X106900341Y-87951278D01*
X106880880Y-87883001D01*
X106901422Y-87815041D01*
X106953624Y-87769806D01*
X107063677Y-87718488D01*
X107245781Y-87590977D01*
X107402977Y-87433781D01*
X107530488Y-87251677D01*
X107624440Y-87050196D01*
X107681978Y-86835463D01*
X107701353Y-86614000D01*
X107681978Y-86392537D01*
X107681015Y-86388944D01*
X107659475Y-86308556D01*
X107624440Y-86177804D01*
X107530488Y-85976324D01*
X107455882Y-85869776D01*
X107402974Y-85794215D01*
X107245784Y-85637025D01*
X107063678Y-85509512D01*
X106987090Y-85473799D01*
X106953624Y-85458193D01*
X106900341Y-85411278D01*
X106880880Y-85343001D01*
X106901422Y-85275041D01*
X106953624Y-85229806D01*
X107063677Y-85178488D01*
X107245781Y-85050977D01*
X107402977Y-84893781D01*
X107530488Y-84711677D01*
X107624440Y-84510196D01*
X107681978Y-84295463D01*
X107701353Y-84074000D01*
X107681978Y-83852537D01*
X107681417Y-83850445D01*
X107659968Y-83770397D01*
X107624440Y-83637804D01*
X107530488Y-83436324D01*
X107530400Y-83436199D01*
X107402974Y-83254215D01*
X107245784Y-83097025D01*
X107063678Y-82969512D01*
X106987090Y-82933799D01*
X106953624Y-82918193D01*
X106900341Y-82871278D01*
X106880880Y-82803001D01*
X106901422Y-82735041D01*
X106953624Y-82689806D01*
X107063677Y-82638488D01*
X107245781Y-82510977D01*
X107402977Y-82353781D01*
X107530488Y-82171677D01*
X107624440Y-81970196D01*
X107681978Y-81755463D01*
X107701353Y-81534000D01*
X107681978Y-81312537D01*
X107624440Y-81097804D01*
X107530488Y-80896324D01*
X107481658Y-80826588D01*
X107413872Y-80729779D01*
X107402977Y-80714219D01*
X107402976Y-80714218D01*
X107402974Y-80714215D01*
X107245784Y-80557025D01*
X107063677Y-80429512D01*
X106953626Y-80378194D01*
X106900341Y-80331276D01*
X106880880Y-80262999D01*
X106901422Y-80195039D01*
X106953624Y-80149806D01*
X107063677Y-80098488D01*
X107245781Y-79970977D01*
X107402977Y-79813781D01*
X107530488Y-79631677D01*
X107624440Y-79430196D01*
X107681978Y-79215463D01*
X107701353Y-78994000D01*
X107681978Y-78772537D01*
X107678857Y-78760891D01*
X107659475Y-78688556D01*
X107624440Y-78557804D01*
X107530488Y-78356324D01*
X107520502Y-78342063D01*
X107402974Y-78174215D01*
X107245784Y-78017025D01*
X107063678Y-77889512D01*
X106993117Y-77856609D01*
X106862196Y-77795560D01*
X106848709Y-77791946D01*
X106647467Y-77738022D01*
X106426000Y-77718647D01*
X106204532Y-77738022D01*
X105989807Y-77795559D01*
X105989806Y-77795559D01*
X105989804Y-77795560D01*
X105948516Y-77814813D01*
X105788322Y-77889512D01*
X105606215Y-78017025D01*
X105449025Y-78174215D01*
X105321512Y-78356322D01*
X105227559Y-78557807D01*
X105170022Y-78772532D01*
X105150647Y-78994000D01*
X105170022Y-79215467D01*
X105212486Y-79373941D01*
X105227560Y-79430196D01*
X105275200Y-79532361D01*
X105321512Y-79631678D01*
X105449025Y-79813784D01*
X105606215Y-79970974D01*
X105788321Y-80098487D01*
X105788322Y-80098487D01*
X105788323Y-80098488D01*
X105898375Y-80149806D01*
X105951659Y-80196722D01*
X105971120Y-80264999D01*
X105950578Y-80332959D01*
X105898374Y-80378194D01*
X105897786Y-80378469D01*
X105788322Y-80429512D01*
X105606215Y-80557025D01*
X105449025Y-80714215D01*
X105321512Y-80896322D01*
X105274621Y-80996882D01*
X105227682Y-81097544D01*
X105227559Y-81097807D01*
X105170022Y-81312532D01*
X105150647Y-81534000D01*
X105170022Y-81755467D01*
X105221319Y-81946904D01*
X105227560Y-81970196D01*
X105275200Y-82072361D01*
X105321512Y-82171678D01*
X105449025Y-82353784D01*
X105606215Y-82510974D01*
X105788321Y-82638487D01*
X105788322Y-82638487D01*
X105788323Y-82638488D01*
X105898375Y-82689806D01*
X105951659Y-82736722D01*
X105971120Y-82804999D01*
X105950578Y-82872959D01*
X105898374Y-82918194D01*
X105868991Y-82931895D01*
X105788322Y-82969512D01*
X105606215Y-83097025D01*
X105449023Y-83254217D01*
X105357610Y-83384770D01*
X105302153Y-83429099D01*
X105254397Y-83438500D01*
X91524069Y-83438500D01*
X91503231Y-83436199D01*
X91432002Y-83438438D01*
X91428044Y-83438500D01*
X91400017Y-83438500D01*
X91396107Y-83438993D01*
X91396069Y-83438996D01*
X91395942Y-83439013D01*
X91384142Y-83439941D01*
X91339792Y-83441335D01*
X91320252Y-83447012D01*
X91300902Y-83451020D01*
X91280702Y-83453572D01*
X91239437Y-83469910D01*
X91228210Y-83473753D01*
X91185608Y-83486130D01*
X91168091Y-83496490D01*
X91150344Y-83505184D01*
X91131411Y-83512680D01*
X91095513Y-83538762D01*
X91085595Y-83545277D01*
X91047400Y-83567865D01*
X91033003Y-83582262D01*
X91017978Y-83595094D01*
X91001511Y-83607058D01*
X90984337Y-83627818D01*
X90925502Y-83667555D01*
X90887255Y-83673500D01*
X90836513Y-83673500D01*
X90719872Y-83698293D01*
X90649711Y-83713206D01*
X90475246Y-83790883D01*
X90320747Y-83903133D01*
X90192958Y-84045057D01*
X90097472Y-84210443D01*
X90038458Y-84392070D01*
X90018496Y-84582000D01*
X89218000Y-84582000D01*
X89218000Y-78778703D01*
X89218416Y-78768475D01*
X89222567Y-78717497D01*
X89212174Y-78641214D01*
X89211759Y-78637826D01*
X89203446Y-78561387D01*
X89203445Y-78561384D01*
X89203388Y-78560858D01*
X89198496Y-78539984D01*
X89198312Y-78539485D01*
X89198312Y-78539479D01*
X89171746Y-78467172D01*
X89170661Y-78464087D01*
X89146078Y-78391126D01*
X89146075Y-78391121D01*
X89145910Y-78390631D01*
X89136638Y-78371278D01*
X89094915Y-78306004D01*
X89093132Y-78303130D01*
X89061031Y-78249776D01*
X89053179Y-78236725D01*
X89039969Y-78219828D01*
X89039592Y-78219451D01*
X88985168Y-78165027D01*
X88982825Y-78162620D01*
X88929894Y-78106742D01*
X88929890Y-78106739D01*
X88929531Y-78106360D01*
X88912069Y-78091928D01*
X87414273Y-76594132D01*
X87380247Y-76531820D01*
X87377848Y-76494053D01*
X87381291Y-76454703D01*
X87381353Y-76454000D01*
X87361978Y-76232537D01*
X87304440Y-76017804D01*
X87210488Y-75816324D01*
X87082977Y-75634219D01*
X87082976Y-75634218D01*
X87082974Y-75634215D01*
X86968905Y-75520146D01*
X86934879Y-75457834D01*
X86932000Y-75431051D01*
X86932000Y-68656830D01*
X86952002Y-68588709D01*
X86968900Y-68567740D01*
X89373405Y-66163234D01*
X89435715Y-66129211D01*
X89483241Y-66128051D01*
X89485931Y-66128500D01*
X89485935Y-66128500D01*
X89711066Y-66128500D01*
X89711069Y-66128500D01*
X89933135Y-66091444D01*
X90146074Y-66018342D01*
X90344076Y-65911189D01*
X90521740Y-65772906D01*
X90674222Y-65607268D01*
X90763317Y-65470896D01*
X90817319Y-65424809D01*
X90887667Y-65415234D01*
X90952024Y-65445211D01*
X90974282Y-65470897D01*
X91063178Y-65606962D01*
X91215596Y-65772533D01*
X91393197Y-65910766D01*
X91591131Y-66017883D01*
X91803985Y-66090955D01*
X91884500Y-66104391D01*
X91884500Y-65203674D01*
X91996185Y-65254680D01*
X92102737Y-65270000D01*
X92174263Y-65270000D01*
X92280815Y-65254680D01*
X92392500Y-65203674D01*
X92392500Y-66104391D01*
X92473014Y-66090955D01*
X92685868Y-66017883D01*
X92883802Y-65910766D01*
X93061403Y-65772533D01*
X93213823Y-65606960D01*
X93302717Y-65470899D01*
X93356720Y-65424810D01*
X93427068Y-65415235D01*
X93491426Y-65445212D01*
X93513683Y-65470898D01*
X93602778Y-65607268D01*
X93731795Y-65747417D01*
X93755262Y-65772908D01*
X93932921Y-65911187D01*
X93932924Y-65911189D01*
X94130926Y-66018342D01*
X94343865Y-66091444D01*
X94565931Y-66128500D01*
X94565934Y-66128500D01*
X94791066Y-66128500D01*
X94791069Y-66128500D01*
X95013135Y-66091444D01*
X95226074Y-66018342D01*
X95424076Y-65911189D01*
X95601740Y-65772906D01*
X95662746Y-65706635D01*
X95723596Y-65670067D01*
X95794561Y-65672200D01*
X95853106Y-65712362D01*
X95873500Y-65747942D01*
X95917609Y-65866203D01*
X96005238Y-65983261D01*
X96122294Y-66070888D01*
X96122295Y-66070888D01*
X96122296Y-66070889D01*
X96259299Y-66121989D01*
X96319862Y-66128500D01*
X96323231Y-66128500D01*
X98113769Y-66128500D01*
X98117138Y-66128500D01*
X98177701Y-66121989D01*
X98314704Y-66070889D01*
X98431761Y-65983261D01*
X98519389Y-65866204D01*
X98570489Y-65729201D01*
X98577000Y-65668638D01*
X100241500Y-65668638D01*
X100248011Y-65729201D01*
X100266960Y-65780005D01*
X100299111Y-65866205D01*
X100386738Y-65983261D01*
X100503794Y-66070888D01*
X100503795Y-66070888D01*
X100503796Y-66070889D01*
X100640799Y-66121989D01*
X100701362Y-66128500D01*
X100704731Y-66128500D01*
X102495269Y-66128500D01*
X102498638Y-66128500D01*
X102559201Y-66121989D01*
X102696204Y-66070889D01*
X102813261Y-65983261D01*
X102900889Y-65866204D01*
X102945195Y-65747415D01*
X102987741Y-65690581D01*
X103054261Y-65665770D01*
X103123635Y-65680861D01*
X103155951Y-65706112D01*
X103217096Y-65772533D01*
X103394697Y-65910766D01*
X103592631Y-66017883D01*
X103805485Y-66090955D01*
X103886000Y-66104391D01*
X103886000Y-65203674D01*
X103997685Y-65254680D01*
X104104237Y-65270000D01*
X104175763Y-65270000D01*
X104282315Y-65254680D01*
X104394000Y-65203674D01*
X104394000Y-66104391D01*
X104474514Y-66090955D01*
X104687368Y-66017883D01*
X104885302Y-65910766D01*
X105062903Y-65772533D01*
X105215323Y-65606960D01*
X105304217Y-65470899D01*
X105358220Y-65424810D01*
X105428568Y-65415235D01*
X105492926Y-65445212D01*
X105515183Y-65470898D01*
X105604278Y-65607268D01*
X105733295Y-65747417D01*
X105756762Y-65772908D01*
X105934421Y-65911187D01*
X105934424Y-65911189D01*
X106132426Y-66018342D01*
X106345365Y-66091444D01*
X106567431Y-66128500D01*
X106567434Y-66128500D01*
X106792566Y-66128500D01*
X106792569Y-66128500D01*
X107014635Y-66091444D01*
X107227574Y-66018342D01*
X107425576Y-65911189D01*
X107603240Y-65772906D01*
X107755722Y-65607268D01*
X107878860Y-65418791D01*
X107969296Y-65212616D01*
X108024564Y-64994368D01*
X108043156Y-64770000D01*
X108024564Y-64545632D01*
X107969296Y-64327384D01*
X107878860Y-64121209D01*
X107755722Y-63932732D01*
X107603240Y-63767094D01*
X107603239Y-63767093D01*
X107603237Y-63767091D01*
X107425578Y-63628812D01*
X107227573Y-63521657D01*
X107074510Y-63469111D01*
X107014635Y-63448556D01*
X106792569Y-63411500D01*
X106567431Y-63411500D01*
X106345365Y-63448556D01*
X106345362Y-63448556D01*
X106345362Y-63448557D01*
X106132426Y-63521657D01*
X105934421Y-63628812D01*
X105756762Y-63767091D01*
X105604275Y-63932735D01*
X105515182Y-64069101D01*
X105461179Y-64115189D01*
X105390831Y-64124764D01*
X105326473Y-64094786D01*
X105304217Y-64069101D01*
X105215321Y-63933037D01*
X105062903Y-63767466D01*
X104885302Y-63629233D01*
X104687368Y-63522116D01*
X104474510Y-63449042D01*
X104394000Y-63435606D01*
X104394000Y-64336325D01*
X104282315Y-64285320D01*
X104175763Y-64270000D01*
X104104237Y-64270000D01*
X103997685Y-64285320D01*
X103886000Y-64336325D01*
X103886000Y-63435607D01*
X103885999Y-63435606D01*
X103805489Y-63449042D01*
X103592631Y-63522116D01*
X103394697Y-63629233D01*
X103217099Y-63767463D01*
X103155951Y-63833888D01*
X103095098Y-63870459D01*
X103024133Y-63868324D01*
X102965588Y-63828162D01*
X102945194Y-63792582D01*
X102944998Y-63792057D01*
X102900889Y-63673796D01*
X102900888Y-63673794D01*
X102813261Y-63556738D01*
X102696205Y-63469111D01*
X102606377Y-63435607D01*
X102559201Y-63418011D01*
X102498638Y-63411500D01*
X100701362Y-63411500D01*
X100698013Y-63411859D01*
X100698013Y-63411860D01*
X100640799Y-63418011D01*
X100503794Y-63469111D01*
X100386738Y-63556738D01*
X100299111Y-63673794D01*
X100248011Y-63810799D01*
X100247118Y-63819110D01*
X100241500Y-63871362D01*
X100241500Y-65668638D01*
X98577000Y-65668638D01*
X98577000Y-63871362D01*
X98570489Y-63810799D01*
X98519389Y-63673796D01*
X98519388Y-63673794D01*
X98431761Y-63556738D01*
X98314705Y-63469111D01*
X98224877Y-63435607D01*
X98177701Y-63418011D01*
X98117138Y-63411500D01*
X96319862Y-63411500D01*
X96316513Y-63411859D01*
X96316513Y-63411860D01*
X96259299Y-63418011D01*
X96122294Y-63469111D01*
X96005238Y-63556738D01*
X95917609Y-63673796D01*
X95873500Y-63792057D01*
X95830953Y-63848893D01*
X95764433Y-63873703D01*
X95695059Y-63858611D01*
X95662746Y-63833363D01*
X95601740Y-63767094D01*
X95601739Y-63767093D01*
X95601737Y-63767091D01*
X95424078Y-63628812D01*
X95226073Y-63521657D01*
X95073010Y-63469111D01*
X95013135Y-63448556D01*
X94791069Y-63411500D01*
X94565931Y-63411500D01*
X94343865Y-63448556D01*
X94343862Y-63448556D01*
X94343862Y-63448557D01*
X94130926Y-63521657D01*
X93932921Y-63628812D01*
X93755262Y-63767091D01*
X93602775Y-63932735D01*
X93513682Y-64069101D01*
X93459679Y-64115189D01*
X93389331Y-64124764D01*
X93324973Y-64094786D01*
X93302717Y-64069101D01*
X93213821Y-63933037D01*
X93061403Y-63767466D01*
X92883802Y-63629233D01*
X92685868Y-63522116D01*
X92473010Y-63449042D01*
X92392500Y-63435606D01*
X92392500Y-64336325D01*
X92280815Y-64285320D01*
X92174263Y-64270000D01*
X92102737Y-64270000D01*
X91996185Y-64285320D01*
X91884500Y-64336325D01*
X91884500Y-63435607D01*
X91884499Y-63435606D01*
X91803989Y-63449042D01*
X91591131Y-63522116D01*
X91393197Y-63629233D01*
X91215596Y-63767466D01*
X91063178Y-63933037D01*
X90974282Y-64069102D01*
X90920278Y-64115190D01*
X90849930Y-64124765D01*
X90785573Y-64094787D01*
X90763316Y-64069101D01*
X90674223Y-63932734D01*
X90674222Y-63932732D01*
X90521740Y-63767094D01*
X90521739Y-63767093D01*
X90521737Y-63767091D01*
X90344078Y-63628812D01*
X90146073Y-63521657D01*
X89993010Y-63469111D01*
X89933135Y-63448556D01*
X89711069Y-63411500D01*
X89485931Y-63411500D01*
X89263865Y-63448556D01*
X89263862Y-63448556D01*
X89263862Y-63448557D01*
X89050926Y-63521657D01*
X88852921Y-63628812D01*
X88675262Y-63767091D01*
X88522778Y-63932731D01*
X88399639Y-64121209D01*
X88309202Y-64327388D01*
X88263908Y-64506252D01*
X88253936Y-64545632D01*
X88243845Y-64667412D01*
X88235344Y-64770000D01*
X88245444Y-64891888D01*
X88231135Y-64961428D01*
X88208969Y-64991388D01*
X85549304Y-67651053D01*
X85541782Y-67657988D01*
X85502791Y-67691108D01*
X85456221Y-67752369D01*
X85454122Y-67755054D01*
X85405597Y-67815422D01*
X85394280Y-67833669D01*
X85361758Y-67903963D01*
X85360285Y-67907036D01*
X85325864Y-67976441D01*
X85318732Y-67996700D01*
X85302084Y-68072329D01*
X85301306Y-68075647D01*
X85282611Y-68150826D01*
X85280000Y-68172142D01*
X85280000Y-68249585D01*
X85279954Y-68252997D01*
X85277855Y-68330460D01*
X85280000Y-68353012D01*
X85280000Y-75431051D01*
X85259998Y-75499172D01*
X85243095Y-75520146D01*
X85129025Y-75634215D01*
X85001512Y-75816322D01*
X84907559Y-76017807D01*
X84850022Y-76232532D01*
X84830647Y-76454000D01*
X84850022Y-76675467D01*
X84900391Y-76863440D01*
X84907560Y-76890196D01*
X84968609Y-77021117D01*
X85001512Y-77091678D01*
X85129025Y-77273784D01*
X85286215Y-77430974D01*
X85468321Y-77558487D01*
X85468322Y-77558487D01*
X85468323Y-77558488D01*
X85578375Y-77609806D01*
X85631659Y-77656722D01*
X85651120Y-77724999D01*
X85630578Y-77792959D01*
X85578374Y-77838194D01*
X85548991Y-77851895D01*
X85468322Y-77889512D01*
X85286215Y-78017025D01*
X85129025Y-78174215D01*
X85001512Y-78356322D01*
X84907559Y-78557807D01*
X84850022Y-78772532D01*
X84830647Y-78994000D01*
X84850022Y-79215467D01*
X84892486Y-79373941D01*
X84907560Y-79430196D01*
X84955200Y-79532361D01*
X85001512Y-79631678D01*
X85129025Y-79813784D01*
X85286215Y-79970974D01*
X85286218Y-79970976D01*
X85286219Y-79970977D01*
X85468323Y-80098488D01*
X85578965Y-80150081D01*
X85632250Y-80196997D01*
X85651711Y-80265274D01*
X85631170Y-80333234D01*
X85578966Y-80378469D01*
X85468575Y-80429946D01*
X85405394Y-80474185D01*
X86084209Y-81153000D01*
X86074431Y-81153000D01*
X85980579Y-81168661D01*
X85868749Y-81229180D01*
X85782629Y-81322731D01*
X85731552Y-81439177D01*
X85725461Y-81512671D01*
X85046185Y-80833394D01*
X85001948Y-80896572D01*
X84908031Y-81097975D01*
X84850517Y-81312623D01*
X84831149Y-81534001D01*
X84836108Y-81590684D01*
X84822118Y-81660289D01*
X84772718Y-81711280D01*
X84703592Y-81727470D01*
X84636687Y-81703717D01*
X84621492Y-81690759D01*
X82550816Y-79620083D01*
X82537705Y-79603717D01*
X82485734Y-79554914D01*
X82482891Y-79552158D01*
X82465900Y-79535167D01*
X82463094Y-79532361D01*
X82459877Y-79529865D01*
X82450859Y-79522164D01*
X82418506Y-79491783D01*
X82418503Y-79491781D01*
X82400672Y-79481978D01*
X82384154Y-79471128D01*
X82368067Y-79458650D01*
X82327336Y-79441024D01*
X82316678Y-79435802D01*
X82277802Y-79414430D01*
X82258086Y-79409368D01*
X82239380Y-79402963D01*
X82220709Y-79394883D01*
X82176873Y-79387940D01*
X82165250Y-79385532D01*
X82122284Y-79374500D01*
X82122282Y-79374500D01*
X82101934Y-79374500D01*
X82082224Y-79372949D01*
X82062121Y-79369765D01*
X82062120Y-79369765D01*
X82017944Y-79373941D01*
X82006086Y-79374500D01*
X81105916Y-79374500D01*
X81037795Y-79354498D01*
X81002703Y-79320771D01*
X80939298Y-79230220D01*
X80789779Y-79080701D01*
X80616559Y-78959411D01*
X80424910Y-78870043D01*
X80392829Y-78861448D01*
X80332207Y-78824497D01*
X80301185Y-78760636D01*
X80309613Y-78690142D01*
X80354816Y-78635395D01*
X80392829Y-78618034D01*
X80424740Y-78609483D01*
X80616304Y-78520156D01*
X80666087Y-78485297D01*
X80666087Y-78485296D01*
X80049518Y-77868727D01*
X80135148Y-77855165D01*
X80248045Y-77797641D01*
X80337641Y-77708045D01*
X80395165Y-77595148D01*
X80408727Y-77509518D01*
X81025296Y-78126087D01*
X81025297Y-78126087D01*
X81060156Y-78076304D01*
X81149483Y-77884740D01*
X81204191Y-77680568D01*
X81222613Y-77470000D01*
X81204191Y-77259431D01*
X81149484Y-77055261D01*
X81060153Y-76863691D01*
X81025297Y-76813912D01*
X81025296Y-76813912D01*
X80408727Y-77430481D01*
X80395165Y-77344852D01*
X80337641Y-77231955D01*
X80248045Y-77142359D01*
X80135148Y-77084835D01*
X80049517Y-77071272D01*
X80666086Y-76454702D01*
X80666086Y-76454701D01*
X80616308Y-76419846D01*
X80424738Y-76330515D01*
X80220568Y-76275808D01*
X80010000Y-76257386D01*
X79799431Y-76275808D01*
X79595262Y-76330515D01*
X79403693Y-76419845D01*
X79353912Y-76454702D01*
X79353912Y-76454703D01*
X79970481Y-77071272D01*
X79884852Y-77084835D01*
X79771955Y-77142359D01*
X79682359Y-77231955D01*
X79624835Y-77344852D01*
X79611272Y-77430481D01*
X78994703Y-76813912D01*
X78994702Y-76813912D01*
X78959845Y-76863693D01*
X78870514Y-77055264D01*
X78861964Y-77087173D01*
X78825011Y-77147795D01*
X78761149Y-77178815D01*
X78690655Y-77170385D01*
X78635909Y-77125180D01*
X78618551Y-77087168D01*
X78610002Y-77055264D01*
X78609956Y-77055090D01*
X78520589Y-76863442D01*
X78399301Y-76690224D01*
X78399300Y-76690223D01*
X78399298Y-76690220D01*
X78249779Y-76540701D01*
X78076559Y-76419411D01*
X77884909Y-76330043D01*
X77680655Y-76275314D01*
X77470000Y-76256884D01*
X77259344Y-76275314D01*
X77055090Y-76330043D01*
X76863440Y-76419411D01*
X76690220Y-76540701D01*
X76540701Y-76690220D01*
X76419411Y-76863440D01*
X76330043Y-77055090D01*
X76275314Y-77259344D01*
X76256884Y-77470000D01*
X76275314Y-77680655D01*
X76330043Y-77884909D01*
X76419411Y-78076559D01*
X76540701Y-78249779D01*
X76690220Y-78399298D01*
X76863440Y-78520588D01*
X76863441Y-78520588D01*
X76863442Y-78520589D01*
X77055090Y-78609956D01*
X77084729Y-78617897D01*
X77086204Y-78618293D01*
X77146826Y-78655245D01*
X77177848Y-78719106D01*
X77169419Y-78789600D01*
X77124216Y-78844347D01*
X77086204Y-78861707D01*
X77055088Y-78870044D01*
X76863440Y-78959411D01*
X76690220Y-79080701D01*
X76540701Y-79230220D01*
X76419411Y-79403440D01*
X76330043Y-79595090D01*
X76278988Y-79785632D01*
X76275314Y-79799345D01*
X76256884Y-80010000D01*
X76273073Y-80195039D01*
X76275314Y-80220655D01*
X76330043Y-80424909D01*
X76419411Y-80616559D01*
X76540701Y-80789779D01*
X76690220Y-80939298D01*
X76863440Y-81060588D01*
X76863441Y-81060588D01*
X76863442Y-81060589D01*
X77055090Y-81149956D01*
X77084729Y-81157897D01*
X77086204Y-81158293D01*
X77146826Y-81195245D01*
X77177848Y-81259106D01*
X77169419Y-81329600D01*
X77124216Y-81384347D01*
X77086204Y-81401707D01*
X77055088Y-81410044D01*
X76863440Y-81499411D01*
X76690220Y-81620701D01*
X76540701Y-81770220D01*
X76419411Y-81943440D01*
X76330043Y-82135090D01*
X76275314Y-82339344D01*
X76256884Y-82550000D01*
X76267762Y-82674337D01*
X76253772Y-82743942D01*
X76204373Y-82794934D01*
X76135247Y-82811124D01*
X76068341Y-82787371D01*
X76053146Y-82774413D01*
X73570405Y-80291672D01*
X73536379Y-80229360D01*
X73533500Y-80202577D01*
X73533500Y-75230803D01*
X73553502Y-75162682D01*
X73565864Y-75146492D01*
X73637040Y-75067444D01*
X73732527Y-74902056D01*
X73791542Y-74720428D01*
X73811504Y-74530500D01*
X73791542Y-74340572D01*
X73744850Y-74196869D01*
X73732527Y-74158943D01*
X73637041Y-73993557D01*
X73509252Y-73851633D01*
X73354753Y-73739383D01*
X73354752Y-73739382D01*
X73180288Y-73661706D01*
X72993487Y-73622000D01*
X72802513Y-73622000D01*
X72682993Y-73647405D01*
X72615711Y-73661706D01*
X72441246Y-73739383D01*
X72286747Y-73851633D01*
X72158958Y-73993557D01*
X72063472Y-74158943D01*
X72004458Y-74340570D01*
X71984496Y-74530499D01*
X72004458Y-74720429D01*
X72063472Y-74902055D01*
X72114666Y-74990725D01*
X72158960Y-75067444D01*
X72230136Y-75146492D01*
X72260853Y-75210500D01*
X72262500Y-75230803D01*
X72262500Y-80433930D01*
X72260199Y-80454771D01*
X72262438Y-80526011D01*
X72262500Y-80529969D01*
X72262500Y-80557983D01*
X72262995Y-80561903D01*
X72262996Y-80561919D01*
X72263012Y-80562045D01*
X72263940Y-80573850D01*
X72265334Y-80618205D01*
X72271014Y-80637755D01*
X72275022Y-80657110D01*
X72277572Y-80677296D01*
X72277572Y-80677298D01*
X72277573Y-80677299D01*
X72286255Y-80699229D01*
X72293906Y-80718552D01*
X72297749Y-80729779D01*
X72310130Y-80772392D01*
X72320492Y-80789914D01*
X72329189Y-80807667D01*
X72336680Y-80826587D01*
X72362764Y-80862489D01*
X72369275Y-80872401D01*
X72391866Y-80910598D01*
X72406254Y-80924986D01*
X72419092Y-80940017D01*
X72431058Y-80956487D01*
X72465255Y-80984777D01*
X72474035Y-80992767D01*
X76241900Y-84760632D01*
X76275926Y-84822944D01*
X76274848Y-84868239D01*
X76276275Y-84868364D01*
X76275314Y-84879343D01*
X76275314Y-84879345D01*
X76256883Y-85090000D01*
X76256884Y-85090000D01*
X76275314Y-85300655D01*
X76330043Y-85504909D01*
X76419411Y-85696559D01*
X76540701Y-85869779D01*
X76690220Y-86019298D01*
X76863440Y-86140588D01*
X76863441Y-86140588D01*
X76863442Y-86140589D01*
X77055090Y-86229956D01*
X77084729Y-86237897D01*
X77086204Y-86238293D01*
X77146826Y-86275245D01*
X77177848Y-86339106D01*
X77169419Y-86409600D01*
X77124216Y-86464347D01*
X77086204Y-86481707D01*
X77055088Y-86490044D01*
X76863440Y-86579411D01*
X76690220Y-86700701D01*
X76540701Y-86850220D01*
X76419411Y-87023440D01*
X76330043Y-87215090D01*
X76275314Y-87419344D01*
X76256884Y-87630000D01*
X76275314Y-87840655D01*
X76330043Y-88044909D01*
X76419411Y-88236559D01*
X76540701Y-88409779D01*
X76690220Y-88559298D01*
X76863440Y-88680588D01*
X76863441Y-88680588D01*
X76863442Y-88680589D01*
X77055090Y-88769956D01*
X77084729Y-88777897D01*
X77086204Y-88778293D01*
X77146826Y-88815245D01*
X77177848Y-88879106D01*
X77169419Y-88949600D01*
X77124216Y-89004347D01*
X77086204Y-89021707D01*
X77055088Y-89030044D01*
X76863440Y-89119411D01*
X76690220Y-89240701D01*
X76540701Y-89390220D01*
X76419411Y-89563440D01*
X76330043Y-89755090D01*
X76275314Y-89959344D01*
X76256884Y-90170000D01*
X76267762Y-90294338D01*
X76253772Y-90363943D01*
X76204373Y-90414935D01*
X76135247Y-90431125D01*
X76068341Y-90407372D01*
X76053146Y-90394414D01*
X71855627Y-86196895D01*
X67494789Y-81836056D01*
X67460763Y-81773744D01*
X67458576Y-81760146D01*
X67441542Y-81598072D01*
X67394742Y-81454037D01*
X67382527Y-81416443D01*
X67287041Y-81251057D01*
X67159252Y-81109133D01*
X67004753Y-80996883D01*
X67004752Y-80996882D01*
X66830288Y-80919206D01*
X66643487Y-80879500D01*
X66452513Y-80879500D01*
X66327978Y-80905970D01*
X66265711Y-80919206D01*
X66181977Y-80956487D01*
X66100491Y-80992767D01*
X66091246Y-80996883D01*
X65936747Y-81109133D01*
X65808958Y-81251057D01*
X65713472Y-81416443D01*
X65654458Y-81598070D01*
X65634496Y-81788000D01*
X65654458Y-81977929D01*
X65713472Y-82159556D01*
X65808958Y-82324942D01*
X65936746Y-82466866D01*
X65936747Y-82466866D01*
X66091248Y-82579118D01*
X66265712Y-82656794D01*
X66452513Y-82696500D01*
X66505578Y-82696500D01*
X66573699Y-82716502D01*
X66594673Y-82733405D01*
X75502184Y-91640917D01*
X75515298Y-91657285D01*
X75567265Y-91706085D01*
X75570107Y-91708840D01*
X75589906Y-91728639D01*
X75593123Y-91731134D01*
X75602152Y-91738846D01*
X75634494Y-91769217D01*
X75652325Y-91779020D01*
X75668849Y-91789874D01*
X75684933Y-91802350D01*
X75725674Y-91819980D01*
X75736313Y-91825193D01*
X75775192Y-91846567D01*
X75775194Y-91846567D01*
X75775197Y-91846569D01*
X75794912Y-91851630D01*
X75813614Y-91858034D01*
X75832292Y-91866117D01*
X75865821Y-91871427D01*
X75876114Y-91873057D01*
X75887741Y-91875465D01*
X75930717Y-91886500D01*
X75930718Y-91886500D01*
X75951066Y-91886500D01*
X75970775Y-91888050D01*
X75990879Y-91891235D01*
X76035055Y-91887059D01*
X76046914Y-91886500D01*
X76329881Y-91886500D01*
X76398002Y-91906502D01*
X76444495Y-91960158D01*
X76454599Y-92030432D01*
X76433095Y-92084770D01*
X76419845Y-92103692D01*
X76330515Y-92295261D01*
X76275808Y-92499431D01*
X76257386Y-92709999D01*
X76275808Y-92920568D01*
X76330515Y-93124738D01*
X76419846Y-93316308D01*
X76454701Y-93366086D01*
X76454702Y-93366086D01*
X77071272Y-92749515D01*
X77084835Y-92835148D01*
X77142359Y-92948045D01*
X77231955Y-93037641D01*
X77344852Y-93095165D01*
X77430482Y-93108727D01*
X76813912Y-93725296D01*
X76813912Y-93725297D01*
X76863691Y-93760153D01*
X77055260Y-93849483D01*
X77087171Y-93858034D01*
X77147793Y-93894986D01*
X77178815Y-93958847D01*
X77170386Y-94029341D01*
X77125183Y-94084088D01*
X77087170Y-94101448D01*
X77055090Y-94110043D01*
X76863440Y-94199411D01*
X76690220Y-94320701D01*
X76540701Y-94470220D01*
X76419411Y-94643440D01*
X76330043Y-94835090D01*
X76275314Y-95039344D01*
X76267422Y-95129554D01*
X76241558Y-95195672D01*
X76184055Y-95237311D01*
X76113168Y-95241252D01*
X76052806Y-95207667D01*
X66140439Y-85295300D01*
X66133501Y-85287775D01*
X66115553Y-85266645D01*
X66100388Y-85248791D01*
X66100387Y-85248790D01*
X66039118Y-85202214D01*
X66036431Y-85200114D01*
X66009526Y-85178487D01*
X65976479Y-85151923D01*
X65976476Y-85151921D01*
X65976065Y-85151591D01*
X65957836Y-85140283D01*
X65887532Y-85107757D01*
X65884457Y-85106284D01*
X65871376Y-85099796D01*
X65815520Y-85072095D01*
X65815517Y-85072094D01*
X65815047Y-85071861D01*
X65794803Y-85064733D01*
X65719168Y-85048085D01*
X65715847Y-85047307D01*
X65640661Y-85028609D01*
X65619354Y-85026000D01*
X65618831Y-85026000D01*
X65541912Y-85026000D01*
X65538500Y-85025954D01*
X65461040Y-85023855D01*
X65438484Y-85026000D01*
X64885105Y-85026000D01*
X64816984Y-85005998D01*
X64770491Y-84952342D01*
X64760387Y-84882068D01*
X64789881Y-84817488D01*
X64811044Y-84798064D01*
X64847015Y-84771929D01*
X64873253Y-84752866D01*
X65001040Y-84610944D01*
X65096527Y-84445556D01*
X65155542Y-84263928D01*
X65175504Y-84074000D01*
X65155542Y-83884072D01*
X65118968Y-83771509D01*
X65096527Y-83702443D01*
X65001041Y-83537057D01*
X64914853Y-83441336D01*
X64873253Y-83395134D01*
X64858988Y-83384770D01*
X64718753Y-83282883D01*
X64718752Y-83282882D01*
X64544288Y-83205206D01*
X64357487Y-83165500D01*
X64166513Y-83165500D01*
X64072421Y-83185500D01*
X63979711Y-83205206D01*
X63805246Y-83282883D01*
X63713645Y-83349436D01*
X63646777Y-83373294D01*
X63639584Y-83373500D01*
X55750729Y-83373500D01*
X55682608Y-83353498D01*
X55636115Y-83299842D01*
X55626011Y-83229568D01*
X55647515Y-83175230D01*
X55649836Y-83171914D01*
X55660589Y-83156558D01*
X55749956Y-82964910D01*
X55804686Y-82760655D01*
X55823116Y-82550000D01*
X55804686Y-82339345D01*
X55749956Y-82135090D01*
X55660589Y-81943442D01*
X55649734Y-81927940D01*
X55539298Y-81770220D01*
X55389779Y-81620701D01*
X55216559Y-81499411D01*
X55024910Y-81410043D01*
X54993796Y-81401707D01*
X54933173Y-81364755D01*
X54902152Y-81300895D01*
X54910580Y-81230400D01*
X54955783Y-81175653D01*
X54993796Y-81158293D01*
X55024910Y-81149956D01*
X55051776Y-81137428D01*
X55216558Y-81060589D01*
X55389776Y-80939301D01*
X55539301Y-80789776D01*
X55660589Y-80616558D01*
X55749956Y-80424910D01*
X55804686Y-80220655D01*
X55823116Y-80010000D01*
X55804686Y-79799345D01*
X55749956Y-79595090D01*
X55660589Y-79403442D01*
X55649734Y-79387940D01*
X55539298Y-79230220D01*
X55389779Y-79080701D01*
X55216559Y-78959411D01*
X55024907Y-78870042D01*
X54993793Y-78861705D01*
X54933171Y-78824752D01*
X54902151Y-78760891D01*
X54910581Y-78690397D01*
X54955785Y-78635651D01*
X54993798Y-78618292D01*
X55008380Y-78614385D01*
X55024907Y-78609957D01*
X55024907Y-78609956D01*
X55024910Y-78609956D01*
X55216558Y-78520589D01*
X55389776Y-78399301D01*
X55539301Y-78249776D01*
X55660589Y-78076558D01*
X55749956Y-77884910D01*
X55804686Y-77680655D01*
X55823116Y-77470000D01*
X55804686Y-77259345D01*
X55749956Y-77055090D01*
X55660589Y-76863442D01*
X55539301Y-76690224D01*
X55539300Y-76690223D01*
X55539298Y-76690220D01*
X55389779Y-76540701D01*
X55216559Y-76419411D01*
X55024909Y-76330043D01*
X54820655Y-76275314D01*
X54610000Y-76256884D01*
X54399344Y-76275314D01*
X54195090Y-76330043D01*
X54003440Y-76419411D01*
X53830220Y-76540701D01*
X53680701Y-76690220D01*
X53559411Y-76863440D01*
X53470043Y-77055090D01*
X53461448Y-77087170D01*
X53424496Y-77147793D01*
X53360635Y-77178814D01*
X53290141Y-77170386D01*
X53235394Y-77125183D01*
X53218034Y-77087171D01*
X53209483Y-77055260D01*
X53120153Y-76863691D01*
X53085297Y-76813912D01*
X53085296Y-76813912D01*
X52468727Y-77430481D01*
X52455165Y-77344852D01*
X52397641Y-77231955D01*
X52308045Y-77142359D01*
X52195148Y-77084835D01*
X52109517Y-77071272D01*
X52726086Y-76454702D01*
X52726086Y-76454701D01*
X52676308Y-76419846D01*
X52484738Y-76330515D01*
X52280568Y-76275808D01*
X52069999Y-76257386D01*
X51859431Y-76275808D01*
X51655262Y-76330515D01*
X51463693Y-76419845D01*
X51413912Y-76454702D01*
X51413912Y-76454703D01*
X52030481Y-77071272D01*
X51944852Y-77084835D01*
X51831955Y-77142359D01*
X51742359Y-77231955D01*
X51684835Y-77344852D01*
X51671272Y-77430481D01*
X51054703Y-76813912D01*
X51054702Y-76813912D01*
X51019845Y-76863693D01*
X50930515Y-77055262D01*
X50875808Y-77259431D01*
X50857386Y-77470000D01*
X50875808Y-77680568D01*
X50930515Y-77884738D01*
X51019846Y-78076308D01*
X51054701Y-78126086D01*
X51054702Y-78126086D01*
X51671272Y-77509516D01*
X51684835Y-77595148D01*
X51742359Y-77708045D01*
X51831955Y-77797641D01*
X51944852Y-77855165D01*
X52030482Y-77868727D01*
X51413912Y-78485296D01*
X51413912Y-78485297D01*
X51463691Y-78520153D01*
X51655260Y-78609483D01*
X51687171Y-78618034D01*
X51747793Y-78654986D01*
X51778815Y-78718847D01*
X51770386Y-78789341D01*
X51725183Y-78844088D01*
X51687170Y-78861448D01*
X51655090Y-78870043D01*
X51463440Y-78959411D01*
X51290220Y-79080701D01*
X51140701Y-79230220D01*
X51019411Y-79403440D01*
X50930043Y-79595090D01*
X50875314Y-79799344D01*
X50856884Y-80010000D01*
X50875314Y-80220655D01*
X50930043Y-80424909D01*
X51019411Y-80616559D01*
X51140701Y-80789779D01*
X51290220Y-80939298D01*
X51463440Y-81060588D01*
X51463441Y-81060588D01*
X51463442Y-81060589D01*
X51655090Y-81149956D01*
X51684729Y-81157897D01*
X51686204Y-81158293D01*
X51746826Y-81195245D01*
X51777848Y-81259106D01*
X51769419Y-81329600D01*
X51724216Y-81384347D01*
X51686204Y-81401707D01*
X51655088Y-81410044D01*
X51463440Y-81499411D01*
X51290220Y-81620701D01*
X51140701Y-81770220D01*
X51019411Y-81943440D01*
X50930043Y-82135090D01*
X50875314Y-82339344D01*
X50875314Y-82339345D01*
X50856884Y-82550000D01*
X50872930Y-82733405D01*
X50875314Y-82760655D01*
X50930043Y-82964909D01*
X51019411Y-83156559D01*
X51140701Y-83329779D01*
X51290220Y-83479298D01*
X51290223Y-83479300D01*
X51290224Y-83479301D01*
X51327189Y-83505184D01*
X51463440Y-83600588D01*
X51463441Y-83600588D01*
X51463442Y-83600589D01*
X51655090Y-83689956D01*
X51684729Y-83697897D01*
X51686204Y-83698293D01*
X51746826Y-83735245D01*
X51777848Y-83799106D01*
X51769419Y-83869600D01*
X51724216Y-83924347D01*
X51686204Y-83941707D01*
X51655088Y-83950044D01*
X51463440Y-84039411D01*
X51290220Y-84160701D01*
X51140701Y-84310220D01*
X51019411Y-84483440D01*
X50930043Y-84675090D01*
X50875314Y-84879344D01*
X50856884Y-85090000D01*
X50875314Y-85300655D01*
X50930043Y-85504909D01*
X51019411Y-85696559D01*
X51140701Y-85869779D01*
X51290220Y-86019298D01*
X51463440Y-86140588D01*
X51463441Y-86140588D01*
X51463442Y-86140589D01*
X51655090Y-86229956D01*
X51684729Y-86237897D01*
X51686204Y-86238293D01*
X51746826Y-86275245D01*
X51777848Y-86339106D01*
X51769419Y-86409600D01*
X51724216Y-86464347D01*
X51686204Y-86481707D01*
X51655088Y-86490044D01*
X51463440Y-86579411D01*
X51290220Y-86700701D01*
X51140701Y-86850220D01*
X51019411Y-87023440D01*
X50930043Y-87215090D01*
X50875314Y-87419344D01*
X50856884Y-87630000D01*
X50875314Y-87840655D01*
X50930043Y-88044909D01*
X51019411Y-88236559D01*
X51140701Y-88409779D01*
X51290220Y-88559298D01*
X51463440Y-88680588D01*
X51463441Y-88680588D01*
X51463442Y-88680589D01*
X51655090Y-88769956D01*
X51684729Y-88777897D01*
X51686204Y-88778293D01*
X51746826Y-88815245D01*
X51777848Y-88879106D01*
X51769419Y-88949600D01*
X51724216Y-89004347D01*
X51686204Y-89021707D01*
X51655088Y-89030044D01*
X51463440Y-89119411D01*
X51290220Y-89240701D01*
X51140701Y-89390220D01*
X51019411Y-89563440D01*
X50930043Y-89755090D01*
X50897151Y-89877848D01*
X50875314Y-89959345D01*
X50856884Y-90170000D01*
X50873073Y-90355041D01*
X50875314Y-90380655D01*
X50930043Y-90584909D01*
X51019411Y-90776559D01*
X51140701Y-90949779D01*
X51290220Y-91099298D01*
X51463440Y-91220588D01*
X51463441Y-91220588D01*
X51463442Y-91220589D01*
X51655090Y-91309956D01*
X51684729Y-91317897D01*
X51686204Y-91318293D01*
X51746826Y-91355245D01*
X51777848Y-91419106D01*
X51769419Y-91489600D01*
X51724216Y-91544347D01*
X51686204Y-91561707D01*
X51655088Y-91570044D01*
X51463440Y-91659411D01*
X51290220Y-91780701D01*
X51140701Y-91930220D01*
X51019411Y-92103440D01*
X50930043Y-92295090D01*
X50875314Y-92499344D01*
X50856884Y-92710000D01*
X50875314Y-92920655D01*
X50930043Y-93124909D01*
X51019411Y-93316559D01*
X51140701Y-93489779D01*
X51290220Y-93639298D01*
X51463440Y-93760588D01*
X51463441Y-93760588D01*
X51463442Y-93760589D01*
X51655090Y-93849956D01*
X51684729Y-93857897D01*
X51686204Y-93858293D01*
X51746826Y-93895245D01*
X51777848Y-93959106D01*
X51769419Y-94029600D01*
X51724216Y-94084347D01*
X51686204Y-94101707D01*
X51655088Y-94110044D01*
X51463440Y-94199411D01*
X51290220Y-94320701D01*
X51140701Y-94470220D01*
X51019411Y-94643440D01*
X50930043Y-94835090D01*
X50875314Y-95039344D01*
X50856884Y-95250000D01*
X50875314Y-95460655D01*
X50930043Y-95664909D01*
X51019411Y-95856559D01*
X51140701Y-96029779D01*
X51290220Y-96179298D01*
X51463440Y-96300588D01*
X51463441Y-96300588D01*
X51463442Y-96300589D01*
X51655090Y-96389956D01*
X51684729Y-96397897D01*
X51686204Y-96398293D01*
X51746826Y-96435245D01*
X51777848Y-96499106D01*
X51769419Y-96569600D01*
X51724216Y-96624347D01*
X51686204Y-96641707D01*
X51655088Y-96650044D01*
X51463440Y-96739411D01*
X51290220Y-96860701D01*
X51140701Y-97010220D01*
X51019411Y-97183440D01*
X50930043Y-97375090D01*
X50875314Y-97579344D01*
X50856884Y-97790000D01*
X50875314Y-98000655D01*
X50930043Y-98204909D01*
X51019411Y-98396559D01*
X51140701Y-98569779D01*
X51290220Y-98719298D01*
X51463440Y-98840588D01*
X51463441Y-98840588D01*
X51463442Y-98840589D01*
X51655090Y-98929956D01*
X51684729Y-98937897D01*
X51686204Y-98938293D01*
X51746826Y-98975245D01*
X51777848Y-99039106D01*
X51769419Y-99109600D01*
X51724216Y-99164347D01*
X51686204Y-99181707D01*
X51655088Y-99190044D01*
X51463440Y-99279411D01*
X51290220Y-99400701D01*
X51140701Y-99550220D01*
X51019411Y-99723440D01*
X50961948Y-99846672D01*
X50915031Y-99899957D01*
X50846753Y-99919418D01*
X50778793Y-99898876D01*
X50758658Y-99882517D01*
X50404178Y-99528037D01*
X50373441Y-99477879D01*
X50364527Y-99450444D01*
X50364525Y-99450441D01*
X50362165Y-99443176D01*
X50355999Y-99404242D01*
X50355999Y-92619760D01*
X50362166Y-92580824D01*
X50398171Y-92470011D01*
X50423542Y-92391928D01*
X50443504Y-92202000D01*
X50423542Y-92012072D01*
X50383245Y-91888051D01*
X50362166Y-91823177D01*
X50355999Y-91784241D01*
X50355999Y-84999760D01*
X50362166Y-84960824D01*
X50396782Y-84854287D01*
X50423542Y-84771928D01*
X50443504Y-84582000D01*
X50423542Y-84392072D01*
X50382877Y-84266920D01*
X50364527Y-84210443D01*
X50269041Y-84045057D01*
X50141252Y-83903133D01*
X49986753Y-83790883D01*
X49986752Y-83790882D01*
X49812288Y-83713206D01*
X49625487Y-83673500D01*
X49434513Y-83673500D01*
X49317872Y-83698293D01*
X49247711Y-83713206D01*
X49073246Y-83790883D01*
X48918747Y-83903133D01*
X48790958Y-84045057D01*
X48695472Y-84210443D01*
X48636458Y-84392070D01*
X48626232Y-84489368D01*
X48616496Y-84582000D01*
X48636458Y-84771928D01*
X48636459Y-84771931D01*
X48697832Y-84960822D01*
X48703999Y-84999757D01*
X48703999Y-91784244D01*
X48697832Y-91823180D01*
X48636458Y-92012069D01*
X48626049Y-92111104D01*
X48616496Y-92202000D01*
X48636458Y-92391928D01*
X48636459Y-92391931D01*
X48697832Y-92580822D01*
X48703999Y-92619757D01*
X48703999Y-99404244D01*
X48697832Y-99443180D01*
X48636458Y-99632069D01*
X48616496Y-99821999D01*
X48636458Y-100011930D01*
X48687555Y-100169190D01*
X48689582Y-100240158D01*
X48652920Y-100300956D01*
X48589207Y-100332281D01*
X48548012Y-100332575D01*
X48391374Y-100307766D01*
X48384832Y-100307079D01*
X48003301Y-100287084D01*
X47996699Y-100287084D01*
X47615167Y-100307079D01*
X47608629Y-100307766D01*
X47231265Y-100367534D01*
X47224815Y-100368905D01*
X46855784Y-100467787D01*
X46849501Y-100469829D01*
X46492835Y-100606739D01*
X46486811Y-100609421D01*
X46146397Y-100782872D01*
X46140686Y-100786169D01*
X45820267Y-100994251D01*
X45814938Y-100998123D01*
X45562086Y-101202877D01*
X47059204Y-102699995D01*
X47056635Y-102701570D01*
X46865130Y-102865130D01*
X46701570Y-103056635D01*
X46699995Y-103059204D01*
X45202877Y-101562086D01*
X44998123Y-101814938D01*
X44994251Y-101820267D01*
X44786169Y-102140686D01*
X44782872Y-102146397D01*
X44609421Y-102486811D01*
X44606739Y-102492835D01*
X44469829Y-102849501D01*
X44467787Y-102855784D01*
X44368905Y-103224815D01*
X44367534Y-103231265D01*
X44307766Y-103608629D01*
X44307079Y-103615167D01*
X44287084Y-103996699D01*
X44287084Y-104003300D01*
X44025500Y-104003300D01*
X44025500Y-95250000D01*
X45118844Y-95250000D01*
X45137436Y-95474368D01*
X45137436Y-95474371D01*
X45137437Y-95474372D01*
X45192702Y-95692611D01*
X45283139Y-95898790D01*
X45368717Y-96029776D01*
X45406278Y-96087268D01*
X45523465Y-96214566D01*
X45549841Y-96243217D01*
X45581262Y-96306882D01*
X45573275Y-96377428D01*
X45528416Y-96432457D01*
X45501173Y-96446611D01*
X45386036Y-96489554D01*
X45269095Y-96577095D01*
X45181554Y-96694037D01*
X45130505Y-96830906D01*
X45124359Y-96888063D01*
X45124000Y-96894777D01*
X45124000Y-97536000D01*
X46050884Y-97536000D01*
X46022507Y-97580156D01*
X45982000Y-97718111D01*
X45982000Y-97861889D01*
X46022507Y-97999844D01*
X46050884Y-98044000D01*
X45124000Y-98044000D01*
X45124000Y-98685222D01*
X45124359Y-98691936D01*
X45130505Y-98749093D01*
X45181554Y-98885962D01*
X45269095Y-99002904D01*
X45386037Y-99090445D01*
X45522906Y-99141494D01*
X45580063Y-99147640D01*
X45586777Y-99148000D01*
X46228000Y-99148000D01*
X46228000Y-98223674D01*
X46339685Y-98274680D01*
X46446237Y-98290000D01*
X46517763Y-98290000D01*
X46624315Y-98274680D01*
X46736000Y-98223674D01*
X46736000Y-99148000D01*
X47377223Y-99148000D01*
X47383936Y-99147640D01*
X47441093Y-99141494D01*
X47577962Y-99090445D01*
X47694904Y-99002904D01*
X47782445Y-98885962D01*
X47833494Y-98749093D01*
X47839640Y-98691936D01*
X47840000Y-98685222D01*
X47840000Y-98044000D01*
X46913116Y-98044000D01*
X46941493Y-97999844D01*
X46982000Y-97861889D01*
X46982000Y-97718111D01*
X46941493Y-97580156D01*
X46913116Y-97536000D01*
X47840000Y-97536000D01*
X47840000Y-96894777D01*
X47839640Y-96888063D01*
X47833494Y-96830906D01*
X47782445Y-96694037D01*
X47694904Y-96577095D01*
X47577962Y-96489554D01*
X47462827Y-96446611D01*
X47405991Y-96404064D01*
X47381180Y-96337544D01*
X47396271Y-96268170D01*
X47414152Y-96243224D01*
X47557722Y-96087268D01*
X47680860Y-95898791D01*
X47771296Y-95692616D01*
X47826564Y-95474368D01*
X47845156Y-95250000D01*
X47826564Y-95025632D01*
X47771296Y-94807384D01*
X47680860Y-94601209D01*
X47557722Y-94412732D01*
X47405240Y-94247094D01*
X47405239Y-94247093D01*
X47405237Y-94247091D01*
X47227578Y-94108812D01*
X47029573Y-94001657D01*
X46885427Y-93952172D01*
X46816635Y-93928556D01*
X46594569Y-93891500D01*
X46369431Y-93891500D01*
X46147365Y-93928556D01*
X46147362Y-93928556D01*
X46147362Y-93928557D01*
X45934426Y-94001657D01*
X45736421Y-94108812D01*
X45558762Y-94247091D01*
X45406278Y-94412731D01*
X45283139Y-94601209D01*
X45192702Y-94807388D01*
X45137437Y-95025627D01*
X45137436Y-95025632D01*
X45118844Y-95250000D01*
X44025500Y-95250000D01*
X44025500Y-87630000D01*
X45118844Y-87630000D01*
X45137436Y-87854368D01*
X45137436Y-87854371D01*
X45137437Y-87854372D01*
X45192702Y-88072611D01*
X45283139Y-88278790D01*
X45283140Y-88278791D01*
X45406278Y-88467268D01*
X45540653Y-88613237D01*
X45549841Y-88623217D01*
X45581262Y-88686882D01*
X45573275Y-88757428D01*
X45528416Y-88812457D01*
X45501173Y-88826611D01*
X45386036Y-88869554D01*
X45269095Y-88957095D01*
X45181554Y-89074037D01*
X45130505Y-89210906D01*
X45124359Y-89268063D01*
X45124000Y-89274777D01*
X45124000Y-89916000D01*
X46050884Y-89916000D01*
X46022507Y-89960156D01*
X45982000Y-90098111D01*
X45982000Y-90241889D01*
X46022507Y-90379844D01*
X46050884Y-90424000D01*
X45124000Y-90424000D01*
X45124000Y-91065222D01*
X45124359Y-91071936D01*
X45130505Y-91129093D01*
X45181554Y-91265962D01*
X45269095Y-91382904D01*
X45386037Y-91470445D01*
X45522906Y-91521494D01*
X45580063Y-91527640D01*
X45586777Y-91528000D01*
X46228000Y-91528000D01*
X46228000Y-90603674D01*
X46339685Y-90654680D01*
X46446237Y-90670000D01*
X46517763Y-90670000D01*
X46624315Y-90654680D01*
X46736000Y-90603674D01*
X46736000Y-91528000D01*
X47377223Y-91528000D01*
X47383936Y-91527640D01*
X47441093Y-91521494D01*
X47577962Y-91470445D01*
X47694904Y-91382904D01*
X47782445Y-91265962D01*
X47833494Y-91129093D01*
X47839640Y-91071936D01*
X47840000Y-91065222D01*
X47840000Y-90424000D01*
X46913116Y-90424000D01*
X46941493Y-90379844D01*
X46982000Y-90241889D01*
X46982000Y-90098111D01*
X46941493Y-89960156D01*
X46913116Y-89916000D01*
X47840000Y-89916000D01*
X47840000Y-89274777D01*
X47839640Y-89268063D01*
X47833494Y-89210906D01*
X47782445Y-89074037D01*
X47694904Y-88957095D01*
X47577962Y-88869554D01*
X47462827Y-88826611D01*
X47405991Y-88784064D01*
X47381180Y-88717544D01*
X47396271Y-88648170D01*
X47414152Y-88623224D01*
X47557722Y-88467268D01*
X47680860Y-88278791D01*
X47771296Y-88072616D01*
X47826564Y-87854368D01*
X47845156Y-87630000D01*
X47826564Y-87405632D01*
X47771296Y-87187384D01*
X47680860Y-86981209D01*
X47557722Y-86792732D01*
X47405240Y-86627094D01*
X47405239Y-86627093D01*
X47405237Y-86627091D01*
X47227578Y-86488812D01*
X47029573Y-86381657D01*
X46885427Y-86332172D01*
X46816635Y-86308556D01*
X46594569Y-86271500D01*
X46369431Y-86271500D01*
X46147365Y-86308556D01*
X46147362Y-86308556D01*
X46147362Y-86308557D01*
X45934426Y-86381657D01*
X45736421Y-86488812D01*
X45558762Y-86627091D01*
X45406278Y-86792731D01*
X45283139Y-86981209D01*
X45192702Y-87187388D01*
X45154601Y-87337848D01*
X45137436Y-87405632D01*
X45118844Y-87630000D01*
X44025500Y-87630000D01*
X44025500Y-80010000D01*
X45118844Y-80010000D01*
X45137436Y-80234368D01*
X45137436Y-80234371D01*
X45137437Y-80234372D01*
X45192702Y-80452611D01*
X45192703Y-80452614D01*
X45192704Y-80452616D01*
X45202165Y-80474184D01*
X45283139Y-80658790D01*
X45357359Y-80772392D01*
X45406278Y-80847268D01*
X45532865Y-80984777D01*
X45549841Y-81003217D01*
X45581262Y-81066882D01*
X45573275Y-81137428D01*
X45528416Y-81192457D01*
X45501173Y-81206611D01*
X45386036Y-81249554D01*
X45269095Y-81337095D01*
X45181554Y-81454037D01*
X45130505Y-81590906D01*
X45124359Y-81648063D01*
X45124000Y-81654777D01*
X45124000Y-82296000D01*
X46050884Y-82296000D01*
X46022507Y-82340156D01*
X45982000Y-82478111D01*
X45982000Y-82621889D01*
X46022507Y-82759844D01*
X46050884Y-82804000D01*
X45124000Y-82804000D01*
X45124000Y-83445222D01*
X45124359Y-83451936D01*
X45130505Y-83509093D01*
X45181554Y-83645962D01*
X45269095Y-83762904D01*
X45386037Y-83850445D01*
X45522906Y-83901494D01*
X45580063Y-83907640D01*
X45586777Y-83908000D01*
X46228000Y-83908000D01*
X46228000Y-82983674D01*
X46339685Y-83034680D01*
X46446237Y-83050000D01*
X46517763Y-83050000D01*
X46624315Y-83034680D01*
X46736000Y-82983674D01*
X46736000Y-83908000D01*
X47377223Y-83908000D01*
X47383936Y-83907640D01*
X47441093Y-83901494D01*
X47577962Y-83850445D01*
X47694904Y-83762904D01*
X47782445Y-83645962D01*
X47833494Y-83509093D01*
X47839640Y-83451936D01*
X47840000Y-83445222D01*
X47840000Y-82804000D01*
X46913116Y-82804000D01*
X46941493Y-82759844D01*
X46982000Y-82621889D01*
X46982000Y-82478111D01*
X46941493Y-82340156D01*
X46913116Y-82296000D01*
X47840000Y-82296000D01*
X47840000Y-81654777D01*
X47839640Y-81648063D01*
X47833494Y-81590906D01*
X47782445Y-81454037D01*
X47694904Y-81337095D01*
X47577962Y-81249554D01*
X47462827Y-81206611D01*
X47405991Y-81164064D01*
X47381180Y-81097544D01*
X47396271Y-81028170D01*
X47414152Y-81003224D01*
X47557722Y-80847268D01*
X47680860Y-80658791D01*
X47771296Y-80452616D01*
X47826564Y-80234368D01*
X47845156Y-80010000D01*
X47826564Y-79785632D01*
X47771296Y-79567384D01*
X47680860Y-79361209D01*
X47557722Y-79172732D01*
X47405240Y-79007094D01*
X47405239Y-79007093D01*
X47405237Y-79007091D01*
X47227578Y-78868812D01*
X47029573Y-78761657D01*
X46885427Y-78712172D01*
X46816635Y-78688556D01*
X46594569Y-78651500D01*
X46369431Y-78651500D01*
X46147365Y-78688556D01*
X46147362Y-78688556D01*
X46147362Y-78688557D01*
X45934426Y-78761657D01*
X45736421Y-78868812D01*
X45558762Y-79007091D01*
X45406278Y-79172731D01*
X45283139Y-79361209D01*
X45192702Y-79567388D01*
X45137566Y-79785118D01*
X45137436Y-79785632D01*
X45118844Y-80010000D01*
X44025500Y-80010000D01*
X44025500Y-74168000D01*
X45118844Y-74168000D01*
X45137436Y-74392368D01*
X45137436Y-74392371D01*
X45137437Y-74392372D01*
X45192702Y-74610611D01*
X45283139Y-74816790D01*
X45406278Y-75005268D01*
X45558762Y-75170908D01*
X45736421Y-75309187D01*
X45736424Y-75309189D01*
X45934426Y-75416342D01*
X46147365Y-75489444D01*
X46369431Y-75526500D01*
X46369434Y-75526500D01*
X46594566Y-75526500D01*
X46594569Y-75526500D01*
X46816635Y-75489444D01*
X47029574Y-75416342D01*
X47227576Y-75309189D01*
X47405240Y-75170906D01*
X47501842Y-75065969D01*
X47530663Y-75034662D01*
X47591516Y-74998091D01*
X47623364Y-74994000D01*
X56490812Y-74994000D01*
X56542060Y-75004893D01*
X56572539Y-75018462D01*
X56613712Y-75036794D01*
X56800513Y-75076500D01*
X56800515Y-75076500D01*
X56991485Y-75076500D01*
X56991487Y-75076500D01*
X57178288Y-75036794D01*
X57235439Y-75011348D01*
X57305801Y-75001913D01*
X57370098Y-75032019D01*
X57384084Y-75046521D01*
X57515433Y-75206570D01*
X57668992Y-75332593D01*
X57668996Y-75332595D01*
X57844196Y-75426241D01*
X57939247Y-75455074D01*
X58034298Y-75483908D01*
X58232000Y-75503380D01*
X58429701Y-75483908D01*
X58619804Y-75426241D01*
X58743815Y-75359956D01*
X59621252Y-75359956D01*
X59744392Y-75425777D01*
X59934396Y-75483415D01*
X60131999Y-75502877D01*
X60329603Y-75483415D01*
X60519607Y-75425777D01*
X60642747Y-75359956D01*
X60132001Y-74849210D01*
X60132000Y-74849210D01*
X59621252Y-75359956D01*
X58743815Y-75359956D01*
X58795004Y-75332595D01*
X58795005Y-75332593D01*
X58795007Y-75332593D01*
X58948568Y-75206568D01*
X59082468Y-75043412D01*
X59084337Y-75044946D01*
X59122161Y-75006439D01*
X59191397Y-74990725D01*
X59202024Y-74991844D01*
X59262042Y-75000746D01*
X59949202Y-74313587D01*
X59896505Y-74392455D01*
X59877102Y-74490000D01*
X59896505Y-74587545D01*
X59951760Y-74670240D01*
X60034455Y-74725495D01*
X60107376Y-74740000D01*
X60156624Y-74740000D01*
X60229545Y-74725495D01*
X60312240Y-74670240D01*
X60367495Y-74587545D01*
X60386898Y-74490000D01*
X60367495Y-74392455D01*
X60314795Y-74313584D01*
X61001956Y-75000746D01*
X61067777Y-74877607D01*
X61125415Y-74687603D01*
X61144877Y-74490000D01*
X61134324Y-74382850D01*
X61147552Y-74313097D01*
X61196392Y-74261569D01*
X61259717Y-74244500D01*
X62958931Y-74244500D01*
X62979769Y-74246800D01*
X62982716Y-74246707D01*
X62982719Y-74246708D01*
X63051012Y-74244561D01*
X63054969Y-74244500D01*
X63079027Y-74244500D01*
X63082983Y-74244500D01*
X63086995Y-74243992D01*
X63087004Y-74243992D01*
X63098848Y-74243058D01*
X63143205Y-74241665D01*
X63162744Y-74235987D01*
X63182102Y-74231978D01*
X63202299Y-74229427D01*
X63243555Y-74213092D01*
X63254765Y-74209253D01*
X63297393Y-74196869D01*
X63314907Y-74186510D01*
X63332667Y-74177810D01*
X63351586Y-74170320D01*
X63351586Y-74170319D01*
X63351588Y-74170319D01*
X63387499Y-74144227D01*
X63397399Y-74137724D01*
X63435598Y-74115134D01*
X63449990Y-74100741D01*
X63465024Y-74087902D01*
X63469636Y-74084551D01*
X63536506Y-74060704D01*
X63543680Y-74060500D01*
X63595485Y-74060500D01*
X63595487Y-74060500D01*
X63782288Y-74020794D01*
X63956752Y-73943118D01*
X64111253Y-73830866D01*
X64239040Y-73688944D01*
X64334527Y-73523556D01*
X64393542Y-73341928D01*
X64413504Y-73152000D01*
X64393542Y-72962072D01*
X64334527Y-72780444D01*
X64334527Y-72780443D01*
X64239041Y-72615057D01*
X64111252Y-72473133D01*
X63956753Y-72360883D01*
X63956752Y-72360882D01*
X63782288Y-72283206D01*
X63595487Y-72243500D01*
X63404513Y-72243500D01*
X63279979Y-72269970D01*
X63217711Y-72283206D01*
X63043246Y-72360883D01*
X62888747Y-72473133D01*
X62760958Y-72615057D01*
X62665473Y-72780442D01*
X62631033Y-72886437D01*
X62590959Y-72945042D01*
X62525562Y-72972679D01*
X62511200Y-72973500D01*
X59197069Y-72973500D01*
X59176230Y-72971199D01*
X59110868Y-72973253D01*
X59104987Y-72973438D01*
X59101031Y-72973500D01*
X59073017Y-72973500D01*
X59069105Y-72973993D01*
X59069071Y-72973996D01*
X59068951Y-72974012D01*
X59057150Y-72974940D01*
X59012795Y-72976334D01*
X58993244Y-72982014D01*
X58973894Y-72986021D01*
X58953699Y-72988573D01*
X58912441Y-73004907D01*
X58901217Y-73008750D01*
X58858605Y-73021131D01*
X58841084Y-73031492D01*
X58823341Y-73040184D01*
X58804414Y-73047678D01*
X58768520Y-73073757D01*
X58758603Y-73080271D01*
X58720401Y-73102865D01*
X58706003Y-73117262D01*
X58690978Y-73130094D01*
X58674513Y-73142057D01*
X58646220Y-73176256D01*
X58638233Y-73185032D01*
X58378506Y-73444759D01*
X58316194Y-73478785D01*
X58277062Y-73481057D01*
X58232001Y-73476619D01*
X58034298Y-73496091D01*
X57844195Y-73553758D01*
X57743023Y-73607836D01*
X57673517Y-73622308D01*
X57607221Y-73596904D01*
X57589992Y-73581025D01*
X57507252Y-73489133D01*
X57379060Y-73395996D01*
X57352752Y-73376882D01*
X57178288Y-73299206D01*
X56991487Y-73259500D01*
X56800513Y-73259500D01*
X56613712Y-73299206D01*
X56613710Y-73299206D01*
X56613709Y-73299207D01*
X56542060Y-73331107D01*
X56490812Y-73342000D01*
X47623364Y-73342000D01*
X47555243Y-73321998D01*
X47530664Y-73301338D01*
X47414159Y-73174782D01*
X47382737Y-73111117D01*
X47390723Y-73040571D01*
X47435582Y-72985542D01*
X47462827Y-72971388D01*
X47577963Y-72928445D01*
X47694904Y-72840904D01*
X47782445Y-72723962D01*
X47833494Y-72587093D01*
X47839640Y-72529936D01*
X47840000Y-72523222D01*
X47840000Y-71882000D01*
X46913116Y-71882000D01*
X46941493Y-71837844D01*
X46982000Y-71699889D01*
X46982000Y-71556111D01*
X46941493Y-71418156D01*
X46913116Y-71374000D01*
X47840000Y-71374000D01*
X47840000Y-70732777D01*
X47839640Y-70726063D01*
X47833494Y-70668906D01*
X47782445Y-70532037D01*
X47694904Y-70415095D01*
X47577962Y-70327554D01*
X47441093Y-70276505D01*
X47383936Y-70270359D01*
X47377223Y-70270000D01*
X46736000Y-70270000D01*
X46736000Y-71194325D01*
X46624315Y-71143320D01*
X46517763Y-71128000D01*
X46446237Y-71128000D01*
X46339685Y-71143320D01*
X46228000Y-71194325D01*
X46228000Y-70270000D01*
X45586777Y-70270000D01*
X45580063Y-70270359D01*
X45522906Y-70276505D01*
X45386037Y-70327554D01*
X45269095Y-70415095D01*
X45181554Y-70532037D01*
X45130505Y-70668906D01*
X45124359Y-70726063D01*
X45124000Y-70732777D01*
X45124000Y-71374000D01*
X46050884Y-71374000D01*
X46022507Y-71418156D01*
X45982000Y-71556111D01*
X45982000Y-71699889D01*
X46022507Y-71837844D01*
X46050884Y-71882000D01*
X45124000Y-71882000D01*
X45124000Y-72523222D01*
X45124359Y-72529936D01*
X45130505Y-72587093D01*
X45181554Y-72723962D01*
X45269095Y-72840904D01*
X45386037Y-72928445D01*
X45501172Y-72971388D01*
X45558008Y-73013935D01*
X45582819Y-73080455D01*
X45567728Y-73149829D01*
X45549841Y-73174782D01*
X45406278Y-73330731D01*
X45283139Y-73519209D01*
X45192702Y-73725388D01*
X45137566Y-73943118D01*
X45137436Y-73943632D01*
X45118844Y-74168000D01*
X44025500Y-74168000D01*
X44025500Y-68833999D01*
X51410496Y-68833999D01*
X51430458Y-69023929D01*
X51489472Y-69205556D01*
X51584958Y-69370942D01*
X51584960Y-69370944D01*
X51712747Y-69512866D01*
X51867248Y-69625118D01*
X52041712Y-69702794D01*
X52228513Y-69742500D01*
X52228515Y-69742500D01*
X52419485Y-69742500D01*
X52419487Y-69742500D01*
X52606288Y-69702794D01*
X52780752Y-69625118D01*
X52935253Y-69512866D01*
X53063040Y-69370944D01*
X53158527Y-69205556D01*
X53217542Y-69023928D01*
X53234575Y-68861862D01*
X53261587Y-68796209D01*
X53270780Y-68785950D01*
X53730731Y-68325999D01*
X61062496Y-68325999D01*
X61082458Y-68515929D01*
X61141472Y-68697556D01*
X61236958Y-68862942D01*
X61236960Y-68862944D01*
X61364747Y-69004866D01*
X61519248Y-69117118D01*
X61693712Y-69194794D01*
X61880513Y-69234500D01*
X61933578Y-69234500D01*
X62001699Y-69254502D01*
X62022673Y-69271405D01*
X66383595Y-73632327D01*
X66417621Y-73694639D01*
X66420500Y-73721422D01*
X66420500Y-78293696D01*
X66400498Y-78361817D01*
X66388136Y-78378007D01*
X66316958Y-78457057D01*
X66221472Y-78622443D01*
X66162458Y-78804070D01*
X66142496Y-78993999D01*
X66162458Y-79183929D01*
X66221472Y-79365556D01*
X66316958Y-79530942D01*
X66349771Y-79567384D01*
X66444747Y-79672866D01*
X66599248Y-79785118D01*
X66773712Y-79862794D01*
X66960513Y-79902500D01*
X66960515Y-79902500D01*
X67151485Y-79902500D01*
X67151487Y-79902500D01*
X67338288Y-79862794D01*
X67512752Y-79785118D01*
X67667253Y-79672866D01*
X67795040Y-79530944D01*
X67890527Y-79365556D01*
X67949542Y-79183928D01*
X67969504Y-78994000D01*
X67949542Y-78804072D01*
X67918931Y-78709862D01*
X67890527Y-78622443D01*
X67795041Y-78457057D01*
X67723864Y-78378007D01*
X67693147Y-78313999D01*
X67691500Y-78293696D01*
X67691500Y-73490073D01*
X67693801Y-73469226D01*
X67693708Y-73466283D01*
X67693709Y-73466281D01*
X67691562Y-73397968D01*
X67691500Y-73394010D01*
X67691500Y-73369982D01*
X67691500Y-73366017D01*
X67690990Y-73361986D01*
X67690058Y-73350149D01*
X67689448Y-73330731D01*
X67688665Y-73305795D01*
X67682987Y-73286251D01*
X67678977Y-73266889D01*
X67676427Y-73246701D01*
X67660092Y-73205443D01*
X67656248Y-73194216D01*
X67643983Y-73152000D01*
X67643869Y-73151607D01*
X67633504Y-73134082D01*
X67624815Y-73116346D01*
X67617319Y-73097412D01*
X67591235Y-73061510D01*
X67584719Y-73051590D01*
X67562135Y-73013403D01*
X67555825Y-73007093D01*
X67547743Y-72999011D01*
X67534907Y-72983982D01*
X67529351Y-72976335D01*
X67522942Y-72967513D01*
X67516363Y-72962070D01*
X67488742Y-72939220D01*
X67479963Y-72931231D01*
X62922789Y-68374056D01*
X62888763Y-68311744D01*
X62886576Y-68298146D01*
X62869542Y-68136072D01*
X62821087Y-67986943D01*
X62810527Y-67954443D01*
X62715041Y-67789057D01*
X62587252Y-67647133D01*
X62432753Y-67534883D01*
X62432752Y-67534882D01*
X62258288Y-67457206D01*
X62071487Y-67417500D01*
X61880513Y-67417500D01*
X61755978Y-67443970D01*
X61693711Y-67457206D01*
X61519246Y-67534883D01*
X61364747Y-67647133D01*
X61236958Y-67789057D01*
X61141472Y-67954443D01*
X61082458Y-68136070D01*
X61062496Y-68325999D01*
X53730731Y-68325999D01*
X55961774Y-66094957D01*
X62714290Y-66094957D01*
X62733606Y-66401994D01*
X62734599Y-66409855D01*
X62792245Y-66712046D01*
X62794216Y-66719723D01*
X62889284Y-67012309D01*
X62892199Y-67019672D01*
X63023189Y-67298040D01*
X63027001Y-67304974D01*
X63191847Y-67564730D01*
X63196500Y-67571135D01*
X63283043Y-67675746D01*
X64000913Y-66957875D01*
X64119632Y-67110404D01*
X64302523Y-67278768D01*
X64360537Y-67316670D01*
X63639521Y-68037686D01*
X63639521Y-68037688D01*
X63877280Y-68210429D01*
X63883961Y-68214669D01*
X64153572Y-68362889D01*
X64160707Y-68366247D01*
X64446769Y-68479507D01*
X64454295Y-68481952D01*
X64752278Y-68558462D01*
X64760050Y-68559944D01*
X65065278Y-68598503D01*
X65073169Y-68599000D01*
X65380831Y-68599000D01*
X65388721Y-68598503D01*
X65693949Y-68559944D01*
X65701721Y-68558462D01*
X65999704Y-68481952D01*
X66007230Y-68479507D01*
X66293292Y-68366247D01*
X66300427Y-68362889D01*
X66570038Y-68214669D01*
X66576719Y-68210429D01*
X66814477Y-68037688D01*
X66814477Y-68037686D01*
X66093461Y-67316670D01*
X66151477Y-67278768D01*
X66334368Y-67110404D01*
X66453085Y-66957876D01*
X67170955Y-67675746D01*
X67170956Y-67675745D01*
X67257499Y-67571135D01*
X67262152Y-67564730D01*
X67426998Y-67304974D01*
X67430810Y-67298040D01*
X67561800Y-67019672D01*
X67564715Y-67012309D01*
X67659783Y-66719723D01*
X67661754Y-66712046D01*
X67719400Y-66409855D01*
X67720393Y-66401994D01*
X67739710Y-66094957D01*
X70944290Y-66094957D01*
X70963606Y-66401994D01*
X70964599Y-66409855D01*
X71022245Y-66712046D01*
X71024216Y-66719723D01*
X71119284Y-67012309D01*
X71122199Y-67019672D01*
X71253189Y-67298040D01*
X71257001Y-67304974D01*
X71421847Y-67564730D01*
X71426500Y-67571135D01*
X71513043Y-67675746D01*
X72230913Y-66957875D01*
X72349632Y-67110404D01*
X72532523Y-67278768D01*
X72590537Y-67316670D01*
X71869521Y-68037686D01*
X71869521Y-68037688D01*
X72107280Y-68210429D01*
X72113961Y-68214669D01*
X72383572Y-68362889D01*
X72390707Y-68366247D01*
X72676769Y-68479507D01*
X72684295Y-68481952D01*
X72982278Y-68558462D01*
X72990050Y-68559944D01*
X73295278Y-68598503D01*
X73303169Y-68599000D01*
X73610831Y-68599000D01*
X73618721Y-68598503D01*
X73923949Y-68559944D01*
X73931721Y-68558462D01*
X74229704Y-68481952D01*
X74237230Y-68479507D01*
X74523292Y-68366247D01*
X74530427Y-68362889D01*
X74800038Y-68214669D01*
X74806719Y-68210429D01*
X75044477Y-68037688D01*
X75044477Y-68037686D01*
X74323461Y-67316670D01*
X74381477Y-67278768D01*
X74564368Y-67110404D01*
X74683085Y-66957876D01*
X75400955Y-67675746D01*
X75400956Y-67675745D01*
X75487499Y-67571135D01*
X75492152Y-67564730D01*
X75656998Y-67304974D01*
X75660810Y-67298040D01*
X75791800Y-67019672D01*
X75794715Y-67012309D01*
X75889783Y-66719723D01*
X75891754Y-66712046D01*
X75949400Y-66409855D01*
X75950393Y-66401994D01*
X75969710Y-66094957D01*
X75969710Y-66087042D01*
X75950393Y-65780005D01*
X75949400Y-65772144D01*
X75891754Y-65469953D01*
X75889783Y-65462276D01*
X75794715Y-65169690D01*
X75791800Y-65162327D01*
X75660810Y-64883959D01*
X75656998Y-64877025D01*
X75589078Y-64770000D01*
X76415844Y-64770000D01*
X76434436Y-64994368D01*
X76434436Y-64994371D01*
X76434437Y-64994372D01*
X76489702Y-65212611D01*
X76580139Y-65418790D01*
X76614183Y-65470898D01*
X76703278Y-65607268D01*
X76832295Y-65747417D01*
X76855762Y-65772908D01*
X77033421Y-65911187D01*
X77033424Y-65911189D01*
X77231426Y-66018342D01*
X77444365Y-66091444D01*
X77666431Y-66128500D01*
X77666434Y-66128500D01*
X77891566Y-66128500D01*
X77891569Y-66128500D01*
X78113635Y-66091444D01*
X78326574Y-66018342D01*
X78524576Y-65911189D01*
X78702240Y-65772906D01*
X78854722Y-65607268D01*
X78943817Y-65470896D01*
X78997819Y-65424809D01*
X79068167Y-65415234D01*
X79132524Y-65445211D01*
X79154782Y-65470897D01*
X79243678Y-65606962D01*
X79396096Y-65772533D01*
X79573697Y-65910766D01*
X79771631Y-66017883D01*
X79984485Y-66090955D01*
X80065000Y-66104391D01*
X80065000Y-65203674D01*
X80176685Y-65254680D01*
X80283237Y-65270000D01*
X80354763Y-65270000D01*
X80461315Y-65254680D01*
X80573000Y-65203674D01*
X80573000Y-66104390D01*
X80653514Y-66090955D01*
X80866368Y-66017883D01*
X81064302Y-65910766D01*
X81241903Y-65772533D01*
X81394323Y-65606960D01*
X81483217Y-65470899D01*
X81537220Y-65424810D01*
X81607568Y-65415235D01*
X81671926Y-65445212D01*
X81694183Y-65470898D01*
X81783278Y-65607268D01*
X81912295Y-65747417D01*
X81935762Y-65772908D01*
X82113421Y-65911187D01*
X82113424Y-65911189D01*
X82311426Y-66018342D01*
X82524365Y-66091444D01*
X82746431Y-66128500D01*
X82746434Y-66128500D01*
X82971566Y-66128500D01*
X82971569Y-66128500D01*
X83193635Y-66091444D01*
X83406574Y-66018342D01*
X83604576Y-65911189D01*
X83782240Y-65772906D01*
X83843246Y-65706636D01*
X83904098Y-65670066D01*
X83975062Y-65672201D01*
X84033608Y-65712362D01*
X84054000Y-65747940D01*
X84065960Y-65780005D01*
X84098111Y-65866205D01*
X84185738Y-65983261D01*
X84302794Y-66070888D01*
X84302795Y-66070888D01*
X84302796Y-66070889D01*
X84439799Y-66121989D01*
X84500362Y-66128500D01*
X84503731Y-66128500D01*
X86294269Y-66128500D01*
X86297638Y-66128500D01*
X86358201Y-66121989D01*
X86495204Y-66070889D01*
X86612261Y-65983261D01*
X86699889Y-65866204D01*
X86750989Y-65729201D01*
X86757500Y-65668638D01*
X86757500Y-63871362D01*
X86750989Y-63810799D01*
X86699889Y-63673796D01*
X86699888Y-63673794D01*
X86612261Y-63556738D01*
X86495205Y-63469111D01*
X86405377Y-63435607D01*
X86358201Y-63418011D01*
X86297638Y-63411500D01*
X84500362Y-63411500D01*
X84497013Y-63411859D01*
X84497013Y-63411860D01*
X84439799Y-63418011D01*
X84302794Y-63469111D01*
X84185738Y-63556738D01*
X84098109Y-63673796D01*
X84054000Y-63792057D01*
X84011453Y-63848893D01*
X83944933Y-63873703D01*
X83875559Y-63858611D01*
X83843246Y-63833363D01*
X83782240Y-63767094D01*
X83782239Y-63767093D01*
X83782237Y-63767091D01*
X83604578Y-63628812D01*
X83406573Y-63521657D01*
X83253510Y-63469111D01*
X83193635Y-63448556D01*
X82971569Y-63411500D01*
X82746431Y-63411500D01*
X82524365Y-63448556D01*
X82524362Y-63448556D01*
X82524362Y-63448557D01*
X82311426Y-63521657D01*
X82113421Y-63628812D01*
X81935762Y-63767091D01*
X81783275Y-63932735D01*
X81694182Y-64069101D01*
X81640179Y-64115189D01*
X81569831Y-64124764D01*
X81505473Y-64094786D01*
X81483217Y-64069101D01*
X81394321Y-63933037D01*
X81241903Y-63767466D01*
X81064302Y-63629233D01*
X80866368Y-63522116D01*
X80653510Y-63449042D01*
X80573000Y-63435606D01*
X80573000Y-64336325D01*
X80461315Y-64285320D01*
X80354763Y-64270000D01*
X80283237Y-64270000D01*
X80176685Y-64285320D01*
X80065000Y-64336325D01*
X80065000Y-63435607D01*
X80064999Y-63435606D01*
X79984489Y-63449042D01*
X79771631Y-63522116D01*
X79573697Y-63629233D01*
X79396096Y-63767466D01*
X79243678Y-63933037D01*
X79154782Y-64069102D01*
X79100778Y-64115190D01*
X79030430Y-64124765D01*
X78966073Y-64094787D01*
X78943816Y-64069101D01*
X78854723Y-63932734D01*
X78854722Y-63932732D01*
X78702240Y-63767094D01*
X78702239Y-63767093D01*
X78702237Y-63767091D01*
X78524578Y-63628812D01*
X78326573Y-63521657D01*
X78173510Y-63469111D01*
X78113635Y-63448556D01*
X77891569Y-63411500D01*
X77666431Y-63411500D01*
X77444365Y-63448556D01*
X77444362Y-63448556D01*
X77444362Y-63448557D01*
X77231426Y-63521657D01*
X77033421Y-63628812D01*
X76855762Y-63767091D01*
X76703278Y-63932731D01*
X76580139Y-64121209D01*
X76489702Y-64327388D01*
X76444408Y-64506252D01*
X76434436Y-64545632D01*
X76415844Y-64770000D01*
X75589078Y-64770000D01*
X75492152Y-64617269D01*
X75487499Y-64610864D01*
X75400955Y-64506252D01*
X74683084Y-65224122D01*
X74564368Y-65071596D01*
X74381477Y-64903232D01*
X74323461Y-64865328D01*
X75044477Y-64144312D01*
X75044477Y-64144310D01*
X74806719Y-63971570D01*
X74800038Y-63967330D01*
X74530427Y-63819110D01*
X74523292Y-63815752D01*
X74237230Y-63702492D01*
X74229704Y-63700047D01*
X73931721Y-63623537D01*
X73923949Y-63622055D01*
X73618721Y-63583496D01*
X73610831Y-63583000D01*
X73303169Y-63583000D01*
X73295278Y-63583496D01*
X72990050Y-63622055D01*
X72982278Y-63623537D01*
X72684295Y-63700047D01*
X72676769Y-63702492D01*
X72390707Y-63815752D01*
X72383572Y-63819110D01*
X72113961Y-63967330D01*
X72107272Y-63971575D01*
X71869521Y-64144309D01*
X71869521Y-64144312D01*
X72590538Y-64865328D01*
X72532523Y-64903232D01*
X72349632Y-65071596D01*
X72230914Y-65224123D01*
X71513043Y-64506252D01*
X71513042Y-64506252D01*
X71426495Y-64610870D01*
X71421850Y-64617263D01*
X71257001Y-64877025D01*
X71253189Y-64883959D01*
X71122199Y-65162327D01*
X71119284Y-65169690D01*
X71024216Y-65462276D01*
X71022245Y-65469953D01*
X70964599Y-65772144D01*
X70963606Y-65780005D01*
X70944290Y-66087042D01*
X70944290Y-66094957D01*
X67739710Y-66094957D01*
X67739710Y-66087042D01*
X67720393Y-65780005D01*
X67719400Y-65772144D01*
X67661754Y-65469953D01*
X67659783Y-65462276D01*
X67564715Y-65169690D01*
X67561800Y-65162327D01*
X67430810Y-64883959D01*
X67426998Y-64877025D01*
X67262152Y-64617269D01*
X67257499Y-64610864D01*
X67170955Y-64506252D01*
X66453084Y-65224122D01*
X66334368Y-65071596D01*
X66151477Y-64903232D01*
X66093461Y-64865328D01*
X66814477Y-64144312D01*
X66814477Y-64144310D01*
X66576719Y-63971570D01*
X66570038Y-63967330D01*
X66300427Y-63819110D01*
X66293292Y-63815752D01*
X66007230Y-63702492D01*
X65999704Y-63700047D01*
X65701721Y-63623537D01*
X65693949Y-63622055D01*
X65388721Y-63583496D01*
X65380831Y-63583000D01*
X65073169Y-63583000D01*
X65065278Y-63583496D01*
X64760050Y-63622055D01*
X64752278Y-63623537D01*
X64454295Y-63700047D01*
X64446769Y-63702492D01*
X64160707Y-63815752D01*
X64153572Y-63819110D01*
X63883961Y-63967330D01*
X63877272Y-63971575D01*
X63639521Y-64144309D01*
X63639521Y-64144312D01*
X64360538Y-64865329D01*
X64302523Y-64903232D01*
X64119632Y-65071596D01*
X64000914Y-65224123D01*
X63283043Y-64506252D01*
X63283042Y-64506252D01*
X63196495Y-64610870D01*
X63191850Y-64617263D01*
X63027001Y-64877025D01*
X63023189Y-64883959D01*
X62892199Y-65162327D01*
X62889284Y-65169690D01*
X62794216Y-65462276D01*
X62792245Y-65469953D01*
X62734599Y-65772144D01*
X62733606Y-65780005D01*
X62714290Y-66087042D01*
X62714290Y-66094957D01*
X55961774Y-66094957D01*
X56849326Y-65207405D01*
X56911639Y-65173379D01*
X56938422Y-65170500D01*
X56991485Y-65170500D01*
X56991487Y-65170500D01*
X57178288Y-65130794D01*
X57352752Y-65053118D01*
X57507253Y-64940866D01*
X57635040Y-64798944D01*
X57730527Y-64633556D01*
X57789542Y-64451928D01*
X57809504Y-64262000D01*
X57789542Y-64072072D01*
X57755509Y-63967330D01*
X57730527Y-63890443D01*
X57635041Y-63725057D01*
X57507252Y-63583133D01*
X57422639Y-63521658D01*
X57352752Y-63470882D01*
X57178288Y-63393206D01*
X56991487Y-63353500D01*
X56800513Y-63353500D01*
X56675978Y-63379970D01*
X56613711Y-63393206D01*
X56439246Y-63470883D01*
X56284747Y-63583133D01*
X56156958Y-63725057D01*
X56061472Y-63890443D01*
X56002458Y-64072070D01*
X55985425Y-64234131D01*
X55958411Y-64299788D01*
X55949210Y-64310055D01*
X52370672Y-67888595D01*
X52308360Y-67922620D01*
X52281577Y-67925500D01*
X52228513Y-67925500D01*
X52103978Y-67951970D01*
X52041711Y-67965206D01*
X51969847Y-67997202D01*
X51878919Y-68037686D01*
X51867246Y-68042883D01*
X51712747Y-68155133D01*
X51584958Y-68297057D01*
X51489472Y-68462443D01*
X51430458Y-68644070D01*
X51410496Y-68833999D01*
X44025500Y-68833999D01*
X44025500Y-61976000D01*
X66328401Y-61976000D01*
X66348778Y-62325857D01*
X66349412Y-62329452D01*
X66349413Y-62329461D01*
X66408995Y-62667371D01*
X66408998Y-62667386D01*
X66409633Y-62670984D01*
X66510143Y-63006712D01*
X66648950Y-63328501D01*
X66824175Y-63632000D01*
X67033449Y-63913104D01*
X67035957Y-63915762D01*
X67035961Y-63915767D01*
X67180625Y-64069101D01*
X67273943Y-64168012D01*
X67542403Y-64393278D01*
X67835200Y-64585853D01*
X68148374Y-64743135D01*
X68477690Y-64862996D01*
X68818694Y-64943816D01*
X69166775Y-64984500D01*
X69170445Y-64984500D01*
X69513555Y-64984500D01*
X69517225Y-64984500D01*
X69865306Y-64943816D01*
X70206310Y-64862996D01*
X70535626Y-64743135D01*
X70848800Y-64585853D01*
X71141597Y-64393278D01*
X71410057Y-64168012D01*
X71650551Y-63913104D01*
X71859825Y-63632000D01*
X72035050Y-63328501D01*
X72173857Y-63006712D01*
X72274367Y-62670984D01*
X72335222Y-62325857D01*
X72355599Y-61976000D01*
X72335222Y-61626143D01*
X72274367Y-61281016D01*
X72173857Y-60945288D01*
X72035050Y-60623499D01*
X71859825Y-60320000D01*
X71650551Y-60038896D01*
X71599390Y-59984669D01*
X71412574Y-59786656D01*
X71410057Y-59783988D01*
X71407249Y-59781631D01*
X71407245Y-59781628D01*
X71144412Y-59561084D01*
X71144411Y-59561083D01*
X71141597Y-59558722D01*
X70848800Y-59366147D01*
X70535626Y-59208865D01*
X70206310Y-59089004D01*
X70117857Y-59068040D01*
X69868875Y-59009029D01*
X69868860Y-59009026D01*
X69865306Y-59008184D01*
X69861665Y-59007758D01*
X69861657Y-59007757D01*
X69520871Y-58967926D01*
X69520868Y-58967925D01*
X69517225Y-58967500D01*
X69166775Y-58967500D01*
X69163132Y-58967925D01*
X69163128Y-58967926D01*
X68822342Y-59007757D01*
X68822331Y-59007758D01*
X68818694Y-59008184D01*
X68815142Y-59009025D01*
X68815124Y-59009029D01*
X68481259Y-59088158D01*
X68481256Y-59088158D01*
X68477690Y-59089004D01*
X68474238Y-59090260D01*
X68474236Y-59090261D01*
X68308736Y-59150498D01*
X68148374Y-59208865D01*
X68145107Y-59210505D01*
X68145104Y-59210507D01*
X67838467Y-59364506D01*
X67835200Y-59366147D01*
X67832148Y-59368153D01*
X67832145Y-59368156D01*
X67545470Y-59556704D01*
X67545460Y-59556710D01*
X67542403Y-59558722D01*
X67539596Y-59561076D01*
X67539587Y-59561084D01*
X67276754Y-59781628D01*
X67276741Y-59781639D01*
X67273943Y-59783988D01*
X67271432Y-59786648D01*
X67271425Y-59786656D01*
X67035961Y-60036232D01*
X67035950Y-60036245D01*
X67033449Y-60038896D01*
X67031265Y-60041829D01*
X67031263Y-60041832D01*
X66826360Y-60317064D01*
X66826354Y-60317072D01*
X66824175Y-60320000D01*
X66822343Y-60323172D01*
X66822343Y-60323173D01*
X66650784Y-60620321D01*
X66650778Y-60620331D01*
X66648950Y-60623499D01*
X66647501Y-60626857D01*
X66647496Y-60626868D01*
X66511595Y-60941920D01*
X66511590Y-60941932D01*
X66510143Y-60945288D01*
X66509093Y-60948795D01*
X66509092Y-60948798D01*
X66492042Y-61005751D01*
X66409633Y-61281016D01*
X66408999Y-61284609D01*
X66408995Y-61284628D01*
X66349413Y-61622538D01*
X66349411Y-61622549D01*
X66348778Y-61626143D01*
X66328401Y-61976000D01*
X44025500Y-61976000D01*
X44025500Y-58003300D01*
X44287084Y-58003300D01*
X44307079Y-58384832D01*
X44307766Y-58391370D01*
X44367534Y-58768734D01*
X44368905Y-58775184D01*
X44467787Y-59144215D01*
X44469829Y-59150498D01*
X44606739Y-59507164D01*
X44609421Y-59513188D01*
X44782873Y-59853605D01*
X44786169Y-59859314D01*
X44994248Y-60179727D01*
X44998130Y-60185070D01*
X45202876Y-60437911D01*
X45202877Y-60437912D01*
X46699994Y-58940794D01*
X46701570Y-58943365D01*
X46865130Y-59134870D01*
X47056635Y-59298430D01*
X47059203Y-59300004D01*
X45562086Y-60797121D01*
X45562087Y-60797122D01*
X45814929Y-61001869D01*
X45820272Y-61005751D01*
X46140685Y-61213830D01*
X46146394Y-61217126D01*
X46486811Y-61390578D01*
X46492835Y-61393260D01*
X46849501Y-61530170D01*
X46855784Y-61532212D01*
X47224815Y-61631094D01*
X47231265Y-61632465D01*
X47608629Y-61692233D01*
X47615167Y-61692920D01*
X47996699Y-61712916D01*
X48003301Y-61712916D01*
X48384832Y-61692920D01*
X48391370Y-61692233D01*
X48768734Y-61632465D01*
X48775184Y-61631094D01*
X49144215Y-61532212D01*
X49150498Y-61530170D01*
X49507164Y-61393260D01*
X49513188Y-61390578D01*
X49853605Y-61217126D01*
X49859314Y-61213830D01*
X50179728Y-61005751D01*
X50185064Y-61001874D01*
X50437912Y-60797121D01*
X48940795Y-59300004D01*
X48943365Y-59298430D01*
X49134870Y-59134870D01*
X49298430Y-58943365D01*
X49300004Y-58940795D01*
X50797121Y-60437912D01*
X51001874Y-60185064D01*
X51005751Y-60179728D01*
X51213830Y-59859314D01*
X51217126Y-59853605D01*
X51390578Y-59513188D01*
X51393260Y-59507164D01*
X51530170Y-59150498D01*
X51532212Y-59144215D01*
X51631094Y-58775184D01*
X51632465Y-58768734D01*
X51666057Y-58556638D01*
X59601500Y-58556638D01*
X59601860Y-58559986D01*
X59608011Y-58617200D01*
X59659111Y-58754205D01*
X59746738Y-58871261D01*
X59863794Y-58958888D01*
X59863795Y-58958888D01*
X59863796Y-58958889D01*
X60000799Y-59009989D01*
X60061362Y-59016500D01*
X60064731Y-59016500D01*
X61855269Y-59016500D01*
X61858638Y-59016500D01*
X61919201Y-59009989D01*
X62056204Y-58958889D01*
X62173261Y-58871261D01*
X62260889Y-58754204D01*
X62311989Y-58617201D01*
X62318500Y-58556638D01*
X62318500Y-57864957D01*
X62714290Y-57864957D01*
X62733606Y-58171994D01*
X62734599Y-58179855D01*
X62792245Y-58482046D01*
X62794216Y-58489723D01*
X62889284Y-58782309D01*
X62892199Y-58789672D01*
X63023189Y-59068040D01*
X63027001Y-59074974D01*
X63191847Y-59334730D01*
X63196500Y-59341135D01*
X63283043Y-59445746D01*
X64000913Y-58727875D01*
X64119632Y-58880404D01*
X64302523Y-59048768D01*
X64360537Y-59086670D01*
X63639521Y-59807686D01*
X63639521Y-59807688D01*
X63877280Y-59980429D01*
X63883961Y-59984669D01*
X64153572Y-60132889D01*
X64160707Y-60136247D01*
X64446769Y-60249507D01*
X64454295Y-60251952D01*
X64752278Y-60328462D01*
X64760050Y-60329944D01*
X65065278Y-60368503D01*
X65073169Y-60369000D01*
X65380831Y-60369000D01*
X65388721Y-60368503D01*
X65693949Y-60329944D01*
X65701721Y-60328462D01*
X65999704Y-60251952D01*
X66007230Y-60249507D01*
X66293292Y-60136247D01*
X66300427Y-60132889D01*
X66570038Y-59984669D01*
X66576719Y-59980429D01*
X66814477Y-59807688D01*
X66814477Y-59807686D01*
X66093461Y-59086670D01*
X66151477Y-59048768D01*
X66334368Y-58880404D01*
X66453085Y-58727876D01*
X67170955Y-59445746D01*
X67170956Y-59445745D01*
X67257499Y-59341135D01*
X67262152Y-59334730D01*
X67426998Y-59074974D01*
X67430810Y-59068040D01*
X67561800Y-58789672D01*
X67564715Y-58782309D01*
X67659783Y-58489723D01*
X67661754Y-58482046D01*
X67719400Y-58179855D01*
X67720393Y-58171994D01*
X67739710Y-57864957D01*
X70944290Y-57864957D01*
X70963606Y-58171994D01*
X70964599Y-58179855D01*
X71022245Y-58482046D01*
X71024216Y-58489723D01*
X71119284Y-58782309D01*
X71122199Y-58789672D01*
X71253189Y-59068040D01*
X71257001Y-59074974D01*
X71421847Y-59334730D01*
X71426500Y-59341135D01*
X71513043Y-59445746D01*
X72230913Y-58727875D01*
X72349632Y-58880404D01*
X72532523Y-59048768D01*
X72590537Y-59086670D01*
X71869521Y-59807686D01*
X71869521Y-59807688D01*
X72107280Y-59980429D01*
X72113961Y-59984669D01*
X72383572Y-60132889D01*
X72390707Y-60136247D01*
X72676769Y-60249507D01*
X72684295Y-60251952D01*
X72982278Y-60328462D01*
X72990050Y-60329944D01*
X73295278Y-60368503D01*
X73303169Y-60369000D01*
X73610831Y-60369000D01*
X73618721Y-60368503D01*
X73923949Y-60329944D01*
X73931721Y-60328462D01*
X74229704Y-60251952D01*
X74237230Y-60249507D01*
X74523292Y-60136247D01*
X74530427Y-60132889D01*
X74800038Y-59984669D01*
X74806719Y-59980429D01*
X75044477Y-59807688D01*
X75044477Y-59807686D01*
X74323461Y-59086670D01*
X74381477Y-59048768D01*
X74564368Y-58880404D01*
X74683085Y-58727876D01*
X75400955Y-59445746D01*
X75400956Y-59445745D01*
X75487499Y-59341135D01*
X75492152Y-59334730D01*
X75656998Y-59074974D01*
X75660810Y-59068040D01*
X75791800Y-58789672D01*
X75794715Y-58782309D01*
X75889783Y-58489723D01*
X75891754Y-58482046D01*
X75949400Y-58179855D01*
X75950393Y-58171994D01*
X75961006Y-58003300D01*
X103287084Y-58003300D01*
X103307079Y-58384832D01*
X103307766Y-58391370D01*
X103367534Y-58768734D01*
X103368905Y-58775184D01*
X103467787Y-59144215D01*
X103469829Y-59150498D01*
X103606739Y-59507164D01*
X103609421Y-59513188D01*
X103782873Y-59853605D01*
X103786169Y-59859314D01*
X103994248Y-60179727D01*
X103998130Y-60185070D01*
X104202876Y-60437911D01*
X104202877Y-60437912D01*
X105699994Y-58940794D01*
X105701570Y-58943365D01*
X105865130Y-59134870D01*
X106056635Y-59298430D01*
X106059203Y-59300004D01*
X104562086Y-60797121D01*
X104562087Y-60797122D01*
X104814929Y-61001869D01*
X104820272Y-61005751D01*
X105140685Y-61213830D01*
X105146394Y-61217126D01*
X105486811Y-61390578D01*
X105492835Y-61393260D01*
X105849501Y-61530170D01*
X105855784Y-61532212D01*
X106224815Y-61631094D01*
X106231265Y-61632465D01*
X106608629Y-61692233D01*
X106615167Y-61692920D01*
X106996699Y-61712916D01*
X107003301Y-61712916D01*
X107384832Y-61692920D01*
X107391370Y-61692233D01*
X107768734Y-61632465D01*
X107775184Y-61631094D01*
X108144215Y-61532212D01*
X108150498Y-61530170D01*
X108507164Y-61393260D01*
X108513188Y-61390578D01*
X108853605Y-61217126D01*
X108859314Y-61213830D01*
X109179728Y-61005751D01*
X109185064Y-61001874D01*
X109437912Y-60797121D01*
X107940795Y-59300004D01*
X107943365Y-59298430D01*
X108134870Y-59134870D01*
X108298430Y-58943365D01*
X108300004Y-58940795D01*
X109797121Y-60437912D01*
X110001874Y-60185064D01*
X110005751Y-60179728D01*
X110213830Y-59859314D01*
X110217126Y-59853605D01*
X110390578Y-59513188D01*
X110393260Y-59507164D01*
X110530170Y-59150498D01*
X110532212Y-59144215D01*
X110631094Y-58775184D01*
X110632465Y-58768734D01*
X110692233Y-58391370D01*
X110692920Y-58384832D01*
X110712916Y-58003300D01*
X110712916Y-57996699D01*
X110692920Y-57615167D01*
X110692233Y-57608629D01*
X110632465Y-57231265D01*
X110631094Y-57224815D01*
X110532212Y-56855784D01*
X110530170Y-56849501D01*
X110393260Y-56492835D01*
X110390578Y-56486811D01*
X110217127Y-56146397D01*
X110213830Y-56140686D01*
X110005753Y-55820275D01*
X110001865Y-55814924D01*
X109797122Y-55562087D01*
X109797121Y-55562086D01*
X108300004Y-57059203D01*
X108298430Y-57056635D01*
X108134870Y-56865130D01*
X107943365Y-56701570D01*
X107940794Y-56699994D01*
X109437912Y-55202877D01*
X109437911Y-55202876D01*
X109185070Y-54998130D01*
X109179727Y-54994248D01*
X108859314Y-54786169D01*
X108853605Y-54782873D01*
X108513188Y-54609421D01*
X108507164Y-54606739D01*
X108150498Y-54469829D01*
X108144215Y-54467787D01*
X107775184Y-54368905D01*
X107768734Y-54367534D01*
X107391370Y-54307766D01*
X107384832Y-54307079D01*
X107003301Y-54287084D01*
X106996699Y-54287084D01*
X106615167Y-54307079D01*
X106608629Y-54307766D01*
X106231265Y-54367534D01*
X106224815Y-54368905D01*
X105855784Y-54467787D01*
X105849501Y-54469829D01*
X105492835Y-54606739D01*
X105486811Y-54609421D01*
X105146397Y-54782872D01*
X105140686Y-54786169D01*
X104820267Y-54994251D01*
X104814938Y-54998123D01*
X104562086Y-55202877D01*
X106059204Y-56699995D01*
X106056635Y-56701570D01*
X105865130Y-56865130D01*
X105701570Y-57056635D01*
X105699995Y-57059204D01*
X104202877Y-55562086D01*
X103998123Y-55814938D01*
X103994251Y-55820267D01*
X103786169Y-56140686D01*
X103782872Y-56146397D01*
X103609421Y-56486811D01*
X103606739Y-56492835D01*
X103469829Y-56849501D01*
X103467787Y-56855784D01*
X103368905Y-57224815D01*
X103367534Y-57231265D01*
X103307766Y-57608629D01*
X103307079Y-57615167D01*
X103287084Y-57996699D01*
X103287084Y-58003300D01*
X75961006Y-58003300D01*
X75969710Y-57864957D01*
X75969710Y-57857042D01*
X75950393Y-57550005D01*
X75949400Y-57542144D01*
X75891754Y-57239953D01*
X75889783Y-57232276D01*
X75794715Y-56939690D01*
X75791800Y-56932327D01*
X75660810Y-56653959D01*
X75656998Y-56647025D01*
X75492152Y-56387269D01*
X75487499Y-56380864D01*
X75400955Y-56276252D01*
X74683084Y-56994122D01*
X74564368Y-56841596D01*
X74381477Y-56673232D01*
X74323461Y-56635328D01*
X75044477Y-55914312D01*
X75044477Y-55914310D01*
X74806719Y-55741570D01*
X74800038Y-55737330D01*
X74530427Y-55589110D01*
X74523292Y-55585752D01*
X74237230Y-55472492D01*
X74229704Y-55470047D01*
X73931721Y-55393537D01*
X73923949Y-55392055D01*
X73618721Y-55353496D01*
X73610831Y-55353000D01*
X73303169Y-55353000D01*
X73295278Y-55353496D01*
X72990050Y-55392055D01*
X72982278Y-55393537D01*
X72684295Y-55470047D01*
X72676769Y-55472492D01*
X72390707Y-55585752D01*
X72383572Y-55589110D01*
X72113961Y-55737330D01*
X72107272Y-55741575D01*
X71869521Y-55914309D01*
X71869521Y-55914312D01*
X72590538Y-56635329D01*
X72532523Y-56673232D01*
X72349632Y-56841596D01*
X72230914Y-56994123D01*
X71513043Y-56276252D01*
X71513042Y-56276252D01*
X71426495Y-56380870D01*
X71421850Y-56387263D01*
X71257001Y-56647025D01*
X71253189Y-56653959D01*
X71122199Y-56932327D01*
X71119284Y-56939690D01*
X71024216Y-57232276D01*
X71022245Y-57239953D01*
X70964599Y-57542144D01*
X70963606Y-57550005D01*
X70944290Y-57857042D01*
X70944290Y-57864957D01*
X67739710Y-57864957D01*
X67739710Y-57857042D01*
X67720393Y-57550005D01*
X67719400Y-57542144D01*
X67661754Y-57239953D01*
X67659783Y-57232276D01*
X67564715Y-56939690D01*
X67561800Y-56932327D01*
X67430810Y-56653959D01*
X67426998Y-56647025D01*
X67262152Y-56387269D01*
X67257499Y-56380864D01*
X67170955Y-56276252D01*
X66453084Y-56994122D01*
X66334368Y-56841596D01*
X66151477Y-56673232D01*
X66093461Y-56635328D01*
X66814477Y-55914312D01*
X66814477Y-55914310D01*
X66576719Y-55741570D01*
X66570038Y-55737330D01*
X66300427Y-55589110D01*
X66293292Y-55585752D01*
X66007230Y-55472492D01*
X65999704Y-55470047D01*
X65701721Y-55393537D01*
X65693949Y-55392055D01*
X65388721Y-55353496D01*
X65380831Y-55353000D01*
X65073169Y-55353000D01*
X65065278Y-55353496D01*
X64760050Y-55392055D01*
X64752278Y-55393537D01*
X64454295Y-55470047D01*
X64446769Y-55472492D01*
X64160707Y-55585752D01*
X64153572Y-55589110D01*
X63883961Y-55737330D01*
X63877272Y-55741575D01*
X63639521Y-55914309D01*
X63639521Y-55914312D01*
X64360538Y-56635329D01*
X64302523Y-56673232D01*
X64119632Y-56841596D01*
X64000914Y-56994123D01*
X63283043Y-56276252D01*
X63283042Y-56276252D01*
X63196495Y-56380870D01*
X63191850Y-56387263D01*
X63027001Y-56647025D01*
X63023189Y-56653959D01*
X62892199Y-56932327D01*
X62889284Y-56939690D01*
X62794216Y-57232276D01*
X62792245Y-57239953D01*
X62734599Y-57542144D01*
X62733606Y-57550005D01*
X62714290Y-57857042D01*
X62714290Y-57864957D01*
X62318500Y-57864957D01*
X62318500Y-56759362D01*
X62311989Y-56698799D01*
X62260889Y-56561796D01*
X62234136Y-56526058D01*
X62173261Y-56444738D01*
X62056205Y-56357111D01*
X61987702Y-56331561D01*
X61919201Y-56306011D01*
X61858638Y-56299500D01*
X60061362Y-56299500D01*
X60058013Y-56299859D01*
X60058013Y-56299860D01*
X60000799Y-56306011D01*
X59863794Y-56357111D01*
X59746738Y-56444738D01*
X59659111Y-56561794D01*
X59617547Y-56673232D01*
X59608011Y-56698799D01*
X59601500Y-56759362D01*
X59601500Y-58556638D01*
X51666057Y-58556638D01*
X51692233Y-58391370D01*
X51692920Y-58384832D01*
X51712916Y-58003300D01*
X51712916Y-57996699D01*
X51692920Y-57615167D01*
X51692233Y-57608629D01*
X51632465Y-57231265D01*
X51631094Y-57224815D01*
X51532212Y-56855784D01*
X51530170Y-56849501D01*
X51393260Y-56492835D01*
X51390578Y-56486811D01*
X51217127Y-56146397D01*
X51213830Y-56140686D01*
X51005753Y-55820275D01*
X51001865Y-55814924D01*
X50797122Y-55562087D01*
X50797121Y-55562086D01*
X49300004Y-57059203D01*
X49298430Y-57056635D01*
X49134870Y-56865130D01*
X48943365Y-56701570D01*
X48940795Y-56699995D01*
X50437912Y-55202877D01*
X50437911Y-55202876D01*
X50185070Y-54998130D01*
X50179727Y-54994248D01*
X49859314Y-54786169D01*
X49853605Y-54782873D01*
X49513188Y-54609421D01*
X49507164Y-54606739D01*
X49150498Y-54469829D01*
X49144215Y-54467787D01*
X48775184Y-54368905D01*
X48768734Y-54367534D01*
X48391370Y-54307766D01*
X48384832Y-54307079D01*
X48003301Y-54287084D01*
X47996699Y-54287084D01*
X47615167Y-54307079D01*
X47608629Y-54307766D01*
X47231265Y-54367534D01*
X47224815Y-54368905D01*
X46855784Y-54467787D01*
X46849501Y-54469829D01*
X46492835Y-54606739D01*
X46486811Y-54609421D01*
X46146397Y-54782872D01*
X46140686Y-54786169D01*
X45820267Y-54994251D01*
X45814938Y-54998123D01*
X45562086Y-55202877D01*
X47059204Y-56699995D01*
X47056635Y-56701570D01*
X46865130Y-56865130D01*
X46701570Y-57056635D01*
X46699995Y-57059204D01*
X45202877Y-55562086D01*
X44998123Y-55814938D01*
X44994251Y-55820267D01*
X44786169Y-56140686D01*
X44782872Y-56146397D01*
X44609421Y-56486811D01*
X44606739Y-56492835D01*
X44469829Y-56849501D01*
X44467787Y-56855784D01*
X44368905Y-57224815D01*
X44367534Y-57231265D01*
X44307766Y-57608629D01*
X44307079Y-57615167D01*
X44287084Y-57996699D01*
X44287084Y-58003300D01*
X44025500Y-58003300D01*
X44025500Y-57003293D01*
X44025673Y-56996699D01*
X44041449Y-56695680D01*
X44042827Y-56682563D01*
X44047358Y-56653959D01*
X44089467Y-56388084D01*
X44092209Y-56375188D01*
X44112393Y-56299860D01*
X44169376Y-56087195D01*
X44173445Y-56074672D01*
X44280295Y-55796319D01*
X44285656Y-55784280D01*
X44309578Y-55737330D01*
X44421014Y-55518623D01*
X44427596Y-55507222D01*
X44589994Y-55257151D01*
X44597725Y-55246512D01*
X44785369Y-55014790D01*
X44794175Y-55005011D01*
X45005011Y-54794175D01*
X45014790Y-54785369D01*
X45246512Y-54597725D01*
X45257151Y-54589994D01*
X45507222Y-54427596D01*
X45518623Y-54421014D01*
X45784280Y-54285655D01*
X45796319Y-54280295D01*
X46074672Y-54173445D01*
X46087195Y-54169376D01*
X46375192Y-54092208D01*
X46388084Y-54089467D01*
X46682566Y-54042826D01*
X46695678Y-54041449D01*
X46996699Y-54025672D01*
X47003293Y-54025500D01*
X47008285Y-54025500D01*
X107991715Y-54025500D01*
X107996707Y-54025500D01*
X108003300Y-54025672D01*
G37*
%TD.AperFunction*%
%TD*%
M02*
