%TF.GenerationSoftware,KiCad,Pcbnew,5.1.9-73d0e3b20d~88~ubuntu18.04.1*%
%TF.CreationDate,2021-01-11T01:03:34+01:00*%
%TF.ProjectId,mp3alarm,6d703361-6c61-4726-9d2e-6b696361645f,v0.2*%
%TF.SameCoordinates,Original*%
%TF.FileFunction,Legend,Bot*%
%TF.FilePolarity,Positive*%
%FSLAX46Y46*%
G04 Gerber Fmt 4.6, Leading zero omitted, Abs format (unit mm)*
G04 Created by KiCad (PCBNEW 5.1.9-73d0e3b20d~88~ubuntu18.04.1) date 2021-01-11 01:03:34*
%MOMM*%
%LPD*%
G01*
G04 APERTURE LIST*
%ADD10C,0.150000*%
%ADD11C,0.127000*%
%ADD12C,0.228600*%
%ADD13C,0.120000*%
%ADD14C,0.010000*%
G04 APERTURE END LIST*
D10*
X59713714Y-101798380D02*
X59713714Y-100798380D01*
X59142285Y-101798380D01*
X59142285Y-100798380D01*
X58094666Y-101703142D02*
X58142285Y-101750761D01*
X58285142Y-101798380D01*
X58380380Y-101798380D01*
X58523238Y-101750761D01*
X58618476Y-101655523D01*
X58666095Y-101560285D01*
X58713714Y-101369809D01*
X58713714Y-101226952D01*
X58666095Y-101036476D01*
X58618476Y-100941238D01*
X58523238Y-100846000D01*
X58380380Y-100798380D01*
X58285142Y-100798380D01*
X58142285Y-100846000D01*
X58094666Y-100893619D01*
X73405904Y-100846000D02*
X73501142Y-100798380D01*
X73644000Y-100798380D01*
X73786857Y-100846000D01*
X73882095Y-100941238D01*
X73929714Y-101036476D01*
X73977333Y-101226952D01*
X73977333Y-101369809D01*
X73929714Y-101560285D01*
X73882095Y-101655523D01*
X73786857Y-101750761D01*
X73644000Y-101798380D01*
X73548761Y-101798380D01*
X73405904Y-101750761D01*
X73358285Y-101703142D01*
X73358285Y-101369809D01*
X73548761Y-101369809D01*
X72929714Y-101798380D02*
X72929714Y-100798380D01*
X72358285Y-101798380D01*
X72358285Y-100798380D01*
X71882095Y-101798380D02*
X71882095Y-100798380D01*
X71644000Y-100798380D01*
X71501142Y-100846000D01*
X71405904Y-100941238D01*
X71358285Y-101036476D01*
X71310666Y-101226952D01*
X71310666Y-101369809D01*
X71358285Y-101560285D01*
X71405904Y-101655523D01*
X71501142Y-101750761D01*
X71644000Y-101798380D01*
X71882095Y-101798380D01*
X73405904Y-98560000D02*
X73501142Y-98512380D01*
X73644000Y-98512380D01*
X73786857Y-98560000D01*
X73882095Y-98655238D01*
X73929714Y-98750476D01*
X73977333Y-98940952D01*
X73977333Y-99083809D01*
X73929714Y-99274285D01*
X73882095Y-99369523D01*
X73786857Y-99464761D01*
X73644000Y-99512380D01*
X73548761Y-99512380D01*
X73405904Y-99464761D01*
X73358285Y-99417142D01*
X73358285Y-99083809D01*
X73548761Y-99083809D01*
X72929714Y-99512380D02*
X72929714Y-98512380D01*
X72358285Y-99512380D01*
X72358285Y-98512380D01*
X71882095Y-99512380D02*
X71882095Y-98512380D01*
X71644000Y-98512380D01*
X71501142Y-98560000D01*
X71405904Y-98655238D01*
X71358285Y-98750476D01*
X71310666Y-98940952D01*
X71310666Y-99083809D01*
X71358285Y-99274285D01*
X71405904Y-99369523D01*
X71501142Y-99464761D01*
X71644000Y-99512380D01*
X71882095Y-99512380D01*
X73405904Y-95766000D02*
X73501142Y-95718380D01*
X73644000Y-95718380D01*
X73786857Y-95766000D01*
X73882095Y-95861238D01*
X73929714Y-95956476D01*
X73977333Y-96146952D01*
X73977333Y-96289809D01*
X73929714Y-96480285D01*
X73882095Y-96575523D01*
X73786857Y-96670761D01*
X73644000Y-96718380D01*
X73548761Y-96718380D01*
X73405904Y-96670761D01*
X73358285Y-96623142D01*
X73358285Y-96289809D01*
X73548761Y-96289809D01*
X72929714Y-96718380D02*
X72929714Y-95718380D01*
X72358285Y-96718380D01*
X72358285Y-95718380D01*
X71882095Y-96718380D02*
X71882095Y-95718380D01*
X71644000Y-95718380D01*
X71501142Y-95766000D01*
X71405904Y-95861238D01*
X71358285Y-95956476D01*
X71310666Y-96146952D01*
X71310666Y-96289809D01*
X71358285Y-96480285D01*
X71405904Y-96575523D01*
X71501142Y-96670761D01*
X71644000Y-96718380D01*
X71882095Y-96718380D01*
X73405904Y-93226000D02*
X73501142Y-93178380D01*
X73644000Y-93178380D01*
X73786857Y-93226000D01*
X73882095Y-93321238D01*
X73929714Y-93416476D01*
X73977333Y-93606952D01*
X73977333Y-93749809D01*
X73929714Y-93940285D01*
X73882095Y-94035523D01*
X73786857Y-94130761D01*
X73644000Y-94178380D01*
X73548761Y-94178380D01*
X73405904Y-94130761D01*
X73358285Y-94083142D01*
X73358285Y-93749809D01*
X73548761Y-93749809D01*
X72929714Y-94178380D02*
X72929714Y-93178380D01*
X72358285Y-94178380D01*
X72358285Y-93178380D01*
X71882095Y-94178380D02*
X71882095Y-93178380D01*
X71644000Y-93178380D01*
X71501142Y-93226000D01*
X71405904Y-93321238D01*
X71358285Y-93416476D01*
X71310666Y-93606952D01*
X71310666Y-93749809D01*
X71358285Y-93940285D01*
X71405904Y-94035523D01*
X71501142Y-94130761D01*
X71644000Y-94178380D01*
X71882095Y-94178380D01*
X73977333Y-90638380D02*
X73644000Y-91638380D01*
X73310666Y-90638380D01*
X72405904Y-91543142D02*
X72453523Y-91590761D01*
X72596380Y-91638380D01*
X72691619Y-91638380D01*
X72834476Y-91590761D01*
X72929714Y-91495523D01*
X72977333Y-91400285D01*
X73024952Y-91209809D01*
X73024952Y-91066952D01*
X72977333Y-90876476D01*
X72929714Y-90781238D01*
X72834476Y-90686000D01*
X72691619Y-90638380D01*
X72596380Y-90638380D01*
X72453523Y-90686000D01*
X72405904Y-90733619D01*
X71405904Y-91543142D02*
X71453523Y-91590761D01*
X71596380Y-91638380D01*
X71691619Y-91638380D01*
X71834476Y-91590761D01*
X71929714Y-91495523D01*
X71977333Y-91400285D01*
X72024952Y-91209809D01*
X72024952Y-91066952D01*
X71977333Y-90876476D01*
X71929714Y-90781238D01*
X71834476Y-90686000D01*
X71691619Y-90638380D01*
X71596380Y-90638380D01*
X71453523Y-90686000D01*
X71405904Y-90733619D01*
X59697809Y-98258380D02*
X59126380Y-98258380D01*
X59412095Y-99258380D02*
X59412095Y-98258380D01*
X58793047Y-99258380D02*
X58793047Y-98258380D01*
X58554952Y-98258380D01*
X58412095Y-98306000D01*
X58316857Y-98401238D01*
X58269238Y-98496476D01*
X58221619Y-98686952D01*
X58221619Y-98829809D01*
X58269238Y-99020285D01*
X58316857Y-99115523D01*
X58412095Y-99210761D01*
X58554952Y-99258380D01*
X58793047Y-99258380D01*
X57793047Y-99258380D02*
X57793047Y-98258380D01*
X59729523Y-95972380D02*
X59158095Y-95972380D01*
X59443809Y-96972380D02*
X59443809Y-95972380D01*
X58824761Y-96972380D02*
X58824761Y-95972380D01*
X58586666Y-95972380D01*
X58443809Y-96020000D01*
X58348571Y-96115238D01*
X58300952Y-96210476D01*
X58253333Y-96400952D01*
X58253333Y-96543809D01*
X58300952Y-96734285D01*
X58348571Y-96829523D01*
X58443809Y-96924761D01*
X58586666Y-96972380D01*
X58824761Y-96972380D01*
X57634285Y-95972380D02*
X57443809Y-95972380D01*
X57348571Y-96020000D01*
X57253333Y-96115238D01*
X57205714Y-96305714D01*
X57205714Y-96639047D01*
X57253333Y-96829523D01*
X57348571Y-96924761D01*
X57443809Y-96972380D01*
X57634285Y-96972380D01*
X57729523Y-96924761D01*
X57824761Y-96829523D01*
X57872380Y-96639047D01*
X57872380Y-96305714D01*
X57824761Y-96115238D01*
X57729523Y-96020000D01*
X57634285Y-95972380D01*
X59705714Y-93432380D02*
X59134285Y-93432380D01*
X59420000Y-94432380D02*
X59420000Y-93432380D01*
X58229523Y-94337142D02*
X58277142Y-94384761D01*
X58420000Y-94432380D01*
X58515238Y-94432380D01*
X58658095Y-94384761D01*
X58753333Y-94289523D01*
X58800952Y-94194285D01*
X58848571Y-94003809D01*
X58848571Y-93860952D01*
X58800952Y-93670476D01*
X58753333Y-93575238D01*
X58658095Y-93480000D01*
X58515238Y-93432380D01*
X58420000Y-93432380D01*
X58277142Y-93480000D01*
X58229523Y-93527619D01*
X57800952Y-94432380D02*
X57800952Y-93432380D01*
X57229523Y-94432380D02*
X57658095Y-93860952D01*
X57229523Y-93432380D02*
X57800952Y-94003809D01*
X59753333Y-90638380D02*
X59181904Y-90638380D01*
X59467619Y-91638380D02*
X59467619Y-90638380D01*
X58848571Y-91638380D02*
X58848571Y-90638380D01*
X58515238Y-91352666D01*
X58181904Y-90638380D01*
X58181904Y-91638380D01*
X57753333Y-91590761D02*
X57610476Y-91638380D01*
X57372380Y-91638380D01*
X57277142Y-91590761D01*
X57229523Y-91543142D01*
X57181904Y-91447904D01*
X57181904Y-91352666D01*
X57229523Y-91257428D01*
X57277142Y-91209809D01*
X57372380Y-91162190D01*
X57562857Y-91114571D01*
X57658095Y-91066952D01*
X57705714Y-91019333D01*
X57753333Y-90924095D01*
X57753333Y-90828857D01*
X57705714Y-90733619D01*
X57658095Y-90686000D01*
X57562857Y-90638380D01*
X57324761Y-90638380D01*
X57181904Y-90686000D01*
X69897238Y-76652380D02*
X70230571Y-76176190D01*
X70468666Y-76652380D02*
X70468666Y-75652380D01*
X70087714Y-75652380D01*
X69992476Y-75700000D01*
X69944857Y-75747619D01*
X69897238Y-75842857D01*
X69897238Y-75985714D01*
X69944857Y-76080952D01*
X69992476Y-76128571D01*
X70087714Y-76176190D01*
X70468666Y-76176190D01*
X69468666Y-76652380D02*
X69468666Y-75652380D01*
X69230571Y-75652380D01*
X69087714Y-75700000D01*
X68992476Y-75795238D01*
X68944857Y-75890476D01*
X68897238Y-76080952D01*
X68897238Y-76223809D01*
X68944857Y-76414285D01*
X68992476Y-76509523D01*
X69087714Y-76604761D01*
X69230571Y-76652380D01*
X69468666Y-76652380D01*
X68516285Y-76366666D02*
X68040095Y-76366666D01*
X68611523Y-76652380D02*
X68278190Y-75652380D01*
X67944857Y-76652380D01*
X67135333Y-75652380D02*
X67611523Y-75652380D01*
X67659142Y-76128571D01*
X67611523Y-76080952D01*
X67516285Y-76033333D01*
X67278190Y-76033333D01*
X67182952Y-76080952D01*
X67135333Y-76128571D01*
X67087714Y-76223809D01*
X67087714Y-76461904D01*
X67135333Y-76557142D01*
X67182952Y-76604761D01*
X67278190Y-76652380D01*
X67516285Y-76652380D01*
X67611523Y-76604761D01*
X67659142Y-76557142D01*
X66516285Y-76080952D02*
X66611523Y-76033333D01*
X66659142Y-75985714D01*
X66706761Y-75890476D01*
X66706761Y-75842857D01*
X66659142Y-75747619D01*
X66611523Y-75700000D01*
X66516285Y-75652380D01*
X66325809Y-75652380D01*
X66230571Y-75700000D01*
X66182952Y-75747619D01*
X66135333Y-75842857D01*
X66135333Y-75890476D01*
X66182952Y-75985714D01*
X66230571Y-76033333D01*
X66325809Y-76080952D01*
X66516285Y-76080952D01*
X66611523Y-76128571D01*
X66659142Y-76176190D01*
X66706761Y-76271428D01*
X66706761Y-76461904D01*
X66659142Y-76557142D01*
X66611523Y-76604761D01*
X66516285Y-76652380D01*
X66325809Y-76652380D01*
X66230571Y-76604761D01*
X66182952Y-76557142D01*
X66135333Y-76461904D01*
X66135333Y-76271428D01*
X66182952Y-76176190D01*
X66230571Y-76128571D01*
X66325809Y-76080952D01*
X65516285Y-75652380D02*
X65421047Y-75652380D01*
X65325809Y-75700000D01*
X65278190Y-75747619D01*
X65230571Y-75842857D01*
X65182952Y-76033333D01*
X65182952Y-76271428D01*
X65230571Y-76461904D01*
X65278190Y-76557142D01*
X65325809Y-76604761D01*
X65421047Y-76652380D01*
X65516285Y-76652380D01*
X65611523Y-76604761D01*
X65659142Y-76557142D01*
X65706761Y-76461904D01*
X65754380Y-76271428D01*
X65754380Y-76033333D01*
X65706761Y-75842857D01*
X65659142Y-75747619D01*
X65611523Y-75700000D01*
X65516285Y-75652380D01*
X64849619Y-75652380D02*
X64182952Y-75652380D01*
X64611523Y-76652380D01*
X63802000Y-76652380D02*
X63802000Y-75652380D01*
X63468666Y-76366666D01*
X63135333Y-75652380D01*
X63135333Y-76652380D01*
D11*
X92038714Y-71755000D02*
X91276714Y-71755000D01*
X92038714Y-72081571D02*
X91639571Y-72081571D01*
X91567000Y-72045285D01*
X91530714Y-71972714D01*
X91530714Y-71863857D01*
X91567000Y-71791285D01*
X91603285Y-71755000D01*
X91530714Y-72335571D02*
X91530714Y-72625857D01*
X91276714Y-72444428D02*
X91929857Y-72444428D01*
X92002428Y-72480714D01*
X92038714Y-72553285D01*
X92038714Y-72625857D01*
X91530714Y-72771000D02*
X91530714Y-73061285D01*
X91276714Y-72879857D02*
X91929857Y-72879857D01*
X92002428Y-72916142D01*
X92038714Y-72988714D01*
X92038714Y-73061285D01*
X91530714Y-73315285D02*
X92292714Y-73315285D01*
X91567000Y-73315285D02*
X91530714Y-73387857D01*
X91530714Y-73533000D01*
X91567000Y-73605571D01*
X91603285Y-73641857D01*
X91675857Y-73678142D01*
X91893571Y-73678142D01*
X91966142Y-73641857D01*
X92002428Y-73605571D01*
X92038714Y-73533000D01*
X92038714Y-73387857D01*
X92002428Y-73315285D01*
X92002428Y-73968428D02*
X92038714Y-74041000D01*
X92038714Y-74186142D01*
X92002428Y-74258714D01*
X91929857Y-74295000D01*
X91893571Y-74295000D01*
X91821000Y-74258714D01*
X91784714Y-74186142D01*
X91784714Y-74077285D01*
X91748428Y-74004714D01*
X91675857Y-73968428D01*
X91639571Y-73968428D01*
X91567000Y-74004714D01*
X91530714Y-74077285D01*
X91530714Y-74186142D01*
X91567000Y-74258714D01*
X91966142Y-74621571D02*
X92002428Y-74657857D01*
X92038714Y-74621571D01*
X92002428Y-74585285D01*
X91966142Y-74621571D01*
X92038714Y-74621571D01*
X91567000Y-74621571D02*
X91603285Y-74657857D01*
X91639571Y-74621571D01*
X91603285Y-74585285D01*
X91567000Y-74621571D01*
X91639571Y-74621571D01*
X91240428Y-75528714D02*
X92220142Y-74875571D01*
X91240428Y-76327000D02*
X92220142Y-75673857D01*
X91530714Y-76907571D02*
X92147571Y-76907571D01*
X92220142Y-76871285D01*
X92256428Y-76835000D01*
X92292714Y-76762428D01*
X92292714Y-76653571D01*
X92256428Y-76581000D01*
X92002428Y-76907571D02*
X92038714Y-76835000D01*
X92038714Y-76689857D01*
X92002428Y-76617285D01*
X91966142Y-76581000D01*
X91893571Y-76544714D01*
X91675857Y-76544714D01*
X91603285Y-76581000D01*
X91567000Y-76617285D01*
X91530714Y-76689857D01*
X91530714Y-76835000D01*
X91567000Y-76907571D01*
X92038714Y-77270428D02*
X91530714Y-77270428D01*
X91276714Y-77270428D02*
X91313000Y-77234142D01*
X91349285Y-77270428D01*
X91313000Y-77306714D01*
X91276714Y-77270428D01*
X91349285Y-77270428D01*
X91530714Y-77524428D02*
X91530714Y-77814714D01*
X91276714Y-77633285D02*
X91929857Y-77633285D01*
X92002428Y-77669571D01*
X92038714Y-77742142D01*
X92038714Y-77814714D01*
X92038714Y-78068714D02*
X91276714Y-78068714D01*
X92038714Y-78395285D02*
X91639571Y-78395285D01*
X91567000Y-78359000D01*
X91530714Y-78286428D01*
X91530714Y-78177571D01*
X91567000Y-78105000D01*
X91603285Y-78068714D01*
X91530714Y-79084714D02*
X92038714Y-79084714D01*
X91530714Y-78758142D02*
X91929857Y-78758142D01*
X92002428Y-78794428D01*
X92038714Y-78866999D01*
X92038714Y-78975857D01*
X92002428Y-79048428D01*
X91966142Y-79084714D01*
X92038714Y-79447571D02*
X91276714Y-79447571D01*
X91567000Y-79447571D02*
X91530714Y-79520142D01*
X91530714Y-79665285D01*
X91567000Y-79737857D01*
X91603285Y-79774142D01*
X91675857Y-79810428D01*
X91893571Y-79810428D01*
X91966142Y-79774142D01*
X92002428Y-79737857D01*
X92038714Y-79665285D01*
X92038714Y-79520142D01*
X92002428Y-79447571D01*
X91966142Y-80136999D02*
X92002428Y-80173285D01*
X92038714Y-80136999D01*
X92002428Y-80100714D01*
X91966142Y-80136999D01*
X92038714Y-80136999D01*
X92002428Y-80826428D02*
X92038714Y-80753857D01*
X92038714Y-80608714D01*
X92002428Y-80536142D01*
X91966142Y-80499857D01*
X91893571Y-80463571D01*
X91675857Y-80463571D01*
X91603285Y-80499857D01*
X91567000Y-80536142D01*
X91530714Y-80608714D01*
X91530714Y-80753857D01*
X91567000Y-80826428D01*
X92038714Y-81261857D02*
X92002428Y-81189285D01*
X91966142Y-81152999D01*
X91893571Y-81116714D01*
X91675857Y-81116714D01*
X91603285Y-81152999D01*
X91567000Y-81189285D01*
X91530714Y-81261857D01*
X91530714Y-81370714D01*
X91567000Y-81443285D01*
X91603285Y-81479571D01*
X91675857Y-81515857D01*
X91893571Y-81515857D01*
X91966142Y-81479571D01*
X92002428Y-81443285D01*
X92038714Y-81370714D01*
X92038714Y-81261857D01*
X92038714Y-81842428D02*
X91530714Y-81842428D01*
X91603285Y-81842428D02*
X91567000Y-81878714D01*
X91530714Y-81951285D01*
X91530714Y-82060142D01*
X91567000Y-82132714D01*
X91639571Y-82168999D01*
X92038714Y-82168999D01*
X91639571Y-82168999D02*
X91567000Y-82205285D01*
X91530714Y-82277857D01*
X91530714Y-82386714D01*
X91567000Y-82459285D01*
X91639571Y-82495571D01*
X92038714Y-82495571D01*
X91240428Y-83402714D02*
X92220142Y-82749571D01*
X91530714Y-83547857D02*
X91530714Y-83838142D01*
X92038714Y-83656714D02*
X91385571Y-83656714D01*
X91313000Y-83692999D01*
X91276714Y-83765571D01*
X91276714Y-83838142D01*
X92002428Y-84382428D02*
X92038714Y-84309857D01*
X92038714Y-84164714D01*
X92002428Y-84092142D01*
X91929857Y-84055857D01*
X91639571Y-84055857D01*
X91567000Y-84092142D01*
X91530714Y-84164714D01*
X91530714Y-84309857D01*
X91567000Y-84382428D01*
X91639571Y-84418714D01*
X91712142Y-84418714D01*
X91784714Y-84055857D01*
X92038714Y-84745285D02*
X91276714Y-84745285D01*
X92038714Y-85071857D02*
X91639571Y-85071857D01*
X91567000Y-85035571D01*
X91530714Y-84962999D01*
X91530714Y-84854142D01*
X91567000Y-84781571D01*
X91603285Y-84745285D01*
X92038714Y-85543571D02*
X92002428Y-85470999D01*
X91929857Y-85434714D01*
X91276714Y-85434714D01*
X91530714Y-85724999D02*
X91530714Y-86015285D01*
X92038714Y-85833857D02*
X91385571Y-85833857D01*
X91313000Y-85870142D01*
X91276714Y-85942714D01*
X91276714Y-86015285D01*
X92038714Y-86595857D02*
X91639571Y-86595857D01*
X91567000Y-86559571D01*
X91530714Y-86486999D01*
X91530714Y-86341857D01*
X91567000Y-86269285D01*
X92002428Y-86595857D02*
X92038714Y-86523285D01*
X92038714Y-86341857D01*
X92002428Y-86269285D01*
X91929857Y-86232999D01*
X91857285Y-86232999D01*
X91784714Y-86269285D01*
X91748428Y-86341857D01*
X91748428Y-86523285D01*
X91712142Y-86595857D01*
X92038714Y-86958714D02*
X91530714Y-86958714D01*
X91675857Y-86958714D02*
X91603285Y-86994999D01*
X91567000Y-87031285D01*
X91530714Y-87103857D01*
X91530714Y-87176428D01*
X92038714Y-87430428D02*
X91276714Y-87430428D01*
X91567000Y-87430428D02*
X91530714Y-87502999D01*
X91530714Y-87648142D01*
X91567000Y-87720714D01*
X91603285Y-87756999D01*
X91675857Y-87793285D01*
X91893571Y-87793285D01*
X91966142Y-87756999D01*
X92002428Y-87720714D01*
X92038714Y-87648142D01*
X92038714Y-87502999D01*
X92002428Y-87430428D01*
X92002428Y-88410142D02*
X92038714Y-88337571D01*
X92038714Y-88192428D01*
X92002428Y-88119857D01*
X91929857Y-88083571D01*
X91639571Y-88083571D01*
X91567000Y-88119857D01*
X91530714Y-88192428D01*
X91530714Y-88337571D01*
X91567000Y-88410142D01*
X91639571Y-88446428D01*
X91712142Y-88446428D01*
X91784714Y-88083571D01*
X91240428Y-89317285D02*
X92220142Y-88664142D01*
X91639571Y-89571285D02*
X91639571Y-89825285D01*
X92038714Y-89934142D02*
X92038714Y-89571285D01*
X91276714Y-89571285D01*
X91276714Y-89934142D01*
X92002428Y-90224428D02*
X92038714Y-90333285D01*
X92038714Y-90514714D01*
X92002428Y-90587285D01*
X91966142Y-90623571D01*
X91893571Y-90659857D01*
X91821000Y-90659857D01*
X91748428Y-90623571D01*
X91712142Y-90587285D01*
X91675857Y-90514714D01*
X91639571Y-90369571D01*
X91603285Y-90296999D01*
X91567000Y-90260714D01*
X91494428Y-90224428D01*
X91421857Y-90224428D01*
X91349285Y-90260714D01*
X91313000Y-90296999D01*
X91276714Y-90369571D01*
X91276714Y-90550999D01*
X91313000Y-90659857D01*
X92038714Y-90986428D02*
X91276714Y-90986428D01*
X91276714Y-91276714D01*
X91313000Y-91349285D01*
X91349285Y-91385571D01*
X91421857Y-91421857D01*
X91530714Y-91421857D01*
X91603285Y-91385571D01*
X91639571Y-91349285D01*
X91675857Y-91276714D01*
X91675857Y-90986428D01*
X91276714Y-91675857D02*
X91276714Y-92147571D01*
X91567000Y-91893571D01*
X91567000Y-92002428D01*
X91603285Y-92074999D01*
X91639571Y-92111285D01*
X91712142Y-92147571D01*
X91893571Y-92147571D01*
X91966142Y-92111285D01*
X92002428Y-92074999D01*
X92038714Y-92002428D01*
X92038714Y-91784714D01*
X92002428Y-91712142D01*
X91966142Y-91675857D01*
X91349285Y-92437857D02*
X91313000Y-92474142D01*
X91276714Y-92546714D01*
X91276714Y-92728142D01*
X91313000Y-92800714D01*
X91349285Y-92836999D01*
X91421857Y-92873285D01*
X91494428Y-92873285D01*
X91603285Y-92836999D01*
X92038714Y-92401571D01*
X92038714Y-92873285D01*
X91748428Y-93199857D02*
X91748428Y-93780428D01*
X91821000Y-94106999D02*
X91821000Y-94469857D01*
X92038714Y-94034428D02*
X91276714Y-94288428D01*
X92038714Y-94542428D01*
X92038714Y-94905285D02*
X92002428Y-94832714D01*
X91929857Y-94796428D01*
X91276714Y-94796428D01*
X92038714Y-95522142D02*
X91639571Y-95522142D01*
X91567000Y-95485857D01*
X91530714Y-95413285D01*
X91530714Y-95268142D01*
X91567000Y-95195571D01*
X92002428Y-95522142D02*
X92038714Y-95449571D01*
X92038714Y-95268142D01*
X92002428Y-95195571D01*
X91929857Y-95159285D01*
X91857285Y-95159285D01*
X91784714Y-95195571D01*
X91748428Y-95268142D01*
X91748428Y-95449571D01*
X91712142Y-95522142D01*
X92038714Y-95884999D02*
X91530714Y-95884999D01*
X91675857Y-95884999D02*
X91603285Y-95921285D01*
X91567000Y-95957571D01*
X91530714Y-96030142D01*
X91530714Y-96102714D01*
X92038714Y-96356714D02*
X91530714Y-96356714D01*
X91603285Y-96356714D02*
X91567000Y-96392999D01*
X91530714Y-96465571D01*
X91530714Y-96574428D01*
X91567000Y-96646999D01*
X91639571Y-96683285D01*
X92038714Y-96683285D01*
X91639571Y-96683285D02*
X91567000Y-96719571D01*
X91530714Y-96792142D01*
X91530714Y-96900999D01*
X91567000Y-96973571D01*
X91639571Y-97009857D01*
X92038714Y-97009857D01*
X91748428Y-97372714D02*
X91748428Y-97953285D01*
X92002428Y-98642714D02*
X92038714Y-98570142D01*
X92038714Y-98424999D01*
X92002428Y-98352428D01*
X91966142Y-98316142D01*
X91893571Y-98279857D01*
X91675857Y-98279857D01*
X91603285Y-98316142D01*
X91567000Y-98352428D01*
X91530714Y-98424999D01*
X91530714Y-98570142D01*
X91567000Y-98642714D01*
X92038714Y-99078142D02*
X92002428Y-99005571D01*
X91929857Y-98969285D01*
X91276714Y-98969285D01*
X92038714Y-99477285D02*
X92002428Y-99404714D01*
X91966142Y-99368428D01*
X91893571Y-99332142D01*
X91675857Y-99332142D01*
X91603285Y-99368428D01*
X91567000Y-99404714D01*
X91530714Y-99477285D01*
X91530714Y-99586142D01*
X91567000Y-99658714D01*
X91603285Y-99694999D01*
X91675857Y-99731285D01*
X91893571Y-99731285D01*
X91966142Y-99694999D01*
X92002428Y-99658714D01*
X92038714Y-99586142D01*
X92038714Y-99477285D01*
X92002428Y-100384428D02*
X92038714Y-100311857D01*
X92038714Y-100166714D01*
X92002428Y-100094142D01*
X91966142Y-100057857D01*
X91893571Y-100021571D01*
X91675857Y-100021571D01*
X91603285Y-100057857D01*
X91567000Y-100094142D01*
X91530714Y-100166714D01*
X91530714Y-100311857D01*
X91567000Y-100384428D01*
X92038714Y-100710999D02*
X91276714Y-100710999D01*
X91748428Y-100783571D02*
X92038714Y-101001285D01*
X91530714Y-101001285D02*
X91821000Y-100710999D01*
D12*
X89262857Y-68120380D02*
X89262857Y-68797714D01*
X90327238Y-69088000D02*
X90327238Y-68120380D01*
X88295238Y-68120380D01*
X88295238Y-69088000D01*
X90230476Y-69862095D02*
X90327238Y-70152380D01*
X90327238Y-70636190D01*
X90230476Y-70829714D01*
X90133714Y-70926476D01*
X89940190Y-71023238D01*
X89746666Y-71023238D01*
X89553142Y-70926476D01*
X89456380Y-70829714D01*
X89359619Y-70636190D01*
X89262857Y-70249142D01*
X89166095Y-70055619D01*
X89069333Y-69958857D01*
X88875809Y-69862095D01*
X88682285Y-69862095D01*
X88488761Y-69958857D01*
X88392000Y-70055619D01*
X88295238Y-70249142D01*
X88295238Y-70732952D01*
X88392000Y-71023238D01*
X90327238Y-71894095D02*
X88295238Y-71894095D01*
X88295238Y-72668190D01*
X88392000Y-72861714D01*
X88488761Y-72958476D01*
X88682285Y-73055238D01*
X88972571Y-73055238D01*
X89166095Y-72958476D01*
X89262857Y-72861714D01*
X89359619Y-72668190D01*
X89359619Y-71894095D01*
X88295238Y-73732571D02*
X88295238Y-74990476D01*
X89069333Y-74313142D01*
X89069333Y-74603428D01*
X89166095Y-74796952D01*
X89262857Y-74893714D01*
X89456380Y-74990476D01*
X89940190Y-74990476D01*
X90133714Y-74893714D01*
X90230476Y-74796952D01*
X90327238Y-74603428D01*
X90327238Y-74022857D01*
X90230476Y-73829333D01*
X90133714Y-73732571D01*
X88488761Y-75764571D02*
X88392000Y-75861333D01*
X88295238Y-76054857D01*
X88295238Y-76538666D01*
X88392000Y-76732190D01*
X88488761Y-76828952D01*
X88682285Y-76925714D01*
X88875809Y-76925714D01*
X89166095Y-76828952D01*
X90327238Y-75667809D01*
X90327238Y-76925714D01*
X90327238Y-80215619D02*
X89262857Y-80215619D01*
X89069333Y-80118857D01*
X88972571Y-79925333D01*
X88972571Y-79538285D01*
X89069333Y-79344761D01*
X90230476Y-80215619D02*
X90327238Y-80022095D01*
X90327238Y-79538285D01*
X90230476Y-79344761D01*
X90036952Y-79248000D01*
X89843428Y-79248000D01*
X89649904Y-79344761D01*
X89553142Y-79538285D01*
X89553142Y-80022095D01*
X89456380Y-80215619D01*
X90327238Y-81473523D02*
X90230476Y-81280000D01*
X90036952Y-81183238D01*
X88295238Y-81183238D01*
X90327238Y-83118476D02*
X89262857Y-83118476D01*
X89069333Y-83021714D01*
X88972571Y-82828190D01*
X88972571Y-82441142D01*
X89069333Y-82247619D01*
X90230476Y-83118476D02*
X90327238Y-82924952D01*
X90327238Y-82441142D01*
X90230476Y-82247619D01*
X90036952Y-82150857D01*
X89843428Y-82150857D01*
X89649904Y-82247619D01*
X89553142Y-82441142D01*
X89553142Y-82924952D01*
X89456380Y-83118476D01*
X90327238Y-84086095D02*
X88972571Y-84086095D01*
X89359619Y-84086095D02*
X89166095Y-84182857D01*
X89069333Y-84279619D01*
X88972571Y-84473142D01*
X88972571Y-84666666D01*
X90327238Y-85344000D02*
X88972571Y-85344000D01*
X89166095Y-85344000D02*
X89069333Y-85440761D01*
X88972571Y-85634285D01*
X88972571Y-85924571D01*
X89069333Y-86118095D01*
X89262857Y-86214857D01*
X90327238Y-86214857D01*
X89262857Y-86214857D02*
X89069333Y-86311619D01*
X88972571Y-86505142D01*
X88972571Y-86795428D01*
X89069333Y-86988952D01*
X89262857Y-87085714D01*
X90327238Y-87085714D01*
X90230476Y-90472380D02*
X90327238Y-90278857D01*
X90327238Y-89891809D01*
X90230476Y-89698285D01*
X90133714Y-89601523D01*
X89940190Y-89504761D01*
X89359619Y-89504761D01*
X89166095Y-89601523D01*
X89069333Y-89698285D01*
X88972571Y-89891809D01*
X88972571Y-90278857D01*
X89069333Y-90472380D01*
X90327238Y-91633523D02*
X90230476Y-91440000D01*
X90036952Y-91343238D01*
X88295238Y-91343238D01*
X90327238Y-92697904D02*
X90230476Y-92504380D01*
X90133714Y-92407619D01*
X89940190Y-92310857D01*
X89359619Y-92310857D01*
X89166095Y-92407619D01*
X89069333Y-92504380D01*
X88972571Y-92697904D01*
X88972571Y-92988190D01*
X89069333Y-93181714D01*
X89166095Y-93278476D01*
X89359619Y-93375238D01*
X89940190Y-93375238D01*
X90133714Y-93278476D01*
X90230476Y-93181714D01*
X90327238Y-92988190D01*
X90327238Y-92697904D01*
X90230476Y-95116952D02*
X90327238Y-94923428D01*
X90327238Y-94536380D01*
X90230476Y-94342857D01*
X90133714Y-94246095D01*
X89940190Y-94149333D01*
X89359619Y-94149333D01*
X89166095Y-94246095D01*
X89069333Y-94342857D01*
X88972571Y-94536380D01*
X88972571Y-94923428D01*
X89069333Y-95116952D01*
X90327238Y-95987809D02*
X88295238Y-95987809D01*
X89553142Y-96181333D02*
X90327238Y-96761904D01*
X88972571Y-96761904D02*
X89746666Y-95987809D01*
X88972571Y-98987428D02*
X90327238Y-99471238D01*
X88972571Y-99955047D01*
X88295238Y-101116190D02*
X88295238Y-101309714D01*
X88392000Y-101503238D01*
X88488761Y-101600000D01*
X88682285Y-101696761D01*
X89069333Y-101793523D01*
X89553142Y-101793523D01*
X89940190Y-101696761D01*
X90133714Y-101600000D01*
X90230476Y-101503238D01*
X90327238Y-101309714D01*
X90327238Y-101116190D01*
X90230476Y-100922666D01*
X90133714Y-100825904D01*
X89940190Y-100729142D01*
X89553142Y-100632380D01*
X89069333Y-100632380D01*
X88682285Y-100729142D01*
X88488761Y-100825904D01*
X88392000Y-100922666D01*
X88295238Y-101116190D01*
X90133714Y-102664380D02*
X90230476Y-102761142D01*
X90327238Y-102664380D01*
X90230476Y-102567619D01*
X90133714Y-102664380D01*
X90327238Y-102664380D01*
X88295238Y-103438476D02*
X88295238Y-104696380D01*
X89069333Y-104019047D01*
X89069333Y-104309333D01*
X89166095Y-104502857D01*
X89262857Y-104599619D01*
X89456380Y-104696380D01*
X89940190Y-104696380D01*
X90133714Y-104599619D01*
X90230476Y-104502857D01*
X90327238Y-104309333D01*
X90327238Y-103728761D01*
X90230476Y-103535238D01*
X90133714Y-103438476D01*
D13*
%TO.C,JTAG*%
X62932000Y-99566000D02*
X62932000Y-100586000D01*
X68132000Y-99566000D02*
X68132000Y-100586000D01*
X62932000Y-97026000D02*
X62932000Y-98046000D01*
X68132000Y-97026000D02*
X68132000Y-98046000D01*
X62932000Y-94486000D02*
X62932000Y-95506000D01*
X68132000Y-94486000D02*
X68132000Y-95506000D01*
X62932000Y-91946000D02*
X62932000Y-92966000D01*
X68132000Y-91946000D02*
X68132000Y-92966000D01*
X62932000Y-102106000D02*
X62932000Y-102676000D01*
X68132000Y-102106000D02*
X68132000Y-102676000D01*
X62932000Y-89856000D02*
X62932000Y-90426000D01*
X68132000Y-89856000D02*
X68132000Y-90426000D01*
X69572000Y-90426000D02*
X68132000Y-90426000D01*
X68132000Y-102676000D02*
X62932000Y-102676000D01*
X68132000Y-89856000D02*
X62932000Y-89856000D01*
D14*
%TO.C,G\u002A\u002A\u002A*%
G36*
X103665866Y-100363866D02*
G01*
X103665866Y-90652600D01*
X101303666Y-90652600D01*
X101303666Y-91177533D01*
X103140933Y-91177533D01*
X103140933Y-93014800D01*
X102878466Y-93014800D01*
X102878466Y-93277266D01*
X103140933Y-93277266D01*
X103140933Y-93539733D01*
X102878466Y-93539733D01*
X102878466Y-93277266D01*
X102878466Y-93014800D01*
X101303666Y-93014800D01*
X101303666Y-91177533D01*
X101303666Y-90652600D01*
X99466400Y-90652600D01*
X99466400Y-91177533D01*
X101041199Y-91177533D01*
X101041199Y-91440000D01*
X99991333Y-91440000D01*
X99991333Y-91702466D01*
X99991333Y-91964933D01*
X100253800Y-91964933D01*
X100253800Y-92227400D01*
X99991333Y-92227400D01*
X99991333Y-91964933D01*
X99991333Y-91702466D01*
X99728866Y-91702466D01*
X99728866Y-91440000D01*
X99466400Y-91440000D01*
X99466400Y-91177533D01*
X99466400Y-90652600D01*
X98679000Y-90652600D01*
X98679000Y-91177533D01*
X99203933Y-91177533D01*
X99203933Y-91440000D01*
X99466400Y-91440000D01*
X99466400Y-91702466D01*
X99203933Y-91702466D01*
X99203933Y-92227400D01*
X98679000Y-92227400D01*
X98679000Y-92489866D01*
X98941466Y-92489866D01*
X98941466Y-93014800D01*
X99203933Y-93014800D01*
X99203933Y-92489866D01*
X99466400Y-92489866D01*
X99466400Y-92227400D01*
X99728866Y-92227400D01*
X99728866Y-92489866D01*
X99991333Y-92489866D01*
X99991333Y-93014800D01*
X100253800Y-93014800D01*
X100253800Y-92752333D01*
X100516266Y-92752333D01*
X100516266Y-91964933D01*
X100253800Y-91964933D01*
X100253800Y-91702466D01*
X101041199Y-91702466D01*
X101041199Y-91964933D01*
X100778733Y-91964933D01*
X100778733Y-92227400D01*
X101041199Y-92227400D01*
X101041199Y-92489866D01*
X100778733Y-92489866D01*
X100778733Y-92752333D01*
X101041199Y-92752333D01*
X101041199Y-93014800D01*
X100778733Y-93014800D01*
X100778733Y-93277266D01*
X101303666Y-93277266D01*
X101303666Y-93539733D01*
X101566133Y-93539733D01*
X101566133Y-93277266D01*
X102616000Y-93277266D01*
X102616000Y-93802200D01*
X102878466Y-93802200D01*
X102878466Y-94327133D01*
X103140933Y-94327133D01*
X103140933Y-94589599D01*
X102878466Y-94589599D01*
X102878466Y-94852066D01*
X103140933Y-94852066D01*
X103140933Y-95114533D01*
X102878466Y-95114533D01*
X102878466Y-94852066D01*
X102878466Y-94589599D01*
X102878466Y-94327133D01*
X102616000Y-94327133D01*
X102616000Y-93802200D01*
X102353533Y-93802200D01*
X102353533Y-94327133D01*
X102091066Y-94327133D01*
X102091066Y-94589599D01*
X102616000Y-94589599D01*
X102616000Y-94852066D01*
X102616000Y-95377000D01*
X103140933Y-95377000D01*
X103140933Y-95901933D01*
X102878466Y-95901933D01*
X102878466Y-95639466D01*
X102616000Y-95639466D01*
X102616000Y-95377000D01*
X102616000Y-94852066D01*
X102353533Y-94852066D01*
X102353533Y-95639466D01*
X102091066Y-95639466D01*
X102091066Y-95377000D01*
X101828599Y-95377000D01*
X101828599Y-95114533D01*
X102091066Y-95114533D01*
X102091066Y-94589599D01*
X101828599Y-94589599D01*
X101828599Y-93802200D01*
X101566133Y-93802200D01*
X101566133Y-94064666D01*
X101303666Y-94064666D01*
X101303666Y-94327133D01*
X100516266Y-94327133D01*
X100516266Y-95114533D01*
X101041199Y-95114533D01*
X101041199Y-94852066D01*
X101303666Y-94852066D01*
X101303666Y-94589599D01*
X101566133Y-94589599D01*
X101566133Y-95377000D01*
X101303666Y-95377000D01*
X101303666Y-95639466D01*
X101041199Y-95639466D01*
X101041199Y-95901933D01*
X101566133Y-95901933D01*
X101566133Y-96164400D01*
X101303666Y-96164400D01*
X101303666Y-96426866D01*
X101828599Y-96426866D01*
X101828599Y-95901933D01*
X102091066Y-95901933D01*
X102091066Y-96426866D01*
X102353533Y-96426866D01*
X102353533Y-95901933D01*
X102616000Y-95901933D01*
X102616000Y-96164400D01*
X103140933Y-96164400D01*
X103140933Y-96426866D01*
X102878466Y-96426866D01*
X102878466Y-96951800D01*
X103140933Y-96951800D01*
X103140933Y-98001666D01*
X102878466Y-98001666D01*
X102878466Y-98264133D01*
X103140933Y-98264133D01*
X103140933Y-98526599D01*
X102878466Y-98526599D01*
X102878466Y-99314000D01*
X103140933Y-99314000D01*
X103140933Y-99576466D01*
X102878466Y-99576466D01*
X102878466Y-99314000D01*
X102091066Y-99314000D01*
X102091066Y-99576466D01*
X102353533Y-99576466D01*
X102353533Y-99838933D01*
X102091066Y-99838933D01*
X102091066Y-99576466D01*
X102091066Y-99314000D01*
X102091066Y-99051533D01*
X101828599Y-99051533D01*
X101828599Y-99838933D01*
X101566133Y-99838933D01*
X101566133Y-99576466D01*
X101041199Y-99576466D01*
X101041199Y-99838933D01*
X100516266Y-99838933D01*
X100516266Y-99576466D01*
X100253800Y-99576466D01*
X100253800Y-99051533D01*
X99991333Y-99051533D01*
X99991333Y-99576466D01*
X100253800Y-99576466D01*
X100253800Y-99838933D01*
X99991333Y-99838933D01*
X99991333Y-99576466D01*
X99991333Y-99051533D01*
X99728866Y-99051533D01*
X99728866Y-99314000D01*
X99203933Y-99314000D01*
X99203933Y-99838933D01*
X98679000Y-99838933D01*
X98679000Y-99576466D01*
X98941466Y-99576466D01*
X98941466Y-98789066D01*
X98679000Y-98789066D01*
X98679000Y-98526599D01*
X98416533Y-98526599D01*
X98416533Y-99051533D01*
X98679000Y-99051533D01*
X98679000Y-99314000D01*
X98416533Y-99314000D01*
X98416533Y-99051533D01*
X98416533Y-98526599D01*
X98416533Y-98264133D01*
X97891599Y-98264133D01*
X97891599Y-98001666D01*
X97629133Y-98001666D01*
X97629133Y-97739199D01*
X97366666Y-97739199D01*
X97366666Y-98001666D01*
X97629133Y-98001666D01*
X97629133Y-98264133D01*
X97366666Y-98264133D01*
X97366666Y-98001666D01*
X97366666Y-97739199D01*
X97104200Y-97739199D01*
X97104200Y-97476733D01*
X96579266Y-97476733D01*
X96579266Y-98001666D01*
X97104200Y-98001666D01*
X97104200Y-98526599D01*
X97891599Y-98526599D01*
X97891599Y-99051533D01*
X98154066Y-99051533D01*
X98154066Y-99314000D01*
X98416533Y-99314000D01*
X98416533Y-99576466D01*
X98154066Y-99576466D01*
X98154066Y-99838933D01*
X97891599Y-99838933D01*
X97891599Y-99051533D01*
X97629133Y-99051533D01*
X97629133Y-99838933D01*
X97366666Y-99838933D01*
X97366666Y-99314000D01*
X97104200Y-99314000D01*
X97104200Y-99838933D01*
X96841733Y-99838933D01*
X96841733Y-99314000D01*
X96579266Y-99314000D01*
X96579266Y-98001666D01*
X96579266Y-97476733D01*
X96316800Y-97476733D01*
X96316800Y-97214266D01*
X96054333Y-97214266D01*
X96054333Y-97476733D01*
X96316800Y-97476733D01*
X96316800Y-97739199D01*
X96054333Y-97739199D01*
X96054333Y-97476733D01*
X96054333Y-97214266D01*
X96054333Y-96951800D01*
X96316800Y-96951800D01*
X96316800Y-96689333D01*
X95791866Y-96689333D01*
X95791866Y-96951800D01*
X95529400Y-96951800D01*
X95529400Y-97214266D01*
X95791866Y-97214266D01*
X95791866Y-97476733D01*
X95529400Y-97476733D01*
X95529400Y-97214266D01*
X95266933Y-97214266D01*
X95266933Y-97476733D01*
X95529400Y-97476733D01*
X95529400Y-97739199D01*
X95266933Y-97739199D01*
X95266933Y-97476733D01*
X95266933Y-97214266D01*
X95004466Y-97214266D01*
X95004466Y-96689333D01*
X94742000Y-96689333D01*
X94742000Y-96951800D01*
X94479533Y-96951800D01*
X94479533Y-97214266D01*
X94742000Y-97214266D01*
X94742000Y-97476733D01*
X94479533Y-97476733D01*
X94479533Y-98001666D01*
X96316800Y-98001666D01*
X96316800Y-99838933D01*
X94479533Y-99838933D01*
X94479533Y-98001666D01*
X94479533Y-97476733D01*
X94479533Y-97214266D01*
X94479533Y-96951800D01*
X94479533Y-95114533D01*
X94742000Y-95114533D01*
X94742000Y-94852066D01*
X94479533Y-94852066D01*
X94479533Y-94327133D01*
X94742000Y-94327133D01*
X94742000Y-93802200D01*
X95529400Y-93802200D01*
X95529400Y-94064666D01*
X95791866Y-94064666D01*
X95791866Y-93802200D01*
X96316800Y-93802200D01*
X96316800Y-93539733D01*
X95004466Y-93539733D01*
X95004466Y-93277266D01*
X96579266Y-93277266D01*
X96579266Y-93539733D01*
X96841733Y-93539733D01*
X96841733Y-93277266D01*
X97104200Y-93277266D01*
X97104200Y-92752333D01*
X96841733Y-92752333D01*
X96841733Y-93014800D01*
X96579266Y-93014800D01*
X96579266Y-91702466D01*
X97104200Y-91702466D01*
X97104200Y-91964933D01*
X97629133Y-91964933D01*
X97629133Y-91177533D01*
X97891599Y-91177533D01*
X97891599Y-91440000D01*
X98154066Y-91440000D01*
X98154066Y-91702466D01*
X98416533Y-91702466D01*
X98416533Y-91964933D01*
X98941466Y-91964933D01*
X98941466Y-91702466D01*
X98679000Y-91702466D01*
X98679000Y-91177533D01*
X98679000Y-90652600D01*
X98154066Y-90652600D01*
X98154066Y-91177533D01*
X98416533Y-91177533D01*
X98416533Y-91440000D01*
X98154066Y-91440000D01*
X98154066Y-91177533D01*
X98154066Y-90652600D01*
X96579266Y-90652600D01*
X96579266Y-91177533D01*
X96841733Y-91177533D01*
X96841733Y-91440000D01*
X96579266Y-91440000D01*
X96579266Y-91177533D01*
X96579266Y-90652600D01*
X94479533Y-90652600D01*
X94479533Y-91177533D01*
X96316800Y-91177533D01*
X96316800Y-93014800D01*
X94479533Y-93014800D01*
X94479533Y-91177533D01*
X94479533Y-90652600D01*
X93954600Y-90652600D01*
X93954600Y-100363866D01*
X103665866Y-100363866D01*
G37*
X103665866Y-100363866D02*
X103665866Y-90652600D01*
X101303666Y-90652600D01*
X101303666Y-91177533D01*
X103140933Y-91177533D01*
X103140933Y-93014800D01*
X102878466Y-93014800D01*
X102878466Y-93277266D01*
X103140933Y-93277266D01*
X103140933Y-93539733D01*
X102878466Y-93539733D01*
X102878466Y-93277266D01*
X102878466Y-93014800D01*
X101303666Y-93014800D01*
X101303666Y-91177533D01*
X101303666Y-90652600D01*
X99466400Y-90652600D01*
X99466400Y-91177533D01*
X101041199Y-91177533D01*
X101041199Y-91440000D01*
X99991333Y-91440000D01*
X99991333Y-91702466D01*
X99991333Y-91964933D01*
X100253800Y-91964933D01*
X100253800Y-92227400D01*
X99991333Y-92227400D01*
X99991333Y-91964933D01*
X99991333Y-91702466D01*
X99728866Y-91702466D01*
X99728866Y-91440000D01*
X99466400Y-91440000D01*
X99466400Y-91177533D01*
X99466400Y-90652600D01*
X98679000Y-90652600D01*
X98679000Y-91177533D01*
X99203933Y-91177533D01*
X99203933Y-91440000D01*
X99466400Y-91440000D01*
X99466400Y-91702466D01*
X99203933Y-91702466D01*
X99203933Y-92227400D01*
X98679000Y-92227400D01*
X98679000Y-92489866D01*
X98941466Y-92489866D01*
X98941466Y-93014800D01*
X99203933Y-93014800D01*
X99203933Y-92489866D01*
X99466400Y-92489866D01*
X99466400Y-92227400D01*
X99728866Y-92227400D01*
X99728866Y-92489866D01*
X99991333Y-92489866D01*
X99991333Y-93014800D01*
X100253800Y-93014800D01*
X100253800Y-92752333D01*
X100516266Y-92752333D01*
X100516266Y-91964933D01*
X100253800Y-91964933D01*
X100253800Y-91702466D01*
X101041199Y-91702466D01*
X101041199Y-91964933D01*
X100778733Y-91964933D01*
X100778733Y-92227400D01*
X101041199Y-92227400D01*
X101041199Y-92489866D01*
X100778733Y-92489866D01*
X100778733Y-92752333D01*
X101041199Y-92752333D01*
X101041199Y-93014800D01*
X100778733Y-93014800D01*
X100778733Y-93277266D01*
X101303666Y-93277266D01*
X101303666Y-93539733D01*
X101566133Y-93539733D01*
X101566133Y-93277266D01*
X102616000Y-93277266D01*
X102616000Y-93802200D01*
X102878466Y-93802200D01*
X102878466Y-94327133D01*
X103140933Y-94327133D01*
X103140933Y-94589599D01*
X102878466Y-94589599D01*
X102878466Y-94852066D01*
X103140933Y-94852066D01*
X103140933Y-95114533D01*
X102878466Y-95114533D01*
X102878466Y-94852066D01*
X102878466Y-94589599D01*
X102878466Y-94327133D01*
X102616000Y-94327133D01*
X102616000Y-93802200D01*
X102353533Y-93802200D01*
X102353533Y-94327133D01*
X102091066Y-94327133D01*
X102091066Y-94589599D01*
X102616000Y-94589599D01*
X102616000Y-94852066D01*
X102616000Y-95377000D01*
X103140933Y-95377000D01*
X103140933Y-95901933D01*
X102878466Y-95901933D01*
X102878466Y-95639466D01*
X102616000Y-95639466D01*
X102616000Y-95377000D01*
X102616000Y-94852066D01*
X102353533Y-94852066D01*
X102353533Y-95639466D01*
X102091066Y-95639466D01*
X102091066Y-95377000D01*
X101828599Y-95377000D01*
X101828599Y-95114533D01*
X102091066Y-95114533D01*
X102091066Y-94589599D01*
X101828599Y-94589599D01*
X101828599Y-93802200D01*
X101566133Y-93802200D01*
X101566133Y-94064666D01*
X101303666Y-94064666D01*
X101303666Y-94327133D01*
X100516266Y-94327133D01*
X100516266Y-95114533D01*
X101041199Y-95114533D01*
X101041199Y-94852066D01*
X101303666Y-94852066D01*
X101303666Y-94589599D01*
X101566133Y-94589599D01*
X101566133Y-95377000D01*
X101303666Y-95377000D01*
X101303666Y-95639466D01*
X101041199Y-95639466D01*
X101041199Y-95901933D01*
X101566133Y-95901933D01*
X101566133Y-96164400D01*
X101303666Y-96164400D01*
X101303666Y-96426866D01*
X101828599Y-96426866D01*
X101828599Y-95901933D01*
X102091066Y-95901933D01*
X102091066Y-96426866D01*
X102353533Y-96426866D01*
X102353533Y-95901933D01*
X102616000Y-95901933D01*
X102616000Y-96164400D01*
X103140933Y-96164400D01*
X103140933Y-96426866D01*
X102878466Y-96426866D01*
X102878466Y-96951800D01*
X103140933Y-96951800D01*
X103140933Y-98001666D01*
X102878466Y-98001666D01*
X102878466Y-98264133D01*
X103140933Y-98264133D01*
X103140933Y-98526599D01*
X102878466Y-98526599D01*
X102878466Y-99314000D01*
X103140933Y-99314000D01*
X103140933Y-99576466D01*
X102878466Y-99576466D01*
X102878466Y-99314000D01*
X102091066Y-99314000D01*
X102091066Y-99576466D01*
X102353533Y-99576466D01*
X102353533Y-99838933D01*
X102091066Y-99838933D01*
X102091066Y-99576466D01*
X102091066Y-99314000D01*
X102091066Y-99051533D01*
X101828599Y-99051533D01*
X101828599Y-99838933D01*
X101566133Y-99838933D01*
X101566133Y-99576466D01*
X101041199Y-99576466D01*
X101041199Y-99838933D01*
X100516266Y-99838933D01*
X100516266Y-99576466D01*
X100253800Y-99576466D01*
X100253800Y-99051533D01*
X99991333Y-99051533D01*
X99991333Y-99576466D01*
X100253800Y-99576466D01*
X100253800Y-99838933D01*
X99991333Y-99838933D01*
X99991333Y-99576466D01*
X99991333Y-99051533D01*
X99728866Y-99051533D01*
X99728866Y-99314000D01*
X99203933Y-99314000D01*
X99203933Y-99838933D01*
X98679000Y-99838933D01*
X98679000Y-99576466D01*
X98941466Y-99576466D01*
X98941466Y-98789066D01*
X98679000Y-98789066D01*
X98679000Y-98526599D01*
X98416533Y-98526599D01*
X98416533Y-99051533D01*
X98679000Y-99051533D01*
X98679000Y-99314000D01*
X98416533Y-99314000D01*
X98416533Y-99051533D01*
X98416533Y-98526599D01*
X98416533Y-98264133D01*
X97891599Y-98264133D01*
X97891599Y-98001666D01*
X97629133Y-98001666D01*
X97629133Y-97739199D01*
X97366666Y-97739199D01*
X97366666Y-98001666D01*
X97629133Y-98001666D01*
X97629133Y-98264133D01*
X97366666Y-98264133D01*
X97366666Y-98001666D01*
X97366666Y-97739199D01*
X97104200Y-97739199D01*
X97104200Y-97476733D01*
X96579266Y-97476733D01*
X96579266Y-98001666D01*
X97104200Y-98001666D01*
X97104200Y-98526599D01*
X97891599Y-98526599D01*
X97891599Y-99051533D01*
X98154066Y-99051533D01*
X98154066Y-99314000D01*
X98416533Y-99314000D01*
X98416533Y-99576466D01*
X98154066Y-99576466D01*
X98154066Y-99838933D01*
X97891599Y-99838933D01*
X97891599Y-99051533D01*
X97629133Y-99051533D01*
X97629133Y-99838933D01*
X97366666Y-99838933D01*
X97366666Y-99314000D01*
X97104200Y-99314000D01*
X97104200Y-99838933D01*
X96841733Y-99838933D01*
X96841733Y-99314000D01*
X96579266Y-99314000D01*
X96579266Y-98001666D01*
X96579266Y-97476733D01*
X96316800Y-97476733D01*
X96316800Y-97214266D01*
X96054333Y-97214266D01*
X96054333Y-97476733D01*
X96316800Y-97476733D01*
X96316800Y-97739199D01*
X96054333Y-97739199D01*
X96054333Y-97476733D01*
X96054333Y-97214266D01*
X96054333Y-96951800D01*
X96316800Y-96951800D01*
X96316800Y-96689333D01*
X95791866Y-96689333D01*
X95791866Y-96951800D01*
X95529400Y-96951800D01*
X95529400Y-97214266D01*
X95791866Y-97214266D01*
X95791866Y-97476733D01*
X95529400Y-97476733D01*
X95529400Y-97214266D01*
X95266933Y-97214266D01*
X95266933Y-97476733D01*
X95529400Y-97476733D01*
X95529400Y-97739199D01*
X95266933Y-97739199D01*
X95266933Y-97476733D01*
X95266933Y-97214266D01*
X95004466Y-97214266D01*
X95004466Y-96689333D01*
X94742000Y-96689333D01*
X94742000Y-96951800D01*
X94479533Y-96951800D01*
X94479533Y-97214266D01*
X94742000Y-97214266D01*
X94742000Y-97476733D01*
X94479533Y-97476733D01*
X94479533Y-98001666D01*
X96316800Y-98001666D01*
X96316800Y-99838933D01*
X94479533Y-99838933D01*
X94479533Y-98001666D01*
X94479533Y-97476733D01*
X94479533Y-97214266D01*
X94479533Y-96951800D01*
X94479533Y-95114533D01*
X94742000Y-95114533D01*
X94742000Y-94852066D01*
X94479533Y-94852066D01*
X94479533Y-94327133D01*
X94742000Y-94327133D01*
X94742000Y-93802200D01*
X95529400Y-93802200D01*
X95529400Y-94064666D01*
X95791866Y-94064666D01*
X95791866Y-93802200D01*
X96316800Y-93802200D01*
X96316800Y-93539733D01*
X95004466Y-93539733D01*
X95004466Y-93277266D01*
X96579266Y-93277266D01*
X96579266Y-93539733D01*
X96841733Y-93539733D01*
X96841733Y-93277266D01*
X97104200Y-93277266D01*
X97104200Y-92752333D01*
X96841733Y-92752333D01*
X96841733Y-93014800D01*
X96579266Y-93014800D01*
X96579266Y-91702466D01*
X97104200Y-91702466D01*
X97104200Y-91964933D01*
X97629133Y-91964933D01*
X97629133Y-91177533D01*
X97891599Y-91177533D01*
X97891599Y-91440000D01*
X98154066Y-91440000D01*
X98154066Y-91702466D01*
X98416533Y-91702466D01*
X98416533Y-91964933D01*
X98941466Y-91964933D01*
X98941466Y-91702466D01*
X98679000Y-91702466D01*
X98679000Y-91177533D01*
X98679000Y-90652600D01*
X98154066Y-90652600D01*
X98154066Y-91177533D01*
X98416533Y-91177533D01*
X98416533Y-91440000D01*
X98154066Y-91440000D01*
X98154066Y-91177533D01*
X98154066Y-90652600D01*
X96579266Y-90652600D01*
X96579266Y-91177533D01*
X96841733Y-91177533D01*
X96841733Y-91440000D01*
X96579266Y-91440000D01*
X96579266Y-91177533D01*
X96579266Y-90652600D01*
X94479533Y-90652600D01*
X94479533Y-91177533D01*
X96316800Y-91177533D01*
X96316800Y-93014800D01*
X94479533Y-93014800D01*
X94479533Y-91177533D01*
X94479533Y-90652600D01*
X93954600Y-90652600D01*
X93954600Y-100363866D01*
X103665866Y-100363866D01*
G36*
X102870000Y-92743866D02*
G01*
X102870000Y-91448466D01*
X101828599Y-91448466D01*
X101828599Y-91702466D01*
X102616000Y-91702466D01*
X102616000Y-92489866D01*
X101828599Y-92489866D01*
X101828599Y-91702466D01*
X101828599Y-91448466D01*
X101574599Y-91448466D01*
X101574599Y-92743866D01*
X102870000Y-92743866D01*
G37*
X102870000Y-92743866D02*
X102870000Y-91448466D01*
X101828599Y-91448466D01*
X101828599Y-91702466D01*
X102616000Y-91702466D01*
X102616000Y-92489866D01*
X101828599Y-92489866D01*
X101828599Y-91702466D01*
X101828599Y-91448466D01*
X101574599Y-91448466D01*
X101574599Y-92743866D01*
X102870000Y-92743866D01*
G36*
X102616000Y-98001666D02*
G01*
X102616000Y-97739199D01*
X102878466Y-97739199D01*
X102878466Y-97214266D01*
X102353533Y-97214266D01*
X102353533Y-98001666D01*
X102616000Y-98001666D01*
G37*
X102616000Y-98001666D02*
X102616000Y-97739199D01*
X102878466Y-97739199D01*
X102878466Y-97214266D01*
X102353533Y-97214266D01*
X102353533Y-98001666D01*
X102616000Y-98001666D01*
G36*
X102878466Y-98526599D02*
G01*
X102878466Y-98264133D01*
X102616000Y-98264133D01*
X102616000Y-98526599D01*
X102878466Y-98526599D01*
G37*
X102878466Y-98526599D02*
X102878466Y-98264133D01*
X102616000Y-98264133D01*
X102616000Y-98526599D01*
X102878466Y-98526599D01*
G36*
X102616000Y-98789066D02*
G01*
X102616000Y-98526599D01*
X102353533Y-98526599D01*
X102353533Y-98789066D01*
X102616000Y-98789066D01*
G37*
X102616000Y-98789066D02*
X102616000Y-98526599D01*
X102353533Y-98526599D01*
X102353533Y-98789066D01*
X102616000Y-98789066D01*
G36*
X102353533Y-98526599D02*
G01*
X102353533Y-98001666D01*
X102091066Y-98001666D01*
X102091066Y-98526599D01*
X102353533Y-98526599D01*
G37*
X102353533Y-98526599D02*
X102353533Y-98001666D01*
X102091066Y-98001666D01*
X102091066Y-98526599D01*
X102353533Y-98526599D01*
G36*
X102353533Y-99051533D02*
G01*
X102353533Y-98789066D01*
X102091066Y-98789066D01*
X102091066Y-99051533D01*
X102353533Y-99051533D01*
G37*
X102353533Y-99051533D02*
X102353533Y-98789066D01*
X102091066Y-98789066D01*
X102091066Y-99051533D01*
X102353533Y-99051533D01*
G36*
X102616000Y-96951800D02*
G01*
X102616000Y-96426866D01*
X102353533Y-96426866D01*
X102353533Y-96689333D01*
X102091066Y-96689333D01*
X102091066Y-96951800D01*
X102616000Y-96951800D01*
G37*
X102616000Y-96951800D02*
X102616000Y-96426866D01*
X102353533Y-96426866D01*
X102353533Y-96689333D01*
X102091066Y-96689333D01*
X102091066Y-96951800D01*
X102616000Y-96951800D01*
G36*
X102091066Y-97476733D02*
G01*
X102091066Y-96951800D01*
X101828599Y-96951800D01*
X101828599Y-97476733D01*
X102091066Y-97476733D01*
G37*
X102091066Y-97476733D02*
X102091066Y-96951800D01*
X101828599Y-96951800D01*
X101828599Y-97476733D01*
X102091066Y-97476733D01*
G36*
X102091066Y-96689333D02*
G01*
X102091066Y-96426866D01*
X101828599Y-96426866D01*
X101828599Y-96689333D01*
X102091066Y-96689333D01*
G37*
X102091066Y-96689333D02*
X102091066Y-96426866D01*
X101828599Y-96426866D01*
X101828599Y-96689333D01*
X102091066Y-96689333D01*
G36*
X102353533Y-93802200D02*
G01*
X102353533Y-93539733D01*
X101828599Y-93539733D01*
X101828599Y-93802200D01*
X102353533Y-93802200D01*
G37*
X102353533Y-93802200D02*
X102353533Y-93539733D01*
X101828599Y-93539733D01*
X101828599Y-93802200D01*
X102353533Y-93802200D01*
G36*
X101828599Y-98526599D02*
G01*
X101828599Y-97739199D01*
X101303666Y-97739199D01*
X101303666Y-98001666D01*
X101566133Y-98001666D01*
X101566133Y-98264133D01*
X101303666Y-98264133D01*
X101303666Y-98001666D01*
X101303666Y-97739199D01*
X101041199Y-97739199D01*
X101041199Y-98526599D01*
X101828599Y-98526599D01*
G37*
X101828599Y-98526599D02*
X101828599Y-97739199D01*
X101303666Y-97739199D01*
X101303666Y-98001666D01*
X101566133Y-98001666D01*
X101566133Y-98264133D01*
X101303666Y-98264133D01*
X101303666Y-98001666D01*
X101303666Y-97739199D01*
X101041199Y-97739199D01*
X101041199Y-98526599D01*
X101828599Y-98526599D01*
G36*
X101566133Y-97214266D02*
G01*
X101566133Y-96951800D01*
X101041199Y-96951800D01*
X101041199Y-97214266D01*
X101566133Y-97214266D01*
G37*
X101566133Y-97214266D02*
X101566133Y-96951800D01*
X101041199Y-96951800D01*
X101041199Y-97214266D01*
X101566133Y-97214266D01*
G36*
X101303666Y-95377000D02*
G01*
X101303666Y-95114533D01*
X101041199Y-95114533D01*
X101041199Y-95377000D01*
X101303666Y-95377000D01*
G37*
X101303666Y-95377000D02*
X101303666Y-95114533D01*
X101041199Y-95114533D01*
X101041199Y-95377000D01*
X101303666Y-95377000D01*
G36*
X101041199Y-97476733D02*
G01*
X101041199Y-97214266D01*
X100778733Y-97214266D01*
X100778733Y-97476733D01*
X101041199Y-97476733D01*
G37*
X101041199Y-97476733D02*
X101041199Y-97214266D01*
X100778733Y-97214266D01*
X100778733Y-97476733D01*
X101041199Y-97476733D01*
G36*
X100253800Y-93014800D02*
G01*
X100253800Y-93277266D01*
X99991333Y-93277266D01*
X99991333Y-93014800D01*
X99728866Y-93014800D01*
X99728866Y-93277266D01*
X99991333Y-93277266D01*
X99991333Y-93539733D01*
X100253800Y-93539733D01*
X100253800Y-93802200D01*
X99728866Y-93802200D01*
X99728866Y-93277266D01*
X99466400Y-93277266D01*
X99466400Y-93539733D01*
X99203933Y-93539733D01*
X99203933Y-93802200D01*
X99728866Y-93802200D01*
X99728866Y-94064666D01*
X99466400Y-94064666D01*
X99466400Y-94589599D01*
X99728866Y-94589599D01*
X99728866Y-94327133D01*
X100253800Y-94327133D01*
X100253800Y-93802200D01*
X100516266Y-93802200D01*
X100516266Y-93539733D01*
X100778733Y-93539733D01*
X100778733Y-93277266D01*
X100516266Y-93277266D01*
X100516266Y-93014800D01*
X100253800Y-93014800D01*
G37*
X100253800Y-93014800D02*
X100253800Y-93277266D01*
X99991333Y-93277266D01*
X99991333Y-93014800D01*
X99728866Y-93014800D01*
X99728866Y-93277266D01*
X99991333Y-93277266D01*
X99991333Y-93539733D01*
X100253800Y-93539733D01*
X100253800Y-93802200D01*
X99728866Y-93802200D01*
X99728866Y-93277266D01*
X99466400Y-93277266D01*
X99466400Y-93539733D01*
X99203933Y-93539733D01*
X99203933Y-93802200D01*
X99728866Y-93802200D01*
X99728866Y-94064666D01*
X99466400Y-94064666D01*
X99466400Y-94589599D01*
X99728866Y-94589599D01*
X99728866Y-94327133D01*
X100253800Y-94327133D01*
X100253800Y-93802200D01*
X100516266Y-93802200D01*
X100516266Y-93539733D01*
X100778733Y-93539733D01*
X100778733Y-93277266D01*
X100516266Y-93277266D01*
X100516266Y-93014800D01*
X100253800Y-93014800D01*
G36*
X100516266Y-98789066D02*
G01*
X100516266Y-98526599D01*
X100778733Y-98526599D01*
X100778733Y-98264133D01*
X100516266Y-98264133D01*
X100516266Y-98001666D01*
X100253800Y-98001666D01*
X100253800Y-98264133D01*
X100516266Y-98264133D01*
X100516266Y-98526599D01*
X100253800Y-98526599D01*
X100253800Y-98264133D01*
X99991333Y-98264133D01*
X99991333Y-98789066D01*
X100516266Y-98789066D01*
G37*
X100516266Y-98789066D02*
X100516266Y-98526599D01*
X100778733Y-98526599D01*
X100778733Y-98264133D01*
X100516266Y-98264133D01*
X100516266Y-98001666D01*
X100253800Y-98001666D01*
X100253800Y-98264133D01*
X100516266Y-98264133D01*
X100516266Y-98526599D01*
X100253800Y-98526599D01*
X100253800Y-98264133D01*
X99991333Y-98264133D01*
X99991333Y-98789066D01*
X100516266Y-98789066D01*
G36*
X99728866Y-95639466D02*
G01*
X99728866Y-95114533D01*
X100253800Y-95114533D01*
X100253800Y-94589599D01*
X99728866Y-94589599D01*
X99728866Y-94852066D01*
X99466400Y-94852066D01*
X99466400Y-95377000D01*
X99203933Y-95377000D01*
X99203933Y-95639466D01*
X99728866Y-95639466D01*
G37*
X99728866Y-95639466D02*
X99728866Y-95114533D01*
X100253800Y-95114533D01*
X100253800Y-94589599D01*
X99728866Y-94589599D01*
X99728866Y-94852066D01*
X99466400Y-94852066D01*
X99466400Y-95377000D01*
X99203933Y-95377000D01*
X99203933Y-95639466D01*
X99728866Y-95639466D01*
G36*
X99728866Y-93014800D02*
G01*
X99728866Y-92489866D01*
X99466400Y-92489866D01*
X99466400Y-93014800D01*
X99728866Y-93014800D01*
G37*
X99728866Y-93014800D02*
X99728866Y-92489866D01*
X99466400Y-92489866D01*
X99466400Y-93014800D01*
X99728866Y-93014800D01*
G36*
X99203933Y-98001666D02*
G01*
X99203933Y-97476733D01*
X98941466Y-97476733D01*
X98941466Y-98001666D01*
X99203933Y-98001666D01*
G37*
X99203933Y-98001666D02*
X99203933Y-97476733D01*
X98941466Y-97476733D01*
X98941466Y-98001666D01*
X99203933Y-98001666D01*
G36*
X99203933Y-93539733D02*
G01*
X99203933Y-93277266D01*
X98941466Y-93277266D01*
X98941466Y-93539733D01*
X99203933Y-93539733D01*
G37*
X99203933Y-93539733D02*
X99203933Y-93277266D01*
X98941466Y-93277266D01*
X98941466Y-93539733D01*
X99203933Y-93539733D01*
G36*
X98941466Y-98264133D02*
G01*
X98941466Y-98001666D01*
X98679000Y-98001666D01*
X98679000Y-98264133D01*
X98941466Y-98264133D01*
G37*
X98941466Y-98264133D02*
X98941466Y-98001666D01*
X98679000Y-98001666D01*
X98679000Y-98264133D01*
X98941466Y-98264133D01*
G36*
X97366666Y-92752333D02*
G01*
X97366666Y-93014800D01*
X97629133Y-93014800D01*
X97629133Y-92752333D01*
X97891599Y-92752333D01*
X97891599Y-93277266D01*
X98154066Y-93277266D01*
X98154066Y-93539733D01*
X97891599Y-93539733D01*
X97891599Y-93277266D01*
X97629133Y-93277266D01*
X97629133Y-94064666D01*
X97891599Y-94064666D01*
X97891599Y-94327133D01*
X98154066Y-94327133D01*
X98154066Y-94064666D01*
X98416533Y-94064666D01*
X98416533Y-93802200D01*
X98154066Y-93802200D01*
X98154066Y-93539733D01*
X98679000Y-93539733D01*
X98679000Y-93277266D01*
X98941466Y-93277266D01*
X98941466Y-93014800D01*
X98679000Y-93014800D01*
X98679000Y-92489866D01*
X98416533Y-92489866D01*
X98416533Y-92227400D01*
X98154066Y-92227400D01*
X98154066Y-91964933D01*
X97891599Y-91964933D01*
X97891599Y-92227400D01*
X98154066Y-92227400D01*
X98154066Y-92489866D01*
X98416533Y-92489866D01*
X98416533Y-93014800D01*
X98154066Y-93014800D01*
X98154066Y-92489866D01*
X97891599Y-92489866D01*
X97891599Y-92227400D01*
X97104200Y-92227400D01*
X97104200Y-92752333D01*
X97366666Y-92752333D01*
G37*
X97366666Y-92752333D02*
X97366666Y-93014800D01*
X97629133Y-93014800D01*
X97629133Y-92752333D01*
X97891599Y-92752333D01*
X97891599Y-93277266D01*
X98154066Y-93277266D01*
X98154066Y-93539733D01*
X97891599Y-93539733D01*
X97891599Y-93277266D01*
X97629133Y-93277266D01*
X97629133Y-94064666D01*
X97891599Y-94064666D01*
X97891599Y-94327133D01*
X98154066Y-94327133D01*
X98154066Y-94064666D01*
X98416533Y-94064666D01*
X98416533Y-93802200D01*
X98154066Y-93802200D01*
X98154066Y-93539733D01*
X98679000Y-93539733D01*
X98679000Y-93277266D01*
X98941466Y-93277266D01*
X98941466Y-93014800D01*
X98679000Y-93014800D01*
X98679000Y-92489866D01*
X98416533Y-92489866D01*
X98416533Y-92227400D01*
X98154066Y-92227400D01*
X98154066Y-91964933D01*
X97891599Y-91964933D01*
X97891599Y-92227400D01*
X98154066Y-92227400D01*
X98154066Y-92489866D01*
X98416533Y-92489866D01*
X98416533Y-93014800D01*
X98154066Y-93014800D01*
X98154066Y-92489866D01*
X97891599Y-92489866D01*
X97891599Y-92227400D01*
X97104200Y-92227400D01*
X97104200Y-92752333D01*
X97366666Y-92752333D01*
G36*
X95529400Y-94327133D02*
G01*
X95529400Y-94589599D01*
X95266933Y-94589599D01*
X95266933Y-94852066D01*
X95529400Y-94852066D01*
X95529400Y-95114533D01*
X95266933Y-95114533D01*
X95266933Y-94852066D01*
X95004466Y-94852066D01*
X95004466Y-95377000D01*
X95529400Y-95377000D01*
X95529400Y-95114533D01*
X95791866Y-95114533D01*
X95791866Y-94852066D01*
X97104200Y-94852066D01*
X97104200Y-95114533D01*
X97366666Y-95114533D01*
X97366666Y-94852066D01*
X97629133Y-94852066D01*
X97629133Y-95114533D01*
X97891599Y-95114533D01*
X97891599Y-94852066D01*
X98154066Y-94852066D01*
X98154066Y-94589599D01*
X97891599Y-94589599D01*
X97891599Y-94327133D01*
X97366666Y-94327133D01*
X97366666Y-93539733D01*
X97104200Y-93539733D01*
X97104200Y-94064666D01*
X97104200Y-94327133D01*
X97366666Y-94327133D01*
X97366666Y-94589599D01*
X97104200Y-94589599D01*
X97104200Y-94327133D01*
X97104200Y-94064666D01*
X96841733Y-94064666D01*
X96841733Y-94589599D01*
X96054333Y-94589599D01*
X96054333Y-94327133D01*
X95529400Y-94327133D01*
G37*
X95529400Y-94327133D02*
X95529400Y-94589599D01*
X95266933Y-94589599D01*
X95266933Y-94852066D01*
X95529400Y-94852066D01*
X95529400Y-95114533D01*
X95266933Y-95114533D01*
X95266933Y-94852066D01*
X95004466Y-94852066D01*
X95004466Y-95377000D01*
X95529400Y-95377000D01*
X95529400Y-95114533D01*
X95791866Y-95114533D01*
X95791866Y-94852066D01*
X97104200Y-94852066D01*
X97104200Y-95114533D01*
X97366666Y-95114533D01*
X97366666Y-94852066D01*
X97629133Y-94852066D01*
X97629133Y-95114533D01*
X97891599Y-95114533D01*
X97891599Y-94852066D01*
X98154066Y-94852066D01*
X98154066Y-94589599D01*
X97891599Y-94589599D01*
X97891599Y-94327133D01*
X97366666Y-94327133D01*
X97366666Y-93539733D01*
X97104200Y-93539733D01*
X97104200Y-94064666D01*
X97104200Y-94327133D01*
X97366666Y-94327133D01*
X97366666Y-94589599D01*
X97104200Y-94589599D01*
X97104200Y-94327133D01*
X97104200Y-94064666D01*
X96841733Y-94064666D01*
X96841733Y-94589599D01*
X96054333Y-94589599D01*
X96054333Y-94327133D01*
X95529400Y-94327133D01*
G36*
X98154066Y-98001666D02*
G01*
X98154066Y-97476733D01*
X97891599Y-97476733D01*
X97891599Y-98001666D01*
X98154066Y-98001666D01*
G37*
X98154066Y-98001666D02*
X98154066Y-97476733D01*
X97891599Y-97476733D01*
X97891599Y-98001666D01*
X98154066Y-98001666D01*
G36*
X95266933Y-95639466D02*
G01*
X95266933Y-96164400D01*
X95004466Y-96164400D01*
X95004466Y-95901933D01*
X94742000Y-95901933D01*
X94742000Y-96426866D01*
X95529400Y-96426866D01*
X95529400Y-96689333D01*
X95791866Y-96689333D01*
X95791866Y-96426866D01*
X96316800Y-96426866D01*
X96316800Y-96689333D01*
X96579266Y-96689333D01*
X96579266Y-96951800D01*
X96316800Y-96951800D01*
X96316800Y-97214266D01*
X97104200Y-97214266D01*
X97104200Y-97476733D01*
X97629133Y-97476733D01*
X97629133Y-97214266D01*
X97366666Y-97214266D01*
X97366666Y-96164400D01*
X97104200Y-96164400D01*
X97104200Y-96689333D01*
X96841733Y-96689333D01*
X96841733Y-95901933D01*
X96579266Y-95901933D01*
X96579266Y-96164400D01*
X95529400Y-96164400D01*
X95529400Y-95639466D01*
X95266933Y-95639466D01*
G37*
X95266933Y-95639466D02*
X95266933Y-96164400D01*
X95004466Y-96164400D01*
X95004466Y-95901933D01*
X94742000Y-95901933D01*
X94742000Y-96426866D01*
X95529400Y-96426866D01*
X95529400Y-96689333D01*
X95791866Y-96689333D01*
X95791866Y-96426866D01*
X96316800Y-96426866D01*
X96316800Y-96689333D01*
X96579266Y-96689333D01*
X96579266Y-96951800D01*
X96316800Y-96951800D01*
X96316800Y-97214266D01*
X97104200Y-97214266D01*
X97104200Y-97476733D01*
X97629133Y-97476733D01*
X97629133Y-97214266D01*
X97366666Y-97214266D01*
X97366666Y-96164400D01*
X97104200Y-96164400D01*
X97104200Y-96689333D01*
X96841733Y-96689333D01*
X96841733Y-95901933D01*
X96579266Y-95901933D01*
X96579266Y-96164400D01*
X95529400Y-96164400D01*
X95529400Y-95639466D01*
X95266933Y-95639466D01*
G36*
X95529400Y-94327133D02*
G01*
X95529400Y-94064666D01*
X95004466Y-94064666D01*
X95004466Y-94327133D01*
X95529400Y-94327133D01*
G37*
X95529400Y-94327133D02*
X95529400Y-94064666D01*
X95004466Y-94064666D01*
X95004466Y-94327133D01*
X95529400Y-94327133D01*
G36*
X95529400Y-96951800D02*
G01*
X95529400Y-96689333D01*
X95266933Y-96689333D01*
X95266933Y-96951800D01*
X95529400Y-96951800D01*
G37*
X95529400Y-96951800D02*
X95529400Y-96689333D01*
X95266933Y-96689333D01*
X95266933Y-96951800D01*
X95529400Y-96951800D01*
G36*
X95004466Y-94589599D02*
G01*
X95004466Y-94327133D01*
X94742000Y-94327133D01*
X94742000Y-94589599D01*
X95004466Y-94589599D01*
G37*
X95004466Y-94589599D02*
X95004466Y-94327133D01*
X94742000Y-94327133D01*
X94742000Y-94589599D01*
X95004466Y-94589599D01*
G36*
X100778733Y-93014800D02*
G01*
X100778733Y-92752333D01*
X100516266Y-92752333D01*
X100516266Y-93014800D01*
X100778733Y-93014800D01*
G37*
X100778733Y-93014800D02*
X100778733Y-92752333D01*
X100516266Y-92752333D01*
X100516266Y-93014800D01*
X100778733Y-93014800D01*
G36*
X98154066Y-97476733D02*
G01*
X98416533Y-97476733D01*
X98416533Y-97739199D01*
X98679000Y-97739199D01*
X98679000Y-96951800D01*
X98416533Y-96951800D01*
X98416533Y-96426866D01*
X98154066Y-96426866D01*
X98154066Y-96689333D01*
X98154066Y-96951800D01*
X98416533Y-96951800D01*
X98416533Y-97214266D01*
X98154066Y-97214266D01*
X98154066Y-96951800D01*
X98154066Y-96689333D01*
X97891599Y-96689333D01*
X97891599Y-96951800D01*
X97629133Y-96951800D01*
X97629133Y-97214266D01*
X98154066Y-97214266D01*
X98154066Y-97476733D01*
G37*
X98154066Y-97476733D02*
X98416533Y-97476733D01*
X98416533Y-97739199D01*
X98679000Y-97739199D01*
X98679000Y-96951800D01*
X98416533Y-96951800D01*
X98416533Y-96426866D01*
X98154066Y-96426866D01*
X98154066Y-96689333D01*
X98154066Y-96951800D01*
X98416533Y-96951800D01*
X98416533Y-97214266D01*
X98154066Y-97214266D01*
X98154066Y-96951800D01*
X98154066Y-96689333D01*
X97891599Y-96689333D01*
X97891599Y-96951800D01*
X97629133Y-96951800D01*
X97629133Y-97214266D01*
X98154066Y-97214266D01*
X98154066Y-97476733D01*
G36*
X96579266Y-94327133D02*
G01*
X96579266Y-93802200D01*
X96316800Y-93802200D01*
X96316800Y-94064666D01*
X96054333Y-94064666D01*
X96054333Y-94327133D01*
X96579266Y-94327133D01*
G37*
X96579266Y-94327133D02*
X96579266Y-93802200D01*
X96316800Y-93802200D01*
X96316800Y-94064666D01*
X96054333Y-94064666D01*
X96054333Y-94327133D01*
X96579266Y-94327133D01*
G36*
X95791866Y-95639466D02*
G01*
X95791866Y-95377000D01*
X95529400Y-95377000D01*
X95529400Y-95639466D01*
X95791866Y-95639466D01*
G37*
X95791866Y-95639466D02*
X95791866Y-95377000D01*
X95529400Y-95377000D01*
X95529400Y-95639466D01*
X95791866Y-95639466D01*
G36*
X99991333Y-96689333D02*
G01*
X100253800Y-96689333D01*
X100253800Y-96951800D01*
X99991333Y-96951800D01*
X99991333Y-97214266D01*
X100253800Y-97214266D01*
X100253800Y-97476733D01*
X99991333Y-97476733D01*
X99991333Y-97214266D01*
X99728866Y-97214266D01*
X99728866Y-97476733D01*
X99991333Y-97476733D01*
X99991333Y-97739199D01*
X99728866Y-97739199D01*
X99728866Y-97476733D01*
X99728866Y-97214266D01*
X99728866Y-96689333D01*
X99203933Y-96689333D01*
X99203933Y-96951800D01*
X99466400Y-96951800D01*
X99466400Y-97214266D01*
X99203933Y-97214266D01*
X99203933Y-96951800D01*
X99203933Y-96689333D01*
X98941466Y-96689333D01*
X98941466Y-96426866D01*
X98679000Y-96426866D01*
X98679000Y-96951800D01*
X98941466Y-96951800D01*
X98941466Y-97214266D01*
X99203933Y-97214266D01*
X99203933Y-97476733D01*
X99466400Y-97476733D01*
X99466400Y-97739199D01*
X99728866Y-97739199D01*
X99728866Y-98001666D01*
X99466400Y-98001666D01*
X99466400Y-98264133D01*
X99991333Y-98264133D01*
X99991333Y-98001666D01*
X100253800Y-98001666D01*
X100253800Y-97739199D01*
X100516266Y-97739199D01*
X100516266Y-96689333D01*
X100778733Y-96689333D01*
X100778733Y-96951800D01*
X101041199Y-96951800D01*
X101041199Y-96689333D01*
X101303666Y-96689333D01*
X101303666Y-96426866D01*
X101041199Y-96426866D01*
X101041199Y-95901933D01*
X100778733Y-95901933D01*
X100778733Y-95639466D01*
X101041199Y-95639466D01*
X101041199Y-95377000D01*
X100516266Y-95377000D01*
X100516266Y-95901933D01*
X100778733Y-95901933D01*
X100778733Y-96164400D01*
X100516266Y-96164400D01*
X100516266Y-95901933D01*
X100253800Y-95901933D01*
X100253800Y-95377000D01*
X99991333Y-95377000D01*
X99991333Y-95639466D01*
X99991333Y-95901933D01*
X100253800Y-95901933D01*
X100253800Y-96164400D01*
X100253800Y-96426866D01*
X100516266Y-96426866D01*
X100516266Y-96689333D01*
X100253800Y-96689333D01*
X100253800Y-96426866D01*
X100253800Y-96164400D01*
X99991333Y-96164400D01*
X99991333Y-95901933D01*
X99991333Y-95639466D01*
X99728866Y-95639466D01*
X99728866Y-96164400D01*
X99991333Y-96164400D01*
X99991333Y-96689333D01*
G37*
X99991333Y-96689333D02*
X100253800Y-96689333D01*
X100253800Y-96951800D01*
X99991333Y-96951800D01*
X99991333Y-97214266D01*
X100253800Y-97214266D01*
X100253800Y-97476733D01*
X99991333Y-97476733D01*
X99991333Y-97214266D01*
X99728866Y-97214266D01*
X99728866Y-97476733D01*
X99991333Y-97476733D01*
X99991333Y-97739199D01*
X99728866Y-97739199D01*
X99728866Y-97476733D01*
X99728866Y-97214266D01*
X99728866Y-96689333D01*
X99203933Y-96689333D01*
X99203933Y-96951800D01*
X99466400Y-96951800D01*
X99466400Y-97214266D01*
X99203933Y-97214266D01*
X99203933Y-96951800D01*
X99203933Y-96689333D01*
X98941466Y-96689333D01*
X98941466Y-96426866D01*
X98679000Y-96426866D01*
X98679000Y-96951800D01*
X98941466Y-96951800D01*
X98941466Y-97214266D01*
X99203933Y-97214266D01*
X99203933Y-97476733D01*
X99466400Y-97476733D01*
X99466400Y-97739199D01*
X99728866Y-97739199D01*
X99728866Y-98001666D01*
X99466400Y-98001666D01*
X99466400Y-98264133D01*
X99991333Y-98264133D01*
X99991333Y-98001666D01*
X100253800Y-98001666D01*
X100253800Y-97739199D01*
X100516266Y-97739199D01*
X100516266Y-96689333D01*
X100778733Y-96689333D01*
X100778733Y-96951800D01*
X101041199Y-96951800D01*
X101041199Y-96689333D01*
X101303666Y-96689333D01*
X101303666Y-96426866D01*
X101041199Y-96426866D01*
X101041199Y-95901933D01*
X100778733Y-95901933D01*
X100778733Y-95639466D01*
X101041199Y-95639466D01*
X101041199Y-95377000D01*
X100516266Y-95377000D01*
X100516266Y-95901933D01*
X100778733Y-95901933D01*
X100778733Y-96164400D01*
X100516266Y-96164400D01*
X100516266Y-95901933D01*
X100253800Y-95901933D01*
X100253800Y-95377000D01*
X99991333Y-95377000D01*
X99991333Y-95639466D01*
X99991333Y-95901933D01*
X100253800Y-95901933D01*
X100253800Y-96164400D01*
X100253800Y-96426866D01*
X100516266Y-96426866D01*
X100516266Y-96689333D01*
X100253800Y-96689333D01*
X100253800Y-96426866D01*
X100253800Y-96164400D01*
X99991333Y-96164400D01*
X99991333Y-95901933D01*
X99991333Y-95639466D01*
X99728866Y-95639466D01*
X99728866Y-96164400D01*
X99991333Y-96164400D01*
X99991333Y-96689333D01*
G36*
X101566133Y-99051533D02*
G01*
X101566133Y-98789066D01*
X100778733Y-98789066D01*
X100778733Y-99051533D01*
X101566133Y-99051533D01*
G37*
X101566133Y-99051533D02*
X101566133Y-98789066D01*
X100778733Y-98789066D01*
X100778733Y-99051533D01*
X101566133Y-99051533D01*
G36*
X101303666Y-94064666D02*
G01*
X101303666Y-93802200D01*
X101041199Y-93802200D01*
X101041199Y-94064666D01*
X101303666Y-94064666D01*
G37*
X101303666Y-94064666D02*
X101303666Y-93802200D01*
X101041199Y-93802200D01*
X101041199Y-94064666D01*
X101303666Y-94064666D01*
G36*
X100778733Y-99576466D02*
G01*
X100778733Y-99314000D01*
X100516266Y-99314000D01*
X100516266Y-99576466D01*
X100778733Y-99576466D01*
G37*
X100778733Y-99576466D02*
X100778733Y-99314000D01*
X100516266Y-99314000D01*
X100516266Y-99576466D01*
X100778733Y-99576466D01*
G36*
X99466400Y-99051533D02*
G01*
X99466400Y-98789066D01*
X99203933Y-98789066D01*
X99203933Y-99051533D01*
X99466400Y-99051533D01*
G37*
X99466400Y-99051533D02*
X99466400Y-98789066D01*
X99203933Y-98789066D01*
X99203933Y-99051533D01*
X99466400Y-99051533D01*
G36*
X99203933Y-98789066D02*
G01*
X99203933Y-98526599D01*
X98941466Y-98526599D01*
X98941466Y-98789066D01*
X99203933Y-98789066D01*
G37*
X99203933Y-98789066D02*
X99203933Y-98526599D01*
X98941466Y-98526599D01*
X98941466Y-98789066D01*
X99203933Y-98789066D01*
G36*
X97366666Y-99051533D02*
G01*
X97366666Y-98789066D01*
X97104200Y-98789066D01*
X97104200Y-99051533D01*
X97366666Y-99051533D01*
G37*
X97366666Y-99051533D02*
X97366666Y-98789066D01*
X97104200Y-98789066D01*
X97104200Y-99051533D01*
X97366666Y-99051533D01*
G36*
X97104200Y-98789066D02*
G01*
X97104200Y-98526599D01*
X96841733Y-98526599D01*
X96841733Y-98789066D01*
X97104200Y-98789066D01*
G37*
X97104200Y-98789066D02*
X97104200Y-98526599D01*
X96841733Y-98526599D01*
X96841733Y-98789066D01*
X97104200Y-98789066D01*
G36*
X96045866Y-92743866D02*
G01*
X96045866Y-91448466D01*
X95004466Y-91448466D01*
X95004466Y-91702466D01*
X95791866Y-91702466D01*
X95791866Y-92489866D01*
X95004466Y-92489866D01*
X95004466Y-91702466D01*
X95004466Y-91448466D01*
X94750466Y-91448466D01*
X94750466Y-92743866D01*
X96045866Y-92743866D01*
G37*
X96045866Y-92743866D02*
X96045866Y-91448466D01*
X95004466Y-91448466D01*
X95004466Y-91702466D01*
X95791866Y-91702466D01*
X95791866Y-92489866D01*
X95004466Y-92489866D01*
X95004466Y-91702466D01*
X95004466Y-91448466D01*
X94750466Y-91448466D01*
X94750466Y-92743866D01*
X96045866Y-92743866D01*
G36*
X96045866Y-99568000D02*
G01*
X96045866Y-98272599D01*
X95004466Y-98272599D01*
X95004466Y-98526599D01*
X95791866Y-98526599D01*
X95791866Y-99314000D01*
X95004466Y-99314000D01*
X95004466Y-98526599D01*
X95004466Y-98272599D01*
X94750466Y-98272599D01*
X94750466Y-99568000D01*
X96045866Y-99568000D01*
G37*
X96045866Y-99568000D02*
X96045866Y-98272599D01*
X95004466Y-98272599D01*
X95004466Y-98526599D01*
X95791866Y-98526599D01*
X95791866Y-99314000D01*
X95004466Y-99314000D01*
X95004466Y-98526599D01*
X95004466Y-98272599D01*
X94750466Y-98272599D01*
X94750466Y-99568000D01*
X96045866Y-99568000D01*
G36*
X99466400Y-96426866D02*
G01*
X99466400Y-95901933D01*
X99203933Y-95901933D01*
X99203933Y-96426866D01*
X99466400Y-96426866D01*
G37*
X99466400Y-96426866D02*
X99466400Y-95901933D01*
X99203933Y-95901933D01*
X99203933Y-96426866D01*
X99466400Y-96426866D01*
G36*
X98941466Y-96164400D02*
G01*
X98941466Y-95901933D01*
X98679000Y-95901933D01*
X98679000Y-96164400D01*
X98941466Y-96164400D01*
G37*
X98941466Y-96164400D02*
X98941466Y-95901933D01*
X98679000Y-95901933D01*
X98679000Y-96164400D01*
X98941466Y-96164400D01*
G36*
X96316800Y-95377000D02*
G01*
X96316800Y-95114533D01*
X96054333Y-95114533D01*
X96054333Y-95377000D01*
X96316800Y-95377000D01*
G37*
X96316800Y-95377000D02*
X96316800Y-95114533D01*
X96054333Y-95114533D01*
X96054333Y-95377000D01*
X96316800Y-95377000D01*
G36*
X97629133Y-96689333D02*
G01*
X97891599Y-96689333D01*
X97891599Y-96426866D01*
X98154066Y-96426866D01*
X98154066Y-96164400D01*
X98416533Y-96164400D01*
X98416533Y-95901933D01*
X98679000Y-95901933D01*
X98679000Y-95639466D01*
X98941466Y-95639466D01*
X98941466Y-95377000D01*
X99203933Y-95377000D01*
X99203933Y-95114533D01*
X98941466Y-95114533D01*
X98941466Y-94064666D01*
X98679000Y-94064666D01*
X98679000Y-94327133D01*
X98154066Y-94327133D01*
X98154066Y-94589599D01*
X98416533Y-94589599D01*
X98416533Y-95114533D01*
X98416533Y-95377000D01*
X98679000Y-95377000D01*
X98679000Y-95639466D01*
X98416533Y-95639466D01*
X98416533Y-95377000D01*
X98416533Y-95114533D01*
X98154066Y-95114533D01*
X98154066Y-95901933D01*
X97891599Y-95901933D01*
X97891599Y-95377000D01*
X97629133Y-95377000D01*
X97629133Y-95639466D01*
X97629133Y-95901933D01*
X97891599Y-95901933D01*
X97891599Y-96164400D01*
X97629133Y-96164400D01*
X97629133Y-95901933D01*
X97629133Y-95639466D01*
X97104200Y-95639466D01*
X97104200Y-95114533D01*
X96841733Y-95114533D01*
X96841733Y-95377000D01*
X96316800Y-95377000D01*
X96316800Y-95639466D01*
X95791866Y-95639466D01*
X95791866Y-95901933D01*
X96579266Y-95901933D01*
X96579266Y-95639466D01*
X96841733Y-95639466D01*
X96841733Y-95901933D01*
X97366666Y-95901933D01*
X97366666Y-96164400D01*
X97629133Y-96164400D01*
X97629133Y-96689333D01*
G37*
X97629133Y-96689333D02*
X97891599Y-96689333D01*
X97891599Y-96426866D01*
X98154066Y-96426866D01*
X98154066Y-96164400D01*
X98416533Y-96164400D01*
X98416533Y-95901933D01*
X98679000Y-95901933D01*
X98679000Y-95639466D01*
X98941466Y-95639466D01*
X98941466Y-95377000D01*
X99203933Y-95377000D01*
X99203933Y-95114533D01*
X98941466Y-95114533D01*
X98941466Y-94064666D01*
X98679000Y-94064666D01*
X98679000Y-94327133D01*
X98154066Y-94327133D01*
X98154066Y-94589599D01*
X98416533Y-94589599D01*
X98416533Y-95114533D01*
X98416533Y-95377000D01*
X98679000Y-95377000D01*
X98679000Y-95639466D01*
X98416533Y-95639466D01*
X98416533Y-95377000D01*
X98416533Y-95114533D01*
X98154066Y-95114533D01*
X98154066Y-95901933D01*
X97891599Y-95901933D01*
X97891599Y-95377000D01*
X97629133Y-95377000D01*
X97629133Y-95639466D01*
X97629133Y-95901933D01*
X97891599Y-95901933D01*
X97891599Y-96164400D01*
X97629133Y-96164400D01*
X97629133Y-95901933D01*
X97629133Y-95639466D01*
X97104200Y-95639466D01*
X97104200Y-95114533D01*
X96841733Y-95114533D01*
X96841733Y-95377000D01*
X96316800Y-95377000D01*
X96316800Y-95639466D01*
X95791866Y-95639466D01*
X95791866Y-95901933D01*
X96579266Y-95901933D01*
X96579266Y-95639466D01*
X96841733Y-95639466D01*
X96841733Y-95901933D01*
X97366666Y-95901933D01*
X97366666Y-96164400D01*
X97629133Y-96164400D01*
X97629133Y-96689333D01*
G36*
X98941466Y-93802200D02*
G01*
X98941466Y-93539733D01*
X98679000Y-93539733D01*
X98679000Y-93802200D01*
X98941466Y-93802200D01*
G37*
X98941466Y-93802200D02*
X98941466Y-93539733D01*
X98679000Y-93539733D01*
X98679000Y-93802200D01*
X98941466Y-93802200D01*
G36*
X100934812Y-73473788D02*
G01*
X100968137Y-73585421D01*
X101042038Y-73649127D01*
X101170627Y-73682824D01*
X101239488Y-73691796D01*
X101444203Y-73689204D01*
X101599470Y-73634924D01*
X101696534Y-73535795D01*
X101726639Y-73398659D01*
X101714556Y-73320654D01*
X101710142Y-73271924D01*
X101742169Y-73246798D01*
X101829057Y-73237654D01*
X101917500Y-73236667D01*
X102047180Y-73239777D01*
X102110695Y-73254191D01*
X102126463Y-73287531D01*
X102120443Y-73320654D01*
X102116578Y-73469827D01*
X102177831Y-73593634D01*
X102257143Y-73652743D01*
X102357169Y-73679120D01*
X102505976Y-73697106D01*
X102639158Y-73702334D01*
X102786451Y-73700387D01*
X102868271Y-73689684D01*
X102903798Y-73662929D01*
X102912215Y-73612827D01*
X102912333Y-73598434D01*
X102906915Y-73543102D01*
X102878176Y-73510716D01*
X102807391Y-73493645D01*
X102675832Y-73484262D01*
X102626583Y-73482018D01*
X102475110Y-73473473D01*
X102389534Y-73459370D01*
X102351110Y-73431945D01*
X102341098Y-73383435D01*
X102340833Y-73363667D01*
X102345987Y-73307340D01*
X102373945Y-73274420D01*
X102443448Y-73257145D01*
X102573239Y-73247751D01*
X102626583Y-73245316D01*
X102778108Y-73236708D01*
X102863718Y-73222509D01*
X102902138Y-73195088D01*
X102912095Y-73146817D01*
X102912333Y-73128899D01*
X102912333Y-73025000D01*
X101321274Y-73025000D01*
X101321274Y-73237880D01*
X101430301Y-73241833D01*
X101488896Y-73266675D01*
X101508228Y-73328834D01*
X101506535Y-73383091D01*
X101474447Y-73446511D01*
X101387945Y-73477036D01*
X101342376Y-73482224D01*
X101212203Y-73472563D01*
X101128795Y-73426776D01*
X101106137Y-73357104D01*
X101134333Y-73300167D01*
X101208934Y-73258617D01*
X101321274Y-73237880D01*
X101321274Y-73025000D01*
X100930029Y-73025000D01*
X100927947Y-73296311D01*
X100934812Y-73473788D01*
G37*
X100934812Y-73473788D02*
X100968137Y-73585421D01*
X101042038Y-73649127D01*
X101170627Y-73682824D01*
X101239488Y-73691796D01*
X101444203Y-73689204D01*
X101599470Y-73634924D01*
X101696534Y-73535795D01*
X101726639Y-73398659D01*
X101714556Y-73320654D01*
X101710142Y-73271924D01*
X101742169Y-73246798D01*
X101829057Y-73237654D01*
X101917500Y-73236667D01*
X102047180Y-73239777D01*
X102110695Y-73254191D01*
X102126463Y-73287531D01*
X102120443Y-73320654D01*
X102116578Y-73469827D01*
X102177831Y-73593634D01*
X102257143Y-73652743D01*
X102357169Y-73679120D01*
X102505976Y-73697106D01*
X102639158Y-73702334D01*
X102786451Y-73700387D01*
X102868271Y-73689684D01*
X102903798Y-73662929D01*
X102912215Y-73612827D01*
X102912333Y-73598434D01*
X102906915Y-73543102D01*
X102878176Y-73510716D01*
X102807391Y-73493645D01*
X102675832Y-73484262D01*
X102626583Y-73482018D01*
X102475110Y-73473473D01*
X102389534Y-73459370D01*
X102351110Y-73431945D01*
X102341098Y-73383435D01*
X102340833Y-73363667D01*
X102345987Y-73307340D01*
X102373945Y-73274420D01*
X102443448Y-73257145D01*
X102573239Y-73247751D01*
X102626583Y-73245316D01*
X102778108Y-73236708D01*
X102863718Y-73222509D01*
X102902138Y-73195088D01*
X102912095Y-73146817D01*
X102912333Y-73128899D01*
X102912333Y-73025000D01*
X101321274Y-73025000D01*
X101321274Y-73237880D01*
X101430301Y-73241833D01*
X101488896Y-73266675D01*
X101508228Y-73328834D01*
X101506535Y-73383091D01*
X101474447Y-73446511D01*
X101387945Y-73477036D01*
X101342376Y-73482224D01*
X101212203Y-73472563D01*
X101128795Y-73426776D01*
X101106137Y-73357104D01*
X101134333Y-73300167D01*
X101208934Y-73258617D01*
X101321274Y-73237880D01*
X101321274Y-73025000D01*
X100930029Y-73025000D01*
X100927947Y-73296311D01*
X100934812Y-73473788D01*
G36*
X102138557Y-74262522D02*
G01*
X102167732Y-74318174D01*
X102215007Y-74361431D01*
X102292926Y-74389281D01*
X102420841Y-74406401D01*
X102569899Y-74415414D01*
X102912333Y-74430965D01*
X102912333Y-74157877D01*
X102905904Y-73990677D01*
X102883265Y-73885113D01*
X102839387Y-73818896D01*
X102834916Y-73814728D01*
X102713925Y-73747414D01*
X102672530Y-73750201D01*
X102672530Y-73957383D01*
X102716563Y-73986341D01*
X102737772Y-74056051D01*
X102719262Y-74143183D01*
X102671935Y-74198851D01*
X102668916Y-74199962D01*
X102628629Y-74177911D01*
X102616000Y-74086861D01*
X102630757Y-73984265D01*
X102672530Y-73957383D01*
X102672530Y-73750201D01*
X102599773Y-73755101D01*
X102508057Y-73828577D01*
X102454374Y-73958630D01*
X102446666Y-74044024D01*
X102434103Y-74164564D01*
X102395075Y-74209707D01*
X102387695Y-74210334D01*
X102322335Y-74175878D01*
X102296258Y-74094159D01*
X102318178Y-74001448D01*
X102331124Y-73908657D01*
X102296859Y-73845765D01*
X102246912Y-73790847D01*
X102208647Y-73802871D01*
X102171500Y-73848008D01*
X102122106Y-73967301D01*
X102111011Y-74119673D01*
X102138557Y-74262522D01*
G37*
X102138557Y-74262522D02*
X102167732Y-74318174D01*
X102215007Y-74361431D01*
X102292926Y-74389281D01*
X102420841Y-74406401D01*
X102569899Y-74415414D01*
X102912333Y-74430965D01*
X102912333Y-74157877D01*
X102905904Y-73990677D01*
X102883265Y-73885113D01*
X102839387Y-73818896D01*
X102834916Y-73814728D01*
X102713925Y-73747414D01*
X102672530Y-73750201D01*
X102672530Y-73957383D01*
X102716563Y-73986341D01*
X102737772Y-74056051D01*
X102719262Y-74143183D01*
X102671935Y-74198851D01*
X102668916Y-74199962D01*
X102628629Y-74177911D01*
X102616000Y-74086861D01*
X102630757Y-73984265D01*
X102672530Y-73957383D01*
X102672530Y-73750201D01*
X102599773Y-73755101D01*
X102508057Y-73828577D01*
X102454374Y-73958630D01*
X102446666Y-74044024D01*
X102434103Y-74164564D01*
X102395075Y-74209707D01*
X102387695Y-74210334D01*
X102322335Y-74175878D01*
X102296258Y-74094159D01*
X102318178Y-74001448D01*
X102331124Y-73908657D01*
X102296859Y-73845765D01*
X102246912Y-73790847D01*
X102208647Y-73802871D01*
X102171500Y-73848008D01*
X102122106Y-73967301D01*
X102111011Y-74119673D01*
X102138557Y-74262522D01*
G36*
X102912333Y-75692000D02*
G01*
X102912333Y-75444561D01*
X102899034Y-75260048D01*
X102849867Y-75143396D01*
X102750928Y-75080701D01*
X102588314Y-75058060D01*
X102551265Y-75057443D01*
X102551265Y-75244303D01*
X102657455Y-75269090D01*
X102729032Y-75312985D01*
X102742351Y-75344240D01*
X102721605Y-75403329D01*
X102706292Y-75430346D01*
X102636160Y-75467889D01*
X102505857Y-75472680D01*
X102392732Y-75453369D01*
X102340189Y-75410951D01*
X102327816Y-75367815D01*
X102337544Y-75297043D01*
X102406333Y-75257492D01*
X102441750Y-75248580D01*
X102551265Y-75244303D01*
X102551265Y-75057443D01*
X102524748Y-75057000D01*
X102291996Y-75057000D01*
X102311680Y-74919417D01*
X102334979Y-74818049D01*
X102381500Y-74757953D01*
X102470048Y-74728577D01*
X102619430Y-74719370D01*
X102668916Y-74718982D01*
X102807190Y-74715230D01*
X102880603Y-74700314D01*
X102908855Y-74667332D01*
X102912333Y-74633667D01*
X102906232Y-74594229D01*
X102877431Y-74569377D01*
X102810185Y-74555777D01*
X102688749Y-74550097D01*
X102512318Y-74549000D01*
X102112302Y-74549000D01*
X102129851Y-74813584D01*
X102139830Y-74969774D01*
X102144518Y-75075820D01*
X102144382Y-75166047D01*
X102139891Y-75274782D01*
X102136927Y-75332167D01*
X102125582Y-75429279D01*
X102087828Y-75470790D01*
X101997227Y-75480225D01*
X101970416Y-75480334D01*
X101865707Y-75487055D01*
X101820916Y-75518048D01*
X101811666Y-75586167D01*
X101811666Y-75692000D01*
X102912333Y-75692000D01*
G37*
X102912333Y-75692000D02*
X102912333Y-75444561D01*
X102899034Y-75260048D01*
X102849867Y-75143396D01*
X102750928Y-75080701D01*
X102588314Y-75058060D01*
X102551265Y-75057443D01*
X102551265Y-75244303D01*
X102657455Y-75269090D01*
X102729032Y-75312985D01*
X102742351Y-75344240D01*
X102721605Y-75403329D01*
X102706292Y-75430346D01*
X102636160Y-75467889D01*
X102505857Y-75472680D01*
X102392732Y-75453369D01*
X102340189Y-75410951D01*
X102327816Y-75367815D01*
X102337544Y-75297043D01*
X102406333Y-75257492D01*
X102441750Y-75248580D01*
X102551265Y-75244303D01*
X102551265Y-75057443D01*
X102524748Y-75057000D01*
X102291996Y-75057000D01*
X102311680Y-74919417D01*
X102334979Y-74818049D01*
X102381500Y-74757953D01*
X102470048Y-74728577D01*
X102619430Y-74719370D01*
X102668916Y-74718982D01*
X102807190Y-74715230D01*
X102880603Y-74700314D01*
X102908855Y-74667332D01*
X102912333Y-74633667D01*
X102906232Y-74594229D01*
X102877431Y-74569377D01*
X102810185Y-74555777D01*
X102688749Y-74550097D01*
X102512318Y-74549000D01*
X102112302Y-74549000D01*
X102129851Y-74813584D01*
X102139830Y-74969774D01*
X102144518Y-75075820D01*
X102144382Y-75166047D01*
X102139891Y-75274782D01*
X102136927Y-75332167D01*
X102125582Y-75429279D01*
X102087828Y-75470790D01*
X101997227Y-75480225D01*
X101970416Y-75480334D01*
X101865707Y-75487055D01*
X101820916Y-75518048D01*
X101811666Y-75586167D01*
X101811666Y-75692000D01*
X102912333Y-75692000D01*
G36*
X102129963Y-76336462D02*
G01*
X102240141Y-76401463D01*
X102347415Y-76440476D01*
X102586831Y-76515945D01*
X102357998Y-76581980D01*
X102217877Y-76630158D01*
X102143221Y-76679487D01*
X102115639Y-76741507D01*
X102112822Y-76794136D01*
X102131753Y-76822554D01*
X102185476Y-76826248D01*
X102287035Y-76804706D01*
X102449475Y-76757415D01*
X102556886Y-76724178D01*
X102729768Y-76667640D01*
X102836172Y-76623773D01*
X102891477Y-76583600D01*
X102911058Y-76538147D01*
X102912333Y-76516733D01*
X102899150Y-76455639D01*
X102846373Y-76413829D01*
X102734160Y-76377630D01*
X102697243Y-76368512D01*
X102571587Y-76332348D01*
X102525456Y-76299444D01*
X102560011Y-76264416D01*
X102676414Y-76221878D01*
X102732416Y-76205437D01*
X102853492Y-76159531D01*
X102906359Y-76104964D01*
X102912333Y-76069972D01*
X102889091Y-75991702D01*
X102859416Y-75966154D01*
X102733725Y-75921546D01*
X102580943Y-75869802D01*
X102423207Y-75818082D01*
X102282650Y-75773549D01*
X102181405Y-75743363D01*
X102142918Y-75734334D01*
X102116296Y-75770483D01*
X102108000Y-75836255D01*
X102120283Y-75900825D01*
X102170664Y-75944324D01*
X102279440Y-75981827D01*
X102317553Y-75991883D01*
X102432346Y-76027181D01*
X102500315Y-76059673D01*
X102509144Y-76074655D01*
X102460943Y-76102400D01*
X102359354Y-76139460D01*
X102299590Y-76157361D01*
X102159294Y-76212079D01*
X102102883Y-76272556D01*
X102129963Y-76336462D01*
G37*
X102129963Y-76336462D02*
X102240141Y-76401463D01*
X102347415Y-76440476D01*
X102586831Y-76515945D01*
X102357998Y-76581980D01*
X102217877Y-76630158D01*
X102143221Y-76679487D01*
X102115639Y-76741507D01*
X102112822Y-76794136D01*
X102131753Y-76822554D01*
X102185476Y-76826248D01*
X102287035Y-76804706D01*
X102449475Y-76757415D01*
X102556886Y-76724178D01*
X102729768Y-76667640D01*
X102836172Y-76623773D01*
X102891477Y-76583600D01*
X102911058Y-76538147D01*
X102912333Y-76516733D01*
X102899150Y-76455639D01*
X102846373Y-76413829D01*
X102734160Y-76377630D01*
X102697243Y-76368512D01*
X102571587Y-76332348D01*
X102525456Y-76299444D01*
X102560011Y-76264416D01*
X102676414Y-76221878D01*
X102732416Y-76205437D01*
X102853492Y-76159531D01*
X102906359Y-76104964D01*
X102912333Y-76069972D01*
X102889091Y-75991702D01*
X102859416Y-75966154D01*
X102733725Y-75921546D01*
X102580943Y-75869802D01*
X102423207Y-75818082D01*
X102282650Y-75773549D01*
X102181405Y-75743363D01*
X102142918Y-75734334D01*
X102116296Y-75770483D01*
X102108000Y-75836255D01*
X102120283Y-75900825D01*
X102170664Y-75944324D01*
X102279440Y-75981827D01*
X102317553Y-75991883D01*
X102432346Y-76027181D01*
X102500315Y-76059673D01*
X102509144Y-76074655D01*
X102460943Y-76102400D01*
X102359354Y-76139460D01*
X102299590Y-76157361D01*
X102159294Y-76212079D01*
X102102883Y-76272556D01*
X102129963Y-76336462D01*
G36*
X102116954Y-77227295D02*
G01*
X102168737Y-77368261D01*
X102173900Y-77375914D01*
X102216705Y-77423913D01*
X102275896Y-77452231D01*
X102372689Y-77465890D01*
X102528301Y-77469910D01*
X102571436Y-77470000D01*
X102903072Y-77470000D01*
X102907082Y-77202680D01*
X102901461Y-77044944D01*
X102881865Y-76929076D01*
X102860913Y-76885180D01*
X102774167Y-76845896D01*
X102673211Y-76838766D01*
X102673211Y-77005188D01*
X102714777Y-77032556D01*
X102743178Y-77101172D01*
X102737915Y-77186194D01*
X102705143Y-77248232D01*
X102679500Y-77258334D01*
X102629086Y-77220469D01*
X102616000Y-77131334D01*
X102631108Y-77031050D01*
X102673211Y-77005188D01*
X102673211Y-76838766D01*
X102652660Y-76837314D01*
X102540504Y-76859358D01*
X102497466Y-76885800D01*
X102465772Y-76957530D01*
X102448032Y-77075385D01*
X102446666Y-77118634D01*
X102436367Y-77247409D01*
X102403867Y-77295994D01*
X102346764Y-77266518D01*
X102316813Y-77233729D01*
X102282669Y-77165599D01*
X102310426Y-77088198D01*
X102315338Y-77080199D01*
X102346744Y-77002764D01*
X102313440Y-76939035D01*
X102299620Y-76924887D01*
X102241908Y-76880348D01*
X102197776Y-76901873D01*
X102168912Y-76938341D01*
X102116856Y-77070255D01*
X102116954Y-77227295D01*
G37*
X102116954Y-77227295D02*
X102168737Y-77368261D01*
X102173900Y-77375914D01*
X102216705Y-77423913D01*
X102275896Y-77452231D01*
X102372689Y-77465890D01*
X102528301Y-77469910D01*
X102571436Y-77470000D01*
X102903072Y-77470000D01*
X102907082Y-77202680D01*
X102901461Y-77044944D01*
X102881865Y-76929076D01*
X102860913Y-76885180D01*
X102774167Y-76845896D01*
X102673211Y-76838766D01*
X102673211Y-77005188D01*
X102714777Y-77032556D01*
X102743178Y-77101172D01*
X102737915Y-77186194D01*
X102705143Y-77248232D01*
X102679500Y-77258334D01*
X102629086Y-77220469D01*
X102616000Y-77131334D01*
X102631108Y-77031050D01*
X102673211Y-77005188D01*
X102673211Y-76838766D01*
X102652660Y-76837314D01*
X102540504Y-76859358D01*
X102497466Y-76885800D01*
X102465772Y-76957530D01*
X102448032Y-77075385D01*
X102446666Y-77118634D01*
X102436367Y-77247409D01*
X102403867Y-77295994D01*
X102346764Y-77266518D01*
X102316813Y-77233729D01*
X102282669Y-77165599D01*
X102310426Y-77088198D01*
X102315338Y-77080199D01*
X102346744Y-77002764D01*
X102313440Y-76939035D01*
X102299620Y-76924887D01*
X102241908Y-76880348D01*
X102197776Y-76901873D01*
X102168912Y-76938341D01*
X102116856Y-77070255D01*
X102116954Y-77227295D01*
G36*
X102119512Y-77988852D02*
G01*
X102135983Y-78091045D01*
X102154401Y-78128681D01*
X102220789Y-78128628D01*
X102284096Y-78066974D01*
X102324363Y-77965086D01*
X102327737Y-77943152D01*
X102339595Y-77882842D01*
X102370795Y-77847721D01*
X102441010Y-77829504D01*
X102569912Y-77819910D01*
X102626583Y-77817316D01*
X102778108Y-77808708D01*
X102863718Y-77794509D01*
X102902138Y-77767088D01*
X102912095Y-77718817D01*
X102912333Y-77700899D01*
X102909287Y-77652600D01*
X102889534Y-77622211D01*
X102837147Y-77605585D01*
X102736202Y-77598572D01*
X102570772Y-77597021D01*
X102513589Y-77597000D01*
X102114845Y-77597000D01*
X102113636Y-77849870D01*
X102119512Y-77988852D01*
G37*
X102119512Y-77988852D02*
X102135983Y-78091045D01*
X102154401Y-78128681D01*
X102220789Y-78128628D01*
X102284096Y-78066974D01*
X102324363Y-77965086D01*
X102327737Y-77943152D01*
X102339595Y-77882842D01*
X102370795Y-77847721D01*
X102441010Y-77829504D01*
X102569912Y-77819910D01*
X102626583Y-77817316D01*
X102778108Y-77808708D01*
X102863718Y-77794509D01*
X102902138Y-77767088D01*
X102912095Y-77718817D01*
X102912333Y-77700899D01*
X102909287Y-77652600D01*
X102889534Y-77622211D01*
X102837147Y-77605585D01*
X102736202Y-77598572D01*
X102570772Y-77597021D01*
X102513589Y-77597000D01*
X102114845Y-77597000D01*
X102113636Y-77849870D01*
X102119512Y-77988852D01*
G36*
X102139656Y-78575517D02*
G01*
X102229370Y-78695443D01*
X102365976Y-78768836D01*
X102465909Y-78782334D01*
X102616000Y-78782334D01*
X102616000Y-78540429D01*
X102617855Y-78406636D01*
X102627266Y-78343613D01*
X102649998Y-78337482D01*
X102687007Y-78369532D01*
X102734150Y-78444240D01*
X102715631Y-78533471D01*
X102713014Y-78539305D01*
X102691371Y-78639957D01*
X102729290Y-78720786D01*
X102778567Y-78778277D01*
X102815156Y-78767392D01*
X102851450Y-78721326D01*
X102899084Y-78605845D01*
X102911966Y-78459882D01*
X102891235Y-78319382D01*
X102838035Y-78220289D01*
X102835472Y-78217897D01*
X102708577Y-78148035D01*
X102549353Y-78120843D01*
X102393750Y-78133353D01*
X102393750Y-78327250D01*
X102433894Y-78349279D01*
X102446666Y-78443667D01*
X102432688Y-78540706D01*
X102393750Y-78560084D01*
X102352428Y-78509058D01*
X102340833Y-78443667D01*
X102360789Y-78359881D01*
X102393750Y-78327250D01*
X102393750Y-78133353D01*
X102385163Y-78134044D01*
X102243369Y-78185360D01*
X102151332Y-78272515D01*
X102150008Y-78274941D01*
X102109110Y-78428777D01*
X102139656Y-78575517D01*
G37*
X102139656Y-78575517D02*
X102229370Y-78695443D01*
X102365976Y-78768836D01*
X102465909Y-78782334D01*
X102616000Y-78782334D01*
X102616000Y-78540429D01*
X102617855Y-78406636D01*
X102627266Y-78343613D01*
X102649998Y-78337482D01*
X102687007Y-78369532D01*
X102734150Y-78444240D01*
X102715631Y-78533471D01*
X102713014Y-78539305D01*
X102691371Y-78639957D01*
X102729290Y-78720786D01*
X102778567Y-78778277D01*
X102815156Y-78767392D01*
X102851450Y-78721326D01*
X102899084Y-78605845D01*
X102911966Y-78459882D01*
X102891235Y-78319382D01*
X102838035Y-78220289D01*
X102835472Y-78217897D01*
X102708577Y-78148035D01*
X102549353Y-78120843D01*
X102393750Y-78133353D01*
X102393750Y-78327250D01*
X102433894Y-78349279D01*
X102446666Y-78443667D01*
X102432688Y-78540706D01*
X102393750Y-78560084D01*
X102352428Y-78509058D01*
X102340833Y-78443667D01*
X102360789Y-78359881D01*
X102393750Y-78327250D01*
X102393750Y-78133353D01*
X102385163Y-78134044D01*
X102243369Y-78185360D01*
X102151332Y-78272515D01*
X102150008Y-78274941D01*
X102109110Y-78428777D01*
X102139656Y-78575517D01*
G36*
X100962227Y-72790172D02*
G01*
X101007333Y-72855667D01*
X101124437Y-72921000D01*
X101282431Y-72946414D01*
X101447922Y-72932618D01*
X101587517Y-72880320D01*
X101634954Y-72842355D01*
X101709944Y-72709973D01*
X101722123Y-72560041D01*
X101670977Y-72424172D01*
X101642333Y-72390000D01*
X101538903Y-72333174D01*
X101390581Y-72303954D01*
X101322014Y-72303418D01*
X101322014Y-72475828D01*
X101448370Y-72500363D01*
X101505586Y-72559681D01*
X101506961Y-72649204D01*
X101464533Y-72720200D01*
X101365942Y-72766172D01*
X101246716Y-72756408D01*
X101158607Y-72704560D01*
X101113858Y-72621200D01*
X101137207Y-72547518D01*
X101212108Y-72495174D01*
X101322014Y-72475828D01*
X101322014Y-72303418D01*
X101228778Y-72302689D01*
X101084908Y-72329730D01*
X100992727Y-72382750D01*
X100935348Y-72501034D01*
X100925580Y-72649756D01*
X100962227Y-72790172D01*
G37*
X100962227Y-72790172D02*
X101007333Y-72855667D01*
X101124437Y-72921000D01*
X101282431Y-72946414D01*
X101447922Y-72932618D01*
X101587517Y-72880320D01*
X101634954Y-72842355D01*
X101709944Y-72709973D01*
X101722123Y-72560041D01*
X101670977Y-72424172D01*
X101642333Y-72390000D01*
X101538903Y-72333174D01*
X101390581Y-72303954D01*
X101322014Y-72303418D01*
X101322014Y-72475828D01*
X101448370Y-72500363D01*
X101505586Y-72559681D01*
X101506961Y-72649204D01*
X101464533Y-72720200D01*
X101365942Y-72766172D01*
X101246716Y-72756408D01*
X101158607Y-72704560D01*
X101113858Y-72621200D01*
X101137207Y-72547518D01*
X101212108Y-72495174D01*
X101322014Y-72475828D01*
X101322014Y-72303418D01*
X101228778Y-72302689D01*
X101084908Y-72329730D01*
X100992727Y-72382750D01*
X100935348Y-72501034D01*
X100925580Y-72649756D01*
X100962227Y-72790172D01*
G36*
X100960490Y-74242862D02*
G01*
X101062434Y-74358821D01*
X101211206Y-74417871D01*
X101267042Y-74422000D01*
X101336395Y-74417621D01*
X101372495Y-74390600D01*
X101386191Y-74320108D01*
X101388333Y-74189167D01*
X101397839Y-74038893D01*
X101425132Y-73965676D01*
X101468372Y-73971941D01*
X101509640Y-74029324D01*
X101525163Y-74137029D01*
X101508483Y-74180798D01*
X101484283Y-74280453D01*
X101514987Y-74355767D01*
X101576015Y-74379667D01*
X101654160Y-74343237D01*
X101704287Y-74250196D01*
X101723070Y-74124919D01*
X101707189Y-73991778D01*
X101653320Y-73875149D01*
X101646073Y-73865773D01*
X101581659Y-73805256D01*
X101496525Y-73775108D01*
X101361356Y-73765971D01*
X101333018Y-73765834D01*
X101194948Y-73779874D01*
X101194948Y-73968981D01*
X101214961Y-73985886D01*
X101218992Y-74074001D01*
X101219000Y-74083334D01*
X101215630Y-74177004D01*
X101197171Y-74198571D01*
X101151098Y-74160560D01*
X101146428Y-74155905D01*
X101097381Y-74095787D01*
X101111821Y-74047667D01*
X101146428Y-74010762D01*
X101194948Y-73968981D01*
X101194948Y-73779874D01*
X101135073Y-73785963D01*
X101005581Y-73849994D01*
X100937556Y-73963392D01*
X100922666Y-74086822D01*
X100960490Y-74242862D01*
G37*
X100960490Y-74242862D02*
X101062434Y-74358821D01*
X101211206Y-74417871D01*
X101267042Y-74422000D01*
X101336395Y-74417621D01*
X101372495Y-74390600D01*
X101386191Y-74320108D01*
X101388333Y-74189167D01*
X101397839Y-74038893D01*
X101425132Y-73965676D01*
X101468372Y-73971941D01*
X101509640Y-74029324D01*
X101525163Y-74137029D01*
X101508483Y-74180798D01*
X101484283Y-74280453D01*
X101514987Y-74355767D01*
X101576015Y-74379667D01*
X101654160Y-74343237D01*
X101704287Y-74250196D01*
X101723070Y-74124919D01*
X101707189Y-73991778D01*
X101653320Y-73875149D01*
X101646073Y-73865773D01*
X101581659Y-73805256D01*
X101496525Y-73775108D01*
X101361356Y-73765971D01*
X101333018Y-73765834D01*
X101194948Y-73779874D01*
X101194948Y-73968981D01*
X101214961Y-73985886D01*
X101218992Y-74074001D01*
X101219000Y-74083334D01*
X101215630Y-74177004D01*
X101197171Y-74198571D01*
X101151098Y-74160560D01*
X101146428Y-74155905D01*
X101097381Y-74095787D01*
X101111821Y-74047667D01*
X101146428Y-74010762D01*
X101194948Y-73968981D01*
X101194948Y-73779874D01*
X101135073Y-73785963D01*
X101005581Y-73849994D01*
X100937556Y-73963392D01*
X100922666Y-74086822D01*
X100960490Y-74242862D01*
G36*
X100931721Y-74922583D02*
G01*
X100968110Y-75034391D01*
X101045671Y-75100712D01*
X101178238Y-75132727D01*
X101379651Y-75141619D01*
X101402250Y-75141667D01*
X101566798Y-75139752D01*
X101664077Y-75130989D01*
X101711450Y-75110850D01*
X101726282Y-75074809D01*
X101727000Y-75057000D01*
X101717622Y-75009489D01*
X101676516Y-74983941D01*
X101584220Y-74973792D01*
X101476023Y-74972334D01*
X101288186Y-74956311D01*
X101164689Y-74910671D01*
X101112309Y-74839059D01*
X101119494Y-74780608D01*
X101158033Y-74745005D01*
X101249307Y-74725243D01*
X101408022Y-74718421D01*
X101435195Y-74718334D01*
X101588556Y-74716719D01*
X101675845Y-74707381D01*
X101715651Y-74683577D01*
X101726562Y-74638566D01*
X101727000Y-74612500D01*
X101724207Y-74563471D01*
X101705256Y-74532550D01*
X101654287Y-74515562D01*
X101555441Y-74508334D01*
X101392860Y-74506694D01*
X101324833Y-74506667D01*
X100922666Y-74506667D01*
X100922666Y-74754106D01*
X100931721Y-74922583D01*
G37*
X100931721Y-74922583D02*
X100968110Y-75034391D01*
X101045671Y-75100712D01*
X101178238Y-75132727D01*
X101379651Y-75141619D01*
X101402250Y-75141667D01*
X101566798Y-75139752D01*
X101664077Y-75130989D01*
X101711450Y-75110850D01*
X101726282Y-75074809D01*
X101727000Y-75057000D01*
X101717622Y-75009489D01*
X101676516Y-74983941D01*
X101584220Y-74973792D01*
X101476023Y-74972334D01*
X101288186Y-74956311D01*
X101164689Y-74910671D01*
X101112309Y-74839059D01*
X101119494Y-74780608D01*
X101158033Y-74745005D01*
X101249307Y-74725243D01*
X101408022Y-74718421D01*
X101435195Y-74718334D01*
X101588556Y-74716719D01*
X101675845Y-74707381D01*
X101715651Y-74683577D01*
X101726562Y-74638566D01*
X101727000Y-74612500D01*
X101724207Y-74563471D01*
X101705256Y-74532550D01*
X101654287Y-74515562D01*
X101555441Y-74508334D01*
X101392860Y-74506694D01*
X101324833Y-74506667D01*
X100922666Y-74506667D01*
X100922666Y-74754106D01*
X100931721Y-74922583D01*
G36*
X100936743Y-76010566D02*
G01*
X100971730Y-76119566D01*
X100983579Y-76138992D01*
X101035323Y-76194851D01*
X101081384Y-76182662D01*
X101114711Y-76152022D01*
X101160987Y-76082590D01*
X101142073Y-76003219D01*
X101135206Y-75989964D01*
X101107769Y-75901154D01*
X101113920Y-75825424D01*
X101147833Y-75789995D01*
X101176367Y-75797649D01*
X101209044Y-75855998D01*
X101219000Y-75930115D01*
X101244809Y-76083890D01*
X101323917Y-76172850D01*
X101450922Y-76200000D01*
X101587146Y-76164201D01*
X101681011Y-76067446D01*
X101725538Y-75925695D01*
X101713752Y-75754912D01*
X101684949Y-75664582D01*
X101620552Y-75562197D01*
X101545657Y-75539005D01*
X101488047Y-75574143D01*
X101452217Y-75625678D01*
X101460823Y-75687420D01*
X101502633Y-75768200D01*
X101549988Y-75859889D01*
X101552800Y-75914795D01*
X101511704Y-75967743D01*
X101506372Y-75973104D01*
X101460411Y-76011689D01*
X101433965Y-75998670D01*
X101414413Y-75920657D01*
X101405317Y-75865882D01*
X101354142Y-75690980D01*
X101270998Y-75590880D01*
X101160002Y-75568072D01*
X101025276Y-75625048D01*
X101016752Y-75630901D01*
X100951296Y-75701755D01*
X100924920Y-75810244D01*
X100922666Y-75876809D01*
X100936743Y-76010566D01*
G37*
X100936743Y-76010566D02*
X100971730Y-76119566D01*
X100983579Y-76138992D01*
X101035323Y-76194851D01*
X101081384Y-76182662D01*
X101114711Y-76152022D01*
X101160987Y-76082590D01*
X101142073Y-76003219D01*
X101135206Y-75989964D01*
X101107769Y-75901154D01*
X101113920Y-75825424D01*
X101147833Y-75789995D01*
X101176367Y-75797649D01*
X101209044Y-75855998D01*
X101219000Y-75930115D01*
X101244809Y-76083890D01*
X101323917Y-76172850D01*
X101450922Y-76200000D01*
X101587146Y-76164201D01*
X101681011Y-76067446D01*
X101725538Y-75925695D01*
X101713752Y-75754912D01*
X101684949Y-75664582D01*
X101620552Y-75562197D01*
X101545657Y-75539005D01*
X101488047Y-75574143D01*
X101452217Y-75625678D01*
X101460823Y-75687420D01*
X101502633Y-75768200D01*
X101549988Y-75859889D01*
X101552800Y-75914795D01*
X101511704Y-75967743D01*
X101506372Y-75973104D01*
X101460411Y-76011689D01*
X101433965Y-75998670D01*
X101414413Y-75920657D01*
X101405317Y-75865882D01*
X101354142Y-75690980D01*
X101270998Y-75590880D01*
X101160002Y-75568072D01*
X101025276Y-75625048D01*
X101016752Y-75630901D01*
X100951296Y-75701755D01*
X100924920Y-75810244D01*
X100922666Y-75876809D01*
X100936743Y-76010566D01*
G36*
X100951903Y-76750106D02*
G01*
X101007333Y-76835000D01*
X101124437Y-76900333D01*
X101282431Y-76925747D01*
X101447922Y-76911951D01*
X101587517Y-76859654D01*
X101634954Y-76821688D01*
X101711001Y-76684295D01*
X101719484Y-76526530D01*
X101659342Y-76380424D01*
X101649992Y-76368279D01*
X101550024Y-76302473D01*
X101402630Y-76268108D01*
X101320604Y-76267203D01*
X101320604Y-76455160D01*
X101428255Y-76458623D01*
X101487111Y-76482222D01*
X101516129Y-76562201D01*
X101488306Y-76653490D01*
X101431535Y-76707535D01*
X101321475Y-76736284D01*
X101217771Y-76717271D01*
X101140316Y-76663775D01*
X101109003Y-76589073D01*
X101138786Y-76512134D01*
X101210322Y-76474181D01*
X101320604Y-76455160D01*
X101320604Y-76267203D01*
X101239437Y-76266306D01*
X101092071Y-76298191D01*
X101010225Y-76345549D01*
X100940925Y-76459128D01*
X100921414Y-76605819D01*
X100951903Y-76750106D01*
G37*
X100951903Y-76750106D02*
X101007333Y-76835000D01*
X101124437Y-76900333D01*
X101282431Y-76925747D01*
X101447922Y-76911951D01*
X101587517Y-76859654D01*
X101634954Y-76821688D01*
X101711001Y-76684295D01*
X101719484Y-76526530D01*
X101659342Y-76380424D01*
X101649992Y-76368279D01*
X101550024Y-76302473D01*
X101402630Y-76268108D01*
X101320604Y-76267203D01*
X101320604Y-76455160D01*
X101428255Y-76458623D01*
X101487111Y-76482222D01*
X101516129Y-76562201D01*
X101488306Y-76653490D01*
X101431535Y-76707535D01*
X101321475Y-76736284D01*
X101217771Y-76717271D01*
X101140316Y-76663775D01*
X101109003Y-76589073D01*
X101138786Y-76512134D01*
X101210322Y-76474181D01*
X101320604Y-76455160D01*
X101320604Y-76267203D01*
X101239437Y-76266306D01*
X101092071Y-76298191D01*
X101010225Y-76345549D01*
X100940925Y-76459128D01*
X100921414Y-76605819D01*
X100951903Y-76750106D01*
G36*
X100927495Y-77161391D02*
G01*
X100954488Y-77195018D01*
X101022403Y-77212568D01*
X101150000Y-77221977D01*
X101208416Y-77224649D01*
X101359889Y-77233194D01*
X101445465Y-77247297D01*
X101483889Y-77274722D01*
X101493901Y-77323232D01*
X101494166Y-77343000D01*
X101489012Y-77399327D01*
X101461054Y-77432247D01*
X101391551Y-77449522D01*
X101261760Y-77458916D01*
X101208416Y-77461351D01*
X101056891Y-77469959D01*
X100971281Y-77484158D01*
X100932861Y-77511579D01*
X100922904Y-77559850D01*
X100922666Y-77577768D01*
X100925712Y-77626067D01*
X100945465Y-77656456D01*
X100997852Y-77673082D01*
X101098797Y-77680095D01*
X101264227Y-77681646D01*
X101321410Y-77681667D01*
X101720154Y-77681667D01*
X101721344Y-77432705D01*
X101711853Y-77271134D01*
X101685214Y-77146802D01*
X101665034Y-77105107D01*
X101616927Y-77063013D01*
X101534652Y-77035728D01*
X101399469Y-77018839D01*
X101265100Y-77010919D01*
X100922666Y-76995369D01*
X100922666Y-77103750D01*
X100927495Y-77161391D01*
G37*
X100927495Y-77161391D02*
X100954488Y-77195018D01*
X101022403Y-77212568D01*
X101150000Y-77221977D01*
X101208416Y-77224649D01*
X101359889Y-77233194D01*
X101445465Y-77247297D01*
X101483889Y-77274722D01*
X101493901Y-77323232D01*
X101494166Y-77343000D01*
X101489012Y-77399327D01*
X101461054Y-77432247D01*
X101391551Y-77449522D01*
X101261760Y-77458916D01*
X101208416Y-77461351D01*
X101056891Y-77469959D01*
X100971281Y-77484158D01*
X100932861Y-77511579D01*
X100922904Y-77559850D01*
X100922666Y-77577768D01*
X100925712Y-77626067D01*
X100945465Y-77656456D01*
X100997852Y-77673082D01*
X101098797Y-77680095D01*
X101264227Y-77681646D01*
X101321410Y-77681667D01*
X101720154Y-77681667D01*
X101721344Y-77432705D01*
X101711853Y-77271134D01*
X101685214Y-77146802D01*
X101665034Y-77105107D01*
X101616927Y-77063013D01*
X101534652Y-77035728D01*
X101399469Y-77018839D01*
X101265100Y-77010919D01*
X100922666Y-76995369D01*
X100922666Y-77103750D01*
X100927495Y-77161391D01*
G36*
X100931162Y-78198157D02*
G01*
X100942419Y-78297369D01*
X100955884Y-78332200D01*
X101017598Y-78329243D01*
X101081729Y-78277122D01*
X101119607Y-78205426D01*
X101117745Y-78165168D01*
X101111617Y-78074950D01*
X101176966Y-78015178D01*
X101317270Y-77983932D01*
X101457016Y-77978000D01*
X101604228Y-77975261D01*
X101685709Y-77963100D01*
X101720325Y-77935602D01*
X101727000Y-77893334D01*
X101720866Y-77853799D01*
X101691940Y-77828929D01*
X101624429Y-77815359D01*
X101502542Y-77809727D01*
X101329383Y-77808667D01*
X100931767Y-77808667D01*
X100928218Y-78060787D01*
X100931162Y-78198157D01*
G37*
X100931162Y-78198157D02*
X100942419Y-78297369D01*
X100955884Y-78332200D01*
X101017598Y-78329243D01*
X101081729Y-78277122D01*
X101119607Y-78205426D01*
X101117745Y-78165168D01*
X101111617Y-78074950D01*
X101176966Y-78015178D01*
X101317270Y-77983932D01*
X101457016Y-77978000D01*
X101604228Y-77975261D01*
X101685709Y-77963100D01*
X101720325Y-77935602D01*
X101727000Y-77893334D01*
X101720866Y-77853799D01*
X101691940Y-77828929D01*
X101624429Y-77815359D01*
X101502542Y-77809727D01*
X101329383Y-77808667D01*
X100931767Y-77808667D01*
X100928218Y-78060787D01*
X100931162Y-78198157D01*
G36*
X100950690Y-78794620D02*
G01*
X100994744Y-78882697D01*
X101051637Y-78926835D01*
X101114587Y-78909042D01*
X101131201Y-78891941D01*
X101160764Y-78815939D01*
X101135781Y-78742706D01*
X101112953Y-78628492D01*
X101160135Y-78535938D01*
X101262695Y-78488641D01*
X101294572Y-78486648D01*
X101430097Y-78504884D01*
X101496642Y-78564738D01*
X101504028Y-78676865D01*
X101498929Y-78708335D01*
X101494036Y-78833953D01*
X101526316Y-78909928D01*
X101583676Y-78924880D01*
X101654022Y-78867431D01*
X101659685Y-78859599D01*
X101718013Y-78714262D01*
X101715048Y-78556840D01*
X101652129Y-78422227D01*
X101642500Y-78411266D01*
X101517131Y-78327304D01*
X101359905Y-78290460D01*
X101197340Y-78299351D01*
X101055954Y-78352594D01*
X100963382Y-78446690D01*
X100928227Y-78558623D01*
X100926257Y-78680597D01*
X100950690Y-78794620D01*
G37*
X100950690Y-78794620D02*
X100994744Y-78882697D01*
X101051637Y-78926835D01*
X101114587Y-78909042D01*
X101131201Y-78891941D01*
X101160764Y-78815939D01*
X101135781Y-78742706D01*
X101112953Y-78628492D01*
X101160135Y-78535938D01*
X101262695Y-78488641D01*
X101294572Y-78486648D01*
X101430097Y-78504884D01*
X101496642Y-78564738D01*
X101504028Y-78676865D01*
X101498929Y-78708335D01*
X101494036Y-78833953D01*
X101526316Y-78909928D01*
X101583676Y-78924880D01*
X101654022Y-78867431D01*
X101659685Y-78859599D01*
X101718013Y-78714262D01*
X101715048Y-78556840D01*
X101652129Y-78422227D01*
X101642500Y-78411266D01*
X101517131Y-78327304D01*
X101359905Y-78290460D01*
X101197340Y-78299351D01*
X101055954Y-78352594D01*
X100963382Y-78446690D01*
X100928227Y-78558623D01*
X100926257Y-78680597D01*
X100950690Y-78794620D01*
G36*
X100951961Y-79431106D02*
G01*
X101039055Y-79539454D01*
X101182762Y-79585150D01*
X101221400Y-79586667D01*
X101388333Y-79586667D01*
X101388333Y-79355162D01*
X101392892Y-79220451D01*
X101409426Y-79155226D01*
X101442222Y-79144654D01*
X101448560Y-79146769D01*
X101522830Y-79213881D01*
X101534462Y-79318269D01*
X101511048Y-79383006D01*
X101488806Y-79467226D01*
X101534954Y-79538689D01*
X101592900Y-79583648D01*
X101636911Y-79562510D01*
X101666087Y-79525659D01*
X101722594Y-79384732D01*
X101715377Y-79225882D01*
X101647549Y-79083156D01*
X101623090Y-79055576D01*
X101530992Y-78986311D01*
X101416177Y-78956124D01*
X101313573Y-78951667D01*
X101149576Y-78974842D01*
X101149576Y-79167643D01*
X101191410Y-79179742D01*
X101216758Y-79257338D01*
X101219000Y-79299405D01*
X101215066Y-79388174D01*
X101194697Y-79404741D01*
X101149711Y-79366188D01*
X101104954Y-79285582D01*
X101106049Y-79230116D01*
X101149576Y-79167643D01*
X101149576Y-78974842D01*
X101121026Y-78978877D01*
X100991971Y-79059196D01*
X100928890Y-79190656D01*
X100922666Y-79261397D01*
X100951961Y-79431106D01*
G37*
X100951961Y-79431106D02*
X101039055Y-79539454D01*
X101182762Y-79585150D01*
X101221400Y-79586667D01*
X101388333Y-79586667D01*
X101388333Y-79355162D01*
X101392892Y-79220451D01*
X101409426Y-79155226D01*
X101442222Y-79144654D01*
X101448560Y-79146769D01*
X101522830Y-79213881D01*
X101534462Y-79318269D01*
X101511048Y-79383006D01*
X101488806Y-79467226D01*
X101534954Y-79538689D01*
X101592900Y-79583648D01*
X101636911Y-79562510D01*
X101666087Y-79525659D01*
X101722594Y-79384732D01*
X101715377Y-79225882D01*
X101647549Y-79083156D01*
X101623090Y-79055576D01*
X101530992Y-78986311D01*
X101416177Y-78956124D01*
X101313573Y-78951667D01*
X101149576Y-78974842D01*
X101149576Y-79167643D01*
X101191410Y-79179742D01*
X101216758Y-79257338D01*
X101219000Y-79299405D01*
X101215066Y-79388174D01*
X101194697Y-79404741D01*
X101149711Y-79366188D01*
X101104954Y-79285582D01*
X101106049Y-79230116D01*
X101149576Y-79167643D01*
X101149576Y-78974842D01*
X101121026Y-78978877D01*
X100991971Y-79059196D01*
X100928890Y-79190656D01*
X100922666Y-79261397D01*
X100951961Y-79431106D01*
G36*
X95618554Y-76428477D02*
G01*
X95786294Y-76462419D01*
X95920631Y-76494895D01*
X96000913Y-76520683D01*
X96013608Y-76528338D01*
X96042829Y-76582288D01*
X96090840Y-76689027D01*
X96132407Y-76788980D01*
X96224706Y-77018126D01*
X96012519Y-77325065D01*
X95917412Y-77466554D01*
X95844352Y-77582689D01*
X95804491Y-77655412D01*
X95800333Y-77668642D01*
X95828875Y-77714002D01*
X95903163Y-77799274D01*
X96006187Y-77907532D01*
X96120939Y-78021851D01*
X96230410Y-78125307D01*
X96317591Y-78200975D01*
X96365473Y-78231930D01*
X96366484Y-78232000D01*
X96414715Y-78209094D01*
X96513452Y-78147990D01*
X96644598Y-78060106D01*
X96699079Y-78022126D01*
X96996967Y-77812253D01*
X97150067Y-77878078D01*
X97283931Y-77933647D01*
X97406552Y-77981519D01*
X97416925Y-77985334D01*
X97520732Y-78062593D01*
X97552910Y-78139965D01*
X97572646Y-78242501D01*
X97600900Y-78391621D01*
X97624575Y-78517750D01*
X97674015Y-78782334D01*
X98503512Y-78782334D01*
X98555848Y-78457908D01*
X98589464Y-78293147D01*
X98630191Y-78155931D01*
X98670009Y-78072510D01*
X98675508Y-78066158D01*
X98751955Y-78015596D01*
X98877351Y-77956834D01*
X98976280Y-77919482D01*
X99209728Y-77840131D01*
X99490015Y-78036066D01*
X99625180Y-78127492D01*
X99735015Y-78196143D01*
X99800412Y-78230244D01*
X99807957Y-78232000D01*
X99853872Y-78203416D01*
X99939587Y-78129014D01*
X100048161Y-78025818D01*
X100162656Y-77910856D01*
X100266133Y-77801151D01*
X100341655Y-77713730D01*
X100372281Y-77665618D01*
X100372333Y-77664737D01*
X100349264Y-77615604D01*
X100288060Y-77517257D01*
X100200721Y-77388705D01*
X100176276Y-77354170D01*
X99980219Y-77079421D01*
X100049978Y-76933137D01*
X100090602Y-76831824D01*
X100103557Y-76764715D01*
X100101424Y-76757222D01*
X100057816Y-76731983D01*
X99949297Y-76681537D01*
X99789638Y-76611946D01*
X99592610Y-76529268D01*
X99461102Y-76475461D01*
X98839093Y-76223330D01*
X98710930Y-76383088D01*
X98517132Y-76567258D01*
X98298226Y-76673948D01*
X98063179Y-76701021D01*
X97820961Y-76646343D01*
X97746395Y-76612750D01*
X97548197Y-76471049D01*
X97413496Y-76288411D01*
X97342505Y-76080146D01*
X97335439Y-75861566D01*
X97392512Y-75647982D01*
X97513939Y-75454704D01*
X97699933Y-75297042D01*
X97727751Y-75280591D01*
X97952847Y-75198331D01*
X98185796Y-75194442D01*
X98412250Y-75265591D01*
X98617857Y-75408446D01*
X98710930Y-75508913D01*
X98839093Y-75668671D01*
X99461102Y-75416539D01*
X99674050Y-75328887D01*
X99857957Y-75250656D01*
X99999054Y-75187905D01*
X100083570Y-75146695D01*
X100101424Y-75134778D01*
X100096696Y-75081014D01*
X100061961Y-74985054D01*
X100049978Y-74958864D01*
X99980219Y-74812579D01*
X100176276Y-74537830D01*
X100268315Y-74404352D01*
X100337174Y-74295922D01*
X100370829Y-74231734D01*
X100372333Y-74224901D01*
X100344093Y-74179836D01*
X100268620Y-74091900D01*
X100159783Y-73976833D01*
X100106611Y-73923361D01*
X99984070Y-73805623D01*
X99882673Y-73715053D01*
X99818104Y-73665373D01*
X99805595Y-73660000D01*
X99756580Y-73682758D01*
X99657759Y-73743197D01*
X99528061Y-73829563D01*
X99490015Y-73855935D01*
X99209728Y-74051869D01*
X98976280Y-73972518D01*
X98835867Y-73917325D01*
X98721975Y-73859396D01*
X98675508Y-73825842D01*
X98636535Y-73752956D01*
X98595429Y-73622263D01*
X98560206Y-73460012D01*
X98555848Y-73434092D01*
X98503512Y-73109667D01*
X97674015Y-73109667D01*
X97624575Y-73374250D01*
X97594508Y-73534254D01*
X97567487Y-73676515D01*
X97552910Y-73752035D01*
X97491556Y-73862583D01*
X97416925Y-73906667D01*
X97299244Y-73952199D01*
X97163684Y-74008095D01*
X97150067Y-74013922D01*
X96996967Y-74079748D01*
X96699079Y-73869874D01*
X96560038Y-73774768D01*
X96446150Y-73702142D01*
X96375675Y-73663435D01*
X96364122Y-73660000D01*
X96318724Y-73688523D01*
X96233382Y-73762759D01*
X96125036Y-73865710D01*
X96010625Y-73980380D01*
X95907089Y-74089769D01*
X95831369Y-74176880D01*
X95800403Y-74224717D01*
X95800333Y-74225721D01*
X95822964Y-74273752D01*
X95883470Y-74373054D01*
X95970768Y-74505820D01*
X96014377Y-74569622D01*
X96228420Y-74879247D01*
X96125163Y-75124107D01*
X96069457Y-75247982D01*
X96014492Y-75331792D01*
X95941501Y-75387247D01*
X95831717Y-75426060D01*
X95666373Y-75459941D01*
X95556916Y-75478706D01*
X95250000Y-75530317D01*
X95250000Y-76360111D01*
X95618554Y-76428477D01*
G37*
X95618554Y-76428477D02*
X95786294Y-76462419D01*
X95920631Y-76494895D01*
X96000913Y-76520683D01*
X96013608Y-76528338D01*
X96042829Y-76582288D01*
X96090840Y-76689027D01*
X96132407Y-76788980D01*
X96224706Y-77018126D01*
X96012519Y-77325065D01*
X95917412Y-77466554D01*
X95844352Y-77582689D01*
X95804491Y-77655412D01*
X95800333Y-77668642D01*
X95828875Y-77714002D01*
X95903163Y-77799274D01*
X96006187Y-77907532D01*
X96120939Y-78021851D01*
X96230410Y-78125307D01*
X96317591Y-78200975D01*
X96365473Y-78231930D01*
X96366484Y-78232000D01*
X96414715Y-78209094D01*
X96513452Y-78147990D01*
X96644598Y-78060106D01*
X96699079Y-78022126D01*
X96996967Y-77812253D01*
X97150067Y-77878078D01*
X97283931Y-77933647D01*
X97406552Y-77981519D01*
X97416925Y-77985334D01*
X97520732Y-78062593D01*
X97552910Y-78139965D01*
X97572646Y-78242501D01*
X97600900Y-78391621D01*
X97624575Y-78517750D01*
X97674015Y-78782334D01*
X98503512Y-78782334D01*
X98555848Y-78457908D01*
X98589464Y-78293147D01*
X98630191Y-78155931D01*
X98670009Y-78072510D01*
X98675508Y-78066158D01*
X98751955Y-78015596D01*
X98877351Y-77956834D01*
X98976280Y-77919482D01*
X99209728Y-77840131D01*
X99490015Y-78036066D01*
X99625180Y-78127492D01*
X99735015Y-78196143D01*
X99800412Y-78230244D01*
X99807957Y-78232000D01*
X99853872Y-78203416D01*
X99939587Y-78129014D01*
X100048161Y-78025818D01*
X100162656Y-77910856D01*
X100266133Y-77801151D01*
X100341655Y-77713730D01*
X100372281Y-77665618D01*
X100372333Y-77664737D01*
X100349264Y-77615604D01*
X100288060Y-77517257D01*
X100200721Y-77388705D01*
X100176276Y-77354170D01*
X99980219Y-77079421D01*
X100049978Y-76933137D01*
X100090602Y-76831824D01*
X100103557Y-76764715D01*
X100101424Y-76757222D01*
X100057816Y-76731983D01*
X99949297Y-76681537D01*
X99789638Y-76611946D01*
X99592610Y-76529268D01*
X99461102Y-76475461D01*
X98839093Y-76223330D01*
X98710930Y-76383088D01*
X98517132Y-76567258D01*
X98298226Y-76673948D01*
X98063179Y-76701021D01*
X97820961Y-76646343D01*
X97746395Y-76612750D01*
X97548197Y-76471049D01*
X97413496Y-76288411D01*
X97342505Y-76080146D01*
X97335439Y-75861566D01*
X97392512Y-75647982D01*
X97513939Y-75454704D01*
X97699933Y-75297042D01*
X97727751Y-75280591D01*
X97952847Y-75198331D01*
X98185796Y-75194442D01*
X98412250Y-75265591D01*
X98617857Y-75408446D01*
X98710930Y-75508913D01*
X98839093Y-75668671D01*
X99461102Y-75416539D01*
X99674050Y-75328887D01*
X99857957Y-75250656D01*
X99999054Y-75187905D01*
X100083570Y-75146695D01*
X100101424Y-75134778D01*
X100096696Y-75081014D01*
X100061961Y-74985054D01*
X100049978Y-74958864D01*
X99980219Y-74812579D01*
X100176276Y-74537830D01*
X100268315Y-74404352D01*
X100337174Y-74295922D01*
X100370829Y-74231734D01*
X100372333Y-74224901D01*
X100344093Y-74179836D01*
X100268620Y-74091900D01*
X100159783Y-73976833D01*
X100106611Y-73923361D01*
X99984070Y-73805623D01*
X99882673Y-73715053D01*
X99818104Y-73665373D01*
X99805595Y-73660000D01*
X99756580Y-73682758D01*
X99657759Y-73743197D01*
X99528061Y-73829563D01*
X99490015Y-73855935D01*
X99209728Y-74051869D01*
X98976280Y-73972518D01*
X98835867Y-73917325D01*
X98721975Y-73859396D01*
X98675508Y-73825842D01*
X98636535Y-73752956D01*
X98595429Y-73622263D01*
X98560206Y-73460012D01*
X98555848Y-73434092D01*
X98503512Y-73109667D01*
X97674015Y-73109667D01*
X97624575Y-73374250D01*
X97594508Y-73534254D01*
X97567487Y-73676515D01*
X97552910Y-73752035D01*
X97491556Y-73862583D01*
X97416925Y-73906667D01*
X97299244Y-73952199D01*
X97163684Y-74008095D01*
X97150067Y-74013922D01*
X96996967Y-74079748D01*
X96699079Y-73869874D01*
X96560038Y-73774768D01*
X96446150Y-73702142D01*
X96375675Y-73663435D01*
X96364122Y-73660000D01*
X96318724Y-73688523D01*
X96233382Y-73762759D01*
X96125036Y-73865710D01*
X96010625Y-73980380D01*
X95907089Y-74089769D01*
X95831369Y-74176880D01*
X95800403Y-74224717D01*
X95800333Y-74225721D01*
X95822964Y-74273752D01*
X95883470Y-74373054D01*
X95970768Y-74505820D01*
X96014377Y-74569622D01*
X96228420Y-74879247D01*
X96125163Y-75124107D01*
X96069457Y-75247982D01*
X96014492Y-75331792D01*
X95941501Y-75387247D01*
X95831717Y-75426060D01*
X95666373Y-75459941D01*
X95556916Y-75478706D01*
X95250000Y-75530317D01*
X95250000Y-76360111D01*
X95618554Y-76428477D01*
%TO.C,JTAG*%
D10*
X66698666Y-88308380D02*
X66698666Y-89022666D01*
X66746285Y-89165523D01*
X66841523Y-89260761D01*
X66984380Y-89308380D01*
X67079619Y-89308380D01*
X66365333Y-88308380D02*
X65793904Y-88308380D01*
X66079619Y-89308380D02*
X66079619Y-88308380D01*
X65508190Y-89022666D02*
X65032000Y-89022666D01*
X65603428Y-89308380D02*
X65270095Y-88308380D01*
X64936761Y-89308380D01*
X64079619Y-88356000D02*
X64174857Y-88308380D01*
X64317714Y-88308380D01*
X64460571Y-88356000D01*
X64555809Y-88451238D01*
X64603428Y-88546476D01*
X64651047Y-88736952D01*
X64651047Y-88879809D01*
X64603428Y-89070285D01*
X64555809Y-89165523D01*
X64460571Y-89260761D01*
X64317714Y-89308380D01*
X64222476Y-89308380D01*
X64079619Y-89260761D01*
X64032000Y-89213142D01*
X64032000Y-88879809D01*
X64222476Y-88879809D01*
%TD*%
M02*
