%TF.GenerationSoftware,KiCad,Pcbnew,7.0.2-6a45011f42~172~ubuntu22.04.1*%
%TF.CreationDate,2023-05-07T23:46:40+02:00*%
%TF.ProjectId,mp3alarm,6d703361-6c61-4726-9d2e-6b696361645f,v0.2*%
%TF.SameCoordinates,Original*%
%TF.FileFunction,Legend,Bot*%
%TF.FilePolarity,Positive*%
%FSLAX46Y46*%
G04 Gerber Fmt 4.6, Leading zero omitted, Abs format (unit mm)*
G04 Created by KiCad (PCBNEW 7.0.2-6a45011f42~172~ubuntu22.04.1) date 2023-05-07 23:46:40*
%MOMM*%
%LPD*%
G01*
G04 APERTURE LIST*
%ADD10C,0.150000*%
%ADD11C,0.228600*%
%ADD12C,0.127000*%
%ADD13C,0.120000*%
G04 APERTURE END LIST*
D10*
X92225713Y-104094619D02*
X92225713Y-103094619D01*
X92225713Y-103094619D02*
X91654285Y-104094619D01*
X91654285Y-104094619D02*
X91654285Y-103094619D01*
X90606666Y-103999380D02*
X90654285Y-104047000D01*
X90654285Y-104047000D02*
X90797142Y-104094619D01*
X90797142Y-104094619D02*
X90892380Y-104094619D01*
X90892380Y-104094619D02*
X91035237Y-104047000D01*
X91035237Y-104047000D02*
X91130475Y-103951761D01*
X91130475Y-103951761D02*
X91178094Y-103856523D01*
X91178094Y-103856523D02*
X91225713Y-103666047D01*
X91225713Y-103666047D02*
X91225713Y-103523190D01*
X91225713Y-103523190D02*
X91178094Y-103332714D01*
X91178094Y-103332714D02*
X91130475Y-103237476D01*
X91130475Y-103237476D02*
X91035237Y-103142238D01*
X91035237Y-103142238D02*
X90892380Y-103094619D01*
X90892380Y-103094619D02*
X90797142Y-103094619D01*
X90797142Y-103094619D02*
X90654285Y-103142238D01*
X90654285Y-103142238D02*
X90606666Y-103189857D01*
X105917904Y-95522238D02*
X106013142Y-95474619D01*
X106013142Y-95474619D02*
X106155999Y-95474619D01*
X106155999Y-95474619D02*
X106298856Y-95522238D01*
X106298856Y-95522238D02*
X106394094Y-95617476D01*
X106394094Y-95617476D02*
X106441713Y-95712714D01*
X106441713Y-95712714D02*
X106489332Y-95903190D01*
X106489332Y-95903190D02*
X106489332Y-96046047D01*
X106489332Y-96046047D02*
X106441713Y-96236523D01*
X106441713Y-96236523D02*
X106394094Y-96331761D01*
X106394094Y-96331761D02*
X106298856Y-96427000D01*
X106298856Y-96427000D02*
X106155999Y-96474619D01*
X106155999Y-96474619D02*
X106060761Y-96474619D01*
X106060761Y-96474619D02*
X105917904Y-96427000D01*
X105917904Y-96427000D02*
X105870285Y-96379380D01*
X105870285Y-96379380D02*
X105870285Y-96046047D01*
X105870285Y-96046047D02*
X106060761Y-96046047D01*
X105441713Y-96474619D02*
X105441713Y-95474619D01*
X105441713Y-95474619D02*
X104870285Y-96474619D01*
X104870285Y-96474619D02*
X104870285Y-95474619D01*
X104394094Y-96474619D02*
X104394094Y-95474619D01*
X104394094Y-95474619D02*
X104155999Y-95474619D01*
X104155999Y-95474619D02*
X104013142Y-95522238D01*
X104013142Y-95522238D02*
X103917904Y-95617476D01*
X103917904Y-95617476D02*
X103870285Y-95712714D01*
X103870285Y-95712714D02*
X103822666Y-95903190D01*
X103822666Y-95903190D02*
X103822666Y-96046047D01*
X103822666Y-96046047D02*
X103870285Y-96236523D01*
X103870285Y-96236523D02*
X103917904Y-96331761D01*
X103917904Y-96331761D02*
X104013142Y-96427000D01*
X104013142Y-96427000D02*
X104155999Y-96474619D01*
X104155999Y-96474619D02*
X104394094Y-96474619D01*
D11*
X64391660Y-69136383D02*
X64391660Y-69813716D01*
X65456041Y-70104002D02*
X65456041Y-69136383D01*
X65456041Y-69136383D02*
X63424041Y-69136383D01*
X63424041Y-69136383D02*
X63424041Y-70104002D01*
X65359280Y-70878097D02*
X65456041Y-71168383D01*
X65456041Y-71168383D02*
X65456041Y-71652192D01*
X65456041Y-71652192D02*
X65359280Y-71845716D01*
X65359280Y-71845716D02*
X65262518Y-71942478D01*
X65262518Y-71942478D02*
X65068994Y-72039240D01*
X65068994Y-72039240D02*
X64875470Y-72039240D01*
X64875470Y-72039240D02*
X64681946Y-71942478D01*
X64681946Y-71942478D02*
X64585184Y-71845716D01*
X64585184Y-71845716D02*
X64488422Y-71652192D01*
X64488422Y-71652192D02*
X64391660Y-71265145D01*
X64391660Y-71265145D02*
X64294899Y-71071621D01*
X64294899Y-71071621D02*
X64198137Y-70974859D01*
X64198137Y-70974859D02*
X64004613Y-70878097D01*
X64004613Y-70878097D02*
X63811089Y-70878097D01*
X63811089Y-70878097D02*
X63617565Y-70974859D01*
X63617565Y-70974859D02*
X63520803Y-71071621D01*
X63520803Y-71071621D02*
X63424041Y-71265145D01*
X63424041Y-71265145D02*
X63424041Y-71748954D01*
X63424041Y-71748954D02*
X63520803Y-72039240D01*
X65456041Y-72910097D02*
X63424041Y-72910097D01*
X63424041Y-72910097D02*
X63424041Y-73684192D01*
X63424041Y-73684192D02*
X63520803Y-73877716D01*
X63520803Y-73877716D02*
X63617565Y-73974478D01*
X63617565Y-73974478D02*
X63811089Y-74071240D01*
X63811089Y-74071240D02*
X64101375Y-74071240D01*
X64101375Y-74071240D02*
X64294899Y-73974478D01*
X64294899Y-73974478D02*
X64391660Y-73877716D01*
X64391660Y-73877716D02*
X64488422Y-73684192D01*
X64488422Y-73684192D02*
X64488422Y-72910097D01*
X63424041Y-74748573D02*
X63424041Y-76006478D01*
X63424041Y-76006478D02*
X64198137Y-75329145D01*
X64198137Y-75329145D02*
X64198137Y-75619430D01*
X64198137Y-75619430D02*
X64294899Y-75812954D01*
X64294899Y-75812954D02*
X64391660Y-75909716D01*
X64391660Y-75909716D02*
X64585184Y-76006478D01*
X64585184Y-76006478D02*
X65068994Y-76006478D01*
X65068994Y-76006478D02*
X65262518Y-75909716D01*
X65262518Y-75909716D02*
X65359280Y-75812954D01*
X65359280Y-75812954D02*
X65456041Y-75619430D01*
X65456041Y-75619430D02*
X65456041Y-75038859D01*
X65456041Y-75038859D02*
X65359280Y-74845335D01*
X65359280Y-74845335D02*
X65262518Y-74748573D01*
X63617565Y-76780573D02*
X63520803Y-76877335D01*
X63520803Y-76877335D02*
X63424041Y-77070859D01*
X63424041Y-77070859D02*
X63424041Y-77554668D01*
X63424041Y-77554668D02*
X63520803Y-77748192D01*
X63520803Y-77748192D02*
X63617565Y-77844954D01*
X63617565Y-77844954D02*
X63811089Y-77941716D01*
X63811089Y-77941716D02*
X64004613Y-77941716D01*
X64004613Y-77941716D02*
X64294899Y-77844954D01*
X64294899Y-77844954D02*
X65456041Y-76683811D01*
X65456041Y-76683811D02*
X65456041Y-77941716D01*
X65456041Y-81231620D02*
X64391660Y-81231620D01*
X64391660Y-81231620D02*
X64198137Y-81134858D01*
X64198137Y-81134858D02*
X64101375Y-80941334D01*
X64101375Y-80941334D02*
X64101375Y-80554287D01*
X64101375Y-80554287D02*
X64198137Y-80360763D01*
X65359280Y-81231620D02*
X65456041Y-81038096D01*
X65456041Y-81038096D02*
X65456041Y-80554287D01*
X65456041Y-80554287D02*
X65359280Y-80360763D01*
X65359280Y-80360763D02*
X65165756Y-80264001D01*
X65165756Y-80264001D02*
X64972232Y-80264001D01*
X64972232Y-80264001D02*
X64778708Y-80360763D01*
X64778708Y-80360763D02*
X64681946Y-80554287D01*
X64681946Y-80554287D02*
X64681946Y-81038096D01*
X64681946Y-81038096D02*
X64585184Y-81231620D01*
X65456041Y-82489525D02*
X65359280Y-82296001D01*
X65359280Y-82296001D02*
X65165756Y-82199239D01*
X65165756Y-82199239D02*
X63424041Y-82199239D01*
X65456041Y-84134477D02*
X64391660Y-84134477D01*
X64391660Y-84134477D02*
X64198137Y-84037715D01*
X64198137Y-84037715D02*
X64101375Y-83844191D01*
X64101375Y-83844191D02*
X64101375Y-83457144D01*
X64101375Y-83457144D02*
X64198137Y-83263620D01*
X65359280Y-84134477D02*
X65456041Y-83940953D01*
X65456041Y-83940953D02*
X65456041Y-83457144D01*
X65456041Y-83457144D02*
X65359280Y-83263620D01*
X65359280Y-83263620D02*
X65165756Y-83166858D01*
X65165756Y-83166858D02*
X64972232Y-83166858D01*
X64972232Y-83166858D02*
X64778708Y-83263620D01*
X64778708Y-83263620D02*
X64681946Y-83457144D01*
X64681946Y-83457144D02*
X64681946Y-83940953D01*
X64681946Y-83940953D02*
X64585184Y-84134477D01*
X65456041Y-85102096D02*
X64101375Y-85102096D01*
X64488422Y-85102096D02*
X64294899Y-85198858D01*
X64294899Y-85198858D02*
X64198137Y-85295620D01*
X64198137Y-85295620D02*
X64101375Y-85489144D01*
X64101375Y-85489144D02*
X64101375Y-85682667D01*
X65456041Y-86360001D02*
X64101375Y-86360001D01*
X64294899Y-86360001D02*
X64198137Y-86456763D01*
X64198137Y-86456763D02*
X64101375Y-86650287D01*
X64101375Y-86650287D02*
X64101375Y-86940572D01*
X64101375Y-86940572D02*
X64198137Y-87134096D01*
X64198137Y-87134096D02*
X64391660Y-87230858D01*
X64391660Y-87230858D02*
X65456041Y-87230858D01*
X64391660Y-87230858D02*
X64198137Y-87327620D01*
X64198137Y-87327620D02*
X64101375Y-87521144D01*
X64101375Y-87521144D02*
X64101375Y-87811430D01*
X64101375Y-87811430D02*
X64198137Y-88004953D01*
X64198137Y-88004953D02*
X64391660Y-88101715D01*
X64391660Y-88101715D02*
X65456041Y-88101715D01*
X65359280Y-91488381D02*
X65456041Y-91294857D01*
X65456041Y-91294857D02*
X65456041Y-90907810D01*
X65456041Y-90907810D02*
X65359280Y-90714286D01*
X65359280Y-90714286D02*
X65262518Y-90617524D01*
X65262518Y-90617524D02*
X65068994Y-90520762D01*
X65068994Y-90520762D02*
X64488422Y-90520762D01*
X64488422Y-90520762D02*
X64294899Y-90617524D01*
X64294899Y-90617524D02*
X64198137Y-90714286D01*
X64198137Y-90714286D02*
X64101375Y-90907810D01*
X64101375Y-90907810D02*
X64101375Y-91294857D01*
X64101375Y-91294857D02*
X64198137Y-91488381D01*
X65456041Y-92649524D02*
X65359280Y-92456000D01*
X65359280Y-92456000D02*
X65165756Y-92359238D01*
X65165756Y-92359238D02*
X63424041Y-92359238D01*
X65456041Y-93713905D02*
X65359280Y-93520381D01*
X65359280Y-93520381D02*
X65262518Y-93423619D01*
X65262518Y-93423619D02*
X65068994Y-93326857D01*
X65068994Y-93326857D02*
X64488422Y-93326857D01*
X64488422Y-93326857D02*
X64294899Y-93423619D01*
X64294899Y-93423619D02*
X64198137Y-93520381D01*
X64198137Y-93520381D02*
X64101375Y-93713905D01*
X64101375Y-93713905D02*
X64101375Y-94004190D01*
X64101375Y-94004190D02*
X64198137Y-94197714D01*
X64198137Y-94197714D02*
X64294899Y-94294476D01*
X64294899Y-94294476D02*
X64488422Y-94391238D01*
X64488422Y-94391238D02*
X65068994Y-94391238D01*
X65068994Y-94391238D02*
X65262518Y-94294476D01*
X65262518Y-94294476D02*
X65359280Y-94197714D01*
X65359280Y-94197714D02*
X65456041Y-94004190D01*
X65456041Y-94004190D02*
X65456041Y-93713905D01*
X65359280Y-96132952D02*
X65456041Y-95939428D01*
X65456041Y-95939428D02*
X65456041Y-95552381D01*
X65456041Y-95552381D02*
X65359280Y-95358857D01*
X65359280Y-95358857D02*
X65262518Y-95262095D01*
X65262518Y-95262095D02*
X65068994Y-95165333D01*
X65068994Y-95165333D02*
X64488422Y-95165333D01*
X64488422Y-95165333D02*
X64294899Y-95262095D01*
X64294899Y-95262095D02*
X64198137Y-95358857D01*
X64198137Y-95358857D02*
X64101375Y-95552381D01*
X64101375Y-95552381D02*
X64101375Y-95939428D01*
X64101375Y-95939428D02*
X64198137Y-96132952D01*
X65456041Y-97003809D02*
X63424041Y-97003809D01*
X64681946Y-97197333D02*
X65456041Y-97777904D01*
X64101375Y-97777904D02*
X64875470Y-97003809D01*
X64101375Y-100003427D02*
X65456041Y-100487237D01*
X65456041Y-100487237D02*
X64101375Y-100971046D01*
X63424041Y-102132189D02*
X63424041Y-102325712D01*
X63424041Y-102325712D02*
X63520803Y-102519236D01*
X63520803Y-102519236D02*
X63617565Y-102615998D01*
X63617565Y-102615998D02*
X63811089Y-102712760D01*
X63811089Y-102712760D02*
X64198137Y-102809522D01*
X64198137Y-102809522D02*
X64681946Y-102809522D01*
X64681946Y-102809522D02*
X65068994Y-102712760D01*
X65068994Y-102712760D02*
X65262518Y-102615998D01*
X65262518Y-102615998D02*
X65359280Y-102519236D01*
X65359280Y-102519236D02*
X65456041Y-102325712D01*
X65456041Y-102325712D02*
X65456041Y-102132189D01*
X65456041Y-102132189D02*
X65359280Y-101938665D01*
X65359280Y-101938665D02*
X65262518Y-101841903D01*
X65262518Y-101841903D02*
X65068994Y-101745141D01*
X65068994Y-101745141D02*
X64681946Y-101648379D01*
X64681946Y-101648379D02*
X64198137Y-101648379D01*
X64198137Y-101648379D02*
X63811089Y-101745141D01*
X63811089Y-101745141D02*
X63617565Y-101841903D01*
X63617565Y-101841903D02*
X63520803Y-101938665D01*
X63520803Y-101938665D02*
X63424041Y-102132189D01*
X65262518Y-103680379D02*
X65359280Y-103777141D01*
X65359280Y-103777141D02*
X65456041Y-103680379D01*
X65456041Y-103680379D02*
X65359280Y-103583617D01*
X65359280Y-103583617D02*
X65262518Y-103680379D01*
X65262518Y-103680379D02*
X65456041Y-103680379D01*
X63424041Y-105615617D02*
X63424041Y-104647998D01*
X63424041Y-104647998D02*
X64391660Y-104551236D01*
X64391660Y-104551236D02*
X64294899Y-104647998D01*
X64294899Y-104647998D02*
X64198137Y-104841522D01*
X64198137Y-104841522D02*
X64198137Y-105325331D01*
X64198137Y-105325331D02*
X64294899Y-105518855D01*
X64294899Y-105518855D02*
X64391660Y-105615617D01*
X64391660Y-105615617D02*
X64585184Y-105712379D01*
X64585184Y-105712379D02*
X65068994Y-105712379D01*
X65068994Y-105712379D02*
X65262518Y-105615617D01*
X65262518Y-105615617D02*
X65359280Y-105518855D01*
X65359280Y-105518855D02*
X65456041Y-105325331D01*
X65456041Y-105325331D02*
X65456041Y-104841522D01*
X65456041Y-104841522D02*
X65359280Y-104647998D01*
X65359280Y-104647998D02*
X65262518Y-104551236D01*
D10*
X92265332Y-92934619D02*
X91693904Y-92934619D01*
X91979618Y-93934619D02*
X91979618Y-92934619D01*
X91360570Y-93934619D02*
X91360570Y-92934619D01*
X91360570Y-92934619D02*
X91027237Y-93648904D01*
X91027237Y-93648904D02*
X90693904Y-92934619D01*
X90693904Y-92934619D02*
X90693904Y-93934619D01*
X90265332Y-93887000D02*
X90122475Y-93934619D01*
X90122475Y-93934619D02*
X89884380Y-93934619D01*
X89884380Y-93934619D02*
X89789142Y-93887000D01*
X89789142Y-93887000D02*
X89741523Y-93839380D01*
X89741523Y-93839380D02*
X89693904Y-93744142D01*
X89693904Y-93744142D02*
X89693904Y-93648904D01*
X89693904Y-93648904D02*
X89741523Y-93553666D01*
X89741523Y-93553666D02*
X89789142Y-93506047D01*
X89789142Y-93506047D02*
X89884380Y-93458428D01*
X89884380Y-93458428D02*
X90074856Y-93410809D01*
X90074856Y-93410809D02*
X90170094Y-93363190D01*
X90170094Y-93363190D02*
X90217713Y-93315571D01*
X90217713Y-93315571D02*
X90265332Y-93220333D01*
X90265332Y-93220333D02*
X90265332Y-93125095D01*
X90265332Y-93125095D02*
X90217713Y-93029857D01*
X90217713Y-93029857D02*
X90170094Y-92982238D01*
X90170094Y-92982238D02*
X90074856Y-92934619D01*
X90074856Y-92934619D02*
X89836761Y-92934619D01*
X89836761Y-92934619D02*
X89693904Y-92982238D01*
X92217713Y-95728619D02*
X91646285Y-95728619D01*
X91931999Y-96728619D02*
X91931999Y-95728619D01*
X90741523Y-96633380D02*
X90789142Y-96681000D01*
X90789142Y-96681000D02*
X90931999Y-96728619D01*
X90931999Y-96728619D02*
X91027237Y-96728619D01*
X91027237Y-96728619D02*
X91170094Y-96681000D01*
X91170094Y-96681000D02*
X91265332Y-96585761D01*
X91265332Y-96585761D02*
X91312951Y-96490523D01*
X91312951Y-96490523D02*
X91360570Y-96300047D01*
X91360570Y-96300047D02*
X91360570Y-96157190D01*
X91360570Y-96157190D02*
X91312951Y-95966714D01*
X91312951Y-95966714D02*
X91265332Y-95871476D01*
X91265332Y-95871476D02*
X91170094Y-95776238D01*
X91170094Y-95776238D02*
X91027237Y-95728619D01*
X91027237Y-95728619D02*
X90931999Y-95728619D01*
X90931999Y-95728619D02*
X90789142Y-95776238D01*
X90789142Y-95776238D02*
X90741523Y-95823857D01*
X90312951Y-96728619D02*
X90312951Y-95728619D01*
X89741523Y-96728619D02*
X90170094Y-96157190D01*
X89741523Y-95728619D02*
X90312951Y-96300047D01*
X105917904Y-100856238D02*
X106013142Y-100808619D01*
X106013142Y-100808619D02*
X106155999Y-100808619D01*
X106155999Y-100808619D02*
X106298856Y-100856238D01*
X106298856Y-100856238D02*
X106394094Y-100951476D01*
X106394094Y-100951476D02*
X106441713Y-101046714D01*
X106441713Y-101046714D02*
X106489332Y-101237190D01*
X106489332Y-101237190D02*
X106489332Y-101380047D01*
X106489332Y-101380047D02*
X106441713Y-101570523D01*
X106441713Y-101570523D02*
X106394094Y-101665761D01*
X106394094Y-101665761D02*
X106298856Y-101761000D01*
X106298856Y-101761000D02*
X106155999Y-101808619D01*
X106155999Y-101808619D02*
X106060761Y-101808619D01*
X106060761Y-101808619D02*
X105917904Y-101761000D01*
X105917904Y-101761000D02*
X105870285Y-101713380D01*
X105870285Y-101713380D02*
X105870285Y-101380047D01*
X105870285Y-101380047D02*
X106060761Y-101380047D01*
X105441713Y-101808619D02*
X105441713Y-100808619D01*
X105441713Y-100808619D02*
X104870285Y-101808619D01*
X104870285Y-101808619D02*
X104870285Y-100808619D01*
X104394094Y-101808619D02*
X104394094Y-100808619D01*
X104394094Y-100808619D02*
X104155999Y-100808619D01*
X104155999Y-100808619D02*
X104013142Y-100856238D01*
X104013142Y-100856238D02*
X103917904Y-100951476D01*
X103917904Y-100951476D02*
X103870285Y-101046714D01*
X103870285Y-101046714D02*
X103822666Y-101237190D01*
X103822666Y-101237190D02*
X103822666Y-101380047D01*
X103822666Y-101380047D02*
X103870285Y-101570523D01*
X103870285Y-101570523D02*
X103917904Y-101665761D01*
X103917904Y-101665761D02*
X104013142Y-101761000D01*
X104013142Y-101761000D02*
X104155999Y-101808619D01*
X104155999Y-101808619D02*
X104394094Y-101808619D01*
X92209808Y-100554619D02*
X91638380Y-100554619D01*
X91924094Y-101554619D02*
X91924094Y-100554619D01*
X91305046Y-101554619D02*
X91305046Y-100554619D01*
X91305046Y-100554619D02*
X91066951Y-100554619D01*
X91066951Y-100554619D02*
X90924094Y-100602238D01*
X90924094Y-100602238D02*
X90828856Y-100697476D01*
X90828856Y-100697476D02*
X90781237Y-100792714D01*
X90781237Y-100792714D02*
X90733618Y-100983190D01*
X90733618Y-100983190D02*
X90733618Y-101126047D01*
X90733618Y-101126047D02*
X90781237Y-101316523D01*
X90781237Y-101316523D02*
X90828856Y-101411761D01*
X90828856Y-101411761D02*
X90924094Y-101507000D01*
X90924094Y-101507000D02*
X91066951Y-101554619D01*
X91066951Y-101554619D02*
X91305046Y-101554619D01*
X90305046Y-101554619D02*
X90305046Y-100554619D01*
D12*
X67154515Y-72770995D02*
X66392515Y-72770995D01*
X67154515Y-73097567D02*
X66755372Y-73097567D01*
X66755372Y-73097567D02*
X66682801Y-73061281D01*
X66682801Y-73061281D02*
X66646515Y-72988709D01*
X66646515Y-72988709D02*
X66646515Y-72879852D01*
X66646515Y-72879852D02*
X66682801Y-72807281D01*
X66682801Y-72807281D02*
X66719087Y-72770995D01*
X66646515Y-73351567D02*
X66646515Y-73641853D01*
X66392515Y-73460424D02*
X67045658Y-73460424D01*
X67045658Y-73460424D02*
X67118230Y-73496710D01*
X67118230Y-73496710D02*
X67154515Y-73569281D01*
X67154515Y-73569281D02*
X67154515Y-73641853D01*
X66646515Y-73786996D02*
X66646515Y-74077282D01*
X66392515Y-73895853D02*
X67045658Y-73895853D01*
X67045658Y-73895853D02*
X67118230Y-73932139D01*
X67118230Y-73932139D02*
X67154515Y-74004710D01*
X67154515Y-74004710D02*
X67154515Y-74077282D01*
X66646515Y-74331282D02*
X67408515Y-74331282D01*
X66682801Y-74331282D02*
X66646515Y-74403854D01*
X66646515Y-74403854D02*
X66646515Y-74548996D01*
X66646515Y-74548996D02*
X66682801Y-74621568D01*
X66682801Y-74621568D02*
X66719087Y-74657854D01*
X66719087Y-74657854D02*
X66791658Y-74694139D01*
X66791658Y-74694139D02*
X67009372Y-74694139D01*
X67009372Y-74694139D02*
X67081944Y-74657854D01*
X67081944Y-74657854D02*
X67118230Y-74621568D01*
X67118230Y-74621568D02*
X67154515Y-74548996D01*
X67154515Y-74548996D02*
X67154515Y-74403854D01*
X67154515Y-74403854D02*
X67118230Y-74331282D01*
X67118230Y-74984425D02*
X67154515Y-75056997D01*
X67154515Y-75056997D02*
X67154515Y-75202140D01*
X67154515Y-75202140D02*
X67118230Y-75274711D01*
X67118230Y-75274711D02*
X67045658Y-75310997D01*
X67045658Y-75310997D02*
X67009372Y-75310997D01*
X67009372Y-75310997D02*
X66936801Y-75274711D01*
X66936801Y-75274711D02*
X66900515Y-75202140D01*
X66900515Y-75202140D02*
X66900515Y-75093283D01*
X66900515Y-75093283D02*
X66864230Y-75020711D01*
X66864230Y-75020711D02*
X66791658Y-74984425D01*
X66791658Y-74984425D02*
X66755372Y-74984425D01*
X66755372Y-74984425D02*
X66682801Y-75020711D01*
X66682801Y-75020711D02*
X66646515Y-75093283D01*
X66646515Y-75093283D02*
X66646515Y-75202140D01*
X66646515Y-75202140D02*
X66682801Y-75274711D01*
X67081944Y-75637568D02*
X67118230Y-75673854D01*
X67118230Y-75673854D02*
X67154515Y-75637568D01*
X67154515Y-75637568D02*
X67118230Y-75601282D01*
X67118230Y-75601282D02*
X67081944Y-75637568D01*
X67081944Y-75637568D02*
X67154515Y-75637568D01*
X66682801Y-75637568D02*
X66719087Y-75673854D01*
X66719087Y-75673854D02*
X66755372Y-75637568D01*
X66755372Y-75637568D02*
X66719087Y-75601282D01*
X66719087Y-75601282D02*
X66682801Y-75637568D01*
X66682801Y-75637568D02*
X66755372Y-75637568D01*
X66356230Y-76544711D02*
X67335944Y-75891568D01*
X66356230Y-77342997D02*
X67335944Y-76689854D01*
X66646515Y-77923569D02*
X67263372Y-77923569D01*
X67263372Y-77923569D02*
X67335944Y-77887283D01*
X67335944Y-77887283D02*
X67372230Y-77850997D01*
X67372230Y-77850997D02*
X67408515Y-77778426D01*
X67408515Y-77778426D02*
X67408515Y-77669569D01*
X67408515Y-77669569D02*
X67372230Y-77596997D01*
X67118230Y-77923569D02*
X67154515Y-77850997D01*
X67154515Y-77850997D02*
X67154515Y-77705854D01*
X67154515Y-77705854D02*
X67118230Y-77633283D01*
X67118230Y-77633283D02*
X67081944Y-77596997D01*
X67081944Y-77596997D02*
X67009372Y-77560711D01*
X67009372Y-77560711D02*
X66791658Y-77560711D01*
X66791658Y-77560711D02*
X66719087Y-77596997D01*
X66719087Y-77596997D02*
X66682801Y-77633283D01*
X66682801Y-77633283D02*
X66646515Y-77705854D01*
X66646515Y-77705854D02*
X66646515Y-77850997D01*
X66646515Y-77850997D02*
X66682801Y-77923569D01*
X67154515Y-78286426D02*
X66646515Y-78286426D01*
X66392515Y-78286426D02*
X66428801Y-78250140D01*
X66428801Y-78250140D02*
X66465087Y-78286426D01*
X66465087Y-78286426D02*
X66428801Y-78322712D01*
X66428801Y-78322712D02*
X66392515Y-78286426D01*
X66392515Y-78286426D02*
X66465087Y-78286426D01*
X66646515Y-78540426D02*
X66646515Y-78830712D01*
X66392515Y-78649283D02*
X67045658Y-78649283D01*
X67045658Y-78649283D02*
X67118230Y-78685569D01*
X67118230Y-78685569D02*
X67154515Y-78758140D01*
X67154515Y-78758140D02*
X67154515Y-78830712D01*
X67154515Y-79084712D02*
X66392515Y-79084712D01*
X67154515Y-79411284D02*
X66755372Y-79411284D01*
X66755372Y-79411284D02*
X66682801Y-79374998D01*
X66682801Y-79374998D02*
X66646515Y-79302426D01*
X66646515Y-79302426D02*
X66646515Y-79193569D01*
X66646515Y-79193569D02*
X66682801Y-79120998D01*
X66682801Y-79120998D02*
X66719087Y-79084712D01*
X66646515Y-80100713D02*
X67154515Y-80100713D01*
X66646515Y-79774141D02*
X67045658Y-79774141D01*
X67045658Y-79774141D02*
X67118230Y-79810427D01*
X67118230Y-79810427D02*
X67154515Y-79882998D01*
X67154515Y-79882998D02*
X67154515Y-79991855D01*
X67154515Y-79991855D02*
X67118230Y-80064427D01*
X67118230Y-80064427D02*
X67081944Y-80100713D01*
X67154515Y-80463570D02*
X66392515Y-80463570D01*
X66682801Y-80463570D02*
X66646515Y-80536142D01*
X66646515Y-80536142D02*
X66646515Y-80681284D01*
X66646515Y-80681284D02*
X66682801Y-80753856D01*
X66682801Y-80753856D02*
X66719087Y-80790142D01*
X66719087Y-80790142D02*
X66791658Y-80826427D01*
X66791658Y-80826427D02*
X67009372Y-80826427D01*
X67009372Y-80826427D02*
X67081944Y-80790142D01*
X67081944Y-80790142D02*
X67118230Y-80753856D01*
X67118230Y-80753856D02*
X67154515Y-80681284D01*
X67154515Y-80681284D02*
X67154515Y-80536142D01*
X67154515Y-80536142D02*
X67118230Y-80463570D01*
X67081944Y-81152999D02*
X67118230Y-81189285D01*
X67118230Y-81189285D02*
X67154515Y-81152999D01*
X67154515Y-81152999D02*
X67118230Y-81116713D01*
X67118230Y-81116713D02*
X67081944Y-81152999D01*
X67081944Y-81152999D02*
X67154515Y-81152999D01*
X67118230Y-81842428D02*
X67154515Y-81769856D01*
X67154515Y-81769856D02*
X67154515Y-81624713D01*
X67154515Y-81624713D02*
X67118230Y-81552142D01*
X67118230Y-81552142D02*
X67081944Y-81515856D01*
X67081944Y-81515856D02*
X67009372Y-81479570D01*
X67009372Y-81479570D02*
X66791658Y-81479570D01*
X66791658Y-81479570D02*
X66719087Y-81515856D01*
X66719087Y-81515856D02*
X66682801Y-81552142D01*
X66682801Y-81552142D02*
X66646515Y-81624713D01*
X66646515Y-81624713D02*
X66646515Y-81769856D01*
X66646515Y-81769856D02*
X66682801Y-81842428D01*
X67154515Y-82277856D02*
X67118230Y-82205285D01*
X67118230Y-82205285D02*
X67081944Y-82168999D01*
X67081944Y-82168999D02*
X67009372Y-82132713D01*
X67009372Y-82132713D02*
X66791658Y-82132713D01*
X66791658Y-82132713D02*
X66719087Y-82168999D01*
X66719087Y-82168999D02*
X66682801Y-82205285D01*
X66682801Y-82205285D02*
X66646515Y-82277856D01*
X66646515Y-82277856D02*
X66646515Y-82386713D01*
X66646515Y-82386713D02*
X66682801Y-82459285D01*
X66682801Y-82459285D02*
X66719087Y-82495571D01*
X66719087Y-82495571D02*
X66791658Y-82531856D01*
X66791658Y-82531856D02*
X67009372Y-82531856D01*
X67009372Y-82531856D02*
X67081944Y-82495571D01*
X67081944Y-82495571D02*
X67118230Y-82459285D01*
X67118230Y-82459285D02*
X67154515Y-82386713D01*
X67154515Y-82386713D02*
X67154515Y-82277856D01*
X67154515Y-82858428D02*
X66646515Y-82858428D01*
X66719087Y-82858428D02*
X66682801Y-82894714D01*
X66682801Y-82894714D02*
X66646515Y-82967285D01*
X66646515Y-82967285D02*
X66646515Y-83076142D01*
X66646515Y-83076142D02*
X66682801Y-83148714D01*
X66682801Y-83148714D02*
X66755372Y-83185000D01*
X66755372Y-83185000D02*
X67154515Y-83185000D01*
X66755372Y-83185000D02*
X66682801Y-83221285D01*
X66682801Y-83221285D02*
X66646515Y-83293857D01*
X66646515Y-83293857D02*
X66646515Y-83402714D01*
X66646515Y-83402714D02*
X66682801Y-83475285D01*
X66682801Y-83475285D02*
X66755372Y-83511571D01*
X66755372Y-83511571D02*
X67154515Y-83511571D01*
X66356230Y-84418714D02*
X67335944Y-83765571D01*
X66646515Y-84563857D02*
X66646515Y-84854143D01*
X67154515Y-84672714D02*
X66501372Y-84672714D01*
X66501372Y-84672714D02*
X66428801Y-84709000D01*
X66428801Y-84709000D02*
X66392515Y-84781571D01*
X66392515Y-84781571D02*
X66392515Y-84854143D01*
X67118230Y-85398429D02*
X67154515Y-85325857D01*
X67154515Y-85325857D02*
X67154515Y-85180715D01*
X67154515Y-85180715D02*
X67118230Y-85108143D01*
X67118230Y-85108143D02*
X67045658Y-85071857D01*
X67045658Y-85071857D02*
X66755372Y-85071857D01*
X66755372Y-85071857D02*
X66682801Y-85108143D01*
X66682801Y-85108143D02*
X66646515Y-85180715D01*
X66646515Y-85180715D02*
X66646515Y-85325857D01*
X66646515Y-85325857D02*
X66682801Y-85398429D01*
X66682801Y-85398429D02*
X66755372Y-85434715D01*
X66755372Y-85434715D02*
X66827944Y-85434715D01*
X66827944Y-85434715D02*
X66900515Y-85071857D01*
X67154515Y-85761286D02*
X66392515Y-85761286D01*
X67154515Y-86087858D02*
X66755372Y-86087858D01*
X66755372Y-86087858D02*
X66682801Y-86051572D01*
X66682801Y-86051572D02*
X66646515Y-85979000D01*
X66646515Y-85979000D02*
X66646515Y-85870143D01*
X66646515Y-85870143D02*
X66682801Y-85797572D01*
X66682801Y-85797572D02*
X66719087Y-85761286D01*
X67154515Y-86559572D02*
X67118230Y-86487001D01*
X67118230Y-86487001D02*
X67045658Y-86450715D01*
X67045658Y-86450715D02*
X66392515Y-86450715D01*
X66646515Y-86741001D02*
X66646515Y-87031287D01*
X67154515Y-86849858D02*
X66501372Y-86849858D01*
X66501372Y-86849858D02*
X66428801Y-86886144D01*
X66428801Y-86886144D02*
X66392515Y-86958715D01*
X66392515Y-86958715D02*
X66392515Y-87031287D01*
X67154515Y-87611859D02*
X66755372Y-87611859D01*
X66755372Y-87611859D02*
X66682801Y-87575573D01*
X66682801Y-87575573D02*
X66646515Y-87503001D01*
X66646515Y-87503001D02*
X66646515Y-87357859D01*
X66646515Y-87357859D02*
X66682801Y-87285287D01*
X67118230Y-87611859D02*
X67154515Y-87539287D01*
X67154515Y-87539287D02*
X67154515Y-87357859D01*
X67154515Y-87357859D02*
X67118230Y-87285287D01*
X67118230Y-87285287D02*
X67045658Y-87249001D01*
X67045658Y-87249001D02*
X66973087Y-87249001D01*
X66973087Y-87249001D02*
X66900515Y-87285287D01*
X66900515Y-87285287D02*
X66864230Y-87357859D01*
X66864230Y-87357859D02*
X66864230Y-87539287D01*
X66864230Y-87539287D02*
X66827944Y-87611859D01*
X67154515Y-87974716D02*
X66646515Y-87974716D01*
X66791658Y-87974716D02*
X66719087Y-88011002D01*
X66719087Y-88011002D02*
X66682801Y-88047288D01*
X66682801Y-88047288D02*
X66646515Y-88119859D01*
X66646515Y-88119859D02*
X66646515Y-88192430D01*
X67154515Y-88446430D02*
X66392515Y-88446430D01*
X66682801Y-88446430D02*
X66646515Y-88519002D01*
X66646515Y-88519002D02*
X66646515Y-88664144D01*
X66646515Y-88664144D02*
X66682801Y-88736716D01*
X66682801Y-88736716D02*
X66719087Y-88773002D01*
X66719087Y-88773002D02*
X66791658Y-88809287D01*
X66791658Y-88809287D02*
X67009372Y-88809287D01*
X67009372Y-88809287D02*
X67081944Y-88773002D01*
X67081944Y-88773002D02*
X67118230Y-88736716D01*
X67118230Y-88736716D02*
X67154515Y-88664144D01*
X67154515Y-88664144D02*
X67154515Y-88519002D01*
X67154515Y-88519002D02*
X67118230Y-88446430D01*
X67118230Y-89426145D02*
X67154515Y-89353573D01*
X67154515Y-89353573D02*
X67154515Y-89208431D01*
X67154515Y-89208431D02*
X67118230Y-89135859D01*
X67118230Y-89135859D02*
X67045658Y-89099573D01*
X67045658Y-89099573D02*
X66755372Y-89099573D01*
X66755372Y-89099573D02*
X66682801Y-89135859D01*
X66682801Y-89135859D02*
X66646515Y-89208431D01*
X66646515Y-89208431D02*
X66646515Y-89353573D01*
X66646515Y-89353573D02*
X66682801Y-89426145D01*
X66682801Y-89426145D02*
X66755372Y-89462431D01*
X66755372Y-89462431D02*
X66827944Y-89462431D01*
X66827944Y-89462431D02*
X66900515Y-89099573D01*
X66356230Y-90333288D02*
X67335944Y-89680145D01*
X66755372Y-90587288D02*
X66755372Y-90841288D01*
X67154515Y-90950145D02*
X67154515Y-90587288D01*
X67154515Y-90587288D02*
X66392515Y-90587288D01*
X66392515Y-90587288D02*
X66392515Y-90950145D01*
X67118230Y-91240431D02*
X67154515Y-91349289D01*
X67154515Y-91349289D02*
X67154515Y-91530717D01*
X67154515Y-91530717D02*
X67118230Y-91603289D01*
X67118230Y-91603289D02*
X67081944Y-91639574D01*
X67081944Y-91639574D02*
X67009372Y-91675860D01*
X67009372Y-91675860D02*
X66936801Y-91675860D01*
X66936801Y-91675860D02*
X66864230Y-91639574D01*
X66864230Y-91639574D02*
X66827944Y-91603289D01*
X66827944Y-91603289D02*
X66791658Y-91530717D01*
X66791658Y-91530717D02*
X66755372Y-91385574D01*
X66755372Y-91385574D02*
X66719087Y-91313003D01*
X66719087Y-91313003D02*
X66682801Y-91276717D01*
X66682801Y-91276717D02*
X66610230Y-91240431D01*
X66610230Y-91240431D02*
X66537658Y-91240431D01*
X66537658Y-91240431D02*
X66465087Y-91276717D01*
X66465087Y-91276717D02*
X66428801Y-91313003D01*
X66428801Y-91313003D02*
X66392515Y-91385574D01*
X66392515Y-91385574D02*
X66392515Y-91567003D01*
X66392515Y-91567003D02*
X66428801Y-91675860D01*
X67154515Y-92002431D02*
X66392515Y-92002431D01*
X66392515Y-92002431D02*
X66392515Y-92292717D01*
X66392515Y-92292717D02*
X66428801Y-92365288D01*
X66428801Y-92365288D02*
X66465087Y-92401574D01*
X66465087Y-92401574D02*
X66537658Y-92437860D01*
X66537658Y-92437860D02*
X66646515Y-92437860D01*
X66646515Y-92437860D02*
X66719087Y-92401574D01*
X66719087Y-92401574D02*
X66755372Y-92365288D01*
X66755372Y-92365288D02*
X66791658Y-92292717D01*
X66791658Y-92292717D02*
X66791658Y-92002431D01*
X66392515Y-92691860D02*
X66392515Y-93163574D01*
X66392515Y-93163574D02*
X66682801Y-92909574D01*
X66682801Y-92909574D02*
X66682801Y-93018431D01*
X66682801Y-93018431D02*
X66719087Y-93091003D01*
X66719087Y-93091003D02*
X66755372Y-93127288D01*
X66755372Y-93127288D02*
X66827944Y-93163574D01*
X66827944Y-93163574D02*
X67009372Y-93163574D01*
X67009372Y-93163574D02*
X67081944Y-93127288D01*
X67081944Y-93127288D02*
X67118230Y-93091003D01*
X67118230Y-93091003D02*
X67154515Y-93018431D01*
X67154515Y-93018431D02*
X67154515Y-92800717D01*
X67154515Y-92800717D02*
X67118230Y-92728145D01*
X67118230Y-92728145D02*
X67081944Y-92691860D01*
X66465087Y-93453859D02*
X66428801Y-93490145D01*
X66428801Y-93490145D02*
X66392515Y-93562717D01*
X66392515Y-93562717D02*
X66392515Y-93744145D01*
X66392515Y-93744145D02*
X66428801Y-93816717D01*
X66428801Y-93816717D02*
X66465087Y-93853002D01*
X66465087Y-93853002D02*
X66537658Y-93889288D01*
X66537658Y-93889288D02*
X66610230Y-93889288D01*
X66610230Y-93889288D02*
X66719087Y-93853002D01*
X66719087Y-93853002D02*
X67154515Y-93417574D01*
X67154515Y-93417574D02*
X67154515Y-93889288D01*
X66864230Y-94215859D02*
X66864230Y-94796431D01*
X66936801Y-95123002D02*
X66936801Y-95485860D01*
X67154515Y-95050431D02*
X66392515Y-95304431D01*
X66392515Y-95304431D02*
X67154515Y-95558431D01*
X67154515Y-95921288D02*
X67118230Y-95848717D01*
X67118230Y-95848717D02*
X67045658Y-95812431D01*
X67045658Y-95812431D02*
X66392515Y-95812431D01*
X67154515Y-96538146D02*
X66755372Y-96538146D01*
X66755372Y-96538146D02*
X66682801Y-96501860D01*
X66682801Y-96501860D02*
X66646515Y-96429288D01*
X66646515Y-96429288D02*
X66646515Y-96284146D01*
X66646515Y-96284146D02*
X66682801Y-96211574D01*
X67118230Y-96538146D02*
X67154515Y-96465574D01*
X67154515Y-96465574D02*
X67154515Y-96284146D01*
X67154515Y-96284146D02*
X67118230Y-96211574D01*
X67118230Y-96211574D02*
X67045658Y-96175288D01*
X67045658Y-96175288D02*
X66973087Y-96175288D01*
X66973087Y-96175288D02*
X66900515Y-96211574D01*
X66900515Y-96211574D02*
X66864230Y-96284146D01*
X66864230Y-96284146D02*
X66864230Y-96465574D01*
X66864230Y-96465574D02*
X66827944Y-96538146D01*
X67154515Y-96901003D02*
X66646515Y-96901003D01*
X66791658Y-96901003D02*
X66719087Y-96937289D01*
X66719087Y-96937289D02*
X66682801Y-96973575D01*
X66682801Y-96973575D02*
X66646515Y-97046146D01*
X66646515Y-97046146D02*
X66646515Y-97118717D01*
X67154515Y-97372717D02*
X66646515Y-97372717D01*
X66719087Y-97372717D02*
X66682801Y-97409003D01*
X66682801Y-97409003D02*
X66646515Y-97481574D01*
X66646515Y-97481574D02*
X66646515Y-97590431D01*
X66646515Y-97590431D02*
X66682801Y-97663003D01*
X66682801Y-97663003D02*
X66755372Y-97699289D01*
X66755372Y-97699289D02*
X67154515Y-97699289D01*
X66755372Y-97699289D02*
X66682801Y-97735574D01*
X66682801Y-97735574D02*
X66646515Y-97808146D01*
X66646515Y-97808146D02*
X66646515Y-97917003D01*
X66646515Y-97917003D02*
X66682801Y-97989574D01*
X66682801Y-97989574D02*
X66755372Y-98025860D01*
X66755372Y-98025860D02*
X67154515Y-98025860D01*
X66864230Y-98388717D02*
X66864230Y-98969289D01*
X67118230Y-99658718D02*
X67154515Y-99586146D01*
X67154515Y-99586146D02*
X67154515Y-99441003D01*
X67154515Y-99441003D02*
X67118230Y-99368432D01*
X67118230Y-99368432D02*
X67081944Y-99332146D01*
X67081944Y-99332146D02*
X67009372Y-99295860D01*
X67009372Y-99295860D02*
X66791658Y-99295860D01*
X66791658Y-99295860D02*
X66719087Y-99332146D01*
X66719087Y-99332146D02*
X66682801Y-99368432D01*
X66682801Y-99368432D02*
X66646515Y-99441003D01*
X66646515Y-99441003D02*
X66646515Y-99586146D01*
X66646515Y-99586146D02*
X66682801Y-99658718D01*
X67154515Y-100094146D02*
X67118230Y-100021575D01*
X67118230Y-100021575D02*
X67045658Y-99985289D01*
X67045658Y-99985289D02*
X66392515Y-99985289D01*
X67154515Y-100493289D02*
X67118230Y-100420718D01*
X67118230Y-100420718D02*
X67081944Y-100384432D01*
X67081944Y-100384432D02*
X67009372Y-100348146D01*
X67009372Y-100348146D02*
X66791658Y-100348146D01*
X66791658Y-100348146D02*
X66719087Y-100384432D01*
X66719087Y-100384432D02*
X66682801Y-100420718D01*
X66682801Y-100420718D02*
X66646515Y-100493289D01*
X66646515Y-100493289D02*
X66646515Y-100602146D01*
X66646515Y-100602146D02*
X66682801Y-100674718D01*
X66682801Y-100674718D02*
X66719087Y-100711004D01*
X66719087Y-100711004D02*
X66791658Y-100747289D01*
X66791658Y-100747289D02*
X67009372Y-100747289D01*
X67009372Y-100747289D02*
X67081944Y-100711004D01*
X67081944Y-100711004D02*
X67118230Y-100674718D01*
X67118230Y-100674718D02*
X67154515Y-100602146D01*
X67154515Y-100602146D02*
X67154515Y-100493289D01*
X67118230Y-101400433D02*
X67154515Y-101327861D01*
X67154515Y-101327861D02*
X67154515Y-101182718D01*
X67154515Y-101182718D02*
X67118230Y-101110147D01*
X67118230Y-101110147D02*
X67081944Y-101073861D01*
X67081944Y-101073861D02*
X67009372Y-101037575D01*
X67009372Y-101037575D02*
X66791658Y-101037575D01*
X66791658Y-101037575D02*
X66719087Y-101073861D01*
X66719087Y-101073861D02*
X66682801Y-101110147D01*
X66682801Y-101110147D02*
X66646515Y-101182718D01*
X66646515Y-101182718D02*
X66646515Y-101327861D01*
X66646515Y-101327861D02*
X66682801Y-101400433D01*
X67154515Y-101727004D02*
X66392515Y-101727004D01*
X66864230Y-101799576D02*
X67154515Y-102017290D01*
X66646515Y-102017290D02*
X66936801Y-101727004D01*
D10*
X105917904Y-103142238D02*
X106013142Y-103094619D01*
X106013142Y-103094619D02*
X106155999Y-103094619D01*
X106155999Y-103094619D02*
X106298856Y-103142238D01*
X106298856Y-103142238D02*
X106394094Y-103237476D01*
X106394094Y-103237476D02*
X106441713Y-103332714D01*
X106441713Y-103332714D02*
X106489332Y-103523190D01*
X106489332Y-103523190D02*
X106489332Y-103666047D01*
X106489332Y-103666047D02*
X106441713Y-103856523D01*
X106441713Y-103856523D02*
X106394094Y-103951761D01*
X106394094Y-103951761D02*
X106298856Y-104047000D01*
X106298856Y-104047000D02*
X106155999Y-104094619D01*
X106155999Y-104094619D02*
X106060761Y-104094619D01*
X106060761Y-104094619D02*
X105917904Y-104047000D01*
X105917904Y-104047000D02*
X105870285Y-103999380D01*
X105870285Y-103999380D02*
X105870285Y-103666047D01*
X105870285Y-103666047D02*
X106060761Y-103666047D01*
X105441713Y-104094619D02*
X105441713Y-103094619D01*
X105441713Y-103094619D02*
X104870285Y-104094619D01*
X104870285Y-104094619D02*
X104870285Y-103094619D01*
X104394094Y-104094619D02*
X104394094Y-103094619D01*
X104394094Y-103094619D02*
X104155999Y-103094619D01*
X104155999Y-103094619D02*
X104013142Y-103142238D01*
X104013142Y-103142238D02*
X103917904Y-103237476D01*
X103917904Y-103237476D02*
X103870285Y-103332714D01*
X103870285Y-103332714D02*
X103822666Y-103523190D01*
X103822666Y-103523190D02*
X103822666Y-103666047D01*
X103822666Y-103666047D02*
X103870285Y-103856523D01*
X103870285Y-103856523D02*
X103917904Y-103951761D01*
X103917904Y-103951761D02*
X104013142Y-104047000D01*
X104013142Y-104047000D02*
X104155999Y-104094619D01*
X104155999Y-104094619D02*
X104394094Y-104094619D01*
X92241523Y-98268619D02*
X91670095Y-98268619D01*
X91955809Y-99268619D02*
X91955809Y-98268619D01*
X91336761Y-99268619D02*
X91336761Y-98268619D01*
X91336761Y-98268619D02*
X91098666Y-98268619D01*
X91098666Y-98268619D02*
X90955809Y-98316238D01*
X90955809Y-98316238D02*
X90860571Y-98411476D01*
X90860571Y-98411476D02*
X90812952Y-98506714D01*
X90812952Y-98506714D02*
X90765333Y-98697190D01*
X90765333Y-98697190D02*
X90765333Y-98840047D01*
X90765333Y-98840047D02*
X90812952Y-99030523D01*
X90812952Y-99030523D02*
X90860571Y-99125761D01*
X90860571Y-99125761D02*
X90955809Y-99221000D01*
X90955809Y-99221000D02*
X91098666Y-99268619D01*
X91098666Y-99268619D02*
X91336761Y-99268619D01*
X90146285Y-98268619D02*
X89955809Y-98268619D01*
X89955809Y-98268619D02*
X89860571Y-98316238D01*
X89860571Y-98316238D02*
X89765333Y-98411476D01*
X89765333Y-98411476D02*
X89717714Y-98601952D01*
X89717714Y-98601952D02*
X89717714Y-98935285D01*
X89717714Y-98935285D02*
X89765333Y-99125761D01*
X89765333Y-99125761D02*
X89860571Y-99221000D01*
X89860571Y-99221000D02*
X89955809Y-99268619D01*
X89955809Y-99268619D02*
X90146285Y-99268619D01*
X90146285Y-99268619D02*
X90241523Y-99221000D01*
X90241523Y-99221000D02*
X90336761Y-99125761D01*
X90336761Y-99125761D02*
X90384380Y-98935285D01*
X90384380Y-98935285D02*
X90384380Y-98601952D01*
X90384380Y-98601952D02*
X90336761Y-98411476D01*
X90336761Y-98411476D02*
X90241523Y-98316238D01*
X90241523Y-98316238D02*
X90146285Y-98268619D01*
X105917904Y-98062238D02*
X106013142Y-98014619D01*
X106013142Y-98014619D02*
X106155999Y-98014619D01*
X106155999Y-98014619D02*
X106298856Y-98062238D01*
X106298856Y-98062238D02*
X106394094Y-98157476D01*
X106394094Y-98157476D02*
X106441713Y-98252714D01*
X106441713Y-98252714D02*
X106489332Y-98443190D01*
X106489332Y-98443190D02*
X106489332Y-98586047D01*
X106489332Y-98586047D02*
X106441713Y-98776523D01*
X106441713Y-98776523D02*
X106394094Y-98871761D01*
X106394094Y-98871761D02*
X106298856Y-98967000D01*
X106298856Y-98967000D02*
X106155999Y-99014619D01*
X106155999Y-99014619D02*
X106060761Y-99014619D01*
X106060761Y-99014619D02*
X105917904Y-98967000D01*
X105917904Y-98967000D02*
X105870285Y-98919380D01*
X105870285Y-98919380D02*
X105870285Y-98586047D01*
X105870285Y-98586047D02*
X106060761Y-98586047D01*
X105441713Y-99014619D02*
X105441713Y-98014619D01*
X105441713Y-98014619D02*
X104870285Y-99014619D01*
X104870285Y-99014619D02*
X104870285Y-98014619D01*
X104394094Y-99014619D02*
X104394094Y-98014619D01*
X104394094Y-98014619D02*
X104155999Y-98014619D01*
X104155999Y-98014619D02*
X104013142Y-98062238D01*
X104013142Y-98062238D02*
X103917904Y-98157476D01*
X103917904Y-98157476D02*
X103870285Y-98252714D01*
X103870285Y-98252714D02*
X103822666Y-98443190D01*
X103822666Y-98443190D02*
X103822666Y-98586047D01*
X103822666Y-98586047D02*
X103870285Y-98776523D01*
X103870285Y-98776523D02*
X103917904Y-98871761D01*
X103917904Y-98871761D02*
X104013142Y-98967000D01*
X104013142Y-98967000D02*
X104155999Y-99014619D01*
X104155999Y-99014619D02*
X104394094Y-99014619D01*
X106489332Y-92934619D02*
X106155999Y-93934619D01*
X106155999Y-93934619D02*
X105822666Y-92934619D01*
X104917904Y-93839380D02*
X104965523Y-93887000D01*
X104965523Y-93887000D02*
X105108380Y-93934619D01*
X105108380Y-93934619D02*
X105203618Y-93934619D01*
X105203618Y-93934619D02*
X105346475Y-93887000D01*
X105346475Y-93887000D02*
X105441713Y-93791761D01*
X105441713Y-93791761D02*
X105489332Y-93696523D01*
X105489332Y-93696523D02*
X105536951Y-93506047D01*
X105536951Y-93506047D02*
X105536951Y-93363190D01*
X105536951Y-93363190D02*
X105489332Y-93172714D01*
X105489332Y-93172714D02*
X105441713Y-93077476D01*
X105441713Y-93077476D02*
X105346475Y-92982238D01*
X105346475Y-92982238D02*
X105203618Y-92934619D01*
X105203618Y-92934619D02*
X105108380Y-92934619D01*
X105108380Y-92934619D02*
X104965523Y-92982238D01*
X104965523Y-92982238D02*
X104917904Y-93029857D01*
X103917904Y-93839380D02*
X103965523Y-93887000D01*
X103965523Y-93887000D02*
X104108380Y-93934619D01*
X104108380Y-93934619D02*
X104203618Y-93934619D01*
X104203618Y-93934619D02*
X104346475Y-93887000D01*
X104346475Y-93887000D02*
X104441713Y-93791761D01*
X104441713Y-93791761D02*
X104489332Y-93696523D01*
X104489332Y-93696523D02*
X104536951Y-93506047D01*
X104536951Y-93506047D02*
X104536951Y-93363190D01*
X104536951Y-93363190D02*
X104489332Y-93172714D01*
X104489332Y-93172714D02*
X104441713Y-93077476D01*
X104441713Y-93077476D02*
X104346475Y-92982238D01*
X104346475Y-92982238D02*
X104203618Y-92934619D01*
X104203618Y-92934619D02*
X104108380Y-92934619D01*
X104108380Y-92934619D02*
X103965523Y-92982238D01*
X103965523Y-92982238D02*
X103917904Y-93029857D01*
%TO.C,J0*%
X98377333Y-90604619D02*
X98377333Y-91318904D01*
X98377333Y-91318904D02*
X98424952Y-91461761D01*
X98424952Y-91461761D02*
X98520190Y-91557000D01*
X98520190Y-91557000D02*
X98663047Y-91604619D01*
X98663047Y-91604619D02*
X98758285Y-91604619D01*
X97710666Y-90604619D02*
X97615428Y-90604619D01*
X97615428Y-90604619D02*
X97520190Y-90652238D01*
X97520190Y-90652238D02*
X97472571Y-90699857D01*
X97472571Y-90699857D02*
X97424952Y-90795095D01*
X97424952Y-90795095D02*
X97377333Y-90985571D01*
X97377333Y-90985571D02*
X97377333Y-91223666D01*
X97377333Y-91223666D02*
X97424952Y-91414142D01*
X97424952Y-91414142D02*
X97472571Y-91509380D01*
X97472571Y-91509380D02*
X97520190Y-91557000D01*
X97520190Y-91557000D02*
X97615428Y-91604619D01*
X97615428Y-91604619D02*
X97710666Y-91604619D01*
X97710666Y-91604619D02*
X97805904Y-91557000D01*
X97805904Y-91557000D02*
X97853523Y-91509380D01*
X97853523Y-91509380D02*
X97901142Y-91414142D01*
X97901142Y-91414142D02*
X97948761Y-91223666D01*
X97948761Y-91223666D02*
X97948761Y-90985571D01*
X97948761Y-90985571D02*
X97901142Y-90795095D01*
X97901142Y-90795095D02*
X97853523Y-90699857D01*
X97853523Y-90699857D02*
X97805904Y-90652238D01*
X97805904Y-90652238D02*
X97710666Y-90604619D01*
D13*
X102084000Y-92712000D02*
X100644000Y-92712000D01*
X100644000Y-104962000D02*
X95444000Y-104962000D01*
X100644000Y-104392000D02*
X100644000Y-104962000D01*
X100644000Y-101852000D02*
X100644000Y-102872000D01*
X100644000Y-99312000D02*
X100644000Y-100332000D01*
X100644000Y-96772000D02*
X100644000Y-97792000D01*
X100644000Y-94232000D02*
X100644000Y-95252000D01*
X100644000Y-92142000D02*
X100644000Y-92712000D01*
X100644000Y-92142000D02*
X95444000Y-92142000D01*
X95444000Y-104392000D02*
X95444000Y-104962000D01*
X95444000Y-101852000D02*
X95444000Y-102872000D01*
X95444000Y-99312000D02*
X95444000Y-100332000D01*
X95444000Y-96772000D02*
X95444000Y-97792000D01*
X95444000Y-94232000D02*
X95444000Y-95252000D01*
X95444000Y-92142000D02*
X95444000Y-92712000D01*
%TD*%
M02*
