%TF.GenerationSoftware,KiCad,Pcbnew,7.0.2-6a45011f42~172~ubuntu22.04.1*%
%TF.CreationDate,2023-05-07T23:46:40+02:00*%
%TF.ProjectId,mp3alarm,6d703361-6c61-4726-9d2e-6b696361645f,v0.2*%
%TF.SameCoordinates,Original*%
%TF.FileFunction,Paste,Top*%
%TF.FilePolarity,Positive*%
%FSLAX46Y46*%
G04 Gerber Fmt 4.6, Leading zero omitted, Abs format (unit mm)*
G04 Created by KiCad (PCBNEW 7.0.2-6a45011f42~172~ubuntu22.04.1) date 2023-05-07 23:46:40*
%MOMM*%
%LPD*%
G01*
G04 APERTURE LIST*
G04 Aperture macros list*
%AMRoundRect*
0 Rectangle with rounded corners*
0 $1 Rounding radius*
0 $2 $3 $4 $5 $6 $7 $8 $9 X,Y pos of 4 corners*
0 Add a 4 corners polygon primitive as box body*
4,1,4,$2,$3,$4,$5,$6,$7,$8,$9,$2,$3,0*
0 Add four circle primitives for the rounded corners*
1,1,$1+$1,$2,$3*
1,1,$1+$1,$4,$5*
1,1,$1+$1,$6,$7*
1,1,$1+$1,$8,$9*
0 Add four rect primitives between the rounded corners*
20,1,$1+$1,$2,$3,$4,$5,0*
20,1,$1+$1,$4,$5,$6,$7,0*
20,1,$1+$1,$6,$7,$8,$9,0*
20,1,$1+$1,$8,$9,$2,$3,0*%
G04 Aperture macros list end*
%ADD10R,1.500000X0.900000*%
%ADD11RoundRect,0.250000X-0.650000X0.325000X-0.650000X-0.325000X0.650000X-0.325000X0.650000X0.325000X0*%
%ADD12R,0.500000X1.000000*%
%ADD13R,0.720000X0.780000*%
%ADD14R,1.050000X1.080000*%
%ADD15R,1.050000X1.200000*%
%ADD16R,1.050000X2.390000*%
%ADD17R,2.910000X0.550000*%
%ADD18RoundRect,0.250000X0.625000X-0.312500X0.625000X0.312500X-0.625000X0.312500X-0.625000X-0.312500X0*%
%ADD19RoundRect,0.150000X0.850000X0.150000X-0.850000X0.150000X-0.850000X-0.150000X0.850000X-0.150000X0*%
%ADD20RoundRect,0.250000X-0.325000X-0.650000X0.325000X-0.650000X0.325000X0.650000X-0.325000X0.650000X0*%
%ADD21RoundRect,0.250000X-1.412500X-0.550000X1.412500X-0.550000X1.412500X0.550000X-1.412500X0.550000X0*%
G04 APERTURE END LIST*
D10*
%TO.C,D1*%
X53938000Y-63120000D03*
X53938000Y-66420000D03*
X58838000Y-66420000D03*
X58838000Y-63120000D03*
%TD*%
D11*
%TO.C,C1*%
X61722000Y-63041000D03*
X61722000Y-65991000D03*
%TD*%
D12*
%TO.C,J7*%
X69590000Y-102590000D03*
X68490000Y-102590000D03*
X67390000Y-102590000D03*
X66290000Y-102590000D03*
X65190000Y-102590000D03*
X64090000Y-102590000D03*
X62990000Y-102590000D03*
X61890000Y-102590000D03*
D13*
X71350000Y-99910000D03*
D14*
X71365000Y-98640000D03*
D15*
X71365000Y-96030000D03*
X60715000Y-96600000D03*
D16*
X60715000Y-99785000D03*
D17*
X68026000Y-95355000D03*
X63836000Y-95355000D03*
%TD*%
D18*
%TO.C,R1*%
X52262500Y-72775000D03*
X52262500Y-69850000D03*
%TD*%
%TO.C,R4*%
X49530000Y-97977500D03*
X49530000Y-95052500D03*
%TD*%
%TO.C,R2*%
X75438000Y-73660000D03*
X75438000Y-70735000D03*
%TD*%
D19*
%TO.C,IC1*%
X69302000Y-82931000D03*
X69302000Y-81661000D03*
X69302000Y-80391000D03*
X69302000Y-79121000D03*
X69302000Y-77851000D03*
X69302000Y-76581000D03*
X69302000Y-75311000D03*
X69302000Y-74041000D03*
X64302000Y-74041000D03*
X64302000Y-75311000D03*
X64302000Y-76581000D03*
X64302000Y-77851000D03*
X64302000Y-79121000D03*
X64302000Y-80391000D03*
X64302000Y-81661000D03*
X64302000Y-82931000D03*
%TD*%
D18*
%TO.C,R5*%
X49530000Y-90362500D03*
X49530000Y-87437500D03*
%TD*%
D20*
%TO.C,C3*%
X71677000Y-86106000D03*
X74627000Y-86106000D03*
%TD*%
D18*
%TO.C,R3*%
X72898000Y-73660000D03*
X72898000Y-70735000D03*
%TD*%
D10*
%TO.C,D2*%
X46572000Y-63120000D03*
X46572000Y-66420000D03*
X51472000Y-66420000D03*
X51472000Y-63120000D03*
%TD*%
D18*
%TO.C,R6*%
X49530000Y-82996500D03*
X49530000Y-80071500D03*
%TD*%
D21*
%TO.C,C2*%
X63756500Y-88646000D03*
X68831500Y-88646000D03*
%TD*%
M02*
