%TF.GenerationSoftware,KiCad,Pcbnew,7.0.9-7.0.9~ubuntu22.04.1*%
%TF.CreationDate,2023-12-09T20:31:49+01:00*%
%TF.ProjectId,mp3alarm,6d703361-6c61-4726-9d2e-6b696361645f,v0.2*%
%TF.SameCoordinates,Original*%
%TF.FileFunction,Soldermask,Top*%
%TF.FilePolarity,Negative*%
%FSLAX46Y46*%
G04 Gerber Fmt 4.6, Leading zero omitted, Abs format (unit mm)*
G04 Created by KiCad (PCBNEW 7.0.9-7.0.9~ubuntu22.04.1) date 2023-12-09 20:31:49*
%MOMM*%
%LPD*%
G01*
G04 APERTURE LIST*
G04 Aperture macros list*
%AMRoundRect*
0 Rectangle with rounded corners*
0 $1 Rounding radius*
0 $2 $3 $4 $5 $6 $7 $8 $9 X,Y pos of 4 corners*
0 Add a 4 corners polygon primitive as box body*
4,1,4,$2,$3,$4,$5,$6,$7,$8,$9,$2,$3,0*
0 Add four circle primitives for the rounded corners*
1,1,$1+$1,$2,$3*
1,1,$1+$1,$4,$5*
1,1,$1+$1,$6,$7*
1,1,$1+$1,$8,$9*
0 Add four rect primitives between the rounded corners*
20,1,$1+$1,$2,$3,$4,$5,0*
20,1,$1+$1,$4,$5,$6,$7,0*
20,1,$1+$1,$6,$7,$8,$9,0*
20,1,$1+$1,$8,$9,$2,$3,0*%
G04 Aperture macros list end*
%ADD10R,1.500000X0.900000*%
%ADD11RoundRect,0.250000X-0.325000X-0.650000X0.325000X-0.650000X0.325000X0.650000X-0.325000X0.650000X0*%
%ADD12R,1.700000X1.700000*%
%ADD13O,1.700000X1.700000*%
%ADD14R,0.500000X1.000000*%
%ADD15R,0.720000X0.780000*%
%ADD16R,1.050000X1.080000*%
%ADD17R,1.050000X1.200000*%
%ADD18R,1.050000X2.390000*%
%ADD19R,2.910000X0.550000*%
%ADD20RoundRect,0.250000X-0.312500X-0.625000X0.312500X-0.625000X0.312500X0.625000X-0.312500X0.625000X0*%
%ADD21RoundRect,0.250000X0.312500X0.625000X-0.312500X0.625000X-0.312500X-0.625000X0.312500X-0.625000X0*%
%ADD22C,0.600000*%
%ADD23R,1.000000X2.000000*%
%ADD24O,0.850000X0.600000*%
%ADD25R,0.520000X1.000000*%
%ADD26R,0.270000X1.000000*%
%ADD27O,1.300000X2.300000*%
%ADD28O,1.300000X2.600000*%
%ADD29C,6.400000*%
%ADD30RoundRect,0.250000X0.625000X-0.312500X0.625000X0.312500X-0.625000X0.312500X-0.625000X-0.312500X0*%
%ADD31RoundRect,0.250000X0.325000X0.650000X-0.325000X0.650000X-0.325000X-0.650000X0.325000X-0.650000X0*%
%ADD32RoundRect,0.250000X0.262500X0.450000X-0.262500X0.450000X-0.262500X-0.450000X0.262500X-0.450000X0*%
%ADD33R,1.500000X1.500000*%
%ADD34R,0.900000X1.500000*%
%ADD35R,0.900000X0.900000*%
%ADD36RoundRect,0.243750X0.456250X-0.243750X0.456250X0.243750X-0.456250X0.243750X-0.456250X-0.243750X0*%
%ADD37R,1.500000X2.000000*%
%ADD38R,3.800000X2.000000*%
%ADD39RoundRect,0.250000X0.650000X-0.325000X0.650000X0.325000X-0.650000X0.325000X-0.650000X-0.325000X0*%
%ADD40C,1.600000*%
%ADD41O,1.422400X2.844800*%
%ADD42RoundRect,0.250000X1.412500X0.550000X-1.412500X0.550000X-1.412500X-0.550000X1.412500X-0.550000X0*%
%ADD43R,1.000000X0.400000*%
%ADD44RoundRect,0.150000X-0.150000X0.850000X-0.150000X-0.850000X0.150000X-0.850000X0.150000X0.850000X0*%
%ADD45RoundRect,0.250000X-0.262500X-0.450000X0.262500X-0.450000X0.262500X0.450000X-0.262500X0.450000X0*%
%ADD46RoundRect,0.250000X-0.625000X0.312500X-0.625000X-0.312500X0.625000X-0.312500X0.625000X0.312500X0*%
%ADD47RoundRect,0.243750X-0.243750X-0.456250X0.243750X-0.456250X0.243750X0.456250X-0.243750X0.456250X0*%
%ADD48C,5.000000*%
%ADD49C,4.000000*%
%ADD50R,0.600000X1.100000*%
%ADD51RoundRect,0.250000X-0.650000X0.325000X-0.650000X-0.325000X0.650000X-0.325000X0.650000X0.325000X0*%
G04 APERTURE END LIST*
D10*
%TO.C,D1*%
X74078000Y-88772000D03*
X74078000Y-85472000D03*
X69178000Y-85472000D03*
X69178000Y-88772000D03*
%TD*%
D11*
%TO.C,C1*%
X86155000Y-67310000D03*
X89105000Y-67310000D03*
%TD*%
D12*
%TO.C,J3*%
X69088000Y-58425000D03*
D13*
X69088000Y-55885000D03*
%TD*%
D12*
%TO.C,J5*%
X76962000Y-61722000D03*
D13*
X79502000Y-61722000D03*
X82042000Y-61722000D03*
X84582000Y-61722000D03*
%TD*%
D12*
%TO.C,J6*%
X76761500Y-55880000D03*
D13*
X79301500Y-55880000D03*
X81841500Y-55880000D03*
X84381500Y-55880000D03*
%TD*%
D14*
%TO.C,J7*%
X77718000Y-106689716D03*
X76618000Y-106689716D03*
X75518000Y-106689716D03*
X74418000Y-106689716D03*
X73318000Y-106689716D03*
X72218000Y-106689716D03*
X71118000Y-106689716D03*
X70018000Y-106689716D03*
D15*
X79478000Y-104009716D03*
D16*
X79493000Y-102739716D03*
D17*
X79493000Y-100129716D03*
X68843000Y-100699716D03*
D18*
X68843000Y-103884716D03*
D19*
X76154000Y-99454716D03*
X71964000Y-99454716D03*
%TD*%
D12*
%TO.C,J2*%
X72898000Y-58425000D03*
D13*
X72898000Y-55885000D03*
%TD*%
D12*
%TO.C,J9*%
X88392000Y-56388000D03*
%TD*%
D20*
%TO.C,R1*%
X68895500Y-82804000D03*
X71820500Y-82804000D03*
%TD*%
D12*
%TO.C,J1*%
X82042000Y-105156000D03*
D13*
X82042000Y-102616000D03*
X82042000Y-100076000D03*
%TD*%
D12*
%TO.C,J8*%
X108204000Y-64770000D03*
D13*
X105664000Y-64770000D03*
%TD*%
D21*
%TO.C,R10*%
X108396500Y-93472000D03*
X105471500Y-93472000D03*
%TD*%
D22*
%TO.C,J11*%
X54452000Y-103378000D03*
D23*
X56052000Y-106478000D03*
X58852000Y-106478000D03*
D24*
X60452000Y-103378000D03*
D25*
X54352000Y-102278000D03*
X55102000Y-102278000D03*
D26*
X55702000Y-102278000D03*
X57202000Y-102278000D03*
X58202000Y-102278000D03*
X59202000Y-102278000D03*
D25*
X59802000Y-102278000D03*
X60552000Y-102278000D03*
X60552000Y-102278000D03*
X59802000Y-102278000D03*
D26*
X58702000Y-102278000D03*
X57702000Y-102278000D03*
X56702000Y-102278000D03*
X56202000Y-102278000D03*
D25*
X55102000Y-102278000D03*
X54352000Y-102278000D03*
D27*
X53132000Y-102653000D03*
D28*
X53132000Y-106478000D03*
D27*
X61772000Y-102653000D03*
D28*
X61772000Y-106478000D03*
%TD*%
D29*
%TO.C,H2*%
X48000000Y-104000000D03*
%TD*%
D30*
%TO.C,R13*%
X67818000Y-96966500D03*
X67818000Y-94041500D03*
%TD*%
%TO.C,R11*%
X75184000Y-96966500D03*
X75184000Y-94041500D03*
%TD*%
D29*
%TO.C,H4*%
X107000000Y-58000000D03*
%TD*%
D31*
%TO.C,C13*%
X91645000Y-75184000D03*
X88695000Y-75184000D03*
%TD*%
D32*
%TO.C,FB2*%
X101496500Y-75184000D03*
X99671500Y-75184000D03*
%TD*%
D33*
%TO.C,SW2*%
X62738000Y-63336000D03*
X62738000Y-55536000D03*
%TD*%
D11*
%TO.C,C12*%
X106475000Y-77216000D03*
X109425000Y-77216000D03*
%TD*%
D34*
%TO.C,U3*%
X45750000Y-83580000D03*
X47020000Y-83580000D03*
X48290000Y-83580000D03*
X49560000Y-83580000D03*
X50830000Y-83580000D03*
X52100000Y-83580000D03*
X53370000Y-83580000D03*
X54640000Y-83580000D03*
X55910000Y-83580000D03*
X57180000Y-83580000D03*
X58450000Y-83580000D03*
X59720000Y-83580000D03*
X60990000Y-83580000D03*
X62260000Y-83580000D03*
D10*
X63510000Y-81815000D03*
X63510000Y-80545000D03*
X63510000Y-79275000D03*
X63510000Y-78005000D03*
X63510000Y-76735000D03*
X63510000Y-75465000D03*
X63510000Y-74195000D03*
X63510000Y-72925000D03*
X63510000Y-71655000D03*
X63510000Y-70385000D03*
X63510000Y-69115000D03*
X63510000Y-67845000D03*
D34*
X62260000Y-66080000D03*
X60990000Y-66080000D03*
X59720000Y-66080000D03*
X58450000Y-66080000D03*
X57180000Y-66080000D03*
X55910000Y-66080000D03*
X54640000Y-66080000D03*
X53370000Y-66080000D03*
X52100000Y-66080000D03*
X50830000Y-66080000D03*
X49560000Y-66080000D03*
X48290000Y-66080000D03*
X47020000Y-66080000D03*
X45750000Y-66080000D03*
D35*
X52070000Y-77730000D03*
X53470000Y-77730000D03*
X54870000Y-77730000D03*
X54870000Y-77730000D03*
X52070000Y-76330000D03*
X52070000Y-76330000D03*
X53470000Y-76330000D03*
X54870000Y-76330000D03*
X52070000Y-74930000D03*
X53470000Y-74930000D03*
X54870000Y-74930000D03*
%TD*%
D31*
%TO.C,C21*%
X89105000Y-64770000D03*
X86155000Y-64770000D03*
%TD*%
D20*
%TO.C,R16*%
X105471500Y-98044000D03*
X108396500Y-98044000D03*
%TD*%
D30*
%TO.C,R8*%
X56896000Y-88838500D03*
X56896000Y-85913500D03*
%TD*%
D11*
%TO.C,C4*%
X45261000Y-98552000D03*
X48211000Y-98552000D03*
%TD*%
D20*
%TO.C,R21*%
X88707500Y-82804000D03*
X91632500Y-82804000D03*
%TD*%
D36*
%TO.C,D4*%
X65024000Y-106523000D03*
X65024000Y-104648000D03*
%TD*%
D31*
%TO.C,C20*%
X109425000Y-79756000D03*
X106475000Y-79756000D03*
%TD*%
D20*
%TO.C,R23*%
X88707500Y-77724000D03*
X91632500Y-77724000D03*
%TD*%
D30*
%TO.C,R24*%
X106680000Y-88076500D03*
X106680000Y-85151500D03*
%TD*%
D37*
%TO.C,U4*%
X45706000Y-95352000D03*
X48006000Y-95352000D03*
D38*
X48006000Y-89052000D03*
D37*
X50306000Y-95352000D03*
%TD*%
D30*
%TO.C,R12*%
X70358000Y-96966500D03*
X70358000Y-94041500D03*
%TD*%
%TO.C,R20*%
X109220000Y-88076500D03*
X109220000Y-85151500D03*
%TD*%
%TO.C,R2*%
X70866000Y-67818000D03*
X70866000Y-64893000D03*
%TD*%
D20*
%TO.C,R19*%
X88707500Y-80264000D03*
X91632500Y-80264000D03*
%TD*%
D30*
%TO.C,R15*%
X77470000Y-96966500D03*
X77470000Y-94041500D03*
%TD*%
D21*
%TO.C,R17*%
X94172500Y-87884000D03*
X91247500Y-87884000D03*
%TD*%
D39*
%TO.C,C7*%
X59182000Y-88851000D03*
X59182000Y-85901000D03*
%TD*%
D40*
%TO.C,J4*%
X90170000Y-105379945D03*
X90170000Y-99379945D03*
D41*
X87020000Y-102879945D03*
X87020000Y-106079945D03*
X93320000Y-106079945D03*
X87020000Y-99379945D03*
X93320000Y-99379945D03*
%TD*%
D42*
%TO.C,C15*%
X102105500Y-93472000D03*
X97030500Y-93472000D03*
%TD*%
D11*
%TO.C,C10*%
X45769000Y-86106000D03*
X48719000Y-86106000D03*
%TD*%
D33*
%TO.C,SW1*%
X54356000Y-63336000D03*
X54356000Y-55536000D03*
%TD*%
D43*
%TO.C,U2*%
X95652000Y-80275000D03*
X95652000Y-80925000D03*
X95652000Y-81575000D03*
X95652000Y-82225000D03*
X95652000Y-82875000D03*
X95652000Y-83525000D03*
X95652000Y-84175000D03*
X95652000Y-84825000D03*
X101452000Y-84825000D03*
X101452000Y-84175000D03*
X101452000Y-83525000D03*
X101452000Y-82875000D03*
X101452000Y-82225000D03*
X101452000Y-81575000D03*
X101452000Y-80925000D03*
X101452000Y-80275000D03*
%TD*%
D11*
%TO.C,C11*%
X106475000Y-74676000D03*
X109425000Y-74676000D03*
%TD*%
D44*
%TO.C,IC1*%
X82169000Y-69890000D03*
X80899000Y-69890000D03*
X79629000Y-69890000D03*
X78359000Y-69890000D03*
X77089000Y-69890000D03*
X75819000Y-69890000D03*
X74549000Y-69890000D03*
X73279000Y-69890000D03*
X73279000Y-74890000D03*
X74549000Y-74890000D03*
X75819000Y-74890000D03*
X77089000Y-74890000D03*
X78359000Y-74890000D03*
X79629000Y-74890000D03*
X80899000Y-74890000D03*
X82169000Y-74890000D03*
%TD*%
D31*
%TO.C,C3*%
X76659000Y-82804000D03*
X73709000Y-82804000D03*
%TD*%
D45*
%TO.C,FB1*%
X99671500Y-77470000D03*
X101496500Y-77470000D03*
%TD*%
D30*
%TO.C,R22*%
X104140000Y-88076500D03*
X104140000Y-85151500D03*
%TD*%
D46*
%TO.C,R7*%
X60706000Y-93787500D03*
X60706000Y-96712500D03*
%TD*%
D31*
%TO.C,C19*%
X109425000Y-82296000D03*
X106475000Y-82296000D03*
%TD*%
D30*
%TO.C,R3*%
X68326000Y-67818000D03*
X68326000Y-64893000D03*
%TD*%
D47*
%TO.C,D3*%
X50116500Y-98552000D03*
X51991500Y-98552000D03*
%TD*%
D11*
%TO.C,C18*%
X86409000Y-90424000D03*
X89359000Y-90424000D03*
%TD*%
D42*
%TO.C,C16*%
X102105500Y-100838000D03*
X97030500Y-100838000D03*
%TD*%
D10*
%TO.C,D2*%
X81952000Y-88772000D03*
X81952000Y-85472000D03*
X77052000Y-85472000D03*
X77052000Y-88772000D03*
%TD*%
D39*
%TO.C,C5*%
X53340000Y-91645000D03*
X53340000Y-88695000D03*
%TD*%
D46*
%TO.C,R6*%
X53340000Y-93787500D03*
X53340000Y-96712500D03*
%TD*%
D31*
%TO.C,C6*%
X53545000Y-86106000D03*
X50595000Y-86106000D03*
%TD*%
D30*
%TO.C,R14*%
X80010000Y-96966500D03*
X80010000Y-94041500D03*
%TD*%
D31*
%TO.C,C17*%
X89359000Y-87884000D03*
X86409000Y-87884000D03*
%TD*%
D29*
%TO.C,H3*%
X107000000Y-104000000D03*
%TD*%
D48*
%TO.C,J10*%
X96774000Y-60706000D03*
D49*
X92659000Y-56591000D03*
X92659000Y-64821000D03*
X100889000Y-56591000D03*
X100889000Y-64821000D03*
%TD*%
D29*
%TO.C,H1*%
X48000000Y-58000000D03*
%TD*%
D31*
%TO.C,C14*%
X91645000Y-72644000D03*
X88695000Y-72644000D03*
%TD*%
D50*
%TO.C,Y1*%
X76008000Y-67310000D03*
X77408000Y-67310000D03*
%TD*%
D30*
%TO.C,R9*%
X65024000Y-102476000D03*
X65024000Y-99551000D03*
%TD*%
D51*
%TO.C,C2*%
X66040000Y-60501000D03*
X66040000Y-63451000D03*
%TD*%
D21*
%TO.C,R18*%
X94172500Y-90424000D03*
X91247500Y-90424000D03*
%TD*%
M02*
