M48
; DRILL file {KiCad 8.0.1-8.0.1-1~ubuntu22.04.1} date 2024-04-20T15:13:04+0200
; FORMAT={-:-/ absolute / metric / decimal}
; #@! TF.CreationDate,2024-04-20T15:13:04+02:00
; #@! TF.GenerationSoftware,Kicad,Pcbnew,8.0.1-8.0.1-1~ubuntu22.04.1
; #@! TF.FileFunction,MixedPlating,1,2
FMAT,2
METRIC
; #@! TA.AperFunction,Plated,PTH,ViaDrill
T1C0.400
; #@! TA.AperFunction,Plated,PTH,ComponentDrill
T2C0.600
; #@! TA.AperFunction,Plated,PTH,ComponentDrill
T3C1.000
; #@! TA.AperFunction,Plated,PTH,ComponentDrill
T4C3.000
; #@! TA.AperFunction,Plated,PTH,ComponentDrill
T5C3.200
; #@! TA.AperFunction,NonPlated,NPTH,ComponentDrill
T6C0.600
; #@! TA.AperFunction,NonPlated,NPTH,ComponentDrill
T7C1.600
%
G90
G05
T1
X45.72Y-92.202
X48.26Y-64.008
X48.26Y-81.026
X50.292Y-92.202
X50.8Y-64.262
X50.8Y-68.072
X53.594Y-86.106
X54.61Y-71.628
X54.61Y-98.552
X55.372Y-85.09
X55.88Y-66.294
X55.88Y-96.774
X56.896Y-80.518
X57.15Y-66.294
X57.15Y-98.552
X58.166Y-96.774
X58.674Y-62.992
X59.436Y-98.552
X60.101Y-64.673
X60.706Y-101.092
X60.96Y-76.708
X60.96Y-77.724
X60.96Y-78.74
X60.96Y-80.518
X60.96Y-81.534
X60.96Y-85.598
X61.214Y-64.77
X61.468Y-87.122
X61.468Y-88.9
X61.468Y-90.678
X62.23Y-84.582
X63.246Y-92.202
X63.364Y-84.074
X65.278Y-65.024
X65.278Y-69.088
X65.278Y-70.358
X65.278Y-71.628
X65.278Y-72.898
X65.278Y-74.168
X65.278Y-75.438
X65.278Y-80.518
X65.786Y-66.294
X66.548Y-93.218
X66.802Y-76.708
X66.802Y-77.724
X66.802Y-78.74
X66.802Y-106.934
X67.818Y-95.504
X68.326Y-63.246
X68.326Y-68.834
X68.834Y-98.806
X69.088Y-92.456
X70.104Y-69.088
X70.358Y-95.504
X70.866Y-66.548
X71.628Y-87.884
X71.628Y-92.456
X72.136Y-98.298
X72.136Y-102.616
X72.136Y-104.14
X72.39Y-70.104
X72.898Y-66.802
X72.898Y-95.504
X73.406Y-73.152
X73.914Y-65.024
X74.168Y-87.122
X74.168Y-92.71
X74.422Y-102.87
X74.676Y-67.564
X74.676Y-73.17
X75.184Y-95.504
X75.946Y-63.754
X76.2Y-92.456
X77.47Y-95.504
X77.47Y-102.616
X77.47Y-104.14
X77.724Y-76.708
X78.74Y-83.566
X78.74Y-92.456
X78.994Y-66.802
X79.502Y-98.552
X79.502Y-106.934
X79.756Y-77.724
X79.756Y-78.74
X80.01Y-95.504
X80.264Y-66.294
X80.772Y-68.326
X80.772Y-72.39
X81.28Y-92.456
X81.534Y-66.294
X81.788Y-79.756
X82.042Y-68.326
X82.042Y-107.188
X82.55Y-82.042
X82.804Y-66.294
X83.312Y-68.326
X83.312Y-79.756
X83.82Y-88.392
X83.82Y-95.25
X84.074Y-66.294
X84.582Y-68.326
X84.582Y-81.534
X84.582Y-83.82
X85.09Y-93.98
X85.598Y-75.692
X86.36Y-92.71
X86.614Y-69.596
X86.614Y-76.454
X86.868Y-96.774
X87.376Y-77.47
X87.376Y-82.804
X88.138Y-60.452
X88.138Y-61.722
X88.138Y-62.992
X88.138Y-95.25
X89.662Y-58.166
X89.662Y-93.726
X90.17Y-59.182
X90.17Y-60.452
X90.17Y-61.722
X90.17Y-62.992
X90.424Y-84.328
X90.678Y-68.326
X91.186Y-87.884
X91.186Y-92.71
X91.186Y-94.234
X91.186Y-95.758
X91.186Y-97.282
X91.645Y-72.644
X91.948Y-68.326
X93.218Y-68.326
X93.218Y-75.184
X94.462Y-82.871
X94.488Y-68.326
X94.653Y-80.167
X95.758Y-68.326
X96.012Y-90.678
X96.012Y-95.758
X96.774Y-67.564
X96.774Y-81.534
X97.028Y-80.264
X97.536Y-66.548
X97.79Y-65.024
X98.044Y-95.758
X98.552Y-75.184
X98.552Y-77.47
X99.568Y-99.314
X101.092Y-85.852
X104.14Y-89.916
X104.14Y-99.314
X105.41Y-94.996
X106.68Y-89.916
X109.22Y-89.916
T3
X69.088Y-55.885
X69.088Y-58.425
X72.898Y-55.885
X72.898Y-58.425
X76.761Y-55.88
X76.962Y-61.722
X79.301Y-55.88
X79.502Y-61.722
X81.841Y-55.88
X82.042Y-61.722
X82.042Y-100.076
X82.042Y-102.616
X82.042Y-105.156
X84.382Y-55.88
X84.582Y-61.722
X88.392Y-56.388
X105.664Y-64.77
X108.204Y-64.77
T4
X92.659Y-56.591
X92.659Y-64.821
X96.774Y-60.706
X100.889Y-56.591
X100.889Y-64.821
T5
X48.0Y-58.0
X48.0Y-104.0
X107.0Y-58.0
X107.0Y-104.0
T6
X54.452Y-103.378
T7
X90.17Y-99.38
X90.17Y-105.38
T2
X53.132Y-102.153G85X53.132Y-103.153
G05
X53.132Y-105.828G85X53.132Y-107.128
G05
X61.772Y-102.153G85X61.772Y-103.153
G05
X61.772Y-105.828G85X61.772Y-107.128
G05
X87.02Y-99.83G85X87.02Y-98.93
G05
X87.02Y-103.33G85X87.02Y-102.43
G05
X87.02Y-106.53G85X87.02Y-105.63
G05
X93.32Y-99.83G85X93.32Y-98.93
G05
X93.32Y-106.53G85X93.32Y-105.63
G05
T6
X60.327Y-103.378G85X60.577Y-103.378
G05
M30
