%TF.GenerationSoftware,KiCad,Pcbnew,7.0.9-7.0.9~ubuntu22.04.1*%
%TF.CreationDate,2023-12-09T20:31:49+01:00*%
%TF.ProjectId,mp3alarm,6d703361-6c61-4726-9d2e-6b696361645f,v0.2*%
%TF.SameCoordinates,Original*%
%TF.FileFunction,Copper,L5,Inr*%
%TF.FilePolarity,Positive*%
%FSLAX46Y46*%
G04 Gerber Fmt 4.6, Leading zero omitted, Abs format (unit mm)*
G04 Created by KiCad (PCBNEW 7.0.9-7.0.9~ubuntu22.04.1) date 2023-12-09 20:31:49*
%MOMM*%
%LPD*%
G01*
G04 APERTURE LIST*
%TA.AperFunction,ComponentPad*%
%ADD10R,1.700000X1.700000*%
%TD*%
%TA.AperFunction,ComponentPad*%
%ADD11O,1.700000X1.700000*%
%TD*%
%TA.AperFunction,ComponentPad*%
%ADD12O,1.300000X2.300000*%
%TD*%
%TA.AperFunction,ComponentPad*%
%ADD13O,1.300000X2.600000*%
%TD*%
%TA.AperFunction,ComponentPad*%
%ADD14C,6.400000*%
%TD*%
%TA.AperFunction,ComponentPad*%
%ADD15O,1.422400X2.844800*%
%TD*%
%TA.AperFunction,ComponentPad*%
%ADD16C,5.000000*%
%TD*%
%TA.AperFunction,ComponentPad*%
%ADD17C,4.000000*%
%TD*%
%TA.AperFunction,ViaPad*%
%ADD18C,0.800000*%
%TD*%
G04 APERTURE END LIST*
D10*
%TO.N,GND*%
%TO.C,J3*%
X69088000Y-58425000D03*
D11*
%TO.N,SW1*%
X69088000Y-55885000D03*
%TD*%
D10*
%TO.N,SCL*%
%TO.C,J5*%
X76962000Y-61722000D03*
D11*
%TO.N,SDA*%
X79502000Y-61722000D03*
%TO.N,GND*%
X82042000Y-61722000D03*
%TO.N,VCC*%
X84582000Y-61722000D03*
%TD*%
D10*
%TO.N,TM_CLK*%
%TO.C,J6*%
X76761500Y-55880000D03*
D11*
%TO.N,TM_DIO*%
X79301500Y-55880000D03*
%TO.N,GND*%
X81841500Y-55880000D03*
%TO.N,+5V*%
X84381500Y-55880000D03*
%TD*%
D10*
%TO.N,GND*%
%TO.C,J2*%
X72898000Y-58425000D03*
D11*
%TO.N,SW0*%
X72898000Y-55885000D03*
%TD*%
D10*
%TO.N,Net-(J9-Pin_1)*%
%TO.C,J9*%
X88392000Y-56388000D03*
%TD*%
%TO.N,OUT_L*%
%TO.C,J1*%
X82042000Y-105156000D03*
D11*
%TO.N,GNDA*%
X82042000Y-102616000D03*
%TO.N,OUT_R*%
X82042000Y-100076000D03*
%TD*%
D10*
%TO.N,GND*%
%TO.C,J8*%
X108204000Y-64770000D03*
D11*
%TO.N,+5V*%
X105664000Y-64770000D03*
%TD*%
D12*
%TO.N,GND*%
%TO.C,J11*%
X53132000Y-102653000D03*
D13*
X53132000Y-106478000D03*
D12*
X61772000Y-102653000D03*
D13*
X61772000Y-106478000D03*
%TD*%
D14*
%TO.N,GND*%
%TO.C,H2*%
X48000000Y-104000000D03*
%TD*%
%TO.N,GND*%
%TO.C,H4*%
X107000000Y-58000000D03*
%TD*%
D15*
%TO.N,OUT_R*%
%TO.C,J4*%
X87020000Y-102879945D03*
%TO.N,GNDA*%
X87020000Y-106079945D03*
X93320000Y-106079945D03*
%TO.N,OUT_L*%
X87020000Y-99379945D03*
X93320000Y-99379945D03*
%TD*%
D14*
%TO.N,GND*%
%TO.C,H3*%
X107000000Y-104000000D03*
%TD*%
D16*
%TO.N,Net-(J10-In)*%
%TO.C,J10*%
X96774000Y-60706000D03*
D17*
%TO.N,GND*%
X92659000Y-56591000D03*
X92659000Y-64821000D03*
X100889000Y-56591000D03*
X100889000Y-64821000D03*
%TD*%
D14*
%TO.N,GND*%
%TO.C,H1*%
X48000000Y-58000000D03*
%TD*%
D18*
%TO.N,GND*%
X50292000Y-92202000D03*
X94461762Y-82871459D03*
X50800000Y-68072000D03*
X104140000Y-89916000D03*
X81788000Y-79756000D03*
X84582000Y-72644000D03*
X71628000Y-92456000D03*
X61468000Y-87122000D03*
X57150000Y-98552000D03*
X68326000Y-63246000D03*
X61468000Y-88900000D03*
X82550000Y-82042000D03*
X56896000Y-80518000D03*
X72136000Y-98298000D03*
X66802000Y-106934000D03*
X77724000Y-76708000D03*
X84582000Y-73660000D03*
X78740000Y-83566000D03*
X60706000Y-101092000D03*
X77470000Y-104140000D03*
X72136000Y-104140000D03*
X76200000Y-92456000D03*
X68834000Y-98806000D03*
X60960000Y-80518000D03*
X65786000Y-66294000D03*
X53594000Y-86106000D03*
X78740000Y-92456000D03*
X78994000Y-65532000D03*
X77470000Y-102616000D03*
X87376000Y-82804000D03*
X59436000Y-98552000D03*
X83820000Y-88392000D03*
X54610000Y-71628000D03*
X74168000Y-87122000D03*
X106680000Y-89916000D03*
X71628000Y-87884000D03*
X83312000Y-79756000D03*
X50800000Y-64262000D03*
X98552000Y-77470000D03*
X81280000Y-92456000D03*
X72136000Y-102616000D03*
X79502000Y-98552000D03*
X84328000Y-69596000D03*
X73914000Y-65024000D03*
X54610000Y-98552000D03*
X79502000Y-106934000D03*
X45720000Y-92202000D03*
X69088000Y-92456000D03*
X109220000Y-89916000D03*
X61468000Y-90678000D03*
X87376000Y-77470000D03*
%TO.N,VCC*%
X93218000Y-75184000D03*
X65278000Y-65024000D03*
X74676000Y-73170500D03*
X66548000Y-93218000D03*
X98552000Y-75184000D03*
X63246000Y-92202000D03*
X63363502Y-84074000D03*
X74168000Y-92710000D03*
X91645000Y-72644000D03*
X75946000Y-63754000D03*
X74422000Y-102870000D03*
%TO.N,SDA*%
X68326000Y-68834000D03*
X72390000Y-70104000D03*
%TO.N,SCL*%
X70866000Y-66548000D03*
%TO.N,TM_CLK*%
X55880000Y-66294000D03*
X60101349Y-64673349D03*
%TO.N,TM_DIO*%
X57150000Y-66294000D03*
X61214000Y-64770000D03*
%TO.N,+5V*%
X86614000Y-76454000D03*
X86614000Y-69596000D03*
%TO.N,SD_CLK*%
X72898000Y-95504000D03*
X65278000Y-72898000D03*
%TO.N,SD_CMD*%
X75184000Y-95504000D03*
X65278000Y-71628000D03*
%TO.N,Net-(U3-EN)*%
X48260000Y-64008000D03*
X55372000Y-85090000D03*
X48260000Y-81026000D03*
%TO.N,I2S_LRC*%
X66802000Y-76708000D03*
X80772000Y-72390000D03*
X97028000Y-80264000D03*
X60960000Y-76708000D03*
%TO.N,I2S_DIN*%
X66802000Y-78740000D03*
X79756000Y-78740000D03*
X96774000Y-81534000D03*
X60960000Y-78740000D03*
%TO.N,I2S_BCLK*%
X66802000Y-77724000D03*
X60960000Y-77724000D03*
X79756000Y-77724000D03*
X94653460Y-80167076D03*
%TO.N,I2S_MUTE*%
X90424000Y-84328000D03*
X60960000Y-81534000D03*
X65278000Y-80518000D03*
X84582000Y-81534000D03*
%TO.N,Net-(IC1-RCLK)*%
X74676000Y-67564000D03*
X73406000Y-73152000D03*
%TO.N,GNDA*%
X86360000Y-92710000D03*
X96012000Y-95758000D03*
X85090000Y-93980000D03*
X91186000Y-95758000D03*
X82042000Y-107188000D03*
X96012000Y-90678000D03*
X86868000Y-96774000D03*
X88138000Y-95250000D03*
X89662000Y-93726000D03*
X91186000Y-92710000D03*
X83820000Y-95250000D03*
X91186000Y-94234000D03*
X91186000Y-97282000D03*
%TO.N,SD_D2*%
X80010000Y-95504000D03*
X65278000Y-69088000D03*
%TO.N,SD_D3*%
X77470000Y-95504000D03*
X65278000Y-70358000D03*
%TO.N,SD_D0*%
X65278000Y-74168000D03*
X70358000Y-95504000D03*
%TO.N,SD_D1*%
X65278000Y-75438000D03*
X67818000Y-95504000D03*
%TO.N,USB_D-*%
X58166000Y-96774000D03*
X60960000Y-85598000D03*
%TO.N,USB_D+*%
X62230000Y-84582000D03*
X55880000Y-96774000D03*
%TO.N,Net-(C15-Pad2)*%
X98044000Y-95758000D03*
X105410000Y-94996000D03*
%TO.N,Net-(C16-Pad2)*%
X104140000Y-99314000D03*
X99568000Y-99314000D03*
%TO.N,OUT_L*%
X91186000Y-87884000D03*
%TO.N,I2S_DEEM*%
X84582000Y-83820000D03*
X101092000Y-85852000D03*
%TD*%
M02*
