%TF.GenerationSoftware,KiCad,Pcbnew,7.0.9-7.0.9~ubuntu22.04.1*%
%TF.CreationDate,2023-12-09T20:31:49+01:00*%
%TF.ProjectId,mp3alarm,6d703361-6c61-4726-9d2e-6b696361645f,v0.2*%
%TF.SameCoordinates,Original*%
%TF.FileFunction,Copper,L2,Bot*%
%TF.FilePolarity,Positive*%
%FSLAX46Y46*%
G04 Gerber Fmt 4.6, Leading zero omitted, Abs format (unit mm)*
G04 Created by KiCad (PCBNEW 7.0.9-7.0.9~ubuntu22.04.1) date 2023-12-09 20:31:49*
%MOMM*%
%LPD*%
G01*
G04 APERTURE LIST*
%TA.AperFunction,ComponentPad*%
%ADD10R,1.700000X1.700000*%
%TD*%
%TA.AperFunction,ComponentPad*%
%ADD11O,1.700000X1.700000*%
%TD*%
%TA.AperFunction,ComponentPad*%
%ADD12O,1.300000X2.300000*%
%TD*%
%TA.AperFunction,ComponentPad*%
%ADD13O,1.300000X2.600000*%
%TD*%
%TA.AperFunction,ComponentPad*%
%ADD14C,6.400000*%
%TD*%
%TA.AperFunction,ComponentPad*%
%ADD15O,1.422400X2.844800*%
%TD*%
%TA.AperFunction,ComponentPad*%
%ADD16C,5.000000*%
%TD*%
%TA.AperFunction,ComponentPad*%
%ADD17C,4.000000*%
%TD*%
%TA.AperFunction,ViaPad*%
%ADD18C,0.800000*%
%TD*%
%TA.AperFunction,Conductor*%
%ADD19C,0.254000*%
%TD*%
%TA.AperFunction,Conductor*%
%ADD20C,0.635000*%
%TD*%
%TA.AperFunction,Conductor*%
%ADD21C,0.200000*%
%TD*%
G04 APERTURE END LIST*
D10*
%TO.P,J3,1,Pin_1*%
%TO.N,GND*%
X69088000Y-58425000D03*
D11*
%TO.P,J3,2,Pin_2*%
%TO.N,SW1*%
X69088000Y-55885000D03*
%TD*%
D10*
%TO.P,J5,1,Pin_1*%
%TO.N,SCL*%
X76962000Y-61722000D03*
D11*
%TO.P,J5,2,Pin_2*%
%TO.N,SDA*%
X79502000Y-61722000D03*
%TO.P,J5,3,Pin_3*%
%TO.N,GND*%
X82042000Y-61722000D03*
%TO.P,J5,4,Pin_4*%
%TO.N,VCC*%
X84582000Y-61722000D03*
%TD*%
D10*
%TO.P,J6,1,Pin_1*%
%TO.N,TM_CLK*%
X76761500Y-55880000D03*
D11*
%TO.P,J6,2,Pin_2*%
%TO.N,TM_DIO*%
X79301500Y-55880000D03*
%TO.P,J6,3,Pin_3*%
%TO.N,GND*%
X81841500Y-55880000D03*
%TO.P,J6,4,Pin_4*%
%TO.N,+5V*%
X84381500Y-55880000D03*
%TD*%
D10*
%TO.P,J2,1,Pin_1*%
%TO.N,GND*%
X72898000Y-58425000D03*
D11*
%TO.P,J2,2,Pin_2*%
%TO.N,SW0*%
X72898000Y-55885000D03*
%TD*%
D10*
%TO.P,J9,1,Pin_1*%
%TO.N,Net-(J9-Pin_1)*%
X88392000Y-56388000D03*
%TD*%
%TO.P,J1,1,Pin_1*%
%TO.N,OUT_L*%
X82042000Y-105156000D03*
D11*
%TO.P,J1,2,Pin_2*%
%TO.N,GNDA*%
X82042000Y-102616000D03*
%TO.P,J1,3,Pin_3*%
%TO.N,OUT_R*%
X82042000Y-100076000D03*
%TD*%
D10*
%TO.P,J8,1,Pin_1*%
%TO.N,GND*%
X108204000Y-64770000D03*
D11*
%TO.P,J8,2,Pin_2*%
%TO.N,+5V*%
X105664000Y-64770000D03*
%TD*%
D12*
%TO.P,J11,S1,SHIELD*%
%TO.N,GND*%
X53132000Y-102653000D03*
D13*
X53132000Y-106478000D03*
D12*
X61772000Y-102653000D03*
D13*
X61772000Y-106478000D03*
%TD*%
D14*
%TO.P,H2,1,1*%
%TO.N,GND*%
X48000000Y-104000000D03*
%TD*%
%TO.P,H4,1,1*%
%TO.N,GND*%
X107000000Y-58000000D03*
%TD*%
D15*
%TO.P,J4,R*%
%TO.N,OUT_R*%
X87020000Y-102879945D03*
%TO.P,J4,S*%
%TO.N,GNDA*%
X87020000Y-106079945D03*
X93320000Y-106079945D03*
%TO.P,J4,T*%
%TO.N,OUT_L*%
X87020000Y-99379945D03*
X93320000Y-99379945D03*
%TD*%
D14*
%TO.P,H3,1,1*%
%TO.N,GND*%
X107000000Y-104000000D03*
%TD*%
D16*
%TO.P,J10,1,In*%
%TO.N,Net-(J10-In)*%
X96774000Y-60706000D03*
D17*
%TO.P,J10,2,Ext*%
%TO.N,GND*%
X92659000Y-56591000D03*
X92659000Y-64821000D03*
X100889000Y-56591000D03*
X100889000Y-64821000D03*
%TD*%
D14*
%TO.P,H1,1,1*%
%TO.N,GND*%
X48000000Y-58000000D03*
%TD*%
D18*
%TO.N,GND*%
X50292000Y-92202000D03*
X94461762Y-82871459D03*
X50800000Y-68072000D03*
X104140000Y-89916000D03*
X81788000Y-79756000D03*
X84582000Y-72644000D03*
X71628000Y-92456000D03*
X61468000Y-87122000D03*
X57150000Y-98552000D03*
X68326000Y-63246000D03*
X61468000Y-88900000D03*
X82550000Y-82042000D03*
X56896000Y-80518000D03*
X72136000Y-98298000D03*
X66802000Y-106934000D03*
X77724000Y-76708000D03*
X84582000Y-73660000D03*
X78740000Y-83566000D03*
X60706000Y-101092000D03*
X77470000Y-104140000D03*
X72136000Y-104140000D03*
X76200000Y-92456000D03*
X68834000Y-98806000D03*
X60960000Y-80518000D03*
X65786000Y-66294000D03*
X53594000Y-86106000D03*
X78740000Y-92456000D03*
X78994000Y-65532000D03*
X77470000Y-102616000D03*
X87376000Y-82804000D03*
X59436000Y-98552000D03*
X83820000Y-88392000D03*
X54610000Y-71628000D03*
X74168000Y-87122000D03*
X106680000Y-89916000D03*
X71628000Y-87884000D03*
X83312000Y-79756000D03*
X50800000Y-64262000D03*
X98552000Y-77470000D03*
X81280000Y-92456000D03*
X72136000Y-102616000D03*
X79502000Y-98552000D03*
X84328000Y-69596000D03*
X73914000Y-65024000D03*
X54610000Y-98552000D03*
X79502000Y-106934000D03*
X45720000Y-92202000D03*
X69088000Y-92456000D03*
X109220000Y-89916000D03*
X61468000Y-90678000D03*
X87376000Y-77470000D03*
%TO.N,VCC*%
X93218000Y-75184000D03*
X65278000Y-65024000D03*
X74676000Y-73170500D03*
X66548000Y-93218000D03*
X98552000Y-75184000D03*
X63246000Y-92202000D03*
X63363502Y-84074000D03*
X74168000Y-92710000D03*
X91645000Y-72644000D03*
X75946000Y-63754000D03*
X74422000Y-102870000D03*
%TO.N,SDA*%
X68326000Y-68834000D03*
X72390000Y-70104000D03*
%TO.N,SCL*%
X70866000Y-66548000D03*
%TO.N,TM_CLK*%
X55880000Y-66294000D03*
X60101349Y-64673349D03*
%TO.N,TM_DIO*%
X57150000Y-66294000D03*
X61214000Y-64770000D03*
%TO.N,+5V*%
X86614000Y-76454000D03*
X86614000Y-69596000D03*
%TO.N,SD_CLK*%
X72898000Y-95504000D03*
X65278000Y-72898000D03*
%TO.N,SD_CMD*%
X75184000Y-95504000D03*
X65278000Y-71628000D03*
%TO.N,Net-(U3-EN)*%
X48260000Y-64008000D03*
X55372000Y-85090000D03*
X48260000Y-81026000D03*
%TO.N,I2S_LRC*%
X66802000Y-76708000D03*
X80772000Y-72390000D03*
X97028000Y-80264000D03*
X60960000Y-76708000D03*
%TO.N,I2S_DIN*%
X66802000Y-78740000D03*
X79756000Y-78740000D03*
X96774000Y-81534000D03*
X60960000Y-78740000D03*
%TO.N,I2S_BCLK*%
X66802000Y-77724000D03*
X60960000Y-77724000D03*
X79756000Y-77724000D03*
X94653460Y-80167076D03*
%TO.N,I2S_MUTE*%
X90424000Y-84328000D03*
X60960000Y-81534000D03*
X65278000Y-80518000D03*
X84582000Y-81534000D03*
%TO.N,Net-(IC1-RCLK)*%
X74676000Y-67564000D03*
X73406000Y-73152000D03*
%TO.N,GNDA*%
X86360000Y-92710000D03*
X96012000Y-95758000D03*
X85090000Y-93980000D03*
X91186000Y-95758000D03*
X82042000Y-107188000D03*
X96012000Y-90678000D03*
X86868000Y-96774000D03*
X88138000Y-95250000D03*
X89662000Y-93726000D03*
X91186000Y-92710000D03*
X83820000Y-95250000D03*
X91186000Y-94234000D03*
X91186000Y-97282000D03*
%TO.N,SD_D2*%
X80010000Y-95504000D03*
X65278000Y-69088000D03*
%TO.N,SD_D3*%
X77470000Y-95504000D03*
X65278000Y-70358000D03*
%TO.N,SD_D0*%
X65278000Y-74168000D03*
X70358000Y-95504000D03*
%TO.N,SD_D1*%
X65278000Y-75438000D03*
X67818000Y-95504000D03*
%TO.N,USB_D-*%
X58166000Y-96774000D03*
X60960000Y-85598000D03*
%TO.N,USB_D+*%
X62230000Y-84582000D03*
X55880000Y-96774000D03*
%TO.N,Net-(C15-Pad2)*%
X98044000Y-95758000D03*
X105410000Y-94996000D03*
%TO.N,Net-(C16-Pad2)*%
X104140000Y-99314000D03*
X99568000Y-99314000D03*
%TO.N,OUT_L*%
X91186000Y-87884000D03*
%TO.N,I2S_DEEM*%
X84582000Y-83820000D03*
X101092000Y-85852000D03*
%TD*%
D19*
%TO.N,GND*%
X107000000Y-90236000D02*
X106680000Y-89916000D01*
X107000000Y-104000000D02*
X107000000Y-90236000D01*
D20*
%TO.N,VCC*%
X64262000Y-93218000D02*
X66548000Y-93218000D01*
X60557591Y-82505500D02*
X58420000Y-80367909D01*
X74168000Y-92710000D02*
X74168000Y-90170000D01*
X75946000Y-63754000D02*
X75946000Y-71900500D01*
X63363502Y-84074000D02*
X61795002Y-82505500D01*
X61795002Y-82505500D02*
X60557591Y-82505500D01*
X75946000Y-71900500D02*
X74676000Y-73170500D01*
X58420000Y-71882000D02*
X65278000Y-65024000D01*
X58420000Y-80367909D02*
X58420000Y-71882000D01*
X82550000Y-63754000D02*
X84582000Y-61722000D01*
X74422000Y-102870000D02*
X74212500Y-102660500D01*
D19*
X93218000Y-75184000D02*
X98552000Y-75184000D01*
D20*
X63246000Y-92202000D02*
X64262000Y-93218000D01*
X75946000Y-63754000D02*
X82550000Y-63754000D01*
X74212500Y-102660500D02*
X74212500Y-92754500D01*
X74212500Y-92754500D02*
X74168000Y-92710000D01*
D19*
%TO.N,SDA*%
X68326000Y-68834000D02*
X69596000Y-70104000D01*
X69596000Y-70104000D02*
X72390000Y-70104000D01*
%TO.N,SCL*%
X70866000Y-66548000D02*
X70866000Y-65532000D01*
X70866000Y-65532000D02*
X74676000Y-61722000D01*
X74676000Y-61722000D02*
X76962000Y-61722000D01*
%TO.N,TM_CLK*%
X55880000Y-65278000D02*
X55880000Y-66294000D01*
X56642000Y-64516000D02*
X55880000Y-65278000D01*
X60101349Y-64673349D02*
X59944000Y-64516000D01*
X59944000Y-64516000D02*
X56642000Y-64516000D01*
%TO.N,TM_DIO*%
X61214000Y-64770000D02*
X59690000Y-66294000D01*
X59690000Y-66294000D02*
X57150000Y-66294000D01*
D20*
%TO.N,+5V*%
X87122000Y-64770000D02*
X87122000Y-58620500D01*
X86614000Y-65278000D02*
X87122000Y-64770000D01*
X87122000Y-58620500D02*
X84381500Y-55880000D01*
X86614000Y-76454000D02*
X86614000Y-65278000D01*
D19*
%TO.N,SD_CLK*%
X72898000Y-78740000D02*
X72898000Y-95504000D01*
X67056000Y-72898000D02*
X72898000Y-78740000D01*
X65278000Y-72898000D02*
X67056000Y-72898000D01*
%TO.N,SD_CMD*%
X75184000Y-79756000D02*
X75184000Y-95504000D01*
X65278000Y-71628000D02*
X67056000Y-71628000D01*
X67056000Y-71628000D02*
X75184000Y-79756000D01*
%TO.N,Net-(U3-EN)*%
X54610000Y-85090000D02*
X50546000Y-81026000D01*
X50546000Y-81026000D02*
X48260000Y-81026000D01*
X48260000Y-64008000D02*
X48260000Y-81026000D01*
X55372000Y-85090000D02*
X54610000Y-85090000D01*
%TO.N,I2S_LRC*%
X87895076Y-79513076D02*
X96277076Y-79513076D01*
X96277076Y-79513076D02*
X97028000Y-80264000D01*
X80772000Y-72390000D02*
X87895076Y-79513076D01*
X60960000Y-76708000D02*
X66802000Y-76708000D01*
%TO.N,I2S_DIN*%
X87376000Y-81534000D02*
X96774000Y-81534000D01*
X79756000Y-78740000D02*
X84582000Y-78740000D01*
X86614000Y-80772000D02*
X87376000Y-81534000D01*
X60960000Y-78740000D02*
X66802000Y-78740000D01*
X84582000Y-78740000D02*
X86614000Y-80772000D01*
%TO.N,I2S_BCLK*%
X79756000Y-77724000D02*
X85344000Y-77724000D01*
X60960000Y-77724000D02*
X66802000Y-77724000D01*
X87630000Y-80010000D02*
X94496384Y-80010000D01*
X94496384Y-80010000D02*
X94653460Y-80167076D01*
X85344000Y-77724000D02*
X87630000Y-80010000D01*
%TO.N,I2S_MUTE*%
X87376000Y-84328000D02*
X90424000Y-84328000D01*
X84582000Y-81534000D02*
X87376000Y-84328000D01*
X61976000Y-80518000D02*
X60960000Y-81534000D01*
X65278000Y-80518000D02*
X61976000Y-80518000D01*
%TO.N,Net-(IC1-RCLK)*%
X74676000Y-67564000D02*
X74676000Y-71882000D01*
X74676000Y-71882000D02*
X73406000Y-73152000D01*
%TO.N,SD_D2*%
X80010000Y-82042000D02*
X80010000Y-95504000D01*
X67056000Y-69088000D02*
X80010000Y-82042000D01*
X65278000Y-69088000D02*
X67056000Y-69088000D01*
%TO.N,SD_D3*%
X65278000Y-70358000D02*
X67056000Y-70358000D01*
X67056000Y-70358000D02*
X77470000Y-80772000D01*
X77470000Y-80772000D02*
X77470000Y-95504000D01*
%TO.N,SD_D0*%
X67056000Y-74168000D02*
X70358000Y-77470000D01*
X70358000Y-77470000D02*
X70358000Y-95504000D01*
X65278000Y-74168000D02*
X67056000Y-74168000D01*
%TO.N,SD_D1*%
X66456896Y-75438000D02*
X67818000Y-76799104D01*
X67818000Y-76799104D02*
X67818000Y-95504000D01*
X65278000Y-75438000D02*
X66456896Y-75438000D01*
D21*
%TO.N,USB_D-*%
X58166000Y-92964000D02*
X58166000Y-88392000D01*
X58166000Y-92964000D02*
X58166000Y-96774000D01*
X58166000Y-88392000D02*
X60960000Y-85598000D01*
%TO.N,USB_D+*%
X60835288Y-84582000D02*
X62230000Y-84582000D01*
X55880000Y-89537288D02*
X60835288Y-84582000D01*
X55880000Y-92964000D02*
X55880000Y-89537288D01*
X55880000Y-92964000D02*
X55880000Y-96774000D01*
D19*
%TO.N,Net-(C15-Pad2)*%
X98044000Y-95758000D02*
X103886000Y-95758000D01*
X103886000Y-95758000D02*
X104648000Y-95758000D01*
X104648000Y-95758000D02*
X105410000Y-94996000D01*
%TO.N,Net-(C16-Pad2)*%
X99568000Y-99314000D02*
X104140000Y-99314000D01*
%TO.N,OUT_L*%
X93218000Y-99277945D02*
X93218000Y-89916000D01*
X84328000Y-101309945D02*
X86258000Y-99379945D01*
X84074000Y-105156000D02*
X84328000Y-104902000D01*
X84328000Y-104902000D02*
X84328000Y-101309945D01*
X92115945Y-100584000D02*
X93320000Y-99379945D01*
X93320000Y-99379945D02*
X93218000Y-99277945D01*
X93218000Y-89916000D02*
X91186000Y-87884000D01*
X82042000Y-105156000D02*
X84074000Y-105156000D01*
X87020000Y-99379945D02*
X88224055Y-100584000D01*
X88224055Y-100584000D02*
X92115945Y-100584000D01*
X86258000Y-99379945D02*
X87020000Y-99379945D01*
%TO.N,I2S_DEEM*%
X84582000Y-83820000D02*
X86614000Y-85852000D01*
X86614000Y-85852000D02*
X101092000Y-85852000D01*
%TD*%
%TA.AperFunction,Conductor*%
%TO.N,GND*%
G36*
X73742012Y-79213198D02*
G01*
X73748595Y-79219327D01*
X74511595Y-79982327D01*
X74545621Y-80044639D01*
X74548500Y-80071422D01*
X74548500Y-89247592D01*
X74528498Y-89315713D01*
X74474842Y-89362206D01*
X74404568Y-89372310D01*
X74392470Y-89369772D01*
X74212982Y-89340348D01*
X74212978Y-89340347D01*
X74048259Y-89349278D01*
X74033580Y-89350074D01*
X74033578Y-89350074D01*
X74033574Y-89350075D01*
X73860468Y-89398137D01*
X73860465Y-89398139D01*
X73718519Y-89473393D01*
X73648964Y-89487629D01*
X73582754Y-89462000D01*
X73540911Y-89404645D01*
X73533500Y-89362070D01*
X73533500Y-79308422D01*
X73553502Y-79240301D01*
X73607158Y-79193808D01*
X73677432Y-79183704D01*
X73742012Y-79213198D01*
G37*
%TD.AperFunction*%
%TA.AperFunction,Conductor*%
G36*
X91733408Y-54045502D02*
G01*
X91779901Y-54099158D01*
X91790005Y-54169432D01*
X91760511Y-54234012D01*
X91711671Y-54268652D01*
X91589034Y-54317207D01*
X91312485Y-54469241D01*
X91071521Y-54644310D01*
X91071521Y-54644312D01*
X91792538Y-55365329D01*
X91734523Y-55403232D01*
X91551632Y-55571596D01*
X91432914Y-55724123D01*
X90715043Y-55006252D01*
X90715042Y-55006252D01*
X90625971Y-55113921D01*
X90625969Y-55113924D01*
X90456882Y-55380363D01*
X90456875Y-55380377D01*
X90322513Y-55665911D01*
X90322509Y-55665920D01*
X90224992Y-55966044D01*
X90224989Y-55966057D01*
X90165856Y-56276038D01*
X90165854Y-56276055D01*
X90146041Y-56590993D01*
X90146041Y-56591006D01*
X90165854Y-56905944D01*
X90165856Y-56905961D01*
X90224989Y-57215942D01*
X90224992Y-57215955D01*
X90322509Y-57516079D01*
X90322513Y-57516088D01*
X90456875Y-57801622D01*
X90456882Y-57801636D01*
X90625966Y-58068071D01*
X90625969Y-58068075D01*
X90715043Y-58175746D01*
X91432913Y-57457875D01*
X91551632Y-57610404D01*
X91734523Y-57778768D01*
X91792537Y-57816670D01*
X91071521Y-58537686D01*
X91071521Y-58537688D01*
X91312486Y-58712759D01*
X91589034Y-58864792D01*
X91882460Y-58980968D01*
X91882466Y-58980970D01*
X92188103Y-59059444D01*
X92188130Y-59059449D01*
X92501195Y-59098998D01*
X92501214Y-59099000D01*
X92816786Y-59099000D01*
X92816804Y-59098998D01*
X93129869Y-59059449D01*
X93129896Y-59059444D01*
X93435533Y-58980970D01*
X93435539Y-58980968D01*
X93728965Y-58864792D01*
X94005517Y-58712756D01*
X94246477Y-58537688D01*
X94246477Y-58537686D01*
X93525461Y-57816670D01*
X93583477Y-57778768D01*
X93766368Y-57610404D01*
X93885085Y-57457876D01*
X94602955Y-58175746D01*
X94602956Y-58175745D01*
X94692026Y-58068080D01*
X94692029Y-58068076D01*
X94861117Y-57801636D01*
X94861124Y-57801622D01*
X94995486Y-57516088D01*
X94995490Y-57516079D01*
X95093007Y-57215955D01*
X95093010Y-57215942D01*
X95152143Y-56905961D01*
X95152145Y-56905944D01*
X95171959Y-56591006D01*
X95171959Y-56590993D01*
X95152145Y-56276055D01*
X95152143Y-56276038D01*
X95093010Y-55966057D01*
X95093007Y-55966044D01*
X94995490Y-55665920D01*
X94995486Y-55665911D01*
X94861124Y-55380377D01*
X94861117Y-55380363D01*
X94692033Y-55113928D01*
X94692030Y-55113924D01*
X94602955Y-55006252D01*
X93885084Y-55724122D01*
X93766368Y-55571596D01*
X93583477Y-55403232D01*
X93525461Y-55365328D01*
X94246477Y-54644312D01*
X94246477Y-54644310D01*
X94005513Y-54469240D01*
X93728965Y-54317207D01*
X93606329Y-54268652D01*
X93550355Y-54224977D01*
X93526879Y-54157974D01*
X93543355Y-54088916D01*
X93594551Y-54039727D01*
X93652713Y-54025500D01*
X99895287Y-54025500D01*
X99963408Y-54045502D01*
X100009901Y-54099158D01*
X100020005Y-54169432D01*
X99990511Y-54234012D01*
X99941671Y-54268652D01*
X99819034Y-54317207D01*
X99542485Y-54469241D01*
X99301521Y-54644310D01*
X99301521Y-54644312D01*
X100022538Y-55365329D01*
X99964523Y-55403232D01*
X99781632Y-55571596D01*
X99662914Y-55724123D01*
X98945043Y-55006252D01*
X98945042Y-55006252D01*
X98855971Y-55113921D01*
X98855969Y-55113924D01*
X98686882Y-55380363D01*
X98686875Y-55380377D01*
X98552513Y-55665911D01*
X98552509Y-55665920D01*
X98454992Y-55966044D01*
X98454989Y-55966057D01*
X98395856Y-56276038D01*
X98395854Y-56276055D01*
X98376041Y-56590993D01*
X98376041Y-56591006D01*
X98395854Y-56905944D01*
X98395856Y-56905961D01*
X98454989Y-57215942D01*
X98454992Y-57215955D01*
X98552509Y-57516079D01*
X98552513Y-57516088D01*
X98686875Y-57801622D01*
X98686882Y-57801636D01*
X98855966Y-58068071D01*
X98855969Y-58068075D01*
X98945043Y-58175746D01*
X99662913Y-57457875D01*
X99781632Y-57610404D01*
X99964523Y-57778768D01*
X100022537Y-57816670D01*
X99301521Y-58537686D01*
X99301521Y-58537688D01*
X99542486Y-58712759D01*
X99819034Y-58864792D01*
X100112460Y-58980968D01*
X100112466Y-58980970D01*
X100418103Y-59059444D01*
X100418130Y-59059449D01*
X100731195Y-59098998D01*
X100731214Y-59099000D01*
X101046786Y-59099000D01*
X101046804Y-59098998D01*
X101359869Y-59059449D01*
X101359896Y-59059444D01*
X101665533Y-58980970D01*
X101665539Y-58980968D01*
X101958965Y-58864792D01*
X102235517Y-58712756D01*
X102476477Y-58537688D01*
X102476477Y-58537686D01*
X101755461Y-57816670D01*
X101813477Y-57778768D01*
X101996368Y-57610404D01*
X102115085Y-57457876D01*
X102832955Y-58175746D01*
X102832956Y-58175745D01*
X102922026Y-58068080D01*
X102922029Y-58068076D01*
X103058518Y-57853004D01*
X103111907Y-57806205D01*
X103182122Y-57795700D01*
X103246870Y-57824824D01*
X103285594Y-57884330D01*
X103290730Y-57927111D01*
X103286911Y-57999992D01*
X103286911Y-58000006D01*
X103307250Y-58388114D01*
X103368051Y-58771995D01*
X103468644Y-59147414D01*
X103607919Y-59510239D01*
X103607923Y-59510247D01*
X103784365Y-59856535D01*
X103784369Y-59856541D01*
X103996042Y-60182491D01*
X103996054Y-60182508D01*
X104202876Y-60437911D01*
X104202877Y-60437912D01*
X105699994Y-58940794D01*
X105701570Y-58943365D01*
X105865130Y-59134870D01*
X106056635Y-59298430D01*
X106059203Y-59300004D01*
X104562086Y-60797121D01*
X104562087Y-60797122D01*
X104817491Y-61003945D01*
X104817508Y-61003957D01*
X105143458Y-61215630D01*
X105143464Y-61215634D01*
X105489752Y-61392076D01*
X105489760Y-61392080D01*
X105852585Y-61531355D01*
X106228004Y-61631948D01*
X106611885Y-61692749D01*
X106999994Y-61713089D01*
X107000006Y-61713089D01*
X107388114Y-61692749D01*
X107771995Y-61631948D01*
X108147414Y-61531355D01*
X108510239Y-61392080D01*
X108510247Y-61392076D01*
X108856535Y-61215634D01*
X108856541Y-61215630D01*
X109182501Y-61003950D01*
X109437912Y-60797121D01*
X107940795Y-59300004D01*
X107943365Y-59298430D01*
X108134870Y-59134870D01*
X108298430Y-58943365D01*
X108300004Y-58940795D01*
X109797121Y-60437912D01*
X110003950Y-60182501D01*
X110215630Y-59856541D01*
X110215634Y-59856535D01*
X110392076Y-59510247D01*
X110392080Y-59510239D01*
X110531355Y-59147414D01*
X110631948Y-58771995D01*
X110692749Y-58388114D01*
X110713089Y-58000006D01*
X110713089Y-57999993D01*
X110692749Y-57611885D01*
X110631948Y-57228004D01*
X110531355Y-56852585D01*
X110392080Y-56489760D01*
X110392076Y-56489752D01*
X110215628Y-56143455D01*
X110003957Y-55817508D01*
X110003945Y-55817491D01*
X109797122Y-55562087D01*
X109797121Y-55562086D01*
X108300004Y-57059203D01*
X108298430Y-57056635D01*
X108134870Y-56865130D01*
X107943365Y-56701570D01*
X107940795Y-56699995D01*
X109437912Y-55202877D01*
X109437911Y-55202876D01*
X109182508Y-54996054D01*
X109182491Y-54996042D01*
X108856541Y-54784369D01*
X108856535Y-54784365D01*
X108510247Y-54607923D01*
X108510239Y-54607919D01*
X108147414Y-54468644D01*
X107771995Y-54368051D01*
X107388114Y-54307250D01*
X107000006Y-54286911D01*
X106999994Y-54286911D01*
X106611885Y-54307250D01*
X106228004Y-54368051D01*
X105852585Y-54468644D01*
X105489760Y-54607919D01*
X105489752Y-54607923D01*
X105143455Y-54784371D01*
X104817502Y-54996047D01*
X104562086Y-55202877D01*
X106059204Y-56699995D01*
X106056635Y-56701570D01*
X105865130Y-56865130D01*
X105701570Y-57056635D01*
X105699995Y-57059204D01*
X104202877Y-55562086D01*
X103996047Y-55817502D01*
X103784371Y-56143455D01*
X103628024Y-56450301D01*
X103579275Y-56501916D01*
X103510360Y-56518982D01*
X103443159Y-56496081D01*
X103399007Y-56440483D01*
X103390006Y-56401009D01*
X103382145Y-56276054D01*
X103382143Y-56276038D01*
X103323010Y-55966057D01*
X103323007Y-55966044D01*
X103225490Y-55665920D01*
X103225486Y-55665911D01*
X103091124Y-55380377D01*
X103091117Y-55380363D01*
X102922033Y-55113928D01*
X102922030Y-55113924D01*
X102832955Y-55006252D01*
X102115084Y-55724122D01*
X101996368Y-55571596D01*
X101813477Y-55403232D01*
X101755461Y-55365328D01*
X102476477Y-54644312D01*
X102476477Y-54644310D01*
X102235513Y-54469240D01*
X101958965Y-54317207D01*
X101836329Y-54268652D01*
X101780355Y-54224977D01*
X101756879Y-54157974D01*
X101773355Y-54088916D01*
X101824551Y-54039727D01*
X101882713Y-54025500D01*
X107991715Y-54025500D01*
X107998356Y-54025500D01*
X108001628Y-54025585D01*
X108307627Y-54041622D01*
X108314177Y-54042311D01*
X108615169Y-54089983D01*
X108621623Y-54091354D01*
X108915985Y-54170228D01*
X108922246Y-54172262D01*
X109206758Y-54281476D01*
X109212779Y-54284157D01*
X109348544Y-54353333D01*
X109484308Y-54422508D01*
X109490023Y-54425808D01*
X109745604Y-54591785D01*
X109750923Y-54595649D01*
X109987776Y-54787448D01*
X109992665Y-54791852D01*
X110208147Y-55007334D01*
X110212552Y-55012224D01*
X110404348Y-55249073D01*
X110408218Y-55254400D01*
X110574191Y-55509976D01*
X110577491Y-55515691D01*
X110715841Y-55787219D01*
X110718525Y-55793247D01*
X110827733Y-56077742D01*
X110829772Y-56084018D01*
X110908644Y-56378375D01*
X110910016Y-56384830D01*
X110957688Y-56685822D01*
X110958378Y-56692384D01*
X110961228Y-56746762D01*
X110974414Y-56998372D01*
X110974500Y-57001643D01*
X110974500Y-90038500D01*
X110954498Y-90106621D01*
X110900842Y-90153114D01*
X110848500Y-90164500D01*
X109749794Y-90164500D01*
X109735393Y-90164911D01*
X109720740Y-90165539D01*
X109720737Y-90165539D01*
X109637873Y-90182328D01*
X109577493Y-90194561D01*
X109577490Y-90194561D01*
X109577490Y-90194562D01*
X109577481Y-90194564D01*
X109515111Y-90216816D01*
X109514240Y-90217128D01*
X109511689Y-90218038D01*
X109511621Y-90218061D01*
X109511613Y-90218064D01*
X109507626Y-90220169D01*
X109503844Y-90222006D01*
X109354830Y-90288349D01*
X109329783Y-90296488D01*
X109314000Y-90299843D01*
X109274467Y-90308246D01*
X109248272Y-90311000D01*
X109191728Y-90311000D01*
X109165530Y-90308246D01*
X109132049Y-90301129D01*
X109110216Y-90296488D01*
X109085167Y-90288349D01*
X108977793Y-90240544D01*
X108972106Y-90238012D01*
X108936411Y-90222120D01*
X108921182Y-90217129D01*
X108906842Y-90210580D01*
X108894596Y-90204987D01*
X108894587Y-90204984D01*
X108827560Y-90185302D01*
X108827554Y-90185301D01*
X108827550Y-90185300D01*
X108682880Y-90164500D01*
X107759500Y-90164500D01*
X107759492Y-90164500D01*
X107665604Y-90174595D01*
X107650343Y-90176236D01*
X107650341Y-90176236D01*
X107650335Y-90176237D01*
X107598832Y-90187441D01*
X107494674Y-90222109D01*
X107371715Y-90301130D01*
X107371713Y-90301131D01*
X107318917Y-90346880D01*
X107223204Y-90457337D01*
X107223203Y-90457338D01*
X107162486Y-90590285D01*
X107142800Y-90657325D01*
X107142800Y-90657328D01*
X107121464Y-90805723D01*
X107091971Y-90870304D01*
X107032245Y-90908687D01*
X106961249Y-90908687D01*
X106901522Y-90870303D01*
X106872206Y-90806910D01*
X106871452Y-90802000D01*
X106855794Y-90699998D01*
X106855792Y-90699993D01*
X106855792Y-90699989D01*
X106836169Y-90635442D01*
X106835687Y-90633607D01*
X106815401Y-90590285D01*
X106773492Y-90500783D01*
X106676732Y-90391241D01*
X106623497Y-90345993D01*
X106499796Y-90268149D01*
X106432107Y-90238012D01*
X106432106Y-90238012D01*
X106396400Y-90222115D01*
X106381175Y-90217125D01*
X106354598Y-90204987D01*
X106287560Y-90185302D01*
X106287554Y-90185301D01*
X106287550Y-90185300D01*
X106142880Y-90164500D01*
X104669794Y-90164500D01*
X104655393Y-90164911D01*
X104640740Y-90165539D01*
X104640737Y-90165539D01*
X104557873Y-90182328D01*
X104497493Y-90194561D01*
X104497490Y-90194561D01*
X104497490Y-90194562D01*
X104497481Y-90194564D01*
X104435111Y-90216816D01*
X104434240Y-90217128D01*
X104431689Y-90218038D01*
X104431621Y-90218061D01*
X104431613Y-90218064D01*
X104427626Y-90220169D01*
X104423844Y-90222006D01*
X104274830Y-90288349D01*
X104249783Y-90296488D01*
X104234000Y-90299843D01*
X104194467Y-90308246D01*
X104168272Y-90311000D01*
X104111728Y-90311000D01*
X104085530Y-90308246D01*
X104052049Y-90301129D01*
X104030216Y-90296488D01*
X104005167Y-90288349D01*
X103897793Y-90240544D01*
X103892106Y-90238012D01*
X103856411Y-90222120D01*
X103841182Y-90217129D01*
X103826842Y-90210580D01*
X103814596Y-90204987D01*
X103814587Y-90204984D01*
X103747560Y-90185302D01*
X103747554Y-90185301D01*
X103747550Y-90185300D01*
X103602880Y-90164500D01*
X103602876Y-90164500D01*
X102493500Y-90164500D01*
X102425379Y-90144498D01*
X102378886Y-90090842D01*
X102367500Y-90038500D01*
X102367500Y-86736007D01*
X102356630Y-86630920D01*
X102356630Y-86630916D01*
X102346241Y-86581231D01*
X102314087Y-86480576D01*
X102305540Y-86466793D01*
X102257373Y-86389117D01*
X102237062Y-86356362D01*
X102237059Y-86356358D01*
X102237057Y-86356355D01*
X102192170Y-86302832D01*
X102192159Y-86302821D01*
X102083266Y-86205346D01*
X102083264Y-86205344D01*
X102052470Y-86190676D01*
X101999572Y-86143323D01*
X101980672Y-86074888D01*
X101985059Y-86048574D01*
X101984170Y-86048385D01*
X101985542Y-86041930D01*
X101990106Y-85998500D01*
X102005504Y-85852000D01*
X101985542Y-85662072D01*
X101926527Y-85480444D01*
X101831040Y-85315056D01*
X101831038Y-85315054D01*
X101831034Y-85315048D01*
X101703255Y-85173135D01*
X101548752Y-85060882D01*
X101374288Y-84983206D01*
X101187487Y-84943500D01*
X100996513Y-84943500D01*
X100809711Y-84983206D01*
X100635247Y-85060882D01*
X100480745Y-85173135D01*
X100479239Y-85174808D01*
X100478123Y-85175495D01*
X100475837Y-85177554D01*
X100475460Y-85177135D01*
X100418794Y-85212049D01*
X100385601Y-85216500D01*
X91129499Y-85216500D01*
X91061378Y-85196498D01*
X91014885Y-85142842D01*
X91004781Y-85072568D01*
X91034275Y-85007988D01*
X91035863Y-85006190D01*
X91163034Y-84864951D01*
X91163035Y-84864949D01*
X91163040Y-84864944D01*
X91258527Y-84699556D01*
X91317542Y-84517928D01*
X91337504Y-84328000D01*
X91317542Y-84138072D01*
X91258527Y-83956444D01*
X91163040Y-83791056D01*
X91163038Y-83791054D01*
X91163034Y-83791048D01*
X91035255Y-83649135D01*
X90880752Y-83536882D01*
X90706288Y-83459206D01*
X90519487Y-83419500D01*
X90328513Y-83419500D01*
X90141711Y-83459206D01*
X89967247Y-83536882D01*
X89812745Y-83649135D01*
X89811239Y-83650808D01*
X89810123Y-83651495D01*
X89807837Y-83653554D01*
X89807460Y-83653135D01*
X89750794Y-83688049D01*
X89717601Y-83692500D01*
X87691423Y-83692500D01*
X87623302Y-83672498D01*
X87602328Y-83655595D01*
X85528789Y-81582056D01*
X85494763Y-81519744D01*
X85492576Y-81506146D01*
X85475542Y-81344072D01*
X85416527Y-81162444D01*
X85321040Y-80997056D01*
X85321038Y-80997054D01*
X85321034Y-80997048D01*
X85193255Y-80855135D01*
X85038752Y-80742882D01*
X84864288Y-80665206D01*
X84677487Y-80625500D01*
X84486513Y-80625500D01*
X84299711Y-80665206D01*
X84125247Y-80742882D01*
X83970744Y-80855135D01*
X83842965Y-80997048D01*
X83842958Y-80997058D01*
X83747476Y-81162438D01*
X83747473Y-81162444D01*
X83736289Y-81196864D01*
X83688457Y-81344072D01*
X83668496Y-81534000D01*
X83688457Y-81723927D01*
X83714938Y-81805425D01*
X83747473Y-81905556D01*
X83768396Y-81941795D01*
X83842958Y-82070941D01*
X83842965Y-82070951D01*
X83970744Y-82212864D01*
X83970747Y-82212866D01*
X84125248Y-82325118D01*
X84299712Y-82402794D01*
X84486513Y-82442500D01*
X84539578Y-82442500D01*
X84607699Y-82462502D01*
X84628673Y-82479405D01*
X84863446Y-82714178D01*
X84897472Y-82776490D01*
X84892407Y-82847305D01*
X84849860Y-82904141D01*
X84783340Y-82928952D01*
X84748155Y-82926520D01*
X84677489Y-82911500D01*
X84677487Y-82911500D01*
X84486513Y-82911500D01*
X84299711Y-82951206D01*
X84125247Y-83028882D01*
X83970744Y-83141135D01*
X83842965Y-83283048D01*
X83842958Y-83283058D01*
X83747476Y-83448438D01*
X83747473Y-83448445D01*
X83688457Y-83630072D01*
X83668496Y-83820000D01*
X83688457Y-84009927D01*
X83701632Y-84050474D01*
X83747473Y-84191556D01*
X83775841Y-84240691D01*
X83842958Y-84356941D01*
X83842965Y-84356951D01*
X83970744Y-84498864D01*
X83970747Y-84498866D01*
X84125248Y-84611118D01*
X84299712Y-84688794D01*
X84486513Y-84728500D01*
X84539578Y-84728500D01*
X84607699Y-84748502D01*
X84628673Y-84765405D01*
X85720636Y-85857369D01*
X85754662Y-85919681D01*
X85749597Y-85990497D01*
X85717030Y-86039025D01*
X85669472Y-86082948D01*
X84327769Y-87734277D01*
X84327763Y-87734285D01*
X84268402Y-87825689D01*
X84244721Y-87872348D01*
X84244717Y-87872358D01*
X84205985Y-87974220D01*
X84189327Y-88119420D01*
X84189327Y-88119423D01*
X84191323Y-88189264D01*
X84191323Y-88189272D01*
X84202535Y-88254056D01*
X84203113Y-88258216D01*
X84215790Y-88378830D01*
X84215790Y-88405169D01*
X84209880Y-88461405D01*
X84204403Y-88487173D01*
X84186930Y-88540948D01*
X84176216Y-88565011D01*
X84147941Y-88613985D01*
X84132458Y-88635295D01*
X84094623Y-88677315D01*
X84075047Y-88694942D01*
X84029298Y-88728180D01*
X84006488Y-88741349D01*
X83954830Y-88764349D01*
X83929778Y-88772489D01*
X83874468Y-88784246D01*
X83848272Y-88787000D01*
X83775861Y-88787000D01*
X83694743Y-88793448D01*
X83694744Y-88793448D01*
X83656052Y-88799638D01*
X83576971Y-88818819D01*
X83446019Y-88883713D01*
X83446013Y-88883716D01*
X83388458Y-88923336D01*
X83281088Y-89022500D01*
X82827064Y-89581299D01*
X82428719Y-90071570D01*
X82420042Y-90082877D01*
X82407802Y-90099778D01*
X82402710Y-90107234D01*
X82391749Y-90123287D01*
X82391747Y-90123290D01*
X82348449Y-90218062D01*
X82338434Y-90239984D01*
X82331009Y-90256235D01*
X82311336Y-90323200D01*
X82311314Y-90323268D01*
X82290493Y-90467932D01*
X82289509Y-96914560D01*
X82269497Y-96982678D01*
X82215834Y-97029163D01*
X82210304Y-97031529D01*
X80277590Y-97804615D01*
X80259683Y-97812583D01*
X80233934Y-97825239D01*
X80199475Y-97843839D01*
X80199468Y-97843843D01*
X80085449Y-97935279D01*
X80085441Y-97935286D01*
X80037717Y-97986302D01*
X80037713Y-97986307D01*
X79954074Y-98106161D01*
X79907588Y-98244727D01*
X79907585Y-98244736D01*
X79895897Y-98308649D01*
X79895881Y-98308712D01*
X79895018Y-98313457D01*
X79889454Y-98459510D01*
X79897790Y-98538831D01*
X79897790Y-98565169D01*
X79891880Y-98621405D01*
X79886403Y-98647174D01*
X79868929Y-98700951D01*
X79858216Y-98725011D01*
X79834860Y-98765465D01*
X79834850Y-98765486D01*
X79783553Y-98889324D01*
X79783551Y-98889330D01*
X79766937Y-98951336D01*
X79749443Y-99084226D01*
X79749443Y-106401771D01*
X79766938Y-106534664D01*
X79781325Y-106588359D01*
X79783553Y-106596672D01*
X79805670Y-106650067D01*
X79834854Y-106720520D01*
X79858215Y-106760983D01*
X79868928Y-106785044D01*
X79886403Y-106838824D01*
X79891880Y-106864593D01*
X79897790Y-106920830D01*
X79897790Y-106947168D01*
X79891880Y-107003405D01*
X79886403Y-107029174D01*
X79868929Y-107082951D01*
X79858216Y-107107011D01*
X79834860Y-107147465D01*
X79834850Y-107147486D01*
X79783553Y-107271324D01*
X79783551Y-107271330D01*
X79766937Y-107333336D01*
X79749443Y-107466226D01*
X79749443Y-107848500D01*
X79729441Y-107916621D01*
X79675785Y-107963114D01*
X79623443Y-107974500D01*
X62836891Y-107974500D01*
X62768770Y-107954498D01*
X62722277Y-107900842D01*
X62712173Y-107830568D01*
X62736341Y-107772568D01*
X62760769Y-107740220D01*
X62760772Y-107740215D01*
X62856426Y-107548115D01*
X62856429Y-107548109D01*
X62915159Y-107341692D01*
X62915159Y-107341688D01*
X62930000Y-107181540D01*
X62930000Y-106732000D01*
X62072000Y-106732000D01*
X62072000Y-106224000D01*
X62930000Y-106224000D01*
X62930000Y-105774459D01*
X62915159Y-105614311D01*
X62915159Y-105614307D01*
X62856429Y-105407890D01*
X62856426Y-105407884D01*
X62760772Y-105215784D01*
X62760768Y-105215779D01*
X62631437Y-105044516D01*
X62472840Y-104899936D01*
X62472839Y-104899935D01*
X62290387Y-104786966D01*
X62290371Y-104786958D01*
X62090260Y-104709434D01*
X62090258Y-104709433D01*
X62026000Y-104697420D01*
X62026000Y-105668349D01*
X61997543Y-105622390D01*
X61908038Y-105554799D01*
X61800160Y-105524105D01*
X61688479Y-105534454D01*
X61588078Y-105584448D01*
X61518000Y-105661318D01*
X61518000Y-104697420D01*
X61517999Y-104697420D01*
X61453741Y-104709433D01*
X61453739Y-104709434D01*
X61253628Y-104786958D01*
X61253612Y-104786966D01*
X61071160Y-104899935D01*
X61071159Y-104899936D01*
X60912562Y-105044516D01*
X60783231Y-105215779D01*
X60783227Y-105215784D01*
X60687573Y-105407884D01*
X60687570Y-105407890D01*
X60628840Y-105614307D01*
X60628840Y-105614311D01*
X60614000Y-105774459D01*
X60614000Y-106224000D01*
X61472000Y-106224000D01*
X61472000Y-106732000D01*
X60614000Y-106732000D01*
X60614000Y-107181540D01*
X60628840Y-107341688D01*
X60628840Y-107341692D01*
X60687570Y-107548109D01*
X60687573Y-107548115D01*
X60783227Y-107740215D01*
X60783230Y-107740220D01*
X60807659Y-107772568D01*
X60832749Y-107838983D01*
X60817949Y-107908420D01*
X60767959Y-107958833D01*
X60707109Y-107974500D01*
X54196891Y-107974500D01*
X54128770Y-107954498D01*
X54082277Y-107900842D01*
X54072173Y-107830568D01*
X54096341Y-107772568D01*
X54120769Y-107740220D01*
X54120772Y-107740215D01*
X54216426Y-107548115D01*
X54216429Y-107548109D01*
X54275159Y-107341692D01*
X54275159Y-107341688D01*
X54290000Y-107181540D01*
X54290000Y-106732000D01*
X53432000Y-106732000D01*
X53432000Y-106224000D01*
X54290000Y-106224000D01*
X54290000Y-105774459D01*
X54275159Y-105614311D01*
X54275159Y-105614307D01*
X54216429Y-105407890D01*
X54216426Y-105407884D01*
X54120772Y-105215784D01*
X54120768Y-105215779D01*
X53991437Y-105044516D01*
X53832840Y-104899936D01*
X53832839Y-104899935D01*
X53650387Y-104786966D01*
X53650371Y-104786958D01*
X53450260Y-104709434D01*
X53450258Y-104709433D01*
X53386000Y-104697420D01*
X53386000Y-105668349D01*
X53357543Y-105622390D01*
X53268038Y-105554799D01*
X53160160Y-105524105D01*
X53048479Y-105534454D01*
X52948078Y-105584448D01*
X52878000Y-105661318D01*
X52878000Y-104697420D01*
X52877999Y-104697420D01*
X52813741Y-104709433D01*
X52813739Y-104709434D01*
X52613628Y-104786958D01*
X52613612Y-104786966D01*
X52431160Y-104899935D01*
X52431159Y-104899936D01*
X52272562Y-105044516D01*
X52143231Y-105215779D01*
X52143227Y-105215784D01*
X52047573Y-105407884D01*
X52047570Y-105407890D01*
X51988840Y-105614307D01*
X51988840Y-105614311D01*
X51974000Y-105774459D01*
X51974000Y-106224000D01*
X52832000Y-106224000D01*
X52832000Y-106732000D01*
X51974000Y-106732000D01*
X51974000Y-107181540D01*
X51988840Y-107341688D01*
X51988840Y-107341692D01*
X52047570Y-107548109D01*
X52047573Y-107548115D01*
X52143227Y-107740215D01*
X52143230Y-107740220D01*
X52167659Y-107772568D01*
X52192749Y-107838983D01*
X52177949Y-107908420D01*
X52127959Y-107958833D01*
X52067109Y-107974500D01*
X47001643Y-107974500D01*
X46998372Y-107974414D01*
X46746762Y-107961228D01*
X46692384Y-107958378D01*
X46685822Y-107957688D01*
X46384830Y-107910016D01*
X46378375Y-107908644D01*
X46084018Y-107829772D01*
X46077742Y-107827733D01*
X45793247Y-107718525D01*
X45787219Y-107715841D01*
X45515691Y-107577491D01*
X45509976Y-107574191D01*
X45254400Y-107408218D01*
X45249073Y-107404348D01*
X45012224Y-107212552D01*
X45007334Y-107208147D01*
X44791852Y-106992665D01*
X44787448Y-106987776D01*
X44595649Y-106750923D01*
X44591781Y-106745599D01*
X44425808Y-106490023D01*
X44422508Y-106484308D01*
X44284158Y-106212780D01*
X44281474Y-106206752D01*
X44272161Y-106182491D01*
X44172262Y-105922246D01*
X44170227Y-105915981D01*
X44134898Y-105784132D01*
X44091354Y-105621623D01*
X44089983Y-105615169D01*
X44089846Y-105614307D01*
X44060658Y-105430019D01*
X44042311Y-105314177D01*
X44041622Y-105307627D01*
X44025585Y-105001628D01*
X44025500Y-104998355D01*
X44025500Y-104000006D01*
X44286911Y-104000006D01*
X44307250Y-104388114D01*
X44368051Y-104771995D01*
X44468644Y-105147414D01*
X44607919Y-105510239D01*
X44607923Y-105510247D01*
X44784365Y-105856535D01*
X44784369Y-105856541D01*
X44996042Y-106182491D01*
X44996054Y-106182508D01*
X45202876Y-106437911D01*
X45202877Y-106437912D01*
X46699994Y-104940794D01*
X46701570Y-104943365D01*
X46865130Y-105134870D01*
X47056635Y-105298430D01*
X47059203Y-105300004D01*
X45562086Y-106797121D01*
X45562087Y-106797122D01*
X45817491Y-107003945D01*
X45817508Y-107003957D01*
X46143458Y-107215630D01*
X46143464Y-107215634D01*
X46489752Y-107392076D01*
X46489760Y-107392080D01*
X46852585Y-107531355D01*
X47228004Y-107631948D01*
X47611885Y-107692749D01*
X47999994Y-107713089D01*
X48000006Y-107713089D01*
X48388114Y-107692749D01*
X48771995Y-107631948D01*
X49147414Y-107531355D01*
X49510239Y-107392080D01*
X49510247Y-107392076D01*
X49856535Y-107215634D01*
X49856541Y-107215630D01*
X50182501Y-107003950D01*
X50437912Y-106797121D01*
X48940795Y-105300004D01*
X48943365Y-105298430D01*
X49134870Y-105134870D01*
X49298430Y-104943365D01*
X49300004Y-104940795D01*
X50797121Y-106437912D01*
X51003950Y-106182501D01*
X51215630Y-105856541D01*
X51215634Y-105856535D01*
X51392076Y-105510247D01*
X51392080Y-105510239D01*
X51531355Y-105147414D01*
X51631948Y-104771995D01*
X51692749Y-104388114D01*
X51713089Y-104000006D01*
X51713089Y-103999993D01*
X51692749Y-103611885D01*
X51631948Y-103228004D01*
X51626197Y-103206540D01*
X51974000Y-103206540D01*
X51988840Y-103366688D01*
X51988840Y-103366692D01*
X52047570Y-103573109D01*
X52047573Y-103573115D01*
X52143227Y-103765215D01*
X52143231Y-103765220D01*
X52272562Y-103936483D01*
X52431159Y-104081063D01*
X52431160Y-104081064D01*
X52613612Y-104194033D01*
X52613628Y-104194041D01*
X52813733Y-104271563D01*
X52813736Y-104271564D01*
X52878000Y-104283577D01*
X52878000Y-103312650D01*
X52906457Y-103358610D01*
X52995962Y-103426201D01*
X53103840Y-103456895D01*
X53215521Y-103446546D01*
X53315922Y-103396552D01*
X53386000Y-103319681D01*
X53386000Y-104283577D01*
X53450263Y-104271564D01*
X53450266Y-104271563D01*
X53650371Y-104194041D01*
X53650387Y-104194033D01*
X53832839Y-104081064D01*
X53832840Y-104081063D01*
X53991438Y-103936482D01*
X54023302Y-103894286D01*
X54080315Y-103851977D01*
X54151152Y-103847209D01*
X54189322Y-103862559D01*
X54230618Y-103887672D01*
X54376333Y-103928500D01*
X54376335Y-103928500D01*
X54489658Y-103928500D01*
X54489671Y-103928499D01*
X54601915Y-103913071D01*
X54601916Y-103913070D01*
X54601920Y-103913070D01*
X54740720Y-103852780D01*
X54740721Y-103852778D01*
X54740723Y-103852778D01*
X54740725Y-103852776D01*
X54794481Y-103809042D01*
X54858108Y-103757278D01*
X54945377Y-103633647D01*
X54996054Y-103491056D01*
X55001193Y-103415921D01*
X59772619Y-103415921D01*
X59803408Y-103564085D01*
X59803409Y-103564088D01*
X59873028Y-103698445D01*
X59873030Y-103698448D01*
X59927975Y-103757280D01*
X59976320Y-103809044D01*
X60048241Y-103852780D01*
X60105618Y-103887672D01*
X60251333Y-103928500D01*
X60251335Y-103928500D01*
X60614658Y-103928500D01*
X60614671Y-103928499D01*
X60714303Y-103914804D01*
X60726920Y-103913070D01*
X60762421Y-103897649D01*
X60832867Y-103888856D01*
X60896888Y-103919545D01*
X60908555Y-103932259D01*
X60908641Y-103932182D01*
X60912560Y-103936482D01*
X61071159Y-104081063D01*
X61071160Y-104081064D01*
X61253612Y-104194033D01*
X61253628Y-104194041D01*
X61453733Y-104271563D01*
X61453736Y-104271564D01*
X61518000Y-104283577D01*
X61518000Y-103312650D01*
X61546457Y-103358610D01*
X61635962Y-103426201D01*
X61743840Y-103456895D01*
X61855521Y-103446546D01*
X61955922Y-103396552D01*
X62026000Y-103319681D01*
X62026000Y-104283577D01*
X62090263Y-104271564D01*
X62090266Y-104271563D01*
X62290371Y-104194041D01*
X62290387Y-104194033D01*
X62472839Y-104081064D01*
X62472840Y-104081063D01*
X62631437Y-103936483D01*
X62760768Y-103765220D01*
X62760772Y-103765215D01*
X62856426Y-103573115D01*
X62856429Y-103573109D01*
X62915159Y-103366692D01*
X62915159Y-103366688D01*
X62930000Y-103206540D01*
X62930000Y-102907000D01*
X62072000Y-102907000D01*
X62072000Y-102399000D01*
X62930000Y-102399000D01*
X62930000Y-102099459D01*
X62915159Y-101939311D01*
X62915159Y-101939307D01*
X62856429Y-101732890D01*
X62856426Y-101732884D01*
X62760772Y-101540784D01*
X62760768Y-101540779D01*
X62631437Y-101369516D01*
X62472840Y-101224936D01*
X62472839Y-101224935D01*
X62290387Y-101111966D01*
X62290371Y-101111958D01*
X62090260Y-101034434D01*
X62090258Y-101034433D01*
X62026000Y-101022420D01*
X62026000Y-101993349D01*
X61997543Y-101947390D01*
X61908038Y-101879799D01*
X61800160Y-101849105D01*
X61688479Y-101859454D01*
X61588078Y-101909448D01*
X61518000Y-101986318D01*
X61518000Y-101022420D01*
X61517999Y-101022420D01*
X61453741Y-101034433D01*
X61453739Y-101034434D01*
X61253628Y-101111958D01*
X61253612Y-101111966D01*
X61071160Y-101224935D01*
X61071159Y-101224936D01*
X60912562Y-101369516D01*
X60783231Y-101540779D01*
X60783227Y-101540784D01*
X60687573Y-101732884D01*
X60687570Y-101732890D01*
X60628840Y-101939307D01*
X60628840Y-101939311D01*
X60614000Y-102099459D01*
X60614000Y-102399000D01*
X61472000Y-102399000D01*
X61472000Y-102907000D01*
X60897279Y-102907000D01*
X60831812Y-102888657D01*
X60798382Y-102868328D01*
X60652665Y-102827500D01*
X60289342Y-102827500D01*
X60289328Y-102827500D01*
X60177084Y-102842928D01*
X60038276Y-102903221D01*
X60038274Y-102903223D01*
X59920894Y-102998719D01*
X59920891Y-102998722D01*
X59833623Y-103122351D01*
X59833621Y-103122356D01*
X59782946Y-103264942D01*
X59782945Y-103264948D01*
X59772619Y-103415919D01*
X59772619Y-103415921D01*
X55001193Y-103415921D01*
X55006381Y-103340079D01*
X54975592Y-103191915D01*
X54905971Y-103057553D01*
X54802680Y-102946956D01*
X54782768Y-102934847D01*
X54673381Y-102868327D01*
X54527667Y-102827500D01*
X54527665Y-102827500D01*
X54414342Y-102827500D01*
X54414328Y-102827500D01*
X54302083Y-102842929D01*
X54302078Y-102842930D01*
X54178594Y-102896568D01*
X54128395Y-102907000D01*
X53432000Y-102907000D01*
X53432000Y-102399000D01*
X54290000Y-102399000D01*
X54290000Y-102099459D01*
X54275159Y-101939311D01*
X54275159Y-101939307D01*
X54216429Y-101732890D01*
X54216426Y-101732884D01*
X54120772Y-101540784D01*
X54120768Y-101540779D01*
X53991437Y-101369516D01*
X53832840Y-101224936D01*
X53832839Y-101224935D01*
X53650387Y-101111966D01*
X53650371Y-101111958D01*
X53450260Y-101034434D01*
X53450258Y-101034433D01*
X53386000Y-101022420D01*
X53386000Y-101993349D01*
X53357543Y-101947390D01*
X53268038Y-101879799D01*
X53160160Y-101849105D01*
X53048479Y-101859454D01*
X52948078Y-101909448D01*
X52878000Y-101986318D01*
X52878000Y-101022420D01*
X52877999Y-101022420D01*
X52813741Y-101034433D01*
X52813739Y-101034434D01*
X52613628Y-101111958D01*
X52613612Y-101111966D01*
X52431160Y-101224935D01*
X52431159Y-101224936D01*
X52272562Y-101369516D01*
X52143231Y-101540779D01*
X52143227Y-101540784D01*
X52047573Y-101732884D01*
X52047570Y-101732890D01*
X51988840Y-101939307D01*
X51988840Y-101939311D01*
X51974000Y-102099459D01*
X51974000Y-102399000D01*
X52832000Y-102399000D01*
X52832000Y-102907000D01*
X51974000Y-102907000D01*
X51974000Y-103206540D01*
X51626197Y-103206540D01*
X51531355Y-102852585D01*
X51392080Y-102489760D01*
X51392076Y-102489752D01*
X51215628Y-102143455D01*
X51003957Y-101817508D01*
X51003945Y-101817491D01*
X50797122Y-101562087D01*
X50797121Y-101562086D01*
X49300004Y-103059203D01*
X49298430Y-103056635D01*
X49134870Y-102865130D01*
X48943365Y-102701570D01*
X48940795Y-102699995D01*
X50437912Y-101202877D01*
X50437911Y-101202876D01*
X50182508Y-100996054D01*
X50182491Y-100996042D01*
X49856541Y-100784369D01*
X49856535Y-100784365D01*
X49510247Y-100607923D01*
X49510239Y-100607919D01*
X49147414Y-100468644D01*
X48771995Y-100368051D01*
X48388114Y-100307250D01*
X48000006Y-100286911D01*
X47999994Y-100286911D01*
X47611885Y-100307250D01*
X47228004Y-100368051D01*
X46852585Y-100468644D01*
X46489760Y-100607919D01*
X46489752Y-100607923D01*
X46143455Y-100784371D01*
X45817502Y-100996047D01*
X45562086Y-101202877D01*
X47059204Y-102699995D01*
X47056635Y-102701570D01*
X46865130Y-102865130D01*
X46701570Y-103056635D01*
X46699995Y-103059204D01*
X45202877Y-101562086D01*
X44996047Y-101817502D01*
X44784371Y-102143455D01*
X44607923Y-102489752D01*
X44607919Y-102489760D01*
X44468644Y-102852585D01*
X44368051Y-103228004D01*
X44307250Y-103611885D01*
X44286911Y-103999993D01*
X44286911Y-104000006D01*
X44025500Y-104000006D01*
X44025500Y-96774000D01*
X54966496Y-96774000D01*
X54986457Y-96963927D01*
X55007654Y-97029163D01*
X55045473Y-97145556D01*
X55045476Y-97145561D01*
X55140958Y-97310941D01*
X55140965Y-97310951D01*
X55268744Y-97452864D01*
X55268747Y-97452866D01*
X55423248Y-97565118D01*
X55597712Y-97642794D01*
X55784513Y-97682500D01*
X55975487Y-97682500D01*
X56162288Y-97642794D01*
X56336752Y-97565118D01*
X56491253Y-97452866D01*
X56619040Y-97310944D01*
X56714527Y-97145556D01*
X56773542Y-96963928D01*
X56793504Y-96774000D01*
X56773542Y-96584072D01*
X56714527Y-96402444D01*
X56619040Y-96237056D01*
X56520863Y-96128019D01*
X56490146Y-96064012D01*
X56488500Y-96043709D01*
X56488500Y-89841527D01*
X56508502Y-89773406D01*
X56525405Y-89752432D01*
X57342405Y-88935432D01*
X57404717Y-88901406D01*
X57475532Y-88906471D01*
X57532368Y-88949018D01*
X57557179Y-89015538D01*
X57557500Y-89024527D01*
X57557500Y-96043709D01*
X57537498Y-96111830D01*
X57525137Y-96128019D01*
X57426961Y-96237054D01*
X57426958Y-96237058D01*
X57331476Y-96402438D01*
X57331473Y-96402445D01*
X57272457Y-96584072D01*
X57252496Y-96774000D01*
X57272457Y-96963927D01*
X57293654Y-97029163D01*
X57331473Y-97145556D01*
X57331476Y-97145561D01*
X57426958Y-97310941D01*
X57426965Y-97310951D01*
X57554744Y-97452864D01*
X57554747Y-97452866D01*
X57709248Y-97565118D01*
X57883712Y-97642794D01*
X58070513Y-97682500D01*
X58261487Y-97682500D01*
X58448288Y-97642794D01*
X58622752Y-97565118D01*
X58777253Y-97452866D01*
X58905040Y-97310944D01*
X59000527Y-97145556D01*
X59059542Y-96963928D01*
X59079504Y-96774000D01*
X59059542Y-96584072D01*
X59000527Y-96402444D01*
X58905040Y-96237056D01*
X58806863Y-96128019D01*
X58776146Y-96064012D01*
X58774500Y-96043709D01*
X58774500Y-88696239D01*
X58794502Y-88628118D01*
X58811405Y-88607144D01*
X60875144Y-86543405D01*
X60937456Y-86509379D01*
X60964239Y-86506500D01*
X61055487Y-86506500D01*
X61242288Y-86466794D01*
X61416752Y-86389118D01*
X61571253Y-86276866D01*
X61699040Y-86134944D01*
X61794527Y-85969556D01*
X61853542Y-85787928D01*
X61873504Y-85598000D01*
X61873504Y-85597998D01*
X61873504Y-85591396D01*
X61876383Y-85591396D01*
X61886858Y-85533979D01*
X61935339Y-85482112D01*
X62004164Y-85464689D01*
X62025617Y-85467354D01*
X62134508Y-85490500D01*
X62134513Y-85490500D01*
X62325487Y-85490500D01*
X62512288Y-85450794D01*
X62686752Y-85373118D01*
X62841253Y-85260866D01*
X62841255Y-85260864D01*
X62969034Y-85118951D01*
X62969035Y-85118949D01*
X62969040Y-85118944D01*
X63026113Y-85020091D01*
X63077496Y-84971098D01*
X63147209Y-84957662D01*
X63161429Y-84959845D01*
X63268010Y-84982500D01*
X63268015Y-84982500D01*
X63458989Y-84982500D01*
X63645790Y-84942794D01*
X63820254Y-84865118D01*
X63974755Y-84752866D01*
X63974757Y-84752864D01*
X64102536Y-84610951D01*
X64102537Y-84610949D01*
X64102542Y-84610944D01*
X64198029Y-84445556D01*
X64257044Y-84263928D01*
X64277006Y-84074000D01*
X64257044Y-83884072D01*
X64198029Y-83702444D01*
X64102542Y-83537056D01*
X64102540Y-83537054D01*
X64102536Y-83537048D01*
X63974757Y-83395135D01*
X63820254Y-83282882D01*
X63697870Y-83228393D01*
X63660024Y-83202381D01*
X62404633Y-81946990D01*
X62401163Y-81943226D01*
X62374732Y-81912110D01*
X62366392Y-81902291D01*
X62303779Y-81854694D01*
X62257031Y-81817117D01*
X62242486Y-81805425D01*
X62238485Y-81802868D01*
X62227365Y-81795971D01*
X62223361Y-81793562D01*
X62151976Y-81760535D01*
X62081529Y-81725597D01*
X62077158Y-81723991D01*
X62064655Y-81719589D01*
X62060300Y-81718122D01*
X61983496Y-81701216D01*
X61970745Y-81698045D01*
X61965933Y-81696848D01*
X61904655Y-81660994D01*
X61872489Y-81597702D01*
X61879647Y-81527067D01*
X61907250Y-81485481D01*
X62202329Y-81190404D01*
X62264641Y-81156379D01*
X62291424Y-81153500D01*
X64571601Y-81153500D01*
X64639722Y-81173502D01*
X64665239Y-81195192D01*
X64666745Y-81196864D01*
X64666747Y-81196866D01*
X64821248Y-81309118D01*
X64995712Y-81386794D01*
X65182513Y-81426500D01*
X65373487Y-81426500D01*
X65560288Y-81386794D01*
X65734752Y-81309118D01*
X65889253Y-81196866D01*
X65890760Y-81195192D01*
X66017034Y-81054951D01*
X66017035Y-81054949D01*
X66017040Y-81054944D01*
X66112527Y-80889556D01*
X66171542Y-80707928D01*
X66191504Y-80518000D01*
X66171542Y-80328072D01*
X66112527Y-80146444D01*
X66017040Y-79981056D01*
X66017038Y-79981054D01*
X66017034Y-79981048D01*
X65889255Y-79839135D01*
X65734752Y-79726882D01*
X65560288Y-79649206D01*
X65445218Y-79624747D01*
X65382744Y-79591018D01*
X65348423Y-79528869D01*
X65353151Y-79458030D01*
X65395427Y-79400992D01*
X65461828Y-79375865D01*
X65471415Y-79375500D01*
X66095601Y-79375500D01*
X66163722Y-79395502D01*
X66189239Y-79417192D01*
X66190745Y-79418864D01*
X66190747Y-79418866D01*
X66345248Y-79531118D01*
X66519712Y-79608794D01*
X66706513Y-79648500D01*
X66897491Y-79648500D01*
X67020296Y-79622396D01*
X67030302Y-79620269D01*
X67101093Y-79625670D01*
X67157726Y-79668486D01*
X67182220Y-79735124D01*
X67182500Y-79743515D01*
X67182500Y-92311997D01*
X67162498Y-92380118D01*
X67108842Y-92426611D01*
X67038568Y-92436715D01*
X67005252Y-92427104D01*
X66830290Y-92349206D01*
X66643487Y-92309500D01*
X66452513Y-92309500D01*
X66265711Y-92349206D01*
X66194061Y-92381107D01*
X66142812Y-92392000D01*
X64656331Y-92392000D01*
X64588210Y-92371998D01*
X64567236Y-92355095D01*
X64120178Y-91908037D01*
X64089440Y-91857878D01*
X64080527Y-91830444D01*
X63985040Y-91665056D01*
X63985038Y-91665054D01*
X63985034Y-91665048D01*
X63857255Y-91523135D01*
X63702752Y-91410882D01*
X63528288Y-91333206D01*
X63341487Y-91293500D01*
X63150513Y-91293500D01*
X62963711Y-91333206D01*
X62789247Y-91410882D01*
X62634744Y-91523135D01*
X62506965Y-91665048D01*
X62506958Y-91665058D01*
X62411476Y-91830438D01*
X62411473Y-91830444D01*
X62396999Y-91874986D01*
X62352457Y-92012072D01*
X62332496Y-92202000D01*
X62352457Y-92391927D01*
X62352481Y-92392000D01*
X62411473Y-92573556D01*
X62411476Y-92573561D01*
X62506958Y-92738941D01*
X62506965Y-92738951D01*
X62634744Y-92880864D01*
X62634747Y-92880866D01*
X62789248Y-92993118D01*
X62911629Y-93047605D01*
X62949476Y-93073617D01*
X63652378Y-93776519D01*
X63655837Y-93780271D01*
X63690610Y-93821209D01*
X63753230Y-93868811D01*
X63814520Y-93918077D01*
X63814526Y-93918080D01*
X63818599Y-93920684D01*
X63829597Y-93927505D01*
X63833634Y-93929934D01*
X63833638Y-93929936D01*
X63833641Y-93929938D01*
X63905033Y-93962967D01*
X63975478Y-93997905D01*
X63975479Y-93997905D01*
X63975483Y-93997907D01*
X63979934Y-93999542D01*
X63992262Y-94003882D01*
X63996696Y-94005376D01*
X63996699Y-94005376D01*
X63996702Y-94005378D01*
X64073505Y-94022283D01*
X64149832Y-94041265D01*
X64149839Y-94041265D01*
X64154568Y-94041910D01*
X64167356Y-94043476D01*
X64172165Y-94043999D01*
X64172167Y-94044000D01*
X64172169Y-94044000D01*
X64250800Y-94044000D01*
X64329433Y-94046130D01*
X64329433Y-94046129D01*
X64329435Y-94046130D01*
X64334114Y-94045749D01*
X64352513Y-94044000D01*
X66142812Y-94044000D01*
X66194061Y-94054893D01*
X66265712Y-94086794D01*
X66452513Y-94126500D01*
X66643487Y-94126500D01*
X66830288Y-94086794D01*
X67004752Y-94009118D01*
X67004754Y-94009115D01*
X67005251Y-94008895D01*
X67075618Y-93999461D01*
X67139915Y-94029567D01*
X67177729Y-94089656D01*
X67182500Y-94124002D01*
X67182500Y-94803696D01*
X67162498Y-94871817D01*
X67150136Y-94888006D01*
X67078965Y-94967048D01*
X67078958Y-94967058D01*
X66983476Y-95132438D01*
X66983473Y-95132445D01*
X66924457Y-95314072D01*
X66904496Y-95504000D01*
X66924457Y-95693927D01*
X66954526Y-95786470D01*
X66983473Y-95875556D01*
X66983476Y-95875561D01*
X67078958Y-96040941D01*
X67078965Y-96040951D01*
X67206744Y-96182864D01*
X67206747Y-96182866D01*
X67361248Y-96295118D01*
X67535712Y-96372794D01*
X67722513Y-96412500D01*
X67913487Y-96412500D01*
X68100288Y-96372794D01*
X68274752Y-96295118D01*
X68429253Y-96182866D01*
X68429255Y-96182864D01*
X68557034Y-96040951D01*
X68557035Y-96040949D01*
X68557040Y-96040944D01*
X68652527Y-95875556D01*
X68711542Y-95693928D01*
X68731504Y-95504000D01*
X68711542Y-95314072D01*
X68652527Y-95132444D01*
X68557040Y-94967056D01*
X68557038Y-94967054D01*
X68557034Y-94967048D01*
X68485864Y-94888006D01*
X68455146Y-94823999D01*
X68453500Y-94803696D01*
X68453500Y-76883179D01*
X68455252Y-76867306D01*
X68454963Y-76867279D01*
X68455709Y-76859386D01*
X68453500Y-76789100D01*
X68453500Y-76768422D01*
X68473502Y-76700301D01*
X68527158Y-76653808D01*
X68597432Y-76643704D01*
X68662012Y-76673198D01*
X68668595Y-76679327D01*
X69685595Y-77696327D01*
X69719621Y-77758639D01*
X69722500Y-77785422D01*
X69722500Y-94803696D01*
X69702498Y-94871817D01*
X69690136Y-94888006D01*
X69618965Y-94967048D01*
X69618958Y-94967058D01*
X69523476Y-95132438D01*
X69523473Y-95132445D01*
X69464457Y-95314072D01*
X69444496Y-95504000D01*
X69464457Y-95693927D01*
X69494526Y-95786470D01*
X69523473Y-95875556D01*
X69523476Y-95875561D01*
X69618958Y-96040941D01*
X69618965Y-96040951D01*
X69746744Y-96182864D01*
X69746747Y-96182866D01*
X69901248Y-96295118D01*
X70075712Y-96372794D01*
X70262513Y-96412500D01*
X70453487Y-96412500D01*
X70640288Y-96372794D01*
X70814752Y-96295118D01*
X70969253Y-96182866D01*
X70969255Y-96182864D01*
X71097034Y-96040951D01*
X71097035Y-96040949D01*
X71097040Y-96040944D01*
X71192527Y-95875556D01*
X71251542Y-95693928D01*
X71271504Y-95504000D01*
X71251542Y-95314072D01*
X71192527Y-95132444D01*
X71097040Y-94967056D01*
X71097038Y-94967054D01*
X71097034Y-94967048D01*
X71025864Y-94888006D01*
X70995146Y-94823999D01*
X70993500Y-94803696D01*
X70993500Y-78038422D01*
X71013502Y-77970301D01*
X71067158Y-77923808D01*
X71137432Y-77913704D01*
X71202012Y-77943198D01*
X71208595Y-77949327D01*
X72225595Y-78966327D01*
X72259621Y-79028639D01*
X72262500Y-79055422D01*
X72262500Y-94803696D01*
X72242498Y-94871817D01*
X72230136Y-94888006D01*
X72158965Y-94967048D01*
X72158958Y-94967058D01*
X72063476Y-95132438D01*
X72063473Y-95132445D01*
X72004457Y-95314072D01*
X71984496Y-95504000D01*
X72004457Y-95693927D01*
X72034526Y-95786470D01*
X72063473Y-95875556D01*
X72063476Y-95875561D01*
X72158958Y-96040941D01*
X72158965Y-96040951D01*
X72286744Y-96182864D01*
X72286747Y-96182866D01*
X72441248Y-96295118D01*
X72615712Y-96372794D01*
X72802513Y-96412500D01*
X72993487Y-96412500D01*
X73180288Y-96372794D01*
X73209251Y-96359898D01*
X73279616Y-96350464D01*
X73343913Y-96380569D01*
X73381728Y-96440657D01*
X73386500Y-96475005D01*
X73386500Y-102624356D01*
X73386292Y-102629472D01*
X73381932Y-102682995D01*
X73381932Y-102682997D01*
X73392552Y-102760942D01*
X73401052Y-102839104D01*
X73402081Y-102843777D01*
X73405042Y-102856415D01*
X73406189Y-102861028D01*
X73433311Y-102934847D01*
X73458421Y-103009371D01*
X73460376Y-103013598D01*
X73466110Y-103025564D01*
X73468140Y-103029656D01*
X73468145Y-103029664D01*
X73468146Y-103029666D01*
X73510496Y-103095922D01*
X73526398Y-103122351D01*
X73551050Y-103163324D01*
X73555185Y-103168763D01*
X73553837Y-103169787D01*
X73576589Y-103208059D01*
X73587473Y-103241556D01*
X73587476Y-103241561D01*
X73682958Y-103406941D01*
X73682965Y-103406951D01*
X73810744Y-103548864D01*
X73810747Y-103548866D01*
X73965248Y-103661118D01*
X74139712Y-103738794D01*
X74326513Y-103778500D01*
X74517487Y-103778500D01*
X74704288Y-103738794D01*
X74878752Y-103661118D01*
X75033253Y-103548866D01*
X75073611Y-103504044D01*
X75161034Y-103406951D01*
X75161035Y-103406949D01*
X75161040Y-103406944D01*
X75256527Y-103241556D01*
X75315542Y-103059928D01*
X75335504Y-102870000D01*
X75315542Y-102680072D01*
X75256527Y-102498444D01*
X75161040Y-102333056D01*
X75161038Y-102333054D01*
X75161034Y-102333048D01*
X75070864Y-102232904D01*
X75040146Y-102168897D01*
X75038500Y-102148594D01*
X75038500Y-96538500D01*
X75058502Y-96470379D01*
X75112158Y-96423886D01*
X75164500Y-96412500D01*
X75279487Y-96412500D01*
X75466288Y-96372794D01*
X75640752Y-96295118D01*
X75795253Y-96182866D01*
X75795255Y-96182864D01*
X75923034Y-96040951D01*
X75923035Y-96040949D01*
X75923040Y-96040944D01*
X76018527Y-95875556D01*
X76077542Y-95693928D01*
X76097504Y-95504000D01*
X76077542Y-95314072D01*
X76018527Y-95132444D01*
X75923040Y-94967056D01*
X75923038Y-94967054D01*
X75923034Y-94967048D01*
X75851864Y-94888006D01*
X75821146Y-94823999D01*
X75819500Y-94803696D01*
X75819500Y-80324422D01*
X75839502Y-80256301D01*
X75893158Y-80209808D01*
X75963432Y-80199704D01*
X76028012Y-80229198D01*
X76034595Y-80235327D01*
X76797595Y-80998327D01*
X76831621Y-81060639D01*
X76834500Y-81087422D01*
X76834500Y-94803696D01*
X76814498Y-94871817D01*
X76802136Y-94888006D01*
X76730965Y-94967048D01*
X76730958Y-94967058D01*
X76635476Y-95132438D01*
X76635473Y-95132445D01*
X76576457Y-95314072D01*
X76556496Y-95504000D01*
X76576457Y-95693927D01*
X76606526Y-95786470D01*
X76635473Y-95875556D01*
X76635476Y-95875561D01*
X76730958Y-96040941D01*
X76730965Y-96040951D01*
X76858744Y-96182864D01*
X76858747Y-96182866D01*
X77013248Y-96295118D01*
X77187712Y-96372794D01*
X77374513Y-96412500D01*
X77565487Y-96412500D01*
X77752288Y-96372794D01*
X77926752Y-96295118D01*
X78081253Y-96182866D01*
X78081255Y-96182864D01*
X78209034Y-96040951D01*
X78209035Y-96040949D01*
X78209040Y-96040944D01*
X78304527Y-95875556D01*
X78363542Y-95693928D01*
X78383504Y-95504000D01*
X78363542Y-95314072D01*
X78304527Y-95132444D01*
X78209040Y-94967056D01*
X78209038Y-94967054D01*
X78209034Y-94967048D01*
X78137864Y-94888006D01*
X78107146Y-94823999D01*
X78105500Y-94803696D01*
X78105500Y-81340422D01*
X78125502Y-81272301D01*
X78179158Y-81225808D01*
X78249432Y-81215704D01*
X78314012Y-81245198D01*
X78320595Y-81251327D01*
X79337595Y-82268327D01*
X79371621Y-82330639D01*
X79374500Y-82357422D01*
X79374500Y-94803696D01*
X79354498Y-94871817D01*
X79342136Y-94888006D01*
X79270965Y-94967048D01*
X79270958Y-94967058D01*
X79175476Y-95132438D01*
X79175473Y-95132445D01*
X79116457Y-95314072D01*
X79096496Y-95504000D01*
X79116457Y-95693927D01*
X79146526Y-95786470D01*
X79175473Y-95875556D01*
X79175476Y-95875561D01*
X79270958Y-96040941D01*
X79270965Y-96040951D01*
X79398744Y-96182864D01*
X79398747Y-96182866D01*
X79553248Y-96295118D01*
X79727712Y-96372794D01*
X79914513Y-96412500D01*
X80105487Y-96412500D01*
X80292288Y-96372794D01*
X80466752Y-96295118D01*
X80621253Y-96182866D01*
X80621255Y-96182864D01*
X80749034Y-96040951D01*
X80749035Y-96040949D01*
X80749040Y-96040944D01*
X80844527Y-95875556D01*
X80903542Y-95693928D01*
X80923504Y-95504000D01*
X80903542Y-95314072D01*
X80844527Y-95132444D01*
X80749040Y-94967056D01*
X80749038Y-94967054D01*
X80749034Y-94967048D01*
X80677864Y-94888006D01*
X80647146Y-94823999D01*
X80645500Y-94803696D01*
X80645500Y-82126069D01*
X80647252Y-82110201D01*
X80646962Y-82110174D01*
X80647708Y-82102281D01*
X80645500Y-82032028D01*
X80645500Y-82002017D01*
X80645499Y-82002010D01*
X80644617Y-81995030D01*
X80644150Y-81989116D01*
X80642664Y-81941795D01*
X80636987Y-81922254D01*
X80632978Y-81902897D01*
X80630427Y-81882701D01*
X80612994Y-81838671D01*
X80611075Y-81833067D01*
X80597868Y-81787607D01*
X80587505Y-81770085D01*
X80578810Y-81752334D01*
X80571320Y-81733414D01*
X80571320Y-81733413D01*
X80564428Y-81723927D01*
X80543480Y-81695095D01*
X80540231Y-81690148D01*
X80535551Y-81682235D01*
X80516134Y-81649401D01*
X80516132Y-81649398D01*
X80501746Y-81635012D01*
X80488905Y-81619978D01*
X80476942Y-81603513D01*
X80476941Y-81603512D01*
X80469594Y-81597435D01*
X80440452Y-81573326D01*
X80436079Y-81569346D01*
X73124554Y-74257821D01*
X73090528Y-74195509D01*
X73095593Y-74124694D01*
X73138140Y-74067858D01*
X73204660Y-74043047D01*
X73239846Y-74045480D01*
X73310508Y-74060500D01*
X73310513Y-74060500D01*
X73501487Y-74060500D01*
X73688288Y-74020794D01*
X73862752Y-73943118D01*
X73954210Y-73876669D01*
X74021074Y-73852813D01*
X74090226Y-73868893D01*
X74102328Y-73876670D01*
X74219248Y-73961618D01*
X74393712Y-74039294D01*
X74580513Y-74079000D01*
X74771487Y-74079000D01*
X74958288Y-74039294D01*
X75132752Y-73961618D01*
X75287253Y-73849366D01*
X75287255Y-73849364D01*
X75415034Y-73707451D01*
X75415035Y-73707449D01*
X75415040Y-73707444D01*
X75510527Y-73542056D01*
X75519440Y-73514620D01*
X75550177Y-73464462D01*
X76504531Y-72510108D01*
X76508272Y-72506661D01*
X76549202Y-72471896D01*
X76549202Y-72471895D01*
X76549209Y-72471890D01*
X76596805Y-72409277D01*
X76646077Y-72347981D01*
X76646080Y-72347975D01*
X76648697Y-72343880D01*
X76655430Y-72333026D01*
X76657939Y-72328857D01*
X76690960Y-72257481D01*
X76725800Y-72187234D01*
X76725905Y-72187023D01*
X76725907Y-72187013D01*
X76727593Y-72182426D01*
X76731812Y-72170442D01*
X76733371Y-72165811D01*
X76733378Y-72165798D01*
X76750282Y-72088998D01*
X76769265Y-72012668D01*
X76769265Y-72012665D01*
X76769910Y-72007931D01*
X76771474Y-71995162D01*
X76772000Y-71990330D01*
X76772000Y-71911679D01*
X76774129Y-71833065D01*
X76773744Y-71828342D01*
X76772000Y-71809993D01*
X76772000Y-64706000D01*
X76792002Y-64637879D01*
X76845658Y-64591386D01*
X76898000Y-64580000D01*
X82513856Y-64580000D01*
X82518964Y-64580207D01*
X82544538Y-64582290D01*
X82572495Y-64584567D01*
X82572496Y-64584566D01*
X82572499Y-64584567D01*
X82650442Y-64573947D01*
X82728613Y-64565446D01*
X82728616Y-64565445D01*
X82733378Y-64564397D01*
X82745820Y-64561481D01*
X82750514Y-64560312D01*
X82750521Y-64560312D01*
X82824348Y-64533188D01*
X82898874Y-64508078D01*
X82898880Y-64508074D01*
X82903274Y-64506041D01*
X82914867Y-64500486D01*
X82919159Y-64498357D01*
X82919160Y-64498355D01*
X82919166Y-64498354D01*
X82985422Y-64456003D01*
X83052822Y-64415451D01*
X83052826Y-64415447D01*
X83056618Y-64412564D01*
X83066783Y-64404618D01*
X83070544Y-64401595D01*
X83070549Y-64401592D01*
X83126164Y-64345976D01*
X83183258Y-64291894D01*
X83183260Y-64291889D01*
X83186315Y-64288294D01*
X83198068Y-64274071D01*
X84356905Y-63115234D01*
X84419215Y-63081210D01*
X84464237Y-63080112D01*
X84464241Y-63080070D01*
X84464633Y-63080102D01*
X84466741Y-63080051D01*
X84469431Y-63080500D01*
X84469437Y-63080500D01*
X84694565Y-63080500D01*
X84694569Y-63080500D01*
X84916635Y-63043444D01*
X85129574Y-62970342D01*
X85327576Y-62863189D01*
X85505240Y-62724906D01*
X85657722Y-62559268D01*
X85780860Y-62370791D01*
X85871296Y-62164616D01*
X85926564Y-61946368D01*
X85945156Y-61722000D01*
X85926564Y-61497632D01*
X85875487Y-61295934D01*
X85871297Y-61279387D01*
X85871296Y-61279386D01*
X85871296Y-61279384D01*
X85780860Y-61073209D01*
X85746816Y-61021100D01*
X85657724Y-60884734D01*
X85657720Y-60884729D01*
X85528220Y-60744057D01*
X85505240Y-60719094D01*
X85505239Y-60719093D01*
X85505237Y-60719091D01*
X85385367Y-60625792D01*
X85327576Y-60580811D01*
X85129574Y-60473658D01*
X85129572Y-60473657D01*
X85129571Y-60473656D01*
X84916639Y-60400557D01*
X84916630Y-60400555D01*
X84839029Y-60387606D01*
X84694569Y-60363500D01*
X84469431Y-60363500D01*
X84324971Y-60387606D01*
X84247369Y-60400555D01*
X84247360Y-60400557D01*
X84034428Y-60473656D01*
X84034426Y-60473658D01*
X83836426Y-60580810D01*
X83836424Y-60580811D01*
X83658762Y-60719091D01*
X83506279Y-60884729D01*
X83417183Y-61021101D01*
X83363179Y-61067189D01*
X83292831Y-61076764D01*
X83228474Y-61046786D01*
X83206217Y-61021100D01*
X83117327Y-60885044D01*
X82964902Y-60719465D01*
X82787301Y-60581232D01*
X82787300Y-60581231D01*
X82589371Y-60474117D01*
X82589369Y-60474116D01*
X82376512Y-60401043D01*
X82376501Y-60401040D01*
X82296000Y-60387606D01*
X82296000Y-61288325D01*
X82184315Y-61237320D01*
X82077763Y-61222000D01*
X82006237Y-61222000D01*
X81899685Y-61237320D01*
X81788000Y-61288325D01*
X81788000Y-60387607D01*
X81787999Y-60387606D01*
X81707498Y-60401040D01*
X81707487Y-60401043D01*
X81494630Y-60474116D01*
X81494628Y-60474117D01*
X81296699Y-60581231D01*
X81296698Y-60581232D01*
X81119097Y-60719465D01*
X80966670Y-60885045D01*
X80877780Y-61021101D01*
X80823776Y-61067189D01*
X80753428Y-61076764D01*
X80689071Y-61046786D01*
X80666816Y-61021101D01*
X80627224Y-60960500D01*
X80577724Y-60884734D01*
X80577720Y-60884729D01*
X80448220Y-60744057D01*
X80425240Y-60719094D01*
X80425239Y-60719093D01*
X80425237Y-60719091D01*
X80305367Y-60625792D01*
X80247576Y-60580811D01*
X80049574Y-60473658D01*
X80049572Y-60473657D01*
X80049571Y-60473656D01*
X79836639Y-60400557D01*
X79836630Y-60400555D01*
X79759029Y-60387606D01*
X79614569Y-60363500D01*
X79389431Y-60363500D01*
X79244971Y-60387606D01*
X79167369Y-60400555D01*
X79167360Y-60400557D01*
X78954428Y-60473656D01*
X78954426Y-60473658D01*
X78756426Y-60580810D01*
X78756424Y-60580811D01*
X78578762Y-60719091D01*
X78517754Y-60785363D01*
X78456901Y-60821933D01*
X78385936Y-60819798D01*
X78327391Y-60779636D01*
X78306999Y-60744057D01*
X78262889Y-60625797D01*
X78262887Y-60625792D01*
X78175261Y-60508738D01*
X78058207Y-60421112D01*
X78058202Y-60421110D01*
X77921204Y-60370011D01*
X77921196Y-60370009D01*
X77860649Y-60363500D01*
X77860638Y-60363500D01*
X76063362Y-60363500D01*
X76063350Y-60363500D01*
X76002803Y-60370009D01*
X76002795Y-60370011D01*
X75865797Y-60421110D01*
X75865792Y-60421112D01*
X75748738Y-60508738D01*
X75661112Y-60625792D01*
X75661110Y-60625797D01*
X75610011Y-60762795D01*
X75610009Y-60762803D01*
X75603500Y-60823350D01*
X75603500Y-60960500D01*
X75583498Y-61028621D01*
X75529842Y-61075114D01*
X75477500Y-61086500D01*
X74760075Y-61086500D01*
X74744202Y-61084747D01*
X74744175Y-61085037D01*
X74736282Y-61084290D01*
X74665997Y-61086500D01*
X74636014Y-61086500D01*
X74629029Y-61087382D01*
X74623118Y-61087847D01*
X74575798Y-61089334D01*
X74575790Y-61089336D01*
X74556243Y-61095014D01*
X74536893Y-61099021D01*
X74516704Y-61101572D01*
X74516703Y-61101572D01*
X74472681Y-61119000D01*
X74467067Y-61120922D01*
X74421607Y-61134131D01*
X74404080Y-61144495D01*
X74386339Y-61153186D01*
X74367411Y-61160681D01*
X74329110Y-61188507D01*
X74324149Y-61191766D01*
X74283402Y-61215865D01*
X74269005Y-61230261D01*
X74253978Y-61243095D01*
X74237513Y-61255058D01*
X74207328Y-61291543D01*
X74203332Y-61295934D01*
X70476077Y-65023188D01*
X70463616Y-65033173D01*
X70463801Y-65033397D01*
X70457697Y-65038446D01*
X70409574Y-65089692D01*
X70388358Y-65110909D01*
X70388353Y-65110914D01*
X70384032Y-65116483D01*
X70380185Y-65120987D01*
X70347785Y-65155490D01*
X70347784Y-65155492D01*
X70337976Y-65173332D01*
X70327124Y-65189850D01*
X70314654Y-65205925D01*
X70314650Y-65205932D01*
X70295843Y-65249388D01*
X70293233Y-65254716D01*
X70270433Y-65296191D01*
X70270430Y-65296199D01*
X70265370Y-65315907D01*
X70258968Y-65334607D01*
X70250882Y-65353293D01*
X70250881Y-65353297D01*
X70243476Y-65400051D01*
X70242272Y-65405865D01*
X70230500Y-65451717D01*
X70230500Y-65472065D01*
X70228949Y-65491775D01*
X70225765Y-65511878D01*
X70225765Y-65511879D01*
X70230220Y-65559010D01*
X70230500Y-65564943D01*
X70230500Y-65847696D01*
X70210498Y-65915817D01*
X70198136Y-65932006D01*
X70126965Y-66011048D01*
X70126958Y-66011058D01*
X70031476Y-66176438D01*
X70031473Y-66176445D01*
X69972457Y-66358072D01*
X69952496Y-66548000D01*
X69972457Y-66737927D01*
X69987996Y-66785749D01*
X70031473Y-66919556D01*
X70031476Y-66919561D01*
X70126958Y-67084941D01*
X70126965Y-67084951D01*
X70254744Y-67226864D01*
X70254747Y-67226866D01*
X70409248Y-67339118D01*
X70583712Y-67416794D01*
X70770513Y-67456500D01*
X70961487Y-67456500D01*
X71148288Y-67416794D01*
X71322752Y-67339118D01*
X71477253Y-67226866D01*
X71596173Y-67094792D01*
X71605034Y-67084951D01*
X71605035Y-67084949D01*
X71605040Y-67084944D01*
X71700527Y-66919556D01*
X71759542Y-66737928D01*
X71779504Y-66548000D01*
X71759542Y-66358072D01*
X71700527Y-66176444D01*
X71605040Y-66011056D01*
X71605038Y-66011054D01*
X71605034Y-66011048D01*
X71533864Y-65932006D01*
X71503146Y-65867999D01*
X71501500Y-65847696D01*
X71501500Y-65847422D01*
X71521502Y-65779301D01*
X71538405Y-65758327D01*
X74902328Y-62394405D01*
X74964640Y-62360379D01*
X74991423Y-62357500D01*
X75477500Y-62357500D01*
X75545621Y-62377502D01*
X75592114Y-62431158D01*
X75603500Y-62483500D01*
X75603500Y-62620649D01*
X75610009Y-62681196D01*
X75610010Y-62681197D01*
X75610010Y-62681199D01*
X75610011Y-62681201D01*
X75626313Y-62724908D01*
X75641524Y-62765689D01*
X75646589Y-62836505D01*
X75612564Y-62898817D01*
X75574717Y-62924829D01*
X75489247Y-62962882D01*
X75334744Y-63075135D01*
X75206965Y-63217048D01*
X75206958Y-63217058D01*
X75111476Y-63382438D01*
X75111473Y-63382445D01*
X75052457Y-63564072D01*
X75032496Y-63754000D01*
X75052457Y-63943927D01*
X75073883Y-64009867D01*
X75099214Y-64087828D01*
X75113514Y-64131836D01*
X75111692Y-64132427D01*
X75120000Y-64171489D01*
X75120000Y-66574324D01*
X75099998Y-66642445D01*
X75046342Y-66688938D01*
X74976068Y-66699042D01*
X74964781Y-66696418D01*
X74964747Y-66696579D01*
X74928799Y-66688938D01*
X74771487Y-66655500D01*
X74580513Y-66655500D01*
X74393711Y-66695206D01*
X74219247Y-66772882D01*
X74064744Y-66885135D01*
X73936965Y-67027048D01*
X73936958Y-67027058D01*
X73858592Y-67162793D01*
X73841473Y-67192444D01*
X73830289Y-67226864D01*
X73782457Y-67374072D01*
X73762496Y-67564000D01*
X73782457Y-67753927D01*
X73812526Y-67846470D01*
X73841473Y-67935556D01*
X73936960Y-68100944D01*
X73985753Y-68155134D01*
X74008136Y-68179992D01*
X74038853Y-68244000D01*
X74040500Y-68264303D01*
X74040500Y-71566577D01*
X74020498Y-71634698D01*
X74003595Y-71655672D01*
X73452672Y-72206595D01*
X73390360Y-72240621D01*
X73363577Y-72243500D01*
X73310513Y-72243500D01*
X73123711Y-72283206D01*
X72949247Y-72360882D01*
X72794744Y-72473135D01*
X72666965Y-72615048D01*
X72666958Y-72615058D01*
X72571476Y-72780438D01*
X72571473Y-72780445D01*
X72512457Y-72962072D01*
X72492496Y-73152000D01*
X72510945Y-73327542D01*
X72498172Y-73397381D01*
X72449670Y-73449227D01*
X72380837Y-73466621D01*
X72313527Y-73444039D01*
X72296540Y-73429807D01*
X69821328Y-70954595D01*
X69787302Y-70892283D01*
X69792367Y-70821468D01*
X69834914Y-70764632D01*
X69901434Y-70739821D01*
X69910423Y-70739500D01*
X71683601Y-70739500D01*
X71751722Y-70759502D01*
X71777239Y-70781192D01*
X71778745Y-70782864D01*
X71778747Y-70782866D01*
X71933248Y-70895118D01*
X72107712Y-70972794D01*
X72294513Y-71012500D01*
X72485487Y-71012500D01*
X72672288Y-70972794D01*
X72846752Y-70895118D01*
X73001253Y-70782866D01*
X73049249Y-70729561D01*
X73129034Y-70640951D01*
X73129035Y-70640949D01*
X73129040Y-70640944D01*
X73224527Y-70475556D01*
X73283542Y-70293928D01*
X73303504Y-70104000D01*
X73283542Y-69914072D01*
X73224527Y-69732444D01*
X73129040Y-69567056D01*
X73129038Y-69567054D01*
X73129034Y-69567048D01*
X73001255Y-69425135D01*
X72846752Y-69312882D01*
X72672288Y-69235206D01*
X72485487Y-69195500D01*
X72294513Y-69195500D01*
X72107711Y-69235206D01*
X71933247Y-69312882D01*
X71778745Y-69425135D01*
X71777239Y-69426808D01*
X71776123Y-69427495D01*
X71773837Y-69429554D01*
X71773460Y-69429135D01*
X71716794Y-69464049D01*
X71683601Y-69468500D01*
X69911423Y-69468500D01*
X69843302Y-69448498D01*
X69822328Y-69431595D01*
X69272789Y-68882056D01*
X69238763Y-68819744D01*
X69236576Y-68806146D01*
X69219542Y-68644072D01*
X69160527Y-68462444D01*
X69065040Y-68297056D01*
X69065038Y-68297054D01*
X69065034Y-68297048D01*
X68937255Y-68155135D01*
X68782752Y-68042882D01*
X68608288Y-67965206D01*
X68421487Y-67925500D01*
X68230513Y-67925500D01*
X68043711Y-67965206D01*
X67869247Y-68042882D01*
X67714744Y-68155135D01*
X67586965Y-68297048D01*
X67586961Y-68297055D01*
X67491918Y-68461672D01*
X67440535Y-68510665D01*
X67370821Y-68524100D01*
X67322099Y-68509086D01*
X67307008Y-68500790D01*
X67291802Y-68492430D01*
X67272085Y-68487368D01*
X67253382Y-68480964D01*
X67234706Y-68472882D01*
X67187941Y-68465475D01*
X67182135Y-68464273D01*
X67166861Y-68460351D01*
X67136286Y-68452500D01*
X67136282Y-68452500D01*
X67115934Y-68452500D01*
X67096224Y-68450949D01*
X67076121Y-68447765D01*
X67076120Y-68447765D01*
X67028989Y-68452220D01*
X67023056Y-68452500D01*
X65984399Y-68452500D01*
X65916278Y-68432498D01*
X65890761Y-68410808D01*
X65889254Y-68409135D01*
X65734752Y-68296882D01*
X65560288Y-68219206D01*
X65373487Y-68179500D01*
X65182513Y-68179500D01*
X64995711Y-68219206D01*
X64821247Y-68296882D01*
X64666744Y-68409135D01*
X64538965Y-68551048D01*
X64538958Y-68551058D01*
X64443476Y-68716438D01*
X64443473Y-68716445D01*
X64384457Y-68898072D01*
X64364496Y-69088000D01*
X64384457Y-69277927D01*
X64395815Y-69312882D01*
X64443473Y-69459556D01*
X64443476Y-69459561D01*
X64538957Y-69624940D01*
X64538958Y-69624942D01*
X64538960Y-69624944D01*
X64551337Y-69638690D01*
X64582054Y-69702698D01*
X64573289Y-69773152D01*
X64551337Y-69807310D01*
X64538957Y-69821059D01*
X64450752Y-69973836D01*
X64443473Y-69986444D01*
X64428999Y-70030986D01*
X64384457Y-70168072D01*
X64364496Y-70358000D01*
X64384457Y-70547927D01*
X64414526Y-70640470D01*
X64443473Y-70729556D01*
X64443476Y-70729561D01*
X64538957Y-70894940D01*
X64538958Y-70894942D01*
X64538960Y-70894944D01*
X64539116Y-70895117D01*
X64551337Y-70908690D01*
X64582054Y-70972698D01*
X64573289Y-71043152D01*
X64551337Y-71077310D01*
X64538957Y-71091059D01*
X64443476Y-71256438D01*
X64443473Y-71256444D01*
X64428999Y-71300986D01*
X64384457Y-71438072D01*
X64364496Y-71628000D01*
X64384457Y-71817927D01*
X64401637Y-71870799D01*
X64443473Y-71999556D01*
X64443476Y-71999561D01*
X64538957Y-72164940D01*
X64538958Y-72164942D01*
X64538960Y-72164944D01*
X64551337Y-72178690D01*
X64582054Y-72242698D01*
X64573289Y-72313152D01*
X64551337Y-72347310D01*
X64538957Y-72361059D01*
X64443476Y-72526438D01*
X64443473Y-72526445D01*
X64384457Y-72708072D01*
X64364496Y-72898000D01*
X64384457Y-73087927D01*
X64405276Y-73152000D01*
X64443473Y-73269556D01*
X64443476Y-73269561D01*
X64538957Y-73434940D01*
X64538958Y-73434942D01*
X64538960Y-73434944D01*
X64539116Y-73435117D01*
X64551337Y-73448690D01*
X64582054Y-73512698D01*
X64573289Y-73583152D01*
X64551337Y-73617310D01*
X64538957Y-73631059D01*
X64443476Y-73796438D01*
X64443473Y-73796444D01*
X64432289Y-73830866D01*
X64384457Y-73978072D01*
X64364496Y-74168000D01*
X64384457Y-74357927D01*
X64395815Y-74392882D01*
X64443473Y-74539556D01*
X64443476Y-74539561D01*
X64538957Y-74704940D01*
X64538958Y-74704942D01*
X64538960Y-74704944D01*
X64551337Y-74718690D01*
X64582054Y-74782698D01*
X64573289Y-74853152D01*
X64551337Y-74887310D01*
X64538957Y-74901059D01*
X64443476Y-75066438D01*
X64443473Y-75066445D01*
X64384457Y-75248072D01*
X64364496Y-75438000D01*
X64384457Y-75627927D01*
X64414526Y-75720470D01*
X64443473Y-75809556D01*
X64486165Y-75883501D01*
X64502903Y-75952495D01*
X64479683Y-76019587D01*
X64423876Y-76063474D01*
X64377046Y-76072500D01*
X61666399Y-76072500D01*
X61598278Y-76052498D01*
X61572761Y-76030808D01*
X61571254Y-76029135D01*
X61558112Y-76019587D01*
X61416752Y-75916882D01*
X61242288Y-75839206D01*
X61055487Y-75799500D01*
X60864513Y-75799500D01*
X60677711Y-75839206D01*
X60503247Y-75916882D01*
X60348744Y-76029135D01*
X60220965Y-76171048D01*
X60220958Y-76171058D01*
X60125476Y-76336438D01*
X60125473Y-76336445D01*
X60066457Y-76518072D01*
X60046496Y-76708000D01*
X60066457Y-76897927D01*
X60077815Y-76932882D01*
X60125473Y-77079556D01*
X60125473Y-77079557D01*
X60125474Y-77079558D01*
X60167876Y-77153001D01*
X60184613Y-77221996D01*
X60167876Y-77278999D01*
X60125474Y-77352441D01*
X60125473Y-77352445D01*
X60066457Y-77534072D01*
X60046496Y-77724000D01*
X60066457Y-77913927D01*
X60069668Y-77923808D01*
X60125473Y-78095556D01*
X60125473Y-78095557D01*
X60125474Y-78095558D01*
X60167876Y-78169001D01*
X60184613Y-78237996D01*
X60167876Y-78294999D01*
X60125474Y-78368441D01*
X60125473Y-78368445D01*
X60066457Y-78550072D01*
X60046496Y-78740000D01*
X60066457Y-78929927D01*
X60090276Y-79003232D01*
X60125473Y-79111556D01*
X60153841Y-79160691D01*
X60220958Y-79276941D01*
X60220965Y-79276951D01*
X60348744Y-79418864D01*
X60348747Y-79418866D01*
X60503248Y-79531118D01*
X60677712Y-79608794D01*
X60864513Y-79648500D01*
X61055487Y-79648500D01*
X61242288Y-79608794D01*
X61416752Y-79531118D01*
X61571253Y-79418866D01*
X61572047Y-79417983D01*
X61572761Y-79417192D01*
X61573876Y-79416504D01*
X61576163Y-79414446D01*
X61576539Y-79414864D01*
X61633206Y-79379951D01*
X61666399Y-79375500D01*
X65084585Y-79375500D01*
X65152706Y-79395502D01*
X65199199Y-79449158D01*
X65209303Y-79519432D01*
X65179809Y-79584012D01*
X65120083Y-79622396D01*
X65110782Y-79624747D01*
X64995711Y-79649206D01*
X64821247Y-79726882D01*
X64666745Y-79839135D01*
X64665239Y-79840808D01*
X64664123Y-79841495D01*
X64661837Y-79843554D01*
X64661460Y-79843135D01*
X64604794Y-79878049D01*
X64571601Y-79882500D01*
X62060075Y-79882500D01*
X62044202Y-79880747D01*
X62044175Y-79881037D01*
X62036282Y-79880290D01*
X61965997Y-79882500D01*
X61936014Y-79882500D01*
X61929029Y-79883382D01*
X61923118Y-79883847D01*
X61875798Y-79885334D01*
X61875790Y-79885336D01*
X61856243Y-79891014D01*
X61836893Y-79895021D01*
X61816704Y-79897572D01*
X61816703Y-79897572D01*
X61772681Y-79915000D01*
X61767067Y-79916922D01*
X61721611Y-79930129D01*
X61721604Y-79930132D01*
X61704083Y-79940493D01*
X61686343Y-79949184D01*
X61667411Y-79956680D01*
X61629112Y-79984506D01*
X61624152Y-79987764D01*
X61583400Y-80011867D01*
X61569010Y-80026256D01*
X61553986Y-80039088D01*
X61537514Y-80051056D01*
X61507330Y-80087542D01*
X61503334Y-80091933D01*
X61006670Y-80588596D01*
X60944360Y-80622620D01*
X60917577Y-80625500D01*
X60864513Y-80625500D01*
X60677711Y-80665206D01*
X60503247Y-80742882D01*
X60348745Y-80855134D01*
X60308062Y-80900317D01*
X60247615Y-80937556D01*
X60176631Y-80936203D01*
X60125332Y-80905100D01*
X59282905Y-80062673D01*
X59248879Y-80000361D01*
X59246000Y-79973578D01*
X59246000Y-72276329D01*
X59266002Y-72208208D01*
X59282900Y-72187239D01*
X65574523Y-65895615D01*
X65612364Y-65869607D01*
X65734752Y-65815118D01*
X65889253Y-65702866D01*
X65926214Y-65661817D01*
X66017034Y-65560951D01*
X66017035Y-65560949D01*
X66017040Y-65560944D01*
X66112527Y-65395556D01*
X66171542Y-65213928D01*
X66191504Y-65024000D01*
X66171542Y-64834072D01*
X66112527Y-64652444D01*
X66017040Y-64487056D01*
X66017038Y-64487054D01*
X66017034Y-64487048D01*
X65889255Y-64345135D01*
X65734752Y-64232882D01*
X65560288Y-64155206D01*
X65373487Y-64115500D01*
X65182513Y-64115500D01*
X64995711Y-64155206D01*
X64821247Y-64232882D01*
X64666744Y-64345135D01*
X64538965Y-64487048D01*
X64538958Y-64487058D01*
X64443476Y-64652437D01*
X64443473Y-64652443D01*
X64434556Y-64679885D01*
X64403819Y-64730039D01*
X57861494Y-71272364D01*
X57857732Y-71275832D01*
X57816791Y-71310609D01*
X57816790Y-71310610D01*
X57769194Y-71373222D01*
X57719919Y-71434524D01*
X57717450Y-71438386D01*
X57710423Y-71449715D01*
X57708061Y-71453641D01*
X57675035Y-71525025D01*
X57640092Y-71595484D01*
X57638539Y-71599710D01*
X57634059Y-71612435D01*
X57632622Y-71616701D01*
X57615716Y-71693506D01*
X57596733Y-71769837D01*
X57596116Y-71774371D01*
X57594502Y-71787544D01*
X57594000Y-71792167D01*
X57594000Y-71870799D01*
X57591869Y-71949437D01*
X57592250Y-71954111D01*
X57594000Y-71972513D01*
X57594000Y-80331765D01*
X57593792Y-80336881D01*
X57589432Y-80390404D01*
X57589432Y-80390406D01*
X57600052Y-80468351D01*
X57608552Y-80546513D01*
X57609585Y-80551203D01*
X57612542Y-80563824D01*
X57613689Y-80568437D01*
X57633964Y-80623620D01*
X57640811Y-80642257D01*
X57644918Y-80654445D01*
X57665921Y-80716780D01*
X57667876Y-80721007D01*
X57673610Y-80732973D01*
X57675640Y-80737065D01*
X57675645Y-80737073D01*
X57675646Y-80737075D01*
X57717996Y-80803331D01*
X57740781Y-80841200D01*
X57758550Y-80870733D01*
X57761404Y-80874487D01*
X57769432Y-80884755D01*
X57772405Y-80888454D01*
X57772408Y-80888458D01*
X57772410Y-80888460D01*
X57772415Y-80888466D01*
X57820153Y-80936203D01*
X57828023Y-80944073D01*
X57867404Y-80985647D01*
X57882109Y-81001170D01*
X57885715Y-81004233D01*
X57899931Y-81015981D01*
X59947969Y-83064019D01*
X59951428Y-83067771D01*
X59986201Y-83108709D01*
X60048813Y-83156305D01*
X60110110Y-83205577D01*
X60110111Y-83205577D01*
X60110113Y-83205579D01*
X60114085Y-83208118D01*
X60125149Y-83214980D01*
X60129225Y-83217433D01*
X60129232Y-83217438D01*
X60200609Y-83250460D01*
X60271068Y-83285405D01*
X60271069Y-83285405D01*
X60271073Y-83285407D01*
X60275551Y-83287052D01*
X60287733Y-83291340D01*
X60292290Y-83292876D01*
X60292293Y-83292878D01*
X60292295Y-83292878D01*
X60292297Y-83292879D01*
X60300498Y-83294684D01*
X60369092Y-83309782D01*
X60445423Y-83328765D01*
X60445430Y-83328765D01*
X60450142Y-83329408D01*
X60462982Y-83330980D01*
X60467753Y-83331498D01*
X60467758Y-83331500D01*
X60467763Y-83331500D01*
X60546411Y-83331500D01*
X60625023Y-83333629D01*
X60625023Y-83333628D01*
X60625025Y-83333629D01*
X60629748Y-83333244D01*
X60648098Y-83331500D01*
X61400671Y-83331500D01*
X61468792Y-83351502D01*
X61489766Y-83368405D01*
X61749435Y-83628074D01*
X61783461Y-83690386D01*
X61778396Y-83761201D01*
X61735849Y-83818037D01*
X61734402Y-83819105D01*
X61618742Y-83903137D01*
X61592926Y-83931810D01*
X61532480Y-83969050D01*
X61499290Y-83973500D01*
X60879299Y-83973500D01*
X60871067Y-83972960D01*
X60835289Y-83968250D01*
X60835287Y-83968250D01*
X60829211Y-83969050D01*
X60795410Y-83973500D01*
X60795403Y-83973500D01*
X60735661Y-83981365D01*
X60676439Y-83989161D01*
X60528415Y-84050474D01*
X60502605Y-84070278D01*
X60497755Y-84074000D01*
X60433506Y-84123299D01*
X60433487Y-84123314D01*
X60401300Y-84148013D01*
X60379323Y-84176653D01*
X60373885Y-84182853D01*
X55480852Y-89075886D01*
X55474651Y-89081324D01*
X55446011Y-89103302D01*
X55420460Y-89136599D01*
X55420440Y-89136627D01*
X55348474Y-89230414D01*
X55290900Y-89369412D01*
X55287162Y-89378435D01*
X55287162Y-89378438D01*
X55271500Y-89497403D01*
X55271500Y-89497408D01*
X55271500Y-89497409D01*
X55266250Y-89537287D01*
X55266250Y-89537288D01*
X55270960Y-89573067D01*
X55271500Y-89581299D01*
X55271500Y-96043709D01*
X55251498Y-96111830D01*
X55239137Y-96128019D01*
X55140961Y-96237054D01*
X55140958Y-96237058D01*
X55045476Y-96402438D01*
X55045473Y-96402445D01*
X54986457Y-96584072D01*
X54966496Y-96774000D01*
X44025500Y-96774000D01*
X44025500Y-83956000D01*
X44045502Y-83887879D01*
X44099158Y-83841386D01*
X44151500Y-83830000D01*
X44210000Y-83830000D01*
X44210000Y-81026000D01*
X47346496Y-81026000D01*
X47366457Y-81215927D01*
X47377960Y-81251327D01*
X47425473Y-81397556D01*
X47425476Y-81397561D01*
X47520958Y-81562941D01*
X47520965Y-81562951D01*
X47648744Y-81704864D01*
X47648747Y-81704866D01*
X47803248Y-81817118D01*
X47977712Y-81894794D01*
X48164513Y-81934500D01*
X48355487Y-81934500D01*
X48542288Y-81894794D01*
X48716752Y-81817118D01*
X48871253Y-81704866D01*
X48872047Y-81703983D01*
X48872761Y-81703192D01*
X48873876Y-81702504D01*
X48876163Y-81700446D01*
X48876539Y-81700864D01*
X48933206Y-81665951D01*
X48966399Y-81661500D01*
X50230578Y-81661500D01*
X50298699Y-81681502D01*
X50319673Y-81698405D01*
X54101185Y-85479918D01*
X54111172Y-85492382D01*
X54111396Y-85492197D01*
X54116447Y-85498303D01*
X54167693Y-85546426D01*
X54188901Y-85567635D01*
X54194472Y-85571956D01*
X54198986Y-85575812D01*
X54233494Y-85608217D01*
X54233496Y-85608218D01*
X54251324Y-85618019D01*
X54267852Y-85628876D01*
X54283933Y-85641350D01*
X54283932Y-85641350D01*
X54296585Y-85646825D01*
X54327394Y-85660157D01*
X54332711Y-85662762D01*
X54374197Y-85685569D01*
X54393912Y-85690630D01*
X54412614Y-85697034D01*
X54431292Y-85705117D01*
X54443521Y-85707053D01*
X54478047Y-85712522D01*
X54483860Y-85713724D01*
X54529718Y-85725500D01*
X54550066Y-85725500D01*
X54569775Y-85727050D01*
X54589879Y-85730235D01*
X54624014Y-85727008D01*
X54637011Y-85725780D01*
X54642944Y-85725500D01*
X54665601Y-85725500D01*
X54733722Y-85745502D01*
X54759239Y-85767192D01*
X54760745Y-85768864D01*
X54760747Y-85768866D01*
X54915248Y-85881118D01*
X55089712Y-85958794D01*
X55276513Y-85998500D01*
X55467487Y-85998500D01*
X55654288Y-85958794D01*
X55828752Y-85881118D01*
X55983253Y-85768866D01*
X56004290Y-85745502D01*
X56111034Y-85626951D01*
X56111035Y-85626949D01*
X56111040Y-85626944D01*
X56206527Y-85461556D01*
X56265542Y-85279928D01*
X56285504Y-85090000D01*
X56265542Y-84900072D01*
X56206527Y-84718444D01*
X56111040Y-84553056D01*
X56111038Y-84553054D01*
X56111034Y-84553048D01*
X55983255Y-84411135D01*
X55828752Y-84298882D01*
X55654288Y-84221206D01*
X55467487Y-84181500D01*
X55276513Y-84181500D01*
X55089711Y-84221206D01*
X54915242Y-84298884D01*
X54887837Y-84318795D01*
X54820969Y-84342652D01*
X54751818Y-84326569D01*
X54724684Y-84305952D01*
X52898137Y-82479405D01*
X51054815Y-80636082D01*
X51044831Y-80623620D01*
X51044607Y-80623806D01*
X51039554Y-80617698D01*
X50988306Y-80569573D01*
X50967099Y-80548365D01*
X50964723Y-80546522D01*
X50961520Y-80544037D01*
X50957015Y-80540189D01*
X50922506Y-80507783D01*
X50922499Y-80507778D01*
X50904673Y-80497978D01*
X50888147Y-80487123D01*
X50872066Y-80474649D01*
X50872067Y-80474649D01*
X50828612Y-80455845D01*
X50823279Y-80453232D01*
X50781805Y-80430432D01*
X50781803Y-80430431D01*
X50762085Y-80425368D01*
X50743382Y-80418964D01*
X50724706Y-80410882D01*
X50677941Y-80403475D01*
X50672135Y-80402273D01*
X50656861Y-80398351D01*
X50626286Y-80390500D01*
X50626282Y-80390500D01*
X50605934Y-80390500D01*
X50586224Y-80388949D01*
X50566121Y-80385765D01*
X50566120Y-80385765D01*
X50518989Y-80390220D01*
X50513056Y-80390500D01*
X49021500Y-80390500D01*
X48953379Y-80370498D01*
X48906886Y-80316842D01*
X48895500Y-80264500D01*
X48895500Y-66294000D01*
X54966496Y-66294000D01*
X54986457Y-66483927D01*
X55007276Y-66548000D01*
X55045473Y-66665556D01*
X55063291Y-66696418D01*
X55140958Y-66830941D01*
X55140965Y-66830951D01*
X55268744Y-66972864D01*
X55268747Y-66972866D01*
X55423248Y-67085118D01*
X55597712Y-67162794D01*
X55784513Y-67202500D01*
X55975487Y-67202500D01*
X56162288Y-67162794D01*
X56336752Y-67085118D01*
X56440940Y-67009420D01*
X56507806Y-66985563D01*
X56576958Y-67001643D01*
X56589056Y-67009417D01*
X56693248Y-67085118D01*
X56867712Y-67162794D01*
X57054513Y-67202500D01*
X57245487Y-67202500D01*
X57432288Y-67162794D01*
X57606752Y-67085118D01*
X57761253Y-66972866D01*
X57762047Y-66971983D01*
X57762761Y-66971192D01*
X57763876Y-66970504D01*
X57766163Y-66968446D01*
X57766539Y-66968864D01*
X57823206Y-66933951D01*
X57856399Y-66929500D01*
X59605930Y-66929500D01*
X59621798Y-66931252D01*
X59621826Y-66930962D01*
X59629718Y-66931708D01*
X59629718Y-66931707D01*
X59629719Y-66931708D01*
X59699985Y-66929500D01*
X59729983Y-66929500D01*
X59736969Y-66928617D01*
X59742873Y-66928152D01*
X59790205Y-66926665D01*
X59809751Y-66920985D01*
X59829102Y-66916978D01*
X59849299Y-66914427D01*
X59893332Y-66896992D01*
X59898915Y-66895081D01*
X59944393Y-66881869D01*
X59961907Y-66871510D01*
X59979656Y-66862814D01*
X59998588Y-66855319D01*
X60036903Y-66827480D01*
X60041840Y-66824237D01*
X60082598Y-66800134D01*
X60096984Y-66785747D01*
X60112018Y-66772906D01*
X60128487Y-66760942D01*
X60158678Y-66724446D01*
X60162646Y-66720084D01*
X61167329Y-65715402D01*
X61229639Y-65681379D01*
X61256422Y-65678500D01*
X61309487Y-65678500D01*
X61496288Y-65638794D01*
X61670752Y-65561118D01*
X61825253Y-65448866D01*
X61846557Y-65425206D01*
X61953034Y-65306951D01*
X61953035Y-65306949D01*
X61953040Y-65306944D01*
X62048527Y-65141556D01*
X62107542Y-64959928D01*
X62127504Y-64770000D01*
X62107542Y-64580072D01*
X62048527Y-64398444D01*
X61953040Y-64233056D01*
X61953038Y-64233054D01*
X61953034Y-64233048D01*
X61825255Y-64091135D01*
X61670752Y-63978882D01*
X61496288Y-63901206D01*
X61309487Y-63861500D01*
X61118513Y-63861500D01*
X60931709Y-63901206D01*
X60782707Y-63967546D01*
X60712340Y-63976980D01*
X60657398Y-63954375D01*
X60642482Y-63943538D01*
X60558101Y-63882231D01*
X60383637Y-63804555D01*
X60196836Y-63764849D01*
X60005862Y-63764849D01*
X59819060Y-63804555D01*
X59672951Y-63869607D01*
X59621702Y-63880500D01*
X56726075Y-63880500D01*
X56710202Y-63878747D01*
X56710175Y-63879037D01*
X56702282Y-63878290D01*
X56631997Y-63880500D01*
X56602014Y-63880500D01*
X56595029Y-63881382D01*
X56589118Y-63881847D01*
X56541798Y-63883334D01*
X56541790Y-63883336D01*
X56522243Y-63889014D01*
X56502893Y-63893021D01*
X56482704Y-63895572D01*
X56482703Y-63895572D01*
X56438681Y-63913000D01*
X56433067Y-63914922D01*
X56387611Y-63928129D01*
X56387604Y-63928132D01*
X56370083Y-63938493D01*
X56352343Y-63947184D01*
X56333411Y-63954680D01*
X56295112Y-63982506D01*
X56290152Y-63985764D01*
X56249400Y-64009867D01*
X56235010Y-64024256D01*
X56219986Y-64037088D01*
X56203514Y-64049056D01*
X56173333Y-64085537D01*
X56169338Y-64089928D01*
X55490075Y-64769190D01*
X55477616Y-64779173D01*
X55477801Y-64779397D01*
X55471697Y-64784446D01*
X55423574Y-64835692D01*
X55402358Y-64856909D01*
X55402353Y-64856914D01*
X55398032Y-64862483D01*
X55394185Y-64866987D01*
X55361785Y-64901490D01*
X55361784Y-64901492D01*
X55351976Y-64919332D01*
X55341124Y-64935850D01*
X55328654Y-64951925D01*
X55328650Y-64951932D01*
X55309843Y-64995388D01*
X55307233Y-65000716D01*
X55284433Y-65042191D01*
X55284430Y-65042199D01*
X55279370Y-65061907D01*
X55272968Y-65080607D01*
X55264882Y-65099293D01*
X55264881Y-65099297D01*
X55257476Y-65146051D01*
X55256272Y-65151865D01*
X55244500Y-65197717D01*
X55244500Y-65218065D01*
X55242949Y-65237775D01*
X55239765Y-65257878D01*
X55239765Y-65257879D01*
X55244220Y-65305010D01*
X55244500Y-65310943D01*
X55244500Y-65593696D01*
X55224498Y-65661817D01*
X55212136Y-65678006D01*
X55140965Y-65757048D01*
X55140958Y-65757058D01*
X55045476Y-65922438D01*
X55045473Y-65922445D01*
X54986457Y-66104072D01*
X54966496Y-66294000D01*
X48895500Y-66294000D01*
X48895500Y-64708303D01*
X48915502Y-64640182D01*
X48927864Y-64623992D01*
X48999040Y-64544944D01*
X49094527Y-64379556D01*
X49153542Y-64197928D01*
X49173504Y-64008000D01*
X49153542Y-63818072D01*
X49094527Y-63636444D01*
X48999040Y-63471056D01*
X48999038Y-63471054D01*
X48999034Y-63471048D01*
X48871255Y-63329135D01*
X48716752Y-63216882D01*
X48542288Y-63139206D01*
X48355487Y-63099500D01*
X48164513Y-63099500D01*
X47977711Y-63139206D01*
X47803247Y-63216882D01*
X47648744Y-63329135D01*
X47520965Y-63471048D01*
X47520958Y-63471058D01*
X47425476Y-63636438D01*
X47425473Y-63636445D01*
X47366457Y-63818072D01*
X47346496Y-64008000D01*
X47366457Y-64197927D01*
X47389876Y-64270000D01*
X47425473Y-64379556D01*
X47425476Y-64379561D01*
X47514172Y-64533188D01*
X47520960Y-64544944D01*
X47521579Y-64545632D01*
X47592136Y-64623992D01*
X47622853Y-64688000D01*
X47624500Y-64708303D01*
X47624500Y-80325696D01*
X47604498Y-80393817D01*
X47592136Y-80410006D01*
X47520965Y-80489048D01*
X47520958Y-80489058D01*
X47425476Y-80654438D01*
X47425473Y-80654445D01*
X47366457Y-80836072D01*
X47346496Y-81026000D01*
X44210000Y-81026000D01*
X44210000Y-65830000D01*
X44151500Y-65830000D01*
X44083379Y-65809998D01*
X44036886Y-65756342D01*
X44025500Y-65704000D01*
X44025500Y-58000006D01*
X44286911Y-58000006D01*
X44307250Y-58388114D01*
X44368051Y-58771995D01*
X44468644Y-59147414D01*
X44607919Y-59510239D01*
X44607923Y-59510247D01*
X44784365Y-59856535D01*
X44784369Y-59856541D01*
X44996042Y-60182491D01*
X44996054Y-60182508D01*
X45202876Y-60437911D01*
X45202877Y-60437912D01*
X46699994Y-58940794D01*
X46701570Y-58943365D01*
X46865130Y-59134870D01*
X47056635Y-59298430D01*
X47059203Y-59300004D01*
X45562086Y-60797121D01*
X45562087Y-60797122D01*
X45817491Y-61003945D01*
X45817508Y-61003957D01*
X46143458Y-61215630D01*
X46143464Y-61215634D01*
X46489752Y-61392076D01*
X46489760Y-61392080D01*
X46852585Y-61531355D01*
X47228004Y-61631948D01*
X47611885Y-61692749D01*
X47999994Y-61713089D01*
X48000006Y-61713089D01*
X48388114Y-61692749D01*
X48771995Y-61631948D01*
X49147414Y-61531355D01*
X49510239Y-61392080D01*
X49510247Y-61392076D01*
X49856535Y-61215634D01*
X49856541Y-61215630D01*
X50182501Y-61003950D01*
X50437912Y-60797121D01*
X48940795Y-59300004D01*
X48943365Y-59298430D01*
X49134870Y-59134870D01*
X49298430Y-58943365D01*
X49300004Y-58940795D01*
X50797121Y-60437912D01*
X51003950Y-60182501D01*
X51215630Y-59856541D01*
X51215634Y-59856535D01*
X51392076Y-59510247D01*
X51392080Y-59510239D01*
X51531355Y-59147414D01*
X51631948Y-58771995D01*
X51692749Y-58388114D01*
X51713089Y-58000006D01*
X51713089Y-57999993D01*
X51692749Y-57611885D01*
X51631948Y-57228004D01*
X51531355Y-56852585D01*
X51392080Y-56489760D01*
X51392076Y-56489752D01*
X51215628Y-56143455D01*
X51047787Y-55885000D01*
X67724844Y-55885000D01*
X67741818Y-56089844D01*
X67743437Y-56109375D01*
X67798702Y-56327612D01*
X67798703Y-56327613D01*
X67798704Y-56327616D01*
X67882644Y-56518982D01*
X67889141Y-56533793D01*
X68012275Y-56722265D01*
X68012279Y-56722270D01*
X68075908Y-56791388D01*
X68132244Y-56852585D01*
X68155841Y-56878217D01*
X68187262Y-56941882D01*
X68179276Y-57012428D01*
X68134417Y-57067457D01*
X68107173Y-57081610D01*
X67992039Y-57124553D01*
X67992034Y-57124555D01*
X67875095Y-57212095D01*
X67787555Y-57329034D01*
X67787555Y-57329035D01*
X67736505Y-57465906D01*
X67730000Y-57526402D01*
X67730000Y-58171000D01*
X68656884Y-58171000D01*
X68628507Y-58215156D01*
X68588000Y-58353111D01*
X68588000Y-58496889D01*
X68628507Y-58634844D01*
X68656884Y-58679000D01*
X67730000Y-58679000D01*
X67730000Y-59323597D01*
X67736505Y-59384093D01*
X67787555Y-59520964D01*
X67787555Y-59520965D01*
X67875095Y-59637904D01*
X67992034Y-59725444D01*
X68128906Y-59776494D01*
X68189402Y-59782999D01*
X68189415Y-59783000D01*
X68834000Y-59783000D01*
X68834000Y-58858674D01*
X68945685Y-58909680D01*
X69052237Y-58925000D01*
X69123763Y-58925000D01*
X69230315Y-58909680D01*
X69342000Y-58858674D01*
X69342000Y-59783000D01*
X69986585Y-59783000D01*
X69986597Y-59782999D01*
X70047093Y-59776494D01*
X70183964Y-59725444D01*
X70183965Y-59725444D01*
X70300904Y-59637904D01*
X70388444Y-59520965D01*
X70388444Y-59520964D01*
X70439494Y-59384093D01*
X70445999Y-59323597D01*
X70446000Y-59323585D01*
X70446000Y-58679000D01*
X69519116Y-58679000D01*
X69547493Y-58634844D01*
X69588000Y-58496889D01*
X69588000Y-58353111D01*
X69547493Y-58215156D01*
X69519116Y-58171000D01*
X70446000Y-58171000D01*
X70446000Y-57526414D01*
X70445999Y-57526402D01*
X70439494Y-57465906D01*
X70388444Y-57329035D01*
X70388444Y-57329034D01*
X70300904Y-57212095D01*
X70183966Y-57124556D01*
X70068826Y-57081611D01*
X70011991Y-57039064D01*
X69987180Y-56972543D01*
X70002272Y-56903169D01*
X70020154Y-56878222D01*
X70163722Y-56722268D01*
X70286860Y-56533791D01*
X70377296Y-56327616D01*
X70432564Y-56109368D01*
X70451156Y-55885000D01*
X71534844Y-55885000D01*
X71551818Y-56089844D01*
X71553437Y-56109375D01*
X71608702Y-56327612D01*
X71608703Y-56327613D01*
X71608704Y-56327616D01*
X71692644Y-56518982D01*
X71699141Y-56533793D01*
X71822275Y-56722265D01*
X71822279Y-56722270D01*
X71885908Y-56791388D01*
X71942244Y-56852585D01*
X71965841Y-56878217D01*
X71997262Y-56941882D01*
X71989276Y-57012428D01*
X71944417Y-57067457D01*
X71917173Y-57081610D01*
X71802039Y-57124553D01*
X71802034Y-57124555D01*
X71685095Y-57212095D01*
X71597555Y-57329034D01*
X71597555Y-57329035D01*
X71546505Y-57465906D01*
X71540000Y-57526402D01*
X71540000Y-58171000D01*
X72466884Y-58171000D01*
X72438507Y-58215156D01*
X72398000Y-58353111D01*
X72398000Y-58496889D01*
X72438507Y-58634844D01*
X72466884Y-58679000D01*
X71540000Y-58679000D01*
X71540000Y-59323597D01*
X71546505Y-59384093D01*
X71597555Y-59520964D01*
X71597555Y-59520965D01*
X71685095Y-59637904D01*
X71802034Y-59725444D01*
X71938906Y-59776494D01*
X71999402Y-59782999D01*
X71999415Y-59783000D01*
X72644000Y-59783000D01*
X72644000Y-58858674D01*
X72755685Y-58909680D01*
X72862237Y-58925000D01*
X72933763Y-58925000D01*
X73040315Y-58909680D01*
X73152000Y-58858674D01*
X73152000Y-59783000D01*
X73796585Y-59783000D01*
X73796597Y-59782999D01*
X73857093Y-59776494D01*
X73993964Y-59725444D01*
X73993965Y-59725444D01*
X74110904Y-59637904D01*
X74198444Y-59520965D01*
X74198444Y-59520964D01*
X74249494Y-59384093D01*
X74255999Y-59323597D01*
X74256000Y-59323585D01*
X74256000Y-58679000D01*
X73329116Y-58679000D01*
X73357493Y-58634844D01*
X73398000Y-58496889D01*
X73398000Y-58353111D01*
X73357493Y-58215156D01*
X73329116Y-58171000D01*
X74256000Y-58171000D01*
X74256000Y-57526414D01*
X74255999Y-57526402D01*
X74249494Y-57465906D01*
X74198444Y-57329035D01*
X74198444Y-57329034D01*
X74110904Y-57212095D01*
X73993966Y-57124556D01*
X73878826Y-57081611D01*
X73821991Y-57039064D01*
X73797180Y-56972543D01*
X73812272Y-56903169D01*
X73830154Y-56878222D01*
X73921819Y-56778649D01*
X75403000Y-56778649D01*
X75409509Y-56839196D01*
X75409511Y-56839204D01*
X75460610Y-56976202D01*
X75460612Y-56976207D01*
X75548238Y-57093261D01*
X75665292Y-57180887D01*
X75665294Y-57180888D01*
X75665296Y-57180889D01*
X75719100Y-57200957D01*
X75802295Y-57231988D01*
X75802303Y-57231990D01*
X75862850Y-57238499D01*
X75862855Y-57238499D01*
X75862862Y-57238500D01*
X75862868Y-57238500D01*
X77660132Y-57238500D01*
X77660138Y-57238500D01*
X77660145Y-57238499D01*
X77660149Y-57238499D01*
X77720696Y-57231990D01*
X77720699Y-57231989D01*
X77720701Y-57231989D01*
X77733072Y-57227375D01*
X77763724Y-57215942D01*
X77857704Y-57180889D01*
X77927899Y-57128342D01*
X77974761Y-57093261D01*
X78062386Y-56976208D01*
X78062385Y-56976208D01*
X78062389Y-56976204D01*
X78106499Y-56857939D01*
X78149045Y-56801107D01*
X78215566Y-56776296D01*
X78284940Y-56791388D01*
X78317253Y-56816635D01*
X78377918Y-56882534D01*
X78378262Y-56882908D01*
X78432831Y-56925381D01*
X78555924Y-57021189D01*
X78753926Y-57128342D01*
X78753927Y-57128342D01*
X78753928Y-57128343D01*
X78813413Y-57148764D01*
X78966865Y-57201444D01*
X79188931Y-57238500D01*
X79188935Y-57238500D01*
X79414065Y-57238500D01*
X79414069Y-57238500D01*
X79636135Y-57201444D01*
X79849074Y-57128342D01*
X80047076Y-57021189D01*
X80224740Y-56882906D01*
X80377222Y-56717268D01*
X80377427Y-56716955D01*
X80459717Y-56591000D01*
X80466316Y-56580898D01*
X80520319Y-56534810D01*
X80590667Y-56525235D01*
X80655024Y-56555212D01*
X80677282Y-56580898D01*
X80766174Y-56716958D01*
X80918597Y-56882534D01*
X81096198Y-57020767D01*
X81096199Y-57020768D01*
X81294128Y-57127882D01*
X81294130Y-57127883D01*
X81506983Y-57200955D01*
X81506992Y-57200957D01*
X81587500Y-57214391D01*
X81587500Y-56313674D01*
X81699185Y-56364680D01*
X81805737Y-56380000D01*
X81877263Y-56380000D01*
X81983815Y-56364680D01*
X82095500Y-56313674D01*
X82095500Y-57214391D01*
X82176007Y-57200957D01*
X82176016Y-57200955D01*
X82388869Y-57127883D01*
X82388871Y-57127882D01*
X82586800Y-57020768D01*
X82586801Y-57020767D01*
X82764402Y-56882534D01*
X82916827Y-56716955D01*
X83005717Y-56580899D01*
X83059720Y-56534810D01*
X83130068Y-56525235D01*
X83194425Y-56555212D01*
X83216683Y-56580898D01*
X83305779Y-56717270D01*
X83374011Y-56791388D01*
X83453943Y-56878217D01*
X83458262Y-56882908D01*
X83512831Y-56925381D01*
X83635924Y-57021189D01*
X83833926Y-57128342D01*
X83833927Y-57128342D01*
X83833928Y-57128343D01*
X83893413Y-57148764D01*
X84046865Y-57201444D01*
X84268931Y-57238500D01*
X84268935Y-57238500D01*
X84494062Y-57238500D01*
X84494069Y-57238500D01*
X84496749Y-57238052D01*
X84497856Y-57238186D01*
X84499259Y-57238070D01*
X84499282Y-57238358D01*
X84567230Y-57246560D01*
X84606595Y-57273236D01*
X86259095Y-58925736D01*
X86293121Y-58988048D01*
X86296000Y-59014831D01*
X86296000Y-64375667D01*
X86275998Y-64443788D01*
X86259095Y-64464763D01*
X86055483Y-64668374D01*
X86051720Y-64671843D01*
X86010790Y-64706610D01*
X85963194Y-64769222D01*
X85913919Y-64830524D01*
X85911450Y-64834386D01*
X85904423Y-64845715D01*
X85902061Y-64849641D01*
X85869035Y-64921025D01*
X85834092Y-64991484D01*
X85832539Y-64995710D01*
X85828059Y-65008435D01*
X85826622Y-65012701D01*
X85820129Y-65042199D01*
X85809716Y-65089505D01*
X85809669Y-65089693D01*
X85790733Y-65165837D01*
X85790116Y-65170371D01*
X85788502Y-65183544D01*
X85788000Y-65188167D01*
X85788000Y-65266799D01*
X85785869Y-65345437D01*
X85786250Y-65350111D01*
X85788000Y-65368513D01*
X85788000Y-69178509D01*
X85779699Y-69217574D01*
X85781513Y-69218164D01*
X85720457Y-69406071D01*
X85700496Y-69596000D01*
X85720457Y-69785927D01*
X85781514Y-69973836D01*
X85779692Y-69974427D01*
X85788000Y-70013489D01*
X85788000Y-76036509D01*
X85779699Y-76075575D01*
X85781513Y-76076165D01*
X85740918Y-76201099D01*
X85700844Y-76259705D01*
X85635447Y-76287341D01*
X85565490Y-76275234D01*
X85531990Y-76251257D01*
X81718789Y-72438056D01*
X81684763Y-72375744D01*
X81682576Y-72362146D01*
X81665542Y-72200072D01*
X81606527Y-72018444D01*
X81511040Y-71853056D01*
X81511038Y-71853054D01*
X81511034Y-71853048D01*
X81383255Y-71711135D01*
X81228752Y-71598882D01*
X81054288Y-71521206D01*
X80867487Y-71481500D01*
X80676513Y-71481500D01*
X80489711Y-71521206D01*
X80315247Y-71598882D01*
X80160744Y-71711135D01*
X80032965Y-71853048D01*
X80032958Y-71853058D01*
X79937476Y-72018438D01*
X79937473Y-72018445D01*
X79878457Y-72200072D01*
X79858496Y-72390000D01*
X79878457Y-72579927D01*
X79899276Y-72644000D01*
X79937473Y-72761556D01*
X79937476Y-72761561D01*
X80032958Y-72926941D01*
X80032965Y-72926951D01*
X80160744Y-73068864D01*
X80160747Y-73068866D01*
X80315248Y-73181118D01*
X80489712Y-73258794D01*
X80676513Y-73298500D01*
X80729578Y-73298500D01*
X80797699Y-73318502D01*
X80818673Y-73335405D01*
X84356672Y-76873405D01*
X84390698Y-76935717D01*
X84385633Y-77006533D01*
X84343086Y-77063368D01*
X84276566Y-77088179D01*
X84267577Y-77088500D01*
X80462399Y-77088500D01*
X80394278Y-77068498D01*
X80368761Y-77046808D01*
X80367254Y-77045135D01*
X80212752Y-76932882D01*
X80038288Y-76855206D01*
X79851487Y-76815500D01*
X79660513Y-76815500D01*
X79473711Y-76855206D01*
X79299247Y-76932882D01*
X79144744Y-77045135D01*
X79016965Y-77187048D01*
X79016958Y-77187058D01*
X78921476Y-77352438D01*
X78921473Y-77352445D01*
X78862457Y-77534072D01*
X78842496Y-77724000D01*
X78862457Y-77913927D01*
X78865668Y-77923808D01*
X78921473Y-78095556D01*
X78921473Y-78095557D01*
X78921474Y-78095558D01*
X78963876Y-78169001D01*
X78980613Y-78237996D01*
X78963876Y-78294999D01*
X78921474Y-78368441D01*
X78921473Y-78368445D01*
X78862457Y-78550072D01*
X78842496Y-78740000D01*
X78862457Y-78929927D01*
X78886276Y-79003232D01*
X78921473Y-79111556D01*
X78949841Y-79160691D01*
X79016958Y-79276941D01*
X79016965Y-79276951D01*
X79144744Y-79418864D01*
X79144747Y-79418866D01*
X79299248Y-79531118D01*
X79473712Y-79608794D01*
X79660513Y-79648500D01*
X79851487Y-79648500D01*
X80038288Y-79608794D01*
X80212752Y-79531118D01*
X80367253Y-79418866D01*
X80368047Y-79417983D01*
X80368761Y-79417192D01*
X80369876Y-79416504D01*
X80372163Y-79414446D01*
X80372539Y-79414864D01*
X80429206Y-79379951D01*
X80462399Y-79375500D01*
X84266578Y-79375500D01*
X84334699Y-79395502D01*
X84355668Y-79412400D01*
X85741550Y-80798283D01*
X86194350Y-81251083D01*
X86194364Y-81251096D01*
X86867188Y-81923921D01*
X86877171Y-81936382D01*
X86877396Y-81936197D01*
X86882447Y-81942303D01*
X86933693Y-81990426D01*
X86954901Y-82011635D01*
X86960472Y-82015956D01*
X86964986Y-82019812D01*
X86999494Y-82052217D01*
X86999496Y-82052218D01*
X87017324Y-82062019D01*
X87033852Y-82072876D01*
X87049933Y-82085350D01*
X87049932Y-82085350D01*
X87062585Y-82090825D01*
X87093394Y-82104157D01*
X87098711Y-82106762D01*
X87133830Y-82126069D01*
X87140197Y-82129569D01*
X87159912Y-82134630D01*
X87178614Y-82141034D01*
X87197292Y-82149117D01*
X87209521Y-82151053D01*
X87244047Y-82156522D01*
X87249860Y-82157724D01*
X87295718Y-82169500D01*
X87316066Y-82169500D01*
X87335775Y-82171050D01*
X87355879Y-82174235D01*
X87390014Y-82171008D01*
X87403011Y-82169780D01*
X87408944Y-82169500D01*
X96067601Y-82169500D01*
X96135722Y-82189502D01*
X96161239Y-82211192D01*
X96162745Y-82212864D01*
X96162747Y-82212866D01*
X96317248Y-82325118D01*
X96491712Y-82402794D01*
X96678513Y-82442500D01*
X96869487Y-82442500D01*
X97056288Y-82402794D01*
X97230752Y-82325118D01*
X97385253Y-82212866D01*
X97406290Y-82189502D01*
X97513034Y-82070951D01*
X97513035Y-82070949D01*
X97513040Y-82070944D01*
X97608527Y-81905556D01*
X97667542Y-81723928D01*
X97687504Y-81534000D01*
X97667542Y-81344072D01*
X97608527Y-81162444D01*
X97585021Y-81121730D01*
X97568283Y-81052739D01*
X97591502Y-80985647D01*
X97620080Y-80956795D01*
X97639253Y-80942866D01*
X97644034Y-80937556D01*
X97767034Y-80800951D01*
X97767035Y-80800949D01*
X97767040Y-80800944D01*
X97862527Y-80635556D01*
X97921542Y-80453928D01*
X97941504Y-80264000D01*
X97921542Y-80074072D01*
X97862527Y-79892444D01*
X97767040Y-79727056D01*
X97767038Y-79727054D01*
X97767034Y-79727048D01*
X97639255Y-79585135D01*
X97484752Y-79472882D01*
X97310288Y-79395206D01*
X97123487Y-79355500D01*
X97070423Y-79355500D01*
X97002302Y-79335498D01*
X96981328Y-79318595D01*
X96785891Y-79123158D01*
X96775907Y-79110696D01*
X96775683Y-79110882D01*
X96770630Y-79104774D01*
X96719382Y-79056649D01*
X96698175Y-79035441D01*
X96698170Y-79035437D01*
X96692596Y-79031113D01*
X96688091Y-79027265D01*
X96653582Y-78994859D01*
X96653575Y-78994854D01*
X96635749Y-78985054D01*
X96619223Y-78974199D01*
X96603142Y-78961725D01*
X96603143Y-78961725D01*
X96559688Y-78942921D01*
X96554355Y-78940308D01*
X96512881Y-78917508D01*
X96512879Y-78917507D01*
X96493161Y-78912444D01*
X96474458Y-78906040D01*
X96455782Y-78897958D01*
X96409017Y-78890551D01*
X96403211Y-78889349D01*
X96387937Y-78885427D01*
X96357362Y-78877576D01*
X96357358Y-78877576D01*
X96337010Y-78877576D01*
X96317300Y-78876025D01*
X96297197Y-78872841D01*
X96297196Y-78872841D01*
X96250065Y-78877296D01*
X96244132Y-78877576D01*
X88210499Y-78877576D01*
X88142378Y-78857574D01*
X88121404Y-78840671D01*
X86818940Y-77538207D01*
X86784914Y-77475895D01*
X86789979Y-77405080D01*
X86832526Y-77348244D01*
X86881840Y-77325865D01*
X86896288Y-77322794D01*
X87070752Y-77245118D01*
X87225253Y-77132866D01*
X87225255Y-77132864D01*
X87353034Y-76990951D01*
X87353035Y-76990949D01*
X87353040Y-76990944D01*
X87448527Y-76825556D01*
X87507542Y-76643928D01*
X87527504Y-76454000D01*
X87507542Y-76264072D01*
X87477319Y-76171056D01*
X87446487Y-76076164D01*
X87448300Y-76075574D01*
X87440000Y-76036509D01*
X87440000Y-75184000D01*
X92304496Y-75184000D01*
X92324457Y-75373927D01*
X92345276Y-75438000D01*
X92383473Y-75555556D01*
X92383476Y-75555561D01*
X92478958Y-75720941D01*
X92478965Y-75720951D01*
X92606744Y-75862864D01*
X92606747Y-75862866D01*
X92761248Y-75975118D01*
X92935712Y-76052794D01*
X93122513Y-76092500D01*
X93313487Y-76092500D01*
X93500288Y-76052794D01*
X93674752Y-75975118D01*
X93829253Y-75862866D01*
X93830047Y-75861983D01*
X93830761Y-75861192D01*
X93831876Y-75860504D01*
X93834163Y-75858446D01*
X93834539Y-75858864D01*
X93891206Y-75823951D01*
X93924399Y-75819500D01*
X97845601Y-75819500D01*
X97913722Y-75839502D01*
X97939239Y-75861192D01*
X97940745Y-75862864D01*
X97940747Y-75862866D01*
X98095248Y-75975118D01*
X98269712Y-76052794D01*
X98456513Y-76092500D01*
X98647487Y-76092500D01*
X98834288Y-76052794D01*
X99008752Y-75975118D01*
X99163253Y-75862866D01*
X99165380Y-75860504D01*
X99291034Y-75720951D01*
X99291035Y-75720949D01*
X99291040Y-75720944D01*
X99386527Y-75555556D01*
X99445542Y-75373928D01*
X99465504Y-75184000D01*
X99445542Y-74994072D01*
X99386527Y-74812444D01*
X99291040Y-74647056D01*
X99291038Y-74647054D01*
X99291034Y-74647048D01*
X99163255Y-74505135D01*
X99008752Y-74392882D01*
X98834288Y-74315206D01*
X98647487Y-74275500D01*
X98456513Y-74275500D01*
X98269711Y-74315206D01*
X98095247Y-74392882D01*
X97940745Y-74505135D01*
X97939239Y-74506808D01*
X97938123Y-74507495D01*
X97935837Y-74509554D01*
X97935460Y-74509135D01*
X97878794Y-74544049D01*
X97845601Y-74548500D01*
X93924399Y-74548500D01*
X93856278Y-74528498D01*
X93830761Y-74506808D01*
X93829254Y-74505135D01*
X93674752Y-74392882D01*
X93500288Y-74315206D01*
X93313487Y-74275500D01*
X93122513Y-74275500D01*
X92935711Y-74315206D01*
X92761247Y-74392882D01*
X92606744Y-74505135D01*
X92478965Y-74647048D01*
X92478958Y-74647058D01*
X92383476Y-74812438D01*
X92383473Y-74812445D01*
X92324457Y-74994072D01*
X92304496Y-75184000D01*
X87440000Y-75184000D01*
X87440000Y-72644000D01*
X90731496Y-72644000D01*
X90751457Y-72833927D01*
X90772276Y-72898000D01*
X90810473Y-73015556D01*
X90810476Y-73015561D01*
X90905958Y-73180941D01*
X90905965Y-73180951D01*
X91033744Y-73322864D01*
X91033747Y-73322866D01*
X91188248Y-73435118D01*
X91362712Y-73512794D01*
X91549513Y-73552500D01*
X91740487Y-73552500D01*
X91927288Y-73512794D01*
X92101752Y-73435118D01*
X92256253Y-73322866D01*
X92256255Y-73322864D01*
X92384034Y-73180951D01*
X92384035Y-73180949D01*
X92384040Y-73180944D01*
X92479527Y-73015556D01*
X92538542Y-72833928D01*
X92558504Y-72644000D01*
X92538542Y-72454072D01*
X92479527Y-72272444D01*
X92384040Y-72107056D01*
X92384038Y-72107054D01*
X92384034Y-72107048D01*
X92256255Y-71965135D01*
X92101752Y-71852882D01*
X91927288Y-71775206D01*
X91740487Y-71735500D01*
X91549513Y-71735500D01*
X91362711Y-71775206D01*
X91188247Y-71852882D01*
X91033744Y-71965135D01*
X90905965Y-72107048D01*
X90905958Y-72107058D01*
X90810476Y-72272438D01*
X90810473Y-72272445D01*
X90751457Y-72454072D01*
X90731496Y-72644000D01*
X87440000Y-72644000D01*
X87440000Y-70013489D01*
X87448307Y-69974427D01*
X87446486Y-69973836D01*
X87500595Y-69807310D01*
X87507542Y-69785928D01*
X87527504Y-69596000D01*
X87507542Y-69406072D01*
X87507542Y-69406071D01*
X87446487Y-69218164D01*
X87448300Y-69217574D01*
X87440000Y-69178509D01*
X87440000Y-65672330D01*
X87460002Y-65604209D01*
X87476900Y-65583239D01*
X87680519Y-65379619D01*
X87684256Y-65376173D01*
X87725209Y-65341390D01*
X87772815Y-65278764D01*
X87822077Y-65217481D01*
X87822081Y-65217471D01*
X87824698Y-65213378D01*
X87831447Y-65202497D01*
X87833933Y-65198365D01*
X87833938Y-65198359D01*
X87866968Y-65126964D01*
X87901904Y-65056523D01*
X87901905Y-65056520D01*
X87903567Y-65051996D01*
X87907841Y-65039856D01*
X87909375Y-65035303D01*
X87909378Y-65035298D01*
X87926285Y-64958483D01*
X87945265Y-64882168D01*
X87945265Y-64882163D01*
X87945910Y-64877434D01*
X87947474Y-64864664D01*
X87948000Y-64859830D01*
X87948000Y-64821006D01*
X90146041Y-64821006D01*
X90165854Y-65135944D01*
X90165856Y-65135961D01*
X90224989Y-65445942D01*
X90224992Y-65445955D01*
X90322509Y-65746079D01*
X90322513Y-65746088D01*
X90456875Y-66031622D01*
X90456882Y-66031636D01*
X90625966Y-66298071D01*
X90625969Y-66298075D01*
X90715043Y-66405746D01*
X91432913Y-65687875D01*
X91551632Y-65840404D01*
X91734523Y-66008768D01*
X91792537Y-66046670D01*
X91071521Y-66767686D01*
X91071521Y-66767688D01*
X91312486Y-66942759D01*
X91589034Y-67094792D01*
X91882460Y-67210968D01*
X91882466Y-67210970D01*
X92188103Y-67289444D01*
X92188130Y-67289449D01*
X92501195Y-67328998D01*
X92501214Y-67329000D01*
X92816786Y-67329000D01*
X92816804Y-67328998D01*
X93129869Y-67289449D01*
X93129896Y-67289444D01*
X93435533Y-67210970D01*
X93435539Y-67210968D01*
X93728965Y-67094792D01*
X94005517Y-66942756D01*
X94246477Y-66767688D01*
X94246477Y-66767686D01*
X93525461Y-66046670D01*
X93583477Y-66008768D01*
X93766368Y-65840404D01*
X93885085Y-65687876D01*
X94602955Y-66405746D01*
X94602956Y-66405745D01*
X94692026Y-66298080D01*
X94692029Y-66298076D01*
X94861117Y-66031636D01*
X94861124Y-66031622D01*
X94995486Y-65746088D01*
X94995490Y-65746079D01*
X95093007Y-65445955D01*
X95093010Y-65445942D01*
X95152143Y-65135961D01*
X95152145Y-65135944D01*
X95171959Y-64821006D01*
X98376041Y-64821006D01*
X98395854Y-65135944D01*
X98395856Y-65135961D01*
X98454989Y-65445942D01*
X98454992Y-65445955D01*
X98552509Y-65746079D01*
X98552513Y-65746088D01*
X98686875Y-66031622D01*
X98686882Y-66031636D01*
X98855966Y-66298071D01*
X98855969Y-66298075D01*
X98945043Y-66405746D01*
X99662913Y-65687875D01*
X99781632Y-65840404D01*
X99964523Y-66008768D01*
X100022537Y-66046670D01*
X99301521Y-66767686D01*
X99301521Y-66767688D01*
X99542486Y-66942759D01*
X99819034Y-67094792D01*
X100112460Y-67210968D01*
X100112466Y-67210970D01*
X100418103Y-67289444D01*
X100418130Y-67289449D01*
X100731195Y-67328998D01*
X100731214Y-67329000D01*
X101046786Y-67329000D01*
X101046804Y-67328998D01*
X101359869Y-67289449D01*
X101359896Y-67289444D01*
X101665533Y-67210970D01*
X101665539Y-67210968D01*
X101958965Y-67094792D01*
X102235517Y-66942756D01*
X102476477Y-66767688D01*
X102476477Y-66767686D01*
X101755461Y-66046670D01*
X101813477Y-66008768D01*
X101996368Y-65840404D01*
X102115085Y-65687876D01*
X102832955Y-66405746D01*
X102832956Y-66405745D01*
X102922026Y-66298080D01*
X102922029Y-66298076D01*
X103091117Y-66031636D01*
X103091124Y-66031622D01*
X103225486Y-65746088D01*
X103225490Y-65746079D01*
X103323007Y-65445955D01*
X103323010Y-65445942D01*
X103382143Y-65135961D01*
X103382145Y-65135944D01*
X103401959Y-64821006D01*
X103401959Y-64820993D01*
X103398751Y-64770000D01*
X104300844Y-64770000D01*
X104318232Y-64979844D01*
X104319437Y-64994375D01*
X104374702Y-65212612D01*
X104374703Y-65212613D01*
X104374704Y-65212616D01*
X104456920Y-65400051D01*
X104465141Y-65418793D01*
X104588275Y-65607265D01*
X104588279Y-65607270D01*
X104740762Y-65772908D01*
X104748976Y-65779301D01*
X104918424Y-65911189D01*
X105116426Y-66018342D01*
X105116427Y-66018342D01*
X105116428Y-66018343D01*
X105155109Y-66031622D01*
X105329365Y-66091444D01*
X105551431Y-66128500D01*
X105551435Y-66128500D01*
X105776565Y-66128500D01*
X105776569Y-66128500D01*
X105998635Y-66091444D01*
X106211574Y-66018342D01*
X106409576Y-65911189D01*
X106587240Y-65772906D01*
X106648626Y-65706222D01*
X106709476Y-65669654D01*
X106780441Y-65671787D01*
X106838986Y-65711949D01*
X106859380Y-65747529D01*
X106903553Y-65865961D01*
X106903555Y-65865965D01*
X106991095Y-65982904D01*
X107108034Y-66070444D01*
X107244906Y-66121494D01*
X107305402Y-66127999D01*
X107305415Y-66128000D01*
X107950000Y-66128000D01*
X107950000Y-65203674D01*
X108061685Y-65254680D01*
X108168237Y-65270000D01*
X108239763Y-65270000D01*
X108346315Y-65254680D01*
X108458000Y-65203674D01*
X108458000Y-66128000D01*
X109102585Y-66128000D01*
X109102597Y-66127999D01*
X109163093Y-66121494D01*
X109299964Y-66070444D01*
X109299965Y-66070444D01*
X109416904Y-65982904D01*
X109504444Y-65865965D01*
X109504444Y-65865964D01*
X109555494Y-65729093D01*
X109561999Y-65668597D01*
X109562000Y-65668585D01*
X109562000Y-65024000D01*
X108635116Y-65024000D01*
X108663493Y-64979844D01*
X108704000Y-64841889D01*
X108704000Y-64698111D01*
X108663493Y-64560156D01*
X108635116Y-64516000D01*
X109562000Y-64516000D01*
X109562000Y-63871414D01*
X109561999Y-63871402D01*
X109555494Y-63810906D01*
X109504444Y-63674035D01*
X109504444Y-63674034D01*
X109416904Y-63557095D01*
X109299965Y-63469555D01*
X109163093Y-63418505D01*
X109102597Y-63412000D01*
X108458000Y-63412000D01*
X108458000Y-64336325D01*
X108346315Y-64285320D01*
X108239763Y-64270000D01*
X108168237Y-64270000D01*
X108061685Y-64285320D01*
X107950000Y-64336325D01*
X107950000Y-63412000D01*
X107305402Y-63412000D01*
X107244906Y-63418505D01*
X107108035Y-63469555D01*
X107108034Y-63469555D01*
X106991095Y-63557095D01*
X106903555Y-63674034D01*
X106903553Y-63674039D01*
X106859380Y-63792470D01*
X106816833Y-63849306D01*
X106750313Y-63874116D01*
X106680939Y-63859024D01*
X106648626Y-63833777D01*
X106587240Y-63767094D01*
X106587239Y-63767093D01*
X106587237Y-63767091D01*
X106467679Y-63674035D01*
X106409576Y-63628811D01*
X106211574Y-63521658D01*
X106211572Y-63521657D01*
X106211571Y-63521656D01*
X105998639Y-63448557D01*
X105998630Y-63448555D01*
X105954476Y-63441187D01*
X105776569Y-63411500D01*
X105551431Y-63411500D01*
X105403211Y-63436233D01*
X105329369Y-63448555D01*
X105329360Y-63448557D01*
X105116428Y-63521656D01*
X105116426Y-63521658D01*
X104918426Y-63628810D01*
X104918424Y-63628811D01*
X104740762Y-63767091D01*
X104588279Y-63932729D01*
X104588275Y-63932734D01*
X104465141Y-64121206D01*
X104374703Y-64327386D01*
X104374702Y-64327387D01*
X104319437Y-64545624D01*
X104319436Y-64545630D01*
X104319436Y-64545632D01*
X104300844Y-64770000D01*
X103398751Y-64770000D01*
X103382145Y-64506055D01*
X103382143Y-64506038D01*
X103323010Y-64196057D01*
X103323007Y-64196044D01*
X103225490Y-63895920D01*
X103225486Y-63895911D01*
X103091124Y-63610377D01*
X103091117Y-63610363D01*
X102922033Y-63343928D01*
X102922030Y-63343924D01*
X102832955Y-63236252D01*
X102115084Y-63954122D01*
X101996368Y-63801596D01*
X101813477Y-63633232D01*
X101755461Y-63595328D01*
X102476477Y-62874312D01*
X102476477Y-62874310D01*
X102235513Y-62699240D01*
X101958965Y-62547207D01*
X101665539Y-62431031D01*
X101665533Y-62431029D01*
X101359896Y-62352555D01*
X101359869Y-62352550D01*
X101046804Y-62313001D01*
X101046786Y-62313000D01*
X100731214Y-62313000D01*
X100731195Y-62313001D01*
X100418130Y-62352550D01*
X100418103Y-62352555D01*
X100112466Y-62431029D01*
X100112460Y-62431031D01*
X99819034Y-62547207D01*
X99542485Y-62699241D01*
X99301521Y-62874310D01*
X99301521Y-62874312D01*
X100022538Y-63595329D01*
X99964523Y-63633232D01*
X99781632Y-63801596D01*
X99662914Y-63954123D01*
X98945043Y-63236252D01*
X98945042Y-63236252D01*
X98855971Y-63343921D01*
X98855969Y-63343924D01*
X98686882Y-63610363D01*
X98686875Y-63610377D01*
X98552513Y-63895911D01*
X98552509Y-63895920D01*
X98454992Y-64196044D01*
X98454989Y-64196057D01*
X98395856Y-64506038D01*
X98395854Y-64506055D01*
X98376041Y-64820993D01*
X98376041Y-64821006D01*
X95171959Y-64821006D01*
X95171959Y-64820993D01*
X95152145Y-64506055D01*
X95152143Y-64506038D01*
X95093010Y-64196057D01*
X95093007Y-64196044D01*
X94995490Y-63895920D01*
X94995486Y-63895911D01*
X94861124Y-63610377D01*
X94861117Y-63610363D01*
X94692033Y-63343928D01*
X94692030Y-63343924D01*
X94602955Y-63236252D01*
X93885084Y-63954122D01*
X93766368Y-63801596D01*
X93583477Y-63633232D01*
X93525461Y-63595328D01*
X94246477Y-62874312D01*
X94246477Y-62874310D01*
X94005513Y-62699240D01*
X93728965Y-62547207D01*
X93435539Y-62431031D01*
X93435533Y-62431029D01*
X93129896Y-62352555D01*
X93129869Y-62352550D01*
X92816804Y-62313001D01*
X92816786Y-62313000D01*
X92501214Y-62313000D01*
X92501195Y-62313001D01*
X92188130Y-62352550D01*
X92188103Y-62352555D01*
X91882466Y-62431029D01*
X91882460Y-62431031D01*
X91589034Y-62547207D01*
X91312485Y-62699241D01*
X91071521Y-62874310D01*
X91071521Y-62874312D01*
X91792538Y-63595329D01*
X91734523Y-63633232D01*
X91551632Y-63801596D01*
X91432914Y-63954123D01*
X90715043Y-63236252D01*
X90715042Y-63236252D01*
X90625971Y-63343921D01*
X90625969Y-63343924D01*
X90456882Y-63610363D01*
X90456875Y-63610377D01*
X90322513Y-63895911D01*
X90322509Y-63895920D01*
X90224992Y-64196044D01*
X90224989Y-64196057D01*
X90165856Y-64506038D01*
X90165854Y-64506055D01*
X90146041Y-64820993D01*
X90146041Y-64821006D01*
X87948000Y-64821006D01*
X87948000Y-64781179D01*
X87949974Y-64708303D01*
X87950129Y-64702568D01*
X87950128Y-64702567D01*
X87950129Y-64702565D01*
X87949744Y-64697842D01*
X87948000Y-64679493D01*
X87948000Y-60706000D01*
X93760401Y-60706000D01*
X93780777Y-61055846D01*
X93780777Y-61055852D01*
X93804742Y-61191766D01*
X93841633Y-61400984D01*
X93942143Y-61736712D01*
X93942145Y-61736718D01*
X93942146Y-61736719D01*
X94020395Y-61918121D01*
X94080950Y-62058501D01*
X94256175Y-62362000D01*
X94465449Y-62643104D01*
X94705943Y-62898012D01*
X94705948Y-62898016D01*
X94705954Y-62898022D01*
X94974396Y-63123273D01*
X94974400Y-63123276D01*
X94974403Y-63123278D01*
X95267200Y-63315853D01*
X95580374Y-63473135D01*
X95646679Y-63497268D01*
X95909681Y-63592993D01*
X95909682Y-63592993D01*
X95909690Y-63592996D01*
X96250694Y-63673816D01*
X96449597Y-63697064D01*
X96598772Y-63714500D01*
X96598775Y-63714500D01*
X96949228Y-63714500D01*
X97079755Y-63699243D01*
X97297306Y-63673816D01*
X97638310Y-63592996D01*
X97967626Y-63473135D01*
X98280800Y-63315853D01*
X98573597Y-63123278D01*
X98842057Y-62898012D01*
X99082551Y-62643104D01*
X99291825Y-62362000D01*
X99467050Y-62058501D01*
X99605857Y-61736712D01*
X99706367Y-61400984D01*
X99767222Y-61055857D01*
X99787599Y-60706000D01*
X99767222Y-60356143D01*
X99706367Y-60011016D01*
X99605857Y-59675288D01*
X99467050Y-59353499D01*
X99291825Y-59050000D01*
X99082551Y-58768896D01*
X98842057Y-58513988D01*
X98842050Y-58513982D01*
X98842045Y-58513977D01*
X98573603Y-58288726D01*
X98416012Y-58185077D01*
X98280800Y-58096147D01*
X97967626Y-57938865D01*
X97967621Y-57938863D01*
X97967616Y-57938861D01*
X97638318Y-57819006D01*
X97638313Y-57819005D01*
X97638312Y-57819004D01*
X97638310Y-57819004D01*
X97438433Y-57771632D01*
X97297307Y-57738184D01*
X97297301Y-57738183D01*
X96949228Y-57697500D01*
X96949225Y-57697500D01*
X96598775Y-57697500D01*
X96598772Y-57697500D01*
X96250698Y-57738183D01*
X96250692Y-57738184D01*
X95909686Y-57819005D01*
X95909681Y-57819006D01*
X95580383Y-57938861D01*
X95580378Y-57938863D01*
X95580374Y-57938864D01*
X95580374Y-57938865D01*
X95490111Y-57984197D01*
X95267198Y-58096148D01*
X94974396Y-58288726D01*
X94705954Y-58513977D01*
X94705948Y-58513983D01*
X94465450Y-58768894D01*
X94256178Y-59049995D01*
X94256168Y-59050011D01*
X94080953Y-59353493D01*
X94080944Y-59353511D01*
X93942146Y-59675280D01*
X93942143Y-59675288D01*
X93911844Y-59776494D01*
X93841633Y-60011015D01*
X93780777Y-60356147D01*
X93780777Y-60356153D01*
X93760401Y-60706000D01*
X87948000Y-60706000D01*
X87948000Y-58656642D01*
X87948208Y-58651526D01*
X87952567Y-58598002D01*
X87941947Y-58520054D01*
X87933446Y-58441888D01*
X87932403Y-58437150D01*
X87929489Y-58424713D01*
X87928313Y-58419987D01*
X87928312Y-58419979D01*
X87901188Y-58346151D01*
X87876078Y-58271626D01*
X87876075Y-58271621D01*
X87874087Y-58267323D01*
X87868469Y-58255598D01*
X87866355Y-58251337D01*
X87866354Y-58251334D01*
X87824003Y-58185077D01*
X87783451Y-58117678D01*
X87780594Y-58113919D01*
X87772567Y-58103652D01*
X87769589Y-58099947D01*
X87713976Y-58044335D01*
X87671977Y-57999998D01*
X87659894Y-57987242D01*
X87659893Y-57987241D01*
X87659892Y-57987240D01*
X87656309Y-57984197D01*
X87642069Y-57972428D01*
X87631236Y-57961595D01*
X87597210Y-57899283D01*
X87602275Y-57828468D01*
X87644822Y-57771632D01*
X87711342Y-57746821D01*
X87720331Y-57746500D01*
X89290632Y-57746500D01*
X89290638Y-57746500D01*
X89290645Y-57746499D01*
X89290649Y-57746499D01*
X89351196Y-57739990D01*
X89351199Y-57739989D01*
X89351201Y-57739989D01*
X89356041Y-57738184D01*
X89388154Y-57726206D01*
X89488204Y-57688889D01*
X89605261Y-57601261D01*
X89692889Y-57484204D01*
X89743989Y-57347201D01*
X89750500Y-57286638D01*
X89750500Y-55489362D01*
X89745450Y-55442386D01*
X89743990Y-55428803D01*
X89743988Y-55428795D01*
X89692889Y-55291797D01*
X89692887Y-55291792D01*
X89605261Y-55174738D01*
X89488207Y-55087112D01*
X89488202Y-55087110D01*
X89351204Y-55036011D01*
X89351196Y-55036009D01*
X89290649Y-55029500D01*
X89290638Y-55029500D01*
X87493362Y-55029500D01*
X87493350Y-55029500D01*
X87432803Y-55036009D01*
X87432795Y-55036011D01*
X87295797Y-55087110D01*
X87295792Y-55087112D01*
X87178738Y-55174738D01*
X87091112Y-55291792D01*
X87091110Y-55291797D01*
X87040011Y-55428795D01*
X87040009Y-55428803D01*
X87033500Y-55489350D01*
X87033500Y-57059669D01*
X87013498Y-57127790D01*
X86959842Y-57174283D01*
X86889568Y-57184387D01*
X86824988Y-57154893D01*
X86818405Y-57148764D01*
X85771030Y-56101389D01*
X85737004Y-56039077D01*
X85734555Y-56001888D01*
X85735839Y-55986392D01*
X85744656Y-55880000D01*
X85726064Y-55655632D01*
X85670796Y-55437384D01*
X85580360Y-55231209D01*
X85546316Y-55179100D01*
X85457224Y-55042734D01*
X85457220Y-55042729D01*
X85309340Y-54882091D01*
X85304740Y-54877094D01*
X85304739Y-54877093D01*
X85304737Y-54877091D01*
X85192221Y-54789516D01*
X85127076Y-54738811D01*
X84929074Y-54631658D01*
X84929072Y-54631657D01*
X84929071Y-54631656D01*
X84716139Y-54558557D01*
X84716130Y-54558555D01*
X84638529Y-54545606D01*
X84494069Y-54521500D01*
X84268931Y-54521500D01*
X84124471Y-54545606D01*
X84046869Y-54558555D01*
X84046860Y-54558557D01*
X83833928Y-54631656D01*
X83833926Y-54631658D01*
X83635926Y-54738810D01*
X83635924Y-54738811D01*
X83458262Y-54877091D01*
X83305779Y-55042729D01*
X83216683Y-55179101D01*
X83162679Y-55225189D01*
X83092331Y-55234764D01*
X83027974Y-55204786D01*
X83005717Y-55179100D01*
X82916827Y-55043044D01*
X82764402Y-54877465D01*
X82586801Y-54739232D01*
X82586800Y-54739231D01*
X82388871Y-54632117D01*
X82388869Y-54632116D01*
X82176012Y-54559043D01*
X82176001Y-54559040D01*
X82095500Y-54545606D01*
X82095500Y-55446325D01*
X81983815Y-55395320D01*
X81877263Y-55380000D01*
X81805737Y-55380000D01*
X81699185Y-55395320D01*
X81587500Y-55446325D01*
X81587500Y-54545607D01*
X81587499Y-54545606D01*
X81506998Y-54559040D01*
X81506987Y-54559043D01*
X81294130Y-54632116D01*
X81294128Y-54632117D01*
X81096199Y-54739231D01*
X81096198Y-54739232D01*
X80918597Y-54877465D01*
X80766170Y-55043045D01*
X80677280Y-55179101D01*
X80623276Y-55225189D01*
X80552928Y-55234764D01*
X80488571Y-55204786D01*
X80466316Y-55179101D01*
X80406217Y-55087112D01*
X80377224Y-55042734D01*
X80377220Y-55042729D01*
X80229340Y-54882091D01*
X80224740Y-54877094D01*
X80224739Y-54877093D01*
X80224737Y-54877091D01*
X80112221Y-54789516D01*
X80047076Y-54738811D01*
X79849074Y-54631658D01*
X79849072Y-54631657D01*
X79849071Y-54631656D01*
X79636139Y-54558557D01*
X79636130Y-54558555D01*
X79558529Y-54545606D01*
X79414069Y-54521500D01*
X79188931Y-54521500D01*
X79044471Y-54545606D01*
X78966869Y-54558555D01*
X78966860Y-54558557D01*
X78753928Y-54631656D01*
X78753926Y-54631658D01*
X78555926Y-54738810D01*
X78555924Y-54738811D01*
X78378262Y-54877091D01*
X78317254Y-54943363D01*
X78256401Y-54979933D01*
X78185436Y-54977798D01*
X78126891Y-54937636D01*
X78106499Y-54902057D01*
X78081765Y-54835744D01*
X78062389Y-54783796D01*
X78062388Y-54783794D01*
X78062387Y-54783792D01*
X77974761Y-54666738D01*
X77857707Y-54579112D01*
X77857702Y-54579110D01*
X77720704Y-54528011D01*
X77720696Y-54528009D01*
X77660149Y-54521500D01*
X77660138Y-54521500D01*
X75862862Y-54521500D01*
X75862850Y-54521500D01*
X75802303Y-54528009D01*
X75802295Y-54528011D01*
X75665297Y-54579110D01*
X75665292Y-54579112D01*
X75548238Y-54666738D01*
X75460612Y-54783792D01*
X75460610Y-54783797D01*
X75409511Y-54920795D01*
X75409509Y-54920803D01*
X75403000Y-54981350D01*
X75403000Y-56778649D01*
X73921819Y-56778649D01*
X73973722Y-56722268D01*
X74096860Y-56533791D01*
X74187296Y-56327616D01*
X74242564Y-56109368D01*
X74261156Y-55885000D01*
X74242564Y-55660632D01*
X74199194Y-55489367D01*
X74187297Y-55442387D01*
X74187296Y-55442386D01*
X74187296Y-55442384D01*
X74096860Y-55236209D01*
X74075083Y-55202877D01*
X73973724Y-55047734D01*
X73973720Y-55047729D01*
X73821237Y-54882091D01*
X73702297Y-54789516D01*
X73643576Y-54743811D01*
X73445574Y-54636658D01*
X73445572Y-54636657D01*
X73445571Y-54636656D01*
X73232639Y-54563557D01*
X73232630Y-54563555D01*
X73188476Y-54556187D01*
X73010569Y-54526500D01*
X72785431Y-54526500D01*
X72637211Y-54551233D01*
X72563369Y-54563555D01*
X72563360Y-54563557D01*
X72350428Y-54636656D01*
X72350426Y-54636658D01*
X72152426Y-54743810D01*
X72152424Y-54743811D01*
X71974762Y-54882091D01*
X71822279Y-55047729D01*
X71822275Y-55047734D01*
X71699141Y-55236206D01*
X71608703Y-55442386D01*
X71608702Y-55442387D01*
X71553437Y-55660624D01*
X71553436Y-55660630D01*
X71553436Y-55660632D01*
X71534844Y-55885000D01*
X70451156Y-55885000D01*
X70432564Y-55660632D01*
X70389194Y-55489367D01*
X70377297Y-55442387D01*
X70377296Y-55442386D01*
X70377296Y-55442384D01*
X70286860Y-55236209D01*
X70265083Y-55202877D01*
X70163724Y-55047734D01*
X70163720Y-55047729D01*
X70011237Y-54882091D01*
X69892297Y-54789516D01*
X69833576Y-54743811D01*
X69635574Y-54636658D01*
X69635572Y-54636657D01*
X69635571Y-54636656D01*
X69422639Y-54563557D01*
X69422630Y-54563555D01*
X69378476Y-54556187D01*
X69200569Y-54526500D01*
X68975431Y-54526500D01*
X68827211Y-54551233D01*
X68753369Y-54563555D01*
X68753360Y-54563557D01*
X68540428Y-54636656D01*
X68540426Y-54636658D01*
X68342426Y-54743810D01*
X68342424Y-54743811D01*
X68164762Y-54882091D01*
X68012279Y-55047729D01*
X68012275Y-55047734D01*
X67889141Y-55236206D01*
X67798703Y-55442386D01*
X67798702Y-55442387D01*
X67743437Y-55660624D01*
X67743436Y-55660630D01*
X67743436Y-55660632D01*
X67724844Y-55885000D01*
X51047787Y-55885000D01*
X51003957Y-55817508D01*
X51003945Y-55817491D01*
X50797122Y-55562087D01*
X50797121Y-55562086D01*
X49300004Y-57059203D01*
X49298430Y-57056635D01*
X49134870Y-56865130D01*
X48943365Y-56701570D01*
X48940795Y-56699995D01*
X50437912Y-55202877D01*
X50437911Y-55202876D01*
X50182508Y-54996054D01*
X50182491Y-54996042D01*
X49856541Y-54784369D01*
X49856535Y-54784365D01*
X49510247Y-54607923D01*
X49510239Y-54607919D01*
X49147414Y-54468644D01*
X48771995Y-54368051D01*
X48388114Y-54307250D01*
X48000006Y-54286911D01*
X47999994Y-54286911D01*
X47611885Y-54307250D01*
X47228004Y-54368051D01*
X46852585Y-54468644D01*
X46489760Y-54607919D01*
X46489752Y-54607923D01*
X46143455Y-54784371D01*
X45817502Y-54996047D01*
X45562086Y-55202877D01*
X47059204Y-56699995D01*
X47056635Y-56701570D01*
X46865130Y-56865130D01*
X46701570Y-57056635D01*
X46699995Y-57059204D01*
X45202877Y-55562086D01*
X44996047Y-55817502D01*
X44784371Y-56143455D01*
X44607923Y-56489752D01*
X44607919Y-56489760D01*
X44468644Y-56852585D01*
X44368051Y-57228004D01*
X44307250Y-57611885D01*
X44286911Y-57999993D01*
X44286911Y-58000006D01*
X44025500Y-58000006D01*
X44025500Y-57001644D01*
X44025585Y-56998371D01*
X44041622Y-56692370D01*
X44042311Y-56685822D01*
X44081169Y-56440483D01*
X44089983Y-56384826D01*
X44091355Y-56378375D01*
X44104957Y-56327612D01*
X44170229Y-56084008D01*
X44172260Y-56077758D01*
X44281479Y-55793234D01*
X44284154Y-55787227D01*
X44422512Y-55515683D01*
X44425808Y-55509976D01*
X44469701Y-55442387D01*
X44591791Y-55254385D01*
X44595641Y-55249085D01*
X44787456Y-55012213D01*
X44791842Y-55007344D01*
X45007344Y-54791842D01*
X45012213Y-54787456D01*
X45249085Y-54595641D01*
X45254385Y-54591791D01*
X45509982Y-54425804D01*
X45515683Y-54422512D01*
X45787227Y-54284154D01*
X45793234Y-54281479D01*
X46077758Y-54172260D01*
X46084008Y-54170229D01*
X46378380Y-54091353D01*
X46384826Y-54089983D01*
X46685822Y-54042310D01*
X46692370Y-54041622D01*
X46998371Y-54025585D01*
X47001644Y-54025500D01*
X47008285Y-54025500D01*
X91665287Y-54025500D01*
X91733408Y-54045502D01*
G37*
%TD.AperFunction*%
%TA.AperFunction,Conductor*%
G36*
X107091224Y-94357458D02*
G01*
X107120717Y-94422038D01*
X107122000Y-94439970D01*
X107122000Y-95509649D01*
X107101998Y-95577770D01*
X107048342Y-95624263D01*
X106978068Y-95634367D01*
X106913488Y-95604873D01*
X106875104Y-95545147D01*
X106874450Y-95542839D01*
X106834625Y-95396992D01*
X106834624Y-95396989D01*
X106806814Y-95332893D01*
X106806814Y-95332892D01*
X106730151Y-95208456D01*
X106621539Y-95110661D01*
X106621535Y-95110658D01*
X106605728Y-95100069D01*
X106560267Y-95045539D01*
X106551504Y-94975086D01*
X106582221Y-94911078D01*
X106607736Y-94889391D01*
X106628282Y-94876188D01*
X106628283Y-94876186D01*
X106628286Y-94876185D01*
X106656124Y-94852063D01*
X106681086Y-94830433D01*
X106776797Y-94719978D01*
X106837514Y-94587030D01*
X106857199Y-94519991D01*
X106857200Y-94519987D01*
X106871282Y-94422035D01*
X106900776Y-94357458D01*
X106960502Y-94319074D01*
X107031498Y-94319074D01*
X107091224Y-94357458D01*
G37*
%TD.AperFunction*%
%TD*%
%TA.AperFunction,Conductor*%
%TO.N,GNDA*%
G36*
X86191554Y-86361379D02*
G01*
X86249294Y-86376704D01*
X86255467Y-86380098D01*
X86271726Y-86390778D01*
X86287933Y-86403350D01*
X86331422Y-86422169D01*
X86336665Y-86424736D01*
X86378197Y-86447569D01*
X86378201Y-86447570D01*
X86398054Y-86452667D01*
X86416469Y-86458972D01*
X86435286Y-86467115D01*
X86435288Y-86467115D01*
X86435292Y-86467117D01*
X86468358Y-86472353D01*
X86482098Y-86474530D01*
X86487817Y-86475714D01*
X86533718Y-86487500D01*
X86554226Y-86487500D01*
X86573623Y-86489026D01*
X86593877Y-86492234D01*
X86593878Y-86492235D01*
X86593878Y-86492234D01*
X86593879Y-86492235D01*
X86615987Y-86490145D01*
X86641061Y-86487775D01*
X86646899Y-86487500D01*
X94011000Y-86487500D01*
X100527409Y-86592603D01*
X100594121Y-86613366D01*
X100598294Y-86616269D01*
X100635249Y-86643119D01*
X100702220Y-86672935D01*
X100809712Y-86720794D01*
X100996513Y-86760500D01*
X101187487Y-86760500D01*
X101374288Y-86720794D01*
X101548752Y-86643118D01*
X101561093Y-86634151D01*
X101626893Y-86610669D01*
X101635938Y-86610482D01*
X101732004Y-86612032D01*
X101798713Y-86632794D01*
X101843611Y-86686330D01*
X101854000Y-86736015D01*
X101854000Y-90678000D01*
X103602880Y-90678000D01*
X103669919Y-90697685D01*
X103675758Y-90701676D01*
X103683248Y-90707118D01*
X103857712Y-90784794D01*
X104044513Y-90824500D01*
X104235487Y-90824500D01*
X104422288Y-90784794D01*
X104596752Y-90707118D01*
X104604235Y-90701680D01*
X104670042Y-90678202D01*
X104677120Y-90678000D01*
X106142880Y-90678000D01*
X106209919Y-90697685D01*
X106215758Y-90701676D01*
X106223248Y-90707118D01*
X106290937Y-90737255D01*
X106344172Y-90782503D01*
X106364494Y-90849352D01*
X106364500Y-90850533D01*
X106364500Y-94375317D01*
X106344815Y-94442356D01*
X106292011Y-94488111D01*
X106222853Y-94498055D01*
X106159297Y-94469030D01*
X106148350Y-94458289D01*
X106021254Y-94317135D01*
X105866753Y-94204883D01*
X105866752Y-94204882D01*
X105692288Y-94127206D01*
X105692286Y-94127205D01*
X105505487Y-94087500D01*
X105314513Y-94087500D01*
X105127714Y-94127205D01*
X104953246Y-94204883D01*
X104798745Y-94317135D01*
X104670959Y-94459057D01*
X104575473Y-94624443D01*
X104575470Y-94624450D01*
X104516459Y-94806068D01*
X104516458Y-94806072D01*
X104504176Y-94922920D01*
X104499351Y-94968834D01*
X104472766Y-95033449D01*
X104463713Y-95043551D01*
X104421087Y-95086179D01*
X104359765Y-95119666D01*
X104333404Y-95122500D01*
X98749509Y-95122500D01*
X98682470Y-95102815D01*
X98657358Y-95081472D01*
X98655254Y-95079135D01*
X98503439Y-94968834D01*
X98500752Y-94966882D01*
X98326288Y-94889206D01*
X98326286Y-94889205D01*
X98139487Y-94849500D01*
X97948513Y-94849500D01*
X97761714Y-94889205D01*
X97587246Y-94966883D01*
X97432745Y-95079135D01*
X97304959Y-95221057D01*
X97209473Y-95386443D01*
X97209470Y-95386450D01*
X97150459Y-95568068D01*
X97150458Y-95568072D01*
X97130496Y-95758000D01*
X97150458Y-95947928D01*
X97150459Y-95947931D01*
X97209470Y-96129549D01*
X97209473Y-96129556D01*
X97304960Y-96294944D01*
X97392487Y-96392153D01*
X97428827Y-96432513D01*
X97432747Y-96436866D01*
X97587248Y-96549118D01*
X97761712Y-96626794D01*
X97948513Y-96666500D01*
X98139487Y-96666500D01*
X98326288Y-96626794D01*
X98500752Y-96549118D01*
X98655253Y-96436866D01*
X98657358Y-96434527D01*
X98658915Y-96433568D01*
X98660088Y-96432513D01*
X98660280Y-96432727D01*
X98716845Y-96397880D01*
X98749509Y-96393500D01*
X103805718Y-96393500D01*
X104564153Y-96393500D01*
X104579932Y-96395241D01*
X104579958Y-96394974D01*
X104587711Y-96395706D01*
X104587719Y-96395708D01*
X104657985Y-96393500D01*
X104687983Y-96393500D01*
X104695013Y-96392611D01*
X104700836Y-96392153D01*
X104748205Y-96390665D01*
X104767906Y-96384940D01*
X104786951Y-96380997D01*
X104807299Y-96378427D01*
X104851393Y-96360968D01*
X104856856Y-96359098D01*
X104902393Y-96345869D01*
X104920054Y-96335423D01*
X104937512Y-96326871D01*
X104956588Y-96319319D01*
X104994928Y-96291462D01*
X104999800Y-96288261D01*
X105040598Y-96264134D01*
X105055094Y-96249637D01*
X105069892Y-96236998D01*
X105086487Y-96224942D01*
X105116706Y-96188411D01*
X105120610Y-96184120D01*
X105363914Y-95940816D01*
X105425236Y-95907334D01*
X105451594Y-95904500D01*
X105505487Y-95904500D01*
X105692288Y-95864794D01*
X105866752Y-95787118D01*
X106021253Y-95674866D01*
X106148350Y-95533709D01*
X106207836Y-95497061D01*
X106277693Y-95498391D01*
X106335742Y-95537278D01*
X106363552Y-95601375D01*
X106364500Y-95616682D01*
X106364500Y-100240020D01*
X106344815Y-100307059D01*
X106292011Y-100352814D01*
X106259902Y-100362493D01*
X106238034Y-100365956D01*
X106227901Y-100367562D01*
X105983437Y-100433065D01*
X105852430Y-100468169D01*
X105489543Y-100607469D01*
X105143201Y-100783940D01*
X104817214Y-100995637D01*
X104515128Y-101240262D01*
X104515120Y-101240269D01*
X104240269Y-101515120D01*
X104240262Y-101515128D01*
X103995637Y-101817214D01*
X103783940Y-102143201D01*
X103607469Y-102489543D01*
X103468169Y-102852430D01*
X103367561Y-103227904D01*
X103367561Y-103227906D01*
X103306754Y-103611822D01*
X103286411Y-103999999D01*
X103286411Y-104000000D01*
X103306754Y-104388177D01*
X103358871Y-104717226D01*
X103367562Y-104772099D01*
X103429062Y-105001622D01*
X103468169Y-105147569D01*
X103607469Y-105510456D01*
X103783940Y-105856799D01*
X103995637Y-106182785D01*
X103995641Y-106182790D01*
X103995643Y-106182793D01*
X104240266Y-106484876D01*
X104515124Y-106759734D01*
X104817207Y-107004357D01*
X104817211Y-107004359D01*
X104817214Y-107004362D01*
X105143200Y-107216059D01*
X105143205Y-107216062D01*
X105489547Y-107392532D01*
X105852438Y-107531833D01*
X106227901Y-107632438D01*
X106611824Y-107693246D01*
X106978530Y-107712463D01*
X106999999Y-107713589D01*
X107000000Y-107713589D01*
X107000001Y-107713589D01*
X107020344Y-107712522D01*
X107388176Y-107693246D01*
X107772099Y-107632438D01*
X108147562Y-107531833D01*
X108510453Y-107392532D01*
X108856795Y-107216062D01*
X109182793Y-107004357D01*
X109484876Y-106759734D01*
X109759734Y-106484876D01*
X110004357Y-106182793D01*
X110216062Y-105856795D01*
X110392532Y-105510453D01*
X110531833Y-105147562D01*
X110632438Y-104772099D01*
X110693246Y-104388176D01*
X110713589Y-104000000D01*
X110693246Y-103611824D01*
X110632438Y-103227901D01*
X110531833Y-102852438D01*
X110392532Y-102489547D01*
X110216062Y-102143206D01*
X110208343Y-102131320D01*
X110004362Y-101817214D01*
X110004359Y-101817211D01*
X110004357Y-101817207D01*
X109759734Y-101515124D01*
X109484876Y-101240266D01*
X109182793Y-100995643D01*
X109182790Y-100995641D01*
X109182785Y-100995637D01*
X108856799Y-100783940D01*
X108510456Y-100607469D01*
X108147569Y-100468169D01*
X108147562Y-100468167D01*
X107772099Y-100367562D01*
X107756706Y-100365123D01*
X107740098Y-100362493D01*
X107676965Y-100332561D01*
X107640035Y-100273249D01*
X107635500Y-100240020D01*
X107635500Y-90802000D01*
X107655185Y-90734961D01*
X107707989Y-90689206D01*
X107759500Y-90678000D01*
X108682880Y-90678000D01*
X108749919Y-90697685D01*
X108755758Y-90701676D01*
X108763248Y-90707118D01*
X108937712Y-90784794D01*
X109124513Y-90824500D01*
X109315487Y-90824500D01*
X109502288Y-90784794D01*
X109676752Y-90707118D01*
X109684235Y-90701680D01*
X109750042Y-90678202D01*
X109757120Y-90678000D01*
X110850500Y-90678000D01*
X110917539Y-90697685D01*
X110963294Y-90750489D01*
X110974500Y-90802000D01*
X110974500Y-104998376D01*
X110974415Y-105001622D01*
X110958374Y-105307676D01*
X110957695Y-105314134D01*
X110910009Y-105615218D01*
X110908659Y-105621570D01*
X110829759Y-105916029D01*
X110827753Y-105922205D01*
X110718506Y-106206801D01*
X110715865Y-106212734D01*
X110577467Y-106484357D01*
X110574219Y-106489981D01*
X110408193Y-106745637D01*
X110404376Y-106750890D01*
X110212527Y-106987805D01*
X110208181Y-106992631D01*
X109992631Y-107208181D01*
X109987805Y-107212527D01*
X109750890Y-107404376D01*
X109745637Y-107408193D01*
X109489981Y-107574219D01*
X109484357Y-107577467D01*
X109212734Y-107715865D01*
X109206801Y-107718506D01*
X108922205Y-107827753D01*
X108916029Y-107829759D01*
X108621570Y-107908659D01*
X108615218Y-107910009D01*
X108314134Y-107957695D01*
X108307676Y-107958374D01*
X108018648Y-107973522D01*
X108001620Y-107974415D01*
X107998377Y-107974500D01*
X93371106Y-107974500D01*
X93304067Y-107954815D01*
X93258312Y-107902011D01*
X93248368Y-107832853D01*
X93277393Y-107769297D01*
X93293794Y-107753553D01*
X93398396Y-107670135D01*
X93541841Y-107505948D01*
X93541842Y-107505946D01*
X93653661Y-107318795D01*
X93653665Y-107318787D01*
X93730271Y-107114670D01*
X93769200Y-106900158D01*
X93769200Y-106329945D01*
X92858000Y-106329945D01*
X92858000Y-105829945D01*
X93769200Y-105829945D01*
X93769200Y-105314353D01*
X93769199Y-105314349D01*
X93754553Y-105151604D01*
X93754552Y-105151598D01*
X93696554Y-104941448D01*
X93696549Y-104941435D01*
X93601959Y-104745016D01*
X93601955Y-104745008D01*
X93473811Y-104568633D01*
X93473810Y-104568631D01*
X93316223Y-104417964D01*
X93134270Y-104297856D01*
X92933792Y-104212169D01*
X92933786Y-104212167D01*
X92808000Y-104183457D01*
X92808000Y-105463834D01*
X92783543Y-105424335D01*
X92694038Y-105356744D01*
X92586160Y-105326050D01*
X92474479Y-105336399D01*
X92374078Y-105386393D01*
X92308000Y-105458875D01*
X92308000Y-104180346D01*
X92307999Y-104180346D01*
X92287394Y-104183138D01*
X92080041Y-104250512D01*
X91888058Y-104353822D01*
X91888049Y-104353828D01*
X91717603Y-104489754D01*
X91574158Y-104653941D01*
X91574157Y-104653943D01*
X91462338Y-104841094D01*
X91462334Y-104841102D01*
X91385728Y-105045219D01*
X91346800Y-105259731D01*
X91346800Y-105829945D01*
X92258000Y-105829945D01*
X92258000Y-106329945D01*
X91346800Y-106329945D01*
X91346800Y-106845540D01*
X91361446Y-107008285D01*
X91361447Y-107008291D01*
X91419445Y-107218441D01*
X91419450Y-107218454D01*
X91514040Y-107414873D01*
X91514044Y-107414881D01*
X91642188Y-107591256D01*
X91642189Y-107591258D01*
X91799777Y-107741926D01*
X91807481Y-107747012D01*
X91852587Y-107800372D01*
X91861684Y-107869647D01*
X91831884Y-107932843D01*
X91772648Y-107969896D01*
X91739171Y-107974500D01*
X87071106Y-107974500D01*
X87004067Y-107954815D01*
X86958312Y-107902011D01*
X86948368Y-107832853D01*
X86977393Y-107769297D01*
X86993794Y-107753553D01*
X87098396Y-107670135D01*
X87241841Y-107505948D01*
X87241842Y-107505946D01*
X87353661Y-107318795D01*
X87353665Y-107318787D01*
X87430271Y-107114670D01*
X87469200Y-106900158D01*
X87469200Y-106329945D01*
X86558000Y-106329945D01*
X86558000Y-105829945D01*
X87469200Y-105829945D01*
X87469200Y-105379945D01*
X88352417Y-105379945D01*
X88372699Y-105585877D01*
X88383943Y-105622942D01*
X88431280Y-105778995D01*
X88432769Y-105783901D01*
X88436111Y-105790153D01*
X88530315Y-105966395D01*
X88530317Y-105966397D01*
X88661589Y-106126355D01*
X88730360Y-106182793D01*
X88821550Y-106257630D01*
X89004046Y-106355177D01*
X89202066Y-106415245D01*
X89202065Y-106415245D01*
X89240647Y-106419045D01*
X89356392Y-106430445D01*
X89356395Y-106430445D01*
X89459605Y-106430445D01*
X89459608Y-106430445D01*
X89613934Y-106415245D01*
X89811954Y-106355177D01*
X89994450Y-106257630D01*
X90154410Y-106126355D01*
X90285685Y-105966395D01*
X90383232Y-105783899D01*
X90443300Y-105585879D01*
X90463583Y-105379945D01*
X90443300Y-105174011D01*
X90383232Y-104975991D01*
X90285685Y-104793495D01*
X90183966Y-104669549D01*
X90154410Y-104633534D01*
X90036677Y-104536914D01*
X89994450Y-104502260D01*
X89811954Y-104404713D01*
X89613934Y-104344645D01*
X89613932Y-104344644D01*
X89613934Y-104344644D01*
X89494805Y-104332911D01*
X89459608Y-104329445D01*
X89356392Y-104329445D01*
X89318298Y-104333196D01*
X89202067Y-104344644D01*
X89004043Y-104404714D01*
X88934306Y-104441990D01*
X88821550Y-104502260D01*
X88821548Y-104502261D01*
X88821547Y-104502262D01*
X88661589Y-104633534D01*
X88530317Y-104793492D01*
X88530315Y-104793495D01*
X88507785Y-104835645D01*
X88432769Y-104975988D01*
X88372699Y-105174012D01*
X88352417Y-105379945D01*
X87469200Y-105379945D01*
X87469200Y-105314353D01*
X87469199Y-105314349D01*
X87454553Y-105151604D01*
X87454552Y-105151598D01*
X87396554Y-104941448D01*
X87396549Y-104941435D01*
X87301959Y-104745016D01*
X87301955Y-104745008D01*
X87173811Y-104568633D01*
X87170146Y-104564438D01*
X87172135Y-104562699D01*
X87142823Y-104511776D01*
X87146238Y-104441990D01*
X87169983Y-104401114D01*
X87248746Y-104310964D01*
X87361354Y-104122492D01*
X87438498Y-103916942D01*
X87458992Y-103804011D01*
X87477700Y-103700923D01*
X87477700Y-102113974D01*
X87477700Y-102113967D01*
X87462950Y-101950079D01*
X87459733Y-101938422D01*
X87404544Y-101738450D01*
X87404539Y-101738437D01*
X87309284Y-101540636D01*
X87309278Y-101540626D01*
X87190323Y-101376899D01*
X87166843Y-101311093D01*
X87182668Y-101243039D01*
X87232774Y-101194344D01*
X87301252Y-101180469D01*
X87321473Y-101183908D01*
X87354718Y-101192445D01*
X87375226Y-101192445D01*
X87394623Y-101193971D01*
X87414877Y-101197179D01*
X87414878Y-101197180D01*
X87414878Y-101197179D01*
X87414879Y-101197180D01*
X87436987Y-101195090D01*
X87462061Y-101192720D01*
X87467899Y-101192445D01*
X91297153Y-101192445D01*
X91312932Y-101194186D01*
X91312958Y-101193919D01*
X91320711Y-101194651D01*
X91320719Y-101194653D01*
X91390985Y-101192445D01*
X91420983Y-101192445D01*
X91428013Y-101191556D01*
X91433836Y-101191098D01*
X91481205Y-101189610D01*
X91500906Y-101183885D01*
X91519951Y-101179942D01*
X91540299Y-101177372D01*
X91584393Y-101159913D01*
X91589856Y-101158043D01*
X91635393Y-101144814D01*
X91653054Y-101134368D01*
X91670512Y-101125816D01*
X91689588Y-101118264D01*
X91720248Y-101095987D01*
X91786050Y-101072507D01*
X91854104Y-101088330D01*
X91861436Y-101092813D01*
X91977686Y-101169549D01*
X92179569Y-101255837D01*
X92393614Y-101304692D01*
X92579539Y-101313041D01*
X92612939Y-101314542D01*
X92612939Y-101314541D01*
X92612943Y-101314542D01*
X92830506Y-101285071D01*
X93039310Y-101217226D01*
X93232645Y-101113188D01*
X93404296Y-100976301D01*
X93548746Y-100810964D01*
X93661354Y-100622492D01*
X93738498Y-100416942D01*
X93758439Y-100307059D01*
X93777700Y-100200923D01*
X93777700Y-99314000D01*
X98654496Y-99314000D01*
X98674458Y-99503928D01*
X98674459Y-99503931D01*
X98733470Y-99685549D01*
X98733473Y-99685556D01*
X98828960Y-99850944D01*
X98917700Y-99949500D01*
X98952827Y-99988513D01*
X98956747Y-99992866D01*
X99111248Y-100105118D01*
X99285712Y-100182794D01*
X99472513Y-100222500D01*
X99663487Y-100222500D01*
X99850288Y-100182794D01*
X100024752Y-100105118D01*
X100179253Y-99992866D01*
X100181358Y-99990527D01*
X100182915Y-99989568D01*
X100184088Y-99988513D01*
X100184280Y-99988727D01*
X100240845Y-99953880D01*
X100273509Y-99949500D01*
X103434491Y-99949500D01*
X103501530Y-99969185D01*
X103526641Y-99990527D01*
X103528747Y-99992866D01*
X103683248Y-100105118D01*
X103857712Y-100182794D01*
X104044513Y-100222500D01*
X104235487Y-100222500D01*
X104422288Y-100182794D01*
X104596752Y-100105118D01*
X104751253Y-99992866D01*
X104879040Y-99850944D01*
X104974527Y-99685556D01*
X105033542Y-99503928D01*
X105053504Y-99314000D01*
X105033542Y-99124072D01*
X104974527Y-98942444D01*
X104879040Y-98777056D01*
X104763981Y-98649270D01*
X104751254Y-98635135D01*
X104749051Y-98633534D01*
X104596752Y-98522882D01*
X104422288Y-98445206D01*
X104422286Y-98445205D01*
X104235487Y-98405500D01*
X104044513Y-98405500D01*
X103857714Y-98445205D01*
X103683246Y-98522883D01*
X103528745Y-98635135D01*
X103526642Y-98637472D01*
X103525084Y-98638431D01*
X103523912Y-98639487D01*
X103523719Y-98639272D01*
X103467155Y-98674120D01*
X103434491Y-98678500D01*
X100273509Y-98678500D01*
X100206470Y-98658815D01*
X100181358Y-98637472D01*
X100179254Y-98635135D01*
X100177051Y-98633534D01*
X100024752Y-98522882D01*
X99850288Y-98445206D01*
X99850286Y-98445205D01*
X99663487Y-98405500D01*
X99472513Y-98405500D01*
X99285714Y-98445205D01*
X99111246Y-98522883D01*
X98956745Y-98635135D01*
X98828959Y-98777057D01*
X98733473Y-98942443D01*
X98733470Y-98942450D01*
X98674459Y-99124068D01*
X98674458Y-99124072D01*
X98654496Y-99314000D01*
X93777700Y-99314000D01*
X93777700Y-98613974D01*
X93777700Y-98613967D01*
X93762950Y-98450079D01*
X93762949Y-98450074D01*
X93704544Y-98238450D01*
X93704539Y-98238437D01*
X93609284Y-98040636D01*
X93609278Y-98040626D01*
X93480238Y-97863018D01*
X93480232Y-97863011D01*
X93321543Y-97711290D01*
X93249187Y-97663527D01*
X93204083Y-97610166D01*
X93193500Y-97560041D01*
X93193500Y-89339847D01*
X93195241Y-89324067D01*
X93194974Y-89324042D01*
X93195706Y-89316288D01*
X93195708Y-89316281D01*
X93193500Y-89246014D01*
X93193500Y-89216017D01*
X93192611Y-89208984D01*
X93192153Y-89203162D01*
X93190665Y-89155795D01*
X93184941Y-89136093D01*
X93180997Y-89117049D01*
X93178427Y-89096701D01*
X93160973Y-89052618D01*
X93159098Y-89047142D01*
X93145869Y-89001607D01*
X93135427Y-88983951D01*
X93126869Y-88966482D01*
X93119318Y-88947410D01*
X93105901Y-88928944D01*
X93091448Y-88909052D01*
X93088257Y-88904192D01*
X93064138Y-88863407D01*
X93064129Y-88863397D01*
X93049639Y-88848907D01*
X93037000Y-88834110D01*
X93033156Y-88828819D01*
X93024942Y-88817513D01*
X93024939Y-88817511D01*
X93024939Y-88817510D01*
X92988422Y-88787301D01*
X92984110Y-88783378D01*
X92132288Y-87931555D01*
X92098803Y-87870232D01*
X92096650Y-87856850D01*
X92079542Y-87694072D01*
X92020527Y-87512444D01*
X91925040Y-87347056D01*
X91797253Y-87205134D01*
X91642752Y-87092882D01*
X91468288Y-87015206D01*
X91468286Y-87015205D01*
X91281487Y-86975500D01*
X91090513Y-86975500D01*
X90903714Y-87015205D01*
X90729246Y-87092883D01*
X90574745Y-87205135D01*
X90446959Y-87347057D01*
X90351473Y-87512443D01*
X90351470Y-87512450D01*
X90292459Y-87694068D01*
X90292458Y-87694072D01*
X90272496Y-87884000D01*
X90292458Y-88073928D01*
X90292459Y-88073931D01*
X90351470Y-88255549D01*
X90351473Y-88255556D01*
X90446960Y-88420944D01*
X90574747Y-88562866D01*
X90729248Y-88675118D01*
X90903712Y-88752794D01*
X91090513Y-88792500D01*
X91144406Y-88792500D01*
X91211445Y-88812185D01*
X91232087Y-88828819D01*
X91886181Y-89482913D01*
X91919666Y-89544236D01*
X91922500Y-89570594D01*
X91922500Y-97555769D01*
X91902815Y-97622808D01*
X91875813Y-97652716D01*
X91711703Y-97783588D01*
X91567259Y-97948919D01*
X91567252Y-97948927D01*
X91454649Y-98137391D01*
X91454647Y-98137396D01*
X91377501Y-98342948D01*
X91377501Y-98342949D01*
X91338300Y-98558966D01*
X91338300Y-99649550D01*
X91318615Y-99716589D01*
X91301981Y-99737231D01*
X91154086Y-99885126D01*
X91092763Y-99918611D01*
X91066405Y-99921445D01*
X90508702Y-99921445D01*
X90441663Y-99901760D01*
X90395908Y-99848956D01*
X90385964Y-99779798D01*
X90390038Y-99761459D01*
X90443300Y-99585879D01*
X90463583Y-99379945D01*
X90443300Y-99174011D01*
X90383232Y-98975991D01*
X90285685Y-98793495D01*
X90191312Y-98678500D01*
X90154410Y-98633534D01*
X89994452Y-98502262D01*
X89994453Y-98502262D01*
X89994450Y-98502260D01*
X89811954Y-98404713D01*
X89613934Y-98344645D01*
X89613932Y-98344644D01*
X89613934Y-98344644D01*
X89494805Y-98332911D01*
X89459608Y-98329445D01*
X89356392Y-98329445D01*
X89318298Y-98333196D01*
X89202067Y-98344644D01*
X89004043Y-98404714D01*
X88919182Y-98450074D01*
X88821550Y-98502260D01*
X88821548Y-98502261D01*
X88821547Y-98502262D01*
X88661589Y-98633534D01*
X88543805Y-98777057D01*
X88530315Y-98793495D01*
X88512053Y-98827661D01*
X88432769Y-98975988D01*
X88372699Y-99174012D01*
X88352417Y-99379945D01*
X88372699Y-99585877D01*
X88372700Y-99585879D01*
X88425959Y-99761452D01*
X88426582Y-99831317D01*
X88389334Y-99890430D01*
X88326040Y-99920020D01*
X88307298Y-99921445D01*
X87749595Y-99921445D01*
X87682556Y-99901760D01*
X87661914Y-99885126D01*
X87514019Y-99737231D01*
X87480534Y-99675908D01*
X87477700Y-99649550D01*
X87477700Y-98613974D01*
X87477700Y-98613967D01*
X87462950Y-98450079D01*
X87462949Y-98450074D01*
X87404544Y-98238450D01*
X87404539Y-98238437D01*
X87309284Y-98040636D01*
X87309278Y-98040626D01*
X87180238Y-97863018D01*
X87180232Y-97863011D01*
X87097161Y-97783588D01*
X87021544Y-97711291D01*
X86838314Y-97590341D01*
X86636431Y-97504053D01*
X86636425Y-97504051D01*
X86636423Y-97504051D01*
X86508350Y-97474819D01*
X86422386Y-97455198D01*
X86414035Y-97454822D01*
X86203060Y-97445347D01*
X86080264Y-97461981D01*
X85985494Y-97474819D01*
X85985491Y-97474819D01*
X85985490Y-97474820D01*
X85776690Y-97542663D01*
X85583357Y-97646700D01*
X85583354Y-97646702D01*
X85411703Y-97783588D01*
X85267259Y-97948919D01*
X85267252Y-97948927D01*
X85154649Y-98137391D01*
X85154647Y-98137396D01*
X85077501Y-98342948D01*
X85077501Y-98342949D01*
X85038300Y-98558966D01*
X85038300Y-99649549D01*
X85018615Y-99716588D01*
X85001981Y-99737230D01*
X83937921Y-100801289D01*
X83925531Y-100811217D01*
X83925702Y-100811424D01*
X83919696Y-100816392D01*
X83894878Y-100842820D01*
X83871573Y-100867638D01*
X83864503Y-100874708D01*
X83850365Y-100888845D01*
X83850363Y-100888847D01*
X83846008Y-100894461D01*
X83842218Y-100898898D01*
X83809782Y-100933439D01*
X83809781Y-100933441D01*
X83799900Y-100951413D01*
X83789225Y-100967664D01*
X83776652Y-100983874D01*
X83776649Y-100983878D01*
X83757827Y-101027373D01*
X83755257Y-101032619D01*
X83732430Y-101074142D01*
X83727329Y-101094009D01*
X83721030Y-101112407D01*
X83712884Y-101131232D01*
X83712881Y-101131241D01*
X83705469Y-101178043D01*
X83704284Y-101183765D01*
X83692500Y-101229656D01*
X83692500Y-101250170D01*
X83690973Y-101269569D01*
X83688753Y-101283589D01*
X83687765Y-101289824D01*
X83689776Y-101311093D01*
X83692225Y-101337004D01*
X83692500Y-101342842D01*
X83692500Y-104396500D01*
X83672815Y-104463539D01*
X83620011Y-104509294D01*
X83568500Y-104520500D01*
X83524500Y-104520500D01*
X83457461Y-104500815D01*
X83411706Y-104448011D01*
X83400500Y-104396500D01*
X83400500Y-104257362D01*
X83400499Y-104257345D01*
X83395641Y-104212167D01*
X83393989Y-104196799D01*
X83387852Y-104180346D01*
X83366274Y-104122492D01*
X83342889Y-104059796D01*
X83255261Y-103942739D01*
X83138204Y-103855111D01*
X83138202Y-103855110D01*
X83138204Y-103855110D01*
X83008619Y-103806777D01*
X82952685Y-103764906D01*
X82928269Y-103699441D01*
X82943121Y-103631168D01*
X82964272Y-103602914D01*
X83080108Y-103487078D01*
X83215600Y-103293578D01*
X83315429Y-103079492D01*
X83315432Y-103079486D01*
X83372636Y-102866000D01*
X82475686Y-102866000D01*
X82501493Y-102825844D01*
X82542000Y-102687889D01*
X82542000Y-102544111D01*
X82501493Y-102406156D01*
X82475686Y-102366000D01*
X83372636Y-102366000D01*
X83372635Y-102365999D01*
X83315432Y-102152513D01*
X83315429Y-102152507D01*
X83215600Y-101938422D01*
X83215599Y-101938420D01*
X83080113Y-101744926D01*
X83080108Y-101744920D01*
X82913082Y-101577894D01*
X82732197Y-101451236D01*
X82688572Y-101396659D01*
X82681380Y-101327160D01*
X82712902Y-101264806D01*
X82744300Y-101240608D01*
X82787576Y-101217189D01*
X82965240Y-101078906D01*
X83067646Y-100967664D01*
X83117715Y-100913276D01*
X83117716Y-100913274D01*
X83117722Y-100913268D01*
X83240860Y-100724791D01*
X83331296Y-100518616D01*
X83386564Y-100300368D01*
X83391565Y-100240020D01*
X83405156Y-100076005D01*
X83405156Y-100075994D01*
X83386565Y-99851640D01*
X83386563Y-99851628D01*
X83344506Y-99685549D01*
X83331296Y-99633384D01*
X83240860Y-99427209D01*
X83117722Y-99238732D01*
X83117719Y-99238729D01*
X83117715Y-99238723D01*
X82965243Y-99073097D01*
X82965238Y-99073092D01*
X82787577Y-98934812D01*
X82787572Y-98934808D01*
X82589580Y-98827661D01*
X82589577Y-98827659D01*
X82589574Y-98827658D01*
X82589571Y-98827657D01*
X82589569Y-98827656D01*
X82376637Y-98754556D01*
X82154569Y-98717500D01*
X81929431Y-98717500D01*
X81707362Y-98754556D01*
X81494430Y-98827656D01*
X81494419Y-98827661D01*
X81296427Y-98934808D01*
X81296422Y-98934812D01*
X81118761Y-99073092D01*
X81118756Y-99073097D01*
X80966284Y-99238723D01*
X80966276Y-99238734D01*
X80843140Y-99427207D01*
X80752703Y-99633385D01*
X80697436Y-99851628D01*
X80697434Y-99851640D01*
X80678844Y-100075994D01*
X80678844Y-100076005D01*
X80697434Y-100300359D01*
X80697436Y-100300371D01*
X80752703Y-100518614D01*
X80843140Y-100724792D01*
X80966276Y-100913265D01*
X80966284Y-100913276D01*
X81118756Y-101078902D01*
X81118761Y-101078907D01*
X81136634Y-101092818D01*
X81296424Y-101217189D01*
X81339059Y-101240262D01*
X81339695Y-101240606D01*
X81389286Y-101289825D01*
X81404394Y-101358042D01*
X81380224Y-101423597D01*
X81351802Y-101451236D01*
X81170922Y-101577890D01*
X81170920Y-101577891D01*
X81003891Y-101744920D01*
X81003886Y-101744926D01*
X80868400Y-101938420D01*
X80868399Y-101938422D01*
X80768570Y-102152507D01*
X80768567Y-102152513D01*
X80711364Y-102365999D01*
X80711364Y-102366000D01*
X81608314Y-102366000D01*
X81582507Y-102406156D01*
X81542000Y-102544111D01*
X81542000Y-102687889D01*
X81582507Y-102825844D01*
X81608314Y-102866000D01*
X80711364Y-102866000D01*
X80768567Y-103079486D01*
X80768570Y-103079492D01*
X80868399Y-103293578D01*
X81003894Y-103487082D01*
X81119727Y-103602915D01*
X81153212Y-103664238D01*
X81148228Y-103733930D01*
X81106356Y-103789863D01*
X81075381Y-103806777D01*
X80945795Y-103855111D01*
X80828739Y-103942739D01*
X80741111Y-104059795D01*
X80690011Y-104196795D01*
X80690011Y-104196797D01*
X80683500Y-104257345D01*
X80683500Y-106054654D01*
X80690011Y-106115202D01*
X80690011Y-106115204D01*
X80724176Y-106206801D01*
X80741111Y-106252204D01*
X80828739Y-106369261D01*
X80945796Y-106456889D01*
X81082799Y-106507989D01*
X81110050Y-106510918D01*
X81143345Y-106514499D01*
X81143362Y-106514500D01*
X82940638Y-106514500D01*
X82940654Y-106514499D01*
X82967692Y-106511591D01*
X83001201Y-106507989D01*
X83138204Y-106456889D01*
X83255261Y-106369261D01*
X83342889Y-106252204D01*
X83393989Y-106115201D01*
X83399364Y-106065206D01*
X83400499Y-106054654D01*
X83400500Y-106054637D01*
X83400500Y-105915500D01*
X83420185Y-105848461D01*
X83472989Y-105802706D01*
X83524500Y-105791500D01*
X83990153Y-105791500D01*
X84005932Y-105793241D01*
X84005958Y-105792974D01*
X84013711Y-105793706D01*
X84013719Y-105793708D01*
X84083985Y-105791500D01*
X84113983Y-105791500D01*
X84121013Y-105790611D01*
X84126836Y-105790153D01*
X84174205Y-105788665D01*
X84193906Y-105782940D01*
X84212951Y-105778997D01*
X84233299Y-105776427D01*
X84277393Y-105758968D01*
X84282856Y-105757098D01*
X84328393Y-105743869D01*
X84346054Y-105733423D01*
X84363512Y-105724871D01*
X84382588Y-105717319D01*
X84420928Y-105689462D01*
X84425800Y-105686261D01*
X84466598Y-105662134D01*
X84481094Y-105647637D01*
X84495892Y-105634998D01*
X84512487Y-105622942D01*
X84542707Y-105586410D01*
X84546621Y-105582109D01*
X84718072Y-105410658D01*
X84730461Y-105400735D01*
X84730289Y-105400528D01*
X84736298Y-105395555D01*
X84736303Y-105395553D01*
X84784441Y-105344290D01*
X84805638Y-105323094D01*
X84809979Y-105317497D01*
X84813773Y-105313055D01*
X84825375Y-105300700D01*
X84832408Y-105293210D01*
X84892647Y-105257816D01*
X84962460Y-105260608D01*
X85019682Y-105300700D01*
X85046145Y-105365365D01*
X85046800Y-105378094D01*
X85046800Y-105829945D01*
X85958000Y-105829945D01*
X85958000Y-106329945D01*
X85046800Y-106329945D01*
X85046800Y-106845540D01*
X85061446Y-107008285D01*
X85061447Y-107008291D01*
X85119445Y-107218441D01*
X85119450Y-107218454D01*
X85214040Y-107414873D01*
X85214044Y-107414881D01*
X85342188Y-107591256D01*
X85342189Y-107591258D01*
X85499777Y-107741926D01*
X85507481Y-107747012D01*
X85552587Y-107800372D01*
X85561684Y-107869647D01*
X85531884Y-107932843D01*
X85472648Y-107969896D01*
X85439171Y-107974500D01*
X80386943Y-107974500D01*
X80319904Y-107954815D01*
X80274149Y-107902011D01*
X80262943Y-107850500D01*
X80262943Y-107466231D01*
X80279555Y-107404233D01*
X80336527Y-107305556D01*
X80395542Y-107123928D01*
X80415504Y-106934000D01*
X80395542Y-106744072D01*
X80336527Y-106562444D01*
X80291740Y-106484871D01*
X80279556Y-106463767D01*
X80262943Y-106401767D01*
X80262943Y-99084231D01*
X80279555Y-99022233D01*
X80336527Y-98923556D01*
X80395542Y-98741928D01*
X80415504Y-98552000D01*
X80400141Y-98405833D01*
X80412710Y-98337106D01*
X80460442Y-98286082D01*
X80477396Y-98277749D01*
X82802943Y-97347531D01*
X82803993Y-90468012D01*
X82823688Y-90400977D01*
X82831748Y-90389848D01*
X83679626Y-89346306D01*
X83737177Y-89306689D01*
X83775863Y-89300500D01*
X83915487Y-89300500D01*
X84102288Y-89260794D01*
X84276752Y-89183118D01*
X84431253Y-89070866D01*
X84559040Y-88928944D01*
X84654527Y-88763556D01*
X84713542Y-88581928D01*
X84733504Y-88392000D01*
X84713542Y-88202072D01*
X84704613Y-88174594D01*
X84702617Y-88104756D01*
X84726302Y-88058089D01*
X86068007Y-86406759D01*
X86125558Y-86367144D01*
X86166239Y-86360971D01*
X86191554Y-86361379D01*
G37*
%TD.AperFunction*%
%TD*%
M02*
